<svg width="24" height="24" viewBox="0 0 24 24" fill="none" xmlns="http://www.w3.org/2000/svg">
<path d="M16.111 21.0298H8.061C6.99626 21.0405 5.97076 20.6284 5.20945 19.884C4.44814 19.1395 4.01319 18.1235 4 17.0588V12.3588C4.01424 11.2947 4.44962 10.2796 5.21079 9.53589C5.97195 8.79216 6.99685 8.3804 8.061 8.39082H16.111C17.1758 8.38041 18.2013 8.79271 18.9626 9.53731C19.7239 10.2819 20.1588 11.298 20.172 12.3628V17.0628C20.1578 18.1268 19.7223 19.1418 18.9612 19.8854C18.2 20.629 17.1751 21.0405 16.111 21.0298ZM12.081 12.8298C11.8604 12.8277 11.648 12.9131 11.4903 13.0674C11.3327 13.2217 11.2426 13.4322 11.24 13.6528V15.7528C11.2475 15.972 11.3399 16.1797 11.4977 16.3321C11.6554 16.4845 11.8662 16.5697 12.0855 16.5697C12.3048 16.5697 12.5156 16.4845 12.6733 16.3321C12.8311 16.1797 12.9235 15.972 12.931 15.7528V13.6528C12.926 13.4318 12.8339 13.2217 12.6747 13.0683C12.5155 12.9149 12.3021 12.8306 12.081 12.8338V12.8298Z" fill="#F34D4D"/>
<path opacity="0.4" d="M17.339 7.13345V8.53345C16.9928 8.43767 16.6352 8.38956 16.276 8.39045H15.648V7.13345C15.6367 6.20056 15.2556 5.31029 14.5886 4.65803C13.9215 4.00578 13.0229 3.64485 12.09 3.65445C11.1592 3.64373 10.2618 4.00143 9.59366 4.64957C8.92548 5.29771 8.54062 6.18373 8.523 7.11445V8.39045H7.905C7.54174 8.38716 7.18005 8.43839 6.832 8.54245V7.13345C6.84967 5.75919 7.41067 4.44781 8.39238 3.48596C9.37409 2.52411 10.6967 1.99003 12.071 2.00045C12.754 1.99146 13.432 2.11712 14.0664 2.37023C14.7008 2.62335 15.2791 2.99897 15.7684 3.47563C16.2576 3.9523 16.6481 4.52068 16.9176 5.14829C17.187 5.77591 17.3303 6.45047 17.339 7.13345Z" fill="#F34D4D"/>
</svg>
