<svg xmlns="http://www.w3.org/2000/svg" xmlns:xlink="http://www.w3.org/1999/xlink" width="94.067" height="21.333" viewBox="0 0 94.067 21.333">
  <defs>
    <clipPath id="clip-path">
      <rect width="94.067" height="21.333" fill="none"/>
    </clipPath>
  </defs>
  <g id="Group_11353" data-name="Group 11353" transform="translate(-189.938 -847)">
    <g id="Repeat_Grid_1" data-name="Repeat Grid 1" transform="translate(189.938 847)" clip-path="url(#clip-path)">
      <g id="Group_11352" data-name="Group 11352" transform="translate(-189.938 -847)">
        <g id="Group_11243" data-name="Group 11243" transform="translate(3)">
          <g id="Home" transform="translate(52.005 845.041)">
            <text id="tyed_survey" data-name="tyed survey" transform="translate(158 17.959)" fill="#f34d4d" font-size="14" font-family="SegoeUI, Segoe UI"><tspan x="0" y="0">tyed survey</tspan></text>
          </g>
          <g id="clipboard-task-list-ltr_1" transform="translate(135.738 847)">
            <path id="Path_23783" data-name="Path 23783" d="M61.6,0H57.867a2.4,2.4,0,0,0-2.385,2.133H53.6a2.4,2.4,0,0,0-2.4,2.4v14.4a2.4,2.4,0,0,0,2.4,2.4H65.867a2.4,2.4,0,0,0,2.4-2.4V4.533a2.4,2.4,0,0,0-2.4-2.4H63.986A2.4,2.4,0,0,0,61.6,0ZM57.867,1.6H61.6a.8.8,0,1,1,0,1.6H57.867a.8.8,0,1,1,0-1.6Zm2.4,7.2a.8.8,0,0,1,.8-.8H64.8a.8.8,0,1,1,0,1.6H61.067A.8.8,0,0,1,60.267,8.8Zm.8,5.067H64.8a.8.8,0,1,1,0,1.6H61.067a.8.8,0,1,1,0-1.6ZM58.433,8.3,56.3,10.433a.8.8,0,0,1-1.131,0L54.1,9.366a.8.8,0,0,1,1.131-1.131l.5.5L57.3,7.168A.8.8,0,0,1,58.433,8.3Zm0,4.735a.8.8,0,0,1,0,1.131L56.3,16.3a.8.8,0,0,1-1.131,0L54.1,15.232A.8.8,0,1,1,55.233,14.1l.5.5L57.3,13.035A.8.8,0,0,1,58.433,13.034Z" fill="#f34d4d"/>
          </g>
        </g>
      </g>
    </g>
  </g>
</svg>
