<svg xmlns="http://www.w3.org/2000/svg" xmlns:xlink="http://www.w3.org/1999/xlink" width="40" height="40" viewBox="0 0 40 40">
  <defs>
    <filter id="Ellipse_2779" x="0" y="0" width="40" height="40" filterUnits="userSpaceOnUse">
      <feOffset dy="3" input="SourceAlpha"/>
      <feGaussianBlur stdDeviation="3" result="blur"/>
      <feFlood flood-opacity="0.161"/>
      <feComposite operator="in" in2="blur"/>
      <feComposite in="SourceGraphic"/>
    </filter>
  </defs>
  <g id="Group_11225" data-name="Group 11225" transform="translate(-372 -297)">
    <g id="Group_11224" data-name="Group 11224" transform="translate(107 -105)">
      <g transform="matrix(1, 0, 0, 1, 265, 402)" filter="url(#Ellipse_2779)">
        <circle id="Ellipse_2779-2" data-name="Ellipse 2779" cx="11" cy="11" r="11" transform="translate(9 6)" fill="#2d2d2d"/>
      </g>
    </g>
    <g id="Iconly_Light-outline_Arrow_-_Right_2" data-name="Iconly/Light-outline/Arrow - Right 2" transform="translate(389 309)">
      <g id="Arrow_-_Right_2" data-name="Arrow - Right 2" transform="translate(0 0)">
        <path id="Arrow_-_Right_2-2" data-name="Arrow - Right 2" d="M.181.144a.421.421,0,0,0-.06.641L.181.84,5.134,4.785.181,8.73a.421.421,0,0,0-.06.641l.06.055a.74.74,0,0,0,.8.048l.069-.048L6.444,5.133a.421.421,0,0,0,.06-.641l-.06-.055L1.055.144A.734.734,0,0,0,.181.144Z" fill="#fffafb" stroke="#fff" stroke-width="1"/>
      </g>
    </g>
  </g>
</svg>
