<svg xmlns="http://www.w3.org/2000/svg" width="16.172" height="13.473" viewBox="0 0 16.172 13.473">
  <path id="Icon_ionic-ios-share-alt" data-name="Icon ionic-ios-share-alt" d="M20.531,12.409,14.589,6.851a.3.3,0,0,0-.236-.1c-.185.008-.421.139-.421.337V9.874a.18.18,0,0,1-.152.173c-5.908.905-8.4,5.326-9.276,9.916-.034.181.211.349.324.206a10.738,10.738,0,0,1,8.927-4.522.208.208,0,0,1,.177.2v2.737a.361.361,0,0,0,.611.223l5.983-5.655a.465.465,0,0,0,.147-.354A.564.564,0,0,0,20.531,12.409Z" transform="translate(-4.502 -6.749)" fill="#f34d4d"/>
</svg>
