<svg xmlns="http://www.w3.org/2000/svg" width="16.168" height="17.964" viewBox="0 0 16.168 17.964">
  <g id="Calendar" transform="translate(-3 -2)">
    <g id="Calendar-2" data-name="Calendar" transform="translate(3 2)">
      <path id="Fill_1" data-name="Fill 1" d="M4.605,11.446A4.29,4.29,0,0,1,0,6.838V0H16.168V6.893a4.251,4.251,0,0,1-4.614,4.553Z" transform="translate(0 6.518)" fill="#ccc"/>
      <path id="Fill_4" data-name="Fill 4" d="M0,5.18A14.241,14.241,0,0,1,.139,3.27,4.124,4.124,0,0,1,4.079,0h8a4.167,4.167,0,0,1,3.94,3.27,14.275,14.275,0,0,1,.138,1.911Z" transform="translate(0.003 1.338)" fill="#ccc" opacity="0.4"/>
      <path id="Fill_6" data-name="Fill 6" d="M.683,4.123a.671.671,0,0,0,.683-.692V.693A.672.672,0,0,0,.683,0,.672.672,0,0,0,0,.693V3.431a.671.671,0,0,0,.683.692" transform="translate(4.082 0)" fill="#ccc"/>
      <path id="Fill_9" data-name="Fill 9" d="M.683,4.123a.676.676,0,0,0,.683-.692V.693A.677.677,0,0,0,.683,0,.672.672,0,0,0,0,.693V3.431a.671.671,0,0,0,.683.692" transform="translate(10.72 0)" fill="#ccc"/>
    </g>
  </g>
</svg>
