<svg xmlns="http://www.w3.org/2000/svg" xmlns:xlink="http://www.w3.org/1999/xlink" width="41" height="42" viewBox="0 0 41 42">
  <defs>
    <filter id="avatar" x="0" y="0" width="41" height="42" filterUnits="userSpaceOnUse">
      <feOffset dx="3" dy="3" input="SourceAlpha"/>
      <feGaussianBlur stdDeviation="3" result="blur"/>
      <feFlood flood-color="#bababa"/>
      <feComposite operator="in" in2="blur"/>
      <feComposite in="SourceGraphic"/>
    </filter>
  </defs>
  <g id="Group_11354" data-name="Group 11354" transform="translate(-219 -126)">
    <g id="Group_10279" data-name="Group 10279" transform="translate(0 -66)">
      <g transform="matrix(1, 0, 0, 1, 219, 192)" filter="url(#avatar)">
        <rect id="avatar-2" data-name="avatar" width="23" height="24" rx="11.5" transform="translate(6 6)" fill="#f34d4d"/>
      </g>
      <g id="Camera" transform="translate(232.071 205.778)">
        <path id="Camera-2" data-name="Camera" d="M7.82,9H2.18A2.181,2.181,0,0,1,0,6.822V3.856A2.181,2.181,0,0,1,2.18,1.678a.1.1,0,0,0,.1-.06l.03-.06.042-.088C2.477,1.2,2.625.884,2.715.7A1.216,1.216,0,0,1,3.82,0H6.175a1.22,1.22,0,0,1,1.11.7c.079.157.2.41.314.654l.071.15.05.11a.113.113,0,0,0,.1.06A2.181,2.181,0,0,1,10,3.856V6.822A2.181,2.181,0,0,1,7.82,9ZM5,3.2a1.961,1.961,0,0,0-1.4.58,1.934,1.934,0,0,0-.57,1.383A1.962,1.962,0,0,0,5,7.127a1.948,1.948,0,0,0,1.385-.574,1.958,1.958,0,0,0,0-2.777A1.952,1.952,0,0,0,5,3.2Zm2.8-.12a.452.452,0,1,0,.455.454A.453.453,0,0,0,7.8,3.082ZM5,6.378A1.211,1.211,0,0,1,3.785,5.164v0a1.168,1.168,0,0,1,.35-.849A1.215,1.215,0,1,1,5,6.378Z" transform="translate(-0.071 0.223)" fill="#fbfbfb"/>
      </g>
    </g>
  </g>
</svg>
