<svg width="48" height="48" viewBox="0 0 48 48" fill="none" xmlns="http://www.w3.org/2000/svg">
<path d="M35.2592 26.27C35.2592 26.27 34.6645 25.6931 34.4992 29.1853C34.3386 32.48 34.1043 37.2318 34.9238 39.2705C35.0125 39.4929 35.1717 39.6801 35.377 39.8033C35.5964 39.9319 35.8388 40.0164 36.0906 40.0519C36.8043 40.159 39.6209 40.0983 39.6209 40.0983C39.6209 40.0983 41.2207 40.0983 41.2444 38.8256C41.2647 37.7789 41.2444 35.5012 41.2444 35.5012L35.2592 26.27Z" fill="#263238"/>
<g opacity="0.3">
<path d="M35.2592 26.2856C35.2592 26.2856 34.6645 25.7087 34.4992 29.2009C34.3386 32.4956 34.1043 37.2474 34.9238 39.2861C35.0125 39.5085 35.1717 39.6957 35.377 39.819C35.5964 39.9475 35.8388 40.032 36.0906 40.0676C36.8043 40.1746 39.6209 40.1139 39.6209 40.1139C39.6209 40.1139 41.2207 40.1139 41.2444 38.8413C41.2647 37.7945 41.2444 35.5168 41.2444 35.5168L35.2592 26.2856Z" fill="black"/>
</g>
<path d="M41.984 27.0434C41.984 27.0434 42.5788 26.4665 42.7453 29.9575C42.9047 33.2534 43.139 38.0041 42.3207 40.0427C42.2315 40.2656 42.0719 40.4531 41.8663 40.5768C41.6471 40.7057 41.4045 40.7897 41.1526 40.8242C40.439 40.9312 37.6224 40.8718 37.6224 40.8718C37.6224 40.8718 36.0238 40.8718 35.9988 39.5991C35.9798 38.5512 36.1237 34.8818 36.1237 34.8818L41.984 27.0434Z" fill="#263238"/>
<path d="M41.9839 27.0466L41.9578 27.0847C41.9399 27.1109 41.9126 27.1477 41.8781 27.1953L41.5653 27.6211C41.2881 27.9946 40.8849 28.5382 40.3758 29.228L36.1509 34.9005V34.8862C36.1093 36.0387 36.0641 37.2758 36.032 38.5734C36.0261 38.8982 36.0201 39.2276 36.0249 39.5583C36.0249 39.6415 36.0391 39.7212 36.0451 39.8033C36.0528 39.8435 36.0627 39.8832 36.0748 39.9223C36.0838 39.963 36.0965 40.0028 36.1129 40.0412C36.1791 40.1941 36.2782 40.3305 36.4031 40.4408C36.6788 40.6538 37.0082 40.786 37.3547 40.8227C37.531 40.8442 37.7087 40.8537 37.8863 40.8512L38.4275 40.8583C39.0496 40.8643 39.6645 40.8667 40.27 40.8583C40.5689 40.8554 40.8675 40.8368 41.1644 40.8024C41.4523 40.7619 41.7258 40.6517 41.9613 40.4813C42.0698 40.3933 42.1607 40.2855 42.229 40.1637C42.2885 40.0385 42.3382 39.9089 42.3776 39.776C42.4234 39.6456 42.4612 39.5125 42.4906 39.3775L42.5418 39.1789C42.5561 39.1111 42.5668 39.0444 42.5798 38.9778C42.678 38.4536 42.7463 37.9243 42.7844 37.3923C42.8629 36.3539 42.8748 35.3631 42.8689 34.4378C42.8629 33.5124 42.8344 32.6477 42.8035 31.8603C42.7333 30.2866 42.7024 29.0056 42.5513 28.1385C42.4787 27.7056 42.3943 27.3666 42.2658 27.1703C42.2076 27.0716 42.1243 27.0145 42.0624 27.0228C42.0318 27.0245 42.0024 27.0352 41.978 27.0538C41.9829 27.0475 41.989 27.0423 41.9958 27.0383C42.0159 27.0256 42.0388 27.0183 42.0624 27.0169C42.1279 27.0062 42.2159 27.0645 42.2765 27.1644C42.4098 27.3618 42.4978 27.7008 42.5751 28.135C42.7333 29.0056 42.7713 30.2843 42.8475 31.8591C42.8808 32.6465 42.9105 33.51 42.92 34.4366C42.9295 35.3631 42.92 36.3563 42.8415 37.3971C42.8058 37.9281 42.7403 38.4566 42.6453 38.9802C42.6322 39.048 42.6215 39.1158 42.6072 39.1836L42.5561 39.3846C42.5245 39.5209 42.4848 39.6551 42.4371 39.7867C42.3972 39.9232 42.3459 40.056 42.2837 40.1839C42.2127 40.3132 42.1169 40.4272 42.0018 40.5193C41.7583 40.6961 41.4754 40.8109 41.1775 40.8536C40.8774 40.8887 40.5757 40.9078 40.2735 40.9107C39.6669 40.9249 39.052 40.9226 38.4299 40.9107L37.8875 40.9035C37.7075 40.9058 37.5275 40.8963 37.3487 40.875C36.9908 40.8358 36.6508 40.6983 36.3662 40.4777C36.2344 40.3613 36.13 40.2171 36.0606 40.0555C36.0436 40.0172 36.0305 39.9774 36.0213 39.9365C36.0082 39.8955 35.9975 39.8538 35.9892 39.8116C35.9832 39.7272 35.969 39.6415 35.9678 39.5583C35.9678 39.2252 35.9678 38.897 35.9773 38.5711C36.0058 37.2722 36.051 36.034 36.0962 34.8838V34.8755V34.8695C37.8411 32.543 39.3077 30.5876 40.3401 29.2078L41.5438 27.6104L41.8638 27.1893L41.9459 27.0823C41.9578 27.0696 41.9705 27.0577 41.9839 27.0466Z" fill="#455A64"/>
<path d="M12.252 26.309C12.252 26.309 12.8467 25.7321 13.0132 29.2243C13.1738 32.5191 13.4081 37.2708 12.5886 39.3095C12.4995 39.532 12.3399 39.7192 12.1342 39.8424C11.9149 39.9712 11.6724 40.0556 11.4206 40.091C10.7069 40.198 7.89034 40.1374 7.89034 40.1374C7.89034 40.1374 6.29174 40.1374 6.26676 38.8647C6.24773 37.818 6.26676 35.5402 6.26676 35.5402L12.252 26.309Z" fill="#263238"/>
<g opacity="0.3">
<path d="M12.2515 26.3012C12.2515 26.3012 12.8462 25.7243 13.0127 29.2165C13.1733 32.5112 13.4076 37.263 12.5881 39.3017C12.499 39.5242 12.3394 39.7114 12.1338 39.8346C11.9144 39.9634 11.672 40.0478 11.4201 40.0832C10.7064 40.1902 7.88985 40.1296 7.88985 40.1296C7.88985 40.1296 6.29125 40.1296 6.26627 38.8569C6.24724 37.8102 6.26627 35.5324 6.26627 35.5324L12.2515 26.3012Z" fill="black"/>
</g>
<path d="M5.81097 27.0278C5.81097 27.0278 5.21625 26.4509 5.05092 29.9419C4.89034 33.2378 4.65602 37.9896 5.47554 40.0271C5.56394 40.2504 5.72368 40.4382 5.92991 40.5612C6.14916 40.6901 6.39167 40.7746 6.64357 40.8098C7.35723 40.9168 10.1738 40.8562 10.1738 40.8562C10.1738 40.8562 11.7736 40.8562 11.7974 39.5835C11.8176 38.5368 11.6784 34.8662 11.6784 34.8662L5.81097 27.0278Z" fill="#263238"/>
<path d="M5.81109 27.0303L5.84082 27.0659L5.92408 27.173L6.2488 27.594L7.45132 29.1915L11.6952 34.8532V34.8603V34.8674C11.7392 36.02 11.7856 37.2582 11.8142 38.5547C11.8142 38.8794 11.8261 39.2077 11.8225 39.5407C11.8225 39.624 11.8082 39.7096 11.8011 39.7941C11.8011 39.8369 11.7797 39.8773 11.7702 39.919C11.7606 39.9598 11.7471 39.9997 11.7297 40.0379C11.6608 40.1998 11.5563 40.3441 11.424 40.4602C11.1401 40.6809 10.8003 40.8185 10.4427 40.8574C10.2636 40.8794 10.0832 40.8889 9.90274 40.886L9.36155 40.8931C8.73948 40.9003 8.12335 40.9014 7.51793 40.8931C7.21584 40.89 6.91412 40.8714 6.61396 40.8372C6.31573 40.7938 6.03248 40.6787 5.78849 40.5018C5.67367 40.4093 5.57792 40.2954 5.50659 40.1664C5.44489 40.0383 5.39358 39.9054 5.35315 39.7691C5.30605 39.6374 5.26634 39.5032 5.23421 39.3671L5.18425 39.1661C5.16998 39.0983 5.15809 39.0305 5.145 38.9639C5.04736 38.4376 4.97946 37.9063 4.94161 37.3724C4.86549 36.3316 4.85597 35.3396 4.8643 34.4119C4.87262 33.4841 4.90355 32.6218 4.93566 31.8344C5.01179 30.2608 5.05461 28.9797 5.20804 28.1103C5.28536 27.6761 5.37337 27.3371 5.50659 27.1397C5.52572 27.0979 5.55586 27.0621 5.59378 27.0361C5.63171 27.0101 5.67599 26.9949 5.72188 26.9922C5.74525 26.994 5.76777 27.0018 5.7873 27.0148C5.79391 27.0186 5.79992 27.0235 5.80514 27.0291C5.78054 27.0109 5.75122 27.0001 5.72069 26.9981C5.65884 26.9898 5.57558 27.0469 5.5173 27.1468C5.39003 27.3431 5.30558 27.6809 5.23183 28.1138C5.08196 28.9833 5.04985 30.2619 4.97967 31.8356C4.94994 32.623 4.92258 33.4865 4.91544 34.4131C4.90831 35.3396 4.91544 36.3304 4.9987 37.3688C5.03748 37.9003 5.10578 38.4292 5.20329 38.9531C5.21637 39.0198 5.22826 39.0876 5.24254 39.1542L5.29725 39.3552C5.32977 39.4896 5.36947 39.6222 5.41619 39.7524C5.45599 39.8854 5.5061 40.015 5.56606 40.1402C5.63332 40.2628 5.7243 40.3707 5.83369 40.4578C6.06885 40.628 6.342 40.7382 6.62942 40.7789C6.92678 40.8133 7.22574 40.8319 7.52506 40.8348C8.13048 40.8491 8.74423 40.8467 9.36631 40.8348L9.9075 40.8277C10.0851 40.8301 10.2627 40.8209 10.4392 40.8003C10.7855 40.7625 11.1148 40.63 11.3907 40.4173C11.5152 40.307 11.6139 40.1705 11.6798 40.0177C11.6967 39.9795 11.7094 39.9396 11.7178 39.8987C11.7301 39.8597 11.74 39.82 11.7476 39.7798C11.7547 39.6977 11.7678 39.618 11.769 39.536C11.769 39.2041 11.769 38.8758 11.7606 38.5511C11.7333 37.2511 11.6893 36.0141 11.6417 34.8639V34.8781L7.42158 29.2117L6.23215 27.6047C6.09655 27.4192 5.99426 27.2765 5.91933 27.1789L5.83963 27.0683L5.81109 27.0303Z" fill="#455A64"/>
<path d="M43.7038 17.4653C43.7038 17.4653 43.5254 18.06 43.1567 18.1171C42.7879 18.1742 39.8798 18.2646 39.8798 18.2646L39.5955 18.8308H39.0484L38.6499 16.5625L38.9889 16.6303C39.0454 16.641 39.0985 16.6652 39.1436 16.7008C39.1888 16.7364 39.2247 16.7824 39.2482 16.8349C39.2742 16.8929 39.3153 16.9429 39.3672 16.9797C39.419 17.0165 39.4798 17.0388 39.5432 17.0442L43.7038 17.4653Z" fill="#263238"/>
<path d="M43.5829 17.556C43.6332 17.5533 43.6824 17.5402 43.7274 17.5176C43.7724 17.495 43.8123 17.4633 43.8444 17.4246C43.8766 17.3858 43.9004 17.3408 43.9144 17.2924C43.9283 17.244 43.9321 17.1932 43.9254 17.1433C43.8303 16.495 43.4794 15.2402 42.1853 15.0498C41.3858 14.9237 40.5731 14.9037 39.7684 14.9904C39.5673 15.0154 39.4686 15.1914 39.4436 15.3865C39.3342 16.2773 39.4234 17.3811 39.6887 17.5167C39.9539 17.6523 42.6385 17.6285 43.5829 17.556Z" fill="#EE473F"/>
<path d="M41.8487 15.0547C41.8779 15.0805 41.9035 15.1101 41.9248 15.1427C41.97 15.201 42.033 15.289 42.1056 15.3996C42.485 15.9773 42.7689 16.6122 42.9465 17.2801C42.9798 17.4074 43.0036 17.5121 43.0167 17.5846C43.0271 17.6214 43.0319 17.6594 43.031 17.6976C43.0215 17.6976 42.9822 17.5418 42.9049 17.2908C42.8052 16.9644 42.686 16.6443 42.5481 16.3321C42.4082 16.0194 42.2493 15.7155 42.0723 15.4222C41.9319 15.1939 41.8403 15.0594 41.8487 15.0547Z" fill="#263238"/>
<path d="M4.22656 17.6071C4.22656 17.6071 4.40617 18.2018 4.77489 18.2589C5.14362 18.316 8.04941 18.4064 8.04941 18.4064L8.33368 18.9714H8.88082L9.27928 16.7031L8.94029 16.7709C8.88343 16.7824 8.83012 16.8072 8.78481 16.8434C8.7395 16.8796 8.7035 16.9261 8.67981 16.9791C8.65382 17.036 8.61333 17.0851 8.56239 17.1214C8.51145 17.1577 8.45186 17.18 8.38958 17.186L4.22656 17.6071Z" fill="#263238"/>
<path d="M4.34558 17.6971C4.29534 17.6942 4.24622 17.681 4.20129 17.6584C4.15636 17.6357 4.11659 17.604 4.08445 17.5653C4.0523 17.5265 4.02849 17.4816 4.01448 17.4333C4.00047 17.3849 3.99657 17.3342 4.00302 17.2843C4.09818 16.6361 4.44906 15.3812 5.74317 15.1909C6.54222 15.0641 7.35459 15.0441 8.15891 15.1315C8.36111 15.1564 8.45984 15.3325 8.48363 15.5275C8.59424 16.4184 8.50504 17.5222 8.24574 17.6578C7.98644 17.7934 5.29713 17.7708 4.34558 17.6971Z" fill="#EE473F"/>
<path d="M6.08132 15.1953C6.01427 15.3215 5.94082 15.4442 5.86128 15.5628C5.68477 15.8564 5.5259 16.1603 5.3855 16.4728C5.24682 16.785 5.12764 17.1056 5.02867 17.4326C4.95136 17.6836 4.90973 17.8406 4.90259 17.8394C4.90116 17.7993 4.90597 17.7592 4.91686 17.7205C4.92995 17.6479 4.95255 17.5444 4.98585 17.4172C5.16392 16.7492 5.44826 16.1143 5.82797 15.5367C5.90053 15.4261 5.96357 15.338 6.00876 15.2786C6.02964 15.2481 6.05399 15.2202 6.08132 15.1953Z" fill="#263238"/>
<path d="M43.9768 25.5787C43.8757 24.6997 41.8977 22.397 41.8977 22.397C41.3481 21.0886 40.2907 19.1974 39.0846 17.3454C38.1248 13.977 36.4679 9.90433 35.709 9.02534C34.9502 8.14635 34.3804 7.80736 32.8151 7.85613C31.2498 7.90489 25.826 7.87991 24.5081 7.85613H23.9717C22.655 7.87991 17.3656 7.90489 15.7991 7.85613C14.2326 7.80736 13.6581 8.14635 12.9052 9.02534C12.1523 9.90433 10.4906 13.977 9.53076 17.3419C8.32586 19.1974 7.26726 21.0874 6.72488 22.397C6.72488 22.397 4.74566 24.6997 4.64456 25.5787C4.54345 26.4577 4.459 31.9089 4.96451 33.423C5.32135 34.5042 5.7543 34.9693 6.68801 35.3452C7.436 35.6375 8.23289 35.7844 9.03595 35.7781H39.7519C40.4359 35.7825 41.1136 35.6482 41.7442 35.3832C42.6958 34.9752 42.9919 34.4721 43.3714 33.3374C43.8757 31.828 44.0731 26.4577 43.9768 25.5787Z" fill="#EE473F"/>
<path d="M34.2172 8.36953C34.2172 8.28746 33.7093 7.60829 33.4297 7.2919C33.1502 6.97551 33.042 6.98622 32.8005 7.01119C32.4984 7.04093 31.78 7.40847 31.7431 7.54882C31.7129 7.74582 31.6938 7.94438 31.686 8.14354L32.1701 8.13164C32.1701 8.13164 32.0631 7.70107 32.2058 7.61543C32.4175 7.48816 32.4972 7.45247 32.6673 7.52265C32.8374 7.59283 33.0551 8.15424 33.0551 8.15424L34.2172 8.36953Z" fill="#E0E0E0"/>
<path d="M14.5021 7.86719C14.4948 7.87388 14.4868 7.87985 14.4783 7.88503L14.4081 7.93261C14.3475 7.97662 14.2571 8.03966 14.15 8.13243C13.8522 8.39668 13.5963 8.7047 13.3912 9.04592C13.3246 9.15178 13.2568 9.26477 13.1914 9.38491L12.9963 9.76315C12.8607 10.0248 12.7215 10.3079 12.5776 10.6065C12.2886 11.2012 11.9722 11.8589 11.6594 12.5559C11.1132 13.7392 10.6533 14.9603 10.2832 16.2099C10.1476 16.6857 10.0548 17.0829 9.99535 17.3553C9.9668 17.4885 9.94539 17.5932 9.92874 17.6693L9.90971 17.7514C9.90804 17.7608 9.90525 17.77 9.90138 17.7787C9.90006 17.7693 9.90006 17.7597 9.90138 17.7502C9.90138 17.7288 9.90852 17.7014 9.91446 17.6681C9.92755 17.5908 9.94658 17.485 9.96918 17.3506C10.0215 17.077 10.1083 16.6821 10.2392 16.1992C10.5977 14.9435 11.053 13.7175 11.6011 12.5322C11.9151 11.8351 12.2327 11.1774 12.5253 10.5827C12.6704 10.2841 12.8107 10.0022 12.9499 9.74174C13.0177 9.6109 13.0843 9.48363 13.1485 9.36231C13.2128 9.24099 13.2841 9.12442 13.3519 9.02332C13.5627 8.68136 13.8265 8.37503 14.1334 8.11578C14.2461 8.01868 14.3698 7.93523 14.5021 7.86719Z" fill="#263238"/>
<path d="M24.0817 9.67983C24.0817 9.67983 19.9853 9.67983 17.8503 9.69411C16.3849 9.70481 13.0568 9.57516 12.8796 9.93199C12.7999 10.0949 12.0601 11.5235 11.3559 13.1732C10.5055 15.1643 9.69073 17.4552 9.90126 17.9833L23.6071 17.7835H38.0992C38.0992 17.7835 38.261 17.3148 37.9612 16.4667C37.6615 15.6187 35.6632 10.4137 35.3171 10.0569C34.971 9.70005 29.1261 9.74406 24.0817 9.67983Z" fill="#263238"/>
<path d="M24.0783 9.99219C24.0783 9.99219 20.146 9.99219 18.0954 10.0053C16.6883 10.0148 13.7147 9.99219 13.3032 10.4132C13.1153 10.6047 11.3668 13.9245 10.6864 15.9322C10.395 16.7969 11.2586 17.4916 12.1994 17.507H37.5344C37.5344 17.507 37.689 17.0729 37.4011 16.2867C37.1133 15.5005 35.2043 10.8914 34.8367 10.5976C34.217 10.0969 28.9217 10.0517 24.0783 9.99219Z" fill="#455A64"/>
<g opacity="0.3">
<path d="M11.3862 17.3268C11.3862 17.3268 12.5602 15.614 13.2751 15.5319C13.5843 15.4974 16.1856 15.4629 19.4601 15.4332C19.528 15.4324 19.5953 15.4468 19.657 15.4752C19.7187 15.5036 19.7733 15.5453 19.8169 15.5973C19.8624 15.5447 19.9186 15.5024 19.9818 15.4732C20.045 15.4441 20.1137 15.4288 20.1833 15.4284C22.5538 15.4082 25.1991 15.3916 27.5578 15.3785C27.6569 15.3776 27.7527 15.4146 27.8254 15.482C27.8978 15.4153 27.9923 15.378 28.0907 15.3773C31.5234 15.3582 34.221 15.3487 34.3304 15.3523C34.9311 15.3713 37.5419 17.5456 37.5419 17.5456L12.1106 17.5171C11.8593 17.4998 11.6136 17.4352 11.3862 17.3268Z" fill="black"/>
</g>
<path d="M15.0767 23.1562C15.0767 23.1562 14.1346 23.1562 14.1941 24.2672C14.2262 24.8762 13.9764 27.8938 16.1757 28.3184C18.375 28.743 32.5899 28.4659 32.5899 28.4659C32.5899 28.4659 33.6604 28.4195 33.9399 26.8816L34.1171 24.2184C34.1171 24.2184 34.041 23.5048 33.4439 23.4179C32.8468 23.3311 15.0767 23.1562 15.0767 23.1562Z" fill="#E0E0E0"/>
<path d="M15.0763 23.1556H15.1726H15.4581L16.5595 23.1615L20.6583 23.196L26.8434 23.2638L30.5532 23.3162L32.5336 23.3542L33.0403 23.3697C33.1248 23.3697 33.2104 23.3768 33.2973 23.3816L33.4257 23.3899C33.4699 23.3958 33.5136 23.4045 33.5566 23.4161C33.7253 23.4719 33.8695 23.5846 33.9645 23.7349C34.0585 23.8809 34.1194 24.0457 34.1429 24.2178C34.0859 25.067 34.024 25.9662 33.9657 26.8809C33.9204 27.1271 33.8449 27.3668 33.7409 27.5946C33.6282 27.8343 33.4618 28.0447 33.2544 28.2095C33.0903 28.3397 32.8988 28.4308 32.6942 28.4759C32.5915 28.4916 32.4876 28.498 32.3838 28.495H32.0781L30.8684 28.5152L28.5015 28.5449C26.9492 28.5616 25.4529 28.5723 24.0268 28.5723C22.6007 28.5723 21.2459 28.5663 19.9827 28.5402C19.6651 28.5402 19.3547 28.5259 19.0478 28.5188C18.741 28.5116 18.4424 28.5021 18.1486 28.4878C17.8548 28.4736 17.5658 28.4664 17.2839 28.4426C17.002 28.4189 16.726 28.4093 16.4584 28.3665C16.1945 28.3448 15.9358 28.2805 15.6924 28.1762C15.4636 28.0757 15.2557 27.9328 15.0799 27.7551C14.7706 27.4274 14.5464 27.0288 14.4269 26.5943C14.318 26.2236 14.249 25.8424 14.2211 25.4572C14.1914 25.1003 14.189 24.778 14.1902 24.4866C14.1902 24.3403 14.1902 24.2035 14.1902 24.0727C14.1902 24.0084 14.2044 23.9466 14.2116 23.8859C14.2187 23.8253 14.2389 23.767 14.2604 23.7158C14.3254 23.5329 14.4514 23.3779 14.6172 23.2769C14.7221 23.2172 14.8369 23.1769 14.9562 23.158C14.9955 23.1513 15.0353 23.1481 15.0751 23.1485C15.0351 23.1512 14.9954 23.1567 14.9562 23.1651C14.8391 23.1852 14.7264 23.2254 14.6231 23.2841C14.4603 23.385 14.3369 23.5386 14.2734 23.7194C14.2532 23.7717 14.2437 23.8288 14.227 23.8871C14.2104 23.9454 14.2116 24.006 14.2068 24.0715C14.2068 24.1999 14.2068 24.3379 14.2068 24.4842C14.2068 24.7756 14.2068 25.0991 14.2437 25.4524C14.2728 25.8355 14.343 26.2143 14.453 26.5824C14.5723 27.0111 14.7949 27.4039 15.1013 27.7266C15.2742 27.9005 15.4784 28.0401 15.7031 28.1381C15.9433 28.2399 16.1984 28.3022 16.4584 28.3225C16.7225 28.3641 16.9996 28.3737 17.2803 28.3963C17.561 28.4189 17.8489 28.4248 18.1427 28.4391C18.4365 28.4533 18.7374 28.4605 19.0431 28.4676C19.3488 28.4748 19.6592 28.4855 19.9768 28.489C21.2435 28.5128 22.5935 28.514 24.0209 28.514C25.4482 28.514 26.9433 28.5009 28.4943 28.4843L30.8613 28.4522L32.071 28.4331L32.3766 28.4272C32.4765 28.4303 32.5764 28.4244 32.6752 28.4093C32.8702 28.3667 33.0529 28.2801 33.2092 28.156C33.4095 27.9965 33.5703 27.793 33.6791 27.5613C33.7813 27.3391 33.8552 27.1049 33.8991 26.8643C33.9598 25.9496 34.0181 25.0492 34.0775 24.2011C34.0547 24.0442 33.9992 23.8939 33.9146 23.7598C33.828 23.6202 33.6949 23.5157 33.5387 23.4649C33.4996 23.4542 33.4599 23.4458 33.4198 23.4399L33.2937 23.4327C33.2092 23.4327 33.126 23.422 33.0403 23.4208L32.5348 23.4054L30.5544 23.3649L26.8446 23.3079L20.6595 23.2282L16.5607 23.1758L15.4593 23.1592H15.1738L15.0763 23.1556Z" fill="#263238"/>
<path d="M15.674 23.8203C15.674 23.8203 14.7915 23.8203 14.8736 24.6398C14.9176 25.0835 14.6571 27.2721 16.691 27.5825C18.7249 27.8929 31.2021 27.7704 31.2021 27.7704C31.2021 27.7704 32.765 27.6991 33.0981 26.6524L33.2717 24.5946C33.2717 24.5946 33.33 24.1522 32.7781 24.0856C32.2262 24.0189 15.674 23.8203 15.674 23.8203Z" fill="#263238"/>
<path d="M31.471 23.8203C31.446 23.8798 31.0166 28.0309 31.0166 28.0309H31.7303L32.2738 23.8203H31.471Z" fill="#E0E0E0"/>
<path d="M29.0727 23.8137C29.0513 23.8756 28.9146 28.0445 28.9146 28.0445L29.6282 27.997L29.8792 23.7578L29.0727 23.8137Z" fill="#E0E0E0"/>
<path d="M26.8733 23.8414C26.8531 23.9032 26.7163 28.0722 26.7163 28.0722L27.5608 28.0163L27.6797 23.7891L26.8733 23.8414Z" fill="#E0E0E0"/>
<path d="M16.7716 23.6562C16.7966 23.7169 17.226 27.8669 17.226 27.8669H16.5123L15.9688 23.6562H16.7716Z" fill="#E0E0E0"/>
<path d="M19.1694 23.6461C19.1908 23.7079 19.3276 27.8769 19.3276 27.8769L18.6139 27.8293L18.3677 23.5938L19.1694 23.6461Z" fill="#E0E0E0"/>
<path d="M21.3684 23.6707C21.3887 23.7326 21.5255 27.9003 21.5255 27.9003L20.681 27.8456L20.562 23.6172L21.3684 23.6707Z" fill="#E0E0E0"/>
<path d="M21.6475 23.7578C21.7295 23.891 23.2591 24.9009 23.2591 24.9009H25.1182L26.5884 23.7578H21.6475Z" fill="#E0E0E0"/>
<path d="M23.0518 24.3359L23.4443 27.9019H24.8288L25.2213 24.3359H23.0518Z" fill="#E0E0E0"/>
<path d="M15.0128 27.7326C14.9799 27.7344 14.9469 27.7344 14.9141 27.7326H14.631C14.3848 27.7326 14.0291 27.7148 13.5902 27.6898C13.1513 27.6648 12.628 27.622 12.0439 27.5601C11.4599 27.4983 10.8379 27.4103 10.1742 27.3008C9.51045 27.1914 8.886 27.0629 8.31983 26.9345C7.75365 26.806 7.24933 26.674 6.82471 26.5551C6.40008 26.4361 6.06228 26.3338 5.82915 26.2565L5.56153 26.1685C5.52971 26.159 5.49869 26.1471 5.46875 26.1328C5.50143 26.1383 5.53364 26.1462 5.56509 26.1566L5.83629 26.2339C6.07417 26.3041 6.41316 26.4004 6.8366 26.5146C7.26004 26.6288 7.76674 26.7525 8.33291 26.881C8.89908 27.0094 9.52234 27.1307 10.1849 27.2378C10.8474 27.3448 11.479 27.4329 12.0547 27.4995C12.6303 27.5661 13.1537 27.6113 13.5914 27.641C14.0291 27.6708 14.3848 27.6922 14.631 27.7029L14.9129 27.7183C14.9466 27.7196 14.9801 27.7244 15.0128 27.7326Z" fill="#263238"/>
<path d="M8.03293 21.2142C7.96813 21.1898 7.89679 21.189 7.83151 21.2121C7.76622 21.2352 7.71118 21.2806 7.6761 21.3402C7.47033 21.6971 7.08138 22.4726 7.02191 23.3195C6.93746 24.4792 7.02191 26.5868 7.02191 26.5868C7.02191 26.5868 11.2789 27.5455 13.0404 27.5717C13.0404 27.5717 12.4945 24.6421 12.0473 23.5348C11.6726 22.5927 8.86553 21.5151 8.03293 21.2142Z" fill="#F5F5F5"/>
<path d="M8.03305 21.2098C8.04814 21.2127 8.06289 21.217 8.07706 21.2229L8.20195 21.2657C8.31257 21.305 8.47552 21.3645 8.68367 21.4453C9.27712 21.67 9.85836 21.9257 10.425 22.2113C10.8207 22.407 11.1971 22.6395 11.549 22.906C11.7494 23.0522 11.9181 23.2376 12.045 23.4507C12.1462 23.6883 12.2317 23.9323 12.3007 24.1811C12.4506 24.6877 12.5815 25.2289 12.7087 25.7939C12.836 26.3589 12.9585 26.9477 13.0751 27.5579L13.0822 27.5935H13.0441C12.5399 27.5757 12.0372 27.5288 11.5383 27.4532C10.7164 27.3342 9.92306 27.1963 9.16658 27.0512C8.4101 26.906 7.6905 26.7586 7.01965 26.6123H6.99943V26.592C6.97089 25.7368 6.95899 24.9482 6.97089 24.2477C6.97089 23.8968 6.98635 23.5685 7.01252 23.264C7.04043 22.9844 7.09784 22.7085 7.1838 22.4409C7.3022 22.063 7.46175 21.6992 7.65957 21.3561C7.68494 21.3077 7.72307 21.2672 7.76982 21.2389C7.81657 21.2106 7.87016 21.1956 7.92481 21.1956C7.96223 21.1938 7.99948 21.2015 8.03305 21.2182C7.9979 21.208 7.96141 21.2032 7.92481 21.2039C7.87261 21.2058 7.82188 21.2217 7.77794 21.25C7.73399 21.2782 7.69845 21.3178 7.67503 21.3645C7.48182 21.7089 7.32591 22.0729 7.20996 22.4504C7.12648 22.7162 7.07185 22.9901 7.04701 23.2676C7.02322 23.5697 7.0149 23.898 7.01014 24.2477C7.003 24.9482 7.01728 25.7356 7.04939 26.5897L7.02798 26.5647C7.69763 26.7122 8.41724 26.8608 9.16896 27.006C9.92069 27.1511 10.7152 27.2926 11.5371 27.4056C12.0336 27.4811 12.534 27.5279 13.0358 27.546L13.0049 27.5816C12.8859 26.9727 12.767 26.3839 12.6481 25.8189C12.5291 25.2539 12.3923 24.7139 12.2448 24.2084C12.1771 23.9623 12.0936 23.7207 11.9951 23.4852C11.873 23.2787 11.7113 23.0984 11.5193 22.9547C11.1726 22.6865 10.8019 22.4508 10.4119 22.2506C9.69826 21.8795 9.10354 21.6345 8.68605 21.4644L8.21028 21.2765L8.09134 21.2277L8.03305 21.2098Z" fill="#263238"/>
<path d="M9.97273 17.6953C9.94652 17.7458 9.91545 17.7936 9.87995 17.838L9.61471 18.2163C9.39348 18.5374 9.0985 18.9882 8.78211 19.4949C8.46572 20.0016 8.19928 20.4655 8.00303 20.8033L7.76514 21.2006C7.73884 21.2506 7.70778 21.298 7.67236 21.3421C7.69065 21.289 7.71457 21.2379 7.74373 21.1899C7.79369 21.0923 7.86267 20.952 7.9614 20.7831C8.14933 20.4417 8.41457 19.9731 8.7262 19.4652C9.03783 18.9573 9.33876 18.5136 9.5707 18.1937C9.68964 18.0355 9.78242 17.9094 9.8526 17.825C9.8891 17.7786 9.92928 17.7352 9.97273 17.6953Z" fill="#263238"/>
<path d="M14.4379 23.3433C14.4379 23.3433 14.4249 23.3279 14.4046 23.2958C14.3844 23.2637 14.3559 23.2089 14.3226 23.1518C14.2788 23.0747 14.2391 22.9953 14.2036 22.914C14.1596 22.8224 14.1085 22.7177 14.0621 22.5976C13.9463 22.3205 13.8466 22.0369 13.7635 21.7483C13.6662 21.3957 13.5868 21.0384 13.5256 20.6778C13.4602 20.2924 13.4198 19.9237 13.3924 19.5871C13.3651 19.2505 13.3579 18.946 13.3627 18.6915C13.3627 18.563 13.3627 18.4476 13.3698 18.3465C13.377 18.2454 13.377 18.1586 13.3829 18.0872C13.3889 18.0159 13.3936 17.9683 13.3972 17.9231C13.3969 17.904 13.4001 17.8851 13.4067 17.8672C13.4085 17.8862 13.4085 17.9053 13.4067 17.9243C13.4067 17.9683 13.4067 18.023 13.4067 18.0884C13.4067 18.1538 13.4067 18.2466 13.4067 18.3477C13.4067 18.4488 13.4067 18.563 13.4067 18.6903C13.4067 18.9448 13.4257 19.2481 13.4507 19.5824C13.4757 19.9166 13.5233 20.2853 13.5875 20.6683C13.6517 21.0513 13.7374 21.4117 13.8254 21.7388C13.9024 22.0259 13.9937 22.3089 14.099 22.5869C14.143 22.7058 14.1905 22.8129 14.2322 22.9056C14.2738 22.9984 14.3083 23.0781 14.3416 23.1435L14.4142 23.2922C14.4238 23.3084 14.4318 23.3255 14.4379 23.3433Z" fill="#263238"/>
<g opacity="0.3">
<path d="M6.5472 26.1404C6.5472 26.1404 6.06429 27.2109 9.06404 27.8591C12.1007 28.5133 14.9137 27.7235 14.9137 27.7235L13.2485 27.651C13.2485 27.651 7.06341 26.7672 7.03844 26.5044C6.9409 25.4755 6.99205 23.8281 6.99205 23.8281L6.5472 26.1404Z" fill="black"/>
</g>
<path d="M8.66944 24.3562C9.22846 24.3562 9.68165 23.918 9.68165 23.3773C9.68165 22.8367 9.22846 22.3984 8.66944 22.3984C8.11041 22.3984 7.65723 22.8367 7.65723 23.3773C7.65723 23.918 8.11041 24.3562 8.66944 24.3562Z" fill="#F5F5F5"/>
<path d="M9.68145 23.3711C9.67431 23.3711 9.68145 23.2843 9.63863 23.1332C9.57802 22.9214 9.44768 22.7361 9.26871 22.6075C9.14474 22.5179 9.00196 22.4576 8.85122 22.4315C8.67783 22.4015 8.49965 22.4167 8.33382 22.4755C8.15246 22.5392 7.99398 22.655 7.87826 22.8085C7.7548 22.9696 7.68789 23.167 7.68789 23.3699C7.68789 23.5729 7.7548 23.7702 7.87826 23.9314C7.93591 24.0095 8.0058 24.0777 8.08522 24.1336C8.16097 24.1892 8.24481 24.2329 8.33382 24.2632C8.49965 24.322 8.67783 24.3372 8.85122 24.3072C9.00196 24.281 9.14474 24.2208 9.26871 24.1312C9.4478 24.0032 9.5782 23.8183 9.63863 23.6066C9.65693 23.5281 9.67122 23.4487 9.68145 23.3687C9.68456 23.3896 9.68456 23.4109 9.68145 23.4318C9.68075 23.4924 9.67276 23.5527 9.65766 23.6114C9.60468 23.8332 9.4749 24.0292 9.29131 24.1645C9.16553 24.2592 9.01996 24.3243 8.86549 24.3548C8.68308 24.3889 8.49494 24.3749 8.31954 24.3143C8.22533 24.2824 8.13635 24.2367 8.05549 24.1788C7.97053 24.12 7.89579 24.0476 7.83425 23.9647C7.70269 23.7943 7.63117 23.5852 7.63086 23.3699C7.63188 23.1548 7.70332 22.9459 7.83425 22.7752C7.89581 22.6926 7.97055 22.6207 8.05549 22.5623C8.13603 22.5035 8.22507 22.4574 8.31954 22.4255C8.49503 22.3654 8.68306 22.3515 8.86549 22.3851C9.02314 22.4143 9.1718 22.4798 9.29964 22.5766C9.48323 22.7119 9.613 22.9078 9.66598 23.1297C9.68108 23.188 9.68906 23.2479 9.68977 23.3081C9.69015 23.3294 9.68734 23.3506 9.68145 23.3711Z" fill="#263238"/>
<path d="M8.66911 23.3332C8.84366 23.3319 9.01543 23.3769 9.16691 23.4636C9.3184 23.5503 9.44419 23.6756 9.53145 23.8268C9.61016 23.6866 9.65114 23.5284 9.6504 23.3677C9.6504 23.1065 9.54664 22.856 9.36194 22.6713C9.17725 22.4866 8.92674 22.3828 8.66555 22.3828C8.40435 22.3828 8.15385 22.4866 7.96915 22.6713C7.78445 22.856 7.68069 23.1065 7.68069 23.3677C7.6794 23.5285 7.72042 23.6868 7.79964 23.8268C7.88731 23.6744 8.01418 23.5482 8.16708 23.4614C8.31997 23.3746 8.49332 23.3303 8.66911 23.3332Z" fill="#E0E0E0"/>
<path d="M9.10324 23.343C9.10632 23.4299 9.08336 23.5158 9.03731 23.5896C8.99125 23.6634 8.9242 23.7217 8.84476 23.7571C8.76532 23.7926 8.6771 23.8034 8.59143 23.7884C8.50576 23.7733 8.42654 23.733 8.36394 23.6726C8.30133 23.6123 8.2582 23.5345 8.24006 23.4495C8.22193 23.3644 8.22962 23.2758 8.26216 23.1952C8.29469 23.1145 8.35059 23.0454 8.42267 22.9967C8.49475 22.948 8.57973 22.922 8.66672 22.9219C8.7804 22.92 8.8902 22.9633 8.97203 23.0422C9.05387 23.1211 9.10105 23.2293 9.10324 23.343Z" fill="white"/>
<path d="M9.1032 23.3385C9.1032 23.3385 9.1032 23.3016 9.07822 23.2386C9.06085 23.184 9.0326 23.1335 8.99519 23.0901C8.95777 23.0467 8.91195 23.0113 8.8605 22.9861C8.80905 22.9608 8.75302 22.9463 8.69579 22.9433C8.63856 22.9403 8.58132 22.9489 8.52751 22.9686C8.45012 22.9949 8.38291 23.0448 8.33531 23.1112C8.28771 23.1777 8.26212 23.2574 8.26212 23.3391C8.26212 23.4209 8.28771 23.5005 8.33531 23.567C8.38291 23.6334 8.45012 23.6833 8.52751 23.7096C8.58141 23.7291 8.63869 23.7376 8.69593 23.7344C8.75316 23.7313 8.80917 23.7166 8.86059 23.6912C8.91202 23.6659 8.9578 23.6305 8.99519 23.587C9.03259 23.5436 9.06083 23.493 9.07822 23.4384C9.09725 23.3766 9.09725 23.3385 9.1032 23.3385C9.11227 23.3732 9.11227 23.4097 9.1032 23.4444C9.08191 23.5426 9.02622 23.6299 8.94619 23.6906C8.88468 23.7375 8.81247 23.7684 8.73606 23.7804C8.65964 23.7924 8.58144 23.7853 8.50848 23.7596C8.41854 23.7314 8.33994 23.6753 8.28414 23.5993C8.22834 23.5234 8.19824 23.4316 8.19824 23.3373C8.19824 23.2431 8.22834 23.1513 8.28414 23.0753C8.33994 22.9994 8.41854 22.9432 8.50848 22.9151C8.58132 22.8908 8.65896 22.8845 8.73477 22.8967C8.81058 22.9089 8.8823 22.9393 8.94381 22.9853C9.02497 23.0459 9.08156 23.1337 9.1032 23.2327C9.11227 23.2674 9.11227 23.3038 9.1032 23.3385Z" fill="#263238"/>
<path d="M9.05087 22.6776C9.02827 22.7144 8.93192 22.6966 8.79752 22.6954C8.63119 22.6889 8.4658 22.7232 8.3158 22.7953C8.17119 22.8741 8.04854 22.9878 7.95896 23.126C7.88522 23.2354 7.84716 23.3222 7.80315 23.3199C7.75914 23.3175 7.71989 23.2164 7.75438 23.0499C7.78192 22.9387 7.83317 22.8348 7.90462 22.7453C7.97606 22.6558 8.06601 22.5828 8.16831 22.5313C8.27187 22.4779 8.38536 22.4466 8.50163 22.4392C8.61789 22.4318 8.73443 22.4486 8.8439 22.4884C9.00924 22.5539 9.07228 22.6454 9.05087 22.6776Z" fill="white"/>
<path d="M10.6885 25.5089C10.9531 25.5062 11.2136 25.5739 11.4435 25.7049C11.6734 25.8359 11.8644 26.0257 11.9969 26.2547C12.118 26.0437 12.1816 25.8046 12.1812 25.5613C12.1597 25.1815 11.9937 24.8243 11.7172 24.5631C11.4408 24.3018 11.0748 24.1562 10.6944 24.1562C10.314 24.1562 9.94806 24.3018 9.6716 24.5631C9.39513 24.8243 9.22912 25.1815 9.20763 25.5613C9.20463 25.805 9.26531 26.0452 9.38366 26.2583C9.5155 26.0292 9.70572 25.8392 9.93493 25.7075C10.1641 25.5759 10.4242 25.5074 10.6885 25.5089Z" fill="#E0E0E0"/>
<path d="M11.3302 25.5116C11.3343 25.6392 11.3001 25.7651 11.2322 25.8731C11.1642 25.9812 11.0655 26.0665 10.9488 26.1181C10.8321 26.1698 10.7026 26.1854 10.5769 26.163C10.4512 26.1406 10.3351 26.0812 10.2434 25.9924C10.1517 25.9036 10.0886 25.7894 10.0622 25.6645C10.0358 25.5396 10.0473 25.4097 10.0951 25.2914C10.143 25.1731 10.2251 25.0717 10.3309 25.0003C10.4368 24.9289 10.5615 24.8908 10.6891 24.8907C10.772 24.8893 10.8544 24.9042 10.9315 24.9347C11.0086 24.9651 11.0789 25.0105 11.1385 25.0682C11.198 25.1259 11.2456 25.1947 11.2785 25.2708C11.3114 25.3469 11.329 25.4287 11.3302 25.5116Z" fill="white"/>
<path d="M11.3297 25.5175C11.3297 25.5175 11.3297 25.4616 11.2975 25.3688C11.2577 25.2359 11.1738 25.1205 11.0597 25.0417C10.9761 24.982 10.8793 24.9435 10.7776 24.9294C10.6759 24.9153 10.5723 24.9261 10.4756 24.9608C10.3591 24.9998 10.2577 25.0745 10.1859 25.1743C10.114 25.2741 10.0754 25.3939 10.0754 25.5169C10.0754 25.6398 10.114 25.7596 10.1859 25.8594C10.2577 25.9592 10.3591 26.0339 10.4756 26.0729C10.5722 26.1075 10.6757 26.1183 10.7774 26.1045C10.8791 26.0906 10.9759 26.0524 11.0597 25.9932C11.1736 25.9141 11.2574 25.7989 11.2975 25.6661C11.3249 25.5722 11.3237 25.5163 11.3297 25.5175C11.3356 25.5186 11.3297 25.5305 11.3297 25.5567C11.3304 25.5968 11.326 25.6367 11.3166 25.6757C11.2831 25.8195 11.1986 25.9462 11.0787 26.0325C10.9898 26.099 10.886 26.1428 10.7764 26.16C10.6667 26.1772 10.5545 26.1673 10.4495 26.1312C10.3286 26.0869 10.2235 26.0078 10.1474 25.904C10.0626 25.7941 10.0166 25.6592 10.0166 25.5204C10.0166 25.3816 10.0626 25.2467 10.1474 25.1368C10.2273 25.0328 10.3361 24.9547 10.4602 24.912C10.5652 24.8759 10.6774 24.866 10.7871 24.8832C10.8967 24.9004 11.0005 24.9442 11.0894 25.0108C11.209 25.0972 11.2935 25.2239 11.3273 25.3676C11.3367 25.4065 11.3411 25.4465 11.3404 25.4865C11.3332 25.5032 11.332 25.5175 11.3297 25.5175Z" fill="#263238"/>
<path d="M12.177 25.5644C12.1657 25.447 12.1462 25.3306 12.1187 25.2159C12.0319 24.9023 11.8405 24.6279 11.5763 24.438C11.3933 24.3046 11.1821 24.2151 10.959 24.1763C10.7021 24.1308 10.4379 24.1525 10.1918 24.2394C10.0599 24.2846 9.9356 24.3496 9.82311 24.432C9.70522 24.515 9.60124 24.6162 9.51505 24.7318C9.33178 24.9707 9.23245 25.2633 9.23245 25.5644C9.23245 25.8655 9.33178 26.1581 9.51505 26.397C9.60124 26.5126 9.70522 26.6137 9.82311 26.6967C9.93588 26.7787 10.0601 26.8437 10.1918 26.8894C10.438 26.9756 10.7021 26.9973 10.959 26.9525C11.182 26.9132 11.3931 26.8237 11.5763 26.6908C11.8407 26.5006 12.0321 26.2257 12.1187 25.9117C12.1464 25.7971 12.1659 25.6806 12.177 25.5632C12.1799 25.5941 12.1799 25.6251 12.177 25.656C12.1773 25.693 12.1745 25.73 12.1687 25.7666C12.1631 25.8175 12.154 25.868 12.1413 25.9176C12.0613 26.2417 11.8702 26.5275 11.6013 26.7253C11.4142 26.8653 11.1972 26.9602 10.9673 27.0024C10.7013 27.0516 10.4271 27.0307 10.1716 26.9418C10.0336 26.896 9.90357 26.829 9.78624 26.7431C9.66347 26.6572 9.55508 26.5525 9.46509 26.4327C9.32862 26.2481 9.23779 26.0338 9.20001 25.8073C9.16223 25.5809 9.17858 25.3487 9.24772 25.1298C9.31686 24.9109 9.43683 24.7115 9.59782 24.5478C9.75881 24.3842 9.95625 24.2609 10.174 24.1882C10.4295 24.0993 10.7037 24.0783 10.9697 24.1275C11.1989 24.1696 11.4152 24.2645 11.6013 24.4047C11.87 24.6022 12.061 24.8875 12.1413 25.2111C12.1541 25.2603 12.1632 25.3104 12.1687 25.361C12.1745 25.398 12.1773 25.4354 12.177 25.4728C12.1799 25.5033 12.1799 25.5339 12.177 25.5644Z" fill="#263238"/>
<path d="M11.2502 24.5448C11.2276 24.5828 11.0944 24.5388 10.8933 24.5222C10.6345 24.496 10.3734 24.5421 10.1392 24.6554C9.91389 24.7776 9.72817 24.9616 9.604 25.1859C9.50527 25.3595 9.4684 25.4904 9.4232 25.488C9.378 25.4856 9.33875 25.3417 9.4006 25.1086C9.44578 24.9553 9.52184 24.813 9.62412 24.6902C9.72641 24.5675 9.85273 24.467 9.99532 24.3949C10.1411 24.3201 10.3002 24.2748 10.4635 24.2618C10.6268 24.2487 10.7911 24.2681 10.9469 24.3188C11.1717 24.3961 11.2716 24.5139 11.2502 24.5448Z" fill="white"/>
<path d="M11.6223 24.7664C11.5521 24.8128 11.4855 24.8378 11.47 24.8235C11.4546 24.8092 11.4784 24.7438 11.5248 24.6737C11.5711 24.6035 11.6437 24.5725 11.6853 24.6094C11.727 24.6463 11.6937 24.72 11.6223 24.7664Z" fill="white"/>
<g opacity="0.3">
<path d="M9.3307 21.2839C9.23912 21.2839 12.1853 22.2628 12.5695 22.572L13.1726 22.4448L11.0673 19.0703L10.8294 19.0156C10.8294 19.0156 10.1026 21.2874 9.3307 21.2839Z" fill="white"/>
</g>
<path d="M33.582 27.8166C33.6131 27.8118 33.6445 27.809 33.676 27.8083L33.9436 27.794C34.1815 27.7845 34.5134 27.7678 34.9285 27.7429C35.7611 27.6929 36.9077 27.5989 38.1625 27.4062C39.2318 27.2386 40.2915 27.0146 41.3371 26.7354C41.738 26.6283 42.0615 26.5368 42.2887 26.4702L42.5456 26.3976C42.5756 26.3879 42.6062 26.3804 42.6372 26.375C42.6096 26.3893 42.5805 26.4005 42.5504 26.4083L42.2887 26.4975C42.0687 26.5713 41.7463 26.6676 41.3467 26.7806C40.3014 27.0726 39.2397 27.3026 38.1673 27.4693C37.0931 27.6311 36.0112 27.7378 34.9261 27.7892C34.5098 27.8083 34.1732 27.819 33.9401 27.8214H33.6712C33.6414 27.8225 33.6116 27.8209 33.582 27.8166Z" fill="#263238"/>
<path d="M40.0666 21.4639C40.1314 21.4397 40.2027 21.4391 40.2679 21.4622C40.3331 21.4852 40.3882 21.5304 40.4234 21.59C40.6292 21.9468 41.0182 22.7223 41.0776 23.5692C41.1609 24.7289 41.0776 26.8366 41.0776 26.8366C41.0776 26.8366 36.8194 27.7964 35.0591 27.8214C35.0591 27.8214 35.6038 24.8918 36.0511 23.7845C36.4329 22.8424 39.2376 21.7648 40.0666 21.4639Z" fill="#F5F5F5"/>
<path d="M40.0668 21.4603C40.0536 21.4678 40.0396 21.4737 40.0251 21.4781L39.9062 21.5269L39.4304 21.7148C39.0177 21.8849 38.417 22.13 37.7034 22.5011C37.3122 22.6986 36.9399 22.9315 36.5912 23.1969C36.3992 23.341 36.2375 23.5217 36.1155 23.7286C36.0171 23.9636 35.9341 24.2048 35.8669 24.4505C35.7182 24.9561 35.5897 25.4972 35.4625 26.061C35.3352 26.6248 35.2151 27.2148 35.1056 27.8238L35.0747 27.7881C35.5765 27.77 36.0769 27.7232 36.5734 27.6477C37.3929 27.5288 38.1863 27.392 38.9416 27.2481C39.6969 27.1042 40.4176 26.9543 41.0825 26.8068L41.0611 26.8318C41.0932 25.9778 41.1075 25.1904 41.1004 24.4898C41.1004 24.1401 41.0873 23.8118 41.0635 23.5097C41.0385 23.2324 40.9843 22.9585 40.9018 22.6926C40.7848 22.3154 40.6289 21.9515 40.4367 21.6066C40.413 21.5599 40.3772 21.5204 40.3331 21.4921C40.2889 21.4639 40.2381 21.448 40.1857 21.446C40.1491 21.4455 40.1127 21.4503 40.0775 21.4603C40.1115 21.4439 40.1491 21.4361 40.1869 21.4377C40.2415 21.4379 40.2951 21.4529 40.3418 21.4812C40.3885 21.5095 40.4267 21.55 40.4521 21.5983C40.649 21.9419 40.8085 22.3055 40.9279 22.683C41.0129 22.9508 41.0699 23.2266 41.098 23.5061C41.1242 23.8106 41.1349 24.1389 41.1408 24.4898C41.1515 25.1904 41.1408 25.979 41.1111 26.8342V26.8556H41.0897C40.4188 27.0054 39.6992 27.1553 38.9428 27.3016C38.1863 27.4479 37.3965 27.5907 36.571 27.7036C36.0722 27.7793 35.5694 27.8262 35.0652 27.844H35.0283L35.0343 27.8083C35.1508 27.1985 35.2729 26.6106 35.4006 26.0444C35.5291 25.4794 35.6587 24.9382 35.8098 24.4315C35.8792 24.183 35.9642 23.939 36.0643 23.7012C36.1916 23.488 36.3608 23.3027 36.5615 23.1564C36.9131 22.89 37.289 22.6575 37.6843 22.4618C38.2497 22.1747 38.8298 21.9174 39.4221 21.6911C39.6302 21.6102 39.792 21.5507 39.8979 21.5114L40.0239 21.4686L40.0668 21.4603Z" fill="#263238"/>
<path d="M38.0684 17.7031C38.112 17.7451 38.1518 17.7909 38.1873 17.8399C38.2587 17.9291 38.361 18.0623 38.4787 18.2312C38.7166 18.5678 39.0235 19.0484 39.3399 19.5896C39.6563 20.1308 39.9286 20.6291 40.1225 20.9907L40.3497 21.4201C40.3796 21.4714 40.405 21.5251 40.4258 21.5807C40.3888 21.5338 40.3562 21.4836 40.3283 21.4308L40.0833 21.0098C39.8799 20.6529 39.6075 20.1593 39.2863 19.6181C38.9652 19.0769 38.6714 18.5964 38.4418 18.255C38.3288 18.0837 38.2337 17.947 38.1671 17.853C38.1294 17.8064 38.0963 17.7562 38.0684 17.7031Z" fill="#263238"/>
<path d="M33.6675 23.5859C33.6722 23.5658 33.6798 23.5466 33.6901 23.5288C33.7103 23.486 33.7353 23.4336 33.7662 23.3706C33.7971 23.3076 33.8388 23.2172 33.8851 23.1172L33.9541 22.959C33.9755 22.9008 33.9981 22.8401 34.0231 22.7771C34.1218 22.5237 34.217 22.2145 34.3145 21.8683C34.4121 21.5222 34.4906 21.1356 34.5631 20.7277C34.6826 20.0309 34.753 19.3266 34.7737 18.62C34.7737 18.4844 34.7737 18.3619 34.7737 18.2548C34.7737 18.1478 34.7737 18.0538 34.7737 17.9777C34.7737 17.9016 34.7737 17.8492 34.7737 17.8028C34.7705 17.7827 34.7705 17.7623 34.7737 17.7422C34.7786 17.762 34.7814 17.7824 34.782 17.8028C34.782 17.8492 34.7903 17.9063 34.7963 17.9765C34.8022 18.0467 34.8058 18.1454 34.8081 18.2536C34.8105 18.3619 34.8141 18.4844 34.8081 18.6212C34.8011 19.331 34.7367 20.039 34.6155 20.7384C34.5441 21.1475 34.4561 21.5341 34.3609 21.8826C34.2759 22.1913 34.1738 22.4951 34.0552 22.7925C34.0303 22.8556 34.0053 22.9115 33.9815 22.9733C33.9577 23.0352 33.9315 23.0816 33.9077 23.1315C33.8626 23.2302 33.8221 23.3147 33.7829 23.3813L33.696 23.5347C33.6884 23.5528 33.6788 23.5699 33.6675 23.5859Z" fill="#263238"/>
<g opacity="0.3">
<path d="M41.5567 26.528C41.5567 26.528 42.0396 27.5984 39.0399 28.2467C37.2175 28.6364 35.3211 28.488 33.5815 27.8197L35.0588 27.7899C35.0588 27.7899 41.0571 27.2238 41.0786 26.7088C41.1226 25.6751 41.1154 24.2109 41.1154 24.2109L41.5567 26.528Z" fill="black"/>
</g>
<path d="M39.4351 24.5984C39.9941 24.5984 40.4473 24.1602 40.4473 23.6195C40.4473 23.0789 39.9941 22.6406 39.4351 22.6406C38.876 22.6406 38.4229 23.0789 38.4229 23.6195C38.4229 24.1602 38.876 24.5984 39.4351 24.5984Z" fill="#F5F5F5"/>
<path d="M38.4229 23.6211C38.4196 23.6002 38.4196 23.5789 38.4229 23.558C38.4231 23.4979 38.4307 23.4379 38.4455 23.3796C38.4985 23.1578 38.6283 22.9619 38.8119 22.8265C38.94 22.7302 39.0885 22.6647 39.246 22.635C39.4289 22.6015 39.6173 22.6154 39.7932 22.6755C39.8875 22.7076 39.9765 22.7537 40.0572 22.8123C40.1419 22.8709 40.2166 22.9428 40.2785 23.0252C40.4098 23.1956 40.4811 23.4047 40.4811 23.6199C40.4811 23.8351 40.4098 24.0442 40.2785 24.2146C40.2166 24.2973 40.1419 24.3696 40.0572 24.4287C39.9762 24.4864 39.8873 24.5321 39.7932 24.5643C39.6174 24.6251 39.4288 24.639 39.246 24.6047C39.0888 24.575 38.9403 24.5099 38.8119 24.4144C38.6283 24.2791 38.4985 24.0832 38.4455 23.8614C38.4307 23.8026 38.4231 23.7423 38.4229 23.6817C38.4196 23.6609 38.4196 23.6396 38.4229 23.6187C38.4333 23.6987 38.448 23.7782 38.467 23.8566C38.5264 24.0684 38.6565 24.2535 38.8357 24.3811C38.9596 24.4708 39.1024 24.531 39.2532 24.5572C39.4266 24.5872 39.6047 24.572 39.7706 24.5132C39.8597 24.4832 39.9436 24.4394 40.0192 24.3835C40.0987 24.3274 40.1689 24.2592 40.2273 24.1813C40.3512 24.0204 40.4183 23.823 40.4183 23.6199C40.4183 23.4168 40.3512 23.2194 40.2273 23.0585C40.1114 22.9054 39.953 22.79 39.7718 22.7266C39.6059 22.6678 39.4277 22.6526 39.2544 22.6826C39.1041 22.7091 38.9618 22.7693 38.8381 22.8587C38.6583 22.9865 38.5278 23.172 38.4681 23.3844C38.449 23.4624 38.4339 23.5415 38.4229 23.6211Z" fill="#263238"/>
<path d="M39.4339 23.5802C39.2594 23.579 39.0877 23.6241 38.9362 23.7108C38.7848 23.7975 38.659 23.9227 38.5716 24.0738C38.4928 23.9337 38.4518 23.7755 38.4526 23.6147C38.4615 23.3596 38.5691 23.1179 38.7527 22.9405C38.9363 22.7632 39.1816 22.6641 39.4369 22.6641C39.6922 22.6641 39.9375 22.7632 40.1211 22.9405C40.3047 23.1179 40.4123 23.3596 40.4212 23.6147C40.422 23.7755 40.381 23.9337 40.3022 24.0738C40.2144 23.9218 40.0876 23.796 39.935 23.7093C39.7824 23.6225 39.6095 23.578 39.4339 23.5802Z" fill="#E0E0E0"/>
<path d="M38.9999 23.5828C38.9963 23.6699 39.0189 23.7561 39.0648 23.8302C39.1106 23.9044 39.1776 23.9631 39.2572 23.9988C39.3367 24.0345 39.4251 24.0456 39.511 24.0306C39.5969 24.0157 39.6763 23.9753 39.7391 23.9148C39.8018 23.8543 39.845 23.7764 39.8631 23.6911C39.8811 23.6058 39.8733 23.5171 39.8404 23.4363C39.8076 23.3555 39.7514 23.2864 39.6789 23.2379C39.6065 23.1894 39.5212 23.1637 39.434 23.1641C39.3211 23.1628 39.2123 23.206 39.1311 23.2844C39.0498 23.3627 39.0027 23.4699 38.9999 23.5828Z" fill="white"/>
<path d="M38.9999 23.5876C38.9896 23.5531 38.9896 23.5163 38.9999 23.4817C39.0212 23.3836 39.0769 23.2962 39.1569 23.2355C39.2186 23.1894 39.2905 23.1589 39.3665 23.1467C39.4426 23.1344 39.5204 23.1408 39.5934 23.1654C39.6828 23.1942 39.7606 23.2506 39.8159 23.3264C39.8712 23.4023 39.9009 23.4937 39.9009 23.5876C39.9009 23.6815 39.8712 23.7729 39.8159 23.8488C39.7606 23.9247 39.6828 23.981 39.5934 24.0099C39.5205 24.035 39.4425 24.0417 39.3664 24.0295C39.2902 24.0172 39.2183 23.9864 39.1569 23.9397C39.0769 23.879 39.0212 23.7916 38.9999 23.6935C38.9896 23.6589 38.9896 23.6221 38.9999 23.5876C38.9999 23.5876 38.9999 23.6257 39.0249 23.6875C39.0528 23.7762 39.1092 23.8531 39.1854 23.9064C39.2415 23.9454 39.306 23.9705 39.3736 23.9796C39.4412 23.9887 39.5101 23.9815 39.5744 23.9587C39.6518 23.9324 39.719 23.8825 39.7666 23.8161C39.8142 23.7496 39.8398 23.6699 39.8398 23.5882C39.8398 23.5065 39.8142 23.4268 39.7666 23.3603C39.719 23.2939 39.6518 23.244 39.5744 23.2177C39.5102 23.1944 39.4414 23.1869 39.3737 23.1958C39.306 23.2047 39.2414 23.2298 39.1854 23.2688C39.1092 23.3221 39.0528 23.399 39.0249 23.4877C39.0058 23.5507 39.0047 23.5876 38.9999 23.5876Z" fill="#263238"/>
<path d="M39.0534 22.9276C39.0319 22.8955 39.095 22.8087 39.2591 22.7385C39.3684 22.6986 39.4847 22.6818 39.6008 22.6892C39.7169 22.6966 39.8302 22.7279 39.9335 22.7813C40.0358 22.8328 40.1258 22.9058 40.1972 22.9953C40.2687 23.0849 40.3199 23.1888 40.3475 23.2999C40.3831 23.4664 40.3391 23.5687 40.2999 23.5699C40.2606 23.5711 40.2178 23.4855 40.1429 23.376C40.0539 23.2373 39.9311 23.1235 39.786 23.0454C39.636 22.9732 39.4706 22.9389 39.3043 22.9455C39.1711 22.9407 39.0771 22.9586 39.0534 22.9276Z" fill="white"/>
<path d="M37.4117 25.7589C37.1471 25.7564 36.8866 25.824 36.6567 25.9551C36.4269 26.0861 36.2359 26.2758 36.1033 26.5047C35.9827 26.2935 35.9192 26.0545 35.9189 25.8113C35.9404 25.4315 36.1064 25.0743 36.3829 24.8131C36.6594 24.5518 37.0254 24.4062 37.4057 24.4062C37.7861 24.4062 38.1521 24.5518 38.4286 24.8131C38.705 25.0743 38.871 25.4315 38.8925 25.8113C38.8953 26.0522 38.8359 26.2899 38.7201 26.5012C38.587 26.2729 38.3958 26.0839 38.166 25.9535C37.9362 25.8231 37.6759 25.756 37.4117 25.7589Z" fill="#E0E0E0"/>
<path d="M36.7743 25.7616C36.77 25.8895 36.8041 26.0158 36.872 26.1242C36.94 26.2326 37.0389 26.3183 37.1559 26.3702C37.2728 26.422 37.4027 26.4378 37.5287 26.4154C37.6547 26.393 37.7711 26.3334 37.8631 26.2444C37.955 26.1554 38.0182 26.0409 38.0447 25.9157C38.0711 25.7905 38.0595 25.6602 38.0114 25.5416C37.9633 25.423 37.8809 25.3215 37.7747 25.25C37.6685 25.1786 37.5434 25.1406 37.4154 25.1407C37.3325 25.1393 37.2501 25.1542 37.173 25.1847C37.0959 25.2151 37.0256 25.2605 36.966 25.3182C36.9065 25.3759 36.8589 25.4447 36.826 25.5208C36.7931 25.5969 36.7755 25.6787 36.7743 25.7616Z" fill="white"/>
<path d="M36.7742 25.7613C36.7742 25.7613 36.7742 25.7471 36.7742 25.7209C36.7729 25.6809 36.7769 25.6409 36.7861 25.602C36.8199 25.4583 36.9043 25.3316 37.0239 25.2451C37.1128 25.1786 37.2166 25.1348 37.3263 25.1176C37.436 25.1004 37.5482 25.1103 37.6532 25.1464C37.7774 25.1887 37.8863 25.2669 37.966 25.3712C38.0515 25.4808 38.098 25.6158 38.098 25.7548C38.098 25.8938 38.0515 26.0288 37.966 26.1384C37.8866 26.243 37.7776 26.3214 37.6532 26.3632C37.5482 26.3993 37.436 26.4092 37.3263 26.392C37.2166 26.3748 37.1128 26.331 37.0239 26.2645C36.9041 26.1782 36.8196 26.0515 36.7861 25.9076C36.7769 25.8687 36.7729 25.8287 36.7742 25.7887C36.7742 25.7625 36.7742 25.7495 36.7742 25.7495C36.7801 25.7495 36.7742 25.8042 36.8063 25.8981C36.8464 26.0309 36.9303 26.1461 37.0442 26.2252C37.128 26.2844 37.2248 26.3226 37.3264 26.3365C37.4281 26.3503 37.5316 26.3395 37.6282 26.3049C37.7453 26.2665 37.8474 26.192 37.9197 26.0922C37.9921 25.9923 38.031 25.8722 38.031 25.7489C38.031 25.6255 37.9921 25.5054 37.9197 25.4055C37.8474 25.3057 37.7453 25.2312 37.6282 25.1928C37.5315 25.1581 37.4279 25.1473 37.3262 25.1614C37.2245 25.1755 37.1277 25.214 37.0442 25.2737C36.9303 25.3528 36.8464 25.468 36.8063 25.6008C36.7789 25.7054 36.7801 25.7613 36.7742 25.7613Z" fill="#263238"/>
<path d="M35.9272 25.8066C35.9243 25.7761 35.9243 25.7454 35.9272 25.715C35.9269 25.6776 35.9297 25.6402 35.9355 25.6032C35.9408 25.5525 35.9503 25.5024 35.964 25.4533C36.044 25.1298 36.2346 24.8446 36.5028 24.6469C36.6902 24.5066 36.9077 24.4117 37.138 24.3697C37.404 24.3205 37.6783 24.3414 37.9337 24.4304C38.0713 24.4764 38.2009 24.5434 38.3179 24.629C38.4412 24.7142 38.5497 24.8191 38.6391 24.9395C38.8315 25.1878 38.9359 25.493 38.9359 25.8072C38.9359 26.1213 38.8315 26.4265 38.6391 26.6749C38.5486 26.7946 38.4398 26.8994 38.3167 26.9853C38.1998 27.0712 38.0702 27.1382 37.9325 27.1839C37.6767 27.2729 37.402 27.2938 37.1356 27.2446C36.9059 27.2019 36.689 27.1071 36.5017 26.9675C36.2334 26.7698 36.0428 26.4845 35.9628 26.161C35.9494 26.1119 35.9398 26.0618 35.9343 26.0112C35.9285 25.9742 35.9257 25.9368 35.926 25.8994C35.9231 25.8685 35.9231 25.8374 35.926 25.8066C35.9378 25.9239 35.9573 26.0403 35.9843 26.1551C36.0718 26.4689 36.2635 26.7437 36.5278 26.9342C36.7105 27.0673 36.9213 27.1568 37.144 27.1958C37.4009 27.2407 37.665 27.219 37.9111 27.1328C38.0431 27.0868 38.1677 27.0219 38.2811 26.9401C38.3986 26.8571 38.5022 26.7559 38.5879 26.6404C38.7712 26.4015 38.8705 26.1088 38.8705 25.8078C38.8705 25.5067 38.7712 25.214 38.5879 24.9752C38.5017 24.8596 38.3978 24.7584 38.2799 24.6754C38.1674 24.593 38.0431 24.528 37.9111 24.4827C37.6651 24.3959 37.4008 24.3742 37.144 24.4197C36.9212 24.4584 36.7104 24.548 36.5278 24.6814C36.2632 24.8711 36.0714 25.1456 35.9843 25.4593C35.958 25.5737 35.9389 25.6897 35.9272 25.8066Z" fill="#263238"/>
<path d="M36.8544 24.7827C36.833 24.7518 36.9341 24.634 37.1672 24.5532C37.323 24.5025 37.4873 24.4831 37.6506 24.4961C37.8139 24.5092 37.973 24.5545 38.1187 24.6293C38.2611 24.7016 38.3873 24.8022 38.4895 24.9249C38.5918 25.0476 38.668 25.1899 38.7134 25.343C38.7741 25.5808 38.7289 25.7224 38.6897 25.7224C38.6504 25.7224 38.6088 25.5939 38.5089 25.4203C38.385 25.1958 38.1992 25.0116 37.9736 24.8898C37.7398 24.7765 37.4792 24.7304 37.2207 24.7566C37.0102 24.7768 36.8782 24.8208 36.8544 24.7827Z" fill="white"/>
<path d="M36.4819 25.0081C36.4117 24.9617 36.3796 24.8892 36.4188 24.8511C36.4581 24.813 36.5378 24.8511 36.5794 24.9153C36.621 24.9796 36.6496 25.0509 36.6353 25.0652C36.621 25.0795 36.552 25.0545 36.4819 25.0081Z" fill="white"/>
<g opacity="0.3">
<path d="M38.7738 21.5237C38.8654 21.5237 35.9191 22.5026 35.535 22.8118L34.9331 22.687L37.0384 19.3125L37.2763 19.2578C37.2763 19.2578 38.0066 21.5273 38.7738 21.5237Z" fill="white"/>
</g>
<g opacity="0.3">
<path d="M14.438 20.5532C14.438 20.5532 14.8959 20.4022 14.8055 20.0703C15.7767 20.5619 16.8524 20.8112 17.9409 20.7971C19.7476 20.7709 26.3668 21.1622 26.3668 21.1622L27.1257 22.1744C27.1257 22.1744 15.1588 22.128 14.7437 22.3897L14.438 20.5532Z" fill="white"/>
</g>
<g opacity="0.3">
<path d="M35.8003 33.3153V31.0839L41.9544 30.4297C41.9544 30.4297 41.6464 32.2448 40.9387 32.5421C40.2309 32.8395 35.8003 33.3153 35.8003 33.3153Z" fill="black"/>
</g>
<path d="M41.6191 30.4609C41.6191 30.4609 41.3063 31.6159 41.0648 31.9465C40.846 32.2475 40.62 32.3438 39.9301 32.4735C39.3687 32.5781 38.8774 32.6233 38.8774 32.6233L39.0297 30.7369L41.6191 30.4609Z" fill="white"/>
<path d="M41.2895 31.5235C41.2883 31.543 41.2843 31.5622 41.2776 31.5805C41.2615 31.6342 41.2408 31.6863 41.2157 31.7364C41.1211 31.924 40.9803 32.0844 40.8066 32.2026C40.5865 32.3608 40.2666 32.4405 39.9204 32.4976C39.5743 32.5547 39.1878 32.5951 38.7845 32.6475C37.9793 32.7486 37.249 32.8366 36.7209 32.8972L36.094 32.9662L35.9239 32.9817C35.9039 32.9851 35.8834 32.9851 35.8633 32.9817C35.8823 32.9757 35.9018 32.9713 35.9216 32.9686L36.0905 32.9424L36.7149 32.8544C37.2418 32.7831 37.971 32.6879 38.7762 32.5868C39.1782 32.5345 39.5648 32.4917 39.9109 32.4417C40.2571 32.3917 40.5675 32.3144 40.7816 32.1669C40.9521 32.0566 41.0937 31.9069 41.1943 31.7304C41.2645 31.6008 41.2835 31.5223 41.2895 31.5235Z" fill="#263238"/>
<g opacity="0.3">
<path d="M12.7906 33.6278V31.3964L6.6377 30.7422C6.6377 30.7422 6.94457 32.5561 7.65228 32.8534C8.36 33.1508 12.7906 33.6278 12.7906 33.6278Z" fill="black"/>
</g>
<path d="M6.9751 30.7734C6.9751 30.7734 7.28792 31.9284 7.52937 32.2579C7.74823 32.5588 7.97422 32.6563 8.66409 32.7848C9.22432 32.8906 9.71675 32.9358 9.71675 32.9358L9.5645 31.0482L6.9751 30.7734Z" fill="white"/>
<path d="M7.30469 31.8516C7.30469 31.8516 7.32967 31.9277 7.39984 32.0538C7.5 32.2322 7.64155 32.3839 7.81258 32.4962C8.02667 32.6437 8.33831 32.7187 8.68324 32.771C9.02818 32.8233 9.41475 32.8638 9.81796 32.9149C10.6232 33.016 11.3523 33.1112 11.8793 33.1825L12.5025 33.2706L12.6726 33.2979C12.6926 33.2992 12.7123 33.3036 12.7309 33.311C12.7108 33.3136 12.6904 33.3136 12.6702 33.311L12.5001 33.2943L11.8733 33.2254C11.344 33.1647 10.6149 33.0767 9.80964 32.9756C9.40642 32.9244 9.02342 32.8804 8.67373 32.8257C8.32403 32.771 8.00764 32.6901 7.7876 32.5319C7.61379 32.4138 7.47296 32.2533 7.37843 32.0657C7.35359 32.0155 7.33291 31.9634 7.31658 31.9098C7.30985 31.8911 7.30584 31.8715 7.30469 31.8516Z" fill="#263238"/>
<path d="M16.3098 30.3596C16.2429 30.3577 16.1763 30.3696 16.1143 30.3948C16.0523 30.42 15.9963 30.4577 15.9496 30.5057C15.903 30.5537 15.8668 30.6108 15.8434 30.6735C15.8201 30.7362 15.81 30.803 15.8138 30.8698C15.8756 31.6894 16.0386 33.2261 16.3966 33.5068C16.889 33.8934 31.0267 34.2966 32.3624 33.5258C32.9714 33.169 33.1355 31.7417 33.1795 30.9912C33.1819 30.931 33.1721 30.8709 33.1506 30.8146C33.1291 30.7583 33.0964 30.707 33.0545 30.6637C33.0125 30.6205 32.9623 30.5862 32.9067 30.5629C32.8511 30.5397 32.7914 30.5279 32.7311 30.5285L16.3098 30.3596Z" fill="#455A64"/>
<path d="M16.3099 30.358C16.3439 30.3509 16.3787 30.3481 16.4134 30.3497L16.7131 30.3438H17.8681L22.1167 30.3592L28.4207 30.4044L32.1413 30.4365H32.6278C32.6694 30.4365 32.7051 30.4365 32.7527 30.4365C32.8015 30.4383 32.85 30.4467 32.8966 30.4615C32.9902 30.4904 33.0744 30.5438 33.1404 30.6161C33.2059 30.6876 33.2497 30.7763 33.2665 30.8719C33.2743 30.9178 33.2763 30.9646 33.2724 31.011L33.2653 31.13C33.2522 31.2917 33.238 31.4523 33.2189 31.6141C33.1814 31.9415 33.119 32.2655 33.0322 32.5835C32.9865 32.7467 32.9272 32.9059 32.855 33.0592C32.7828 33.2228 32.6794 33.3707 32.5505 33.4946C32.48 33.5577 32.3996 33.6087 32.3126 33.6456C32.2294 33.6781 32.1439 33.7044 32.0568 33.7241C31.8868 33.7646 31.7167 33.7931 31.5478 33.8169C31.21 33.8645 30.8734 33.8942 30.5403 33.9204C29.873 33.9691 29.2153 33.9953 28.5694 34.0132C27.2777 34.0477 26.0324 34.0488 24.8453 34.0369C22.4664 34.0096 20.3362 33.9347 18.5413 33.8181C18.0929 33.7872 17.6671 33.7551 17.2638 33.7122C17.0616 33.6908 16.8666 33.667 16.6763 33.6337C16.6287 33.6266 16.5823 33.6159 16.5347 33.6052C16.4589 33.5959 16.3875 33.5644 16.3295 33.5146C16.2716 33.4649 16.2296 33.3992 16.2088 33.3257C16.1374 33.171 16.0827 33.0091 16.0459 32.8428C16.0066 32.6857 15.9781 32.5335 15.9519 32.3872C15.9031 32.0946 15.8722 31.8258 15.8472 31.5843C15.8222 31.3429 15.8068 31.1276 15.7949 30.9408C15.7816 30.8523 15.7893 30.7618 15.8175 30.6768C15.8417 30.6056 15.8825 30.5412 15.9364 30.4889C15.9817 30.4429 16.0361 30.4069 16.0961 30.3831C16.1561 30.3594 16.2204 30.3484 16.2849 30.3509H16.3099C16.3099 30.3509 16.2754 30.3509 16.21 30.3687C16.1157 30.3913 16.0299 30.4404 15.9626 30.5103C15.9102 30.5661 15.872 30.6337 15.8513 30.7074C15.8306 30.7811 15.8279 30.8588 15.8437 30.9337C15.8615 31.1193 15.8841 31.3334 15.9126 31.5736C15.9412 31.8139 15.9804 32.0803 16.0316 32.3694C16.0601 32.5133 16.0899 32.6631 16.1303 32.8166C16.1688 32.9757 16.2238 33.1304 16.2945 33.2781C16.3266 33.3501 16.375 33.4136 16.436 33.4636C16.5174 33.4937 16.602 33.5145 16.6882 33.5255C16.8725 33.5552 17.0676 33.5754 17.2674 33.5945C17.6682 33.6325 18.0941 33.6611 18.5413 33.6873C20.3254 33.7872 22.4664 33.849 24.8346 33.868C26.024 33.8752 27.2646 33.868 28.5528 33.8336C29.1963 33.8145 29.8516 33.7872 30.5141 33.7384C30.8448 33.7134 31.1778 33.6825 31.5085 33.6361C31.6738 33.6123 31.8392 33.585 31.9997 33.5469C32.0777 33.5285 32.1544 33.5051 32.2293 33.4767C32.2973 33.4475 32.36 33.4073 32.4149 33.3578C32.5263 33.2493 32.6159 33.1205 32.6789 32.9783C32.7467 32.8337 32.8024 32.6838 32.8454 32.5299C32.9293 32.2209 32.9898 31.906 33.0262 31.5879C33.0465 31.4297 33.0607 31.2715 33.0726 31.1121L33.0809 30.9932C33.0846 30.9604 33.0846 30.9273 33.0809 30.8945C33.0691 30.8314 33.0398 30.7729 32.9965 30.7256C32.9529 30.6776 32.8976 30.642 32.8359 30.6221C32.8046 30.6128 32.7722 30.6076 32.7396 30.6066C32.7051 30.6066 32.6599 30.6066 32.6206 30.6066L32.1342 30.6007L28.4136 30.5579L22.1096 30.4746L17.8621 30.402L16.7072 30.3735L16.4063 30.3616C16.3741 30.3645 16.3417 30.3633 16.3099 30.358Z" fill="#263238"/>
<path d="M32.6276 33.186C32.6276 33.2026 28.9499 33.2157 24.4134 33.2157C19.8769 33.2157 16.1968 33.2026 16.1968 33.186C16.1968 33.1693 19.8745 33.1562 24.4134 33.1562C28.9523 33.1562 32.6276 33.1693 32.6276 33.186Z" fill="#263238"/>
<path d="M31.7276 33.6235C31.7276 33.6401 28.6137 33.6544 24.773 33.6544C20.9323 33.6544 17.8184 33.6401 17.8184 33.6235C17.8184 33.6068 20.9323 33.5938 24.773 33.5938C28.6137 33.5938 31.7276 33.608 31.7276 33.6235Z" fill="#263238"/>
<path d="M32.8988 32.7016C32.8988 32.7183 29.1592 32.7313 24.5478 32.7313C19.9364 32.7313 16.1968 32.7183 16.1968 32.7016C16.1968 32.685 19.9352 32.6719 24.5478 32.6719C29.1604 32.6719 32.8988 32.685 32.8988 32.7016Z" fill="#263238"/>
<path d="M33.0261 32.2172C33.0261 32.2339 29.258 32.247 24.612 32.247C19.9661 32.247 16.1968 32.2339 16.1968 32.2172C16.1968 32.2006 19.9637 32.1875 24.612 32.1875C29.2603 32.1875 33.0261 32.2006 33.0261 32.2172Z" fill="#263238"/>
<path d="M33.0261 31.7341C33.0261 31.7507 29.258 31.7638 24.612 31.7638C19.9661 31.7638 16.1968 31.7507 16.1968 31.7341C16.1968 31.7174 19.9637 31.7031 24.612 31.7031C29.2603 31.7031 33.0261 31.7186 33.0261 31.7341Z" fill="#263238"/>
<path d="M33.1617 31.2485C33.1617 31.2651 29.3638 31.2782 24.6798 31.2782C19.9958 31.2782 16.1968 31.2651 16.1968 31.2485C16.1968 31.2318 19.9946 31.2188 24.6798 31.2188C29.365 31.2188 33.1617 31.2318 33.1617 31.2485Z" fill="#263238"/>
<path d="M33.1617 30.7653C33.1617 30.7808 29.3638 30.795 24.6798 30.795C19.9958 30.795 16.1968 30.7808 16.1968 30.7653C16.1968 30.7498 19.9946 30.7344 24.6798 30.7344C29.365 30.7344 33.1617 30.7486 33.1617 30.7653Z" fill="#263238"/>
<path d="M22.3677 23.9297L23.5821 24.7183H24.6443L25.8527 23.9297H22.3677Z" fill="white"/>
<path d="M22.3369 9.994C22.3869 9.994 22.5379 10.8433 23.248 10.8266C23.9581 10.8099 25.6887 10.8266 25.6887 10.8266V9.76562L22.3369 9.994Z" fill="#263238"/>
<path d="M26.4819 9.994C26.4308 9.994 26.4724 10.8433 25.7623 10.8266C25.0522 10.8099 23.7165 10.8266 23.7165 10.8266L23.1289 9.76562L26.4819 9.994Z" fill="#263238"/>
<path d="M26.1668 11.1262C26.2148 11.1257 26.2622 11.1362 26.3055 11.1568C26.3488 11.1774 26.3868 11.2076 26.4166 11.2451C26.5855 11.4688 26.9245 11.9303 26.9328 12.0777C26.9385 12.1224 26.9349 12.1678 26.9225 12.2111C26.9101 12.2544 26.889 12.2947 26.8605 12.3296C26.8321 12.3646 26.7968 12.3933 26.7569 12.4142C26.717 12.4351 26.6733 12.4477 26.6283 12.4512C26.4333 12.4738 22.6913 12.4512 22.3036 12.4512C22.2796 12.4508 22.2557 12.448 22.2322 12.4429C22.1299 12.4179 21.8647 12.337 21.8849 12.1622C21.9051 11.9873 22.1906 11.5163 22.3428 11.2713C22.3708 11.2262 22.4098 11.1891 22.4563 11.1635C22.5027 11.1378 22.555 11.1246 22.6081 11.125L26.1668 11.1262Z" fill="#263238"/>
<path d="M24.5299 10.7578H24.2754V11.2003H24.5299V10.7578Z" fill="#263238"/>
<path d="M13.7148 8.36953C13.7148 8.28746 14.2239 7.60829 14.5023 7.2919C14.7806 6.97551 14.89 6.98622 15.1327 7.01119C15.4336 7.04093 16.1532 7.40847 16.1889 7.54882C16.22 7.74574 16.2394 7.94432 16.2472 8.14354L15.7619 8.13164C15.7619 8.13164 15.8701 7.70107 15.7262 7.61543C15.5145 7.48816 15.4348 7.45247 15.2659 7.52265C15.097 7.59283 14.8781 8.15424 14.8781 8.15424L13.7148 8.36953Z" fill="#E0E0E0"/>
<path d="M34.7258 8.38249C34.7258 8.39795 29.9681 8.41222 24.1113 8.41222C18.2545 8.41222 13.4956 8.39795 13.4956 8.38249C13.4956 8.36702 18.2474 8.35156 24.1113 8.35156C29.9752 8.35156 34.7258 8.36584 34.7258 8.38249Z" fill="#263238"/>
<g opacity="0.3">
<path d="M25.7885 14.7407C25.7885 14.3839 25.6624 13.3812 25.3579 13.1136C25.12 12.9066 24.5681 12.8448 24.2946 12.8281H24.2684C24.1233 12.8281 23.1527 12.8591 22.8625 13.1148C22.5723 13.3705 22.4319 14.3875 22.4319 14.7419V14.7526C22.4281 14.8545 22.4647 14.9537 22.5338 15.0286C22.6029 15.1035 22.6988 15.148 22.8006 15.1523H25.4174C25.5192 15.148 25.6152 15.1035 25.6843 15.0286C25.7534 14.9537 25.79 14.8545 25.7861 14.7526L25.7885 14.7407Z" fill="black"/>
</g>
<g opacity="0.3">
<path d="M32.2875 14.7407C32.2875 14.3839 32.1614 13.3812 31.8581 13.1136C31.6203 12.9066 31.0684 12.8448 30.7936 12.8281H30.7674C30.6223 12.8281 29.6517 12.8591 29.3615 13.1148C29.0713 13.3705 28.9309 14.3875 28.9309 14.7419V14.7526C28.9271 14.8547 28.9639 14.9541 29.0332 15.029C29.1026 15.1039 29.1988 15.1483 29.3009 15.1523H31.9176C32.0194 15.148 32.1154 15.1035 32.1845 15.0286C32.2536 14.9537 32.2902 14.8545 32.2863 14.7526L32.2875 14.7407Z" fill="black"/>
</g>
<g opacity="0.3">
<path d="M18.7304 14.7407C18.7304 14.3839 18.6043 13.3812 18.2998 13.1136C18.0619 12.9066 17.51 12.8448 17.2365 12.8281H17.2103C17.0652 12.8281 16.0946 12.8591 15.8044 13.1148C15.5142 13.3705 15.3738 14.3875 15.3738 14.7419V14.7526C15.3699 14.8545 15.4066 14.9537 15.4757 15.0286C15.5448 15.1035 15.6407 15.148 15.7425 15.1523H18.3593C18.4611 15.148 18.5571 15.1035 18.6262 15.0286C18.6953 14.9537 18.7319 14.8545 18.728 14.7526L18.7304 14.7407Z" fill="black"/>
</g>
<path d="M19.5774 14.6753C19.5774 14.1413 19.3871 12.6295 18.9304 12.2263C18.5735 11.9158 17.7409 11.823 17.3294 11.7969H17.2901C17.0713 11.7969 15.6118 11.8421 15.1741 12.2275C14.7174 12.6307 14.5271 14.1424 14.5271 14.6765V14.6932C14.5229 14.8454 14.5788 14.9932 14.6828 15.1045C14.7867 15.2158 14.9304 15.2817 15.0825 15.2879H19.0219C19.1741 15.2817 19.3177 15.2158 19.4217 15.1045C19.5257 14.9932 19.5816 14.8454 19.5774 14.6932V14.6753Z" fill="#263238"/>
<path d="M12.5527 17.8245C12.5527 17.8245 12.7585 16.3972 13.1118 15.9535C13.7338 15.1756 17.0547 15.4551 17.0547 15.4551C17.0547 15.4551 20.2246 15.2529 20.6813 15.7715C21.1381 16.2901 21.4081 17.771 21.4081 17.771L12.5527 17.8245Z" fill="#263238"/>
<path d="M33.7409 14.5269C33.7409 13.9928 33.5506 12.481 33.0927 12.0778C32.7358 11.7674 31.9032 11.6746 31.4917 11.6484H31.4536C31.2348 11.6484 29.7741 11.6936 29.3364 12.079C28.8797 12.4822 28.6894 13.994 28.6894 14.5281V14.5447C28.6836 14.698 28.7388 14.8473 28.8429 14.9599C28.9471 15.0725 29.0916 15.1392 29.2448 15.1454H33.1854C33.3386 15.1389 33.4829 15.0721 33.587 14.9595C33.6911 14.847 33.7464 14.6979 33.7409 14.5447V14.5269Z" fill="#263238"/>
<path d="M26.8262 17.5984C26.8262 17.5984 27.0331 16.1829 27.3864 15.7452C28.0085 14.9745 31.3282 15.2516 31.3282 15.2516C31.3282 15.2516 34.4992 15.0506 34.9548 15.5644C35.4103 16.0783 35.6815 17.546 35.6815 17.546L26.8262 17.5984Z" fill="#263238"/>
<g opacity="0.3">
<path d="M13.1297 10.8249C12.535 11.7432 11.0327 15.5827 11.0327 15.5827C11.0327 15.5827 16.2662 15.7956 16.4482 15.3697C16.6302 14.9439 19.3552 10.3253 19.3552 10.3253C19.3552 10.3253 13.5686 10.1493 13.1297 10.8249Z" fill="white"/>
</g>
<path d="M42.3898 28.0352C42.3898 28.0352 42.3707 28.0613 42.3315 28.1113C42.308 28.1437 42.2818 28.1739 42.253 28.2017C42.2162 28.2422 42.1764 28.28 42.1341 28.3147C41.8522 28.5477 41.5296 28.7264 41.1825 28.8416C40.6384 29.0291 40.0751 29.1555 39.503 29.2187C39.17 29.2603 38.812 29.2888 38.4325 29.3031C38.0531 29.3174 37.6487 29.3031 37.2264 29.3102L24.0237 29.3198C18.8687 29.3198 14.2026 29.3198 10.821 29.3043C10.3976 29.2972 9.99671 29.2972 9.6149 29.2853C9.25599 29.2602 8.89866 29.2161 8.54441 29.1532C7.97804 29.0577 7.42092 28.9136 6.8792 28.7227C6.53498 28.6067 6.20715 28.4468 5.90387 28.2469C5.82464 28.1953 5.74985 28.1372 5.68025 28.0732L5.60889 28.0078L5.68501 28.0685C5.75573 28.1303 5.8313 28.1864 5.911 28.2362C6.2157 28.4319 6.54377 28.5885 6.88753 28.7024C7.42991 28.8883 7.98694 29.0284 8.55274 29.1211C8.90699 29.183 9.26435 29.2255 9.62323 29.2484C10.0015 29.2591 10.4047 29.2567 10.8269 29.2627H24.0297L37.2324 29.271C37.6546 29.271 38.0579 29.2781 38.4373 29.271C38.8167 29.2639 39.1735 29.2305 39.5078 29.1913C40.0777 29.1315 40.6394 29.009 41.1825 28.8261C41.528 28.7135 41.8504 28.5394 42.1341 28.3123C42.176 28.278 42.2158 28.2411 42.253 28.2017C42.2816 28.1747 42.3083 28.1457 42.3327 28.1149C42.3672 28.059 42.3898 28.0352 42.3898 28.0352Z" fill="#263238"/>
</svg>
