<svg xmlns="http://www.w3.org/2000/svg" width="233" height="228.313" viewBox="0 0 233 228.313">
  <g id="Authentication-amico" transform="translate(-15.67 -23.623)">
    <g id="freepik--Floor--inject-9" transform="translate(15.67 113.693)">
      <ellipse id="freepik--floor--inject-9-2" data-name="freepik--floor--inject-9" cx="116.5" cy="69.121" rx="116.5" ry="69.121" transform="translate(0 0)" fill="#f5f5f5"/>
    </g>
    <g id="freepik--Shadows--inject-9" transform="translate(30.138 119.58)">
      <ellipse id="freepik--Shadow--inject-9" cx="20.42" cy="11.791" rx="20.42" ry="11.791" transform="translate(171.753 62.684)" fill="#e0e0e0"/>
      <path id="freepik--shadow--inject-9-2" data-name="freepik--shadow--inject-9" d="M121.54,333.275,47.212,290.361c-2.822-1.632-2.822-4.3,0-5.93l112.852-65.143a4.676,4.676,0,0,1,4.229,0l78.857,45.525c.334.2.334.492,0,.7l-117.38,67.764a4.706,4.706,0,0,1-4.228,0Z" transform="translate(-45.095 -218.782)" fill="#e0e0e0"/>
    </g>
    <g id="freepik--Clouds--inject-9" transform="translate(31.566 35.637)">
      <g id="freepik--clouds--inject-9-2" data-name="freepik--clouds--inject-9" transform="translate(0 0)">
        <path id="Path_23985" data-name="Path 23985" d="M75.156,50.586l-4.627,2.67c0-.207.039-.413.039-.615V51.3c0-2.39-1.677-3.353-3.742-2.163a7.262,7.262,0,0,0-2.232,2.144c-.339-3-2.694-4.115-5.551-2.458a12.373,12.373,0,0,0-5.6,9.7v2.006a5.236,5.236,0,0,0,.492,2.321L50.09,65.071A4.583,4.583,0,0,0,48,68.68c0,1.323.929,1.859,2.075,1.2L75.151,55.395A4.582,4.582,0,0,0,77.226,51.8C77.231,50.458,76.3,49.922,75.156,50.586Z" transform="translate(-48 -48.058)" fill="#ebebeb"/>
        <path id="Path_23986" data-name="Path 23986" d="M139.033,61.148l-3.5,2.016a3.64,3.64,0,0,0,.029-.462v-.983c0-1.8-1.264-2.532-2.822-1.632a5.477,5.477,0,0,0-1.691,1.593c-.256-2.262-2.031-3.107-4.189-1.863a9.351,9.351,0,0,0-4.224,7.321v1.514A3.934,3.934,0,0,0,123,70.4l-2.9,1.677a3.471,3.471,0,0,0-1.568,2.714c0,.983.7,1.4,1.568.9l18.93-10.93a3.476,3.476,0,0,0,1.568-2.694C140.6,61.055,139.9,60.652,139.033,61.148Z" transform="translate(-83.851 -53.743)" fill="#ebebeb"/>
      </g>
    </g>
    <g id="freepik--Device--inject-9" transform="translate(34.786 23.623)">
      <g id="freepik--Laptop--inject-9">
        <path id="Path_23992" data-name="Path 23992" d="M62.88,286.078a6.139,6.139,0,0,0,2.862,4.76l62.37,36.016a6.333,6.333,0,0,0,5.733,0l109.828-63.427a5.38,5.38,0,0,0,0-9.514l-62.37-36a6.323,6.323,0,0,0-5.728,0L65.742,281.319A6.126,6.126,0,0,0,62.88,286.078Z" transform="translate(-58.784 -122.034)" fill="#37474f"/>
        <path id="Path_23993" data-name="Path 23993" d="M67.472,284.628l62.37,36.021a6.362,6.362,0,0,0,5.733,0L245.4,257.221c1.583-.915,1.583-2.395,0-3.309l-62.37-36a6.323,6.323,0,0,0-5.728,0L67.472,281.319C65.889,282.233,65.889,283.713,67.472,284.628Z" transform="translate(-60.514 -122.034)" fill="#455a64"/>
        <path id="Path_23994" data-name="Path 23994" d="M130.973,387.806v6.2a5.822,5.822,0,0,1-2.862-.683L65.737,357.292a5.366,5.366,0,0,1-.29-9.332c-1.283.919-1.185,2.272.29,3.122L128.112,387.1a5.827,5.827,0,0,0,2.862.7Z" transform="translate(-58.779 -188.488)" fill="#263238"/>
        <path id="Path_23995" data-name="Path 23995" d="M55.961,183.011c-1.475-.856-1.4-2.3-1.4-4.13V92.733a6.338,6.338,0,0,1,2.867-4.966L167.254,24.339a6.152,6.152,0,0,1,5.556-.1c1.485.856,1.4,2.306,1.4,4.13v86.173a6.343,6.343,0,0,1-2.862,4.961L61.512,182.908A6.127,6.127,0,0,1,55.961,183.011Z" transform="translate(-54.554 -23.623)" fill="#37474f"/>
        <path id="Path_23996" data-name="Path 23996" d="M175.076,28.4c0-1.824-1.283-2.562-2.862-1.657L62.382,90.164A5.827,5.827,0,0,0,60.356,92.3L56.27,89.928h0A5.841,5.841,0,0,1,58.3,87.785L168.124,24.357a6.15,6.15,0,0,1,5.527-.084C175.125,25.129,175.076,26.58,175.076,28.4Z" transform="translate(-55.424 -23.641)" fill="#455a64"/>
        <path id="Path_23997" data-name="Path 23997" d="M61.163,251.614a6.16,6.16,0,0,1-5.212-.074c-1.475-.856-1.4-2.3-1.4-4.13V161.257a5.743,5.743,0,0,1,.841-2.817l4.086,2.365h0a5.861,5.861,0,0,0-.836,2.827v86.153C58.64,251.482,59.746,252.239,61.163,251.614Z" transform="translate(-54.549 -92.152)" fill="#263238"/>
        <path id="Path_23998" data-name="Path 23998" d="M70.061,102.2,175.95,41.086c.949-.551,1.716-.1,1.716.983v77.686a3.791,3.791,0,0,1-1.716,2.95L70.061,183.837c-.954.546-1.721.1-1.721-.983V105.182A3.8,3.8,0,0,1,70.061,102.2Z" transform="translate(-61.559 -32.38)" fill="#f34d4d"/>
        <path id="Path_23999" data-name="Path 23999" d="M70.061,102.2,175.95,41.086c.949-.551,1.716-.1,1.716.983v77.686a3.791,3.791,0,0,1-1.716,2.95L70.061,183.837c-.954.546-1.721.1-1.721-.983V105.182A3.8,3.8,0,0,1,70.061,102.2Z" transform="translate(-61.559 -32.38)" opacity="0.3"/>
        <path id="Path_24000" data-name="Path 24000" d="M84.211,286.725l101.946-58.86a3.166,3.166,0,0,1,2.867,0l1.7.934a.872.872,0,0,1,0,1.652L88.759,289.3a3.157,3.157,0,0,1-2.862,0l-1.682-.924A.872.872,0,0,1,84.211,286.725Z" transform="translate(-69.327 -127.268)" fill="#263238"/>
        <path id="Path_24001" data-name="Path 24001" d="M100.394,296.354l101.941-58.86a2.95,2.95,0,0,1,2.621-.143l26.551,15.321c.654.379.541,1.057-.251,1.509L129.418,312.963a2.95,2.95,0,0,1-2.621.147l-26.649-15.242C99.494,297.484,99.6,296.811,100.394,296.354Z" transform="translate(-77.51 -132.142)" fill="#263238"/>
        <path id="Path_24002" data-name="Path 24002" d="M191.4,264.494l3.191-1.844c.138-.079.148-.2.029-.266l-3.058-1.765a.526.526,0,0,0-.462,0l-3.191,1.844c-.138.079-.148.2-.029.27l3.053,1.76A.521.521,0,0,0,191.4,264.494Zm-4.661-6.392-3.191,1.883c-.138.079-.148.2-.03.266l3.053,1.765a.521.521,0,0,0,.467,0l3.191-1.844c.133-.079.147-.2.025-.266l-3.053-1.765a.492.492,0,0,0-.462-.025Zm-10.325,5.954L171,267.174c-.138.079-.147.2-.029.27l3.058,1.76a.492.492,0,0,0,.462,0l5.409-3.117c.138-.079.148-.2.029-.27l-3.053-1.76a.492.492,0,0,0-.452.015Zm5.645-3.26-3.191,1.844c-.138.079-.148.2-.029.266l3.053,1.765a.521.521,0,0,0,.467,0l3.191-1.844c.138-.079.147-.2.029-.27l-3.058-1.76a.492.492,0,0,0-.447.015Zm-12.523,7.228-3.191,1.844c-.133.079-.148.2,0,.27l3.053,1.76a.492.492,0,0,0,.462,0l3.191-1.844c.138-.079.148-.2.03-.266l-3.053-1.765a.521.521,0,0,0-.477.015Zm-4.661,2.694-3.2,1.844c-.133.079-.148.2-.025.266l3.053,1.765a.492.492,0,0,0,.462,0l3.191-1.844c.138-.079.148-.2.029-.266l-3.053-1.765a.492.492,0,0,0-.447.015Zm11.968,7.193,3.191-1.844c.138-.074.147-.2.03-.266L177,274.038a.521.521,0,0,0-.467,0l-3.191,1.839c-.133.079-.148.2,0,.27l3.053,1.765a.492.492,0,0,0,.452.015Zm-4.651,2.724,3.191-1.844c.138-.079.148-.2.03-.266l-3.063-1.78a.526.526,0,0,0-.462,0l-3.2,1.844c-.133.079-.148.2-.025.27l3.053,1.76A.492.492,0,0,0,172.185,280.636Zm-4.666,2.694,3.191-1.844c.138-.079.152-.2.029-.265l-3.053-1.765a.491.491,0,0,0-.462,0l-3.191,1.844c-.138.079-.152.2-.03.27l3.053,1.76a.492.492,0,0,0,.462-.015Zm-4.661,2.694,3.191-1.844c.133-.079.148-.2.025-.27L163,282.136a.492.492,0,0,0-.462,0l-3.191,1.844c-.138.079-.147.2-.029.265l3.053,1.765a.521.521,0,0,0,.487,0ZM186.729,267.2l3.191-1.844c.138-.079.148-.2.03-.266l-3.053-1.765a.521.521,0,0,0-.492,0l-3.191,1.844c-.133.079-.147.2-.025.27l3.053,1.76a.492.492,0,0,0,.487-.015Zm-5.212,8.024,7.12-4.115c.133-.079.148-.2.025-.266l-7.415-4.283a.492.492,0,0,0-.462,0l-3.683,2.129c-.138.079-.148.2-.03.266l3.933,2.267c.118.069.108.192-.029.27l-2.95,1.7c-.138.079-.147.2-.029.266l3.053,1.765a.541.541,0,0,0,.467,0Zm-21.3-1.809-3.191,1.844c-.138.079-.148.2-.03.265l3.053,1.765a.526.526,0,0,0,.462,0l3.2-1.844c.133-.079.148-.2.025-.27l-3.053-1.76a.492.492,0,0,0-.462.01Zm-4.666,2.694-3.191,1.844c-.138.074-.148.2-.03.266l3.053,1.765a.521.521,0,0,0,.492,0l3.191-1.839c.133-.079.148-.2.025-.27l-3.053-1.76a.492.492,0,0,0-.487,0Zm-25.813,28.754a.492.492,0,0,0,.462,0l3.191-1.844c.138-.079.147-.2.029-.266l-3.053-1.765a.521.521,0,0,0-.467,0l-3.191,1.839c-.133.079-.147.2-.025.27Zm-11.481-7.2-3.2,1.844c-.133.079-.148.2,0,.266l3.053,1.765a.492.492,0,0,0,.462,0l3.191-1.844c.138-.079.148-.2.029-.27l-3.053-1.76A.492.492,0,0,0,118.257,297.668Zm5.9,5.409a.492.492,0,0,0,.462,0l3.191-1.844c.138-.079.147-.2.029-.266l-3.053-1.765a.541.541,0,0,0-.467,0l-3.191,1.844c-.133.079-.148.2,0,.27Zm12.872,2.9,3.191-1.844c.133-.079.147-.2,0-.266l-3.053-1.765a.492.492,0,0,0-.462,0l-3.191,1.839c-.138.079-.147.2-.03.27l3.053,1.76a.521.521,0,0,0,.482,0Zm-5.143,2.69a.521.521,0,0,0,.467,0l3.191-1.844c.133-.079.148-.2.029-.265l-3.058-1.77a.492.492,0,0,0-.462,0l-3.191,1.844c-.138.079-.148.2-.029.27Zm-8.993-13.7-3.191,1.844c-.133.079-.147.2-.025.27l3.053,1.75a.491.491,0,0,0,.462,0l3.191-1.844c.138-.079.148-.2.029-.266l-3.053-1.765a.521.521,0,0,0-.467.02ZM146.219,281.5l-3.191,1.844c-.133.079-.148.2,0,.27l3.053,1.76a.492.492,0,0,0,.462,0l3.191-1.844c.138-.079.147-.2.029-.266l-3.053-1.765a.521.521,0,0,0-.492.01Zm-18.684,10.778-3.191,1.839c-.138.079-.147.2-.03.27l3.058,1.76a.492.492,0,0,0,.462,0l3.191-1.844c.138-.079.147-.2.029-.266L128,292.269a.522.522,0,0,0-.443.015Zm23.326-13.467-3.166,1.829c-.138.079-.147.2-.029.27l3.053,1.76a.492.492,0,0,0,.467,0l3.191-1.844c.138-.079.148-.2.029-.266l-3.053-1.765a.521.521,0,0,0-.467.025Zm-9.342,5.384-3.2,1.844c-.133.079-.148.2,0,.266l3.053,1.765a.492.492,0,0,0,.462,0l3.191-1.844c.138-.079.152-.2.029-.27l-3.053-1.76a.492.492,0,0,0-.447.01Zm-4.666,2.694-3.191,1.844c-.138.079-.148.2-.029.266l3.053,1.765a.492.492,0,0,0,.462,0l3.2-1.839c.133-.079.148-.2.025-.27l-3.053-1.76a.492.492,0,0,0-.423,0Zm-4.666,2.694-3.152,1.873c-.138.079-.148.2-.03.27l3.053,1.765a.521.521,0,0,0,.492,0l3.191-1.844c.133-.074.148-.2.025-.266l-3.053-1.765a.492.492,0,0,0-.487-.025Zm21.3,1.8,3.191-1.844c.138-.074.147-.2.029-.266l-3.014-1.755a.521.521,0,0,0-.467,0l-3.191,1.839c-.133.079-.148.2,0,.27l3.053,1.76a.492.492,0,0,0,.438,0Zm43.519-39.232L193.814,254c-.133.079-.147.2-.025.27l3.053,1.76a.492.492,0,0,0,.462,0l3.191-1.844c.138-.079.147-.2.029-.266l-3.053-1.765a.521.521,0,0,0-.428.01Zm-5.645,3.26-3.191,1.844c-.138.079-.147.2-.029.27l3.053,1.76a.492.492,0,0,0,.462,0l3.2-1.844c.133-.079.148-.2.025-.266l-3.053-1.765a.526.526,0,0,0-.423.01Zm10.325-5.949L198.5,251.3c-.138.079-.148.2-.03.27l3.053,1.76a.521.521,0,0,0,.467,0l3.191-1.844c.133-.079.147-.2.025-.266l-3.053-1.765a.492.492,0,0,0-.438.015ZM175.9,273.413l3.191-1.839c.138-.079.148-.2.03-.27l-3.053-1.76a.492.492,0,0,0-.467,0l-3.191,1.844c-.138.079-.148.2-.03.266l3.053,1.765a.521.521,0,0,0,.492,0Zm30.912-26.659a.492.492,0,0,0-.462,0l-3.191,1.844c-.138.074-.147.2-.029.266l3.053,1.765a.492.492,0,0,0,.462,0l3.2-1.839c.133-.079.148-.2.025-.27ZM158.192,288.7l3.191-1.839c.133-.079.148-.2,0-.27l-3.053-1.76a.492.492,0,0,0-.462,0l-3.191,1.844c-.138.079-.147.2-.029.266L157.7,288.7A.521.521,0,0,0,158.192,288.7ZM215.4,255.673l3.191-1.844c.138-.079.147-.2.029-.266l-3.053-1.765a.521.521,0,0,0-.492,0l-3.191,1.844c-.133.079-.147.2-.025.27l3.053,1.76A.492.492,0,0,0,215.4,255.673Zm-9.027.172,3.191-1.839c.138-.079.148-.2.029-.27l-3.053-1.76a.492.492,0,0,0-.467,0l-3.191,1.844c-.133.079-.148.2-.025.266l3.053,1.765a.491.491,0,0,0,.462,0Zm4.814-6.564a.492.492,0,0,0-.462,0l-3.176,1.854c-.138.079-.147.2-.03.266l3.053,1.765a.541.541,0,0,0,.467,0l3.191-1.844c.133-.079.147-.2.025-.27Zm.983-.57,7.415,4.283a.521.521,0,0,0,.467,0l3.191-1.844c.138-.079.148-.2.029-.266l-7.42-4.283a.492.492,0,0,0-.462,0l-3.191,1.844C212.076,248.524,212.066,248.642,212.169,248.711ZM201.4,254.685l-3.2,1.839c-.133.079-.147.2-.025.27l3.053,1.76a.492.492,0,0,0,.462,0l3.191-1.844c.138-.079.147-.2.029-.266l-3.053-1.765a.492.492,0,0,0-.447,0Zm-35.111,20.267-3.2,1.844c-.133.079-.148.2-.025.27l3.053,1.76a.492.492,0,0,0,.462,0l3.191-1.844c.138-.079.148-.2.029-.265l-3.053-1.765a.492.492,0,0,0-.447,0Zm43.971-16.57a.492.492,0,0,0,.462,0l3.191-1.844c.138-.079.147-.2.029-.27l-3.053-1.76a.492.492,0,0,0-.462,0l-3.2,1.844c-.133.079-.148.2-.025.266Zm-39.3,13.9-3.191,1.839c-.133.079-.148.2,0,.27l3.053,1.76a.492.492,0,0,0,.462,0l3.191-1.844c.138-.079.148-.2.03-.266l-3.053-1.765A.521.521,0,0,0,170.961,272.277ZM134.4,302.2a.521.521,0,0,0,.467,0l3.191-1.839c.133-.079.148-.2,0-.27L135,298.332a.492.492,0,0,0-.462,0l-3.191,1.844c-.138.079-.148.2-.029.266Zm-5.409-5.684-3.206,1.819c-.138.074-.147.2-.029.266l3.058,1.765a.492.492,0,0,0,.462,0l3.191-1.839c.138-.079.147-.2.029-.27l-3.053-1.765a.521.521,0,0,0-.467.01Zm10.556,2.975,3.191-1.844c.133-.079.147-.2.025-.27l-3.053-1.76a.492.492,0,0,0-.462,0l-3.191,1.844c-.138.079-.147.2-.03.266l3.053,1.765a.521.521,0,0,0,.452-.015Zm4.661-2.694,3.191-1.844c.138-.079.152-.2.029-.266l-3.068-1.76a.491.491,0,0,0-.462,0l-3.191,1.844c-.138.079-.152.2-.03.266l3.053,1.765a.492.492,0,0,0,.462-.02Zm4.666-2.694,3.191-1.844c.138-.079.147-.2.03-.266l-3.053-1.765a.521.521,0,0,0-.492,0l-3.191,1.844c-.133.079-.148.2,0,.27l3.053,1.76a.492.492,0,0,0,.447-.015Zm-15.242-.28-3.191,1.844c-.138.079-.148.2-.029.266l3.053,1.765a.521.521,0,0,0,.492,0l3.191-1.839c.133-.079.148-.2.025-.27l-3.053-1.76a.492.492,0,0,0-.477-.02Zm4.666-2.694-3.191,1.844c-.138.079-.148.2-.03.266L138.131,295a.492.492,0,0,0,.462,0l3.2-1.844c.133-.079.148-.2.025-.27l-3.053-1.76a.492.492,0,0,0-.452-.015Zm18.659-10.773-3.191,1.844c-.138.079-.148.2-.029.266l3.053,1.765a.541.541,0,0,0,.492,0l3.191-1.844c.133-.079.147-.2,0-.27l-3.053-1.76a.492.492,0,0,0-.452-.015Zm-4.666,2.694-3.191,1.844c-.138.074-.147.2-.029.266l3.053,1.765a.521.521,0,0,0,.467,0l3.191-1.839c.138-.079.148-.2.029-.27l-3.058-1.76a.492.492,0,0,0-.452-.02Zm9.342-5.409-3.191,1.844c-.138.079-.148.2-.03.265l3.053,1.765a.492.492,0,0,0,.462,0l3.2-1.844c.133-.079.148-.2.025-.266l-3.053-1.765a.492.492,0,0,0-.462,0Zm-18.659,10.773-3.2,1.844c-.133.079-.148.2-.025.27l3.053,1.76a.491.491,0,0,0,.462,0l3.191-1.844c.138-.079.148-.2.03-.266l-3.053-1.765a.492.492,0,0,0-.462,0Zm4.661-2.69-3.191,1.839c-.133.079-.148.2,0,.27l3.053,1.76a.492.492,0,0,0,.462,0l3.191-1.844c.138-.079.148-.2.029-.266l-3.053-1.765a.521.521,0,0,0-.492.01Zm-5.954,17.529,3.2-1.839c.133-.079.148-.2.025-.27l-3.044-1.746a.492.492,0,0,0-.462,0l-3.191,1.844c-.138.074-.152.2-.03.266l3.053,1.765A.492.492,0,0,0,141.681,303.254Zm-24.584-1.16-3.053-1.76a.492.492,0,0,0-.462,0l-3.191,1.873c-.138.079-.148.2-.029.266l3.053,1.765a.491.491,0,0,0,.462,0l3.2-1.839c.118-.1.133-.221.01-.29Zm6.077,1.544-3.053-1.765a.492.492,0,0,0-.462,0l-4.917,2.837c-.138.079-.148.2-.03.266l3.053,1.765a.521.521,0,0,0,.467,0l4.917-2.837C123.272,303.824,123.282,303.706,123.174,303.637Zm-10.64-5.01-3.063-1.765a.491.491,0,0,0-.462,0l-3.933,2.267c-.138.079-.147.2-.029.266l3.053,1.765a.521.521,0,0,0,.492,0l3.933-2.272a.141.141,0,0,0,0-.261Zm3.014-1.741a.492.492,0,0,0,.462,0l3.191-1.844c.138-.079.148-.2.029-.266l-3.053-1.765a.521.521,0,0,0-.492,0l-3.191,1.839c-.133.079-.148.2,0,.27Zm13.216,8.56-3.053-1.765a.492.492,0,0,0-.462,0l-6.141,3.545c-.133.079-.148.2-.025.27l3.053,1.76a.491.491,0,0,0,.462,0l6.126-3.545c.138-.079.148-.2.03-.266Zm2.154,3.791-3.053-1.76a.521.521,0,0,0-.492,0l-3.933,2.267c-.133.079-.148.2-.025.27l3.053,1.76a.491.491,0,0,0,.462,0l3.933-2.267c.177-.079.177-.2.044-.27Zm19.3-32.373a.492.492,0,0,0,.462,0l3.2-1.844c.133-.074.148-.2.025-.266l-3.053-1.765a.491.491,0,0,0-.462,0l-3.191,1.839c-.138.079-.148.2-.03.27Zm-9.342,5.384a.491.491,0,0,0,.462,0l3.191-1.844c.138-.079.148-.2.03-.265l-3.053-1.765a.521.521,0,0,0-.467,0l-3.191,1.844c-.138.079-.147.2-.029.27ZM120.224,294.2a.521.521,0,0,0,.492,0l3.191-1.839c.138-.079.148-.2.029-.27l-3.053-1.76a.492.492,0,0,0-.492,0l-3.191,1.844c-.138.074-.147.2-.029.266Zm25.356-14.642a.521.521,0,0,0,.467,0l3.186-1.868c.133-.079.148-.2,0-.266l-3.053-1.765a.526.526,0,0,0-.462,0l-3.191,1.844c-.138.079-.148.2-.03.27Zm-9.342,5.409a.492.492,0,0,0,.462,0l3.191-1.868c.138-.079.148-.2.03-.27l-3.053-1.76a.521.521,0,0,0-.492,0l-3.191,1.844c-.133.079-.148.2,0,.266Zm-3.029,24.486a.521.521,0,0,0-.467,0l-4.917,2.837c-.138.079-.148.2-.029.266l3.053,1.765a.491.491,0,0,0,.462,0l4.917-2.832c.138-.079.147-.2.029-.27Zm-3.668-20.621a.491.491,0,0,0,.462,0l3.2-1.844c.133-.079.148-.2,0-.266l-3.053-1.765a.491.491,0,0,0-.462,0l-3.191,1.844c-.138.079-.148.2-.03.266Zm-4.666,2.694a.521.521,0,0,0,.467,0l3.191-1.844c.133-.079.148-.2.025-.27l-3.053-1.76a.492.492,0,0,0-.462,0l-3.2,1.839c-.138.079-.148.2-.03.266Zm94.758-31.96a.492.492,0,0,0-.462,0L211.3,264.1c-.138.079-.148.2-.029.27l3.058,1.76a.492.492,0,0,0,.462,0l7.867-4.538c.133-.079.147-.2.025-.266Zm-10.325,5.954a.492.492,0,0,0-.462,0l-3.186,1.844c-.138.079-.152.2-.029.27l3.053,1.76a.491.491,0,0,0,.462,0l3.191-1.844c.138-.079.152-.2.029-.266Zm-62.96,35.062,3.191-1.844c.138-.079.148-.2.029-.27l-3.053-1.76a.492.492,0,0,0-.462,0l-3.2,1.844c-.133.079-.147.2-.025.266l3.053,1.765A.526.526,0,0,0,146.347,300.579Zm53.633-29.708a.492.492,0,0,0-.462,0l-3.191,1.844c-.138.079-.147.2-.029.266l3.053,1.765a.521.521,0,0,0,.467,0l3.191-1.844c.133-.079.148-.2.025-.27Zm24.309-14.033a.491.491,0,0,0-.462,0l-3.191,1.844c-.138.074-.147.2-.029.266l3.053,1.765a.492.492,0,0,0,.462,0l3.2-1.839c.133-.079.147-.2.025-.27Zm7.719-.934-7.415-4.278a.521.521,0,0,0-.467,0l-3.191,1.844c-.133.074-.148.2-.025.266l7.415,4.283a.526.526,0,0,0,.462,0l3.191-1.844C232.117,256.1,232.127,255.973,232.009,255.9ZM182.55,280.936a.492.492,0,0,0-.462,0l-3.933,2.267c-.138.079-.148.2-.029.27l3.053,1.76a.492.492,0,0,0,.462,0l3.933-2.267c.138-.079.147-.2.029-.27Zm11.8-6.8a.492.492,0,0,0-.462,0l-4.917,2.837c-.138.079-.148.2-.03.266l3.068,1.78a.541.541,0,0,0,.467,0l4.917-2.837c.138-.079.147-.2.029-.27Zm-22.588,13.039a.521.521,0,0,0-.467,0l-26.271,15.164c-.133.079-.148.2,0,.27l3.053,1.76a.492.492,0,0,0,.462,0L174.811,289.2c.138-.079.148-.2.029-.266ZM144.017,303.19a.526.526,0,0,0-.462,0l-3.933,2.272c-.138.079-.152.2-.029.266l3.053,1.765a.526.526,0,0,0,.462,0l3.933-2.272c.138-.079.148-.2.029-.266Zm33.13-19.112a.492.492,0,0,0-.462,0l-3.933,2.272c-.138.079-.148.2-.029.266l3.053,1.765a.521.521,0,0,0,.467,0l3.933-2.267c.133-.079.148-.2.025-.266ZM138.6,306.332a.491.491,0,0,0-.462,0L134.2,308.6c-.138.079-.148.2-.029.266l3.053,1.765a.521.521,0,0,0,.467,0l3.933-2.267c.133-.079.148-.2.025-.27Zm49.35-28.488a.492.492,0,0,0-.462,0l-3.933,2.267c-.133.079-.147.2-.025.266l3.073,1.736a.492.492,0,0,0,.462,0L191,279.845c.138-.079.147-.2.029-.27Zm16.717-9.642a.491.491,0,0,0-.462,0l-3.191,1.844c-.138.079-.148.2-.03.266l3.053,1.765a.492.492,0,0,0,.462,0l3.2-1.844c.133-.079.147-.2.025-.266Zm10.453-7.316,3.2-1.844c.133-.079.148-.2.025-.266l-3.078-1.741a.492.492,0,0,0-.462,0l-3.191,1.844c-.138.079-.147.2-.029.27l3.053,1.76A.492.492,0,0,0,215.119,260.885Zm-19.033.914,3.191-1.844c.133-.074.147-.2,0-.266l-3.053-1.765a.492.492,0,0,0-.462,0l-3.191,1.839c-.138.079-.148.2-.03.27l3.053,1.76a.492.492,0,0,0,.467,0Zm-12.4,17.209,9.342-5.409c.138-.079.147-.2.029-.27l-3.053-1.76a.521.521,0,0,0-.467,0l-9.342,5.384c-.138.079-.148.2-.029.27l3.053,1.76a.492.492,0,0,0,.428.044Zm26.3-15.434a.521.521,0,0,0,.492,0l3.191-1.844c.133-.079.148-.2.025-.27l-3.053-1.76a.491.491,0,0,0-.462,0l-3.191,1.844c-.138.079-.148.2-.029.266Zm-3.9-2.537,3.2-1.839c.133-.079.148-.2.025-.27l-3.053-1.76a.491.491,0,0,0-.462,0l-3.191,1.844c-.138.079-.152.2-.029.266l3.053,1.765a.492.492,0,0,0,.438.015Zm-27.043,20.651,3.191-1.844c.133-.079.148-.2,0-.266l-3.053-1.765a.492.492,0,0,0-.462,0l-3.191,1.844c-.138.079-.148.2-.029.27l3.053,1.76a.521.521,0,0,0,.447.034ZM199.7,269.514a.526.526,0,0,0,.462,0l3.191-1.844c.138-.079.148-.2.029-.27l-3.053-1.76a.492.492,0,0,0-.462,0l-3.2,1.844c-.133.079-.148.2-.025.266ZM155.679,295.19l3.191-1.844c.133-.079.147-.2.025-.266l-3.053-1.765a.492.492,0,0,0-.462,0l-3.2,1.859c-.138.079-.148.2-.03.27l3.053,1.76A.521.521,0,0,0,155.679,295.19Zm4.666-2.694,3.191-1.844c.133-.079.148-.2,0-.266l-3.053-1.765a.492.492,0,0,0-.462,0l-3.166,1.849c-.138.079-.148.2-.03.27l3.053,1.76a.491.491,0,0,0,.467,0ZM151,297.9l3.191-1.844c.138-.079.147-.2.029-.27l-3.024-1.78a.521.521,0,0,0-.492,0l-3.186,1.868c-.133.079-.148.2-.025.266l3.053,1.765a.492.492,0,0,0,.462-.025Zm18.659-10.773,3.191-1.844c.138-.079.147-.2.029-.27l-3.053-1.76a.521.521,0,0,0-.467,0l-3.191,1.844c-.133.079-.148.2-.025.266l3.053,1.765a.526.526,0,0,0,.472-.02ZM165,289.821l3.191-1.839c.138-.079.152-.2.029-.27l-3.053-1.76a.492.492,0,0,0-.462,0l-3.176,1.839c-.138.079-.152.2-.029.266l3.053,1.765a.492.492,0,0,0,.457-.02Zm9.342-5.384,3.191-1.844c.138-.079.148-.2.03-.266l-3.053-1.765a.521.521,0,0,0-.492,0l-3.147,1.839c-.133.079-.148.2-.025.266l3.053,1.765a.492.492,0,0,0,.443-.015Zm25.455-37.471a.521.521,0,0,0,.467,0l3.191-1.844c.138-.079.147-.2.029-.266l-.816-.492a.492.492,0,0,0-.462,0l-3.191,1.854c-.138.079-.148.2-.03.27ZM176.61,261.647a.492.492,0,0,0,.462,0l3.191-1.844c.138-.079.147-.2.029-.266l-3.034-1.8a.522.522,0,0,0-.492,0l-3.191,1.844c-.133.079-.148.2-.025.27Zm9.342-5.384a.521.521,0,0,0,.492,0l3.191-1.839c.133-.079.147-.2.025-.27l-3.053-1.765a.492.492,0,0,0-.462,0l-3.191,1.844c-.138.074-.147.2-.029.266ZM170.912,264.9a.492.492,0,0,0,.462,0l3.2-1.844c.133-.079.147-.2.025-.266l-3.053-1.765a.491.491,0,0,0-.462,0l-3.191,1.844c-.138.079-.148.2-.03.266Zm10.36-5.984a.492.492,0,0,0,.467,0l3.191-1.844c.133-.079.148-.2,0-.266l-3.029-1.741a.491.491,0,0,0-.462,0l-3.2,1.834c-.138.079-.148.2-.029.27ZM161.58,270.311a.521.521,0,0,0,.467,0l3.191-1.839c.138-.079.148-.2.029-.27l-3.053-1.76a.492.492,0,0,0-.492,0l-3.147,1.834c-.138.079-.148.2-.03.266Zm4.666-2.694a.541.541,0,0,0,.492,0l3.191-1.844c.133-.079.147-.2.025-.27l-3.053-1.76a.492.492,0,0,0-.462,0l-3.191,1.844c-.138.079-.148.2-.029.266Zm24.22-15.277a.492.492,0,0,0,.462,0l3.191-1.844c.138-.079.147-.2.03-.27l-.811-.467a.521.521,0,0,0-.467,0l-3.191,1.844c-.133.079-.148.2-.025.266Zm13.993-8.088a.521.521,0,0,0,.467,0l3.191-1.839c.133-.079.147-.2.025-.27l-.811-.492a.492.492,0,0,0-.462,0l-3.191,1.844c-.138.079-.152.2-.029.266Zm6.416,3.7a.526.526,0,0,0,.462,0l3.191-1.844c.138-.079.152-.2.029-.27l-3.053-1.76a.492.492,0,0,0-.462,0l-3.2,1.844c-.133.079-.147.2,0,.266Zm8.885,10.232,3.191-1.844c.138-.079.152-.2.029-.266l-3.053-1.765a.526.526,0,0,0-.462,0l-3.2,1.844c-.133.079-.148.2,0,.27l3.053,1.76a.492.492,0,0,0,.438,0Zm-24.629-8.526a.492.492,0,0,0,.462,0l3.191-1.844c.138-.079.148-.2.03-.266l-.816-.492a.492.492,0,0,0-.462,0l-3.191,1.844c-.138.079-.148.2-.029.27Zm-38.214,23.355a.492.492,0,0,0,.462,0l3.191-1.844c.138-.079.147-.2.029-.266l-3.053-1.765a.521.521,0,0,0-.467,0l-3.191,1.839c-.133.079-.148.2-.025.27Z" transform="translate(-80.175 -134.42)" fill="#455a64"/>
        <path id="Path_24003" data-name="Path 24003" d="M238.71,335.567l.654.379,17.381,10.03,30.912-17.848.644-.364L270.266,317.35Z" transform="translate(-148.161 -172.929)" fill="#37474f"/>
        <path id="Path_24004" data-name="Path 24004" d="M240.04,336.713l17.381,10.03L288.333,328.9,270.942,318.86Z" transform="translate(-148.837 -173.696)" fill="#263238"/>
      </g>
    </g>
    <g id="freepik--Window--inject-9" transform="translate(49.188 36.645)">
      <g id="freepik--window--inject-9-2" data-name="freepik--window--inject-9" transform="translate(0 0)">
        <g id="freepik--window--inject-9-3" data-name="freepik--window--inject-9">
          <path id="Path_24005" data-name="Path 24005" d="M87.144,272.892a2.026,2.026,0,0,1-.9.275,2.276,2.276,0,0,1-1.318-.231,2.458,2.458,0,0,1-1.077-1.967v-63.6L86,208.614v63.614c0,.521.261.821.634.821A1.107,1.107,0,0,0,87.144,272.892Z" transform="translate(-83.845 -130.046)" fill="#f0f0f0"/>
          <path id="Path_24006" data-name="Path 24006" d="M196.774,138.2a2.537,2.537,0,0,1-1.141,1.967L89.366,201.606c-.629.364-1.146.069-1.146-.664V129.874l3.157-1.819c.629-.364,1.657-5.9,2.291-6.289L121,105.983c.639-.364,2.129,3.737,2.758,3.373L196.774,67.13Z" transform="translate(-86.066 -58.76)" fill="#fafafa"/>
          <path id="Path_24007" data-name="Path 24007" d="M196.233,68.034v70.154a2.016,2.016,0,0,1-.88,1.524L89.1,201.133a.491.491,0,0,1-.246.084c-.1,0-.1-.275-.1-.29V130.164l2.9-1.652c.457-.266.742-1.155,1.382-3.442a17.018,17.018,0,0,1,.949-2.862l27.082-15.665a12.356,12.356,0,0,1,.86,1.377c.738,1.3,1.151,1.967,1.75,1.967a.678.678,0,0,0,.349-.093l72.219-41.759m-74.967,38.391h0M94.012,122.169h0M196.774,67.1l-73.015,42.236a.167.167,0,0,1-.084.025c-.644,0-1.967-3.442-2.586-3.442a.2.2,0,0,0-.089.025L93.668,121.751c-.639.369-1.662,5.925-2.291,6.269l-3.157,1.819v71.088c0,.521.261.821.634.821a1.032,1.032,0,0,0,.492-.157L195.6,140.174a2.537,2.537,0,0,0,1.141-1.967V67.115Z" transform="translate(-86.066 -58.745)" fill="#e0e0e0"/>
          <path id="Path_24008" data-name="Path 24008" d="M84.907,124.765a2.458,2.458,0,0,1-1.057-1.922v-8.963A2.532,2.532,0,0,1,85,111.912L191.244,50.471a2.154,2.154,0,0,1,3.294,1.9v8.949a2.522,2.522,0,0,1-1.141,1.967L87.144,124.725A2.458,2.458,0,0,1,84.907,124.765Z" transform="translate(-83.845 -50.126)" fill="#f34d4d"/>
          <path id="Path_24009" data-name="Path 24009" d="M194.9,52.169c-.079-.59-.561-.806-1.131-.492L87.49,113.113a2.4,2.4,0,0,0-.811.86L84.53,112.73a2.35,2.35,0,0,1,.811-.856L191.595,50.458a2.134,2.134,0,0,1,3.3,1.711Z" transform="translate(-84.191 -50.108)" fill="#fff" opacity="0.4"/>
          <path id="Path_24010" data-name="Path 24010" d="M86.328,178.714a2.326,2.326,0,0,0-.334,1.126v13.575l-2.154-1.244V178.463a2.318,2.318,0,0,1,.044-.285,2.532,2.532,0,0,1,.29-.708Z" transform="translate(-83.84 -114.848)" opacity="0.1"/>
          <path id="Path_24011" data-name="Path 24011" d="M196.774,53.833v6.121l-73.015,42.221c-.629.364-1.141.069-1.141-.664V99.225c0-.733-.516-1.028-1.151-.664l-27.8,16.029a2.532,2.532,0,0,0-1.151,1.967v2.335a2.532,2.532,0,0,1-1.141,1.967l-3.157,1.819v-6.1a2.542,2.542,0,0,1,1.146-1.967L195.619,53.169C196.248,52.805,196.774,53.1,196.774,53.833Z" transform="translate(-86.066 -51.585)" fill="#f34d4d"/>
          <path id="Path_24012" data-name="Path 24012" d="M296.556,62.285c.8-.462,1.441-.089,1.441.831a3.181,3.181,0,0,1-1.441,2.5c-.8.462-1.446.089-1.446-.831A3.186,3.186,0,0,1,296.556,62.285Z" transform="translate(-191.232 -56.197)" fill="#fff"/>
          <path id="Path_24013" data-name="Path 24013" d="M286,68.375c.8-.462,1.441-.089,1.441.831A3.191,3.191,0,0,1,286,71.7c-.8.457-1.441.089-1.441-.831A3.181,3.181,0,0,1,286,68.375Z" transform="translate(-185.869 -59.292)" fill="#fff"/>
          <path id="Path_24014" data-name="Path 24014" d="M275.441,74.458c.8-.457,1.441-.084,1.441.836a3.191,3.191,0,0,1-1.441,2.5c-.8.457-1.441.084-1.441-.836A3.191,3.191,0,0,1,275.441,74.458Z" transform="translate(-180.501 -62.386)" fill="#fff"/>
          <path id="Path_24015" data-name="Path 24015" d="M196.774,67.13v7.454L88.22,137.328v-7.454l2.35-1.347c.629-.369.841-.924,1.146-1.967l.821-2.808c.251-.983.516-1.623,1.151-1.967L121.02,106c.639-.364,1.131-.4,1.618.393l.983,1.78c.359.62.541.983,1.17.62Z" transform="translate(-86.066 -58.76)" fill="#e6e6e6"/>
          <path id="Path_24016" data-name="Path 24016" d="M85.994,193.459v7.454l-2.154-1.244V192.22Z" transform="translate(-83.84 -122.345)" fill="#e0e0e0"/>
          <path id="Path_24017" data-name="Path 24017" d="M96.532,195.209l-1.8,1.067.688-1.323a.32.32,0,0,0,0-.32c-.049-.064-.143,0-.2.1l-.983,1.873h0a.286.286,0,0,0,0,.069h0a.369.369,0,0,0,0,.1.211.211,0,0,0,0,.084h0a.109.109,0,0,0,0,.039h0l.983.747a.084.084,0,0,0,.093,0,.261.261,0,0,0,.108-.138.31.31,0,0,0,0-.3l-.688-.531,1.8-1.037a.383.383,0,0,0,.148-.3C96.679,195.228,96.611,195.165,96.532,195.209Z" transform="translate(-89.122 -123.559)" opacity="0.2"/>
          <path id="Path_24018" data-name="Path 24018" d="M101.847,191.976l1.8-1.037-.688-.526a.3.3,0,0,1,0-.31c.054-.123.148-.182.207-.138l.983.752h0a.108.108,0,0,1,0,.039h0a.389.389,0,0,1,0,.084.734.734,0,0,1,0,.1h0a.286.286,0,0,1,0,.069h0l-.983,1.878a.3.3,0,0,1-.1.108.079.079,0,0,1-.108,0,.339.339,0,0,1,0-.32l.688-1.323-1.8,1.082c-.084.044-.148,0-.148-.143A.369.369,0,0,1,101.847,191.976Z" transform="translate(-92.918 -121.192)" opacity="0.2"/>
          <path id="Path_24019" data-name="Path 24019" d="M111.925,183.454c0-.108-.108-.093-.152.025l-.251.6c-.418-.049-.929.364-1.269,1.092a2.425,2.425,0,0,0,0,2.488.639.639,0,0,0,.806.049,2.232,2.232,0,0,0,.806-.983.3.3,0,0,0,0-.315c-.054-.054-.148,0-.2.118-.334.7-.875,1.018-1.21.7a1.823,1.823,0,0,1,0-1.859c.236-.492.58-.8.875-.816l-.187.452c-.049.118,0,.231.074.182l.733-.492a.256.256,0,0,0,.084-.2Z" transform="translate(-97.096 -117.852)" opacity="0.2"/>
          <path id="Path_24020" data-name="Path 24020" d="M151.971,151.157l.654-1.387a.418.418,0,0,0,0-.433c-.074-.079-.2,0-.28.162l-.654,1.387-.654-.629c-.079-.079-.206,0-.285.162a.433.433,0,0,0,0,.428l.659.634-.659,1.387a.442.442,0,0,0,0,.433.113.113,0,0,0,.143,0,.4.4,0,0,0,.143-.172l.654-1.387.654.629a.108.108,0,0,0,.143,0,.393.393,0,0,0,.138-.172.418.418,0,0,0,0-.433Z" transform="translate(-117.823 -100.532)" opacity="0.2"/>
          <path id="Path_24021" data-name="Path 24021" d="M118.82,131.753v-2.321a2.547,2.547,0,0,1,1.146-1.967l84.757-49c.634-.364,1.146-.069,1.146.664v2.316a2.527,2.527,0,0,1-1.146,1.967l-84.757,49C119.336,132.781,118.82,132.486,118.82,131.753Z" transform="translate(-101.621 -64.445)" fill="#fafafa"/>
          <path id="Path_24022" data-name="Path 24022" d="M289.608,84.84a.226.226,0,0,1-.1,0,.3.3,0,0,1-.172-.344l.113-.944L289,83.237a.339.339,0,0,1-.123-.256.521.521,0,0,1,.192-.4l.674-.492a.157.157,0,0,0,.03-.054l.3-.983a.423.423,0,0,1,.339-.32.275.275,0,0,1,.266.157h0l.251.541.57-.221a.265.265,0,0,1,.3.069.413.413,0,0,1,0,.492l-.492.915a.179.179,0,0,0,0,.054l.113.826a.492.492,0,0,1-.143.413.315.315,0,0,1-.266.1l-.551-.069-.595.757a.339.339,0,0,1-.261.074Zm-.324-1.913.438.32a.31.31,0,0,1,.118.315l-.074.624.4-.492a.344.344,0,0,1,.3-.143l.546.069a.132.132,0,0,0,0-.064l-.108-.841a.492.492,0,0,1,.059-.3l.428-.8-.438.167a.27.27,0,0,1-.349-.138l-.2-.423-.266.875a.492.492,0,0,1-.167.251l-.674.521a.143.143,0,0,0-.015.054ZM290.419,83.911ZM289.49,83.547ZM290.321,80.99Z" transform="translate(-188.065 -65.673)" fill="#e0e0e0"/>
          <g id="Group_11245" data-name="Group 11245" transform="translate(105.194 11.089)" opacity="0.5">
            <path id="Path_24023" data-name="Path 24023" d="M298.2,75.315a.4.4,0,0,1-.344-.2.393.393,0,0,1,.143-.541l3.225-1.859a.4.4,0,1,1,.4.683l-3.23,1.888a.423.423,0,0,1-.192.029Z" transform="translate(-297.793 -72.66)" opacity="0.2"/>
            <path id="Path_24024" data-name="Path 24024" d="M298.2,79.112a.4.4,0,0,1-.344-.2.393.393,0,0,1,.143-.541l3.225-1.863a.4.4,0,0,1,.4.688l-3.23,1.863A.423.423,0,0,1,298.2,79.112Z" transform="translate(-297.793 -74.593)" opacity="0.2"/>
            <path id="Path_24025" data-name="Path 24025" d="M298.191,82.9a.393.393,0,0,1-.2-.738l3.225-1.863a.4.4,0,0,1,.4.688l-3.23,1.863a.418.418,0,0,1-.192.049Z" transform="translate(-297.787 -76.52)" opacity="0.2"/>
          </g>
        </g>
        <g id="freepik--Shield--inject-9" transform="translate(46.906 50.969)">
          <g id="freepik--shield--inject-9-2" data-name="freepik--shield--inject-9">
            <path id="Path_24026" data-name="Path 24026" d="M193.567,154.984c-2.257,2.026-4.2,1.918-5.409.983-1.219,2.34-3.166,4.7-5.409,5.276l-1.308,3.457a4.282,4.282,0,0,1,.688,2.694,9.468,9.468,0,0,1-.315,2.36,12.493,12.493,0,0,0-.541,3.53,6.166,6.166,0,0,0,.7,3.142,3.805,3.805,0,0,0,1.411,1.411l-1.967-1.126a3.933,3.933,0,0,1-1.475-1.475,6.166,6.166,0,0,1-.7-3.142,12.464,12.464,0,0,1,.541-3.53,9.5,9.5,0,0,0,.32-2.36,4.269,4.269,0,0,0-.693-2.7l1.288-3.476c2.252-.575,4.2-2.95,5.409-5.276,1.214.939,3.162,1.047,5.409-.983Z" transform="translate(-179.238 -153.77)" fill="#f34d4d"/>
            <path id="Path_24027" data-name="Path 24027" d="M193.943,156.263l-.713-.413a3.1,3.1,0,0,0,.713.413Z" transform="translate(-186.35 -154.827)" fill="#fff" opacity="0.8"/>
            <path id="Path_24028" data-name="Path 24028" d="M199.385,153.86c-1.854,1.667-3.5,1.888-4.705,1.391l1.318.762c1.214.934,3.162,1.042,5.409-.983Z" transform="translate(-187.087 -153.816)" fill="#fff" opacity="0.85"/>
            <path id="Path_24029" data-name="Path 24029" d="M187.639,155.85c-1.219,2.345-3.166,4.7-5.409,5.276l2.031,1.175c2.252-.58,4.2-2.95,5.409-5.276Z" transform="translate(-180.759 -154.827)" fill="#fff" opacity="0.65"/>
            <path id="Path_24030" data-name="Path 24030" d="M180.878,166.58l-1.288,3.476,2.031,1.175,1.288-3.476Z" transform="translate(-179.417 -160.282)" fill="#fff" opacity="0.55"/>
            <path id="Path_24031" data-name="Path 24031" d="M181.978,186.552a6.166,6.166,0,0,1-.7-3.142,12.494,12.494,0,0,1,.541-3.53,9.469,9.469,0,0,0,.315-2.36,4.282,4.282,0,0,0-.688-2.694l-2.031-1.175a4.269,4.269,0,0,1,.693,2.7,9.5,9.5,0,0,1-.32,2.36,12.463,12.463,0,0,0-.541,3.53,6.166,6.166,0,0,0,.7,3.142,3.933,3.933,0,0,0,1.475,1.475l1.967,1.126A3.805,3.805,0,0,1,181.978,186.552Z" transform="translate(-179.238 -163.875)" fill="#fff" opacity="0.4"/>
            <path id="Path_24032" data-name="Path 24032" d="M181.978,186.552a6.166,6.166,0,0,1-.7-3.142,12.494,12.494,0,0,1,.541-3.53,9.469,9.469,0,0,0,.315-2.36,4.282,4.282,0,0,0-.688-2.694l-2.031-1.175a4.269,4.269,0,0,1,.693,2.7,9.5,9.5,0,0,1-.32,2.36,12.463,12.463,0,0,0-.541,3.53,6.166,6.166,0,0,0,.7,3.142,3.933,3.933,0,0,0,1.475,1.475l1.967,1.126A3.805,3.805,0,0,1,181.978,186.552Z" transform="translate(-179.238 -163.875)" opacity="0.05"/>
            <path id="Path_24033" data-name="Path 24033" d="M190.248,180.087c-3.368.034-5.3-.856-6.171-2.385a6.166,6.166,0,0,1-.7-3.142,12.494,12.494,0,0,1,.541-3.53,9.46,9.46,0,0,0,.32-2.355,4.269,4.269,0,0,0-.693-2.7l1.288-3.476c2.252-.58,4.2-2.95,5.409-5.276,1.214.939,3.162,1.042,5.409-.983l1.288,1.967a9.771,9.771,0,0,0-.693,3.5,5.748,5.748,0,0,0,.32,1.967,6.883,6.883,0,0,1,.536,2.911,11.658,11.658,0,0,1-.7,3.933C195.543,173.12,193.616,176.232,190.248,180.087Z" transform="translate(-181.337 -155.026)" fill="#f34d4d"/>
            <path id="Path_24034" data-name="Path 24034" d="M190.248,180.087c-3.368.034-5.3-.856-6.171-2.385a6.166,6.166,0,0,1-.7-3.142,12.494,12.494,0,0,1,.541-3.53,9.46,9.46,0,0,0,.32-2.355,4.269,4.269,0,0,0-.693-2.7l1.288-3.476c2.252-.58,4.2-2.95,5.409-5.276,1.214.939,3.162,1.042,5.409-.983l1.288,1.967a9.771,9.771,0,0,0-.693,3.5,5.748,5.748,0,0,0,.32,1.967,6.883,6.883,0,0,1,.536,2.911,11.658,11.658,0,0,1-.7,3.933C195.543,173.12,193.616,176.232,190.248,180.087Z" transform="translate(-181.337 -155.026)" fill="#fff" opacity="0.75"/>
            <path id="Path_24035" data-name="Path 24035" d="M190.752,180.563c-2.611-.034-4.3-.683-5.015-1.967a5.261,5.261,0,0,1-.585-2.709,10.778,10.778,0,0,1,.433-3c.025-.108.054-.211.079-.32a10.128,10.128,0,0,0,.344-2.567,5.959,5.959,0,0,0-.595-2.8l.983-2.67c2.414-.836,4.16-3.221,5.084-4.784a3.933,3.933,0,0,0,1.573.32,5.64,5.64,0,0,0,3.3-1.21l.492.806a10.818,10.818,0,0,0-.59,3.388,6.593,6.593,0,0,0,.369,2.281c.029.074.059.152.084.231a5.763,5.763,0,0,1,.4,2.39,10.817,10.817,0,0,1-.649,3.663C195.635,174.127,193.7,177.121,190.752,180.563Z" transform="translate(-182.24 -156.357)" fill="#f34d4d"/>
            <path id="Path_24036" data-name="Path 24036" d="M190.752,180.563c-2.611-.034-4.3-.683-5.015-1.967a5.261,5.261,0,0,1-.585-2.709,10.778,10.778,0,0,1,.433-3c.025-.108.054-.211.079-.32a10.128,10.128,0,0,0,.344-2.567,5.959,5.959,0,0,0-.595-2.8l.983-2.67c2.414-.836,4.16-3.221,5.084-4.784a3.933,3.933,0,0,0,1.573.32,5.64,5.64,0,0,0,3.3-1.21l.492.806a10.818,10.818,0,0,0-.59,3.388,6.593,6.593,0,0,0,.369,2.281c.029.074.059.152.084.231a5.763,5.763,0,0,1,.4,2.39,10.817,10.817,0,0,1-.649,3.663C195.635,174.127,193.7,177.121,190.752,180.563Z" transform="translate(-182.24 -156.357)" fill="#fff" opacity="0.4"/>
            <path id="Path_24037" data-name="Path 24037" d="M190.752,180.563c-2.611-.034-4.3-.683-5.015-1.967a5.261,5.261,0,0,1-.585-2.709,10.778,10.778,0,0,1,.433-3c.025-.108.054-.211.079-.32a10.128,10.128,0,0,0,.344-2.567,5.959,5.959,0,0,0-.595-2.8l.983-2.67c2.414-.836,4.16-3.221,5.084-4.784a3.933,3.933,0,0,0,1.573.32,5.64,5.64,0,0,0,3.3-1.21l.492.806a10.818,10.818,0,0,0-.59,3.388,6.593,6.593,0,0,0,.369,2.281c.029.074.059.152.084.231a5.763,5.763,0,0,1,.4,2.39,10.817,10.817,0,0,1-.649,3.663C195.635,174.127,193.7,177.121,190.752,180.563Z" transform="translate(-182.24 -156.357)" opacity="0.15"/>
            <path id="Path_24038" data-name="Path 24038" d="M187.57,200.48A6.8,6.8,0,0,0,192,201.7l-1.308-.747a9.516,9.516,0,0,1-3.117-.472Z" transform="translate(-183.473 -177.513)" fill="#fff" opacity="0.8"/>
            <path id="Path_24039" data-name="Path 24039" d="M207.493,159.283l.679.388-.516-.8-.295.206Z" transform="translate(-193.533 -156.362)" opacity="0.15"/>
            <path id="Path_24040" data-name="Path 24040" d="M195.984,165.166a6.594,6.594,0,0,1-.369-2.281,10.689,10.689,0,0,1,.59-3.388l-.133-.207a5.467,5.467,0,0,1-3.009.983,3.933,3.933,0,0,1-1.573-.32c-.924,1.564-2.67,3.933-5.084,4.784l-.983,2.67a5.96,5.96,0,0,1,.595,2.8,10.129,10.129,0,0,1-.344,2.567,1.516,1.516,0,0,1-.079.32,10.777,10.777,0,0,0-.433,3,5.261,5.261,0,0,0,.585,2.709,2.975,2.975,0,0,0,.851.924,8.787,8.787,0,0,0,3.481.624c2.95-3.417,4.882-6.392,5.743-8.919a10.817,10.817,0,0,0,.654-3.663,5.846,5.846,0,0,0-.4-2.39A1.189,1.189,0,0,1,195.984,165.166Z" transform="translate(-182.245 -156.576)" fill="#455a64"/>
            <path id="Path_24041" data-name="Path 24041" d="M186.406,165.464l-.983,2.67a5.96,5.96,0,0,1,.595,2.8,10.129,10.129,0,0,1-.344,2.567,1.516,1.516,0,0,1-.079.32,10.777,10.777,0,0,0-.433,3,5.261,5.261,0,0,0,.585,2.709,2.975,2.975,0,0,0,.851.924,8.787,8.787,0,0,0,3.481.624v-9.834l1.416-.428V160.68a15.765,15.765,0,0,1-1.416,2.021,8.654,8.654,0,0,1-3.673,2.763Z" transform="translate(-182.245 -157.282)" fill="#37474f"/>
          </g>
          <path id="freepik--shadow--inject-9-3" data-name="freepik--shadow--inject-9" d="M195.505,170.954a.448.448,0,0,0-.054-.079h0a.579.579,0,0,0-.143-.113l-.492-.275a1.105,1.105,0,0,0-.27-.1l-.172-.025v-1.4a1.672,1.672,0,0,0-.728-1.524,1.475,1.475,0,0,0-1.539.1,4.042,4.042,0,0,0-1.8,3.24v1.652l-.944.541-.079.054h-.025a.349.349,0,0,0-.133.261v5.664a.382.382,0,0,0,0,.074.438.438,0,0,0,.182.231l.049.034.231.133.246.138a.875.875,0,0,0,.3.108,1.274,1.274,0,0,0,.86-.108l4.292-2.458a.413.413,0,0,0,.241-.334v-5.694a.335.335,0,0,0-.025-.113Zm-4.268-.192a3.132,3.132,0,0,1,1.337-2.458.654.654,0,0,1,.61-.1.821.821,0,0,1,.265.723v1.652l-1.219.7-.983.575Z" transform="translate(-184.264 -160.628)" fill="#263238"/>
          <g id="freepik--Padlock--inject-9" transform="translate(5.346 6.874)">
            <path id="Path_24042" data-name="Path 24042" d="M196.536,174.779a.4.4,0,0,0-.241-.334l-.492-.275a1.3,1.3,0,0,0-1.16,0l-4.292,2.458a.408.408,0,0,0-.241.334h0v5.669h0a.4.4,0,0,0,.241.334l.492.275a1.283,1.283,0,0,0,1.165,0l4.287-2.458a.4.4,0,0,0,.241-.334h0Z" transform="translate(-190.11 -170.944)" fill="#f34d4d"/>
            <path id="Path_24043" data-name="Path 24043" d="M190.849,177.612l-.492-.27a.359.359,0,0,1,0-.674l4.292-2.458a1.3,1.3,0,0,1,1.16,0l.492.275a.349.349,0,0,1,0,.669l-4.288,2.458A1.283,1.283,0,0,1,190.849,177.612Z" transform="translate(-190.116 -170.964)" fill="#fff" opacity="0.4"/>
            <path id="Path_24044" data-name="Path 24044" d="M191.428,180.762v5.669a1.2,1.2,0,0,1-.585-.138l-.492-.275a.4.4,0,0,1-.241-.334V180a.408.408,0,0,0,.241.339l.492.27A1.2,1.2,0,0,0,191.428,180.762Z" transform="translate(-190.11 -173.977)" opacity="0.1"/>
            <path id="Path_24045" data-name="Path 24045" d="M198.034,184.32l-1.028.59.157-1.854a.492.492,0,0,1-.2-.452,1.333,1.333,0,0,1,.551-1.062c.31-.172.556,0,.556.423a1.391,1.391,0,0,1-.2.683Z" transform="translate(-193.594 -174.727)" fill="#455a64"/>
            <path id="Path_24046" data-name="Path 24046" d="M198.078,186.706l-.929-.536-.1,1.126Z" transform="translate(-193.638 -177.114)" fill="#37474f"/>
            <path id="Path_24047" data-name="Path 24047" d="M197.582,181.544a1.239,1.239,0,0,0-.492.629l.826.492h0a1.392,1.392,0,0,0,.2-.683C198.137,181.559,197.891,181.372,197.582,181.544Z" transform="translate(-193.658 -174.73)" fill="#37474f"/>
            <path id="Path_24048" data-name="Path 24048" d="M196.616,171.714h0v-2.267a1.662,1.662,0,0,0-.728-1.524,1.475,1.475,0,0,0-1.534.093,4.042,4.042,0,0,0-1.8,3.24v2.281h0a.231.231,0,0,0,.138.187.728.728,0,0,0,.654,0,.221.221,0,0,0,.138-.187h0v-2.281a3.132,3.132,0,0,1,1.337-2.434.654.654,0,0,1,.61-.1.816.816,0,0,1,.266.723v2.267h0a.221.221,0,0,0,.138.187.728.728,0,0,0,.654,0A.221.221,0,0,0,196.616,171.714Z" transform="translate(-191.35 -167.751)" fill="#e0e0e0"/>
          </g>
        </g>
        <path id="Path_24049" data-name="Path 24049" d="M127.212,252.971c.064-.034.113-.039.148,0a.34.34,0,0,1,.069.123l1.042,4.047a.285.285,0,0,1,0,.1.324.324,0,0,1-.03.133.172.172,0,0,1-.074.089l-.6.349c-.064.039-.108.044-.138,0a.157.157,0,0,1-.049-.089l-.133-.536-1.254.7-.138.693a.4.4,0,0,1-.049.147.3.3,0,0,1-.138.143l-.6.349a.064.064,0,0,1-.079,0,.138.138,0,0,1-.03-.1.492.492,0,0,1,0-.118l1.042-5.251a1.019,1.019,0,0,1,.074-.2.339.339,0,0,1,.143-.167Zm-.777,3.673.777-.447-.388-1.549Z" transform="translate(-104.84 -153.212)" fill="#455a64"/>
        <path id="Path_24050" data-name="Path 24050" d="M132.985,252.321a.394.394,0,0,1,.039-.162.246.246,0,0,1,.093-.113l.6-.349a.069.069,0,0,1,.089,0,.162.162,0,0,1,.039.118v1.863a.89.89,0,0,0,.088.457c.064.093.162.1.3,0a.674.674,0,0,0,.3-.364,1.638,1.638,0,0,0,.088-.561v-1.873a.384.384,0,0,1,.034-.162.28.28,0,0,1,.093-.113l.6-.349a.069.069,0,0,1,.089,0,.162.162,0,0,1,.039.118v3.442a.393.393,0,0,1-.039.162.226.226,0,0,1-.089.108l-.556.32a.069.069,0,0,1-.093,0,.162.162,0,0,1-.039-.118v-.167a1.551,1.551,0,0,1-.093.211,1.118,1.118,0,0,1-.133.216,1.553,1.553,0,0,1-.192.216,1.325,1.325,0,0,1-.256.187c-.31.177-.556.187-.738,0a1.534,1.534,0,0,1-.28-1.116Z" transform="translate(-108.814 -152.07)" fill="#455a64"/>
        <path id="Path_24051" data-name="Path 24051" d="M140.606,249.291a.418.418,0,0,0,.044.231q.052.066.162,0l.379-.221a.069.069,0,0,1,.093,0,.162.162,0,0,1,.039.118v.742a.394.394,0,0,1-.039.162.221.221,0,0,1-.093.113l-.452.261a.89.89,0,0,1-.408.138.438.438,0,0,1-.315-.1.752.752,0,0,1-.2-.344,1.834,1.834,0,0,1-.074-.565v-1.239l-.354.206a.069.069,0,0,1-.089,0,.143.143,0,0,1-.039-.118v-.742a.329.329,0,0,1,.039-.162.241.241,0,0,1,.089-.113l.354-.2v-1.2a.394.394,0,0,1,.039-.162.221.221,0,0,1,.093-.113l.6-.349a.074.074,0,0,1,.093,0,.162.162,0,0,1,.039.118v1.2l.541-.31a.069.069,0,0,1,.089,0,.162.162,0,0,1,.039.118v.742a.359.359,0,0,1-.039.162.216.216,0,0,1-.089.113l-.541.315Z" transform="translate(-112.01 -149.482)" fill="#455a64"/>
        <path id="Path_24052" data-name="Path 24052" d="M147.357,247a.393.393,0,0,1-.039.162.231.231,0,0,1-.093.108l-.6.349h-.093a.162.162,0,0,1-.039-.118v-1.868a.782.782,0,0,0-.1-.447c-.069-.089-.172-.093-.32,0a.708.708,0,0,0-.31.374,1.476,1.476,0,0,0-.1.565v1.863a.393.393,0,0,1-.039.162.246.246,0,0,1-.093.113l-.6.349a.079.079,0,0,1-.093,0,.177.177,0,0,1-.039-.118v-4.858a.374.374,0,0,1,.039-.162.2.2,0,0,1,.093-.113l.6-.349a.074.074,0,0,1,.093,0,.162.162,0,0,1,.039.118V244.7a2.217,2.217,0,0,1,.251-.447,1.357,1.357,0,0,1,.4-.374.94.94,0,0,1,.423-.143.428.428,0,0,1,.329.118.841.841,0,0,1,.211.4,2.763,2.763,0,0,1,.079.708Z" transform="translate(-114.827 -148.156)" fill="#455a64"/>
        <path id="Path_24053" data-name="Path 24053" d="M152.18,243.765a.6.6,0,0,0,.044.261.211.211,0,0,0,.1.113.187.187,0,0,0,.138,0,.927.927,0,0,0,.147-.059.893.893,0,0,0,.369-.384.674.674,0,0,1,.079-.128.226.226,0,0,1,.079-.069l.624-.359q.1-.059.1.1a1.111,1.111,0,0,1-.069.31,2.833,2.833,0,0,1-.226.492,3.369,3.369,0,0,1-.388.556,2.213,2.213,0,0,1-.57.492,1.111,1.111,0,0,1-.551.182.536.536,0,0,1-.408-.157.983.983,0,0,1-.251-.492,3.269,3.269,0,0,1-.084-.787A4.353,4.353,0,0,1,151.4,243a3.23,3.23,0,0,1,.251-.772,2.768,2.768,0,0,1,.408-.654,2.1,2.1,0,0,1,.551-.492.983.983,0,0,1,.595-.162.6.6,0,0,1,.4.236,1.249,1.249,0,0,1,.226.516,3.244,3.244,0,0,1,.069.669v.207a.33.33,0,0,1-.039.162.241.241,0,0,1-.089.113Zm.433-1.662a.718.718,0,0,0-.3.359,1.475,1.475,0,0,0-.128.492l.865-.492a.59.59,0,0,0-.128-.344.186.186,0,0,0-.28-.015Z" transform="translate(-118.141 -147.099)" fill="#455a64"/>
        <path id="Path_24054" data-name="Path 24054" d="M160.507,240.184a.393.393,0,0,1-.039.162.207.207,0,0,1-.093.108l-.6.349a.074.074,0,0,1-.093,0,.162.162,0,0,1-.039-.118v-1.868a.742.742,0,0,0-.1-.447c-.069-.088-.172-.093-.315,0a.7.7,0,0,0-.315.374,1.475,1.475,0,0,0-.1.565v1.863a.393.393,0,0,1-.039.162.241.241,0,0,1-.089.113l-.6.349a.074.074,0,0,1-.093,0,.172.172,0,0,1-.039-.118v-3.442a.393.393,0,0,1,.039-.162.28.28,0,0,1,.093-.113l.58-.334a.069.069,0,0,1,.089,0,.162.162,0,0,1,.039.118v.172c.025-.064.059-.138.093-.211a1.582,1.582,0,0,1,.143-.226,2.4,2.4,0,0,1,.187-.211,1.663,1.663,0,0,1,.251-.187.984.984,0,0,1,.423-.143.428.428,0,0,1,.329.118.841.841,0,0,1,.211.4,2.557,2.557,0,0,1,.079.708Z" transform="translate(-121.511 -145.076)" fill="#455a64"/>
        <path id="Path_24055" data-name="Path 24055" d="M165.606,234.866a.452.452,0,0,0,.044.236q.049.059.162,0l.379-.221h.093a.162.162,0,0,1,.039.118v.747a.393.393,0,0,1-.039.162.207.207,0,0,1-.093.108l-.452.266a.954.954,0,0,1-.408.138.462.462,0,0,1-.315-.108.732.732,0,0,1-.2-.339,1.889,1.889,0,0,1-.074-.57v-1.239l-.354.207a.069.069,0,0,1-.089,0,.143.143,0,0,1-.039-.118V233.5a.329.329,0,0,1,.039-.162.266.266,0,0,1,.089-.113l.354-.2v-1.2a.393.393,0,0,1,.039-.162.206.206,0,0,1,.093-.108l.6-.349a.074.074,0,0,1,.093,0,.162.162,0,0,1,.039.118v1.2l.541-.315a.069.069,0,0,1,.088,0,.162.162,0,0,1,.039.118v.747a.394.394,0,0,1-.039.162.226.226,0,0,1-.089.108l-.541.315Z" transform="translate(-124.717 -142.152)" fill="#455a64"/>
        <path id="Path_24056" data-name="Path 24056" d="M170.645,229.163a.393.393,0,0,1-.039.162.246.246,0,0,1-.093.113l-.6.349a.074.074,0,0,1-.093,0,.162.162,0,0,1-.039-.118v-.742a.393.393,0,0,1,.039-.162.221.221,0,0,1,.093-.113l.6-.349a.074.074,0,0,1,.093,0,.162.162,0,0,1,.039.118Zm0,4.238a.393.393,0,0,1-.039.162.221.221,0,0,1-.093.113l-.6.349h-.093a.162.162,0,0,1-.039-.118v-3.442a.393.393,0,0,1,.039-.162.221.221,0,0,1,.093-.113l.6-.349a.069.069,0,0,1,.093,0,.148.148,0,0,1,.039.118Z" transform="translate(-127.524 -140.678)" fill="#455a64"/>
        <path id="Path_24057" data-name="Path 24057" d="M173.835,230.608v.516a.462.462,0,0,0,.133.349c.074.064.177.059.3,0a.722.722,0,0,0,.241-.206,1.111,1.111,0,0,0,.138-.275.83.83,0,0,1,.054-.133.2.2,0,0,1,.084-.093l.629-.364a.074.074,0,0,1,.093,0,.143.143,0,0,1,.034.118,2.515,2.515,0,0,1-.064.384,2.418,2.418,0,0,1-.2.57,2.875,2.875,0,0,1-.384.615,2.261,2.261,0,0,1-.624.526,1.176,1.176,0,0,1-.492.172.644.644,0,0,1-.408-.1.846.846,0,0,1-.275-.379,1.775,1.775,0,0,1-.1-.639v-.59a3.078,3.078,0,0,1,.113-.767,3.343,3.343,0,0,1,.275-.693,2.95,2.95,0,0,1,.408-.575,2.153,2.153,0,0,1,.492-.408,1.057,1.057,0,0,1,.624-.192.58.58,0,0,1,.383.167.713.713,0,0,1,.2.334,1.476,1.476,0,0,1,.064.31.324.324,0,0,1-.034.162.28.28,0,0,1-.093.113l-.629.364a.074.074,0,0,1-.084,0,.286.286,0,0,1-.054-.074.226.226,0,0,0-.138-.118.344.344,0,0,0-.241.074.728.728,0,0,0-.3.334A1.224,1.224,0,0,0,173.835,230.608Z" transform="translate(-129.16 -140.756)" fill="#455a64"/>
        <path id="Path_24058" data-name="Path 24058" d="M179.17,228.527a1.967,1.967,0,0,1,.246-.944,3.181,3.181,0,0,1,.787-.919l.561-.492a.4.4,0,0,0-.064-.256c-.039-.049-.113-.049-.216,0a.55.55,0,0,0-.167.148,1.033,1.033,0,0,0-.089.138.525.525,0,0,1-.084.118.424.424,0,0,1-.089.069l-.61.349h-.079a.123.123,0,0,1,0-.1,1.352,1.352,0,0,1,.093-.413,3.018,3.018,0,0,1,.236-.492,3.193,3.193,0,0,1,.359-.467,2.069,2.069,0,0,1,.452-.364,1.215,1.215,0,0,1,.492-.182.492.492,0,0,1,.354.1.668.668,0,0,1,.211.344,2.03,2.03,0,0,1,.064.556v2.232a.383.383,0,0,1-.034.162.28.28,0,0,1-.093.113l-.6.349a.069.069,0,0,1-.088,0,.143.143,0,0,1-.039-.118V228.3a2.223,2.223,0,0,1-.285.492,1.382,1.382,0,0,1-.447.388.777.777,0,0,1-.369.123.359.359,0,0,1-.266-.089.565.565,0,0,1-.167-.27,1.416,1.416,0,0,1-.064-.413Zm1.1-.462a.758.758,0,0,0,.2-.167,1.356,1.356,0,0,0,.157-.241,1.475,1.475,0,0,0,.1-.29,1.214,1.214,0,0,0,.039-.3l-.443.354a1.194,1.194,0,0,0-.207.246.536.536,0,0,0-.079.275q0,.138.059.162A.217.217,0,0,0,180.266,228.065Z" transform="translate(-132.298 -138.862)" fill="#455a64"/>
        <path id="Path_24059" data-name="Path 24059" d="M186.667,222.712a.393.393,0,0,0,.049.236c.029.044.084.044.157,0l.384-.221a.069.069,0,0,1,.089,0,.143.143,0,0,1,.039.118v.742a.329.329,0,0,1-.039.162.241.241,0,0,1-.089.113l-.457.261a.875.875,0,0,1-.408.138.442.442,0,0,1-.315-.1.8.8,0,0,1-.2-.344,1.869,1.869,0,0,1-.069-.565v-1.229l-.359.2a.069.069,0,0,1-.088,0,.162.162,0,0,1-.039-.118v-.742a.394.394,0,0,1,.039-.162.216.216,0,0,1,.088-.113l.359-.206v-1.2a.383.383,0,0,1,.034-.162.28.28,0,0,1,.093-.113l.6-.349a.069.069,0,0,1,.089,0,.172.172,0,0,1,.039.118v1.2l.541-.315a.074.074,0,0,1,.093,0,.162.162,0,0,1,.034.118v.742a.383.383,0,0,1-.034.162.28.28,0,0,1-.093.113l-.541.315Z" transform="translate(-135.423 -135.977)" fill="#455a64"/>
        <path id="Path_24060" data-name="Path 24060" d="M191.465,221.035a.615.615,0,0,0,.039.261.246.246,0,0,0,.1.118.216.216,0,0,0,.138,0,.659.659,0,0,0,.148-.059.9.9,0,0,0,.231-.177.942.942,0,0,0,.138-.206,1.1,1.1,0,0,1,.079-.128.28.28,0,0,1,.079-.069l.624-.359c.074-.039.108,0,.108.1a1.174,1.174,0,0,1-.074.31,3.176,3.176,0,0,1-.221.492,3.412,3.412,0,0,1-.393.556,2.212,2.212,0,0,1-.57.467,1.1,1.1,0,0,1-.551.182.536.536,0,0,1-.408-.157,1.087,1.087,0,0,1-.251-.492,3.269,3.269,0,0,1-.084-.787,4.351,4.351,0,0,1,.084-.841,3.736,3.736,0,0,1,.251-.772,2.768,2.768,0,0,1,.408-.654,2.178,2.178,0,0,1,.551-.492.983.983,0,0,1,.6-.162.6.6,0,0,1,.4.236,1.19,1.19,0,0,1,.226.492,2.949,2.949,0,0,1,.069.669v.207a.383.383,0,0,1-.034.162.28.28,0,0,1-.093.113Zm.428-1.662a.718.718,0,0,0-.3.359,1.51,1.51,0,0,0-.123.492l.86-.492a.625.625,0,0,0-.123-.344c-.074-.074-.172-.079-.31,0Z" transform="translate(-138.107 -135.534)" fill="#455a64"/>
        <path id="Path_24061" data-name="Path 24061" d="M200.622,217.947a1.294,1.294,0,0,1-.049.148.226.226,0,0,1-.093.108l-.624.364a.064.064,0,0,1-.084,0,.157.157,0,0,1-.034-.108V218.4l.364-1.529-.983-2.9a.137.137,0,0,1,0-.049.29.29,0,0,1,.034-.143.206.206,0,0,1,.079-.1l.629-.364h.089a.246.246,0,0,1,.049.093l.536,1.632.526-2.222a.615.615,0,0,1,.049-.143.266.266,0,0,1,.089-.113l.634-.364a.064.064,0,0,1,.084,0,.143.143,0,0,1,.034.1.178.178,0,0,1,0,.054Z" transform="translate(-142.436 -132.496)" fill="#455a64"/>
        <path id="Path_24062" data-name="Path 24062" d="M208.311,210.691v.565a3.133,3.133,0,0,1-.1.728,3.481,3.481,0,0,1-.266.693,2.789,2.789,0,0,1-.4.6,2.139,2.139,0,0,1-.531.438,1.067,1.067,0,0,1-.526.172.57.57,0,0,1-.4-.133.855.855,0,0,1-.266-.388,1.8,1.8,0,0,1-.1-.6V212.2a2.87,2.87,0,0,1,.1-.723,3.369,3.369,0,0,1,.266-.693,3.033,3.033,0,0,1,.408-.6,2.119,2.119,0,0,1,.526-.443,1.15,1.15,0,0,1,.531-.172.649.649,0,0,1,.408.138.811.811,0,0,1,.261.388A1.85,1.85,0,0,1,208.311,210.691Zm-1.755,1.544a.462.462,0,0,0,.133.359c.074.064.177.054.3,0a.762.762,0,0,0,.334-.359,1.254,1.254,0,0,0,.133-.516v-.5a.492.492,0,0,0-.133-.364.27.27,0,0,0-.31,0,.792.792,0,0,0-.3.339,1.254,1.254,0,0,0-.133.516v.256C206.58,212.058,206.551,212.156,206.556,212.235Z" transform="translate(-145.788 -131.16)" fill="#455a64"/>
        <path id="Path_24063" data-name="Path 24063" d="M212.314,206.486a.33.33,0,0,1,.039-.162.226.226,0,0,1,.089-.108l.6-.349a.069.069,0,0,1,.089,0,.143.143,0,0,1,.039.118v1.868a.817.817,0,0,0,.093.452c.059.093.162.1.3,0a.669.669,0,0,0,.3-.364,1.639,1.639,0,0,0,.089-.561v-1.868a.393.393,0,0,1,.039-.162.226.226,0,0,1,.089-.108l.6-.349a.074.074,0,0,1,.093,0,.162.162,0,0,1,.034.118v3.442a.382.382,0,0,1-.034.162.28.28,0,0,1-.093.113l-.556.32a.069.069,0,0,1-.088,0,.143.143,0,0,1-.039-.118v-.172a1.978,1.978,0,0,1-.093.211,1.811,1.811,0,0,1-.138.221,1.859,1.859,0,0,1-.187.211,1.377,1.377,0,0,1-.261.192c-.31.177-.556.182-.738,0a1.539,1.539,0,0,1-.275-1.116Z" transform="translate(-149.138 -128.779)" fill="#455a64"/>
        <path id="Path_24064" data-name="Path 24064" d="M220.78,201.813a.069.069,0,0,1,.088,0,.143.143,0,0,1,.039.118v.747a.33.33,0,0,1-.039.162.266.266,0,0,1-.088.113l-.438.251a.983.983,0,0,0-.438.929v1.814a.393.393,0,0,1-.039.162.246.246,0,0,1-.093.113l-.6.349a.069.069,0,0,1-.089,0,.162.162,0,0,1-.039-.118v-3.442a.393.393,0,0,1,.039-.162.241.241,0,0,1,.088-.113l.561-.32a.069.069,0,0,1,.089,0,.162.162,0,0,1,.039.118v.172a2.349,2.349,0,0,1,.265-.423,1.333,1.333,0,0,1,.369-.315Z" transform="translate(-152.564 -127.214)" fill="#455a64"/>
        <path id="Path_24065" data-name="Path 24065" d="M226,201.452a1.967,1.967,0,0,1,.241-.944,3.259,3.259,0,0,1,.787-.919l.561-.492a.4.4,0,0,0-.064-.256c-.039-.049-.113-.049-.211,0a.575.575,0,0,0-.172.148,1.031,1.031,0,0,0-.089.138.408.408,0,0,1-.084.118.423.423,0,0,1-.089.069l-.61.349a.069.069,0,0,1-.079,0,.123.123,0,0,1,0-.1,1.519,1.519,0,0,1,.093-.413,2.522,2.522,0,0,1,.241-.492,2.629,2.629,0,0,1,.359-.492,1.862,1.862,0,0,1,.452-.364,1.2,1.2,0,0,1,.492-.182.492.492,0,0,1,.354.1.634.634,0,0,1,.211.344,2.016,2.016,0,0,1,.069.556v2.232a.393.393,0,0,1-.039.162.28.28,0,0,1-.093.113l-.6.349a.069.069,0,0,1-.089,0,.162.162,0,0,1-.039-.118v-.108a2.055,2.055,0,0,1-.285.492,1.446,1.446,0,0,1-.447.388.777.777,0,0,1-.364.123.369.369,0,0,1-.27-.089.565.565,0,0,1-.167-.27,1.6,1.6,0,0,1-.064-.438Zm1.092-.462a.757.757,0,0,0,.2-.167,1.355,1.355,0,0,0,.157-.241,1.476,1.476,0,0,0,.1-.29,1.012,1.012,0,0,0,.039-.3l-.443.354a1.2,1.2,0,0,0-.207.246.536.536,0,0,0-.079.275q0,.138.059.162a.216.216,0,0,0,.187-.044Z" transform="translate(-156.102 -125.087)" fill="#455a64"/>
        <path id="Path_24066" data-name="Path 24066" d="M233.24,196.278v.516a.492.492,0,0,0,.133.354c.074.064.177.059.3,0a.723.723,0,0,0,.241-.206,1.11,1.11,0,0,0,.138-.275,1.146,1.146,0,0,1,.054-.138.207.207,0,0,1,.084-.089l.629-.364a.074.074,0,0,1,.093,0,.143.143,0,0,1,.034.118,2.974,2.974,0,0,1-.261.954,3.265,3.265,0,0,1-.388.615,2.35,2.35,0,0,1-.634.516,1.22,1.22,0,0,1-.492.172.62.62,0,0,1-.408-.108.8.8,0,0,1-.275-.374,1.794,1.794,0,0,1-.113-.639v-.59a3.044,3.044,0,0,1,.113-.767,3.5,3.5,0,0,1,.275-.7,3.058,3.058,0,0,1,.408-.57,2.128,2.128,0,0,1,.492-.408,1.1,1.1,0,0,1,.624-.2.659.659,0,0,1,.388.167.762.762,0,0,1,.2.339,1.44,1.44,0,0,1,.064.31.325.325,0,0,1-.034.162.281.281,0,0,1-.093.113l-.629.359H234.1a.2.2,0,0,1-.054-.069.226.226,0,0,0-.138-.118.359.359,0,0,0-.241.069.762.762,0,0,0-.3.339,1.225,1.225,0,0,0-.123.506Z" transform="translate(-159.345 -123.301)" fill="#455a64"/>
        <path id="Path_24067" data-name="Path 24067" d="M239.591,192.633v.516a.492.492,0,0,0,.133.354.291.291,0,0,0,.3,0,.674.674,0,0,0,.241-.207.984.984,0,0,0,.138-.275.83.83,0,0,1,.054-.133.226.226,0,0,1,.084-.093l.629-.364a.074.074,0,0,1,.093,0,.143.143,0,0,1,.034.118,2.364,2.364,0,0,1-.059.383,2.949,2.949,0,0,1-.2.57,3.115,3.115,0,0,1-.388.615,2.192,2.192,0,0,1-.624.526,1.156,1.156,0,0,1-.492.172.644.644,0,0,1-.408-.1.855.855,0,0,1-.275-.374,1.824,1.824,0,0,1-.113-.644c0-.069,0-.167,0-.29v-.3a3.08,3.08,0,0,1,.113-.767,3.343,3.343,0,0,1,.275-.693,2.951,2.951,0,0,1,.408-.575,2.257,2.257,0,0,1,.492-.408,1.062,1.062,0,0,1,.624-.192.6.6,0,0,1,.388.167.806.806,0,0,1,.2.334,1.427,1.427,0,0,1,.059.31.324.324,0,0,1-.034.162.281.281,0,0,1-.093.113l-.629.364a.074.074,0,0,1-.084,0,.285.285,0,0,1-.054-.074.216.216,0,0,0-.138-.118.369.369,0,0,0-.241.069.821.821,0,0,0-.3.339A1.225,1.225,0,0,0,239.591,192.633Z" transform="translate(-162.578 -121.456)" fill="#455a64"/>
        <path id="Path_24068" data-name="Path 24068" d="M247.666,187.946v.57a3.09,3.09,0,0,1-.1.723,3.264,3.264,0,0,1-.266.693,2.67,2.67,0,0,1-.4.6,2.035,2.035,0,0,1-.531.438,1.067,1.067,0,0,1-.526.172.6.6,0,0,1-.408-.128.934.934,0,0,1-.261-.393,1.923,1.923,0,0,1-.108-.6v-.57a3.128,3.128,0,0,1,.1-.723,3.482,3.482,0,0,1,.266-.693,2.837,2.837,0,0,1,.408-.6,2.119,2.119,0,0,1,.526-.443,1.081,1.081,0,0,1,.531-.167.644.644,0,0,1,.408.133.836.836,0,0,1,.261.388,1.849,1.849,0,0,1,.1.6Zm-1.741,1.539a.492.492,0,0,0,.133.364.291.291,0,0,0,.3,0,.8.8,0,0,0,.31-.339,1.229,1.229,0,0,0,.133-.492c0-.079,0-.167,0-.261v-.246a.492.492,0,0,0-.133-.359.29.29,0,0,0-.31,0,.777.777,0,0,0-.3.334,1.253,1.253,0,0,0-.133.516,2.1,2.1,0,0,0,0,.256A1.864,1.864,0,0,0,245.925,189.485Z" transform="translate(-165.79 -119.6)" fill="#455a64"/>
        <path id="Path_24069" data-name="Path 24069" d="M251.7,183.746a.329.329,0,0,1,.039-.162.241.241,0,0,1,.089-.113l.6-.349a.069.069,0,0,1,.089,0,.162.162,0,0,1,.039.118v1.868a.836.836,0,0,0,.093.457c.059.093.157.1.3,0a.654.654,0,0,0,.3-.364,1.637,1.637,0,0,0,.089-.561v-1.863a.329.329,0,0,1,.039-.162.241.241,0,0,1,.089-.113l.6-.349a.069.069,0,0,1,.089,0,.143.143,0,0,1,.039.118v3.442a.329.329,0,0,1-.039.162.241.241,0,0,1-.089.113l-.556.32a.074.074,0,0,1-.093,0,.162.162,0,0,1-.034-.118v-.167l-.093.211a1.766,1.766,0,0,1-.138.216,1.525,1.525,0,0,1-.192.211,1.332,1.332,0,0,1-.256.192c-.31.177-.556.187-.738,0a1.539,1.539,0,0,1-.275-1.116Z" transform="translate(-169.16 -117.22)" fill="#455a64"/>
        <path id="Path_24070" data-name="Path 24070" d="M260.981,182.164a.383.383,0,0,1-.034.162.28.28,0,0,1-.093.113l-.6.349a.069.069,0,0,1-.089,0,.143.143,0,0,1-.039-.118v-1.863a.8.8,0,0,0-.1-.452c-.069-.089-.177-.089-.32,0a.762.762,0,0,0-.315.374,1.568,1.568,0,0,0-.1.565v1.868a.383.383,0,0,1-.034.162.26.26,0,0,1-.093.108l-.6.349a.069.069,0,0,1-.089,0,.162.162,0,0,1-.039-.118v-3.442a.393.393,0,0,1,.039-.162.241.241,0,0,1,.089-.113l.58-.334a.074.074,0,0,1,.093,0,.162.162,0,0,1,.034.118v.167c.029-.064.059-.133.1-.211a1.813,1.813,0,0,1,.138-.221,1.553,1.553,0,0,1,.192-.216,1.267,1.267,0,0,1,.251-.182,1.018,1.018,0,0,1,.423-.147.428.428,0,0,1,.325.118.89.89,0,0,1,.216.4,2.786,2.786,0,0,1,.074.708Z" transform="translate(-172.586 -115.584)" fill="#455a64"/>
        <path id="Path_24071" data-name="Path 24071" d="M266.087,176.841a.394.394,0,0,0,.049.236c.029.044.084.044.157,0l.383-.221a.069.069,0,0,1,.089,0c.03,0,.039.059.039.118v.742a.329.329,0,0,1-.039.162.241.241,0,0,1-.089.113l-.457.261a.875.875,0,0,1-.408.138.428.428,0,0,1-.315-.108.752.752,0,0,1-.2-.339,2.039,2.039,0,0,1-.069-.565v-1.239l-.354.2a.074.074,0,0,1-.093,0,.163.163,0,0,1-.039-.118v-.742a.359.359,0,0,1,.039-.162.221.221,0,0,1,.093-.113l.354-.206v-1.2a.329.329,0,0,1,.039-.162.241.241,0,0,1,.089-.113l.6-.349a.069.069,0,0,1,.089,0,.143.143,0,0,1,.039.118v1.2l.541-.315a.074.074,0,0,1,.093,0,.162.162,0,0,1,.034.118v.747a.383.383,0,0,1-.034.162.246.246,0,0,1-.093.113l-.541.315Z" transform="translate(-175.794 -112.656)" fill="#455a64"/>
      </g>
    </g>
    <g id="freepik--Code--inject-9" transform="translate(58.206 95.355)">
      <g id="freepik--Numbers--inject-9">
        <g id="freepik--speach-bubble--inject-9" transform="translate(16.821 45.246)">
          <path id="Path_24072" data-name="Path 24072" d="M150.708,263.558a1.829,1.829,0,0,0-.826-1.436l-.674-.388a1.824,1.824,0,0,0-1.657,0l-10.325,5.974a1.844,1.844,0,0,0-.826,1.436v19.24a1.844,1.844,0,0,0,.826,1.436l.674.388a1.824,1.824,0,0,0,1.657,0l10.325-5.974a1.829,1.829,0,0,0,.826-1.436Z" transform="translate(-136.395 -261.535)" fill="#f34d4d"/>
          <path id="Path_24073" data-name="Path 24073" d="M136.39,295.406a1.844,1.844,0,0,0,.826,1.436l.674.388a1.844,1.844,0,0,0,1.514.064c-.388.147-.683-.069-.683-.541V277.509a1.716,1.716,0,0,1,.241-.816l-2.326-1.342a1.652,1.652,0,0,0-.246.816Z" transform="translate(-136.39 -268.557)" opacity="0.2"/>
          <path id="Path_24074" data-name="Path 24074" d="M150.938,263.326c-.1-.354-.418-.462-.8-.246l-10.325,5.979a1.642,1.642,0,0,0-.585.615l-2.326-1.342a1.7,1.7,0,0,1,.585-.62l10.325-5.974a1.854,1.854,0,0,1,1.657,0l.674.388A1.854,1.854,0,0,1,150.938,263.326Z" transform="translate(-136.649 -261.539)" fill="#fff" opacity="0.3"/>
        </g>
        <path id="Path_24075" data-name="Path 24075" d="M152.185,276.134a.187.187,0,0,1,.241,0,.423.423,0,0,1,.1.31v1.273a1.967,1.967,0,0,1-.049.423c-.034.152-.084.359-.152.615l-2.9,11.987a2.644,2.644,0,0,1-.133.393.576.576,0,0,1-.231.28l-1.042.6a.172.172,0,0,1-.236,0,.393.393,0,0,1-.1-.3,1.354,1.354,0,0,1,.034-.256l2.916-12.012L146.7,281.71a.177.177,0,0,1-.236,0,.408.408,0,0,1-.1-.31v-1.367a.954.954,0,0,1,.1-.423.58.58,0,0,1,.236-.29Z" transform="translate(-124.636 -223.688)" fill="#fafafa"/>
        <g id="freepik--speach-bubble--inject-9-2" data-name="freepik--speach-bubble--inject-9" transform="translate(33.597 35.545)">
          <path id="Path_24076" data-name="Path 24076" d="M184.878,243.828a1.839,1.839,0,0,0-.816-1.436l-.674-.388a1.824,1.824,0,0,0-1.657,0l-10.325,5.974a1.829,1.829,0,0,0-.826,1.431v19.245a1.829,1.829,0,0,0,.826,1.436l.674.388a1.854,1.854,0,0,0,1.657,0l10.325-5.959a1.844,1.844,0,0,0,.826-1.436Z" transform="translate(-170.546 -241.805)" fill="#f34d4d"/>
          <path id="Path_24077" data-name="Path 24077" d="M170.53,275.686a1.829,1.829,0,0,0,.826,1.436l.674.388a1.844,1.844,0,0,0,1.514.064c-.388.147-.688-.069-.688-.541V257.779a1.672,1.672,0,0,1,.246-.816l-2.35-1.332a1.7,1.7,0,0,0-.241.811Z" transform="translate(-170.51 -248.833)" opacity="0.2"/>
          <path id="Path_24078" data-name="Path 24078" d="M185.093,243.606c-.093-.354-.418-.467-.8-.246l-10.325,5.979a1.6,1.6,0,0,0-.585.615l-2.326-1.342a1.681,1.681,0,0,1,.58-.62l10.325-5.974a1.844,1.844,0,0,1,1.652,0l.688.383a1.829,1.829,0,0,1,.787,1.2Z" transform="translate(-170.79 -241.814)" fill="#fff" opacity="0.3"/>
        </g>
        <path id="Path_24079" data-name="Path 24079" d="M180.755,260.186a.984.984,0,0,1,.1-.428.625.625,0,0,1,.236-.29l4.705-2.714a.187.187,0,0,1,.241,0,.423.423,0,0,1,.1.31v1.367a.983.983,0,0,1-.1.423.654.654,0,0,1-.241.3l-3.516,2.026-.138,2.547a3.443,3.443,0,0,1,.669-.634q.329-.226.546-.354a3.266,3.266,0,0,1,1.3-.462,1.475,1.475,0,0,1,1.037.256,2.085,2.085,0,0,1,.688.983,5.2,5.2,0,0,1,.251,1.76,9.5,9.5,0,0,1-.256,2.262,8.071,8.071,0,0,1-.7,1.849,6.038,6.038,0,0,1-1.047,1.431,5.867,5.867,0,0,1-1.273.983,3.708,3.708,0,0,1-1.475.551,1.52,1.52,0,0,1-1.028-.246,1.8,1.8,0,0,1-.61-.86,4.16,4.16,0,0,1-.231-1.3.787.787,0,0,1,.093-.433.679.679,0,0,1,.241-.285l1.013-.585a.211.211,0,0,1,.226,0,.379.379,0,0,1,.138.261,1.224,1.224,0,0,0,.241.585.669.669,0,0,0,.374.226.924.924,0,0,0,.492-.054,3.441,3.441,0,0,0,.551-.261,2.951,2.951,0,0,0,1.151-1.264,4.076,4.076,0,0,0,.438-1.888,1.406,1.406,0,0,0-.438-1.195,1.023,1.023,0,0,0-1.151.069,2.828,2.828,0,0,0-.954.836c-.089.133-.172.246-.251.349a.831.831,0,0,1-.285.251l-1.151.669a.187.187,0,0,1-.241,0,.418.418,0,0,1-.1-.3Z" transform="translate(-141.745 -213.837)" fill="#fafafa"/>
        <g id="freepik--speach-bubble--inject-9-3" data-name="freepik--speach-bubble--inject-9" transform="translate(0 54.946)">
          <path id="Path_24080" data-name="Path 24080" d="M116.5,283.282a1.834,1.834,0,0,0-.826-1.436l-.674-.388a1.854,1.854,0,0,0-1.657,0l-10.325,5.974a1.834,1.834,0,0,0-.826,1.436v19.245a1.829,1.829,0,0,0,.826,1.431l.674.388a1.824,1.824,0,0,0,1.657,0l10.325-5.974a1.829,1.829,0,0,0,.826-1.431Z" transform="translate(-102.185 -281.262)" fill="#f34d4d"/>
          <path id="Path_24081" data-name="Path 24081" d="M102.18,315.131a1.829,1.829,0,0,0,.826,1.431l.674.388a1.844,1.844,0,0,0,1.514.069c-.388.147-.683-.074-.683-.546V297.229a1.676,1.676,0,0,1,.241-.816l-2.331-1.342a1.716,1.716,0,0,0-.241.816Z" transform="translate(-102.18 -288.281)" opacity="0.2"/>
          <path id="Path_24082" data-name="Path 24082" d="M116.723,283.046c-.093-.349-.413-.462-.8-.241L105.6,288.779a1.617,1.617,0,0,0-.585.62l-2.326-1.347a1.672,1.672,0,0,1,.58-.615l10.325-5.979a1.854,1.854,0,0,1,1.657,0l.674.393A1.8,1.8,0,0,1,116.723,283.046Z" transform="translate(-102.439 -281.263)" fill="#fff" opacity="0.3"/>
        </g>
        <path id="Path_24083" data-name="Path 24083" d="M117.975,295.853a.177.177,0,0,1,.236,0,.423.423,0,0,1,.1.31v1.273a2.283,2.283,0,0,1-.049.423c-.034.152-.084.359-.152.619l-2.906,11.987a2.294,2.294,0,0,1-.128.393.565.565,0,0,1-.231.275l-1.042.6a.177.177,0,0,1-.236,0,.408.408,0,0,1-.1-.31,1.51,1.51,0,0,1,.039-.251l2.916-12.017-3.933,2.272a.172.172,0,0,1-.236,0,.393.393,0,0,1-.1-.3v-1.372a.983.983,0,0,1,.1-.423.6.6,0,0,1,.236-.29Z" transform="translate(-107.246 -233.71)" fill="#fafafa"/>
        <g id="freepik--speach-bubble--inject-9-4" data-name="freepik--speach-bubble--inject-9" transform="translate(61.608 19.392)">
          <path id="Path_24084" data-name="Path 24084" d="M241.793,210.972a1.829,1.829,0,0,0-.826-1.436l-.674-.388a1.844,1.844,0,0,0-1.652,0l-10.325,5.974a1.829,1.829,0,0,0-.826,1.436V235.8a1.829,1.829,0,0,0,.826,1.431l.674.388a1.814,1.814,0,0,0,1.652,0l10.325-5.974a1.834,1.834,0,0,0,.831-1.431Z" transform="translate(-227.485 -208.953)" fill="#f34d4d"/>
          <path id="Path_24085" data-name="Path 24085" d="M227.48,242.821a1.829,1.829,0,0,0,.826,1.431l.674.388a1.844,1.844,0,0,0,1.514.069c-.393.147-.688-.074-.688-.546V224.919a1.731,1.731,0,0,1,.241-.816l-2.311-1.342a1.662,1.662,0,0,0-.241.816Z" transform="translate(-227.48 -215.971)" opacity="0.2"/>
          <path id="Path_24086" data-name="Path 24086" d="M242.028,210.736c-.1-.349-.418-.462-.8-.241l-10.325,5.974a1.667,1.667,0,0,0-.58.615L228,215.741a1.681,1.681,0,0,1,.585-.615l10.325-5.979a1.854,1.854,0,0,1,1.657,0l.679.393A1.8,1.8,0,0,1,242.028,210.736Z" transform="translate(-227.744 -208.952)" fill="#fff" opacity="0.3"/>
        </g>
        <path id="Path_24087" data-name="Path 24087" d="M241.1,231.736a4.215,4.215,0,0,0,.492-1.224,5.194,5.194,0,0,0,.108-.949,1.775,1.775,0,0,0-.315-1.155c-.206-.246-.556-.231-1.037.049a2.375,2.375,0,0,0-1.008,1.1,5.9,5.9,0,0,0-.457,1.593,1.19,1.19,0,0,1-.152.467.7.7,0,0,1-.226.256l-.983.57a.207.207,0,0,1-.241,0c-.074-.054-.1-.162-.093-.325a8.141,8.141,0,0,1,.285-1.8,8.953,8.953,0,0,1,.669-1.731,7.706,7.706,0,0,1,.983-1.475,4.725,4.725,0,0,1,1.214-1.037,2.326,2.326,0,0,1,1.367-.393,1.475,1.475,0,0,1,.949.492,2.532,2.532,0,0,1,.556,1.067,5.172,5.172,0,0,1,.182,1.406,8.43,8.43,0,0,1-.034.939,5.409,5.409,0,0,1-.177.983,9.984,9.984,0,0,1-.4,1.136,15.6,15.6,0,0,1-.7,1.416l-2.331,4.519,3.481-2.006a.177.177,0,0,1,.236,0,.408.408,0,0,1,.1.31v1.367a.939.939,0,0,1-.1.423.679.679,0,0,1-.236.3l-5.846,3.373a.187.187,0,0,1-.241,0,.423.423,0,0,1-.1-.31v-1.175a1.731,1.731,0,0,1,.128-.644,3,3,0,0,1,.211-.457Z" transform="translate(-170.735 -198.062)" fill="#fafafa"/>
        <g id="freepik--speach-bubble--inject-9-5" data-name="freepik--speach-bubble--inject-9" transform="translate(78.399 9.676)">
          <path id="Path_24088" data-name="Path 24088" d="M275.943,191.252a1.829,1.829,0,0,0-.826-1.436l-.674-.388a1.854,1.854,0,0,0-1.657,0L262.461,195.4a1.834,1.834,0,0,0-.831,1.436v19.245a1.834,1.834,0,0,0,.831,1.431l.674.388a1.814,1.814,0,0,0,1.652,0l10.325-5.974a1.829,1.829,0,0,0,.826-1.431Z" transform="translate(-261.63 -189.213)" fill="#f34d4d"/>
          <path id="Path_24089" data-name="Path 24089" d="M261.63,223.08a1.834,1.834,0,0,0,.831,1.431l.674.388a1.834,1.834,0,0,0,1.509.069c-.388.147-.683-.074-.683-.546V205.178a1.715,1.715,0,0,1,.241-.816L261.876,203a1.672,1.672,0,0,0-.246.816Z" transform="translate(-261.63 -196.211)" opacity="0.2"/>
          <path id="Path_24090" data-name="Path 24090" d="M276.173,191c-.1-.349-.418-.462-.8-.246l-10.325,5.979a1.682,1.682,0,0,0-.585.615l-2.331-1.362a1.642,1.642,0,0,1,.585-.615l10.325-5.979a1.854,1.854,0,0,1,1.657,0l.674.393A1.829,1.829,0,0,1,276.173,191Z" transform="translate(-261.884 -189.192)" fill="#fff" opacity="0.3"/>
        </g>
        <path id="Path_24091" data-name="Path 24091" d="M277.711,209.441v3.432a15.839,15.839,0,0,1-.221,2.2,8.784,8.784,0,0,1-.575,1.967,6.751,6.751,0,0,1-1.023,1.686,5.669,5.669,0,0,1-1.549,1.288,2.915,2.915,0,0,1-1.549.492,1.372,1.372,0,0,1-1.023-.492,3.132,3.132,0,0,1-.575-1.328,10.963,10.963,0,0,1-.221-1.967c0-.492-.025-1.028-.025-1.652s0-1.18.025-1.682a16.355,16.355,0,0,1,.221-2.217,9.3,9.3,0,0,1,.575-2.016,7.08,7.08,0,0,1,1.023-1.716,5.532,5.532,0,0,1,1.549-1.313,3,3,0,0,1,1.549-.492,1.347,1.347,0,0,1,1.023.492,3,3,0,0,1,.575,1.323A11.015,11.015,0,0,1,277.711,209.441Zm-5.045,6.244a3.934,3.934,0,0,0,.433,1.9c.246.364.659.379,1.244.039a2.813,2.813,0,0,0,1.249-1.475,7.7,7.7,0,0,0,.428-2.394c0-.492.025-1.042.025-1.637s0-1.126-.025-1.6a3.88,3.88,0,0,0-.428-1.9c-.251-.364-.664-.379-1.249-.044a2.8,2.8,0,0,0-1.244,1.475,7.866,7.866,0,0,0-.433,2.4c0,.492-.025,1.042-.025,1.632S272.651,215.208,272.666,215.685Z" transform="translate(-187.968 -187.872)" fill="#fafafa"/>
        <g id="freepik--speach-bubble--inject-9-6" data-name="freepik--speach-bubble--inject-9" transform="translate(95.195)">
          <path id="Path_24092" data-name="Path 24092" d="M310.108,171.532a1.844,1.844,0,0,0-.826-1.436l-.674-.388a1.854,1.854,0,0,0-1.657,0l-10.325,5.974a1.829,1.829,0,0,0-.826,1.436v19.245a1.829,1.829,0,0,0,.826,1.431l.674.388a1.824,1.824,0,0,0,1.657,0l10.325-5.974a1.829,1.829,0,0,0,.826-1.431Z" transform="translate(-295.795 -169.512)" fill="#f34d4d"/>
          <path id="Path_24093" data-name="Path 24093" d="M295.79,203.381a1.829,1.829,0,0,0,.826,1.431l.674.388a1.844,1.844,0,0,0,1.514.069c-.388.148-.688-.074-.688-.546V185.479a1.672,1.672,0,0,1,.246-.816l-2.331-1.342a1.716,1.716,0,0,0-.241.816Z" transform="translate(-295.79 -176.531)" opacity="0.2"/>
          <path id="Path_24094" data-name="Path 24094" d="M310.333,171.3c-.093-.349-.413-.462-.8-.246l-10.325,5.979a1.642,1.642,0,0,0-.585.615L296.3,176.3a1.633,1.633,0,0,1,.58-.615l10.325-5.979a1.844,1.844,0,0,1,1.652,0l.678.393A1.8,1.8,0,0,1,310.333,171.3Z" transform="translate(-296.049 -169.513)" fill="#fff" opacity="0.3"/>
        </g>
        <path id="Path_24095" data-name="Path 24095" d="M205.946,253.063l4.917-2.847a1.155,1.155,0,0,1,1.062,0l.934.541a1.165,1.165,0,0,1,.531.919v1.077a1.18,1.18,0,0,1-.531.924l-4.917,2.842a1.165,1.165,0,0,1-1.067,0l-.929-.536a1.185,1.185,0,0,1-.536-.924v-1.082A1.17,1.17,0,0,1,205.946,253.063Z" transform="translate(-154.653 -210.47)" fill="#455a64"/>
        <path id="Path_24096" data-name="Path 24096" d="M207.785,260.062a1.136,1.136,0,0,1-.9-.064l-.934-.536a1.18,1.18,0,0,1-.531-.924v-1.082a1.116,1.116,0,0,1,.152-.526l2,1.155a1.111,1.111,0,0,0-.152.521v1.082C207.416,259.969,207.569,260.106,207.785,260.062Z" transform="translate(-154.658 -213.948)" fill="#263238"/>
        <path id="Path_24097" data-name="Path 24097" d="M209.48,257.465v-1.077a1.18,1.18,0,0,1,.531-.924l4.917-2.847c.295-.167.531-.03.531.31V254a1.18,1.18,0,0,1-.531.924l-4.917,2.842C209.736,257.941,209.48,257.8,209.48,257.465Z" transform="translate(-156.722 -211.719)" fill="#37474f"/>
      </g>
    </g>
    <g id="freepik--Character--inject-9" transform="translate(170.51 94.278)">
      <g id="freepik--character--inject-9-2" data-name="freepik--character--inject-9">
        <path id="freepik--shadow--inject-9-4" data-name="freepik--shadow--inject-9" d="M382.368,286.053a6.3,6.3,0,0,0-2.616-3.353l-15.036-8.683a15.287,15.287,0,0,0-2.8-.182,23.251,23.251,0,0,0-9.431,2.857c-6.731,3.348-13.61,5.728-19.81,10.04-.787.551-2.95,1.863-1.711,3.211a3.993,3.993,0,0,0,2.67,1.013c1.967-.152,5.851-3.284,5.236-2.36a3.363,3.363,0,0,0-.526,1.78,1.293,1.293,0,0,0,.742,1.175c.541.182.777-.924,1.013-1.549a5.8,5.8,0,0,1,2.247-2.8,7.739,7.739,0,0,1,5.379-.939,23.163,23.163,0,0,1,5.3,1.711,67.669,67.669,0,0,1,7.4,3.28c1.239.674,4.715,2.842,4.917,3.078.3.359.236,2.9.27,3.358l.177,2.591,13.974-8.069a6.205,6.205,0,0,0,2.385-2.763,2.781,2.781,0,0,1,.054-.344,15.485,15.485,0,0,0,.167-3.053Z" transform="translate(-330.588 -221.461)" opacity="0.15"/>
        <path id="Path_24098" data-name="Path 24098" d="M413.451,332.12c-.393.329-.846.718-.851,1.185a4.73,4.73,0,0,0,.983,2.778,9.141,9.141,0,0,1,1.308,4.632c.029,1.387-.226,4.882,1.357,6.441s5.7,2.709,5.984.172-3.663-12.862-3.663-12.862Z" transform="translate(-372.276 -251.092)" fill="#263238"/>
        <path id="Path_24099" data-name="Path 24099" d="M418.7,336a37.963,37.963,0,0,1,1.1,5.645c.207,2.085.649,3.589,1.627,4.253s2.542.733,2.114-.718-1.883-8.722-1.883-8.722Z" transform="translate(-375.376 -253.064)" fill="#9a4a4d"/>
        <path id="Path_24100" data-name="Path 24100" d="M394.174,262.38s7.842,4.691,11.623,7.287,7.375,5.128,7.975,6.952c.639,1.932-.054,6.284-.959,10.443s-2.65,11.623-2.65,11.623l-9.834-18.92-10.96-9.106Z" transform="translate(-360.468 -215.642)" fill="#b16668"/>
        <path id="Path_24101" data-name="Path 24101" d="M398.864,278.365l-9.8-6.692,4.961-9.293s7.267,4.179,12.631,7.769c4.346,2.906,7.454,5.168,7.479,7.065s-.7,8.418-1.785,11.122c0,0-4.287,1.406-8.044-.261Z" transform="translate(-360.31 -215.642)" fill="#f34d4d"/>
        <path id="Path_24102" data-name="Path 24102" d="M398.864,278.365l-9.8-6.692,4.961-9.293s7.267,4.179,12.631,7.769c4.346,2.906,7.454,5.168,7.479,7.065s-.7,8.418-1.785,11.122c0,0-4.287,1.406-8.044-.261Z" transform="translate(-360.31 -215.642)" fill="#fff" opacity="0.6"/>
        <path id="Path_24103" data-name="Path 24103" d="M411.388,287.535c-.865-2.827-3.412-4.558-5.625-6.284-1.755-1.377-5.984-4.465-7.71-5.738a4.578,4.578,0,0,0,.3-2.744,8.637,8.637,0,0,1-1.554,2.989l11.009,10.271,6.657,15.759S412.254,290.358,411.388,287.535Z" transform="translate(-364.244 -220.923)" opacity="0.15"/>
        <path id="Path_24104" data-name="Path 24104" d="M430.076,363.28c-.364.187-.408,1.037-.443,1.657s-.57,1.377.221,2.429,2.291,1.3,3.368,2.729,2.69,4.037,6.028,4.578,5.807-.674,6.392-1.686-.029-1.922-2.2-3.024c-2.306-1.175-2.95-1.524-2.95-1.524Z" transform="translate(-380.828 -266.931)" fill="#263238"/>
        <path id="Path_24105" data-name="Path 24105" d="M432.379,349.11s1.814,4.342,2.881,6.323a23.361,23.361,0,0,0,4.484,5.536c.388.374,1.259,1.052,1.578,1.352a.634.634,0,0,1,.025.983c-.649.752-3.673,1.2-5.5.089s-3.722-3.383-4.838-4.312l-1.475-1.244a1.382,1.382,0,0,1-.467-1.278c0-.133.049-.3.074-.492.143-.983-1.534-4.917-1.534-4.917Z" transform="translate(-379.906 -259.728)" fill="#b16668"/>
        <path id="Path_24106" data-name="Path 24106" d="M360.754,264.641c-.452,2.694-1.308,5.443.3,8.747,1.559,3.2,6.018,5.807,10.9,8.069,4.042,1.873,9.991,4.563,11.186,4.961s1.377,1.082,1.421,3.28,1.141,5.7,3.992,9.947a105.537,105.537,0,0,1,5.664,9.755s3.442.379,4.986-1.76c0,0-7.061-23.537-8.3-26.3s-12.853-10.974-12.853-10.974a15.307,15.307,0,0,0,1.254-8Z" transform="translate(-345.599 -215.631)" fill="#b16668"/>
        <path id="Path_24107" data-name="Path 24107" d="M379.293,285.376a126.372,126.372,0,0,1-14.131-7.021c-7.272-4.514-5.9-8.85-5.163-13.516l18.935-2.458c1.116,5.074-1.052,8.049-1.052,8.049l6.761,5.1c3.52,2.709,5.9,4.229,6.613,6.466s3,10.67,3,10.67a13.61,13.61,0,0,1-8.359,2.994,15.42,15.42,0,0,1-1.913-4.612c-.266-1.942.162-3.476-.634-3.9S381.505,286.34,379.293,285.376Z" transform="translate(-345.228 -215.642)" fill="#f34d4d"/>
        <path id="Path_24108" data-name="Path 24108" d="M379.293,285.376a126.372,126.372,0,0,1-14.131-7.021c-7.272-4.514-5.9-8.85-5.163-13.516l18.935-2.458c1.116,5.074-1.052,8.049-1.052,8.049l6.761,5.1c3.52,2.709,5.9,4.229,6.613,6.466s3,10.67,3,10.67a13.61,13.61,0,0,1-8.359,2.994,15.42,15.42,0,0,1-1.913-4.612c-.266-1.942.162-3.476-.634-3.9S381.505,286.34,379.293,285.376Z" transform="translate(-345.228 -215.642)" fill="#fff" opacity="0.6"/>
        <path id="Path_24109" data-name="Path 24109" d="M385.49,212.4a21.185,21.185,0,0,1,4.174,0,7.557,7.557,0,0,1,2.857,1.16c2.316,1.539,7.724,5.964,11.087,8.5,0,0,2.832-1.421,4.75-2.591,1.716-1.047,2.621,5.9-.492,7.837-3.4,2.119-3.85,2.114-6.308.86-2.586-1.318-7.749-4.612-9.878-5.949Z" transform="translate(-358.495 -190.185)" fill="#b16668"/>
        <path id="Path_24110" data-name="Path 24110" d="M420.456,231.815a5.937,5.937,0,0,0-1.814,2.744s-.2-2.173,1.387-3.068Z" transform="translate(-375.342 -199.94)" fill="#9a4a4d"/>
        <path id="Path_24111" data-name="Path 24111" d="M435.233,216.131h0l-.492-.344h0a.526.526,0,0,0-.492,0l-4.878,1.967a1.859,1.859,0,0,0-1.008,1.19L425.97,229.82a.492.492,0,0,0,.128.526h0l.526.359h0a.531.531,0,0,0,.492,0l4.877-1.967a1.873,1.873,0,0,0,1.008-1.19c.492-2.139,1.937-8.742,2.414-10.881A.492.492,0,0,0,435.233,216.131Z" transform="translate(-379.057 -191.927)" fill="#455a64"/>
        <path id="Path_24112" data-name="Path 24112" d="M429.347,220.96a1.81,1.81,0,0,0-.492.836l-2.414,10.876a.492.492,0,0,0,.108.521l-.492-.334h0a.492.492,0,0,1-.128-.526l2.409-10.881a1.829,1.829,0,0,1,.452-.792Z" transform="translate(-379.037 -194.435)" fill="#263238"/>
        <path id="Path_24113" data-name="Path 24113" d="M426.978,230.54l2.409-10.866a1.878,1.878,0,0,1,1.013-1.19l4.878-1.967c.452-.182.733.059.629.536-.492,2.139-1.937,8.742-2.414,10.881a1.873,1.873,0,0,1-1.008,1.19l-4.878,1.967C427.155,231.253,426.875,231.012,426.978,230.54Z" transform="translate(-379.573 -192.298)" fill="#37474f"/>
        <path id="Path_24114" data-name="Path 24114" d="M440.43,222.57c.983-.349,1.647.669,1.691,2.532s-.826,5.374-3.747,4.7c-1.136-.261-2.055-2.065-.944-2.95a19.178,19.178,0,0,0,2.576-2.36Z" transform="translate(-384.642 -195.371)" fill="#b16668"/>
        <path id="Path_24115" data-name="Path 24115" d="M379.048,237.67l-2.281-2.4-.959-2.552-.492-4.725a6.178,6.178,0,0,0,2.557-7.41,16.483,16.483,0,0,0-2.95-4.627c-2.065-2.385-3.1-3.181-3.884-3.565-1.082-.088-1.888-.074-1.888-.074s-4.5.359-6.367.624a31.557,31.557,0,0,0-3.255.629,10.268,10.268,0,0,1,1.116,8.595,5.025,5.025,0,0,1-3.575,3.491s.29,4.533.457,6.8c.27,3.6.172,6.554.59,11.648,4.229,1.559,11.014.443,15.768-2.07C378.567,239.593,379.048,237.67,379.048,237.67Z" transform="translate(-344.049 -190.194)" fill="#37474f"/>
        <path id="Path_24116" data-name="Path 24116" d="M376.784,244.05a7.828,7.828,0,0,1-8.914-.31,5.354,5.354,0,0,0,4.376,2.739C376.027,246.616,376.784,244.05,376.784,244.05Z" transform="translate(-349.539 -206.167)" fill="#263238"/>
        <path id="Path_24117" data-name="Path 24117" d="M370.859,168.339a2.4,2.4,0,0,1-.762-.1,13.865,13.865,0,0,0-3-.634,10.817,10.817,0,0,0-5.074.654,9.494,9.494,0,0,0-5.635,6.294,9.883,9.883,0,0,0,2.124,8.708A17.154,17.154,0,0,0,362,186.246l.674-.738a7.562,7.562,0,0,0,3.7.8,9.411,9.411,0,0,0,3.643-.384,4.941,4.941,0,0,0,2.788-3.107,6.151,6.151,0,0,1,.433-1.357,4.786,4.786,0,0,1,1.1-1.126,8.241,8.241,0,0,0,2.714-5.03,3.068,3.068,0,0,0-.147-1.726,1.431,1.431,0,0,0-1.382-.89,6.2,6.2,0,0,0,.767-2.021,2.129,2.129,0,0,0-.679-1.967,2.975,2.975,0,0,0-1.785-.447h-2.045A7.511,7.511,0,0,1,370.859,168.339Z" transform="translate(-343.55 -167.431)" fill="#263238"/>
        <path id="Path_24118" data-name="Path 24118" d="M374.461,176.51c1.155.624,2.827,2.606,2.758,8.57-.059,4.941-1.637,6.52-2.458,6.908a6.978,6.978,0,0,1-3.584.133l-.108,2.119c3.771,2.734,4.715,6.062,1.229,5.733-4.425-.418-7.867-4.278-7.867-4.671l-.118-6.628a2.124,2.124,0,0,1-2.488-.492c-1.131-1.3-1.475-3.235-.536-4.278a2.17,2.17,0,0,1,3.329.388,12.018,12.018,0,0,0,5.246-1.967C373.065,180.409,373.792,178.86,374.461,176.51Z" transform="translate(-345.918 -171.993)" fill="#b16668"/>
        <path id="Path_24119" data-name="Path 24119" d="M368.624,190.089l-.034,2.385h0a1.7,1.7,0,0,0,1.721-1.672l.039-2.852Z" transform="translate(-349.905 -177.808)" fill="#263238"/>
        <path id="Path_24120" data-name="Path 24120" d="M391.475,186.1,390,185.536a.752.752,0,0,1,.983-.467.821.821,0,0,1,.492,1.028Z" transform="translate(-360.788 -176.318)" fill="#263238"/>
        <path id="Path_24121" data-name="Path 24121" d="M381.335,200.3l2.217.443a1.087,1.087,0,0,1-1.288.9A1.19,1.19,0,0,1,381.335,200.3Z" transform="translate(-356.376 -184.086)" fill="#9a4a4d"/>
        <path id="Path_24122" data-name="Path 24122" d="M385.25,189.42l.3,4.14,2.016-.624Z" transform="translate(-358.373 -178.555)" fill="#9a4a4d"/>
        <path id="Path_24123" data-name="Path 24123" d="M376.226,205.912c-1.632-.147-5.015-.983-5.586-2.272a3.442,3.442,0,0,0,1.239,1.637,19.72,19.72,0,0,0,4.288,1.8Z" transform="translate(-350.947 -185.783)" fill="#9a4a4d"/>
        <path id="Path_24124" data-name="Path 24124" d="M380.407,191.684a.679.679,0,1,1-.674-.674A.679.679,0,0,1,380.407,191.684Z" transform="translate(-355.222 -179.363)" fill="#263238"/>
        <circle id="Ellipse_2783" data-name="Ellipse 2783" cx="0.674" cy="0.674" r="0.674" transform="translate(28.971 11.116)" fill="#263238"/>
        <path id="Path_24125" data-name="Path 24125" d="M358.892,171.67c-2.335,1.623-3.933,3.712-4.4,9.19-.354,4.184.595,6.884,1.613,7.985s5.354,3.806,7.326,2.168a2.881,2.881,0,0,1-1.711-1.534,9.121,9.121,0,0,1-.595-2.837s-2.006.029-2.812-.851-1.637-4.632-1.475-6.48A55.781,55.781,0,0,1,358.892,171.67Z" transform="translate(-342.7 -169.532)" fill="#263238"/>
        <path id="Path_24126" data-name="Path 24126" d="M367.283,179.6s-.443-3.737,1.21-6.392,4.779-4.917,7.375-4.986a7.269,7.269,0,0,0-5-.8s-6.092,2.213-4.72,11.309A2.876,2.876,0,0,1,367.283,179.6Z" transform="translate(-348.563 -167.323)" fill="#f34d4d"/>
        <path id="Path_24127" data-name="Path 24127" d="M346.246,214.91c-2.7.693-4.863,1.391-5.763,4.037-.492,1.377-1.269,15.886-1.362,18.192s-.118,14.637-.285,15.041c-.344.836-3.8,2.321-5,3.063a9.706,9.706,0,0,0-2.812,2.63c-.536.826,1.328,2.154,3.024,2.04.983-.069,4.6-2.5,5.9-2.621.836-.074-.551,1.446-.6,2.64-.039.865.747,1.131.949.644a31.834,31.834,0,0,1,2.458-3.3,7.72,7.72,0,0,0,1.932-4.371c0-2.2.29-7.331.983-14.647.575-6.136,1.052-10.748,1.052-10.748a18.193,18.193,0,0,0,1.451-6.652,8.688,8.688,0,0,0-1.927-5.944Z" transform="translate(-330.761 -191.512)" fill="#b16668"/>
      </g>
    </g>
    <g id="freepik--speech-bubbles--inject-9" transform="translate(210.515 58.025)">
      <g id="freepik--speech-bubble--inject-9" transform="translate(0 0)">
        <g id="freepik--speech-bubble--inject-9-2" data-name="freepik--speech-bubble--inject-9">
          <path id="Path_24128" data-name="Path 24128" d="M432.36,158.106a.256.256,0,0,1-.108-.108l-1.362-4.956v-1.3l4-1.564v1.293l-.492,1.4,2.38-1.372.143.8-1.416,7.233a.3.3,0,0,1-.433.162Z" transform="translate(-421.578 -122.356)" fill="#f34d4d"/>
          <path id="Path_24129" data-name="Path 24129" d="M432.36,158.106a.256.256,0,0,1-.108-.108l-1.362-4.956v-1.3l4-1.564v1.293l-.492,1.4,2.38-1.372.143.8-1.416,7.233a.3.3,0,0,1-.433.162Z" transform="translate(-421.578 -122.356)" opacity="0.3"/>
          <path id="Path_24130" data-name="Path 24130" d="M439.428,152.87l.143.8-1.416,7.233a.3.3,0,0,1-.536.049l-1.539-5.266.177-.983Z" transform="translate(-424.216 -123.723)" fill="#f34d4d"/>
          <path id="Path_24131" data-name="Path 24131" d="M435.949,96.142a2.867,2.867,0,0,0-1.293-2.242h0a2.867,2.867,0,0,0-2.591,0l-18.822,10.753a2.866,2.866,0,0,0-1.293,2.242v21.083a2.867,2.867,0,0,0,1.293,2.247h0a2.867,2.867,0,0,0,2.591,0l18.94-10.817a2.012,2.012,0,0,0,1.175-2.158Z" transform="translate(-411.95 -93.591)" fill="#f34d4d"/>
          <path id="Path_24132" data-name="Path 24132" d="M412,140.437a2.866,2.866,0,0,0,1.293,2.247h0a2.9,2.9,0,0,0,2.37.108c-.61.231-1.072-.118-1.072-.86V120.849a2.61,2.61,0,0,1,.379-1.273l-2.591-1.475a2.612,2.612,0,0,0-.379,1.273Z" transform="translate(-411.975 -106.049)" opacity="0.2"/>
          <path id="Path_24133" data-name="Path 24133" d="M436.306,95.767c-.152-.551-.654-.723-1.254-.379l-18.822,10.753a2.562,2.562,0,0,0-.915.983l-2.586-1.475a2.665,2.665,0,0,1,.91-.983l18.817-10.753a2.906,2.906,0,0,1,2.6,0h0A2.862,2.862,0,0,1,436.306,95.767Z" transform="translate(-412.347 -93.599)" fill="#fff" opacity="0.5"/>
        </g>
        <path id="freepik--Key--inject-9" d="M426.058,121.119a2.217,2.217,0,0,1,.836-1.775c.467-.266.841.093.841.806a2.2,2.2,0,0,1-.841,1.775C426.431,122.191,426.058,121.832,426.058,121.119Zm-1.259.767a3.223,3.223,0,0,0,1.087,2.812h.039l.074.044.084.034.084.034.1.029h.079a1.475,1.475,0,0,0,.551,0,1.146,1.146,0,0,0,.177-.039,1.477,1.477,0,0,0,.192-.064,2.541,2.541,0,0,0,.354-.167A6.063,6.063,0,0,0,429.9,121.5a.424.424,0,0,1,.034-.1,8.153,8.153,0,0,0,.3-.983l1.564-.9.31-1.293.934-.541.757.674.6-.349.551-.939.959-.575.364.438,1.082-.629,1.1-2.321V112.76l-8.1,4.676a3.6,3.6,0,0,0-.285-.885l-.074-.138c-.054-.093-.108-.177-.167-.261a.465.465,0,0,0-.093-.108l-.079-.089h-.03a1.013,1.013,0,0,0-.2-.162c-.034-.03-.074-.049-.108-.074h-.049a1.662,1.662,0,0,0-1.652.133c-1.332.772-2.458,2.832-2.758,4.917a7.676,7.676,0,0,0-.064,1.116Z" transform="translate(-418.481 -103.335)" fill="#fafafa"/>
        <g id="freepik--numbers--inject-9-2" data-name="freepik--numbers--inject-9" transform="translate(4.163 17.029)">
          <path id="Path_24134" data-name="Path 24134" d="M420.576,152.843a1.426,1.426,0,0,1,.03-.2l1.165-5.315-1.185.683a.1.1,0,0,1-.128-.025.831.831,0,0,1-.039-.3v-.143a1.289,1.289,0,0,1,.039-.349.3.3,0,0,1,.128-.172l1.908-1.1c.029,0,.064.054.1.216a1.757,1.757,0,0,1,.064.452.492.492,0,0,1,0,.118l-1.249,5.645a.408.408,0,0,1-.1.192.985.985,0,0,1-.216.162l-.2.118C420.7,152.961,420.576,152.966,420.576,152.843Z" transform="translate(-420.417 -137.22)" fill="#455a64"/>
          <path id="Path_24135" data-name="Path 24135" d="M426.3,149.563a1.13,1.13,0,0,1,.034-.2l1.16-5.31-1.185.683c-.054.034-.1.025-.123-.03a.709.709,0,0,1-.039-.3v-.148a1.081,1.081,0,0,1,.039-.344.3.3,0,0,1,.123-.177l1.913-1.1q.044,0,.1.221a1.935,1.935,0,0,1,.059.447.442.442,0,0,1,0,.118l-1.239,5.649a.408.408,0,0,1-.1.192.944.944,0,0,1-.211.157l-.207.118C426.408,149.666,426.3,149.671,426.3,149.563Z" transform="translate(-423.329 -135.552)" fill="#455a64"/>
          <path id="Path_24136" data-name="Path 24136" d="M432.05,146.294a.25.25,0,0,1-.28-.275,1.257,1.257,0,0,1,.049-.27,2.626,2.626,0,0,1,.123-.364.393.393,0,0,1,.128-.206.422.422,0,0,1,.118,0,.733.733,0,0,0,.236,0,.8.8,0,0,0,.3-.108.841.841,0,0,0,.339-.433,1.869,1.869,0,0,0,.123-.713,1.072,1.072,0,0,0-.128-.634c-.084-.108-.226-.108-.423,0l-.521.3q-.118.069-.162,0a.413.413,0,0,1-.044-.241l.108-2.586a.7.7,0,0,1,.064-.3.388.388,0,0,1,.167-.177l1.475-.851a.1.1,0,0,1,.128.025.831.831,0,0,1,.039.3v.226a.861.861,0,0,1-.039.285.28.28,0,0,1-.128.152l-.983.556-.054,1.249.084-.044c.4-.231.7-.261.915-.093s.315.6.315,1.288a3.688,3.688,0,0,1-.148,1.239,2.9,2.9,0,0,1-.492.885,2.223,2.223,0,0,1-.615.541A1.328,1.328,0,0,1,432.05,146.294Z" transform="translate(-426.188 -133.916)" fill="#455a64"/>
          <path id="Path_24137" data-name="Path 24137" d="M437.458,145.26a.816.816,0,0,1-.039-.3v-.074a1.247,1.247,0,0,1,.039-.344.26.26,0,0,1,.123-.172l.944-.546c.054-.034.1-.025.123.029a.831.831,0,0,1,.039.3v.059a1.247,1.247,0,0,1-.039.344.275.275,0,0,1-.123.172l-.944.546C437.522,145.324,437.482,145.314,437.458,145.26Z" transform="translate(-429.058 -136.142)" fill="#455a64"/>
          <path id="Path_24138" data-name="Path 24138" d="M440.942,141.31a2.5,2.5,0,0,1-.049-.452.34.34,0,0,1,0-.138l1.2-3.393a4.972,4.972,0,0,0,.167-.561,1.886,1.886,0,0,0,.049-.418c0-.2-.039-.325-.118-.379s-.187-.039-.32.034a.983.983,0,0,0-.256.221,3.18,3.18,0,0,0-.241.329.791.791,0,0,1-.143.187c-.084.049-.157,0-.221-.079a.585.585,0,0,1-.1-.325,1.229,1.229,0,0,1,.339-.767,2.773,2.773,0,0,1,.747-.644q.546-.32.841-.059a1.254,1.254,0,0,1,.3.959,4.361,4.361,0,0,1-.3,1.475l-.959,2.724,1.111-.644a.093.093,0,0,1,.128.03.708.708,0,0,1,.039.3v.148a1.082,1.082,0,0,1-.039.344.27.27,0,0,1-.128.177l-1.967,1.141C441,141.541,440.942,141.472,440.942,141.31Z" transform="translate(-430.822 -131.543)" fill="#455a64"/>
          <path id="Path_24139" data-name="Path 24139" d="M446.981,137.425a5.626,5.626,0,0,1-.28-2.1,8.737,8.737,0,0,1,.28-2.419,2.05,2.05,0,0,1,.851-1.278c.379-.221.664-.118.851.3a5.585,5.585,0,0,1,.28,2.095,8.76,8.76,0,0,1-.28,2.419,2.07,2.07,0,0,1-.851,1.283C447.448,137.941,447.168,137.842,446.981,137.425Zm1.013-.959a2.9,2.9,0,0,0,.093-.659c0-.3.03-.738.03-1.3s0-.983-.03-1.269a1.717,1.717,0,0,0-.093-.551c-.039-.084-.093-.108-.162-.064a.418.418,0,0,0-.167.256,3.611,3.611,0,0,0-.093.659c0,.3-.03.742-.03,1.3s0,.983.029,1.269a2.058,2.058,0,0,0,.093.551c.039.084.1.108.167.069a.443.443,0,0,0,.162-.261Z" transform="translate(-433.773 -129.894)" fill="#455a64"/>
          <path id="Path_24140" data-name="Path 24140" d="M452.959,134.674a.9.9,0,0,1-.447.03c-.123-.03-.182-.128-.182-.3a1.306,1.306,0,0,1,.044-.266,3.152,3.152,0,0,1,.1-.344.364.364,0,0,1,.123-.192.187.187,0,0,1,.118,0,.984.984,0,0,0,.256.049.6.6,0,0,0,.28-.093.935.935,0,0,0,.374-.433,1.594,1.594,0,0,0,.138-.688.821.821,0,0,0-.143-.57c-.1-.089-.251-.069-.467.054l-.192.108c-.059.034-.1.025-.128-.025a.831.831,0,0,1-.039-.3v-.148a1.249,1.249,0,0,1,.039-.344.29.29,0,0,1,.128-.177l.143-.084a.983.983,0,0,0,.388-.418,1.225,1.225,0,0,0,.143-.595.718.718,0,0,0-.1-.447c-.069-.079-.172-.084-.3,0a.777.777,0,0,0-.236.192,1.913,1.913,0,0,0-.167.226.493.493,0,0,1-.108.138c-.054.034-.113,0-.177-.128a.757.757,0,0,1-.1-.359.984.984,0,0,1,.29-.624,2.7,2.7,0,0,1,.693-.565c.32-.182.57-.192.762-.034a1.2,1.2,0,0,1,.28.924,2.555,2.555,0,0,1-.138.841,2.108,2.108,0,0,1-.379.7v.034a.531.531,0,0,1,.492.31,1.835,1.835,0,0,1,.162.846,3.481,3.481,0,0,1-.32,1.5,2.134,2.134,0,0,1-.836.983A2.5,2.5,0,0,1,452.959,134.674Z" transform="translate(-436.639 -128.225)" fill="#455a64"/>
        </g>
      </g>
    </g>
  </g>
</svg>
