<svg xmlns="http://www.w3.org/2000/svg" width="17.395" height="21.744" viewBox="0 0 17.395 21.744">
  <g id="clipboard-task-list-ltr_1" transform="translate(-51.2)">
    <path id="Path_23783" data-name="Path 23783" d="M61.8,0H57.995a2.447,2.447,0,0,0-2.431,2.174H53.646A2.446,2.446,0,0,0,51.2,4.621V19.3a2.446,2.446,0,0,0,2.446,2.446h12.5A2.446,2.446,0,0,0,68.6,19.3V4.621a2.446,2.446,0,0,0-2.446-2.446H64.231A2.447,2.447,0,0,0,61.8,0ZM57.995,1.631H61.8a.815.815,0,1,1,0,1.631H57.995a.815.815,0,1,1,0-1.631Zm2.446,7.339a.816.816,0,0,1,.815-.815h3.805a.815.815,0,0,1,0,1.631H61.256A.816.816,0,0,1,60.441,8.969Zm.815,5.164h3.805a.815.815,0,1,1,0,1.631H61.256a.815.815,0,1,1,0-1.631ZM58.572,8.459,56.4,10.633a.815.815,0,0,1-1.153,0L54.157,9.546A.815.815,0,0,1,55.31,8.393l.51.51,1.6-1.6a.815.815,0,0,1,1.153,1.153Zm0,4.826a.815.815,0,0,1,0,1.153L56.4,16.612a.815.815,0,0,1-1.153,0l-1.087-1.087a.815.815,0,0,1,1.153-1.153l.51.511,1.6-1.6A.816.816,0,0,1,58.572,13.285Z" fill="#ccc"/>
  </g>
</svg>
