<svg width="48" height="48" viewBox="0 0 48 48" fill="none" xmlns="http://www.w3.org/2000/svg">
<path d="M45.1806 27.5059C45.178 25.211 44.6937 22.9422 43.7591 20.8463C42.7204 18.7867 41.3508 16.9115 39.705 15.2953C38.2373 13.8684 36.5534 12.6823 34.7155 11.781L35.2299 9.49219L27.7793 11.82L33.5208 17.1088L34.0025 14.9624C35.4192 15.5488 36.7471 16.3302 37.9478 17.2839C39.5478 18.5712 40.9357 20.1018 42.0609 21.8197C43.1701 23.5765 43.9011 25.5452 44.2073 27.6002C44.5695 29.7299 44.6582 31.8971 44.4712 34.0493C44.9839 31.907 45.2223 29.7082 45.1806 27.5059Z" fill="#0C7299"/>
<path d="M22.8036 38.5418L16.9913 33.3328L16.5323 35.5164C15.0708 35.0311 13.6671 34.3865 12.3466 33.5941C10.6269 32.5512 9.05806 31.2778 7.68377 29.8094C6.3039 28.3065 5.21664 26.5593 4.47783 24.6576C3.69559 22.7051 3.2171 20.6443 3.05901 18.5469C2.8999 20.6925 3.07123 22.8498 3.56702 24.9433C4.05806 27.1079 4.94873 29.1618 6.19328 30.9996C7.50495 32.8122 9.08098 34.4179 10.8688 35.7631C12.4136 36.9287 14.0934 37.9034 15.8719 38.6661L15.3865 40.9757L22.8036 38.5418Z" fill="#41B2CC"/>
<path d="M15.1106 4.00188C13.6121 3.97456 12.1231 4.2456 10.7303 4.79922C9.33757 5.35284 8.06886 6.17797 6.99803 7.2266C5.9272 8.27522 5.07566 9.52638 4.49298 10.9072C3.91031 12.2881 3.60813 13.7711 3.60405 15.2698C3.59593 18.3188 4.78738 21.2487 6.92109 23.4267C9.05481 25.6047 11.9596 26.8561 15.0081 26.9106C16.5073 26.9403 17.9974 26.6709 19.3913 26.1181C20.7852 25.5653 22.055 24.7403 23.1264 23.6913C24.1979 22.6422 25.0495 21.3901 25.6316 20.0082C26.2136 18.6263 26.5144 17.1422 26.5164 15.6427C26.5208 12.5945 25.3279 9.66653 23.1946 7.48928C21.0613 5.31203 18.1582 4.05967 15.1106 4.00188Z" fill="url(#paint0_linear_39_1483)"/>
<g style="mix-blend-mode:screen">
<path d="M26.5164 15.6445C26.5143 17.1439 26.2134 18.6279 25.6313 20.0097C25.0492 21.3916 24.1975 22.6435 23.1261 23.6925C22.0547 24.7415 20.7849 25.5664 19.3911 26.1191C17.9972 26.6718 16.5072 26.9412 15.0081 26.9116C11.9594 26.857 9.05451 25.6055 6.92078 23.4273C4.78704 21.2491 3.5957 18.319 3.60405 15.2698C3.60813 13.7711 3.91031 12.2881 4.49299 10.9073C5.07566 9.5264 5.9272 8.27524 6.99803 7.22661C8.06886 6.17799 9.33757 5.35284 10.7303 4.79922C12.1231 4.2456 13.6121 3.97456 15.1106 4.00188C18.1585 4.05968 21.0618 5.31229 23.1952 7.48993C25.3286 9.66758 26.5213 12.596 26.5164 15.6445Z" fill="#FF832B"/>
</g>
<g style="mix-blend-mode:multiply">
<path d="M15.0085 26.3469C12.013 26.2933 9.15465 25.0816 7.03328 22.966C4.91192 20.8504 3.69245 17.9954 3.63077 15C3.63077 15.0907 3.60356 15.1814 3.60356 15.2721C3.59521 18.3213 4.78654 21.2514 6.92028 23.4296C9.05401 25.6078 11.9589 26.8593 15.0076 26.9139C16.5068 26.9435 17.9969 26.6741 19.3908 26.1213C20.7847 25.5686 22.0545 24.7435 23.1259 23.6945C24.1974 22.6454 25.049 21.3933 25.6311 20.0114C26.2131 18.6295 26.5139 17.1454 26.5159 15.6459C26.5159 15.5461 26.4906 15.4527 26.4869 15.3511C26.4169 18.3294 25.1698 21.1586 23.0185 23.2194C20.8672 25.2803 17.987 26.4048 15.0085 26.3469Z" fill="#F5D5A4"/>
</g>
<g style="mix-blend-mode:screen">
<path d="M15.1146 4.66048C18.0961 4.72103 20.94 5.92632 23.057 8.0266C25.174 10.1269 26.4018 12.9611 26.486 15.942C26.486 15.8404 26.5168 15.7452 26.5168 15.6436C26.5214 12.5951 25.3285 9.66676 23.1949 7.48928C21.0614 5.31181 18.158 4.05944 15.1101 4.00188C13.6115 3.97456 12.1226 4.2456 10.7298 4.79922C9.33703 5.35284 8.06831 6.17797 6.99749 7.2266C5.92666 8.27522 5.07512 9.52638 4.49244 10.9072C3.90976 12.2881 3.6076 13.7711 3.60352 15.2698C3.60352 15.3941 3.63344 15.5111 3.63888 15.6381C3.72065 12.6659 4.97168 9.84586 7.1203 7.79049C9.26891 5.73513 12.1416 4.61038 15.1146 4.66048Z" fill="#FF832B"/>
</g>
<path d="M24.1341 15.5993C24.1333 16.7874 23.8956 17.9634 23.4348 19.0586C22.9741 20.1537 22.2997 21.146 21.451 21.9774C20.6022 22.8088 19.5962 23.4627 18.4918 23.9007C17.3874 24.3388 16.2068 24.5522 15.0189 24.5286C12.6051 24.4853 10.305 23.4948 8.61485 21.7709C6.9247 20.047 5.97995 17.7278 5.98439 15.3136C5.98608 14.126 6.22446 12.9507 6.68563 11.8563C7.14679 10.7619 7.82147 9.77046 8.67024 8.93985C9.51901 8.10924 10.5248 7.45617 11.6289 7.01877C12.733 6.58138 13.9132 6.36846 15.1005 6.39245C17.5138 6.43296 19.8142 7.42141 21.5045 9.14421C23.1949 10.867 24.1395 13.1857 24.1341 15.5993Z" fill="#F34D4D"/>
<g style="mix-blend-mode:multiply">
<path d="M15.0244 24.0691C12.6515 24.0255 10.3877 23.0649 8.70761 21.3887C7.02751 19.7125 6.06165 17.4509 6.01258 15.0781C6.01258 15.157 5.98537 15.236 5.98537 15.3176C5.98093 17.7318 6.92569 20.051 8.61584 21.775C10.306 23.4989 12.606 24.4893 15.0199 24.5326C16.2077 24.5563 17.3884 24.3428 18.4928 23.9048C19.5972 23.4668 20.6032 22.8129 21.452 21.9815C22.3007 21.1501 22.9751 20.1578 23.4358 19.0626C23.8965 17.9675 24.1343 16.7915 24.1351 15.6034C24.1351 15.5272 24.1161 15.4564 24.1134 15.3856C24.0515 17.7397 23.0612 19.9738 21.3585 21.6006C19.6558 23.2273 17.3789 24.1147 15.0244 24.0691Z" fill="#F5D5A4"/>
</g>
<g style="mix-blend-mode:multiply">
<path d="M15.0295 22.3024C13.8276 22.2764 12.6554 21.9247 11.6377 21.2849C10.6201 20.645 9.7951 19.741 9.2508 18.6692C8.726 17.6435 8.4562 16.5065 8.46428 15.3544C8.44344 14.4832 8.59607 13.6165 8.91327 12.8049C9.23048 11.9932 9.70594 11.2527 10.312 10.6265C10.918 10.0003 11.6425 9.50082 12.4434 9.15721C13.2443 8.8136 14.1055 8.63269 14.9769 8.625C15.873 8.63744 16.7577 8.8275 17.5798 9.18417C18.4019 9.54084 19.1452 10.057 19.7665 10.7029C20.3878 11.3487 20.8748 12.1114 21.1994 12.9467C21.5239 13.7821 21.6795 14.6735 21.6573 15.5694C21.6777 16.4418 21.5245 17.3095 21.2064 18.1221C20.8883 18.9347 20.4118 19.6759 19.8045 20.3026C19.1973 20.9293 18.4714 21.4289 17.6693 21.7724C16.8671 22.1159 16.0046 22.2963 15.132 22.3033L15.0295 22.3024Z" fill="#F5D5A4"/>
</g>
<path d="M21.3808 15.5684C21.3788 16.3951 21.2121 17.2131 20.8905 17.9747C20.5689 18.7362 20.0987 19.4261 19.5076 20.004C18.9164 20.5819 18.2161 21.0363 17.4474 21.3406C16.6787 21.6448 15.8571 21.7929 15.0306 21.7761C13.3497 21.7475 11.7475 21.0586 10.5705 19.8583C9.39339 18.658 8.73596 17.0427 8.74026 15.3615C8.74275 14.5358 8.90953 13.7187 9.23091 12.9581C9.55229 12.1974 10.0218 11.5083 10.6122 10.9308C11.2025 10.3534 11.9019 9.89925 12.6695 9.59477C13.4371 9.2903 14.2576 9.14161 15.0832 9.15739C16.7638 9.18688 18.3656 9.87536 19.5435 11.0745C20.7215 12.2736 21.3813 13.8875 21.3808 15.5684Z" fill="#FFA136"/>
<g style="mix-blend-mode:multiply">
<path d="M21.3469 15.8867C21.3469 15.8767 21.3469 15.8641 21.3469 15.855C21.1509 18.8486 18.4077 21.1828 15.0348 21.1329C11.6619 21.083 8.96129 18.6835 8.78076 15.6953V15.7098C8.86121 17.3258 9.55232 18.8509 10.7143 19.9767C11.8764 21.1025 13.4226 21.745 15.0402 21.7743C16.6498 21.8025 18.2073 21.2042 19.384 20.1057C20.5607 19.0072 21.2645 17.4944 21.3469 15.8867Z" fill="#F5D5A4"/>
</g>
<g style="mix-blend-mode:screen">
<path d="M15.0888 9.64C16.7219 9.67237 18.2808 10.3278 19.4463 11.4721C20.6119 12.6164 21.2959 14.163 21.3583 15.7952C21.3583 15.7171 21.38 15.6464 21.38 15.5684C21.3806 13.8881 20.7213 12.2748 19.5441 11.0757C18.367 9.8767 16.7661 9.18782 15.0861 9.15739C14.2605 9.14161 13.44 9.29029 12.6724 9.59476C11.9048 9.89923 11.2054 10.3534 10.6151 10.9308C10.0248 11.5083 9.5552 12.1974 9.23382 12.958C8.91244 13.7187 8.74566 14.5357 8.74316 15.3615C8.74316 15.4522 8.76492 15.5312 8.76855 15.6182C8.82842 13.9923 9.52425 12.4549 10.7063 11.3368C11.8883 10.2187 13.4621 9.60941 15.0888 9.64Z" fill="#FF832B"/>
</g>
<path d="M14.4747 19.6012C14.1594 19.5786 13.8465 19.5295 13.5394 19.4542C13.3197 19.3998 13.11 19.311 12.918 19.1911L13.3063 17.951C13.4464 18.0617 13.6066 18.1443 13.778 18.1941C14.0065 18.2686 14.2417 18.3209 14.4802 18.3502L14.492 15.8491C14.296 15.7312 14.1037 15.5924 13.9123 15.459C13.7234 15.3153 13.5525 15.1493 13.4034 14.9646C13.2458 14.7657 13.1231 14.5414 13.0405 14.3015C12.9363 14.019 12.8886 13.7188 12.8999 13.4179C12.8733 12.912 13.0284 12.4133 13.3372 12.0118C13.639 11.6598 14.0535 11.4232 14.5101 11.3423V10.2891L15.5987 10.3108V11.3169C15.8376 11.3363 16.0736 11.3817 16.3027 11.4521C16.5045 11.5051 16.7008 11.5774 16.8887 11.668L16.4995 12.8573C16.3744 12.7826 16.2415 12.7218 16.1031 12.6758C15.9366 12.6246 15.7665 12.5858 15.5942 12.5597L15.5797 14.8213C15.7859 14.9437 15.9835 15.0801 16.1712 15.2295C16.3701 15.371 16.5461 15.5423 16.6928 15.7375C16.8524 15.9345 16.9803 16.1552 17.072 16.3916C17.1759 16.6677 17.2264 16.9611 17.2208 17.2561C17.2485 17.805 17.0885 18.347 16.7672 18.7929C16.4659 19.1769 16.0374 19.4408 15.5588 19.5368V20.6072L14.4702 20.5936L14.4747 19.6012ZM14.99 12.5334C14.8792 12.5342 14.7701 12.561 14.6716 12.6117C14.5731 12.6625 14.488 12.7357 14.423 12.8255C14.3199 12.9758 14.2651 13.154 14.2661 13.3362C14.2575 13.5607 14.3289 13.7809 14.4675 13.9577C14.6231 14.1288 14.7948 14.2846 14.98 14.423L14.99 12.5334ZM15.0998 18.352C15.209 18.3369 15.314 18.2999 15.4084 18.2431C15.5029 18.1864 15.5849 18.1111 15.6495 18.0218C15.7764 17.829 15.8413 17.602 15.8355 17.3713C15.8465 17.139 15.7752 16.9103 15.6341 16.7254C15.4888 16.5379 15.3109 16.3781 15.1089 16.2537L15.0998 18.352Z" fill="#F34D4D"/>
<g style="mix-blend-mode:multiply">
<path d="M17.0798 16.3916C16.9881 16.1552 16.8602 15.9345 16.7006 15.7375C16.5539 15.5423 16.378 15.371 16.179 15.2295C15.9913 15.0801 15.7937 14.9437 15.5875 14.8213L15.602 12.5597C15.7743 12.5858 15.9444 12.6246 16.1109 12.6758C16.2493 12.7218 16.3822 12.7826 16.5074 12.8573L16.8965 11.668C16.7086 11.5774 16.5123 11.5051 16.3105 11.4521C16.0814 11.3817 15.8454 11.3363 15.6066 11.3169V10.3108L14.5179 10.2891V11.3423C14.0613 11.4232 13.6469 11.6598 13.345 12.0118C13.0362 12.4133 12.8811 12.912 12.9077 13.4179C12.8964 13.7188 12.9442 14.019 13.0483 14.3015C13.131 14.5414 13.2536 14.7657 13.4112 14.9646C13.5603 15.1493 13.7312 15.3153 13.9201 15.459C14.1115 15.5924 14.303 15.7312 14.4998 15.8491L14.488 18.3502C14.2495 18.3209 14.0143 18.2686 13.7858 18.1941C13.6144 18.1443 13.4542 18.0617 13.3141 17.951L12.9259 19.1911C13.1178 19.311 13.3275 19.3998 13.5473 19.4542C13.8543 19.5295 14.1672 19.5786 14.4826 19.6012V20.5991L15.5712 20.6127V19.5422C16.0498 19.4462 16.4783 19.1824 16.7795 18.7983C17.1009 18.3525 17.2608 17.8105 17.2331 17.2616C17.238 16.9645 17.1859 16.6692 17.0798 16.3916ZM16.6217 18.3484C16.3493 18.6911 15.9631 18.9248 15.5331 19.007L15.29 19.0632L15.2854 20.0738L14.7538 20.0684V19.0913L14.4816 19.0687C14.1756 19.0513 13.8719 19.0052 13.5745 18.9308C13.4943 18.912 13.416 18.8862 13.3404 18.8537L13.4239 18.5906C13.52 18.6425 13.6212 18.6841 13.726 18.7149C13.9613 18.7955 14.2046 18.8502 14.4517 18.8782L14.7456 18.9153L14.7611 15.4681C14.7611 15.4681 14.2041 15.1052 14.0253 14.9846C13.8457 14.8509 13.6835 14.6952 13.5427 14.521C13.423 14.3675 13.329 14.1957 13.2642 14.0121C13.1956 13.8225 13.1647 13.6212 13.1735 13.4197C13.1523 13.0727 13.2624 12.7304 13.482 12.4608C13.7545 12.1479 14.127 11.939 14.5361 11.8694L14.7792 11.8195L14.7847 10.8216L15.319 10.8361V11.824L15.5848 11.8476C15.8123 11.8645 16.0372 11.9071 16.2552 11.9746C16.3196 11.9918 16.3831 12.0136 16.4438 12.0308L16.3749 12.244C16.3051 12.2168 16.2307 12.1869 16.149 12.1606C15.9754 12.1065 15.7984 12.0637 15.6192 12.0326L15.319 11.9773L15.2999 15.2204L15.5013 15.3302C15.6998 15.4462 15.8893 15.5769 16.0683 15.7212C16.2441 15.8472 16.4006 15.9982 16.5328 16.1693C16.6646 16.3341 16.7713 16.5175 16.8494 16.7136C16.9151 16.8874 16.9459 17.0723 16.9401 17.2579C16.9606 17.6477 16.8466 18.0326 16.6171 18.3484H16.6217Z" fill="#F34D4D"/>
</g>
<path d="M33.5767 23.986C32.2681 23.9623 30.9679 24.1991 29.7518 24.6826C28.5356 25.1661 27.4277 25.8867 26.4927 26.8025C25.5576 27.7182 24.814 28.8107 24.3052 30.0165C23.7964 31.2223 23.5325 32.5173 23.5289 33.8261C23.5208 36.489 24.5608 39.0482 26.4241 40.9507C28.2873 42.8532 30.8243 43.9462 33.4869 43.9936C34.7962 44.0193 36.0976 43.7838 37.315 43.3009C38.5324 42.818 39.6413 42.0974 40.5771 41.1812C41.5129 40.2649 42.2567 39.1714 42.7651 37.9645C43.2735 36.7575 43.5364 35.4614 43.5383 34.1517C43.5421 31.4896 42.5002 28.9325 40.637 27.0311C38.7738 25.1297 36.2383 24.0362 33.5767 23.986Z" fill="url(#paint1_linear_39_1483)"/>
<g style="mix-blend-mode:screen">
<path d="M43.5383 34.1527C43.5364 35.4623 43.2735 36.7584 42.7651 37.9654C42.2567 39.1723 41.5129 40.2658 40.5771 41.1821C39.6413 42.0983 38.5324 42.819 37.315 43.3018C36.0976 43.7847 34.7962 44.0202 33.4869 43.9945C30.8243 43.9471 28.2873 42.8541 26.4241 40.9516C24.5608 39.0491 23.5208 36.4899 23.5289 33.827C23.5324 32.5181 23.7962 31.2231 24.305 30.0172C24.8137 28.8113 25.5573 27.7186 26.4924 26.8028C27.4274 25.887 28.5353 25.1663 29.7516 24.6827C30.9678 24.1991 32.268 23.9623 33.5767 23.986C36.2385 24.0362 38.7741 25.1299 40.6373 27.0314C42.5006 28.933 43.5424 31.4904 43.5383 34.1527Z" fill="#FF832B"/>
</g>
<g style="mix-blend-mode:multiply">
<path d="M33.4869 43.495C30.8712 43.4479 28.3754 42.3896 26.5232 40.5421C24.6709 38.6946 23.6062 36.2015 23.5525 33.5859C23.5525 33.6685 23.5289 33.7411 23.5289 33.8227C23.5196 36.4864 24.5591 39.0468 26.4225 40.9503C28.2859 42.8537 30.8235 43.9474 33.4869 43.9948C34.7963 44.0205 36.0976 43.785 37.315 43.3021C38.5324 42.8192 39.6414 42.0986 40.5771 41.1823C41.5129 40.2661 42.2567 39.1726 42.7651 37.9656C43.2736 36.7587 43.5364 35.4626 43.5383 34.1529C43.5383 34.0622 43.5147 33.9851 43.5129 33.8962C43.4508 36.4968 42.3609 38.9669 40.4819 40.7658C38.6029 42.5648 36.0877 43.5461 33.4869 43.495Z" fill="#F5D5A4"/>
</g>
<g style="mix-blend-mode:screen">
<path d="M33.5794 24.562C36.1834 24.6137 38.6677 25.6659 40.5167 27.5002C42.3658 29.3346 43.4377 31.8103 43.5101 34.4139C43.5101 34.3232 43.5383 34.2424 43.5383 34.1526C43.5423 31.4902 42.5004 28.9327 40.6369 27.0311C38.7735 25.1295 36.2377 24.0359 33.5757 23.986C32.2673 23.9624 30.9673 24.1993 29.7513 24.6828C28.5353 25.1663 27.4276 25.8868 26.4926 26.8025C25.5577 27.7181 24.8142 28.8105 24.3054 30.0161C23.7965 31.2218 23.5326 32.5165 23.5288 33.8252C23.5288 33.934 23.5542 34.0365 23.5587 34.1463C23.6307 31.5512 24.7234 29.0893 26.5995 27.2949C28.4756 25.5005 30.9837 24.5185 33.5794 24.562Z" fill="#FF832B"/>
</g>
<path d="M41.4592 34.1164C41.4594 35.1545 41.2524 36.1822 40.8504 37.1393C40.4484 38.0964 39.8594 38.9636 39.118 39.6902C38.3765 40.4168 37.4975 40.9881 36.5325 41.3706C35.5674 41.7532 34.5357 41.9393 33.4978 41.918C31.3893 41.8816 29.3797 41.0173 27.9031 39.5117C26.4264 38.0062 25.6011 35.9802 25.6055 33.8714C25.6066 32.8343 25.8145 31.8078 26.217 30.852C26.6195 29.8962 27.2085 29.0302 27.9496 28.3047C28.6907 27.5792 29.5691 27.0088 30.5332 26.6267C31.4974 26.2447 32.5281 26.0587 33.565 26.0797C35.6725 26.1143 37.6819 26.9766 39.159 28.4803C40.6361 29.984 41.4623 32.0085 41.4592 34.1164Z" fill="#F34D4D"/>
<g style="mix-blend-mode:multiply">
<path d="M33.5025 41.5087C31.43 41.4707 29.4527 40.6318 27.9852 39.1678C26.5177 37.7039 25.674 35.7286 25.631 33.6562C25.6264 33.7243 25.6065 33.7941 25.6065 33.8658C25.6021 35.9746 26.4274 38.0006 27.9041 39.5061C29.3807 41.0117 31.3903 41.876 33.4989 41.9124C34.5367 41.9336 35.5684 41.7475 36.5335 41.365C37.4985 40.9824 38.3775 40.4112 39.119 39.6846C39.8604 38.958 40.4494 38.0908 40.8514 37.1337C41.2534 36.1766 41.4604 35.1489 41.4602 34.1107C41.4602 34.0445 41.442 33.9828 41.4402 33.9212C41.3869 35.9777 40.5224 37.9296 39.0353 39.3511C37.5482 40.7726 35.5593 41.5482 33.5025 41.5087Z" fill="#F5D5A4"/>
</g>
<g style="mix-blend-mode:multiply">
<path d="M33.5079 39.9709C32.4581 39.9476 31.4342 39.64 30.5454 39.0808C29.6565 38.5217 28.936 37.732 28.4604 36.7958C28.0026 35.8996 27.7673 34.9064 27.7746 33.9001C27.7564 33.1394 27.8897 32.3826 28.1666 31.6739C28.4435 30.9652 28.8586 30.3186 29.3877 29.7717C29.9169 29.2249 30.5494 28.7887 31.2487 28.4886C31.9479 28.1884 32.6998 28.0303 33.4607 28.0234C34.2433 28.0344 35.016 28.2004 35.734 28.5118C36.4519 28.8233 37.101 29.2741 37.6437 29.8381C38.1863 30.4021 38.6117 31.068 38.8953 31.7975C39.1788 32.527 39.3149 33.3055 39.2957 34.0879C39.3132 34.8496 39.1792 35.6072 38.9013 36.3166C38.6235 37.0261 38.2074 37.6732 37.6772 38.2203C37.147 38.7675 36.5133 39.2038 35.8129 39.5039C35.1126 39.8039 34.3596 39.9617 33.5977 39.9681L33.5079 39.9709Z" fill="#F5D5A4"/>
</g>
<path d="M39.0504 34.0914C39.0478 34.813 38.9017 35.5268 38.6206 36.1914C38.3396 36.8561 37.9292 37.4581 37.4133 37.9627C36.8975 38.4672 36.2864 38.8642 35.6157 39.1304C34.9451 39.3967 34.2282 39.5269 33.5067 39.5136C32.0388 39.4883 30.6399 38.8864 29.6122 37.838C28.5845 36.7897 28.0106 35.379 28.0147 33.9109C28.0163 33.1896 28.1616 32.4759 28.4421 31.8114C28.7226 31.1469 29.1326 30.5449 29.6483 30.0406C30.1639 29.5363 30.7748 29.1397 31.4454 28.874C32.116 28.6084 32.8327 28.4789 33.5539 28.4933C35.021 28.5197 36.419 29.1211 37.4471 30.1682C38.4751 31.2152 39.0509 32.6241 39.0504 34.0914Z" fill="#FFA136"/>
<g style="mix-blend-mode:multiply">
<path d="M39.0232 34.3613V34.3332C38.8697 35.6615 38.2122 36.8803 37.1865 37.7381C36.1607 38.5959 34.8449 39.0273 33.5103 38.9434C32.17 38.982 30.8643 38.5151 29.8522 37.6355C28.8402 36.7559 28.1959 35.5279 28.0474 34.1953V34.2062C28.1175 35.6172 28.7206 36.949 29.7348 37.9324C30.749 38.9158 32.0988 39.4775 33.5113 39.5041C34.9178 39.5297 36.2791 39.0075 37.3077 38.0478C38.3362 37.0882 38.9514 35.7662 39.0232 34.3613Z" fill="#F5D5A4"/>
</g>
<g style="mix-blend-mode:screen">
<path d="M33.5586 28.9055C34.9849 28.9341 36.3463 29.5068 37.3641 30.5063C38.3819 31.5059 38.9791 32.8567 39.0334 34.2823C39.0334 34.2133 39.0534 34.1516 39.0534 34.0836C39.0539 32.6164 38.4782 31.2077 37.4504 30.1607C36.4225 29.1137 35.0247 28.5121 33.5578 28.4854C32.8366 28.4711 32.1199 28.6006 31.4493 28.8662C30.7787 29.1319 30.1678 29.5284 29.6521 30.0328C29.1365 30.5371 28.7265 31.1391 28.446 31.8036C28.1655 32.4681 28.0202 33.1818 28.0186 33.9031C28.0186 33.9793 28.0376 34.0509 28.0394 34.1271C28.0917 32.7072 28.6993 31.3645 29.7315 30.3879C30.7637 29.4114 32.138 28.8791 33.5586 28.9055Z" fill="#FF832B"/>
</g>
<path d="M33.1076 37.2122C32.8782 37.1958 32.6506 37.16 32.4272 37.1052C32.2668 37.0658 32.1137 37.0012 31.9736 36.9138L32.2557 36.0121C32.3576 36.0926 32.474 36.1526 32.5987 36.189C32.7649 36.2431 32.9359 36.281 33.1094 36.3024L33.1185 34.4835C32.976 34.3973 32.8363 34.2966 32.6975 34.1995C32.5599 34.094 32.4356 33.9722 32.3274 33.8367C32.2138 33.692 32.1255 33.5291 32.0661 33.355C31.9903 33.1496 31.9555 32.9314 31.9636 32.7127C31.944 32.3449 32.0566 31.9822 32.2811 31.6903C32.5008 31.4341 32.8025 31.262 33.1348 31.2032V30.4375L33.9267 30.4538V31.1859C34.1003 31.2 34.2719 31.2328 34.4384 31.2839C34.5849 31.3225 34.7274 31.375 34.8638 31.4408L34.5808 32.3054C34.4897 32.2515 34.3929 32.2077 34.2923 32.1747C34.1712 32.1375 34.0475 32.1093 33.9222 32.0904L33.9113 33.7351C34.0613 33.8243 34.2049 33.9237 34.3413 34.0326C34.486 34.1354 34.6139 34.26 34.7205 34.4018C34.8353 34.5453 34.9271 34.7056 34.9927 34.8772C35.0682 35.078 35.1048 35.2914 35.1006 35.5059C35.1207 35.9051 35.0043 36.2993 34.7704 36.6235C34.552 36.9039 34.2406 37.097 33.8923 37.1678V37.9462L33.1021 37.9362L33.1076 37.2122ZM33.4822 32.0731C33.4016 32.0736 33.3222 32.0931 33.2505 32.13C33.1788 32.1669 33.1168 32.2201 33.0695 32.2854C32.9947 32.3946 32.9552 32.5241 32.9561 32.6564C32.9493 32.8202 33.0011 32.981 33.1021 33.11C33.2153 33.2344 33.3402 33.3477 33.475 33.4484L33.4822 32.0731ZM33.562 36.3051C33.6415 36.294 33.7179 36.267 33.7866 36.2257C33.8553 36.1844 33.915 36.1296 33.9621 36.0647C34.0544 35.9243 34.1016 35.7591 34.0973 35.5911C34.1054 35.4222 34.0537 35.2558 33.9512 35.1212C33.8456 34.9849 33.7162 34.8687 33.5693 34.7783L33.562 36.3051Z" fill="#F34D4D"/>
<g style="mix-blend-mode:multiply">
<path d="M34.999 34.8772C34.9334 34.7056 34.8416 34.5453 34.7268 34.4018C34.6202 34.26 34.4923 34.1354 34.3476 34.0326C34.2113 33.9237 34.0676 33.8243 33.9176 33.7351L33.9285 32.0904C34.0538 32.1093 34.1775 32.1375 34.2987 32.1747C34.3993 32.2077 34.496 32.2515 34.5871 32.3054L34.8702 31.4408C34.7337 31.375 34.5912 31.3225 34.4447 31.2839C34.2782 31.2328 34.1066 31.2 33.9331 31.1859V30.4538L33.1411 30.4375V31.2032C32.8088 31.262 32.5071 31.4341 32.2875 31.6903C32.0629 31.9822 31.9503 32.3449 31.97 32.7127C31.9619 32.9314 31.9967 33.1496 32.0725 33.355C32.1318 33.5291 32.2201 33.692 32.3337 33.8367C32.442 33.9722 32.5663 34.094 32.7039 34.1995C32.8427 34.2966 32.9824 34.3973 33.1248 34.4835L33.1157 36.3024C32.9422 36.2811 32.7712 36.2431 32.605 36.189C32.4803 36.1527 32.3639 36.0926 32.2621 36.0121L31.9799 36.9138C32.12 37.0012 32.2731 37.0658 32.4335 37.1052C32.6569 37.16 32.8845 37.1958 33.1139 37.2122V37.938L33.904 37.948V37.1696C34.2524 37.0988 34.5638 36.9058 34.7822 36.6253C35.016 36.3011 35.1325 35.9069 35.1124 35.5077C35.115 35.2922 35.0766 35.0782 34.999 34.8772ZM34.6661 36.2996C34.4684 36.5486 34.1881 36.7185 33.8759 36.7786L33.6945 36.8194V37.5543H33.308V36.8439L33.1121 36.8276C32.8902 36.8148 32.67 36.781 32.4544 36.7269C32.3963 36.7132 32.3395 36.6944 32.2847 36.6707L32.3455 36.4793C32.4153 36.5171 32.4889 36.5475 32.5651 36.57C32.7371 36.6288 32.9151 36.6687 33.0958 36.6888L33.3099 36.716L33.3216 34.2068C33.3216 34.2068 32.9161 33.9437 32.7864 33.8548C32.6557 33.7578 32.5378 33.6447 32.4353 33.5183C32.3484 33.4066 32.28 33.2816 32.233 33.1481C32.1827 33.0103 32.1599 32.8639 32.1659 32.7172C32.1503 32.4648 32.2303 32.2158 32.39 32.0196C32.5883 31.7922 32.8591 31.6402 33.1565 31.5896L33.3334 31.5533V30.8276L33.7226 30.8376V31.556L33.9158 31.5733C34.0814 31.585 34.2451 31.6155 34.4039 31.664C34.4511 31.6767 34.4946 31.6921 34.5409 31.7048L34.491 31.86C34.4402 31.84 34.3858 31.8182 34.3268 31.7992C34.2004 31.7606 34.0716 31.7303 33.9412 31.7084L33.7226 31.6685L33.709 34.0272L33.856 34.107C34.0001 34.1913 34.1378 34.2862 34.2678 34.3909C34.3955 34.4825 34.5092 34.5922 34.6053 34.7166C34.7012 34.8364 34.7789 34.9696 34.8357 35.1121C34.8838 35.2374 34.9069 35.3708 34.9037 35.505C34.9182 35.7897 34.8339 36.0707 34.6652 36.3005L34.6661 36.2996Z" fill="#F34D4D"/>
</g>
<g style="mix-blend-mode:multiply">
<path d="M34.7835 11.4544L35.2244 9.49219L35.1899 9.50307L34.7554 11.439L34.7835 11.4544Z" fill="#9FCBD6"/>
<path d="M45.0347 30.7572C44.918 31.7508 44.7433 32.7368 44.5113 33.71C44.6971 31.5582 44.6087 29.3914 44.2482 27.2619C43.9412 25.2069 43.2099 23.2384 42.1009 21.4814C40.9751 19.764 39.5872 18.2335 37.9878 16.9455C36.7871 15.9921 35.4592 15.2111 34.0425 14.625L33.5608 16.7704L28.086 11.7266L27.7749 11.8236L33.5164 17.1124L33.9981 14.9661C35.4148 15.5525 36.7427 16.3339 37.9434 17.2875C39.5433 18.5749 40.9313 20.1055 42.0565 21.8234C43.1657 23.5802 43.8967 25.5489 44.2029 27.6039C44.5651 29.7335 44.6538 31.9008 44.4668 34.0529C44.7276 32.9679 44.9173 31.8669 45.0347 30.7572Z" fill="#9FCBD6"/>
</g>
<g style="mix-blend-mode:multiply">
<path d="M15.4596 40.6138L15.3853 40.9658L22.8023 38.5355L22.5356 38.2969L15.4596 40.6138Z" fill="#9FCBD6"/>
<path d="M15.9154 38.3163C14.1369 37.5536 12.457 36.5789 10.9123 35.4133C9.1242 34.0681 7.54787 32.4624 6.23584 30.6498C4.99132 28.8124 4.10094 26.7587 3.61049 24.5944C3.16383 22.6795 2.98584 20.7117 3.08162 18.7477C3.07527 18.6779 3.06257 18.6089 3.05803 18.5391C2.89892 20.6846 3.07025 22.842 3.56604 24.9355C4.05709 27.1001 4.94775 29.154 6.19231 30.9918C7.50398 32.8044 9.08002 34.4101 10.8679 35.7554C12.4056 36.9141 14.0771 37.8835 15.8464 38.6429L15.9154 38.3163Z" fill="#9FCBD6"/>
</g>
<g style="mix-blend-mode:screen">
<path d="M34.7563 12.258C36.594 13.16 38.2779 14.3463 39.7458 15.7733C41.3924 17.3892 42.7626 19.2644 43.8017 21.3242C44.5039 22.8563 44.9436 24.4953 45.1026 26.1731C44.9775 24.3304 44.5215 22.5253 43.7564 20.8443C42.7177 18.7847 41.3481 16.9095 39.7022 15.2934C38.2696 13.903 36.6311 12.7421 34.8443 11.8516L34.7563 12.258Z" fill="#284080"/>
<path d="M44.562 33.5936C44.6319 32.2385 44.5933 30.8801 44.4468 29.5312C44.5873 31.0354 44.594 32.5491 44.4667 34.0544C44.503 33.902 44.5293 33.7469 44.562 33.5936Z" fill="#284080"/>
<path d="M35.1065 10.0229L35.2263 9.49219L27.7793 11.82L28.1794 12.1883L35.1065 10.0229Z" fill="#284080"/>
</g>
<g style="mix-blend-mode:screen">
<path d="M3.10248 19.0199C3.26047 21.117 3.73896 23.1775 4.52129 25.1297C5.26006 27.0317 6.34733 28.7792 7.72724 30.2824C9.10125 31.7508 10.6698 33.0242 12.3892 34.0671C13.7104 34.8591 15.1147 35.5034 16.5767 35.9885L17.0303 33.8049L22.4388 38.6519L22.8017 38.534L16.9895 33.325L16.5304 35.5086C15.0689 35.0233 13.6652 34.3787 12.3447 33.5863C10.625 32.5434 9.05619 31.27 7.68188 29.8016C6.30201 28.2987 5.21475 26.5515 4.47595 24.6498C3.69371 22.6973 3.21521 20.6365 3.05712 18.5391C2.96824 19.708 2.98311 20.8826 3.10157 22.0489C3.02435 21.0407 3.02466 20.028 3.10248 19.0199Z" fill="#284080"/>
</g>
<defs>
<linearGradient id="paint0_linear_39_1483" x1="3.604" y1="15.4564" x2="26.5165" y2="15.4564" gradientUnits="userSpaceOnUse">
<stop stop-color="#DD3F18"/>
<stop offset="0.416" stop-color="#E74A1A"/>
<stop offset="1" stop-color="#FD6120"/>
</linearGradient>
<linearGradient id="paint1_linear_39_1483" x1="23.5288" y1="33.9899" x2="43.5383" y2="33.9899" gradientUnits="userSpaceOnUse">
<stop stop-color="#DD3F18"/>
<stop offset="0.416" stop-color="#E74A1A"/>
<stop offset="1" stop-color="#FD6120"/>
</linearGradient>
</defs>
</svg>
