<svg width="48" height="48" viewBox="0 0 48 48" fill="none" xmlns="http://www.w3.org/2000/svg">
<path d="M41.0703 8.49219H9.42969C8.13527 8.49219 7.08594 9.54152 7.08594 10.8359V28.4922C7.08594 29.7866 8.13527 30.8359 9.42969 30.8359H41.0703C42.3647 30.8359 43.4141 29.7866 43.4141 28.4922V10.8359C43.4141 9.54152 42.3647 8.49219 41.0703 8.49219Z" fill="#C6332C"/>
<path d="M41.0703 8.49219H38.7266C39.3482 8.49219 39.9443 8.73912 40.3838 9.17866C40.8234 9.61819 41.0703 10.2143 41.0703 10.8359V28.4922C41.0703 29.1138 40.8234 29.7099 40.3838 30.1495C39.9443 30.589 39.3482 30.8359 38.7266 30.8359H41.0703C41.6919 30.8359 42.2881 30.589 42.7276 30.1495C43.1671 29.7099 43.4141 29.1138 43.4141 28.4922V10.8359C43.4141 10.2143 43.1671 9.61819 42.7276 9.17866C42.2881 8.73912 41.6919 8.49219 41.0703 8.49219Z" fill="#ED3232"/>
<path d="M43.4141 12.5547H7.08594V17.5547H43.4141V12.5547Z" fill="#57565C"/>
<path d="M43.4141 12.5547H41.0703V17.5547H43.4141V12.5547Z" fill="#3C3B41"/>
<path d="M38.5703 15.9922H6.92969C5.63527 15.9922 4.58594 17.0415 4.58594 18.3359V35.9922C4.58594 37.2866 5.63527 38.3359 6.92969 38.3359H38.5703C39.8647 38.3359 40.9141 37.2866 40.9141 35.9922V18.3359C40.9141 17.0415 39.8647 15.9922 38.5703 15.9922Z" fill="#CF3832"/>
<path d="M38.5703 15.9922H36.2266C36.8482 15.9922 37.4443 16.2391 37.8838 16.6787C38.3234 17.1182 38.5703 17.7143 38.5703 18.3359V35.9922C38.5703 36.6138 38.3234 37.2099 37.8838 37.6495C37.4443 38.089 36.8482 38.3359 36.2266 38.3359H38.5703C39.1919 38.3359 39.7881 38.089 40.2276 37.6495C40.6671 37.2099 40.9141 36.6138 40.9141 35.9922V18.3359C40.9141 17.7143 40.6671 17.1182 40.2276 16.6787C39.7881 16.2391 39.1919 15.9922 38.5703 15.9922Z" fill="#ED3232"/>
<path d="M36.3828 19.5078H27.7109C27.2795 19.5078 26.9297 19.8576 26.9297 20.2891V21.2266C26.9297 21.658 27.2795 22.0078 27.7109 22.0078H36.3828C36.8143 22.0078 37.1641 21.658 37.1641 21.2266V20.2891C37.1641 19.8576 36.8143 19.5078 36.3828 19.5078Z" fill="white"/>
<path d="M36.3828 19.5078H34.0391C34.2463 19.5078 34.445 19.5901 34.5915 19.7366C34.738 19.8831 34.8203 20.0819 34.8203 20.2891V21.2266C34.8203 21.4338 34.738 21.6325 34.5915 21.779C34.445 21.9255 34.2463 22.0078 34.0391 22.0078H36.3828C36.59 22.0078 36.7887 21.9255 36.9352 21.779C37.0818 21.6325 37.1641 21.4338 37.1641 21.2266V20.2891C37.1641 20.0819 37.0818 19.8831 36.9352 19.7366C36.7887 19.5901 36.59 19.5078 36.3828 19.5078Z" fill="#E1E1E3"/>
<path d="M13.0234 19.5078H9.11719C8.68572 19.5078 8.33594 19.8576 8.33594 20.2891V22.7109C8.33594 23.1424 8.68572 23.4922 9.11719 23.4922H13.0234C13.4549 23.4922 13.8047 23.1424 13.8047 22.7109V20.2891C13.8047 19.8576 13.4549 19.5078 13.0234 19.5078Z" fill="#F8BE32"/>
<path d="M13.0235 19.5078H11.354C11.5612 19.5078 11.7599 19.5901 11.9064 19.7366C12.0529 19.8831 12.1353 20.0819 12.1353 20.2891V22.7109C12.1353 22.9181 12.0529 23.1169 11.9064 23.2634C11.7599 23.4099 11.5612 23.4922 11.354 23.4922H13.0235C13.2307 23.4922 13.4294 23.4099 13.576 23.2634C13.7225 23.1169 13.8048 22.9181 13.8048 22.7109V20.2891C13.8048 20.0819 13.7225 19.8831 13.576 19.7366C13.4294 19.5901 13.2307 19.5078 13.0235 19.5078Z" fill="#FED030"/>
<path d="M20.5689 33.0625H8.33691C8.18151 33.0625 8.03248 33.0008 7.92259 32.8909C7.81271 32.781 7.75098 32.632 7.75098 32.4766C7.75098 32.3212 7.81271 32.1721 7.92259 32.0622C8.03248 31.9524 8.18151 31.8906 8.33691 31.8906H20.5689C20.7243 31.8906 20.8734 31.9524 20.9833 32.0622C21.0932 32.1721 21.1549 32.3212 21.1549 32.4766C21.1549 32.632 21.0932 32.781 20.9833 32.8909C20.8734 33.0008 20.7243 33.0625 20.5689 33.0625ZM15.0549 35.4062H8.36348C8.20808 35.4062 8.05904 35.3445 7.94916 35.2346C7.83927 35.1247 7.77754 34.9757 7.77754 34.8203C7.77754 34.6649 7.83927 34.5159 7.94916 34.406C8.05904 34.2961 8.20808 34.2344 8.36348 34.2344H15.0549C15.2103 34.2344 15.3593 34.2961 15.4692 34.406C15.5791 34.5159 15.6408 34.6649 15.6408 34.8203C15.6408 34.9757 15.5791 35.1247 15.4692 35.2346C15.3593 35.3445 15.2103 35.4062 15.0549 35.4062Z" fill="white"/>
<path d="M35.4062 35.5234C36.3771 35.5234 37.1641 34.7364 37.1641 33.7656C37.1641 32.7948 36.3771 32.0078 35.4062 32.0078C34.4354 32.0078 33.6484 32.7948 33.6484 33.7656C33.6484 34.7364 34.4354 35.5234 35.4062 35.5234Z" fill="#F9A242"/>
<path d="M35.4062 32.0078C35.2066 32.0078 35.0085 32.0419 34.8203 32.1086C35.1629 32.2299 35.4594 32.4543 35.6691 32.7511C35.8789 33.0478 35.9915 33.4022 35.9915 33.7656C35.9915 34.129 35.8789 34.4834 35.6691 34.7802C35.4594 35.0769 35.1629 35.3014 34.8203 35.4227C35.0617 35.5081 35.3188 35.5398 35.5737 35.5155C35.8286 35.4912 36.0752 35.4115 36.296 35.282C36.5169 35.1525 36.7069 34.9763 36.8525 34.7657C36.9982 34.5551 37.0961 34.3153 37.1395 34.0629C37.1828 33.8105 37.1704 33.5517 37.1032 33.3046C37.0361 33.0575 36.9158 32.8281 36.7507 32.6324C36.5856 32.4366 36.3798 32.2793 36.1475 32.1714C35.9153 32.0636 35.6623 32.0077 35.4062 32.0078Z" fill="#F69531"/>
<path d="M33.0625 35.5234C34.0333 35.5234 34.8203 34.7364 34.8203 33.7656C34.8203 32.7948 34.0333 32.0078 33.0625 32.0078C32.0917 32.0078 31.3047 32.7948 31.3047 33.7656C31.3047 34.7364 32.0917 35.5234 33.0625 35.5234Z" fill="#F8BE32"/>
<path d="M33.0625 32.0078C32.8629 32.0078 32.6647 32.0419 32.4766 32.1086C32.8191 32.2299 33.1156 32.4543 33.3254 32.7511C33.5351 33.0478 33.6477 33.4022 33.6477 33.7656C33.6477 34.129 33.5351 34.4834 33.3254 34.7802C33.1156 35.0769 32.8191 35.3014 32.4766 35.4227C32.7179 35.5081 32.9751 35.5398 33.23 35.5155C33.4849 35.4912 33.7314 35.4115 33.9523 35.282C34.1732 35.1525 34.3631 34.9763 34.5088 34.7657C34.6545 34.5551 34.7524 34.3153 34.7957 34.0629C34.839 33.8105 34.8266 33.5517 34.7595 33.3046C34.6923 33.0575 34.572 32.8281 34.4069 32.6324C34.2419 32.4366 34.036 32.2793 33.8038 32.1714C33.5716 32.0636 33.3186 32.0077 33.0625 32.0078Z" fill="#FED030"/>
<path d="M13.4414 29H8.36328C8.20788 29 8.05885 28.9383 7.94896 28.8284C7.83908 28.7185 7.77734 28.5695 7.77734 28.4141C7.77734 28.2587 7.83908 28.1096 7.94896 27.9997C8.05885 27.8899 8.20788 27.8281 8.36328 27.8281H13.4414C13.5968 27.8281 13.7458 27.8899 13.8557 27.9997C13.9656 28.1096 14.0273 28.2587 14.0273 28.4141C14.0273 28.5695 13.9656 28.7185 13.8557 28.8284C13.7458 28.9383 13.5968 29 13.4414 29ZM21.3484 29H16.2703C16.1149 29 15.9659 28.9383 15.856 28.8284C15.7461 28.7185 15.6844 28.5695 15.6844 28.4141C15.6844 28.2587 15.7461 28.1096 15.856 27.9997C15.9659 27.8899 16.1149 27.8281 16.2703 27.8281H21.3484C21.5038 27.8281 21.6529 27.8899 21.7628 27.9997C21.8726 28.1096 21.9344 28.2587 21.9344 28.4141C21.9344 28.5695 21.8726 28.7185 21.7628 28.8284C21.6529 28.9383 21.5038 29 21.3484 29ZM29.2562 29H24.1781C24.0227 29 23.8737 28.9383 23.7638 28.8284C23.6539 28.7185 23.5922 28.5695 23.5922 28.4141C23.5922 28.2587 23.6539 28.1096 23.7638 27.9997C23.8737 27.8899 24.0227 27.8281 24.1781 27.8281H29.2562C29.4116 27.8281 29.5607 27.8899 29.6706 27.9997C29.7805 28.1096 29.8422 28.2587 29.8422 28.4141C29.8422 28.5695 29.7805 28.7185 29.6706 28.8284C29.5607 28.9383 29.4116 29 29.2562 29ZM37.1641 29H32.0859C31.9305 29 31.7815 28.9383 31.6716 28.8284C31.5617 28.7185 31.5 28.5695 31.5 28.4141C31.5 28.2587 31.5617 28.1096 31.6716 27.9997C31.7815 27.8899 31.9305 27.8281 32.0859 27.8281H37.1641C37.3195 27.8281 37.4685 27.8899 37.5784 27.9997C37.6883 28.1096 37.75 28.2587 37.75 28.4141C37.75 28.5695 37.6883 28.7185 37.5784 28.8284C37.4685 28.9383 37.3195 29 37.1641 29Z" fill="white"/>
</svg>
