<svg width="48" height="48" viewBox="0 0 48 48" fill="none" xmlns="http://www.w3.org/2000/svg">
<g style="mix-blend-mode:multiply">
<path opacity="0.077" d="M36.052 24.0996C36.046 24.1343 36.0379 24.1686 36.0279 24.2024C36.0224 24.2242 36.0193 24.246 36.0115 24.2678C35.9937 24.3213 35.9721 24.3733 35.9468 24.4236C35.9207 24.4779 35.8902 24.53 35.8557 24.5794C35.8487 24.5896 35.844 24.5997 35.8378 24.6098C35.7518 24.537 35.6735 24.4556 35.6041 24.3668C35.4527 24.2013 35.3654 23.9872 35.3579 23.763C35.3599 23.7006 35.3784 23.6398 35.4117 23.587C35.4496 23.532 35.5007 23.4874 35.5603 23.4574C35.6199 23.4273 35.6861 23.4127 35.7529 23.4148C35.7737 23.416 35.7943 23.4194 35.8144 23.4249C35.8518 23.4375 35.8856 23.4592 35.9126 23.488C35.925 23.4992 35.9365 23.5115 35.9468 23.5246C35.9515 23.5309 35.9538 23.5379 35.9585 23.5441C35.9719 23.5632 35.9833 23.5836 35.9928 23.6049C35.999 23.6181 36.0053 23.6306 36.0107 23.6438C36.0162 23.6571 36.0201 23.6773 36.0247 23.6945C36.0294 23.7116 36.0356 23.7326 36.0395 23.7513C36.0418 23.7593 36.0436 23.7674 36.045 23.7755C36.0489 23.8028 36.052 23.8269 36.0543 23.8534C36.0567 23.8799 36.0598 23.9001 36.0614 23.9196C36.0644 23.9798 36.0613 24.0401 36.052 24.0996ZM38.7264 25.198C38.7813 25.1418 38.8333 25.0828 38.8822 25.0211C38.9141 24.9814 38.9421 24.9432 38.9702 24.8988C39.013 24.8357 39.0528 24.7719 39.0894 24.7041C39.1135 24.6597 39.1369 24.6161 39.1579 24.5701C39.1906 24.5 39.2179 24.4275 39.2436 24.3535C39.26 24.3076 39.2771 24.2624 39.2904 24.2149C39.3123 24.1323 39.3297 24.0485 39.3426 23.964C39.3496 23.9212 39.3605 23.8799 39.3651 23.8363C39.3795 23.7124 39.3847 23.5877 39.3807 23.4631C39.3807 23.4553 39.3807 23.4483 39.3807 23.4405C39.3752 23.2948 39.3582 23.1497 39.3301 23.0066C39.3141 22.9295 39.2795 22.8576 39.2292 22.797C39.179 22.7364 39.1146 22.6891 39.0419 22.6592C39.0504 22.6592 39.0598 22.6592 39.0683 22.6638C39.0472 22.6555 39.0256 22.6485 39.0037 22.6428C38.9802 22.633 38.956 22.6252 38.9312 22.6194C38.872 22.6082 38.8113 22.6082 38.7521 22.6194C38.6355 22.6427 38.5315 22.7079 38.4597 22.8026C38.388 22.8973 38.3534 23.0151 38.3626 23.1336C38.3592 23.1127 38.3574 23.0916 38.3571 23.0705C38.353 23.1139 38.3548 23.1577 38.3626 23.2006C38.3791 23.2854 38.3895 23.3713 38.3937 23.4577V23.4514C38.4204 23.7424 38.3538 24.0343 38.2036 24.2849C38.0533 24.5354 37.8271 24.7316 37.5578 24.8451C37.4775 24.8778 37.3947 24.9038 37.3101 24.923C37.2134 24.9463 37.1153 24.9632 37.0164 24.9736C36.9344 24.9856 36.8516 24.9911 36.7687 24.99C36.8235 24.8913 36.8709 24.7887 36.9105 24.683C36.9105 24.676 36.9144 24.6698 36.9175 24.6628C36.9463 24.5878 36.9702 24.511 36.9892 24.433C36.9962 24.4042 36.9993 24.3738 37.0055 24.345C37.0172 24.2865 37.0297 24.2281 37.0359 24.1673C37.0456 24.0726 37.0482 23.9773 37.0437 23.8822C37.0503 23.6149 36.9833 23.351 36.85 23.1192C36.7168 22.8875 36.5224 22.6968 36.288 22.568C36.2203 22.5355 36.1496 22.5094 36.0769 22.4901C35.8015 22.4177 35.5103 22.433 35.244 22.534C34.9777 22.6349 34.7495 22.8165 34.5914 23.0533C34.415 23.3573 34.3424 23.7104 34.3845 24.0592C34.4267 24.4081 34.5813 24.7337 34.8251 24.9869C34.9163 25.1039 35.0174 25.2129 35.1273 25.3125C35.0315 25.3818 34.9326 25.448 34.8313 25.5119C34.8025 25.5306 34.7721 25.5485 34.7433 25.5657C34.6272 25.6366 34.5096 25.7036 34.3919 25.7674L34.3553 25.7877L34.2416 25.8461C33.4244 22.4753 30.5436 19.6919 26.689 18.3676V5.44531H16.6935V18.3131C15.9403 18.5594 15.2089 18.8679 14.5068 19.2354L11.7624 17.5107C11.3719 17.2038 10.8887 17.0386 10.392 17.0423C9.89539 17.046 9.41472 17.2183 9.02881 17.5309C8.96255 17.6054 8.90745 17.6891 8.86522 17.7794C8.84964 17.8114 8.84107 17.8449 8.82861 17.8776C8.807 17.9343 8.79007 17.9926 8.77797 18.0521C8.7733 18.0778 8.76551 18.1035 8.76239 18.13V18.1245C8.76239 18.1502 8.76239 18.1767 8.76239 18.2024C8.76239 18.2281 8.76239 18.2616 8.76239 18.292C8.76239 18.3224 8.76239 18.3613 8.76239 18.3972C8.76239 18.433 8.7694 18.4541 8.77252 18.4829C8.77252 18.493 8.77252 18.5039 8.77252 18.5148V18.5078C8.78145 18.5728 8.79393 18.6373 8.80991 18.701C8.81848 18.7361 8.82705 18.7696 8.83796 18.8046C8.86411 18.8891 8.89506 18.9721 8.93066 19.0531C8.93689 19.0671 8.94078 19.0812 8.9478 19.096C8.99418 19.1914 9.04621 19.284 9.1036 19.3733C9.12074 19.4006 9.13865 19.4255 9.15657 19.4512C9.20097 19.5174 9.24772 19.5813 9.29757 19.6428C9.31705 19.667 9.33574 19.6919 9.356 19.7153C9.4235 19.7944 9.49582 19.8694 9.57256 19.9396L11.0449 21.6028L11.1945 21.7719C10.367 22.6723 9.71915 23.7225 9.28589 24.8661C9.12256 24.8328 8.95634 24.8159 8.78966 24.8155C8.19043 24.794 7.60713 25.011 7.1676 25.4188C6.72806 25.8266 6.46815 26.3921 6.44482 26.9913V29.6672C6.46815 30.2663 6.72806 30.8318 7.1676 31.2396C7.60713 31.6475 8.19043 31.8644 8.78966 31.843C9.09818 31.8432 9.40406 31.7861 9.69175 31.6747C10.2724 32.7902 11.0532 33.7894 11.9953 34.6225L12.169 37.7853C12.398 39.3433 13.2635 39.5217 14.6128 39.5217C15.229 39.5217 15.9651 39.2272 16.3492 37.7853L16.505 37.2267C19.818 38.3496 23.4087 38.3496 26.7218 37.2267L26.8776 37.7853C27.2608 39.2272 27.997 39.5217 28.6132 39.5217C29.9625 39.5217 30.8279 39.3456 31.0577 37.7853L31.2307 34.6225C32.197 33.8039 32.9842 32.7948 33.543 31.6583C34.1018 30.5218 34.4202 29.2823 34.4784 28.0172C34.4784 27.944 34.4854 27.8723 34.4854 27.7991C34.4854 27.7422 34.4815 27.6861 34.48 27.6293C34.4745 27.3683 34.4589 27.1097 34.4293 26.8503C35.0151 26.5896 35.5617 26.2488 36.0536 25.8375C36.4305 25.9627 36.8311 26.0004 37.2248 25.9477C37.6185 25.8951 37.9951 25.7535 38.3259 25.5337C38.3618 25.5104 38.3929 25.4831 38.4264 25.4558C38.4973 25.4046 38.5654 25.3497 38.6305 25.2915C38.6609 25.2681 38.6936 25.2323 38.7264 25.198Z" fill="#F6F9FA"/>
<path opacity="0.154" d="M35.9318 23.9769C35.9255 24.0116 35.9175 24.0459 35.9076 24.0797C35.9022 24.1016 35.8991 24.1234 35.8913 24.1452C35.8734 24.1986 35.8518 24.2506 35.8266 24.301V24.3049C35.8 24.3589 35.7696 24.411 35.7355 24.4607C35.7293 24.4708 35.7246 24.4801 35.7176 24.4903C35.6317 24.4173 35.5534 24.3359 35.4839 24.2472C35.3323 24.0816 35.2449 23.8671 35.2377 23.6427C35.2399 23.5803 35.2585 23.5196 35.2914 23.4667C35.3294 23.4117 35.3805 23.3672 35.4401 23.3371C35.4997 23.3071 35.5659 23.2924 35.6327 23.2945C35.6535 23.2957 35.6741 23.2991 35.6942 23.3046C35.7314 23.3171 35.7649 23.3388 35.7916 23.3677C35.8043 23.3786 35.816 23.3906 35.8266 23.4035L35.8383 23.423C35.8517 23.4423 35.8634 23.4626 35.8734 23.4838C35.8788 23.497 35.8858 23.5095 35.8905 23.5235C35.8952 23.5375 35.9006 23.557 35.9053 23.5734C35.91 23.5897 35.9162 23.6115 35.9201 23.6302C35.924 23.6489 35.924 23.6466 35.9256 23.6552C35.9295 23.6817 35.9326 23.7066 35.9349 23.7331C35.9373 23.7596 35.9404 23.779 35.9419 23.7985C35.9447 23.8582 35.9413 23.9179 35.9318 23.9769ZM38.6062 25.0753C38.6607 25.0185 38.7129 24.9608 38.762 24.8993C38.7931 24.8595 38.8219 24.8214 38.85 24.7769C38.893 24.7141 38.9327 24.6491 38.9692 24.5822C38.9933 24.5378 39.0167 24.4942 39.0385 24.4482C39.0704 24.3773 39.0977 24.3049 39.1234 24.2316C39.1398 24.1857 39.1569 24.1405 39.1702 24.093C39.1921 24.0103 39.2098 23.9266 39.2231 23.8421C39.2301 23.7993 39.2403 23.7588 39.2457 23.7152C39.2601 23.5911 39.2656 23.4661 39.2621 23.3412C39.2621 23.3342 39.2621 23.3264 39.2621 23.3186C39.2565 23.1732 39.2396 23.0283 39.2114 22.8855C39.1953 22.8084 39.1606 22.7364 39.1104 22.6757C39.0602 22.6151 38.9959 22.5675 38.9232 22.5373C38.9318 22.5373 38.9411 22.5373 38.9497 22.542C38.9035 22.5277 38.8576 22.5129 38.8118 22.4976C38.7526 22.4863 38.6918 22.4863 38.6326 22.4976C38.5161 22.5212 38.4122 22.5865 38.3405 22.6813C38.2687 22.7762 38.2341 22.8939 38.2431 23.0125V23.0086C38.2431 22.9876 38.2392 22.9665 38.2377 22.9455C38.2338 22.9892 38.2356 23.0332 38.2431 23.0764C38.2599 23.1612 38.2706 23.2471 38.2751 23.3334V23.328C38.3017 23.6189 38.235 23.9108 38.0847 24.1613C37.9345 24.4119 37.7084 24.6081 37.4392 24.7216C37.3588 24.754 37.2759 24.7801 37.1915 24.7995C37.0945 24.8226 36.9961 24.8395 36.897 24.8502C36.8153 24.8624 36.7327 24.8679 36.65 24.8665C36.7045 24.7678 36.7516 24.6652 36.791 24.5596C36.791 24.5526 36.7957 24.5464 36.7981 24.5401C36.8263 24.465 36.8503 24.3882 36.8697 24.3103C36.8767 24.2815 36.8799 24.2511 36.8861 24.2215C36.8978 24.1631 36.9102 24.1054 36.9165 24.0439C36.9261 23.9494 36.9285 23.8544 36.9235 23.7596C36.9303 23.4923 36.8634 23.2282 36.7301 22.9964C36.5968 22.7646 36.4023 22.574 36.1678 22.4454C36.1002 22.4131 36.0298 22.387 35.9575 22.3675C35.682 22.2952 35.3908 22.3107 35.1245 22.4118C34.8582 22.5129 34.6301 22.6946 34.4719 22.9315C34.2955 23.2354 34.2229 23.5885 34.2651 23.9373C34.3073 24.2862 34.4619 24.6118 34.7056 24.865C34.797 24.9819 34.8981 25.0908 35.0079 25.1906C34.9128 25.2599 34.8131 25.3269 34.7119 25.3908L34.6231 25.4446C34.507 25.5155 34.3893 25.5825 34.2725 25.6456L34.2351 25.6666C34.1969 25.6868 34.1572 25.7048 34.1214 25.7242C33.305 22.3542 30.4242 19.57 26.5688 18.2457V5.32031H16.5725V18.1904C15.8194 18.4363 15.0882 18.7448 14.3866 19.1127L11.6429 17.388C11.2525 17.081 10.7693 16.9157 10.2726 16.9194C9.77592 16.9231 9.29523 17.0955 8.90938 17.4083C8.8432 17.4828 8.7881 17.5665 8.74579 17.6568C8.73099 17.6887 8.72164 17.7214 8.70918 17.7541C8.68797 17.8109 8.6713 17.8692 8.65932 17.9286C8.65387 17.9551 8.64685 17.9801 8.64374 18.0065V18.0019C8.64374 18.0268 8.64374 18.0533 8.64374 18.0798C8.64374 18.1063 8.64374 18.1398 8.64374 18.1694C8.64374 18.199 8.64374 18.2387 8.64374 18.2745C8.64374 18.3104 8.65075 18.3314 8.65387 18.3602C8.65387 18.3711 8.65387 18.3813 8.65387 18.3922V18.3851C8.66321 18.449 8.67568 18.5137 8.69204 18.5783C8.70061 18.6126 8.70918 18.6469 8.7193 18.6812C8.74554 18.7658 8.77675 18.8488 8.81278 18.9297C8.81902 18.9437 8.82291 18.9585 8.82992 18.9725C8.8761 19.0681 8.92814 19.1607 8.98572 19.2498C9.00208 19.2771 9.02078 19.3028 9.0387 19.3278C9.0831 19.394 9.12984 19.4571 9.1797 19.5194C9.19917 19.5435 9.21787 19.5677 9.23813 19.5918C9.30551 19.6709 9.37756 19.7458 9.45391 19.8162L10.9262 21.4794L11.0758 21.6484C10.2479 22.5484 9.59984 23.5984 9.16645 24.7419C9.00314 24.7086 8.83691 24.6916 8.67023 24.6913C8.07101 24.67 7.48779 24.8872 7.0484 25.2951C6.60902 25.7031 6.3493 26.2687 6.32617 26.8678V29.5437C6.3493 30.1429 6.60902 30.7084 7.0484 31.1164C7.48779 31.5244 8.07101 31.7416 8.67023 31.7203C8.97875 31.7205 9.28462 31.6635 9.57232 31.552C10.1528 32.6676 10.9336 33.6669 11.8759 34.4998L12.0488 37.6626C12.2778 39.2206 13.1433 39.3982 14.4933 39.3982C15.1088 39.3982 15.8457 39.1038 16.2298 37.6626L16.3856 37.1041C19.6986 38.2272 23.2893 38.2272 26.6023 37.1041L26.7581 37.6626C27.1414 39.1038 27.8776 39.3982 28.4938 39.3982C29.843 39.3982 30.7085 39.2222 30.9375 37.6626L31.1113 34.499C32.0778 33.6806 32.8651 32.6716 33.4239 31.5351C33.9827 30.3985 34.301 29.1589 34.359 27.8938C34.359 27.8206 34.366 27.7489 34.366 27.6749C34.366 27.618 34.3621 27.5619 34.3605 27.5051C34.3553 27.2454 34.3385 26.9857 34.3099 26.726C34.8954 26.465 35.442 26.1242 35.9341 25.7133C36.5655 25.9209 37.2519 25.8822 37.856 25.605C37.9779 25.5491 38.0951 25.4834 38.2065 25.4087C38.2416 25.3854 38.2727 25.3581 38.307 25.3308C38.3782 25.2795 38.4466 25.2244 38.5119 25.1657C38.5399 25.1454 38.5727 25.108 38.6062 25.073V25.0753Z" fill="#EEF4F5"/>
<path opacity="0.231" d="M35.8124 23.8496C35.8061 23.8842 35.7981 23.9186 35.7882 23.9524C35.7828 23.9742 35.7796 23.996 35.7719 24.0178C35.754 24.0712 35.7324 24.1233 35.7072 24.1736V24.1775C35.6806 24.2316 35.6501 24.2836 35.6161 24.3333C35.6098 24.3435 35.6051 24.3528 35.5981 24.3629C35.5124 24.2899 35.4341 24.2084 35.3644 24.1199C35.2131 23.9541 35.1258 23.7397 35.1183 23.5154C35.1205 23.453 35.1391 23.3923 35.172 23.3393C35.21 23.2845 35.2612 23.24 35.3208 23.2099C35.3803 23.1798 35.4465 23.1651 35.5132 23.1672C35.534 23.1684 35.5547 23.1718 35.5748 23.1773C35.612 23.1898 35.6455 23.2115 35.6721 23.2404C35.685 23.2514 35.6967 23.2637 35.7072 23.277C35.7111 23.2824 35.7142 23.2895 35.7189 23.2957C35.7323 23.3149 35.744 23.3352 35.7539 23.3565C35.7594 23.3697 35.7664 23.3822 35.7711 23.3962C35.7766 23.4125 35.7813 23.4292 35.7851 23.446C35.7906 23.4655 35.7968 23.4842 35.7999 23.5029C35.803 23.5216 35.8038 23.5193 35.8054 23.5278C35.8092 23.5543 35.8124 23.5793 35.8147 23.6057C35.817 23.6322 35.8202 23.6517 35.8217 23.6712C35.8247 23.7308 35.8216 23.7906 35.8124 23.8496ZM38.4867 24.948C38.5413 24.8911 38.5934 24.8335 38.6425 24.7719C38.6737 24.7322 38.7025 24.694 38.7306 24.6496C38.7735 24.5867 38.8133 24.5217 38.8497 24.4549C38.8739 24.4105 38.8973 24.3668 38.9191 24.3209C38.951 24.25 38.9791 24.1775 39.004 24.1043C39.0203 24.0584 39.0375 24.0132 39.0507 23.9656C39.0727 23.883 39.0904 23.7993 39.1037 23.7148C39.1107 23.672 39.1208 23.6307 39.1263 23.5878C39.1409 23.4637 39.1464 23.3388 39.1427 23.2139C39.1427 23.2069 39.1427 23.1991 39.1427 23.1913C39.1371 23.0458 39.1202 22.901 39.092 22.7582C39.0759 22.6811 39.0412 22.6091 38.991 22.5484C38.9408 22.4877 38.8765 22.4402 38.8038 22.41C38.8123 22.41 38.8217 22.41 38.8303 22.4146C38.809 22.406 38.7871 22.399 38.7648 22.3936C38.7414 22.3834 38.7172 22.3754 38.6924 22.3694C38.6332 22.3582 38.5724 22.3582 38.5132 22.3694C38.3967 22.393 38.2928 22.4584 38.221 22.5532C38.1493 22.648 38.1147 22.7658 38.1237 22.8844V22.8805C38.1237 22.8594 38.1198 22.8384 38.1182 22.8174C38.1144 22.8608 38.1162 22.9045 38.1237 22.9475C38.1405 23.0323 38.1512 23.1182 38.1556 23.2046V23.1991C38.1822 23.49 38.1156 23.7819 37.9653 24.0324C37.815 24.283 37.5889 24.4792 37.3198 24.5928C37.2393 24.6251 37.1565 24.6512 37.072 24.6706C36.975 24.6937 36.8767 24.7106 36.7776 24.7213C36.6958 24.7335 36.6132 24.739 36.5306 24.7376C36.5852 24.6389 36.6326 24.5363 36.6724 24.4307C36.6724 24.4237 36.6763 24.4175 36.6794 24.4112C36.7077 24.3361 36.7317 24.2594 36.7511 24.1814C36.7581 24.1526 36.7612 24.1222 36.7674 24.0926C36.7791 24.0342 36.7916 23.9765 36.7978 23.915C36.8075 23.8205 36.8098 23.7255 36.8048 23.6307C36.8115 23.3634 36.7446 23.0994 36.6113 22.8676C36.478 22.6358 36.2836 22.4452 36.0492 22.3165C35.9814 22.2841 35.9107 22.258 35.8381 22.2386C35.5626 22.1662 35.2713 22.1816 35.005 22.2828C34.7387 22.3839 34.5106 22.5656 34.3525 22.8026C34.1761 23.1065 34.1035 23.4596 34.1457 23.8085C34.1878 24.1573 34.3425 24.4829 34.5862 24.7361C34.6775 24.853 34.7786 24.9619 34.8885 25.0617C34.7934 25.131 34.6937 25.198 34.5924 25.2619L34.5036 25.3157C34.3876 25.3866 34.2699 25.4536 34.1531 25.5167L34.1157 25.5377L34.0019 25.5953C33.1855 22.2253 30.3047 19.4411 26.4502 18.1168V5.19531H16.4554V18.0654C15.7024 18.3115 14.9712 18.62 14.2695 18.9877L11.5251 17.263C11.1346 16.956 10.6514 16.7907 10.1547 16.7944C9.65805 16.7981 9.17736 16.9705 8.79151 17.2833C8.72522 17.3577 8.67011 17.4414 8.62792 17.5318C8.61311 17.5637 8.60377 17.5964 8.5913 17.6299C8.56978 17.6864 8.55285 17.7445 8.54067 17.8036C8.53521 17.8301 8.5282 17.8551 8.52509 17.8815V17.8769C8.52509 17.9026 8.52509 17.9283 8.52509 17.9548C8.52509 17.9813 8.52509 18.0148 8.52509 18.0444C8.52509 18.074 8.52509 18.1137 8.52509 18.1495C8.52509 18.1854 8.5321 18.2064 8.53521 18.2352C8.53521 18.2453 8.53521 18.2563 8.53521 18.2664V18.2594C8.54467 18.3244 8.55741 18.3889 8.57339 18.4526C8.58195 18.4876 8.59052 18.5211 8.60065 18.5554C8.62712 18.6399 8.65833 18.7229 8.69413 18.8039C8.70036 18.8179 8.70426 18.8327 8.71127 18.8467C8.75744 18.9426 8.80947 19.0354 8.86707 19.1249C8.88343 19.1521 8.90213 19.177 8.92005 19.2028C8.96419 19.2687 9.01119 19.3323 9.06105 19.3936C9.08052 19.4178 9.09922 19.4427 9.11947 19.4661C9.18685 19.5451 9.25891 19.62 9.33526 19.6904L10.8076 21.3536L10.9572 21.5227C10.1295 22.4228 9.48137 23.4727 9.0478 24.6161C8.88449 24.5828 8.71826 24.5658 8.55157 24.5655C7.95235 24.5442 7.36914 24.7614 6.92975 25.1694C6.49037 25.5773 6.23065 26.1429 6.20752 26.7421V29.418C6.23065 30.0171 6.49037 30.5827 6.92975 30.9906C7.36914 31.3986 7.95235 31.6158 8.55157 31.5945C8.86009 31.5947 9.16597 31.5377 9.45367 31.4263C10.0344 32.5419 10.8155 33.5412 11.758 34.374L11.9317 37.5368C12.1607 39.0949 13.0223 39.2725 14.3755 39.2725C14.9909 39.2725 15.7278 38.978 16.1119 37.5368L16.2677 36.9783C19.5807 38.1014 23.1715 38.1014 26.4845 36.9783L26.6403 37.5368C27.0235 38.978 27.7597 39.2725 28.3759 39.2725C29.7252 39.2725 30.5906 39.0964 30.8197 37.5368L30.9934 34.3733C31.958 33.5544 32.7434 32.5456 33.3007 31.4096C33.858 30.2737 34.1752 29.0351 34.2325 27.7711C34.2325 27.6979 34.2395 27.6262 34.2395 27.5522C34.2395 27.4954 34.2395 27.4393 34.2341 27.3824C34.2289 27.1227 34.212 26.8631 34.1834 26.6034C34.7689 26.3422 35.3155 26.0014 35.8077 25.5907C36.4387 25.7987 37.1251 25.7601 37.7287 25.4824C37.8506 25.4264 37.9679 25.3607 38.0793 25.2861C38.1143 25.2627 38.1463 25.2354 38.1798 25.2082C38.251 25.1568 38.3194 25.1017 38.3847 25.043C38.4236 25.0181 38.4532 24.983 38.4867 24.948Z" fill="#E5EEF0"/>
<path opacity="0.308" d="M35.6922 23.7324C35.6862 23.7671 35.6782 23.8014 35.6681 23.8352C35.6626 23.857 35.6595 23.8788 35.6525 23.9006C35.6345 23.954 35.6129 24.006 35.5879 24.0564C35.5617 24.1107 35.5312 24.1628 35.4967 24.2122C35.4897 24.2224 35.485 24.2325 35.4788 24.2426C35.3928 24.1698 35.3145 24.0884 35.2451 23.9996C35.0937 23.8341 35.0064 23.62 34.9989 23.3959C35.0009 23.3334 35.0194 23.2727 35.0527 23.2198C35.0906 23.1648 35.1417 23.1203 35.2013 23.0902C35.2609 23.0601 35.3271 23.0455 35.3939 23.0476C35.4147 23.0489 35.4353 23.0523 35.4554 23.0578C35.4929 23.0702 35.5267 23.0919 35.5536 23.1209C35.5661 23.132 35.5775 23.1443 35.5879 23.1575C35.5925 23.1637 35.5949 23.1707 35.5995 23.1769C35.6129 23.1962 35.6247 23.2165 35.6346 23.2377C35.64 23.251 35.6463 23.2634 35.6517 23.2767C35.6572 23.2899 35.6611 23.3102 35.6658 23.3273C35.6704 23.3444 35.6767 23.3655 35.6805 23.3842C35.6828 23.3921 35.6846 23.4002 35.686 23.4083C35.6899 23.4356 35.693 23.4597 35.6954 23.4862C35.6977 23.5127 35.7008 23.5322 35.7024 23.5517C35.7052 23.6121 35.7019 23.6726 35.6922 23.7324ZM38.3666 24.8308C38.4211 24.7739 38.4741 24.7163 38.5224 24.654C38.5536 24.6142 38.5816 24.5761 38.6104 24.5324C38.6533 24.4693 38.693 24.4047 38.7296 24.3377C38.7538 24.2933 38.7771 24.2496 38.7982 24.2029C38.8309 24.1328 38.8581 24.0603 38.8839 23.9863C38.9002 23.9404 38.9174 23.8952 38.9306 23.8477C38.9525 23.7651 38.97 23.6813 38.9828 23.5968C38.9898 23.554 39.0007 23.5127 39.0054 23.4698C39.0197 23.3458 39.025 23.2208 39.021 23.0959C39.021 23.0881 39.021 23.0811 39.021 23.0733C39.0154 22.9276 38.9985 22.7825 38.9703 22.6394C38.9544 22.5624 38.9199 22.4905 38.8698 22.43C38.8197 22.3694 38.7555 22.322 38.6829 22.292C38.6914 22.292 38.7008 22.292 38.7086 22.2967C38.6875 22.2883 38.6659 22.2813 38.6439 22.2756C38.6205 22.2658 38.5962 22.258 38.5715 22.2523C38.5123 22.241 38.4515 22.241 38.3923 22.2523C38.2757 22.2755 38.1717 22.3407 38.1 22.4354C38.0282 22.5302 37.9936 22.6479 38.0028 22.7664C37.9995 22.7455 37.9976 22.7244 37.9973 22.7033C37.9932 22.7467 37.995 22.7905 38.0028 22.8334C38.0193 22.9183 38.03 23.0041 38.0347 23.0905V23.0811C38.0613 23.3719 37.9948 23.6635 37.8446 23.9139C37.6945 24.1643 37.4686 24.3605 37.1996 24.474C37.1189 24.5064 37.0359 24.5324 36.9511 24.5519C36.8544 24.5752 36.7563 24.5921 36.6574 24.6025C36.5757 24.6145 36.4931 24.62 36.4105 24.6189C36.4648 24.5201 36.512 24.4176 36.5515 24.312C36.5515 24.305 36.5554 24.2987 36.5585 24.2917C36.5874 24.2168 36.6113 24.14 36.6302 24.0619C36.6372 24.0331 36.6403 24.0027 36.6465 23.9739C36.6582 23.9154 36.6707 23.857 36.6769 23.7963C36.6866 23.7018 36.6892 23.6068 36.6847 23.5119C36.6915 23.2445 36.6245 22.9804 36.4913 22.7485C36.358 22.5165 36.1635 22.3258 35.9291 22.1969C35.8612 22.1645 35.7906 22.1384 35.7179 22.119C35.4425 22.0467 35.1514 22.0621 34.8851 22.163C34.6188 22.264 34.3906 22.4455 34.2324 22.6823C34.0561 22.9862 33.9836 23.3393 34.0257 23.6881C34.0679 24.037 34.2225 24.3626 34.4661 24.6158C34.5573 24.7328 34.6584 24.8418 34.7683 24.9414C34.6725 25.0107 34.5736 25.077 34.4723 25.1408C34.4435 25.1595 34.4131 25.1774 34.3843 25.1946C34.2682 25.2655 34.1506 25.3325 34.0329 25.3964L33.9963 25.4166L33.8826 25.475C33.0662 22.1042 30.1846 19.3208 26.3301 17.9965V5.07812H16.3338V17.9482C15.5805 18.194 14.8491 18.5023 14.1471 18.8698L11.4026 17.1458C11.0121 16.8386 10.5288 16.6732 10.032 16.6768C9.5352 16.6803 9.05432 16.8526 8.66826 17.1653C8.60235 17.2401 8.54728 17.3237 8.50467 17.4138C8.48909 17.4457 8.48052 17.4792 8.46806 17.512C8.44645 17.5686 8.42952 17.627 8.41742 17.6865C8.41275 17.7122 8.40574 17.7379 8.40184 17.7644V17.7589C8.40184 17.7846 8.40184 17.8111 8.40184 17.8368C8.40184 17.8625 8.40184 17.896 8.40184 17.9264C8.40184 17.9568 8.40184 17.9957 8.40184 18.0316C8.40184 18.0674 8.40885 18.0884 8.41197 18.1173C8.41197 18.1274 8.41197 18.1383 8.41197 18.1492V18.1422C8.42092 18.2072 8.43341 18.2717 8.44936 18.3354C8.45793 18.3697 8.4665 18.4031 8.47741 18.4382C8.5037 18.5227 8.53465 18.6056 8.57011 18.6867C8.57634 18.7007 8.58101 18.7148 8.58725 18.7296C8.63363 18.825 8.68566 18.9176 8.74305 19.0069C8.76019 19.0342 8.7781 19.0591 8.79602 19.0848C8.84043 19.151 8.88717 19.2149 8.93702 19.2764C8.9565 19.3006 8.9752 19.3255 8.99545 19.3489C9.06282 19.4282 9.13515 19.5031 9.21202 19.5732L10.6844 21.2372L10.8339 21.4055C10.0061 22.3058 9.35802 23.356 8.92456 24.4997C8.76124 24.4664 8.59501 24.4494 8.42833 24.4491C7.82911 24.4276 7.2458 24.6445 6.80627 25.0524C6.36674 25.4602 6.10682 26.0257 6.0835 26.6249V29.3008C6.10682 29.8999 6.36674 30.4654 6.80627 30.8732C7.2458 31.2811 7.82911 31.498 8.42833 31.4765C8.73684 31.4767 9.0427 31.4196 9.33042 31.3083C9.91081 32.4242 10.6917 33.4237 11.634 34.2568L11.8069 37.4189C12.0359 38.9769 12.9014 39.1553 14.2507 39.1553C14.8669 39.1553 15.603 38.8608 15.9871 37.4189L16.1429 36.8603C19.4559 37.9832 23.0466 37.9832 26.3597 36.8603L26.5155 37.4189C26.8987 38.8608 27.6349 39.1553 28.2519 39.1553C29.6011 39.1553 30.4666 38.9792 30.6956 37.4189L30.8686 34.2561C31.8349 33.4375 32.6221 32.4284 33.1809 31.2919C33.7397 30.1554 34.0581 28.9159 34.1163 27.6508C34.1163 27.5776 34.1233 27.5059 34.1233 27.4327C34.1233 27.3758 34.1194 27.3197 34.1179 27.2629C34.1124 27.0019 34.096 26.7433 34.0664 26.4878C34.6521 26.2269 35.1987 25.8861 35.6907 25.475C36.0677 25.5999 36.4682 25.6374 36.8619 25.5848C37.2555 25.5322 37.6321 25.3907 37.9631 25.1712C37.9981 25.1478 38.0293 25.1206 38.0636 25.0933C38.1344 25.0421 38.2025 24.9872 38.2677 24.9289C38.3011 24.9009 38.3331 24.8651 38.3666 24.8308Z" fill="#DDE9EB"/>
<path opacity="0.385" d="M35.5721 23.6113C35.5661 23.646 35.558 23.6804 35.548 23.7141C35.5425 23.7359 35.5394 23.7577 35.5324 23.7796C35.5144 23.8329 35.4928 23.885 35.4677 23.9354C35.4416 23.9897 35.4111 24.0418 35.3766 24.0912C35.3696 24.1013 35.3649 24.1114 35.3587 24.1216C35.2727 24.0487 35.1944 23.9673 35.125 23.8785C34.9736 23.713 34.8863 23.4989 34.8788 23.2748C34.881 23.2124 34.8995 23.1517 34.9325 23.0987C34.9705 23.0437 35.0216 22.9992 35.0812 22.9691C35.1408 22.939 35.207 22.9244 35.2738 22.9265C35.2946 22.9278 35.3152 22.9312 35.3353 22.9367C35.3728 22.9491 35.4066 22.9708 35.4335 22.9998C35.4459 23.0109 35.4574 23.0232 35.4677 23.0364C35.4724 23.0426 35.4747 23.0496 35.4794 23.0559C35.4927 23.075 35.5042 23.0953 35.5137 23.1166C35.5204 23.1293 35.5264 23.1423 35.5316 23.1556C35.5371 23.1719 35.541 23.1891 35.5456 23.2062C35.5503 23.2234 35.5565 23.2444 35.5604 23.2631C35.5627 23.2713 35.5646 23.2796 35.5659 23.288C35.5698 23.3145 35.5729 23.3386 35.5752 23.3659C35.5776 23.3932 35.5807 23.4126 35.5823 23.4321C35.585 23.492 35.5816 23.5521 35.5721 23.6113ZM38.2465 24.7097C38.301 24.6528 38.354 24.5952 38.4023 24.5329C38.4334 24.4931 38.4615 24.455 38.4903 24.4113C38.5331 24.3482 38.5729 24.2836 38.6095 24.2166C38.6336 24.1722 38.657 24.1286 38.678 24.0818C38.7108 24.0117 38.738 23.9393 38.7637 23.8653C38.7801 23.8193 38.7972 23.7741 38.8105 23.7266C38.8324 23.644 38.8498 23.5602 38.8627 23.4757C38.8697 23.4329 38.8806 23.3916 38.8853 23.3488C38.8996 23.2247 38.9051 23.0997 38.9016 22.9748C38.9016 22.9671 38.9016 22.96 38.9016 22.9523C38.8975 22.8074 38.8818 22.6631 38.8549 22.5207C38.8388 22.4438 38.8043 22.3719 38.7542 22.3114C38.7041 22.2508 38.64 22.2034 38.5674 22.1732C38.576 22.1732 38.5853 22.1732 38.5931 22.1779C38.572 22.1696 38.5504 22.1626 38.5285 22.1569C38.5049 22.1473 38.4807 22.1395 38.456 22.1335C38.3968 22.1223 38.3361 22.1223 38.2769 22.1335C38.1603 22.1568 38.0563 22.2219 37.9845 22.3167C37.9128 22.4114 37.8782 22.5292 37.8874 22.6477C37.884 22.6268 37.8822 22.6057 37.8819 22.5846C37.8777 22.628 37.8796 22.6717 37.8874 22.7147C37.9039 22.7995 37.9146 22.8854 37.9193 22.9717V22.9663C37.9456 23.2571 37.8788 23.5487 37.7286 23.7991C37.5783 24.0494 37.3524 24.2456 37.0834 24.3592C37.0027 24.3915 36.9196 24.4176 36.8349 24.4371C36.7382 24.4604 36.6401 24.4773 36.5412 24.4877C36.4595 24.4997 36.3769 24.5052 36.2943 24.5041C36.3486 24.4053 36.3957 24.3027 36.4353 24.1971C36.4353 24.1901 36.4392 24.1839 36.4423 24.1769C36.4712 24.1019 36.4951 24.0251 36.5139 23.9471C36.521 23.9182 36.5241 23.8886 36.5303 23.859C36.542 23.8006 36.5545 23.7422 36.5607 23.6814C36.5703 23.587 36.573 23.4919 36.5685 23.3971C36.5752 23.1297 36.5083 22.8656 36.375 22.6336C36.2418 22.4017 36.0473 22.2109 35.8128 22.0821C35.745 22.0497 35.6743 22.0236 35.6017 22.0042C35.3263 21.9319 35.0351 21.9472 34.7688 22.0482C34.5026 22.1492 34.2744 22.3307 34.1161 22.5674C33.9399 22.8714 33.8673 23.2245 33.9095 23.5733C33.9517 23.9221 34.1062 24.2477 34.3499 24.5009C34.441 24.618 34.5422 24.7269 34.6521 24.8266C34.5563 24.8959 34.4574 24.9621 34.3561 25.026L34.2673 25.0797C34.1512 25.1506 34.0336 25.2176 33.9159 25.2815L33.8793 25.3018L33.7656 25.3602C32.9492 21.9894 30.0684 19.206 26.2131 17.8817V4.96094H16.2136V17.831C15.4604 18.0769 14.7289 18.3851 14.0269 18.7526L11.2825 17.0286C10.892 16.7214 10.4087 16.556 9.9119 16.5596C9.41508 16.5631 8.93421 16.7354 8.54815 17.0481C8.48206 17.1227 8.42697 17.2064 8.38455 17.2966C8.36897 17.3286 8.3604 17.3621 8.34794 17.3948C8.32641 17.4515 8.30947 17.5098 8.2973 17.5693C8.29263 17.595 8.28562 17.6207 8.28172 17.6472V17.6417C8.28172 17.6674 8.28172 17.6939 8.28172 17.7196C8.28172 17.7453 8.28172 17.7788 8.28172 17.8092C8.28172 17.8396 8.28172 17.8785 8.28172 17.9144C8.28172 17.9502 8.28873 17.9712 8.29185 18.0001C8.29185 18.0102 8.29185 18.0211 8.29185 18.032V18.025C8.30084 18.0901 8.31359 18.1546 8.33002 18.2182C8.33859 18.2525 8.34638 18.286 8.35729 18.321C8.3837 18.4056 8.41491 18.4885 8.45077 18.5695C8.45622 18.5836 8.4609 18.5983 8.46713 18.6124C8.51351 18.7078 8.56554 18.8004 8.62293 18.8897C8.64007 18.917 8.65799 18.9419 8.6759 18.9676C8.72031 19.0338 8.76705 19.0977 8.81691 19.1592C8.83638 19.1834 8.85508 19.2083 8.87611 19.2317C8.94308 19.3111 9.01516 19.386 9.0919 19.456L10.5642 21.12L10.7138 21.2883C9.88599 22.1886 9.23791 23.2389 8.80444 24.3825C8.64112 24.3492 8.47489 24.3322 8.30821 24.3319C7.70899 24.3104 7.12569 24.5274 6.68615 24.9352C6.24662 25.3431 5.98671 25.9085 5.96338 26.5077V29.1836C5.98671 29.7827 6.24662 30.3482 6.68615 30.756C7.12569 31.1639 7.70899 31.3809 8.30821 31.3594C8.61672 31.3595 8.92258 31.3024 9.21031 31.1911C9.79093 32.3071 10.5721 33.3066 11.5146 34.1397L11.6876 37.3025C11.9166 38.8605 12.7821 39.0381 14.1313 39.0381C14.7475 39.0381 15.4837 38.7436 15.8678 37.3025L16.0236 36.7439C19.3366 37.8668 22.9273 37.8668 26.2403 36.7439L26.3961 37.3025C26.7794 38.7436 27.5156 39.0381 28.1325 39.0381C29.4818 39.0381 30.3473 38.862 30.5763 37.3025L30.7492 34.1389C31.7156 33.3203 32.5027 32.3113 33.0615 31.1748C33.6203 30.0383 33.9388 28.7987 33.997 27.5336C33.997 27.4604 34.004 27.3887 34.004 27.3155C34.004 27.2586 34.0001 27.2025 33.9985 27.1457C33.9931 26.8847 33.9767 26.6261 33.9479 26.3706C34.5334 26.1096 35.0801 25.7688 35.5721 25.3578C36.2031 25.5659 36.8894 25.5275 37.4932 25.2503C37.6152 25.1942 37.7327 25.1285 37.8445 25.054C37.8796 25.0307 37.9107 25.0034 37.945 24.9761C38.0159 24.9251 38.0841 24.8702 38.1491 24.8118C38.181 24.7837 38.213 24.7479 38.2465 24.7136V24.7097Z" fill="#D4E3E6"/>
<path opacity="0.462" d="M35.4527 23.498C35.4469 23.5328 35.4388 23.5671 35.4285 23.6008C35.4231 23.6226 35.42 23.6445 35.4129 23.6663C35.3951 23.7197 35.3735 23.7717 35.3483 23.8221C35.3221 23.8764 35.2916 23.9285 35.2571 23.9779C35.2501 23.988 35.2462 23.9981 35.2392 24.0083C35.1532 23.9354 35.0749 23.854 35.0055 23.7652C34.8541 23.5997 34.7668 23.3856 34.7594 23.1615C34.7616 23.0991 34.7801 23.0384 34.8131 22.9854C34.8511 22.9305 34.9022 22.886 34.9618 22.8559C35.0214 22.8258 35.0876 22.8112 35.1543 22.8133C35.1751 22.8145 35.1958 22.8179 35.2159 22.8234C35.2534 22.8358 35.2872 22.8575 35.314 22.8865C35.3265 22.8977 35.338 22.9099 35.3483 22.9231C35.353 22.9293 35.3553 22.9363 35.36 22.9426C35.3734 22.9618 35.3851 22.9821 35.395 23.0033C35.4005 23.0166 35.4075 23.029 35.4122 23.0423C35.4168 23.0555 35.4215 23.0758 35.4262 23.0929C35.4309 23.1101 35.4371 23.1311 35.441 23.1498C35.4433 23.158 35.4451 23.1663 35.4464 23.1747C35.4511 23.2012 35.4535 23.2254 35.4558 23.2526C35.4581 23.2799 35.4612 23.2994 35.4628 23.3188C35.4659 23.3787 35.4625 23.4388 35.4527 23.498ZM38.127 24.5964C38.1816 24.5395 38.2345 24.4819 38.2828 24.4196C38.314 24.3799 38.342 24.3417 38.3709 24.2981C38.4138 24.2352 38.4536 24.1702 38.4901 24.1033C38.5142 24.0589 38.5376 24.0153 38.5586 23.9685C38.5913 23.8984 38.6186 23.826 38.6443 23.752C38.6607 23.706 38.6778 23.6608 38.691 23.6133C38.713 23.5307 38.7304 23.447 38.7432 23.3625C38.7502 23.3196 38.7611 23.2783 38.7658 23.2355C38.7802 23.1114 38.7857 22.9864 38.7822 22.8616C38.7822 22.8538 38.7822 22.8468 38.7822 22.839C38.7769 22.6932 38.7599 22.5481 38.7315 22.405C38.7156 22.3281 38.681 22.2562 38.6309 22.1957C38.5808 22.1351 38.5167 22.0877 38.4441 22.0576C38.4527 22.0576 38.462 22.0576 38.4698 22.0623C38.4487 22.054 38.4271 22.0469 38.4051 22.0413C38.3816 22.0317 38.3574 22.0239 38.3327 22.0179C38.2735 22.0067 38.2127 22.0067 38.1535 22.0179C38.037 22.0411 37.933 22.1063 37.8612 22.201C37.7894 22.2958 37.7549 22.4135 37.764 22.532C37.7607 22.5112 37.7589 22.4901 37.7586 22.4689C37.7547 22.5123 37.7565 22.5561 37.764 22.599C37.7806 22.6839 37.7912 22.7698 37.796 22.8561V22.8506C37.8223 23.1414 37.7555 23.4331 37.6052 23.6834C37.455 23.9338 37.229 24.1299 36.9601 24.2435C36.8794 24.2759 36.7963 24.302 36.7116 24.3214C36.6149 24.3447 36.5168 24.3617 36.4179 24.3721C36.3361 24.3841 36.2535 24.3895 36.1709 24.3884C36.2253 24.2897 36.2724 24.1871 36.3119 24.0815C36.3119 24.0745 36.3158 24.0682 36.3189 24.0612C36.3478 23.9862 36.372 23.9095 36.3914 23.8314C36.3984 23.8026 36.4015 23.7722 36.407 23.7434C36.4187 23.685 36.4311 23.6265 36.4374 23.5658C36.447 23.4713 36.4496 23.3763 36.4451 23.2814C36.4519 23.014 36.385 22.7499 36.2517 22.518C36.1184 22.2861 35.9239 22.0953 35.6895 21.9665C35.6217 21.9341 35.551 21.908 35.4784 21.8886C35.2029 21.8162 34.9116 21.8316 34.6453 21.9327C34.379 22.0339 34.1509 22.2156 33.9928 22.4526C33.8164 22.7565 33.7438 23.1096 33.786 23.4585C33.8281 23.8073 33.9828 24.133 34.2265 24.3861C34.3179 24.503 34.419 24.6119 34.5288 24.7117C34.433 24.781 34.334 24.8473 34.2327 24.9111L34.1439 24.9657C34.0279 25.0366 33.9102 25.1028 33.7926 25.1667L33.756 25.1869L33.6423 25.2453C32.8258 21.8745 29.9451 19.0911 26.0897 17.7668V4.84375H16.0903V17.7138C15.3371 17.9602 14.6057 18.2687 13.9036 18.6362L11.1591 16.9122C10.7688 16.6051 10.2856 16.4397 9.78896 16.4433C9.29227 16.4468 8.81152 16.619 8.42559 16.9317C8.35952 17.0063 8.30444 17.09 8.262 17.1802C8.24642 17.2122 8.23785 17.2456 8.22538 17.2784C8.2041 17.3351 8.18743 17.3935 8.17552 17.4529C8.17007 17.4786 8.16306 17.5043 8.15917 17.5308V17.5253C8.15917 17.551 8.15917 17.5775 8.15917 17.6032C8.15917 17.6289 8.15917 17.6624 8.15917 17.6928C8.15917 17.7232 8.15917 17.7621 8.15917 17.798C8.15917 17.8338 8.16618 17.8548 8.16929 17.8837C8.16929 17.8938 8.16929 17.9047 8.16929 17.9156V17.9086C8.17829 17.9737 8.19103 18.0382 8.20746 18.1018C8.21603 18.1361 8.22382 18.1703 8.23473 18.2046C8.26105 18.2892 8.29226 18.3722 8.32821 18.4531C8.33366 18.4671 8.33834 18.4819 8.34457 18.496C8.39096 18.5914 8.44298 18.684 8.50037 18.7733C8.51751 18.8006 8.53543 18.8255 8.55335 18.8512C8.59801 18.9171 8.64501 18.9808 8.69435 19.0421C8.71382 19.0662 8.73252 19.0911 8.75355 19.1145C8.82067 19.1938 8.89274 19.2687 8.96934 19.3389L10.4417 21.002L10.5912 21.1703C9.76343 22.0706 9.11535 23.1209 8.68188 24.2646C8.51857 24.2312 8.35233 24.2143 8.18565 24.2139C7.58643 24.1924 7.00313 24.4094 6.56359 24.8172C6.12406 25.2251 5.86415 25.7906 5.84082 26.3897V29.0656C5.86415 29.6648 6.12406 30.2302 6.56359 30.6381C7.00313 31.0459 7.58643 31.2629 8.18565 31.2414C8.49416 31.2415 8.80002 31.1845 9.08775 31.0731C9.66815 32.189 10.4493 33.1883 11.3921 34.0209L11.565 37.1845C11.794 38.7425 12.6595 38.9201 14.0088 38.9201C14.625 38.9201 15.3611 38.6257 15.7452 37.1845L15.901 36.6259C19.214 37.7489 22.8047 37.7489 26.1178 36.6259L26.2736 37.1845C26.6568 38.6257 27.3938 38.9201 28.0092 38.9201C29.3585 38.9201 30.2239 38.7441 30.4537 37.1845L30.6267 34.0209C31.5931 33.2024 32.3803 32.1933 32.9391 31.0568C33.4979 29.9203 33.8163 28.6808 33.8744 27.4157C33.8744 27.3424 33.8814 27.2708 33.8814 27.1975C33.8814 27.1407 33.8775 27.0846 33.876 27.0277C33.8705 26.7667 33.8541 26.5081 33.8253 26.2526C34.4109 25.9916 34.9575 25.6508 35.4496 25.2399C36.0805 25.448 36.7668 25.4096 37.3706 25.1324C37.4928 25.0764 37.6102 25.0108 37.7219 24.9361C37.757 24.9127 37.7882 24.8854 37.8224 24.8582C37.8935 24.807 37.9619 24.7521 38.0273 24.6938C38.0585 24.6665 38.0935 24.6307 38.127 24.5964Z" fill="#CBDDE1"/>
<path opacity="0.538" d="M35.332 23.3785C35.3259 23.4129 35.3178 23.447 35.3078 23.4805C35.3024 23.5023 35.2993 23.5242 35.2915 23.546C35.2736 23.5994 35.252 23.6514 35.2268 23.7018V23.7057C35.2002 23.7597 35.1697 23.8118 35.1357 23.8615C35.1294 23.8716 35.1248 23.8817 35.1178 23.8919C35.0319 23.8189 34.9536 23.7375 34.8841 23.6488C34.7327 23.4833 34.6454 23.2692 34.6379 23.0451C34.641 22.9858 34.6586 22.9283 34.6893 22.8776C34.7274 22.8228 34.7785 22.7783 34.8381 22.7483C34.8977 22.7182 34.9638 22.7035 35.0305 22.7054C35.0513 22.7069 35.0719 22.7103 35.0921 22.7155C35.1293 22.7281 35.1628 22.7498 35.1894 22.7786C35.2023 22.7897 35.214 22.8019 35.2245 22.8153C35.2292 22.8207 35.2315 22.8285 35.2362 22.834C35.2498 22.853 35.2616 22.8734 35.2712 22.8947C35.2767 22.908 35.2837 22.9204 35.2884 22.9344C35.293 22.9485 35.2985 22.9679 35.3032 22.9843C35.3078 23.0007 35.3141 23.0225 35.318 23.0412C35.3219 23.0599 35.3219 23.0575 35.3234 23.0661C35.3273 23.0926 35.3304 23.1175 35.3328 23.144C35.3351 23.1705 35.3382 23.19 35.3398 23.2094C35.3426 23.2659 35.34 23.3225 35.332 23.3785ZM38.0063 24.4761C38.0613 24.4202 38.1133 24.3614 38.1621 24.3001C38.1933 24.2603 38.2221 24.2222 38.2502 24.1778C38.293 24.1147 38.332 24.05 38.3694 23.983C38.3935 23.9386 38.4169 23.895 38.4379 23.849C38.4699 23.7781 38.4979 23.7057 38.5228 23.6324C38.5392 23.5865 38.5563 23.5413 38.5696 23.4938C38.5918 23.4112 38.6095 23.3275 38.6225 23.2429C38.6296 23.2001 38.6405 23.1596 38.6451 23.116C38.6598 22.9919 38.6652 22.8669 38.6615 22.742C38.6615 22.735 38.6615 22.7272 38.6615 22.7194C38.6557 22.5737 38.6387 22.4287 38.6109 22.2855C38.5947 22.2084 38.5601 22.1364 38.5098 22.0757C38.4596 22.0151 38.3954 21.9675 38.3226 21.9373C38.3312 21.9373 38.3405 21.9373 38.3491 21.942C38.3281 21.9334 38.3065 21.9264 38.2844 21.9209C38.261 21.9111 38.2367 21.903 38.212 21.8968C38.1531 21.8856 38.0925 21.8856 38.0336 21.8968C37.917 21.9202 37.813 21.9855 37.7412 22.0804C37.6695 22.1753 37.6349 22.2931 37.6441 22.4117V22.4102C37.6408 22.3893 37.6387 22.3682 37.6379 22.3471C37.634 22.3905 37.6361 22.4343 37.6441 22.4772C37.6604 22.562 37.6708 22.6479 37.6753 22.7342V22.7288C37.7019 23.0197 37.6352 23.3116 37.4849 23.5621C37.3347 23.8127 37.1086 24.0089 36.8394 24.1224C36.759 24.1548 36.6761 24.1809 36.5917 24.2003C36.4947 24.2234 36.3963 24.2403 36.2972 24.251C36.2154 24.263 36.1329 24.2684 36.0502 24.2673C36.105 24.1687 36.1524 24.0661 36.192 23.9604L36.199 23.9409C36.2274 23.8658 36.2513 23.7891 36.2707 23.7111C36.2777 23.6823 36.2808 23.6519 36.2871 23.6223C36.2987 23.5639 36.3112 23.5062 36.3174 23.4455C36.3271 23.3508 36.3295 23.2554 36.3245 23.1604C36.3312 22.8931 36.2643 22.629 36.131 22.3972C35.9978 22.1654 35.8032 21.9748 35.5688 21.8462C35.5013 21.8135 35.4309 21.7875 35.3585 21.7683C35.083 21.6958 34.7919 21.7111 34.5255 21.8121C34.2592 21.9131 34.0311 22.0946 33.8729 22.3315C33.6965 22.6354 33.6239 22.9885 33.6661 23.3374C33.7082 23.6862 33.8629 24.0119 34.1066 24.265C34.1981 24.3821 34.2994 24.491 34.4096 24.5906C34.3138 24.6607 34.2149 24.7269 34.1136 24.7908L34.0248 24.8446C33.9087 24.9155 33.7911 24.9825 33.6742 25.0456L33.6369 25.0666C33.5987 25.0869 33.559 25.1048 33.5231 25.125C32.7067 21.7542 29.8259 18.9708 25.9714 17.6465V4.72656H15.9735V17.5966C15.2202 17.8427 14.4888 18.1513 13.7868 18.519L11.0424 16.7943C10.6519 16.4874 10.1687 16.3222 9.67203 16.3259C9.17537 16.3296 8.6947 16.5019 8.3088 16.8145C8.24262 16.8891 8.18752 16.9728 8.1452 17.063C8.1304 17.095 8.12105 17.1277 8.10859 17.1612C8.08699 17.2179 8.07005 17.2762 8.05795 17.3357C8.0525 17.3614 8.04549 17.3863 8.04237 17.4136V17.4081C8.04237 17.4338 8.04237 17.4595 8.04237 17.486C8.04237 17.5125 8.04237 17.546 8.04237 17.5764C8.04237 17.6068 8.04237 17.6457 8.04237 17.6816C8.04237 17.7174 8.0486 17.7384 8.0525 17.7673C8.0525 17.7774 8.0525 17.7883 8.0525 17.7984V17.7914C8.06196 17.8564 8.0747 17.9209 8.09067 17.9846C8.09924 18.0196 8.10781 18.0531 8.11794 18.0874C8.14448 18.1722 8.17569 18.2554 8.21142 18.3367C8.21765 18.35 8.22155 18.3648 8.22856 18.3788C8.27473 18.4746 8.32676 18.5675 8.38436 18.6569C8.40072 18.6841 8.41941 18.7091 8.43733 18.7348C8.48173 18.801 8.52848 18.8649 8.57833 18.9264C8.59781 18.9506 8.6165 18.9747 8.63676 18.9989C8.7044 19.0779 8.77672 19.1528 8.85332 19.2232L10.3257 20.8864L10.4752 21.0555C9.64737 21.9557 8.99928 23.006 8.56587 24.1497C8.40258 24.1161 8.23634 24.0989 8.06964 24.0983C7.47042 24.077 6.88721 24.2942 6.44782 24.7022C6.00843 25.1102 5.74871 25.6757 5.72559 26.2748V28.9508C5.74871 29.5499 6.00843 30.1155 6.44782 30.5235C6.88721 30.9314 7.47042 31.1486 8.06964 31.1273C8.37816 31.1275 8.68404 31.0705 8.97173 30.9591C9.55245 32.0747 10.3336 33.074 11.2761 33.9069L11.4498 37.0696C11.6788 38.6277 12.5443 38.8053 13.8935 38.8053C14.509 38.8053 15.2459 38.5116 15.63 37.0696L15.7858 36.5111C19.0987 37.6344 22.6896 37.6344 26.0025 36.5111L26.1583 37.0696C26.5416 38.5116 27.2778 38.8053 27.894 38.8053C29.2432 38.8053 30.1087 38.6292 30.3377 37.0696L30.5115 33.9069C31.4779 33.0884 32.2651 32.0793 32.8239 30.9428C33.3828 29.8063 33.7011 28.5667 33.7592 27.3016C33.7592 27.2284 33.7662 27.1567 33.7662 27.0835C33.7662 27.0266 33.7623 26.9705 33.7607 26.9136C33.7555 26.654 33.7386 26.3943 33.7101 26.1346C34.2958 25.874 34.8425 25.5331 35.3343 25.1219C35.9653 25.33 36.6517 25.2913 37.2554 25.0136C37.3773 24.9576 37.4945 24.892 37.6059 24.8173C37.6418 24.794 37.6729 24.7667 37.7064 24.7394C37.7773 24.6872 37.8466 24.6335 37.9105 24.575C37.9401 24.547 37.9728 24.5127 38.0063 24.4761Z" fill="#C3D8DD"/>
<path opacity="0.615" d="M35.2122 23.248C35.2061 23.2825 35.198 23.3165 35.188 23.3501C35.1826 23.3719 35.1794 23.3937 35.1717 23.4155C35.1538 23.4689 35.1322 23.5209 35.107 23.5713V23.5752C35.0802 23.6291 35.0497 23.6812 35.0159 23.731C35.0088 23.7411 35.0042 23.7512 34.9979 23.7614C34.9122 23.6883 34.8339 23.6069 34.7642 23.5183C34.6128 23.3528 34.5256 23.1387 34.5181 22.9146C34.5204 22.8522 34.5389 22.7916 34.5718 22.7385C34.6099 22.6837 34.661 22.6393 34.7206 22.6092C34.7802 22.5791 34.8463 22.5644 34.913 22.5664C34.9338 22.5676 34.9545 22.571 34.9746 22.5765C35.0118 22.589 35.0453 22.6107 35.0719 22.6396C35.0848 22.6506 35.0965 22.6629 35.107 22.6762C35.1117 22.6817 35.114 22.6894 35.1187 22.6949C35.1326 22.7141 35.1443 22.7347 35.1537 22.7564C35.1592 22.7697 35.1662 22.7814 35.1709 22.7954C35.1755 22.8094 35.181 22.8289 35.1857 22.8453C35.1903 22.8616 35.1966 22.8834 35.2005 22.9021C35.2044 22.9208 35.2044 22.9193 35.2059 22.927C35.2098 22.9535 35.2129 22.9785 35.2153 23.005C35.2176 23.0314 35.2207 23.0509 35.2223 23.0712C35.2249 23.1303 35.2215 23.1896 35.2122 23.248ZM37.8865 24.3456C37.9415 24.2897 37.9935 24.2309 38.0423 24.1696C38.0735 24.1298 38.1023 24.0917 38.1303 24.0473C38.1732 23.9842 38.2121 23.9203 38.2495 23.8525C38.2737 23.8081 38.2971 23.7645 38.3181 23.7185C38.35 23.6484 38.3781 23.5752 38.4038 23.502C38.4201 23.456 38.4373 23.4108 38.4497 23.3633C38.472 23.2807 38.4897 23.197 38.5027 23.1125C38.5097 23.0696 38.5206 23.0291 38.5253 22.9855C38.54 22.8614 38.5454 22.7364 38.5417 22.6115C38.5417 22.6045 38.5417 22.5967 38.5417 22.589C38.5358 22.4435 38.5189 22.2987 38.491 22.1558C38.475 22.0788 38.4403 22.0069 38.3901 21.9463C38.3398 21.8857 38.2755 21.8384 38.2028 21.8084C38.2117 21.8092 38.2205 21.8105 38.2293 21.8123C38.2082 21.804 38.1866 21.7969 38.1646 21.7913C38.1411 21.7813 38.1169 21.7733 38.0922 21.7671C38.0332 21.7559 37.9727 21.7559 37.9138 21.7671C37.7972 21.7904 37.6932 21.8555 37.6215 21.9503C37.5497 22.045 37.5151 22.1627 37.5243 22.2812V22.2774C37.5209 22.2565 37.5188 22.2354 37.518 22.2143C37.5142 22.2577 37.5163 22.3015 37.5243 22.3443C37.5406 22.4292 37.551 22.5151 37.5554 22.6014V22.596C37.582 22.8869 37.5154 23.1788 37.3651 23.4293C37.2148 23.6799 36.9887 23.8761 36.7196 23.9896C36.6391 24.022 36.5563 24.0481 36.4718 24.0675C36.3748 24.0906 36.2765 24.1075 36.1774 24.1182C36.0956 24.1302 36.013 24.1356 35.9304 24.1345C35.9852 24.0359 36.0326 23.9333 36.0722 23.8276C36.0722 23.8214 36.0761 23.8143 36.0792 23.8081C36.108 23.7331 36.1319 23.6564 36.1509 23.5783C36.1579 23.5495 36.161 23.5191 36.1672 23.4895C36.1789 23.4311 36.1914 23.3734 36.1976 23.3127C36.2073 23.2179 36.2099 23.1226 36.2054 23.0275C36.212 22.7603 36.145 22.4963 36.0118 22.2645C35.8785 22.0328 35.6841 21.8421 35.4498 21.7133C35.382 21.6808 35.3113 21.6547 35.2386 21.6354C34.9632 21.563 34.672 21.5783 34.4057 21.6793C34.1394 21.7803 33.9112 21.9618 33.7531 22.1987C33.5767 22.5026 33.5041 22.8557 33.5462 23.2045C33.5884 23.5534 33.743 23.879 33.9868 24.1322C34.0778 24.2493 34.179 24.3583 34.289 24.4578C34.1932 24.5279 34.0943 24.5941 33.993 24.658C33.9642 24.6767 33.9338 24.6938 33.9042 24.7118C33.7881 24.7827 33.6705 24.8496 33.5536 24.9127L33.5162 24.9338L33.4033 24.9922C32.5861 21.6214 29.7053 18.838 25.8508 17.5137V4.59375H15.8537V17.4638C15.1004 17.7099 14.369 18.0185 13.667 18.3862L10.9225 16.6614C10.532 16.3545 10.0489 16.1894 9.5522 16.1931C9.05555 16.1968 8.57487 16.369 8.18897 16.6817C8.12259 16.7561 8.06747 16.8398 8.02537 16.9302C8.01133 16.9622 7.99911 16.995 7.98876 17.0284C7.96716 17.085 7.95022 17.1434 7.93812 17.2029C7.93267 17.2286 7.92566 17.2535 7.92254 17.2808V17.2753C7.92254 17.301 7.92254 17.3267 7.92254 17.3532C7.92254 17.3797 7.92254 17.4132 7.92254 17.4436C7.92254 17.474 7.92254 17.5129 7.92254 17.5487C7.92254 17.5846 7.92878 17.6056 7.93267 17.6344C7.93267 17.6446 7.93267 17.6555 7.93267 17.6656V17.6586C7.94161 17.7236 7.95409 17.7881 7.97006 17.8518C7.97863 17.8868 7.9872 17.9203 7.99733 17.9546C8.0238 18.0391 8.055 18.1221 8.09081 18.2031C8.09704 18.2171 8.10094 18.2319 8.10795 18.246C8.15412 18.3418 8.20615 18.4347 8.26375 18.5241C8.28089 18.5513 8.29881 18.5763 8.31673 18.602C8.36113 18.6682 8.40787 18.7321 8.45773 18.7936C8.4772 18.8178 8.4959 18.8427 8.51615 18.8661C8.5838 18.9451 8.65611 19.02 8.73272 19.0904L10.2051 20.7536L10.3546 20.9226C9.52695 21.8231 8.87888 22.8733 8.44526 24.0169C8.28197 23.9833 8.11574 23.9661 7.94903 23.9655C7.34981 23.9442 6.7666 24.1614 6.32721 24.5694C5.88782 24.9773 5.62811 25.5429 5.60498 26.142V28.8179C5.62831 29.417 5.88811 29.9823 6.32748 30.3901C6.76684 30.798 7.34994 31.015 7.94903 30.9937C8.25755 30.9939 8.56343 30.9369 8.85113 30.8255C9.43183 31.9411 10.213 32.9404 11.1555 33.7733L11.3292 36.936C11.5582 38.4941 12.4237 38.6725 13.7729 38.6725C14.3891 38.6725 15.1253 38.378 15.5094 36.936L15.6652 36.3775C18.9781 37.5008 22.569 37.5008 25.8819 36.3775L26.0377 36.936C26.421 38.378 27.1572 38.6725 27.7734 38.6725C29.1226 38.6725 29.9881 38.4964 30.2171 36.936L30.3908 33.7733C31.3573 32.9548 32.1445 31.9457 32.7033 30.8092C33.2621 29.6727 33.5805 28.4331 33.6386 27.168C33.6386 27.0948 33.6456 27.0231 33.6456 26.9499C33.6456 26.893 33.6417 26.8369 33.6401 26.78C33.6349 26.5204 33.618 26.2607 33.5895 26.001C34.1751 25.7403 34.7218 25.3994 35.2137 24.9883C35.8447 25.1964 36.531 25.158 37.1348 24.8808C37.2566 24.8246 37.3738 24.759 37.4853 24.6845C37.5212 24.6619 37.5523 24.6339 37.5858 24.6066C37.6567 24.5544 37.726 24.5007 37.7899 24.4422C37.8211 24.4165 37.853 24.3815 37.8865 24.3464V24.3456Z" fill="#BAD2D8"/>
<path opacity="0.692" d="M35.0924 23.1386C35.0864 23.1731 35.0784 23.2072 35.0683 23.2407C35.0628 23.2625 35.0597 23.2843 35.0519 23.3061C35.0341 23.3595 35.0125 23.4116 34.9873 23.4619V23.4658C34.9605 23.5198 34.93 23.5718 34.8961 23.6216C34.8891 23.6317 34.8844 23.6419 34.8782 23.652C34.7923 23.579 34.714 23.4976 34.6445 23.4089C34.4931 23.2435 34.4058 23.0294 34.3983 22.8052C34.4005 22.7428 34.419 22.6821 34.4521 22.6291C34.4902 22.5743 34.5413 22.5299 34.6009 22.4998C34.6605 22.4698 34.7266 22.455 34.7933 22.457C34.8141 22.4585 34.8347 22.4619 34.8548 22.4671C34.8921 22.4796 34.9256 22.5013 34.9522 22.5302C34.9651 22.5412 34.9768 22.5535 34.9873 22.5668C34.9919 22.5723 34.9943 22.5801 34.999 22.5855C35.0126 22.6048 35.0244 22.6255 35.034 22.6471C35.0395 22.6603 35.0465 22.672 35.0511 22.686C35.0558 22.7 35.0613 22.7195 35.066 22.7359C35.0706 22.7522 35.0769 22.7741 35.0808 22.7927C35.0846 22.8114 35.0847 22.8091 35.0862 22.8177C35.0901 22.8442 35.0932 22.8691 35.0956 22.8956C35.0979 22.9221 35.101 22.9415 35.1026 22.9618C35.1052 23.0209 35.1018 23.0802 35.0924 23.1386ZM37.7668 24.2363C37.8219 24.1804 37.8739 24.1217 37.9226 24.0602C37.9538 24.0205 37.9826 23.9823 38.0106 23.9379C38.0535 23.8748 38.0924 23.8101 38.1298 23.7431C38.154 23.6987 38.1773 23.6551 38.1984 23.6092C38.2305 23.5384 38.2591 23.4662 38.2841 23.3926C38.3004 23.3466 38.3176 23.3014 38.33 23.2539C38.3522 23.1713 38.3699 23.0876 38.383 23.0031C38.39 22.9602 38.4009 22.9197 38.4056 22.8761C38.4205 22.752 38.426 22.6271 38.4219 22.5022C38.4219 22.4952 38.4219 22.4874 38.4219 22.4804C38.4161 22.3349 38.3991 22.1901 38.3713 22.0472C38.3553 21.9702 38.3206 21.8983 38.2704 21.8377C38.2201 21.7771 38.1558 21.7298 38.0831 21.6998C38.0916 21.6998 38.101 21.6998 38.1096 21.7037C38.0885 21.6954 38.0669 21.6883 38.0449 21.6827C38.0215 21.6728 37.9972 21.665 37.9724 21.6593C37.9135 21.6481 37.853 21.6481 37.7941 21.6593C37.6774 21.6827 37.5734 21.748 37.5017 21.8429C37.4299 21.9378 37.3954 22.0556 37.4046 22.1742V22.1703C37.4012 22.1494 37.3991 22.1284 37.3983 22.1072C37.3947 22.1509 37.3968 22.1949 37.4046 22.2381C37.4208 22.323 37.4313 22.4089 37.4357 22.4952V22.4889C37.4623 22.7799 37.3957 23.0717 37.2454 23.3223C37.0951 23.5728 36.869 23.7691 36.5998 23.8826C36.5194 23.915 36.4366 23.941 36.3521 23.9605C36.2551 23.9835 36.1568 24.0005 36.0576 24.0111C35.9759 24.0231 35.8933 24.0286 35.8107 24.0275C35.8656 23.9289 35.913 23.8263 35.9525 23.7205L35.9595 23.7011C35.9881 23.626 36.012 23.5493 36.0312 23.4713C36.0382 23.4424 36.0413 23.4121 36.0475 23.3825C36.0592 23.324 36.0717 23.2664 36.0779 23.2056C36.0876 23.1109 36.0902 23.0156 36.0857 22.9205C36.0923 22.6532 36.0253 22.3893 35.892 22.1575C35.7588 21.9257 35.5644 21.7351 35.33 21.6063C35.2623 21.5738 35.1916 21.5477 35.1189 21.5284C34.8435 21.456 34.5523 21.4713 34.286 21.5722C34.0197 21.6732 33.7915 21.8548 33.6333 22.0916C33.4569 22.3956 33.3843 22.7487 33.4265 23.0975C33.4687 23.4464 33.6233 23.772 33.8671 24.0251C33.9581 24.1423 34.0592 24.2513 34.1693 24.3508C34.0735 24.4209 33.9746 24.4871 33.8733 24.551C33.8445 24.5697 33.8141 24.5868 33.7845 24.6047C33.6684 24.6756 33.5508 24.7426 33.4339 24.8057L33.3965 24.8268L33.2836 24.8852C32.4664 21.5144 29.5856 18.731 25.731 17.4066V4.48438H15.734V17.3545C14.9807 17.6006 14.2492 17.9091 13.5473 18.2768L10.8028 16.5521C10.4123 16.2452 9.92913 16.08 9.43248 16.0837C8.93583 16.0874 8.45515 16.2597 8.06924 16.5723C8.00287 16.6467 7.94775 16.7304 7.90565 16.8208C7.89161 16.8528 7.87939 16.8856 7.86904 16.919C7.84744 16.9757 7.83051 17.034 7.8184 17.0935C7.81295 17.1192 7.80594 17.1441 7.80282 17.1714V17.1659C7.80282 17.1916 7.80282 17.2181 7.80282 17.2438C7.80282 17.2695 7.80282 17.3038 7.80282 17.3342C7.80282 17.3646 7.80282 17.4035 7.80282 17.4394C7.80282 17.4752 7.80906 17.4962 7.81295 17.5251C7.81295 17.5352 7.81295 17.5461 7.81295 17.5562V17.5492C7.82241 17.6142 7.83515 17.6787 7.85112 17.7424C7.85969 17.7775 7.86826 17.811 7.87839 17.8452C7.90493 17.93 7.93614 18.0132 7.97187 18.0945C7.9781 18.1078 7.98199 18.1226 7.98901 18.1374C8.0353 18.2329 8.08733 18.3255 8.14481 18.4147C8.16117 18.442 8.17987 18.4669 8.19778 18.4926C8.24219 18.5588 8.28893 18.6227 8.33878 18.6842C8.35826 18.7084 8.37696 18.7333 8.39721 18.7567C8.46485 18.8357 8.53717 18.9106 8.61378 18.981L10.0861 20.6442L10.2357 20.8133C9.40818 21.7137 8.76037 22.7639 8.3271 23.9075C8.1638 23.8739 7.99757 23.8567 7.83087 23.8561C7.23165 23.8348 6.64843 24.052 6.20905 24.46C5.76966 24.868 5.50994 25.4335 5.48682 26.0327V28.7086C5.50994 29.3077 5.76966 29.8733 6.20905 30.2813C6.64843 30.6893 7.23165 30.9064 7.83087 30.8851C8.13939 30.8854 8.44527 30.8283 8.73296 30.7169C9.31367 31.8325 10.0948 32.8318 11.0373 33.6647L11.211 36.8275C11.44 38.3855 12.3055 38.5639 13.6548 38.5639C14.271 38.5639 15.0071 38.2694 15.3912 36.8275L15.547 36.2689C18.86 37.3922 22.4508 37.3922 25.7638 36.2689L25.9196 36.8275C26.3028 38.2694 27.039 38.5639 27.6552 38.5639C29.0045 38.5639 29.8699 38.3878 30.099 36.8275L30.2727 33.6647C31.2391 32.8462 32.0264 31.8371 32.5852 30.7006C33.144 29.5641 33.4624 28.3245 33.5204 27.0594C33.5204 26.9862 33.5274 26.9145 33.5274 26.8413C33.5274 26.7844 33.5235 26.7283 33.5219 26.6715C33.5168 26.4118 33.4999 26.1521 33.4713 25.8924C34.0571 25.6318 34.6037 25.291 35.0956 24.8797C35.7266 25.0878 36.413 25.0491 37.0166 24.7714C37.1384 24.7155 37.2556 24.6501 37.3672 24.5759C37.403 24.5525 37.4342 24.5253 37.4677 24.498C37.5385 24.4458 37.6079 24.3921 37.6718 24.3336C37.7014 24.3071 37.7333 24.2721 37.7699 24.237L37.7668 24.2363Z" fill="#B1CCD3"/>
<path opacity="0.769" d="M34.9716 23.0136C34.9659 23.0483 34.9581 23.0827 34.9483 23.1164C34.942 23.1383 34.9389 23.1601 34.9319 23.1819C34.9142 23.2354 34.8926 23.2874 34.8673 23.3377C34.8409 23.3919 34.8105 23.444 34.7761 23.4935C34.7691 23.5036 34.7652 23.513 34.7582 23.5231C34.6722 23.4503 34.5939 23.3688 34.5245 23.28C34.373 23.1146 34.2857 22.9005 34.2783 22.6763C34.2803 22.6139 34.2989 22.5532 34.3321 22.5003C34.37 22.4453 34.4212 22.4008 34.4808 22.3707C34.5404 22.3407 34.6065 22.326 34.6733 22.3281C34.6941 22.3294 34.7147 22.3328 34.7348 22.3382C34.7721 22.3507 34.8056 22.3724 34.8322 22.4013C34.8447 22.4125 34.8562 22.4247 34.8665 22.4379C34.8711 22.4442 34.8743 22.4512 34.8782 22.4574C34.8916 22.4766 34.9033 22.497 34.9132 22.5182C34.9187 22.5314 34.9257 22.5439 34.9304 22.5571C34.935 22.5704 34.9397 22.5906 34.9444 22.6078C34.949 22.6249 34.9553 22.6459 34.9592 22.6646C34.9631 22.6833 34.9631 22.681 34.9646 22.6896C34.9693 22.716 34.9716 22.7402 34.974 22.7675C34.9763 22.7947 34.9802 22.8134 34.981 22.8329C34.9841 22.8933 34.981 22.9539 34.9716 23.0136ZM37.6468 24.112C37.7005 24.0552 37.7535 23.9975 37.8026 23.936C37.8337 23.8962 37.8626 23.8581 37.8906 23.8137C37.9336 23.7508 37.9734 23.6858 38.0098 23.6189C38.0339 23.5745 38.0573 23.5309 38.0791 23.4841C38.1111 23.414 38.1383 23.3416 38.164 23.2676C38.1804 23.2216 38.1975 23.1764 38.2108 23.1289C38.2327 23.0463 38.2504 22.9625 38.2638 22.8781C38.2708 22.8352 38.2809 22.7939 38.2863 22.7503C38.3007 22.6262 38.3062 22.5013 38.3027 22.3764C38.3027 22.3686 38.3027 22.3616 38.3027 22.3538C38.2972 22.2083 38.2802 22.0635 38.2521 21.9207C38.2359 21.8436 38.2013 21.7716 38.151 21.7109C38.1008 21.6502 38.0366 21.6027 37.9638 21.5724C37.9724 21.5724 37.9818 21.5724 37.9903 21.5771C37.969 21.5687 37.9471 21.5617 37.9249 21.5561C37.9013 21.5465 37.8771 21.5387 37.8524 21.5327C37.7932 21.5215 37.7325 21.5215 37.6733 21.5327C37.5568 21.5561 37.4529 21.6213 37.3812 21.716C37.3094 21.8107 37.2748 21.9284 37.2837 22.0469C37.2804 22.026 37.2786 22.0049 37.2783 21.9838C37.2744 22.0272 37.2762 22.0709 37.2837 22.1139C37.3003 22.1987 37.311 22.2846 37.3157 22.3709V22.3655C37.3422 22.6563 37.2755 22.9481 37.1253 23.1985C36.975 23.4489 36.7489 23.645 36.4798 23.7584C36.3991 23.7908 36.316 23.8168 36.2313 23.8363C36.1346 23.8593 36.0365 23.8762 35.9376 23.8869C35.8559 23.8991 35.7733 23.9046 35.6907 23.9033C35.745 23.8045 35.7921 23.7019 35.8317 23.5963L35.8387 23.5761C35.8671 23.501 35.891 23.4242 35.9103 23.3463C35.9174 23.3174 35.9205 23.2878 35.9259 23.2582C35.9376 23.1998 35.9501 23.1414 35.9563 23.0806C35.9657 22.9861 35.9681 22.8911 35.9633 22.7963C35.97 22.529 35.9031 22.265 35.7698 22.0332C35.6365 21.8014 35.4421 21.6108 35.2077 21.4821C35.14 21.4494 35.0693 21.4234 34.9966 21.4042C34.721 21.3319 34.4298 21.3474 34.1636 21.4485C33.8973 21.5496 33.6691 21.7313 33.511 21.9682C33.3346 22.2721 33.262 22.6252 33.3042 22.9741C33.3463 23.3229 33.501 23.6486 33.7447 23.9017C33.836 24.0186 33.9372 24.1275 34.047 24.2273C33.9511 24.2967 33.8522 24.3637 33.7509 24.4275L33.6621 24.4813C33.546 24.5522 33.4284 24.6184 33.3116 24.6823L33.2742 24.7025L33.1604 24.761C32.344 21.3902 29.4632 18.6067 25.6079 17.2824V4.35938H15.6132V17.2295C14.86 17.4753 14.1289 17.7839 13.4272 18.1518L10.6828 16.4302C10.2924 16.123 9.80928 15.9577 9.31259 15.9612C8.8159 15.9648 8.33516 16.137 7.94922 16.4497C7.88316 16.5243 7.82807 16.608 7.78563 16.6982C7.77005 16.7301 7.76148 16.7636 7.74902 16.7963C7.72781 16.8531 7.71114 16.9114 7.69916 16.9708C7.69371 16.9973 7.6867 17.0222 7.6828 17.0487V17.0433C7.6828 17.069 7.6828 17.0955 7.6828 17.1212C7.6828 17.1469 7.6828 17.1812 7.6828 17.2108C7.6828 17.2404 7.6828 17.2801 7.6828 17.3159C7.6828 17.3518 7.68981 17.3728 7.69293 17.4016C7.69293 17.4117 7.69293 17.4226 7.69293 17.4335V17.4265C7.70228 17.4904 7.71474 17.5551 7.7311 17.6197C7.73967 17.654 7.74746 17.6883 7.75837 17.7226C7.78469 17.8071 7.8159 17.8901 7.85185 17.9711C7.8573 17.9851 7.86197 17.9999 7.86821 18.0139C7.91459 18.1094 7.96662 18.202 8.02401 18.2913C8.04115 18.3185 8.05906 18.3434 8.07698 18.3691C8.12165 18.4351 8.16865 18.4987 8.21798 18.56C8.23746 18.5841 8.25693 18.6091 8.27719 18.6325C8.34444 18.7116 8.41651 18.7865 8.49297 18.8568L9.96531 20.52L10.1149 20.689C9.287 21.589 8.6389 22.639 8.20552 23.7825C8.0422 23.7492 7.87597 23.7322 7.70929 23.7319C7.11007 23.7106 6.52685 23.9278 6.08747 24.3357C5.64808 24.7437 5.38836 25.3093 5.36523 25.9084V28.5828C5.38836 29.1819 5.64808 29.7475 6.08747 30.1555C6.52685 30.5635 7.11007 30.7806 7.70929 30.7594C8.01781 30.7596 8.32369 30.7025 8.61138 30.5911C9.19164 31.7071 9.97252 32.7066 10.9149 33.5397L11.0879 36.7024C11.3169 38.2605 12.1824 38.4381 13.5324 38.4381C14.1478 38.4381 14.8848 38.1436 15.2681 36.7024L15.4239 36.1439C18.7368 37.2672 22.3277 37.2672 25.6406 36.1439L25.7964 36.7024C26.1797 38.1436 26.9166 38.4381 27.5328 38.4381C28.8821 38.4381 29.7476 38.262 29.9766 36.7024L30.1495 33.5389C31.116 32.7204 31.9033 31.7114 32.4621 30.5749C33.0209 29.4383 33.3393 28.1988 33.3973 26.9336C33.3973 26.8604 33.4043 26.7887 33.4043 26.7147C33.4043 26.6578 33.4004 26.6018 33.3988 26.5449C33.3934 26.2847 33.377 26.0253 33.3482 25.7698C33.9336 25.5086 34.4802 25.1678 34.9724 24.7571C35.6035 24.9646 36.2897 24.9259 36.8935 24.6488C37.0156 24.5928 37.1331 24.5272 37.2448 24.4525C37.2799 24.4291 37.311 24.4018 37.3453 24.3746C37.4164 24.3231 37.4848 24.268 37.5502 24.2094C37.5806 24.1821 37.6133 24.1463 37.6468 24.112Z" fill="#A9C7CE"/>
<path opacity="0.846" d="M34.8507 22.8886C34.845 22.9233 34.8372 22.9577 34.8274 22.9915C34.8211 23.0133 34.8188 23.0351 34.811 23.0569C34.7933 23.1104 34.7717 23.1624 34.7464 23.2127C34.7198 23.2668 34.6894 23.3189 34.6552 23.3685C34.6482 23.3786 34.6443 23.388 34.6373 23.3981C34.5512 23.3254 34.4729 23.2439 34.4036 23.155C34.2522 22.9896 34.1648 22.7755 34.1574 22.5513C34.1595 22.4889 34.178 22.4282 34.2112 22.3753C34.2491 22.3203 34.3003 22.2758 34.3599 22.2457C34.4195 22.2157 34.4857 22.201 34.5524 22.2031C34.5732 22.2044 34.5938 22.2078 34.6139 22.2132C34.6512 22.2257 34.6847 22.2474 34.7113 22.2763C34.7238 22.2875 34.7353 22.2997 34.7456 22.3129C34.7503 22.3192 34.7534 22.3262 34.7573 22.3324C34.7707 22.3516 34.7824 22.372 34.7923 22.3932C34.7978 22.4064 34.8048 22.4189 34.8095 22.4321C34.8141 22.4454 34.8196 22.4656 34.8235 22.4828C34.8274 22.4999 34.8344 22.5209 34.8383 22.5396C34.8422 22.5583 34.8422 22.556 34.8437 22.5646C34.8484 22.591 34.8507 22.6152 34.8531 22.6425C34.8554 22.6697 34.8593 22.6884 34.8601 22.7079C34.8635 22.7683 34.8604 22.8289 34.8507 22.8886ZM37.5259 23.987C37.5796 23.9302 37.6326 23.8725 37.6817 23.811C37.7128 23.7713 37.7417 23.7331 37.7697 23.6887C37.8127 23.6258 37.8525 23.5608 37.8889 23.4939C37.913 23.4495 37.9364 23.4059 37.9582 23.3599C37.9902 23.289 38.0174 23.2166 38.0431 23.1434C38.0595 23.0974 38.0766 23.0522 38.0899 23.0047C38.1118 22.9221 38.1295 22.8383 38.1429 22.7539C38.1499 22.711 38.16 22.6697 38.1654 22.6269C38.1798 22.5028 38.1853 22.3778 38.1818 22.253C38.1818 22.2452 38.1818 22.2382 38.1818 22.2304C38.1763 22.0849 38.1593 21.9401 38.1312 21.7972C38.115 21.7201 38.0804 21.6481 38.0301 21.5875C37.9799 21.5268 37.9157 21.4793 37.8429 21.449C37.8515 21.449 37.8609 21.449 37.8694 21.4537C37.8481 21.4453 37.8262 21.4383 37.804 21.4327C37.7805 21.4231 37.7562 21.4152 37.7315 21.4093C37.6723 21.3981 37.6116 21.3981 37.5524 21.4093C37.4359 21.4327 37.332 21.4979 37.2603 21.5926C37.1885 21.6873 37.1539 21.805 37.1629 21.9234C37.1595 21.9026 37.1577 21.8815 37.1574 21.8603C37.1535 21.9037 37.1553 21.9475 37.1629 21.9904C37.1794 22.0753 37.1901 22.1612 37.1948 22.2475V22.242C37.2215 22.5329 37.1548 22.8247 37.0045 23.0751C36.8543 23.3256 36.6281 23.5216 36.3589 23.6349C36.2782 23.6673 36.1951 23.6934 36.1104 23.7128C36.0137 23.7359 35.9156 23.7528 35.8167 23.7635C35.735 23.7755 35.6524 23.7809 35.5698 23.7798C35.6241 23.681 35.6712 23.5785 35.7108 23.4729C35.7108 23.4659 35.7154 23.4596 35.7178 23.4526C35.7467 23.3776 35.7709 23.3009 35.7902 23.2228C35.7972 23.194 35.8004 23.1644 35.8066 23.1348C35.8175 23.0764 35.8307 23.0179 35.837 22.9572C35.8464 22.8627 35.8487 22.7677 35.844 22.6728C35.8506 22.4056 35.7836 22.1416 35.6503 21.9098C35.5171 21.6781 35.3227 21.4874 35.0883 21.3586C35.0205 21.3262 34.9498 21.3002 34.8772 21.2807C34.6017 21.2085 34.3105 21.224 34.0442 21.3251C33.7779 21.4262 33.5498 21.6079 33.3917 21.8448C33.2153 22.1487 33.1426 22.5018 33.1848 22.8506C33.227 23.1995 33.3816 23.5251 33.6254 23.7783C33.7167 23.8952 33.8178 24.0041 33.9276 24.1039C33.8326 24.1732 33.7329 24.2402 33.6316 24.3041L33.5428 24.3578C33.4267 24.4287 33.3091 24.495 33.1922 24.5588L33.1548 24.5791C33.1167 24.6001 33.0769 24.618 33.0411 24.6375C32.2247 21.2667 29.3439 18.4833 25.4886 17.159V4.23438H15.493V17.1084C14.7399 17.3542 14.0087 17.6628 13.3071 18.0307L10.5627 16.306C10.1723 15.9988 9.68916 15.8335 9.19247 15.837C8.69579 15.8405 8.21504 16.0128 7.82911 16.3254C7.76304 16.4001 7.70795 16.4838 7.66551 16.5739C7.64993 16.6059 7.64136 16.6394 7.6289 16.6721C7.60769 16.7289 7.59102 16.7872 7.57904 16.8466C7.57359 16.8731 7.56658 16.898 7.56268 16.9245V16.9191C7.56268 16.9448 7.56268 16.9712 7.56268 16.9969C7.56268 17.0227 7.56268 17.0569 7.56268 17.0865C7.56268 17.1161 7.56268 17.1559 7.56268 17.1917C7.56268 17.2275 7.56969 17.2486 7.57281 17.2774C7.57281 17.2875 7.57281 17.2984 7.57281 17.3093V17.3023C7.58216 17.3662 7.59462 17.4309 7.61098 17.4955C7.61955 17.5298 7.62734 17.5641 7.63825 17.5983C7.66457 17.6829 7.69579 17.7659 7.73173 17.8469C7.73796 17.8609 7.74186 17.8757 7.74809 17.8897C7.79448 17.9851 7.8465 18.0778 7.90389 18.167C7.92103 18.1943 7.93894 18.2192 7.95686 18.2449C8.00153 18.3109 8.04853 18.3745 8.09786 18.4358C8.11734 18.4599 8.13681 18.4849 8.15707 18.5082C8.22431 18.5874 8.29638 18.6623 8.37286 18.7326L9.84519 20.3958L9.99476 20.5648C9.16688 21.4648 8.51878 22.5148 8.0854 23.6583C7.92208 23.625 7.75585 23.608 7.58917 23.6077C6.98995 23.5864 6.40674 23.8035 5.96735 24.2115C5.52796 24.6195 5.26825 25.1851 5.24512 25.7842V28.4601C5.26825 29.0593 5.52796 29.6248 5.96735 30.0328C6.40674 30.4408 6.98995 30.658 7.58917 30.6367C7.89769 30.6369 8.20357 30.5799 8.49127 30.4684C9.0718 31.5844 9.85294 32.584 10.7956 33.417L10.9685 36.5798C11.1976 38.1378 12.063 38.3154 13.4131 38.3154C14.0285 38.3154 14.7654 38.021 15.1487 36.5798L15.3045 36.0212C18.6175 37.1444 22.2083 37.1444 25.5213 36.0212L25.6771 36.5798C26.0604 38.021 26.7973 38.3154 27.4135 38.3154C28.7628 38.3154 29.6282 38.1394 29.8573 36.5798L30.0302 33.4162C30.9967 32.5978 31.784 31.5887 32.3428 30.4522C32.9016 29.3157 33.2199 28.0761 33.2779 26.811C33.2779 26.737 33.2849 26.6661 33.2849 26.5921C33.2849 26.5352 33.281 26.4791 33.2795 26.4222C33.2743 26.1626 33.2574 25.9029 33.2288 25.6432C33.8143 25.3821 34.3609 25.0413 34.8531 24.6305C35.4844 24.8381 36.1709 24.7994 36.7749 24.5222C36.8967 24.4661 37.014 24.4005 37.1255 24.3259C37.1605 24.3025 37.1917 24.2753 37.226 24.248C37.2968 24.195 37.367 24.1421 37.4308 24.0829C37.4604 24.0572 37.4924 24.0213 37.5259 23.987Z" fill="#A0C1C9"/>
<path opacity="0.923" d="M34.7322 22.7793C34.7262 22.814 34.7181 22.8483 34.708 22.8821C34.7026 22.9031 34.6995 22.9249 34.6917 22.9475C34.6739 23.0009 34.6523 23.053 34.627 23.1033C34.6007 23.1575 34.5702 23.2096 34.5359 23.2591C34.5289 23.2692 34.5242 23.2794 34.518 23.2895C34.4321 23.2165 34.3538 23.1351 34.2843 23.0465C34.1329 22.881 34.0456 22.6669 34.0381 22.4427C34.0402 22.3803 34.0588 22.3196 34.0918 22.2667C34.1299 22.2118 34.181 22.1674 34.2406 22.1373C34.3002 22.1073 34.3663 22.0926 34.433 22.0945C34.4538 22.096 34.4744 22.0994 34.4946 22.1046C34.5318 22.1171 34.5653 22.1388 34.592 22.1677C34.6047 22.1789 34.6164 22.1911 34.627 22.2043C34.6317 22.2106 34.634 22.2176 34.6387 22.2238C34.6525 22.2428 34.6642 22.2632 34.6738 22.2846C34.68 22.2978 34.6862 22.3103 34.6917 22.3235C34.6971 22.3368 34.701 22.357 34.7057 22.3742C34.7104 22.3913 34.7166 22.4123 34.7205 22.431C34.7244 22.4497 34.7244 22.4482 34.726 22.456C34.7298 22.4825 34.733 22.5074 34.7353 22.5339C34.7376 22.5603 34.7408 22.5806 34.7423 22.6001C34.7451 22.66 34.7417 22.72 34.7322 22.7793ZM37.4034 23.8784C37.4584 23.8222 37.5104 23.7632 37.5592 23.7016C37.5912 23.6619 37.6192 23.6237 37.6473 23.5793C37.6901 23.5162 37.7298 23.4523 37.7664 23.3846C37.7906 23.3401 37.814 23.2965 37.835 23.2506C37.8672 23.1798 37.8958 23.1076 37.9207 23.034C37.937 22.988 37.9542 22.9428 37.9674 22.8953C37.9892 22.8127 38.0066 22.729 38.0196 22.6445C38.0266 22.6016 38.0375 22.5611 38.0422 22.5175C38.0566 22.3937 38.0618 22.269 38.0578 22.1444C38.0578 22.1366 38.0578 22.1296 38.0578 22.1218C38.0522 21.976 38.0353 21.831 38.0072 21.6879C37.9912 21.6108 37.9565 21.5388 37.9063 21.4783C37.856 21.4177 37.7917 21.3704 37.7189 21.3404C37.7275 21.3404 37.7368 21.3404 37.7454 21.3451C37.7244 21.3365 37.7028 21.3295 37.6807 21.3241C37.6573 21.3142 37.6331 21.3064 37.6083 21.3007C37.5491 21.2891 37.4883 21.2891 37.4291 21.3007C37.3126 21.324 37.2086 21.3891 37.1368 21.4839C37.065 21.5786 37.0305 21.6963 37.0396 21.8148V21.8109C37.0363 21.7903 37.0342 21.7695 37.0334 21.7486C37.0298 21.7921 37.0319 21.8358 37.0396 21.8787C37.0559 21.9636 37.0663 22.0495 37.0708 22.1358V22.1296C37.0974 22.4205 37.0307 22.7124 36.8805 22.9629C36.7302 23.2134 36.5041 23.4097 36.2349 23.5232C36.1545 23.5556 36.0716 23.5816 35.9872 23.6011C35.8902 23.6244 35.7919 23.6413 35.6927 23.6517C35.611 23.6637 35.5284 23.6692 35.4458 23.6681C35.5007 23.5695 35.5481 23.4669 35.5875 23.3612L35.5946 23.3417C35.6234 23.2667 35.6473 23.19 35.6662 23.1119C35.6732 23.0831 35.6763 23.0527 35.6826 23.0239C35.6943 22.9654 35.7067 22.907 35.713 22.8462C35.7226 22.7515 35.7253 22.6562 35.7208 22.5611C35.7274 22.2939 35.6604 22.0299 35.5271 21.7981C35.3938 21.5664 35.1994 21.3757 34.9651 21.2469C34.8974 21.2143 34.8267 21.1882 34.754 21.169C34.4786 21.0966 34.1874 21.1119 33.9211 21.2129C33.6547 21.3138 33.4266 21.4954 33.2684 21.7323C33.092 22.0362 33.0194 22.3893 33.0616 22.7381C33.1037 23.087 33.2584 23.4126 33.5021 23.6658C33.5932 23.7829 33.6943 23.8919 33.8044 23.9914C33.7086 24.0615 33.6096 24.1277 33.5084 24.1916C33.4795 24.2103 33.4491 24.2282 33.4195 24.2454C33.3035 24.3162 33.1858 24.3832 33.069 24.4463L33.0316 24.4674C32.9934 24.4876 32.9537 24.5055 32.9186 24.5258C32.1015 21.155 29.2207 18.3716 25.3661 17.0473V4.125H15.3737V16.9951C14.6205 17.2414 13.8891 17.5499 13.187 17.9174L10.4425 16.1927C10.0519 15.8857 9.56862 15.7206 9.07183 15.7242C8.57504 15.7279 8.09424 15.9002 7.70821 16.2129C7.64183 16.2873 7.58671 16.3711 7.54461 16.4615C7.53057 16.4935 7.51835 16.5262 7.508 16.5596C7.4864 16.6163 7.46946 16.6747 7.45737 16.7341C7.45191 16.7598 7.4449 16.7847 7.44179 16.812V16.8066C7.44179 16.8323 7.44179 16.8588 7.44179 16.8845C7.44179 16.9102 7.44179 16.9444 7.44179 16.9748C7.44179 17.0052 7.44179 17.0442 7.44179 17.08C7.44179 17.1158 7.44802 17.1369 7.45191 17.1657C7.45191 17.1758 7.45191 17.1867 7.45191 17.1976V17.1906C7.46085 17.2556 7.47333 17.3201 7.48931 17.3838C7.49787 17.4189 7.50644 17.4524 7.51735 17.4874C7.54349 17.5719 7.57444 17.6549 7.61005 17.7359C7.61628 17.7492 7.62018 17.764 7.62719 17.7788C7.67337 17.8743 7.72541 17.9669 7.78299 18.0561C7.80013 18.0834 7.81805 18.1083 7.83597 18.134C7.88037 18.2002 7.92711 18.2641 7.97697 18.3256C7.99644 18.3498 8.01514 18.3747 8.03539 18.3981C8.10303 18.4771 8.17535 18.552 8.25196 18.6224L9.72429 20.2856L9.87387 20.4547C9.04636 21.3551 8.39855 22.4053 7.96528 23.5489C7.80197 23.5156 7.63573 23.4986 7.46905 23.4983C6.86996 23.477 6.28686 23.6941 5.8475 24.1019C5.40813 24.5097 5.14833 25.0751 5.125 25.6741V28.35C5.14833 28.949 5.40813 29.5143 5.8475 29.9222C6.28686 30.33 6.86996 30.547 7.46905 30.5258C7.77757 30.526 8.08345 30.4689 8.37115 30.3575C8.95054 31.4725 9.73005 32.4715 10.6708 33.3045L10.8445 36.4673C11.0735 38.0253 11.939 38.2037 13.2883 38.2037C13.9045 38.2037 14.6406 37.9092 15.0247 36.4673L15.1805 35.9087C18.4935 37.032 22.0843 37.032 25.3973 35.9087L25.5531 36.4673C25.9363 37.9092 26.6725 38.2037 27.2887 38.2037C28.638 38.2037 29.5034 38.0277 29.7325 36.4673L29.9062 33.3045C30.8726 32.486 31.6599 31.477 32.2187 30.3405C32.7775 29.204 33.0959 27.9644 33.1539 26.6992C33.1539 26.626 33.1609 26.5544 33.1609 26.4811C33.1609 26.4243 33.157 26.3682 33.1555 26.3113C33.1503 26.0516 33.1334 25.792 33.1048 25.5323C33.6906 25.2716 34.2372 24.9308 34.7291 24.5196C35.1061 24.6447 35.5066 24.6824 35.9003 24.6298C36.294 24.5771 36.6706 24.4355 37.0014 24.2157C37.0373 24.1924 37.0684 24.1651 37.1019 24.1379C37.1728 24.0857 37.2422 24.0319 37.306 23.9735C37.3411 23.9478 37.373 23.9127 37.4034 23.8784Z" fill="#98BCC4"/>
<path d="M34.6124 22.6543C34.6063 22.689 34.5983 22.7233 34.5882 22.7571C34.5828 22.7781 34.5796 22.8007 34.5726 22.8217C34.5547 22.8751 34.5331 22.9272 34.508 22.9775C34.4802 23.0309 34.4498 23.0829 34.4168 23.1333C34.4098 23.1435 34.4051 23.1536 34.3989 23.1637C34.3129 23.0909 34.2346 23.0094 34.1652 22.9207C34.0138 22.7552 33.9265 22.5411 33.919 22.3169C33.9212 22.2546 33.9398 22.1939 33.9728 22.1409C34.0109 22.0861 34.0621 22.0417 34.1216 22.0117C34.1812 21.9816 34.2473 21.9668 34.314 21.9687C34.3348 21.97 34.3554 21.9734 34.3755 21.9788C34.4129 21.9916 34.4466 22.0133 34.4737 22.042C34.486 22.0533 34.4975 22.0655 34.508 22.0786L34.5197 22.098C34.5332 22.1171 34.545 22.1375 34.5547 22.1588C34.5613 22.1714 34.567 22.1844 34.5718 22.1978C34.5781 22.2141 34.582 22.2313 34.5866 22.2484C34.5913 22.2655 34.5976 22.2866 34.6015 22.3053C34.6053 22.324 34.6053 22.3224 34.6069 22.3302C34.6108 22.3574 34.6139 22.3816 34.6163 22.4081C34.6186 22.4346 34.6217 22.4548 34.6233 22.4743C34.6258 22.5345 34.6222 22.5948 34.6124 22.6543ZM37.2867 23.7527C37.3417 23.6965 37.3937 23.6374 37.4425 23.5758C37.4737 23.5361 37.5025 23.4979 37.5305 23.4535C37.5734 23.3904 37.6131 23.3265 37.6497 23.2588C37.6739 23.2144 37.6972 23.1707 37.7183 23.1248C37.7505 23.0541 37.7791 22.9818 37.804 22.9082C37.8203 22.8623 37.8375 22.8171 37.8507 22.7695C37.8727 22.6872 37.8901 22.6037 37.9029 22.5195C37.9099 22.4766 37.9208 22.4353 37.9255 22.3917C37.9399 22.2679 37.9451 22.1432 37.9411 22.0186C37.9411 22.0108 37.9411 22.0038 37.9411 21.996C37.9355 21.8503 37.9186 21.7052 37.8904 21.5621C37.8745 21.485 37.8398 21.413 37.7896 21.3525C37.7393 21.2919 37.675 21.2446 37.6022 21.2146C37.6108 21.2146 37.6201 21.2146 37.6287 21.2185C37.6075 21.2104 37.5859 21.2034 37.564 21.1975C37.5406 21.1877 37.5164 21.1799 37.4916 21.1741C37.4324 21.1629 37.3716 21.1629 37.3124 21.1741C37.1959 21.1974 37.0919 21.2625 37.0201 21.3573C36.9483 21.452 36.9138 21.5698 36.9229 21.6883C36.9196 21.6674 36.9178 21.6463 36.9175 21.6252C36.9133 21.6688 36.9151 21.7129 36.9229 21.7561C36.9395 21.8409 36.9499 21.9268 36.9541 22.0131V22.0069C36.9808 22.2978 36.9142 22.5898 36.7639 22.8403C36.6136 23.0909 36.3875 23.2871 36.1182 23.4005C36.0379 23.4332 35.955 23.4593 35.8705 23.4784C35.7734 23.5013 35.6751 23.5182 35.576 23.5291C35.4942 23.5408 35.4117 23.5463 35.329 23.5454C35.3839 23.4468 35.4313 23.3442 35.4708 23.2385C35.4708 23.2315 35.4747 23.2253 35.4778 23.2183C35.5064 23.1432 35.5303 23.0664 35.5495 22.9885C35.5565 22.9596 35.5596 22.9292 35.5659 22.9004C35.5776 22.842 35.59 22.7836 35.5963 22.7228C35.6059 22.6281 35.6085 22.5328 35.604 22.4377C35.6107 22.1704 35.5437 21.9065 35.4104 21.6747C35.2771 21.4429 35.0827 21.2522 34.8484 21.1235C34.7805 21.0913 34.7098 21.0652 34.6373 21.0456C34.3618 20.9731 34.0707 20.9885 33.8043 21.0894C33.538 21.1904 33.3099 21.372 33.1517 21.6088C32.9753 21.9127 32.9027 22.2658 32.9449 22.6147C32.987 22.9636 33.1417 23.2892 33.3854 23.5423C33.4765 23.6595 33.5776 23.7684 33.6877 23.868C33.5918 23.9381 33.4929 24.0043 33.3916 24.0682C33.3628 24.0869 33.3324 24.1048 33.3036 24.1219C33.1875 24.1928 33.0699 24.2606 32.9523 24.3237L32.9149 24.3439C32.8767 24.3642 32.837 24.3821 32.8019 24.4024C31.9847 21.0316 29.104 18.2482 25.2494 16.9238V4H15.2539V16.8693C14.5007 17.1156 13.7693 17.4241 13.0672 17.7916L10.3235 16.0646C9.93288 15.7576 9.44957 15.5924 8.95279 15.5961C8.456 15.5998 7.97519 15.7721 7.58916 16.0848C7.52278 16.1592 7.46767 16.243 7.42557 16.3333C7.41153 16.3653 7.39931 16.3981 7.38895 16.4315C7.36735 16.4882 7.35042 16.5465 7.33832 16.606C7.33365 16.6317 7.32586 16.6574 7.32274 16.6839V16.6784C7.32274 16.7041 7.32274 16.7306 7.32274 16.7563C7.32274 16.7821 7.32274 16.8163 7.32274 16.8467C7.32274 16.8771 7.32274 16.916 7.32274 16.9519C7.32274 16.9877 7.32897 17.0087 7.33287 17.0376C7.33287 17.0477 7.33287 17.0586 7.33287 17.0695V17.0625C7.34181 17.1275 7.35429 17.192 7.37026 17.2557C7.37883 17.2907 7.3874 17.3242 7.3983 17.3593C7.42422 17.4439 7.45518 17.5269 7.49101 17.6078C7.49724 17.6218 7.50113 17.6358 7.50814 17.6506C7.55453 17.7461 7.60656 17.8387 7.66395 17.928C7.68109 17.9552 7.699 17.9802 7.71692 18.0059C7.76132 18.0721 7.80807 18.136 7.85792 18.1975C7.8774 18.2217 7.89609 18.2466 7.91635 18.27C7.98399 18.349 8.05631 18.4239 8.13291 18.4943L9.60525 20.1575L9.75482 20.3266C8.9269 21.2268 8.2788 22.2771 7.84546 23.4208C7.68214 23.3875 7.51591 23.3705 7.34923 23.3702C6.75 23.3487 6.16671 23.5656 5.72717 23.9735C5.28764 24.3813 5.02772 24.9468 5.00439 25.5459V28.2219C5.02772 28.821 5.28764 29.3865 5.72717 29.7943C6.16671 30.2022 6.75 30.4191 7.34923 30.3976C7.65775 30.3979 7.96363 30.3408 8.25132 30.2294C8.83221 31.3449 9.6133 32.3442 10.5556 33.1772L10.7294 36.34C10.9584 37.898 11.8239 38.0764 13.1731 38.0764C13.7893 38.0764 14.5255 37.7819 14.9095 36.34L15.0654 35.7814C18.3784 36.9043 21.9691 36.9043 25.2821 35.7814L25.4379 36.34C25.8212 37.7819 26.5574 38.0764 27.1736 38.0764C28.5228 38.0764 29.3883 37.9003 29.6173 36.34L29.791 33.1772C30.7575 32.3587 31.5447 31.3496 32.1035 30.2131C32.6623 29.0766 32.9807 27.837 33.0387 26.5719C33.0387 26.4987 33.0458 26.427 33.0458 26.3538C33.0458 26.2969 33.0419 26.2408 33.0403 26.184C33.0349 25.923 33.0193 25.6644 32.9897 25.4049C33.5754 25.1443 34.1221 24.8035 34.6139 24.3922C34.9909 24.5174 35.3914 24.5551 35.7852 24.5024C36.1789 24.4498 36.5554 24.3082 36.8863 24.0884C36.9221 24.065 36.9533 24.0378 36.9868 24.0105C37.0578 23.9596 37.126 23.9047 37.1909 23.8461C37.2213 23.8228 37.2532 23.7869 37.2867 23.7527Z" fill="#8FB6BF"/>
</g>
<path style="mix-blend-mode:multiply" d="M37.6307 21.2247L36.7847 22.9751L34.8512 21.1265L32.9901 22.7866L30.7894 20.5625L5.60938 29.691L10.6332 34.7234L11.1349 37.4616L16.7695 43.1905L17.0515 44.0054H37.5606L39.202 43.8028C40.4169 43.4737 41.4902 42.7548 42.2569 41.7565C43.0236 40.7583 43.4414 39.536 43.4461 38.2773V26.9185L37.6307 21.2247Z" fill="url(#paint0_linear_39_1484)"/>
<path d="M31.8431 25.8157C31.7283 25.809 31.6195 25.7625 31.5353 25.6841C31.4512 25.6057 31.3972 25.5004 31.3825 25.3864C31.3678 25.2723 31.3934 25.1568 31.4549 25.0596C31.5164 24.9625 31.6099 24.8899 31.7192 24.8544C32.4197 24.6176 33.083 24.2826 33.6894 23.8596C33.5793 23.7601 33.4782 23.6511 33.3871 23.5339C33.1434 23.2808 32.9887 22.9552 32.9466 22.6063C32.9044 22.2574 32.977 21.9043 33.1534 21.6004C33.3116 21.3636 33.5397 21.182 33.806 21.081C34.0724 20.9801 34.3635 20.9647 34.639 21.0372C34.9304 21.1321 35.1826 21.3198 35.3572 21.5716C35.5318 21.8234 35.6191 22.1255 35.6057 22.4316C35.6222 22.8193 35.5271 23.2035 35.3315 23.5386C35.6024 23.5537 35.873 23.5037 36.1207 23.3929C36.4297 23.2609 36.6811 23.0222 36.8289 22.7203C36.9768 22.4185 37.0113 22.0736 36.9262 21.7484C36.9138 21.6849 36.914 21.6197 36.9269 21.5563C36.9397 21.4929 36.965 21.4327 37.0011 21.379C37.0372 21.3254 37.0836 21.2794 37.1375 21.2437C37.1914 21.2079 37.2518 21.1832 37.3153 21.1708C37.3788 21.1584 37.444 21.1587 37.5074 21.1715C37.5708 21.1844 37.6311 21.2096 37.6847 21.2457C37.7383 21.2818 37.7843 21.3282 37.8201 21.3821C37.8558 21.436 37.8805 21.4964 37.8929 21.5599C38.0176 22.102 37.9497 22.6705 37.701 23.168C37.4522 23.6655 37.0381 24.0609 36.5296 24.2864C35.9259 24.5636 35.2395 24.602 34.6086 24.394C33.8383 25.0115 32.9622 25.484 32.0231 25.7884C31.9654 25.8089 31.9043 25.8181 31.8431 25.8157ZM34.3126 21.9767C34.2459 21.9748 34.1798 21.9896 34.1202 22.0196C34.0606 22.0497 34.0095 22.0941 33.9714 22.1488C33.8498 22.3319 33.92 22.6163 34.1638 22.9279C34.2332 23.0166 34.3115 23.0981 34.3975 23.1709C34.5465 22.9708 34.6254 22.7271 34.6218 22.4776C34.6148 22.3171 34.572 22.0406 34.3749 21.9852C34.3545 21.9802 34.3336 21.9774 34.3126 21.9767Z" fill="url(#paint1_linear_39_1484)"/>
<path d="M36.9568 22.0044C36.9561 21.8956 36.9457 21.7871 36.9256 21.6803C36.9223 21.6594 36.9205 21.6383 36.9201 21.6172C36.916 21.6609 36.9178 21.7049 36.9256 21.7481C36.9421 21.8326 36.9525 21.9183 36.9568 22.0044Z" fill="#EDC993"/>
<g style="mix-blend-mode:multiply">
<path d="M34.3744 21.9243C34.3542 21.9193 34.3336 21.916 34.3129 21.9142C34.2462 21.9125 34.1801 21.9273 34.1206 21.9573C34.061 21.9874 34.0099 22.0317 33.9716 22.0864C33.9244 22.1609 33.9046 22.2496 33.9156 22.3372C33.9172 22.2722 33.9366 22.2089 33.9716 22.1541C34.0098 22.0994 34.0609 22.055 34.1205 22.0249C34.18 21.9949 34.2462 21.9801 34.3129 21.982C34.3337 21.9832 34.3543 21.9866 34.3744 21.9921C34.5614 22.0443 34.6081 22.2944 34.619 22.4595C34.619 22.4463 34.619 22.433 34.619 22.4198C34.6143 22.257 34.5715 21.9796 34.3744 21.9243Z" fill="#EDC993"/>
</g>
<path d="M35.4153 23.5793C35.6862 23.5947 35.9569 23.5447 36.2045 23.4336C36.5135 23.3015 36.7649 23.0628 36.9127 22.761C37.0606 22.4592 37.0951 22.1143 37.01 21.7891C36.9932 21.706 36.9983 21.6199 37.0248 21.5393C37.0512 21.4587 37.0982 21.3864 37.161 21.3294C37.2238 21.2724 37.3003 21.2327 37.3831 21.2141C37.4659 21.1956 37.552 21.1988 37.6332 21.2236C37.5512 21.1827 37.4595 21.1655 37.3683 21.174C37.2772 21.1825 37.1902 21.2164 37.1173 21.2717C37.0443 21.3271 36.9883 21.4017 36.9556 21.4872C36.9229 21.5727 36.9147 21.6657 36.9321 21.7556C37.0172 22.0808 36.9827 22.4257 36.8348 22.7275C36.687 23.0293 36.4356 23.268 36.1266 23.4001C35.8746 23.4964 35.6071 23.5458 35.3374 23.5458C35.3257 23.5598 35.4216 23.5684 35.4153 23.5793Z" fill="#FF832B"/>
<path opacity="0.7" d="M34.7217 21.0754C34.7668 21.0886 34.8081 21.1065 34.8502 21.1229C34.782 21.0908 34.7111 21.0648 34.6383 21.045C34.3629 20.9726 34.0717 20.9879 33.8054 21.0888C33.5391 21.1898 33.3109 21.3714 33.1527 21.6082C32.9763 21.9121 32.9037 22.2652 32.9459 22.6141C32.9881 22.963 33.1427 23.2886 33.3864 23.5417C33.4775 23.6589 33.5786 23.7679 33.6887 23.8674C33.5913 23.9383 33.49 24.006 33.388 24.0715C32.8637 24.397 32.3041 24.662 31.7201 24.8614C31.6583 24.8813 31.601 24.9133 31.5516 24.9555C31.5021 24.9976 31.4615 25.0492 31.432 25.1071C31.4026 25.165 31.3848 25.2282 31.3799 25.2929C31.3749 25.3577 31.3828 25.4229 31.4031 25.4846C31.4282 25.5616 31.4721 25.6312 31.5308 25.687C31.5896 25.7427 31.6614 25.783 31.7396 25.804C31.6495 25.7625 31.5742 25.6946 31.5236 25.6092C31.4731 25.5239 31.4498 25.4251 31.4567 25.3262C31.4636 25.2273 31.5005 25.1328 31.5625 25.0553C31.6244 24.9778 31.7085 24.9211 31.8035 24.8925C32.3486 24.706 32.8727 24.4627 33.3669 24.1665C33.7389 23.993 34.063 23.7315 34.3111 23.4046C34.5268 23.1659 34.6573 22.8623 34.6819 22.5415C34.6741 22.3857 34.6554 22.0741 34.4576 22.0219H34.4404C34.5014 22.0818 34.549 22.1539 34.58 22.2335C34.611 22.3132 34.6248 22.3985 34.6204 22.4838C34.6232 22.5416 34.6204 22.5996 34.6118 22.6568C34.6046 22.6991 34.595 22.741 34.583 22.7822C34.5791 22.7954 34.5775 22.8095 34.5729 22.8243C34.555 22.8776 34.5334 22.9297 34.5082 22.9801V22.984C34.4804 23.0391 34.4498 23.0926 34.4163 23.1444C34.41 23.1546 34.4054 23.1639 34.3984 23.174C34.2079 23.4303 33.9766 23.6535 33.7136 23.8346C33.6273 23.7521 33.5468 23.6636 33.4729 23.5698C33.2292 23.3166 33.0745 22.991 33.0324 22.6421C32.9902 22.2933 33.0628 21.9402 33.2392 21.6363C33.3977 21.4007 33.6255 21.2202 33.8911 21.1197C34.1567 21.0193 34.4469 21.0038 34.7217 21.0754Z" fill="#FF832B"/>
<g style="mix-blend-mode:multiply">
<path d="M36.5288 24.2241C35.9434 24.4928 35.2796 24.5369 34.6638 24.3479C34.9524 24.1049 35.1906 23.8077 35.365 23.4731C35.5381 23.1547 35.6216 22.7952 35.6065 22.4331V22.4199C35.613 22.7892 35.5188 23.1533 35.3338 23.4731C35.136 23.7928 34.8921 24.0815 34.6101 24.33C33.8396 24.9472 32.9636 25.4197 32.0245 25.7244C31.9628 25.745 31.8975 25.7531 31.8326 25.7482C31.7677 25.7434 31.7044 25.7256 31.6464 25.6961C31.5884 25.6665 31.5368 25.6256 31.4948 25.576C31.4527 25.5263 31.4209 25.4687 31.4013 25.4066C31.3885 25.3641 31.3814 25.3201 31.3803 25.2757C31.3738 25.3418 31.3807 25.4086 31.4007 25.472C31.4206 25.5353 31.4532 25.594 31.4965 25.6444C31.5397 25.6949 31.5927 25.736 31.6522 25.7654C31.7118 25.7949 31.7767 25.8119 31.843 25.8156C31.9035 25.8189 31.964 25.8107 32.0214 25.7914C32.9606 25.487 33.8367 25.0145 34.607 24.397C35.2379 24.6051 35.9242 24.5667 36.528 24.2895C36.9696 24.0962 37.3417 23.7726 37.5943 23.362C37.847 22.9515 37.9683 22.4735 37.9419 21.9922C37.9555 22.4626 37.8282 22.9264 37.5764 23.3241C37.3246 23.7217 36.9598 24.0351 36.5288 24.2241Z" fill="#EDC993"/>
</g>
<path d="M14.9049 36.3466C14.5216 37.7886 13.7846 38.083 13.1684 38.083C11.8192 38.083 10.9537 37.907 10.7247 36.3466L10.54 32.9813C10.54 31.632 11.8192 31.3594 13.1684 31.3594C13.8166 31.3594 14.4381 31.6168 14.8964 32.0751C15.3547 32.5334 15.6122 33.155 15.6122 33.8031L14.9049 36.3466Z" fill="#ED3232"/>
<path d="M25.432 36.3466C25.8152 37.7886 26.5514 38.083 27.1676 38.083C28.5168 38.083 29.3823 37.907 29.6114 36.3466L29.7968 32.9813C29.7968 31.632 28.5176 31.3594 27.1676 31.3594C26.5196 31.3596 25.8982 31.6171 25.4401 32.0754C24.982 32.5337 24.7246 33.1552 24.7246 33.8031L25.432 36.3466Z" fill="#ED3232"/>
<path d="M9.68966 28.2289C9.66633 28.8281 9.40642 29.3936 8.96689 29.8014C8.52735 30.2092 7.94405 30.4262 7.34483 30.4047C6.74561 30.4262 6.16231 30.2092 5.72278 29.8014C5.28324 29.3936 5.02333 28.8281 5 28.2289V25.5522C5.02333 24.9531 5.28324 24.3876 5.72278 23.9798C6.16231 23.5719 6.74561 23.355 7.34483 23.3765C7.94405 23.355 8.52735 23.5719 8.96689 23.9798C9.40642 24.3876 9.66633 24.9531 9.68966 25.5522V28.2289Z" fill="#ED3232"/>
<path d="M7.34581 23.3765C6.74658 23.355 6.16328 23.5719 5.72375 23.9798C5.28422 24.3876 5.0243 24.9531 5.00098 25.5522V25.7774C5.04545 25.186 5.31175 24.6333 5.74652 24.23C6.18129 23.8267 6.7524 23.6027 7.34542 23.6027C7.93843 23.6027 8.50955 23.8267 8.94431 24.23C9.37908 24.6333 9.64538 25.186 9.68986 25.7774V25.5522C9.66653 24.9532 9.40672 24.3879 8.96736 23.9801C8.52799 23.5722 7.9449 23.3552 7.34581 23.3765Z" fill="#FF832B"/>
<path d="M20.1685 16.0903C17.6984 16.0739 15.2613 16.6589 13.0678 17.7948L10.3233 16.0701C9.93272 15.7631 9.44941 15.5979 8.95263 15.6016C8.45584 15.6053 7.97504 15.7776 7.58901 16.0903C6.98293 16.7611 7.45813 17.8937 8.12886 18.499L9.75077 20.3313C8.20291 21.9602 7.3266 24.1132 7.29688 26.3601C7.29688 32.0321 13.0616 36.6298 20.1685 36.6298C27.2755 36.6298 33.0401 32.0336 33.0401 26.3601C33.0401 20.6865 27.2778 16.0903 20.1685 16.0903Z" fill="#F34D4D"/>
<g style="mix-blend-mode:multiply">
<path d="M8.12825 18.5026L9.60059 20.1658C9.65045 20.1089 9.69875 20.0513 9.75016 19.9944L8.12825 18.1622C7.69773 17.778 7.41271 17.2572 7.3212 16.6875C7.31167 17.0311 7.37921 17.3725 7.51887 17.6866C7.65852 18.0007 7.86675 18.2795 8.12825 18.5026Z" fill="#F5D4A3"/>
<path d="M19.6289 36.0209C12.5835 36.0209 7.40311 31.7738 7.30184 26.1719C7.30184 26.235 7.29639 26.2973 7.29639 26.3612C7.29639 32.0332 13.0611 36.6309 20.168 36.6309C27.275 36.6309 33.0397 32.0324 33.0397 26.3612C33.0397 26.3043 33.0358 26.2482 33.0342 26.1913C32.9197 31.7831 26.6666 36.0209 19.6289 36.0209Z" fill="#F5D4A3"/>
</g>
<g style="mix-blend-mode:screen" opacity="0.8">
<path d="M7.58977 16.5219C7.97583 16.2091 8.45671 16.0369 8.95353 16.0333C9.45036 16.0298 9.93364 16.1952 10.3241 16.5024L13.0686 18.2264C15.2619 17.0899 17.699 16.5046 20.1693 16.5211C27.1866 16.5211 32.8882 21.002 33.0339 26.5704C33.0339 26.4972 33.0409 26.4255 33.0409 26.3523C33.0409 20.6803 27.2762 16.0825 20.1693 16.0825C17.6991 16.0661 15.2621 16.6511 13.0686 17.787L10.3241 16.0623C9.93349 15.7553 9.45019 15.5901 8.9534 15.5938C8.45661 15.5975 7.97581 15.7698 7.58977 16.0825C7.47501 16.2163 7.392 16.3743 7.34694 16.5447C7.30188 16.715 7.29595 16.8934 7.32958 17.0664C7.36199 16.8636 7.45235 16.6745 7.58977 16.5219Z" fill="#FF832B"/>
<path d="M9.98914 20.5758L9.75077 20.3281C8.2582 21.9922 7.3907 24.1235 7.29688 26.3569C7.29687 26.4216 7.30233 26.4854 7.30311 26.5501C7.48082 24.308 8.43002 22.1968 9.98914 20.5758Z" fill="#FF832B"/>
</g>
<path style="mix-blend-mode:screen" d="M27.98 21.7827C28.1903 24.4695 24.6006 26.9421 19.9624 27.3051C15.3241 27.6681 11.3932 25.7837 11.1844 23.0984C10.9757 20.4132 14.5638 17.939 19.2021 17.576C23.8403 17.213 27.7696 19.099 27.98 21.7827Z" fill="url(#paint2_linear_39_1484)"/>
<path d="M12.5823 23.3661C12.5823 23.5498 12.5278 23.7293 12.4257 23.8821C12.3237 24.0348 12.1786 24.1538 12.0089 24.2241C11.8391 24.2943 11.6524 24.3127 11.4722 24.2768C11.2921 24.2409 11.1266 24.1524 10.9968 24.0224C10.867 23.8925 10.7786 23.7269 10.7428 23.5468C10.7071 23.3666 10.7256 23.1799 10.796 23.0102C10.8664 22.8405 10.9855 22.6956 11.1384 22.5936C11.2912 22.4917 11.4708 22.4373 11.6545 22.4375C11.7764 22.4375 11.8971 22.4615 12.0097 22.5082C12.1223 22.5549 12.2246 22.6233 12.3108 22.7095C12.397 22.7958 12.4653 22.8981 12.5119 23.0108C12.5584 23.1234 12.5824 23.2442 12.5823 23.3661Z" fill="#ED3232"/>
<g style="mix-blend-mode:screen" opacity="0.3">
<path d="M14.7632 19.7986C14.6137 19.8004 14.4668 19.7599 14.3394 19.6818C14.2121 19.6036 14.1094 19.491 14.0434 19.3569C14 19.2684 13.9756 19.1718 13.9717 19.0734C13.9679 18.9749 13.9846 18.8767 14.0208 18.7851C14.0622 18.6808 14.1246 18.5862 14.204 18.507C14.2835 18.4278 14.3783 18.3658 14.4827 18.3247C18.185 16.8293 22.3231 16.8293 26.0254 18.3247C26.1296 18.3659 26.2242 18.4281 26.3035 18.5072C26.3828 18.5864 26.4451 18.681 26.4866 18.7851C26.5228 18.8767 26.5395 18.9749 26.5356 19.0734C26.5317 19.1718 26.5073 19.2684 26.464 19.3569C26.3978 19.491 26.295 19.6037 26.1675 19.6819C26.04 19.76 25.8929 19.8005 25.7434 19.7986C25.6366 19.7986 25.5307 19.778 25.4318 19.7378C22.1081 18.398 18.3946 18.398 15.0709 19.7378C14.9731 19.7772 14.8687 19.7979 14.7632 19.7986Z" fill="#FF832B"/>
</g>
<path d="M26.1945 19.2506C26.1182 19.3998 25.9884 19.5148 25.831 19.5726C25.6736 19.6304 25.5002 19.6266 25.3454 19.5622C22.0239 18.2235 18.313 18.2235 14.9916 19.5622C14.8368 19.6268 14.6633 19.6306 14.5059 19.5729C14.3484 19.5151 14.2186 19.4 14.1424 19.2506C14.1081 19.172 14.0904 19.0872 14.0903 19.0015C14.0903 18.9158 14.1079 18.831 14.1421 18.7524C14.1763 18.6738 14.2264 18.6031 14.2892 18.5447C14.352 18.4863 14.4261 18.4415 14.507 18.4131C18.1381 16.9456 22.1973 16.9456 25.8284 18.4131C25.9093 18.4415 25.9834 18.4863 26.0462 18.5447C26.109 18.6031 26.1591 18.6738 26.1933 18.7524C26.2275 18.831 26.2451 18.9158 26.2451 19.0015C26.245 19.0872 26.2273 19.172 26.193 19.2506H26.1945Z" fill="#DD3F18"/>
<g style="mix-blend-mode:multiply">
<path d="M14.5072 18.6414C18.1386 17.1749 22.1973 17.1749 25.8287 18.6414C25.9307 18.6802 26.0215 18.7438 26.093 18.8263C26.1645 18.9088 26.2144 19.0077 26.2384 19.1142C26.2628 18.9679 26.2351 18.8177 26.1603 18.6896C26.0854 18.5615 25.9681 18.4637 25.8287 18.4131C22.1975 16.9456 18.1384 16.9456 14.5072 18.4131C14.3678 18.4637 14.2505 18.5615 14.1756 18.6896C14.1008 18.8177 14.0731 18.9679 14.0975 19.1142C14.1215 19.0077 14.1714 18.9088 14.2429 18.8263C14.3144 18.7438 14.4052 18.6802 14.5072 18.6414Z" fill="#F5D4A3"/>
</g>
<g style="mix-blend-mode:multiply">
<path d="M26.1949 19.0281C26.1186 19.1774 25.9888 19.2924 25.8314 19.3502C25.674 19.4079 25.5006 19.4042 25.3458 19.3397C22.0243 18.0013 18.3135 18.0013 14.9919 19.3397C14.8372 19.4046 14.6637 19.4085 14.5062 19.3507C14.3487 19.2929 14.2189 19.1777 14.1428 19.0281C14.1219 18.9836 14.1069 18.9364 14.0984 18.8879C14.0721 19.011 14.0877 19.1393 14.1428 19.2525C14.219 19.4019 14.3488 19.517 14.5063 19.5748C14.6637 19.6326 14.8372 19.6287 14.9919 19.5641C18.3134 18.2255 22.0243 18.2255 25.3458 19.5641C25.5006 19.6286 25.674 19.6323 25.8314 19.5745C25.9888 19.5168 26.1186 19.4018 26.1949 19.2525C26.2498 19.1393 26.2655 19.011 26.2393 18.8879C26.2306 18.9363 26.2157 18.9835 26.1949 19.0281Z" fill="#F5D4A3"/>
</g>
<g style="mix-blend-mode:multiply" opacity="0.7">
<path d="M31.2568 23.4219C31.5152 24.375 31.6204 25.3632 31.5684 26.3494C31.5301 27.3625 31.3359 28.3636 30.9927 29.3175C30.6352 30.3145 30.0813 31.2298 29.3638 32.0089C29.1808 32.2073 28.9862 32.3945 28.7811 32.5698C28.6767 32.6563 28.5723 32.7428 28.4648 32.8238L28.3869 32.8853L28.3028 32.9461L28.1579 33.0497C27.7389 33.3467 27.3006 33.6155 26.846 33.8544C25.0411 34.8061 23.0257 35.2883 20.9855 35.2566C19.9922 35.2449 19.0035 35.1184 18.0393 34.8796C17.5628 34.7634 17.0944 34.6164 16.637 34.4395C16.1796 34.2712 15.738 34.0626 15.3174 33.8163C17.1691 34.0834 19.0486 34.0957 20.9037 33.8529C22.6755 33.6234 24.3889 33.0657 25.9564 32.2084C26.7134 31.804 27.4171 31.3067 28.0511 30.7282C28.6566 30.1284 29.1665 29.4392 29.5632 28.6849C30.39 27.026 30.961 25.2516 31.2568 23.4219Z" fill="#F5D4A3"/>
</g>
<g style="mix-blend-mode:multiply" opacity="0.5">
<path d="M30.7417 28.3014C30.2197 25.2633 25.5488 23.5331 20.3083 24.4336C15.0679 25.3342 11.2422 28.525 11.7633 31.5624C12.2845 34.5997 16.9562 36.3307 22.1974 35.4294C27.4386 34.5281 31.2628 31.338 30.7417 28.3014Z" fill="#F34D4D"/>
</g>
<g style="mix-blend-mode:screen" opacity="0.5">
<path d="M8.15674 16.6838C8.49174 16.5228 8.8687 16.4705 9.23489 16.5343C9.59853 16.5851 9.95064 16.6984 10.2757 16.8692C10.5958 17.0352 10.8913 17.245 11.1536 17.4924C11.4188 17.735 11.6428 18.0192 11.8165 18.3338C11.4894 18.178 11.1933 17.9996 10.902 17.8297C10.6106 17.6599 10.3193 17.4979 10.0279 17.346C9.73876 17.1934 9.44093 17.0579 9.13596 16.9401C8.82047 16.8174 8.4919 16.7314 8.15674 16.6838Z" fill="#FF832B"/>
</g>
<path d="M15.2544 4.00078V19.4626C15.5535 19.3466 15.8566 19.2398 16.1651 19.1471C16.4247 19.0682 16.6878 18.997 16.9542 18.9337C19.125 18.4214 21.3867 18.4356 23.5509 18.975C23.8165 19.0412 24.0798 19.1183 24.34 19.2009C24.6516 19.2983 24.9516 19.405 25.2507 19.5257V4L15.2544 4.00078Z" fill="url(#paint3_linear_39_1484)"/>
<g style="mix-blend-mode:multiply">
<path d="M16.1621 5.01562V19.15C16.4218 19.0711 16.6848 19 16.9512 18.9366V6.85098C16.9961 6.85858 17.0414 6.863 17.0868 6.86422C17.332 6.86422 17.5672 6.76681 17.7406 6.5934C17.9141 6.41998 18.0115 6.18478 18.0115 5.93954C18.01 5.89412 18.0056 5.84885 17.9982 5.80399H22.5025C22.4947 5.84878 22.4902 5.89409 22.4893 5.93954C22.4893 6.18465 22.5866 6.41972 22.7598 6.59311C22.9331 6.7665 23.1681 6.86402 23.4132 6.86422C23.4586 6.863 23.5039 6.85858 23.5487 6.85098V18.9802C23.8144 19.0464 24.0777 19.1236 24.3379 19.2061V5.01562H16.1621Z" fill="#299FBB"/>
</g>
<g style="mix-blend-mode:multiply">
<path d="M21.1847 12.5004C21.1265 12.4994 21.0688 12.5122 21.0166 12.5378C20.9643 12.5634 20.9188 12.6011 20.884 12.6476C20.7992 12.7582 20.7271 12.8779 20.6689 13.0044H21.6887C21.6821 12.8631 21.6252 12.7288 21.5282 12.6258C21.4348 12.5402 21.3112 12.4951 21.1847 12.5004Z" fill="#299FBB"/>
</g>
<g style="mix-blend-mode:multiply">
<path d="M18.9334 13.4755C19.0191 13.5444 19.1266 13.5803 19.2364 13.5767C19.2923 13.5775 19.3475 13.5657 19.3981 13.5421C19.4487 13.5185 19.4933 13.4837 19.5286 13.4404C19.6144 13.3369 19.6869 13.2231 19.7444 13.1016H18.7994C18.7949 13.1697 18.8045 13.2381 18.8276 13.3024C18.8506 13.3668 18.8866 13.4257 18.9334 13.4755Z" fill="#299FBB"/>
</g>
<g style="mix-blend-mode:multiply">
<path d="M20.2528 10.0703C19.6663 10.0703 19.0929 10.2443 18.6052 10.5701C18.1175 10.896 17.7373 11.3592 17.5129 11.9011C17.2884 12.443 17.2297 13.0393 17.3441 13.6146C17.4585 14.1899 17.741 14.7183 18.1557 15.1331C18.5705 15.5479 19.0989 15.8303 19.6742 15.9447C20.2495 16.0592 20.8458 16.0004 21.3877 15.776C21.9297 15.5515 22.3928 15.1714 22.7187 14.6837C23.0446 14.196 23.2185 13.6226 23.2185 13.036C23.2183 12.2495 22.9058 11.4953 22.3497 10.9392C21.7935 10.383 21.0393 10.0705 20.2528 10.0703ZM22.8602 13.3523H22.3562C22.3511 13.5471 22.3273 13.7409 22.2853 13.9311C22.2571 14.0663 22.2116 14.1972 22.1497 14.3206L21.4868 14.0947C21.5391 14.0025 21.5796 13.9041 21.6075 13.8018C21.649 13.6553 21.6751 13.5049 21.6854 13.3531H20.5107C20.4569 13.4723 20.3977 13.5915 20.3307 13.7091C20.2678 13.8246 20.1891 13.9307 20.097 14.0246C20.0009 14.1193 19.8878 14.1949 19.7636 14.2474C19.6175 14.3067 19.4608 14.3354 19.3032 14.3315C19.0207 14.3493 18.7426 14.2547 18.5296 14.0682C18.3368 13.8745 18.2117 13.6237 18.1728 13.3531H17.6455V12.7509H18.1495C18.1581 12.6002 18.1813 12.4507 18.2188 12.3045C18.2509 12.184 18.2913 12.0658 18.3396 11.9509L18.9783 12.1596C18.9421 12.2406 18.9111 12.3239 18.8856 12.4089C18.8527 12.5207 18.8295 12.6351 18.8163 12.7509H19.9069C19.9607 12.6317 20.0222 12.511 20.09 12.3894C20.1547 12.2706 20.2354 12.1613 20.3299 12.0646C20.4244 11.9681 20.5352 11.889 20.6571 11.8309C20.7982 11.768 20.9515 11.7374 21.1058 11.7413C21.4073 11.7227 21.7045 11.819 21.9378 12.0108C22.147 12.2062 22.2843 12.4664 22.3273 12.7493H22.8656L22.8602 13.3523Z" fill="#299FBB"/>
</g>
<g style="mix-blend-mode:multiply">
<path d="M15.2544 19.2371V19.4623C15.5528 19.347 15.855 19.241 16.1612 19.1506H16.1651C16.4247 19.0717 16.687 19.0008 16.9519 18.938H16.9604C17.2097 18.878 17.4598 18.8281 17.7122 18.7822L17.854 18.758C18.071 18.7217 18.2892 18.6905 18.5083 18.6645L18.6486 18.6482C19.1822 18.5895 19.7188 18.5614 20.2557 18.564C20.5158 18.564 20.7745 18.5765 21.0347 18.5921L21.1671 18.6022C21.3925 18.6178 21.6176 18.6393 21.8425 18.6669L21.9664 18.6809C22.5005 18.7494 23.0301 18.8493 23.5524 18.98C24.1274 19.1233 24.6919 19.3055 25.2421 19.5253H25.2523V19.301C22.0436 18.0367 18.4789 18.0139 15.2544 19.2371Z" fill="#BFD4D9"/>
</g>
<path style="mix-blend-mode:multiply" d="M25.2505 19.5257V4L40.8448 19.5951V34.5732L25.2505 19.5257Z" fill="url(#paint4_linear_39_1484)"/>
<defs>
<linearGradient id="paint0_linear_39_1484" x1="15.0307" y1="20.2577" x2="26.3337" y2="49.6727" gradientUnits="userSpaceOnUse">
<stop stop-color="#BEDEE8"/>
<stop offset="0.206" stop-color="#D3E7EE"/>
<stop offset="0.483" stop-color="#E8F1F4"/>
<stop offset="0.752" stop-color="#F5F7F8"/>
<stop offset="1" stop-color="#FAFAFA"/>
</linearGradient>
<linearGradient id="paint1_linear_39_1484" x1="33.9757" y1="20.6931" x2="34.9087" y2="27.9325" gradientUnits="userSpaceOnUse">
<stop stop-color="#FD6120"/>
<stop offset="0.363" stop-color="#F5581E"/>
<stop offset="0.937" stop-color="#DF4118"/>
<stop offset="1" stop-color="#DD3F18"/>
</linearGradient>
<linearGradient id="paint2_linear_39_1484" x1="27.6357" y1="-41.8125" x2="27.8653" y2="-31.4342" gradientUnits="userSpaceOnUse">
<stop stop-color="#DD3F18"/>
<stop offset="0.117" stop-color="#B93514"/>
<stop offset="0.354" stop-color="#78220D"/>
<stop offset="0.57" stop-color="#441307"/>
<stop offset="0.756" stop-color="#1F0803"/>
<stop offset="0.906" stop-color="#080200"/>
<stop offset="1"/>
</linearGradient>
<linearGradient id="paint3_linear_39_1484" x1="20.2525" y1="-1.2477" x2="20.2525" y2="24.1524" gradientUnits="userSpaceOnUse">
<stop stop-color="#65CFE5"/>
<stop offset="0.01" stop-color="#63CDE4"/>
<stop offset="0.24" stop-color="#49B9D2"/>
<stop offset="0.478" stop-color="#37AAC5"/>
<stop offset="0.726" stop-color="#2CA1BD"/>
<stop offset="1" stop-color="#299FBB"/>
</linearGradient>
<linearGradient id="paint4_linear_39_1484" x1="21.3675" y1="7.88279" x2="37.03" y2="11.957" gradientUnits="userSpaceOnUse">
<stop stop-color="#BCDBE6"/>
<stop offset="0.011" stop-color="#BEDCE7"/>
<stop offset="0.12" stop-color="#D6E9EF"/>
<stop offset="0.245" stop-color="#E8F2F6"/>
<stop offset="0.393" stop-color="#F5F9FB"/>
<stop offset="0.588" stop-color="#FCFDFE"/>
<stop offset="1" stop-color="white"/>
</linearGradient>
</defs>
</svg>
