<svg xmlns="http://www.w3.org/2000/svg" width="42.416" height="36.258" viewBox="0 0 42.416 36.258">
  <g id="Group_11352" data-name="Group 11352" transform="translate(-51.824 -205.578)">
    <g id="document" transform="translate(51.824 205.578)">
      <path id="Path_23406" data-name="Path 23406" d="M156.067,92.125,137.56,77.913,119.1,103.693l6.477,4.974a31.041,31.041,0,0,0,6.427.666C144.747,109.333,155.184,101.742,156.067,92.125Z" transform="translate(-113.651 -73.075)" fill="#85080e" opacity="0.08"/>
      <path id="Path_23407" data-name="Path 23407" d="M132.926,100.147l-1.964-22.234H119.1v20.3Z" transform="translate(-119.096 -77.913)" fill="#fff"/>
      <path id="Path_23408" data-name="Path 23408" d="M267.626,98.213V84.68l-4.833-1.933-1.933-4.833h-5.149l.031,22.234Z" transform="translate(-243.846 -77.913)" fill="#e8e6e6"/>
      <path id="Path_23409" data-name="Path 23409" d="M314.991,84.68V77.913l6.767,6.767Z" transform="translate(-297.977 -77.913)" fill="#fff"/>
      <path id="Path_23413" data-name="Path 23413" d="M0,0H23.781V10.634H0Z" transform="translate(0 20.301)" fill="#fffafb"/>
    </g>
    <g id="Group_11222" data-name="Group 11222" transform="translate(21.596 194.848)">
      <g id="Group_9156" data-name="Group 9156" transform="translate(34.59 25.73)">
        <g id="Group_9150" data-name="Group 9150" transform="translate(2.027 1.214)">
          <path id="Path_22824" data-name="Path 22824" d="M117.407,76.715a.837.837,0,0,1-.355.09.368.368,0,0,1-.384-.42v-.944h.824V74.81h-.818V74.1h-.734v.707h-.552v.631h.552v.944A.959.959,0,0,0,117,77.467a1.618,1.618,0,0,0,.606-.126Z" transform="translate(-115.387 -74.103)" fill="#2d2d2d"/>
        </g>
        <g id="Group_9151" data-name="Group 9151" transform="translate(8.607 1.487)">
          <path id="Path_22825" data-name="Path 22825" d="M378.433,86.838a.789.789,0,0,0,.884.631,1.223,1.223,0,0,0,.794-.277l.469.463a1.821,1.821,0,0,1-1.275.481A1.567,1.567,0,1,1,379.25,85c.992,0,1.612.613,1.5,1.834Zm1.612-.607a.679.679,0,0,0-.77-.577.8.8,0,0,0-.83.577Z" transform="translate(-377.675 -85.004)" fill="#2d2d2d"/>
        </g>
        <g id="Group_9152" data-name="Group 9152" transform="translate(12.107 0.339)">
          <path id="Path_22826" data-name="Path 22826" d="M520.4,39.224v4.2h-.686l-.048-.409a1.079,1.079,0,0,1-.956.475,1.455,1.455,0,0,1-1.527-1.551,1.42,1.42,0,0,1,1.509-1.551,1.227,1.227,0,0,1,.974.475V39.224Zm-2.483,2.718a.851.851,0,1,0,1.7,0,.846.846,0,0,0-.86-.866A.818.818,0,0,0,517.914,41.942Z" transform="translate(-517.18 -39.224)" fill="#2d2d2d"/>
        </g>
        <g id="Group_9153" data-name="Group 9153" transform="translate(1.211 1.214)">
          <path id="Path_22827" data-name="Path 22827" d="M82.872,74.1" transform="translate(-82.872 -74.103)" fill="#2d2d2d"/>
        </g>
        <g id="Group_9154" data-name="Group 9154">
          <path id="Path_22828" data-name="Path 22828" d="M47.421,26.923a1.739,1.739,0,0,0-.733.525,2.159,2.159,0,0,0-3.208-.186L39.8,30.942a3.053,3.053,0,0,1-4.318-4.317l.638.637A2.151,2.151,0,0,0,39.163,30.3l3.679-3.679a3.052,3.052,0,0,1,4.318,0A2.978,2.978,0,0,1,47.421,26.923Z" transform="translate(-34.591 -25.73)" fill="#f34d4d"/>
        </g>
        <g id="Group_9155" data-name="Group 9155" transform="translate(4.572 0.895)">
          <rect id="Rectangle_4184" data-name="Rectangle 4184" width="0.902" height="2.602" transform="translate(0 0.638) rotate(-45.002)" fill="#f34d4d"/>
        </g>
        <path id="Path_22829" data-name="Path 22829" d="M332.5,172.442a2.925,2.925,0,0,1-.261.3,3.051,3.051,0,0,1-4.318,0l-.918-.918.638-.638.919.919a2.153,2.153,0,0,0,3.042,0,1.991,1.991,0,0,0,.165-.185A1.743,1.743,0,0,0,332.5,172.442Z" transform="translate(-319.667 -167.534)" fill="#f34d4d"/>
      </g>
      <path id="Path_22830" data-name="Path 22830" d="M294.323,26.625a3.052,3.052,0,0,0-4.318,0l-1.891,1.891c.193.235.373.479.55.726l1.98-1.98a2.158,2.158,0,0,1,3.208.186,1.74,1.74,0,0,1,.733-.525A2.982,2.982,0,0,0,294.323,26.625Z" transform="translate(-247.162 0)" fill="#f34d4d"/>
    </g>
  </g>
</svg>
