<svg xmlns="http://www.w3.org/2000/svg" width="209.932" height="207.469" viewBox="0 0 209.932 207.469">
  <g id="Marriage-amico" transform="translate(-22.538 -28.836)">
    <g id="freepik--Floor--inject-2" transform="translate(22.538 115.093)">
      <path id="freepik--floor--inject-2-2" data-name="freepik--floor--inject-2" d="M53.281,319.237c-40.992-23.692-40.992-62.062,0-85.731s107.452-23.664,148.444,0,40.992,62.039,0,85.708S94.278,342.882,53.281,319.237Z" transform="translate(-22.538 -215.756)" fill="#ededed" opacity="0.64"/>
    </g>
    <g id="freepik--Shadow--inject-2" transform="translate(31.903 118.445)">
      <path id="freepik--shadow--inject-2-2" data-name="freepik--shadow--inject-2" d="M233.744,285.369l-107.71-62.182a1.527,1.527,0,0,0-1.384,0L43.113,270.256a.711.711,0,0,0-.138.1c-.231.222-.18.508.152.7l107.7,62.178a1.416,1.416,0,0,0,.7.166,1.444,1.444,0,0,0,.683-.157l81.541-47.069c.309-.18.36-.461.157-.674a.5.5,0,0,1,.088.083A1.066,1.066,0,0,0,233.744,285.369Z" transform="translate(-42.833 -223.021)" fill="#e0e0e0"/>
    </g>
    <g id="freepik--Document--inject-2" transform="translate(35.669 117.464)">
      <g id="freepik--marriage-contract--inject-2" transform="translate(0)">
        <path id="Path_22416" data-name="Path 22416" d="M156.02,328.751l77.988-45.025a1.486,1.486,0,0,0,.669-1.158V281.7a1.472,1.472,0,0,0-.669-1.158L130.972,221.054a1.477,1.477,0,0,0-1.334,0L51.651,266.079A1.472,1.472,0,0,0,51,267.238v.868a1.481,1.481,0,0,0,.669,1.158l103.017,59.487a1.477,1.477,0,0,0,1.334,0Z" transform="translate(-50.997 -220.895)" fill="#fafafa"/>
        <path id="Path_22417" data-name="Path 22417" d="M234.473,280.548l-103.04-59.492a1.463,1.463,0,0,0-1.32,0L52.125,266.091a.709.709,0,0,0-.134.1c-.222.212-.171.489.143.669L155.152,326.34a1.466,1.466,0,0,0,1.32.009l77.988-45.039c.3-.175.346-.438.152-.646a.492.492,0,0,1,.088.083A.983.983,0,0,0,234.473,280.548Zm-3.332.383L155.816,324.42,55.443,266.469l75.325-43.488Z" transform="translate(-51.458 -220.897)" fill="#f34d4d"/>
        <path id="Path_22418" data-name="Path 22418" d="M355.954,350.42c.2.208.143.461-.157.646l-77.988,45.025a1.384,1.384,0,0,1-.669.162v2.427a1.3,1.3,0,0,0,.664-.162l77.988-45.025a1.449,1.449,0,0,0,.665-1.154v-.868A1.467,1.467,0,0,0,355.954,350.42Z" transform="translate(-172.781 -290.649)" fill="#f34d4d"/>
        <path id="Path_22419" data-name="Path 22419" d="M355.954,350.42c.2.208.143.461-.157.646l-77.988,45.025a1.384,1.384,0,0,1-.669.162v2.427a1.3,1.3,0,0,0,.664-.162l77.988-45.025a1.449,1.449,0,0,0,.665-1.154v-.868A1.467,1.467,0,0,0,355.954,350.42Z" transform="translate(-172.781 -290.649)" opacity="0.3"/>
        <path id="Path_22420" data-name="Path 22420" d="M51.508,319a1.659,1.659,0,0,0-.18.18.919.919,0,0,1-.078.106,1.908,1.908,0,0,0-.189.36.96.96,0,0,0-.065.277,1.051,1.051,0,0,0,0,.166v.868a1.458,1.458,0,0,0,.669,1.154l103.017,59.469a1.344,1.344,0,0,0,.669.161v-2.409a1.436,1.436,0,0,1-.669-.162L51.651,319.683C51.333,319.5,51.287,319.226,51.508,319Z" transform="translate(-50.993 -273.728)" fill="#f34d4d"/>
        <path id="Path_22421" data-name="Path 22421" d="M51.508,319a1.659,1.659,0,0,0-.18.18.919.919,0,0,1-.078.106,1.908,1.908,0,0,0-.189.36.96.96,0,0,0-.065.277,1.051,1.051,0,0,0,0,.166v.868a1.458,1.458,0,0,0,.669,1.154l103.017,59.469a1.344,1.344,0,0,0,.669.161v-2.409a1.436,1.436,0,0,1-.669-.162L51.651,319.683C51.333,319.5,51.287,319.226,51.508,319Z" transform="translate(-50.993 -273.728)" opacity="0.15"/>
        <path id="Path_22431" data-name="Path 22431" d="M170.674,274.3c-.923-.531-.872-1.274,0-1.772a3.23,3.23,0,0,1,3.073,0c.923.544.969,1.251.032,1.79A3.161,3.161,0,0,1,170.674,274.3Zm2.063-1.167c-.858-.494-1.407-.618-1.749-.42s-.134.517.725,1.011,1.384.614,1.749.415.134-.512-.725-1.006Z" transform="translate(-115.083 -248.491)" fill="#455a64"/>
        <path id="Path_22432" data-name="Path 22432" d="M180.007,267.634l.706.406c.268.157.628.365.923.531l.36-.138.286.166-1.6.923-.281-.161.245-.222-.923-.535-.637-.365c-.388-.221-.623-.249-.858-.111a.623.623,0,0,0-.3.429l.923.54c.254.148.628.365.923.531l.341-.129.286.166-1.592.923-.281-.161.254-.231-.923-.531-.351-.2c-.332-.189-.461-.258-.715-.392l-.425.18-.235-.134.784-.923h.175l.461.231a.789.789,0,0,1,.461-.849,1.883,1.883,0,0,1,1.984.06Z" transform="translate(-118.389 -245.897)" fill="#455a64"/>
        <path id="Path_22433" data-name="Path 22433" d="M187.558,265.246a.383.383,0,0,0,.194-.268h.3c.143.272.042.535-.406.794a1.587,1.587,0,0,1-1.7,0l-.6-.351-1.154-.669-.392.226-.355-.2.383-.3-.54-.66.614-.36.84.5.637-.369.411.24-.637.365,1.7.988A.725.725,0,0,0,187.558,265.246Z" transform="translate(-122.234 -243.818)" fill="#455a64"/>
        <path id="Path_22434" data-name="Path 22434" d="M191.32,263.3l.263-.231-.923-.535-.36-.2c-.332-.194-.461-.258-.711-.392l-.425.18-.235-.134.785-.923.175-.023.771.378c-.36-.392-.268-.748.028-.923a1.117,1.117,0,0,1,.974-.042c.3.185.309.392.065.531a1.237,1.237,0,0,1-.748.106H190.9a.868.868,0,0,0,.318.655l.411.235.891.508.577-.217.286.166-1.79,1.029Z" transform="translate(-125.277 -242.149)" fill="#455a64"/>
        <path id="Path_22438" data-name="Path 22438" d="M116.874,287.891a.571.571,0,0,1-.286-1.066l50.383-29.072a.572.572,0,0,1,.572.988L117.16,287.831a.586.586,0,0,1-.286.06Z" transform="translate(-86.165 -240.713)" fill="#e0e0e0"/>
        <path id="Path_22439" data-name="Path 22439" d="M122.166,290.9a.572.572,0,0,1-.286-1.066l50.383-29.072a.572.572,0,1,1,.572.988l-50.383,29.063A.6.6,0,0,1,122.166,290.9Z" transform="translate(-89.015 -242.312)" fill="#e0e0e0"/>
        <path id="Path_22440" data-name="Path 22440" d="M122.335,297.012a.572.572,0,0,1-.286-1.066l60.913-35.159a.572.572,0,0,1,.568.992l-60.913,35.159A.586.586,0,0,1,122.335,297.012Z" transform="translate(-89.106 -242.345)" fill="#e0e0e0"/>
        <path id="Path_22441" data-name="Path 22441" d="M129.876,301.378a.572.572,0,0,1-.286-1.066L190.5,265.153a.572.572,0,0,1,.572.988L130.162,301.3A.535.535,0,0,1,129.876,301.378Z" transform="translate(-93.168 -244.699)" fill="#e0e0e0"/>
        <path id="Path_22442" data-name="Path 22442" d="M137.426,305.705a.572.572,0,0,1-.286-1.066l60.913-35.159a.573.573,0,0,1,.572.992l-60.913,35.159a.586.586,0,0,1-.286.074Z" transform="translate(-97.233 -247.019)" fill="#e0e0e0"/>
        <path id="Path_22443" data-name="Path 22443" d="M202.9,343.489a.558.558,0,0,1-.494-.286.568.568,0,0,1,.208-.78l60.913-35.159a.572.572,0,1,1,.572.988L203.189,343.41A.6.6,0,0,1,202.9,343.489Z" transform="translate(-132.494 -267.354)" fill="#e0e0e0"/>
        <path id="Path_22444" data-name="Path 22444" d="M210.445,347.866a.572.572,0,0,1-.286-1.066l60.913-35.159a.573.573,0,1,1,.572.992l-60.913,35.159A.577.577,0,0,1,210.445,347.866Z" transform="translate(-136.556 -269.723)" fill="#e0e0e0"/>
        <path id="Path_22445" data-name="Path 22445" d="M218,352.248a.572.572,0,0,1-.286-1.066l60.913-35.159a.572.572,0,0,1,.572.988l-60.913,35.159a.522.522,0,0,1-.286.078Z" transform="translate(-140.623 -272.094)" fill="#e0e0e0"/>
        <path id="Path_22446" data-name="Path 22446" d="M157.54,340.274a.572.572,0,0,1-.291-1.066l26.83-15.491a.585.585,0,0,1,.591,1.011l-26.83,15.487A.563.563,0,0,1,157.54,340.274Z" transform="translate(-108.063 -276.225)" fill="#e0e0e0"/>
        <path id="Path_22447" data-name="Path 22447" d="M165.825,345.037a.572.572,0,0,1-.286-1.066l26.825-15.487a.572.572,0,1,1,.572.988l-26.825,15.491a.586.586,0,0,1-.286.074Z" transform="translate(-112.527 -278.782)" fill="#e0e0e0"/>
        <path id="Path_22448" data-name="Path 22448" d="M174.11,349.848a.573.573,0,0,1-.286-1.071l26.825-15.487a.573.573,0,1,1,.572.992l-26.83,15.487a.563.563,0,0,1-.282.078Z" transform="translate(-116.987 -281.383)" fill="#e0e0e0"/>
        <path id="Path_22449" data-name="Path 22449" d="M182.395,354.572a.572.572,0,0,1-.286-1.066l26.83-15.491a.572.572,0,1,1,.568.992l-26.825,15.487A.549.549,0,0,1,182.395,354.572Z" transform="translate(-121.45 -283.92)" fill="#e0e0e0"/>
        <path id="Path_22450" data-name="Path 22450" d="M190.686,359.463a.572.572,0,0,1-.286-1.066l26.825-15.464a.572.572,0,0,1,.572.988l-26.811,15.468A.558.558,0,0,1,190.686,359.463Z" transform="translate(-125.916 -286.586)" fill="#e0e0e0"/>
        <path id="Path_22451" data-name="Path 22451" d="M231.336,297.676a.572.572,0,0,1-.286-1.066l26.825-15.487a.572.572,0,0,1,.572.988L231.64,297.6A.586.586,0,0,1,231.336,297.676Z" transform="translate(-147.807 -253.299)" fill="#e0e0e0"/>
        <path id="Path_22452" data-name="Path 22452" d="M239.646,302.438a.572.572,0,0,1-.286-1.071l26.83-15.473a.572.572,0,1,1,.568.992l-26.825,15.487A.582.582,0,0,1,239.646,302.438Z" transform="translate(-152.279 -255.851)" fill="#e0e0e0"/>
        <path id="Path_22453" data-name="Path 22453" d="M247.946,307.218a.572.572,0,0,1-.286-1.066l26.825-15.491a.573.573,0,0,1,.572.992l-26.825,15.487a.6.6,0,0,1-.286.078Z" transform="translate(-156.752 -258.425)" fill="#e0e0e0"/>
        <path id="Path_22454" data-name="Path 22454" d="M256.226,312.026a.572.572,0,0,1-.286-1.066l26.83-15.487a.572.572,0,0,1,.572.988l-26.83,15.491A.577.577,0,0,1,256.226,312.026Z" transform="translate(-161.212 -261.027)" fill="#e0e0e0"/>
        <path id="Path_22455" data-name="Path 22455" d="M264.516,316.788a.572.572,0,0,1-.286-1.066l26.825-15.491a.573.573,0,0,1,.572.992L264.8,316.7A.6.6,0,0,1,264.516,316.788Z" transform="translate(-165.676 -263.579)" fill="#e0e0e0"/>
        <path id="Path_22456" data-name="Path 22456" d="M147.486,342.611a.572.572,0,0,1-.286-1.066l14.707-8.491a.572.572,0,1,1,.572.988l-14.707,8.491A.549.549,0,0,1,147.486,342.611Z" transform="translate(-102.651 -281.243)" fill="#455a64"/>
        <path id="Path_22457" data-name="Path 22457" d="M238.165,363.876a.572.572,0,0,1-.286-1.066l60.913-35.159a.57.57,0,1,1,.568.988L238.446,363.8A.6.6,0,0,1,238.165,363.876Z" transform="translate(-151.484 -278.346)" fill="#e0e0e0"/>
        <path id="Path_22458" data-name="Path 22458" d="M245.706,368.225a.572.572,0,0,1-.286-1.066L306.333,332a.573.573,0,0,1,.572.992L246,368.152a.577.577,0,0,1-.291.074Z" transform="translate(-155.546 -280.688)" fill="#e0e0e0"/>
        <path id="Path_22459" data-name="Path 22459" d="M253.256,372.609a.572.572,0,0,1-.286-1.066l60.913-35.159a.572.572,0,1,1,.572.988L253.542,372.53A.6.6,0,0,1,253.256,372.609Z" transform="translate(-159.612 -283.036)" fill="#e0e0e0"/>
        <path id="Path_22460" data-name="Path 22460" d="M228.336,389.3a.572.572,0,0,1-.286-1.066l14.707-8.491a.572.572,0,1,1,.572.988l-14.707,8.5a.586.586,0,0,1-.286.074Z" transform="translate(-146.192 -306.387)" fill="#455a64"/>
        <path id="Path_22461" data-name="Path 22461" d="M221.336,299.982a.572.572,0,0,1-.286-1.066l14.707-8.5a.573.573,0,0,1,.572.992L221.617,299.9A.563.563,0,0,1,221.336,299.982Z" transform="translate(-142.422 -258.296)" fill="#455a64"/>
        <path id="Path_22462" data-name="Path 22462" d="M276.242,408.934c1.218.065,2.8,0,3.507-1.181a2.681,2.681,0,0,0,.166-1.957,2.192,2.192,0,0,0-.923-1.509.923.923,0,0,0-.785-.129c-.281.134-.328.535-.323.808a4.937,4.937,0,0,0,.558,2.072,2.584,2.584,0,0,0,1.3,1.311,2.469,2.469,0,0,0,1.934,0,1.587,1.587,0,0,0,.988-1.481,1.412,1.412,0,0,0-1-1.514.157.157,0,0,0-.226.129,2.307,2.307,0,0,0,.392,1.564,2.058,2.058,0,0,0,1.26.752c.535.083.711-.54.725-.974a3.9,3.9,0,0,0-.512-1.726c-.074-.152-.378-.189-.3.037a1.845,1.845,0,0,0,.678.9c.309.226.641.461.96.138.545-.54,0-1.384-.328-1.846l-.138.212a3.964,3.964,0,0,0,1.551.9c.065,0,.106-.028.111-.088a2.437,2.437,0,0,0-.341-1.384l-.134.152a2.057,2.057,0,0,0,2.233.8c.734-.323.577-1.384.521-2.049a10.051,10.051,0,0,0-2.307-5.385c-.092-.106-.235-.055-.226.083a12.273,12.273,0,0,0,.8,3.23,26.946,26.946,0,0,0,1.481,3.341,10.025,10.025,0,0,0,1.449,2.233c.134.138.318.337.531.337.508,0,.651-.577.591-.974a4.02,4.02,0,0,0-.291-.923c-.2-.512-.411-1.015-.618-1.523q-.646-1.55-1.32-3.083l-.235.078a11.074,11.074,0,0,0,2.547,2.976c.12.1.2-.037.175-.152-.161-.706-.328-1.412-.494-2.118L290,401.1l1.509,1.107a.115.115,0,0,0,.185-.037,2.482,2.482,0,0,0,0-1.712l-.143.185a3.64,3.64,0,0,1,1.135.586c.106.088.2,0,.194-.125l-.046-.5-.3-.028c.055.521.715.683,1.14.725a2.127,2.127,0,0,0,1.8-.558,3.733,3.733,0,0,0,.724-2.123,4.614,4.614,0,0,0-.3-2.566,1.274,1.274,0,0,0-1.638-.6,1.3,1.3,0,0,0-.7,1.486,4.477,4.477,0,0,0,.858,2.026,6.461,6.461,0,0,0,.863.923,2.086,2.086,0,0,0,.992.577,1.252,1.252,0,0,0,1.449-1.223,3.5,3.5,0,0,0-.771-2.584c-.078-.106-.337-.115-.3.069a2.072,2.072,0,0,0,1.961,1.523c.526.037,2-.226,1.666-1.061-.078-.208-.461-.235-.351.028s-.254.415-.429.494a2.308,2.308,0,0,1-.951.171,1.48,1.48,0,0,1-1.527-1.08l-.337.023a3.387,3.387,0,0,1,.692,1.846c0,.526-.083,1.163-.632,1.384-.7.277-1.306-.374-1.735-.831a4.273,4.273,0,0,1-.978-1.652,1.659,1.659,0,0,1,.055-1.477.923.923,0,0,1,1.426-.069,3.434,3.434,0,0,1,.374,1.966,6.124,6.124,0,0,1-.355,1.934,1.624,1.624,0,0,1-1.343,1.006,2.548,2.548,0,0,1-.817-.032c-.166-.037-.517-.106-.54-.318s-.318-.268-.3-.028l.046.5.194-.125a3.811,3.811,0,0,0-1.209-.623c-.125-.042-.18.078-.143.189a2.128,2.128,0,0,1,0,1.463l.185-.042-1.5-1.1a.117.117,0,0,0-.194.111c.175.734.351,1.467.521,2.2l.18-.148a10.567,10.567,0,0,1-2.432-2.843c-.083-.143-.314-.1-.235.083.7,1.592,1.384,3.193,2.03,4.818a2.8,2.8,0,0,1,.2.715c0,.245-.088.6-.4.609-.125,0-.291-.194-.383-.3a10.612,10.612,0,0,1-1.315-2.067,26.577,26.577,0,0,1-1.384-3.05,12,12,0,0,1-.84-3.346l-.222.083a9.834,9.834,0,0,1,2.178,4.716,7.287,7.287,0,0,1,.083,1.186,1.172,1.172,0,0,1-.245.923c-.674.568-1.707-.051-2.164-.6-.106-.125-.194.051-.134.152a2.017,2.017,0,0,1,.3,1.172l.106-.088a3.336,3.336,0,0,1-1.431-.854c-.12-.129-.286,0-.189.143.208.328.545.821.406,1.227a.485.485,0,0,1-.208.268c-.162.065-.346-.065-.461-.157a1.339,1.339,0,0,1-.521-.641l-.3.037a3.931,3.931,0,0,1,.425,1.237,1.532,1.532,0,0,1-.046.614.988.988,0,0,1-.152.323c-.106.106-.226.065-.351.023a1.541,1.541,0,0,1-.835-.586,1.929,1.929,0,0,1-.194-1.181l-.226.129c.54.2.628.665.568,1.191a1.26,1.26,0,0,1-.826,1.043,2.03,2.03,0,0,1-1.56-.032,1.952,1.952,0,0,1-.923-.992,4.527,4.527,0,0,1-.489-1.56c-.023-.2-.106-.66.069-.812s.554.148.669.3a3.23,3.23,0,0,1,.494,1.431,1.8,1.8,0,0,1-.337,1.514,3.757,3.757,0,0,1-3.036.923c-.083,0-.069.175,0,.18Z" transform="translate(-172.294 -314.844)" fill="#455a64"/>
        <path id="Path_22463" data-name="Path 22463" d="M353.814,361a1.984,1.984,0,0,1-.125-1.874,2.621,2.621,0,0,1,.6-.808c.194-.185.429-.291.632-.042a2.992,2.992,0,0,1,.328.581,14.231,14.231,0,0,1,1.467,4.3h.328a4.286,4.286,0,0,1-.162-1.79,1.592,1.592,0,0,1,.406-.886c.2-.162.318,0,.461.138a3.184,3.184,0,0,1,.383.438c.074.106.346.175.309-.042a2.16,2.16,0,0,1,.138-1.218,1.114,1.114,0,0,1,.115-.235c.129-.171.185-.06.3.051a1.339,1.339,0,0,1,.318.494l.332-.046a1.191,1.191,0,0,1-.092-.692c.074-.374.355-.12.485.055a1.929,1.929,0,0,0,.572.632c.152.092.291.138.415,0a1.952,1.952,0,0,0,.281-.563,6.4,6.4,0,0,0,.4-1.777,5.219,5.219,0,0,0-.078-2.344.844.844,0,0,0-.517-.545.586.586,0,0,0-.678.221,2.69,2.69,0,0,0-.425,1.97,4.989,4.989,0,0,0,.688,2.114,1.722,1.722,0,0,0,1.417,1.057.683.683,0,0,0,.637-.461,6.61,6.61,0,0,0,.374-1.384,7.221,7.221,0,0,0-.1-2.769c-.028-.12-.314-.314-.369-.111a2.471,2.471,0,0,0,.655,2.7c.06.055.2.106.263,0a2.64,2.64,0,0,0,.411-2.187l-.328.06,1.094,1.255a.18.18,0,0,0,.281,0,1.357,1.357,0,0,0-.06-1.343l-.245.18a5.074,5.074,0,0,0,.923.766c.365.185.655-.042.951-.258a6.751,6.751,0,0,0,1.541-1.735,14.766,14.766,0,0,0,2.247-5.021,2.381,2.381,0,0,0-.3-2.123,1.324,1.324,0,0,0-1.878.037,9.091,9.091,0,0,0-2.949,3.867,6.35,6.35,0,0,0-.42,2.026,2.82,2.82,0,0,0,.549,2.044c1.112,1.264,3.032.641,4.153-.254a7.683,7.683,0,0,0,2.584-4.01,6,6,0,0,0,.18-1.149,3.5,3.5,0,0,0-.042-1.006.955.955,0,0,0-1.481-.461,3.359,3.359,0,0,0-1.209,2.035,3.009,3.009,0,0,0,.245,1.975c.766,1.467,2.672,1.431,4.075,1.149a7.675,7.675,0,0,0,1.2-.351c.129-.051,0-.309-.125-.282-1.3.277-3.023.817-4.232,0-1.071-.72-.96-2.307-.369-3.3a3.4,3.4,0,0,1,.609-.789c.2-.185.674-.378.817-.028a2.307,2.307,0,0,1,.051.923,5.761,5.761,0,0,1-.138.974,7.457,7.457,0,0,1-2.026,3.553c-.849.863-2.354,1.786-3.572,1.158s-.923-2.358-.637-3.41a8.034,8.034,0,0,1,1.97-3.323c.226-.235.461-.461.706-.683a2.87,2.87,0,0,1,.849-.6c.978-.369,1.112.9,1,1.56a13.484,13.484,0,0,1-1.7,4.5,9.76,9.76,0,0,1-1.357,1.883,3.645,3.645,0,0,1-.923.766c-.254.125-.383-.032-.568-.189l-.526-.461c-.162-.138-.36-.023-.249.18a.992.992,0,0,1,0,.992l.314.032-1.057-1.218c-.083-.1-.388-.166-.323.06a2.363,2.363,0,0,1-.36,1.943h.263a2.054,2.054,0,0,1-.5-2.261l-.369-.111a6.784,6.784,0,0,1,.152,2.16,6.13,6.13,0,0,1-.166,1,2.71,2.71,0,0,1-.323.964c-.212.281-.641.111-.863-.069a2.547,2.547,0,0,1-.558-.817,4.528,4.528,0,0,1-.517-1.887c0-.554,0-1.348.461-1.694.4-.268.512.5.544.734a5.322,5.322,0,0,1,0,1.084,8.648,8.648,0,0,1-.291,1.883c-.046.143-.1.286-.161.429-.028.074-.143.461-.231.461l-.2-.222c-.037-.042-.152-.235-.235-.346a1.075,1.075,0,0,0-.549-.42c-.72-.185-.568.923-.415,1.3.083.194.425.2.332-.046-.12-.328-.7-1.237-1.135-.923a1.5,1.5,0,0,0-.383.8,2.335,2.335,0,0,0-.032,1.011l.314-.037a3.692,3.692,0,0,0-.461-.521,1.444,1.444,0,0,0-.517-.378c-.383-.106-.651.406-.771.7a3.872,3.872,0,0,0,.037,2.46c.042.152.365.235.328,0a14.049,14.049,0,0,0-.748-2.667,14.475,14.475,0,0,0-.609-1.384c-.12-.24-.249-.461-.378-.711a1.7,1.7,0,0,0-.346-.494c-.664-.545-1.343.563-1.541,1.089a2.15,2.15,0,0,0,.291,2.044c.074.1.143-.032.1-.111Z" transform="translate(-213.77 -289.012)" fill="#455a64"/>
      </g>
    </g>
    <g id="freepik--Rings--inject-2" transform="translate(112.832 152.26)">
      <g id="freepik--rings--inject-2-2" data-name="freepik--rings--inject-2" transform="translate(0)">
        <path id="freepik--shadow--inject-2-3" data-name="freepik--shadow--inject-2" d="M251.214,316.024a20.343,20.343,0,0,0-18.334-.083,16.968,16.968,0,0,0-7.817,2.035c-2.409,1.384-3.733,3.281-3.733,5.325s1.324,3.936,3.733,5.325a17.29,17.29,0,0,0,8.514,2.044h0a18.922,18.922,0,0,0,6.114-.969,22.13,22.13,0,0,0,2.307.12h0a18.643,18.643,0,0,0,9.229-2.224c2.617-1.509,4.056-3.567,4.056-5.787S253.831,317.533,251.214,316.024Zm-10.448,10.328a11.154,11.154,0,0,1-1,.5,14.642,14.642,0,0,1-5.648-1.726c-1.7-.983-2.644-2.169-2.644-3.336s.923-2.307,2.538-3.272a14.49,14.49,0,0,1,6.751,1.689c1.569.923,2.432,2,2.432,3.073S242.336,325.466,240.767,326.352Zm-7.213,1.7a14.7,14.7,0,0,1-7.213-1.7c-1.569-.923-2.432-1.994-2.432-3.069s.863-2.164,2.432-3.073a12.038,12.038,0,0,1,3.143-1.2,5.367,5.367,0,0,0-.812,2.8c0,2.22,1.444,4.278,4.061,5.787.286.166.586.323.891.461Zm16.244-2.921a14.513,14.513,0,0,1-5.473,1.7,5.27,5.27,0,0,0,1.477-3.549c0-2.044-1.329-3.936-3.733-5.325a13.906,13.906,0,0,0-2.7-1.177,19.845,19.845,0,0,1,2.593-.171,16,16,0,0,1,7.845,1.846c1.707.983,2.644,2.169,2.644,3.336s-.946,2.372-2.663,3.355Z" transform="translate(-219.889 -305.723)" opacity="0.15"/>
        <g id="freepik--rings--inject-2-3" data-name="freepik--rings--inject-2">
          <g id="freepik--Ring--inject-2" transform="translate(9.498 4.202)">
            <path id="Path_22464" data-name="Path 22464" d="M263.9,321.13v4.222c0,1.846-1.223,3.692-3.692,5.122-4.9,2.824-12.838,2.824-17.729,0-2.45-1.412-3.692-3.267-3.692-5.122V321.13c0,1.846,1.223,3.692,3.692,5.118,4.892,2.829,12.833,2.829,17.729,0C262.68,324.836,263.9,322.985,263.9,321.13Z" transform="translate(-238.79 -313.872)" fill="#f34d4d"/>
            <path id="Path_22465" data-name="Path 22465" d="M263.9,321.13v4.222c0,1.846-1.223,3.692-3.692,5.122-4.9,2.824-12.838,2.824-17.729,0-2.45-1.412-3.692-3.267-3.692-5.122V321.13c0,1.846,1.223,3.692,3.692,5.118,4.892,2.829,12.833,2.829,17.729,0C262.68,324.836,263.9,322.985,263.9,321.13Z" transform="translate(-238.79 -313.872)" fill="#fff" opacity="0.55"/>
            <path id="Path_22466" data-name="Path 22466" d="M260.64,330.266c-6.922,2.746-13.719,1.384-13.844.3s1.32-2.427,1.32-2.427h0a16.243,16.243,0,0,1-5.584-1.846c-2.45-1.412-3.692-3.263-3.692-5.118V325.4c0,1.846,1.223,3.692,3.692,5.122,4.892,2.824,12.833,2.824,17.729,0Z" transform="translate(-238.817 -313.899)" opacity="0.1"/>
            <path id="Path_22467" data-name="Path 22467" d="M264.156,314.183a3.5,3.5,0,0,1-.771,2.113,7.43,7.43,0,0,0-2.257-1.892,18.336,18.336,0,0,0-16.447,0,7.382,7.382,0,0,0-2.261,1.892,3.53,3.53,0,0,1-.771-2.114c0-1.454,1.075-2.875,3.032-4.005a18.336,18.336,0,0,1,16.447,0C263.08,311.308,264.156,312.739,264.156,314.183Z" transform="translate(-240.33 -306.925)" fill="#f34d4d"/>
            <path id="Path_22468" data-name="Path 22468" d="M264.156,314.183a3.5,3.5,0,0,1-.771,2.113,7.43,7.43,0,0,0-2.257-1.892,18.336,18.336,0,0,0-16.447,0,7.382,7.382,0,0,0-2.261,1.892,3.53,3.53,0,0,1-.771-2.114c0-1.454,1.075-2.875,3.032-4.005a18.336,18.336,0,0,1,16.447,0C263.08,311.308,264.156,312.739,264.156,314.183Z" transform="translate(-240.33 -306.925)" fill="#fff" opacity="0.5"/>
            <path id="Path_22469" data-name="Path 22469" d="M264.156,314.183a3.5,3.5,0,0,1-.771,2.113,7.43,7.43,0,0,0-2.257-1.892,18.336,18.336,0,0,0-16.447,0,7.382,7.382,0,0,0-2.261,1.892,3.53,3.53,0,0,1-.771-2.114c0-1.454,1.075-2.875,3.032-4.005a18.336,18.336,0,0,1,16.447,0C263.08,311.308,264.156,312.739,264.156,314.183Z" transform="translate(-240.33 -306.925)" opacity="0.1"/>
            <path id="Path_22470" data-name="Path 22470" d="M243.076,316.624V315a3.955,3.955,0,0,0-1.426,2.829,3.53,3.53,0,0,0,.771,2.113,7.384,7.384,0,0,1,2.261-1.892,16.224,16.224,0,0,1,7.282-1.929h0C246.611,315.434,243.076,317.916,243.076,316.624Z" transform="translate(-240.33 -310.571)" opacity="0.1"/>
            <path id="Path_22471" data-name="Path 22471" d="M260.273,307.524c-4.9-2.829-12.838-2.829-17.734,0-2.446,1.412-3.669,3.267-3.669,5.118s1.223,3.692,3.669,5.122c4.9,2.824,12.838,2.824,17.734,0,2.45-1.417,3.692-3.267,3.692-5.122S262.719,308.955,260.273,307.524Zm-.641,9.123a18.356,18.356,0,0,1-16.465,0c-1.957-1.126-3.032-2.547-3.032-4.006s1.075-2.875,3.032-4.006a18.336,18.336,0,0,1,16.447,0c1.952,1.131,3.027,2.552,3.027,4.006s-1.057,2.893-3.009,4.019Z" transform="translate(-238.833 -305.403)" fill="#f34d4d"/>
            <path id="Path_22472" data-name="Path 22472" d="M260.273,307.524c-4.9-2.829-12.838-2.829-17.734,0-2.446,1.412-3.669,3.267-3.669,5.118s1.223,3.692,3.669,5.122c4.9,2.824,12.838,2.824,17.734,0,2.45-1.417,3.692-3.267,3.692-5.122S262.719,308.955,260.273,307.524Zm-.641,9.123a18.356,18.356,0,0,1-16.465,0c-1.957-1.126-3.032-2.547-3.032-4.006s1.075-2.875,3.032-4.006a18.336,18.336,0,0,1,16.447,0c1.952,1.131,3.027,2.552,3.027,4.006s-1.057,2.893-3.009,4.019Z" transform="translate(-238.833 -305.403)" fill="#fff" opacity="0.8"/>
            <path id="Path_22473" data-name="Path 22473" d="M246.82,326.252a17.236,17.236,0,0,0,5.934,1.809,21.653,21.653,0,0,0,6.2-.074,17.532,17.532,0,0,0,3.018-.725,14.344,14.344,0,0,0,2.82-1.274,8.357,8.357,0,0,0,2.34-2.007,4.8,4.8,0,0,0,1.094-2.852,4.878,4.878,0,0,1-.992,2.93,8.5,8.5,0,0,1-2.335,2.086,13.465,13.465,0,0,1-2.852,1.329,17.912,17.912,0,0,1-3.055.757,21.133,21.133,0,0,1-6.267,0,18.709,18.709,0,0,1-3.055-.7,15.886,15.886,0,0,1-2.852-1.278Z" transform="translate(-243.114 -313.872)" fill="#fff"/>
          </g>
          <g id="freepik--shadow--inject-2-4" data-name="freepik--shadow--inject-2" transform="translate(11.861 4.496)" opacity="0.1">
            <path id="Path_22474" data-name="Path 22474" d="M243.91,308.79a17.075,17.075,0,0,1,6.793-1.463,20.03,20.03,0,0,1,3.419-.291c.337,0,.678,0,1.011.028a8.611,8.611,0,0,0-3.424-.974c-.355-.032-.72-.051-1.089-.051a16.119,16.119,0,0,0-5.367,1.846A11.011,11.011,0,0,0,243.91,308.79Z" transform="translate(-243.91 -306.04)" opacity="0.75"/>
            <path id="Path_22475" data-name="Path 22475" d="M256.405,333.36a15.835,15.835,0,0,1-1.675.923,18.7,18.7,0,0,0,1.938.4,18.725,18.725,0,0,0,1.657-1.1A15.269,15.269,0,0,1,256.405,333.36Z" transform="translate(-249.737 -320.753)" opacity="0.75"/>
          </g>
          <g id="freepik--ring--inject-2-2" data-name="freepik--ring--inject-2">
            <path id="Path_22476" data-name="Path 22476" d="M241.839,303.13l1.772,3.835c.78,1.68.461,3.876-1.186,6.188-3.253,4.615-10.461,7.956-16.091,7.443-2.815-.254-4.707-1.421-5.482-3.1l-1.772-3.812c.775,1.684,2.667,2.852,5.482,3.1,5.63.512,12.838-2.824,16.091-7.443C242.282,307.006,242.615,304.81,241.839,303.13Z" transform="translate(-218.677 -299.977)" fill="#f34d4d"/>
            <path id="Path_22477" data-name="Path 22477" d="M241.839,303.13l1.772,3.835c.78,1.68.461,3.876-1.186,6.188-3.253,4.615-10.461,7.956-16.091,7.443-2.815-.254-4.707-1.421-5.482-3.1l-1.772-3.812c.775,1.684,2.667,2.852,5.482,3.1,5.63.512,12.838-2.824,16.091-7.443C242.282,307.006,242.615,304.81,241.839,303.13Z" transform="translate(-218.677 -299.977)" fill="#fff" opacity="0.55"/>
            <path id="Path_22478" data-name="Path 22478" d="M222.984,330.362c-.171-.415-.494-1.2-.734-1.786a5.168,5.168,0,0,1-3.17-2.626l1.772,3.835c.775,1.68,2.667,2.847,5.482,3.1a17.693,17.693,0,0,0,8.136-1.449C226.182,333.869,223.284,331.082,222.984,330.362Z" transform="translate(-218.677 -312.266)" opacity="0.1"/>
            <path id="Path_22479" data-name="Path 22479" d="M241.671,301.488a3.544,3.544,0,0,1,.185,2.243,7.383,7.383,0,0,0-2.843-.771,16.845,16.845,0,0,0-8.306,1.684,16.639,16.639,0,0,0-6.645,5.219,7.384,7.384,0,0,0-1.251,2.672,3.567,3.567,0,0,1-1.592-1.6c-.609-1.32-.231-3.06,1.071-4.905a18.318,18.318,0,0,1,14.924-6.908C239.488,299.328,241.057,300.168,241.671,301.488Z" transform="translate(-219.677 -297.795)" fill="#f34d4d"/>
            <path id="Path_22480" data-name="Path 22480" d="M241.671,301.488a3.544,3.544,0,0,1,.185,2.243,7.383,7.383,0,0,0-2.843-.771,16.845,16.845,0,0,0-8.306,1.684,16.639,16.639,0,0,0-6.645,5.219,7.384,7.384,0,0,0-1.251,2.672,3.567,3.567,0,0,1-1.592-1.6c-.609-1.32-.231-3.06,1.071-4.905a18.318,18.318,0,0,1,14.924-6.908C239.488,299.328,241.057,300.168,241.671,301.488Z" transform="translate(-219.677 -297.795)" fill="#fff" opacity="0.5"/>
            <path id="Path_22481" data-name="Path 22481" d="M241.671,301.488a3.544,3.544,0,0,1,.185,2.243,7.383,7.383,0,0,0-2.843-.771,16.845,16.845,0,0,0-8.306,1.684,16.639,16.639,0,0,0-6.645,5.219,7.384,7.384,0,0,0-1.251,2.672,3.567,3.567,0,0,1-1.592-1.6c-.609-1.32-.231-3.06,1.071-4.905a18.318,18.318,0,0,1,14.924-6.908C239.488,299.328,241.057,300.168,241.671,301.488Z" transform="translate(-219.677 -297.795)" opacity="0.1"/>
            <path id="Path_22482" data-name="Path 22482" d="M222.79,316.956c-.789.263-1.486-1.287-1.274-2.741a4.118,4.118,0,0,0-.24,3.489,3.535,3.535,0,0,0,1.587,1.6,7.383,7.383,0,0,1,1.251-2.672,16.451,16.451,0,0,1,6.17-4.988h0C225.014,313.79,223.584,316.688,222.79,316.956Z" transform="translate(-219.706 -304.56)" opacity="0.1"/>
            <path id="Path_22483" data-name="Path 22483" d="M235.887,296.349c-5.634-.512-12.838,2.824-16.1,7.443-1.629,2.307-1.961,4.509-1.181,6.188s2.667,2.852,5.482,3.106c5.63.508,12.833-2.824,16.091-7.448,1.629-2.307,1.961-4.509,1.186-6.188S238.7,296.622,235.887,296.349Zm3.23,8.551a18.332,18.332,0,0,1-14.924,6.9c-2.247-.2-3.821-1.043-4.43-2.363s-.235-3.064,1.066-4.905a18.318,18.318,0,0,1,14.924-6.908c2.247.2,3.821,1.043,4.435,2.363s.245,3.064-1.057,4.91Z" transform="translate(-218.208 -296.298)" fill="#f34d4d"/>
            <path id="Path_22484" data-name="Path 22484" d="M235.887,296.349c-5.634-.512-12.838,2.824-16.1,7.443-1.629,2.307-1.961,4.509-1.181,6.188s2.667,2.852,5.482,3.106c5.63.508,12.833-2.824,16.091-7.448,1.629-2.307,1.961-4.509,1.186-6.188S238.7,296.622,235.887,296.349Zm3.23,8.551a18.332,18.332,0,0,1-14.924,6.9c-2.247-.2-3.821-1.043-4.43-2.363s-.235-3.064,1.066-4.905a18.318,18.318,0,0,1,14.924-6.908c2.247.2,3.821,1.043,4.435,2.363s.245,3.064-1.057,4.91Z" transform="translate(-218.208 -296.298)" fill="#fff" opacity="0.8"/>
            <path id="Path_22485" data-name="Path 22485" d="M231,316.766a17.2,17.2,0,0,0,6.142-.849,21.535,21.535,0,0,0,5.6-2.672,17.8,17.8,0,0,0,2.437-1.924,14.6,14.6,0,0,0,2.026-2.34,8.338,8.338,0,0,0,1.278-2.8,4.8,4.8,0,0,0-.2-3.05,4.878,4.878,0,0,1,.328,3.073,8.445,8.445,0,0,1-1.241,2.884,13.48,13.48,0,0,1-2.026,2.4,17.63,17.63,0,0,1-2.455,1.966,21.116,21.116,0,0,1-5.681,2.649,18.357,18.357,0,0,1-3.073.637A15.754,15.754,0,0,1,231,316.766Z" transform="translate(-225.097 -299.977)" fill="#fff"/>
          </g>
        </g>
      </g>
    </g>
    <g id="freepik--Hands--inject-2" transform="translate(33.946 28.836)">
      <g id="freepik--hands--inject-2-2" data-name="freepik--hands--inject-2">
        <g id="freepik--Hand--inject-2" transform="translate(84.294)">
          <g id="freepik--hand--inject-2-2" data-name="freepik--hand--inject-2">
            <path id="Path_22486" data-name="Path 22486" d="M296.351,83.572c.383-2.224,3.23-4.495,6.059-6.064,2.649-1.467,23.618-13.682,26.3-15.228,2.483-1.352,4.033-4.352,4.033-8.666,0-8.463-5.944-18.749-13.267-22.981-4.015-2.307-7.6-2.307-10.037-.489h0s-20.411,17.84-27.056,23.073a176.681,176.681,0,0,1-15.727,11.5c-4.485,2.732-6.853,3.3-9.935,7.628C252.9,77.693,246.4,86.433,244.944,87.854s-3.129,2.612-4.227,5.916c-1.126,3.392-6.105,13.987-7.162,16.576-1.781,4.375-3.982,8.251-3.581,11.214a73.244,73.244,0,0,0,2.981,11.7c2.39.254,4.767-2.713,4.767-7.227v-6.184s3.341-3.876,4.7-5.367,4.956-5.736,4.956-5.736,1.463,12.095,3.323,13.964,6.137,2.054,6.857,1.634a4.006,4.006,0,0,0,1.269,2.612c1.288,1.191,4.273,2.049,6.816,2.243,1.431.111,3.909-1.546,3.909-1.546.591,2.543.817,3.872,1.537,4.43,1.038.808,10.323,3.4,12.192,2.358s5.076-6.461,7.1-8.426,3.835-3.692,3.23-4.513a7.16,7.16,0,0,0-7.328-2.035,12.355,12.355,0,0,0-5.625,3.124s-.065-2.635.194-5.967a16.566,16.566,0,0,1,1.094-5,16.483,16.483,0,0,0,.812-3.692,5.076,5.076,0,0,1,4.153.628c.881,1.218,1.583,5.431,1.707,7.9a27.047,27.047,0,0,0,2.307,10.314,6.639,6.639,0,0,0,7.568,4.153c1.172-.461.489-2.584.4-6.705a65.776,65.776,0,0,1,.623-12.15c.734-6.668.923-9.354-.461-14.559C297.975,93.369,295.834,86.548,296.351,83.572Z" transform="translate(-229.926 -28.836)" fill="#9e6767"/>
            <path id="Path_22487" data-name="Path 22487" d="M373.843,136.783c.3-4.1-.485-5.233.461-8.4.069-.24.166-.784.521-.734a.531.531,0,0,1,.365.281,1.818,1.818,0,0,1,.175,1.052,38.346,38.346,0,0,1-1.024,4.822C374.166,134.794,373.99,135.786,373.843,136.783Z" transform="translate(-307.418 -82.047)" fill="#874c4c"/>
            <path id="Path_22488" data-name="Path 22488" d="M279.239,192.546c-.831-.212-1.7,1.232-1.343,2.921s2.441,12.921,2.307,14.605-3.539,1.744-5.233.766c1.846,1.846,6.137,2.053,6.857,1.634-.706-5.21-2.03-13.35-2.169-15.454S280.06,192.744,279.239,192.546Z" transform="translate(-254.184 -116.988)" fill="#874c4c"/>
            <path id="Path_22489" data-name="Path 22489" d="M249.819,196.426c.785-1.846,2.307-2.487,2.995-3.918a31.375,31.375,0,0,0,1.412-5.538c.328-1.426,1.269-3.383,1.934-3.692s-.175,1.043-.06,2.958.374,5.625.374,5.625-4.5,5.108-4.961,5.727c0,0-2.4,2.709-4.7,5.367A56.21,56.21,0,0,0,249.819,196.426Z" transform="translate(-239.019 -111.985)" fill="#874c4c"/>
            <path id="Path_22490" data-name="Path 22490" d="M308.556,201.235c-.674.318-1.477,1.781-1.343,4.287s.618,6.95.461,8.574-.055,3.29-.725,4.31.628.494,1.084,0a1.255,1.255,0,0,1,1.647,0c.221.318-.245,2.7-2.377,3.595a10.108,10.108,0,0,0,3.622-1.546c-.526-3.143-2.021-13.336-2.123-15.348S309.23,200.921,308.556,201.235Z" transform="translate(-271.305 -121.662)" fill="#874c4c"/>
            <path id="Path_22491" data-name="Path 22491" d="M349.507,231.2c-.055.06-.1.1-.157.152-.2.189-.415.434-.632.688a10.249,10.249,0,0,1-1.675-4.509s-2.607.134-3.341,2.243.291,4.329-.706,3.438-2.893-1.384-3.364-1.846.023-1.264,0-3.4a12.217,12.217,0,0,1,5.621-3.147,7.43,7.43,0,0,1,2.552-.286,25.58,25.58,0,0,0,1.7,6.668Z" transform="translate(-288.897 -134.218)" fill="#874c4c"/>
            <path id="Path_22492" data-name="Path 22492" d="M235.419,217.3s4.375,1.583,4.384,5.436v-5.768l2.58-3.724-3.369-3.992-4.647,1.154-.577,1.311s4.2,5.182,4.056,5.8S236.826,217.247,235.419,217.3Z" transform="translate(-232.007 -125.995)" fill="#874c4c"/>
            <path id="Path_22493" data-name="Path 22493" d="M348.551,197.178a8.255,8.255,0,0,1,.923,2.593h0c-.272-1.767-.346-3.35.54-4.716s.332-1.67-.54-1.227-1,1.574-2.086,1.9-2.51-.526-2.81-2.344c-.055,1.038-.106,2.132-.208,3.17h0A5.044,5.044,0,0,1,348.551,197.178Z" transform="translate(-291.558 -117.449)" fill="#874c4c"/>
            <path id="Path_22494" data-name="Path 22494" d="M374.32,103.573c.96-3.175,5.538-4.509,14.352-9.469,5-2.815,14.9-8.768,21.55-12.524V82c0,4.315-1.551,7.314-4.033,8.666-2.686,1.564-23.655,13.779-26.3,15.228-2.829,1.569-5.8,3.821-6.059,6.064C374.144,107.874,373.36,106.744,374.32,103.573Z" transform="translate(-307.419 -57.24)" fill="#874c4c" opacity="0.4"/>
            <path id="Path_22495" data-name="Path 22495" d="M308.654,180.633a5.884,5.884,0,0,1,1.2-1.075,5.564,5.564,0,0,1,1.5-.761.485.485,0,0,1,.254-.032.18.18,0,0,1,.148.185.272.272,0,0,1-.092.138,18.116,18.116,0,0,0-1.311,1.283,4.669,4.669,0,0,0-1.1,2.077c-.171.821-.092,1.671-.18,2.5a.364.364,0,0,1-.06.185.268.268,0,0,1-.351,0,1.085,1.085,0,0,1-.36-.6,6.2,6.2,0,0,1-.3-2.03A3.119,3.119,0,0,1,308.654,180.633Z" transform="translate(-271.975 -109.575)" fill="#874c4c" opacity="0.4"/>
            <path id="Path_22496" data-name="Path 22496" d="M284.279,172.647a5.824,5.824,0,0,1,1.343-.881,5.58,5.58,0,0,1,1.6-.526.461.461,0,0,1,.254,0,.175.175,0,0,1,.12.2.263.263,0,0,1-.115.12c-.5.351-1.02.678-1.491,1.071a4.638,4.638,0,0,0-1.384,1.892,24.279,24.279,0,0,0-.558,2.441.351.351,0,0,1-.088.175.272.272,0,0,1-.374-.023,1.048,1.048,0,0,1-.268-.641,6.133,6.133,0,0,1,0-2.054A3.073,3.073,0,0,1,284.279,172.647Z" transform="translate(-258.633 -105.515)" fill="#874c4c" opacity="0.4"/>
            <path id="Path_22497" data-name="Path 22497" d="M269.688,164.986a5.769,5.769,0,0,1,1.357-.858,5.487,5.487,0,0,1,1.611-.5.461.461,0,0,1,.254,0,.18.18,0,0,1,.115.208.286.286,0,0,1-.115.12c-.508.337-1.029.66-1.509,1.048a4.647,4.647,0,0,0-1.426,1.846c-.3.78-.369,1.629-.6,2.432a.36.36,0,0,1-.092.175.268.268,0,0,1-.346-.06,1.061,1.061,0,0,1-.254-.646,6.132,6.132,0,0,1,.051-2.054,3.106,3.106,0,0,1,.951-1.712Z" transform="translate(-250.766 -101.417)" fill="#874c4c" opacity="0.4"/>
            <path id="Path_22498" data-name="Path 22498" d="M353.854,186.614c-.425,2.483-2.067,4.029-1.643,6.373s-1.089,9.428-.531,13.816l.143,1.223a4.665,4.665,0,0,0-.231-.674h0a25.382,25.382,0,0,1-1.084-4.97c-.023-.2-.042-.392-.055-.577-.051-.461-.078-.844-.1-1.218s-.037-.623-.051-.923c-.129-2.469-.826-6.687-1.707-7.9a5.1,5.1,0,0,0-4.153-.628h0c.36-3.655.069-8.089,1.481-7.771s1.611,3.406,3.23,3.789S354.274,184.109,353.854,186.614Z" transform="translate(-291.596 -112.044)" fill="#874c4c" opacity="0.4"/>
            <path id="Path_22499" data-name="Path 22499" d="M374.851,227.722c-2.017-1.052-3.664-.138-3.733.318s-.254,5.321.923,6.964a4.2,4.2,0,0,0,3.11,1.675h0c.111-1.089-.189-2.921-.249-5.593-.028-1.315-.065-2.307-.055-3.364Z" transform="translate(-305.934 -135.681)" fill="#874c4c"/>
            <path id="Path_22500" data-name="Path 22500" d="M374.851,227.722c-2.017-1.052-3.664-.138-3.733.318s-.254,5.321.923,6.964a4.2,4.2,0,0,0,3.11,1.675h0c.111-1.089-.189-2.921-.249-5.593-.028-1.315-.065-2.307-.055-3.364Z" transform="translate(-305.934 -135.681)" fill="#fff" opacity="0.4"/>
            <path id="Path_22501" data-name="Path 22501" d="M374.913,227.722c-2.017-1.052-3.664-.138-3.733.318a7.619,7.619,0,0,0,3.742,1.3h0v-1.615Z" transform="translate(-305.996 -135.681)" fill="#874c4c"/>
            <path id="Path_22502" data-name="Path 22502" d="M234.876,243.161a43.794,43.794,0,0,0-1.264-4.915,3.923,3.923,0,0,0-1.781.2,56.882,56.882,0,0,0,2.15,7.531C233.98,245.967,235.314,245.547,234.876,243.161Z" transform="translate(-230.951 -141.6)" fill="#874c4c"/>
            <path id="Path_22503" data-name="Path 22503" d="M234.876,243.161a43.794,43.794,0,0,0-1.264-4.915,3.923,3.923,0,0,0-1.781.2,56.882,56.882,0,0,0,2.15,7.531C233.98,245.967,235.314,245.547,234.876,243.161Z" transform="translate(-230.951 -141.6)" fill="#fff" opacity="0.4"/>
            <path id="Path_22504" data-name="Path 22504" d="M231.83,238.446l.194.8a3.125,3.125,0,0,0,1.587-1.006A3.8,3.8,0,0,0,231.83,238.446Z" transform="translate(-230.951 -141.596)" fill="#874c4c"/>
          </g>
          <g id="freepik--ring--inject-2-3" data-name="freepik--ring--inject-2" transform="translate(16.716 77.759)">
            <path id="Path_22505" data-name="Path 22505" d="M274.959,201.352l.355,2.718a11.606,11.606,0,0,1-6.461.425c-2.173-.558-2.529-1.943-2.529-2.469-.028-.632-.175-2.746-.175-2.746a3.037,3.037,0,0,0,2.067,2.155A13.589,13.589,0,0,0,274.959,201.352Z" transform="translate(-266.15 -198.385)" fill="#e0e0e0"/>
            <path id="Path_22506" data-name="Path 22506" d="M274.912,199.49a10.6,10.6,0,0,1-6.174.489c-1.9-.655-1.906-1.652-1.906-1.652l-.069-.988a1.145,1.145,0,0,0-.572.854c0,.531.351,1.91,2.524,2.469a11.712,11.712,0,0,0,6.267-.36Z" transform="translate(-266.172 -197.34)" fill="#fafafa"/>
            <path id="Path_22507" data-name="Path 22507" d="M283.56,202.817v-.055c-.023-.249-.046-.461-.055-.641a.421.421,0,0,1,0-.078V202a6.46,6.46,0,0,1-1.384.461c.18.955.4,2.164.632,3.456a7.513,7.513,0,0,0,1.172-.369h0c-.148-1.066-.268-1.966-.341-2.64Z" transform="translate(-274.75 -199.85)" opacity="0.2"/>
          </g>
        </g>
        <g id="freepik--hand--inject-2-3" data-name="freepik--hand--inject-2" transform="translate(0 11.668)">
          <g id="freepik--hand--inject-2-4" data-name="freepik--hand--inject-2">
            <path id="Path_22508" data-name="Path 22508" d="M144.264,128.915c-.526-2.746-4.578-13.6-5.538-16.613s-1.929-4.444-3.6-5.6-8.159-8.306-13.147-12.584c-5.538-4.753-5.787-6.405-10.272-9.137-4.767-2.907-6.211-4.153-12.164-8.14-5.838-3.927-28.98-21.389-28.98-21.389h0c-2.432-1.846-6.022-1.846-10.037.489C53.2,60.17,47.26,70.456,47.26,78.92c0,4.315,1.551,7.319,4.033,8.666,2.686,1.564,23.655,13.779,26.3,15.228,2.829,1.569,5.8,3.821,6.059,6.064s1.2,9.871,2.9,13.567c1.814,3.941,4.218,11.726,4.352,13.705s-.826,10.152,0,10.175c4.67.221,7.8-1.435,8.9-6.253.891-3.895.212-8.736,0-12.257a18.94,18.94,0,0,1,.281-5.4l2.409,2.792a28.809,28.809,0,0,0,.66,3.959c.392,1.315,2.363,5.215,2.5,5.893s.526,5.436,1.186,8.86,1.467,6.636,1.467,6.636c-1.592,1.929-5.828,3.563-7.36,7.056-1.606,3.692-.669,6.368,0,7.023s5.754-3.013,10.3-5.4,6.2-3.567,6.534-7.466c.36-4.245.545-7.268.545-7.268s.526.217,2.547-.577a14.958,14.958,0,0,0,4.006-2.681,6.816,6.816,0,0,0,1.292.185c.7-.088,4.153-.923,5.275-2.266s1.384-1.523,1.666-4.684.461-6.853.461-6.853,4.116,4.305,4.555,4.919a17.1,17.1,0,0,0,1.232,7.028s3.95-4.508,4.915-5.634S144.8,131.66,144.264,128.915Z" transform="translate(-47.26 -54.121)" fill="#ffa8a7"/>
            <path id="Path_22509" data-name="Path 22509" d="M168.593,208.138c-.831-1.583-.831-4.347-1.218-7.383s-1.5-2.174-2.432-5.653-2.884-.761-3.2,2.4l2.409,2.792a28.809,28.809,0,0,0,.66,3.959c.392,1.315,2.363,5.215,2.5,5.893s.526,5.436,1.186,8.86c.194,1.006.4,1.989.6,2.88C168.708,218.405,169.423,209.721,168.593,208.138Z" transform="translate(-108.912 -129.168)" fill="#f28f8f"/>
            <path id="Path_22510" data-name="Path 22510" d="M206.807,227.218s-2.741.581-3.6-.111c-1.149-.923-.549-4.559-.148-6.954s.96-6.041.461-7.3c-.715-1.763-1.846-.2-1.846,1.006,0,0-.208,12.46-.355,15.731h0s.526.217,2.547-.577a12.46,12.46,0,0,0,2.94-1.8Z" transform="translate(-130.227 -139.18)" fill="#f28f8f"/>
            <path id="Path_22511" data-name="Path 22511" d="M163.973,271.941c2.261-2.769,3.761-1.154,4.006-3.193a24.029,24.029,0,0,1,1.957-5.538c-1.592,1.929-5.828,3.563-7.36,7.056-1.606,3.692-.669,6.368,0,7.023A5.869,5.869,0,0,1,163.973,271.941Z" transform="translate(-108.884 -166.723)" fill="#f28f8f"/>
            <path id="Path_22512" data-name="Path 22512" d="M222.027,219.091a4.6,4.6,0,0,0,1.435-2.7,7.142,7.142,0,0,1-3,2.492c-1.62.485-2.589-.268-2.483-4.107s.461-7.96,1.241-9.806,0-2.852-.863-2.367-.955,1.5-1.158,3.036-.683,10.009-.729,12.224-.088,2.307-1.006,3.313a7.22,7.22,0,0,0,1.292.185C217.634,221.256,220.9,220.42,222.027,219.091Z" transform="translate(-137.842 -134.016)" fill="#f28f8f"/>
            <path id="Path_22513" data-name="Path 22513" d="M239.814,208.325c-.115-1.421-1.846-3.064-2.552-4.495s-.738-4.033-1.061-5.445a4.518,4.518,0,0,0-2.174-2.8c-.665-.309.42,2.067.309,3.982s-.309,4.259-.309,4.259,4.116,4.305,4.555,4.919a17.1,17.1,0,0,0,1.232,7.028C238.946,211.873,239.924,209.741,239.814,208.325Z" transform="translate(-147.724 -130.291)" fill="#f28f8f"/>
            <path id="Path_22514" data-name="Path 22514" d="M124.334,162.183c-.3-4.1.485-5.233-.461-8.4-.069-.24-.166-.785-.521-.734a.545.545,0,0,0-.365.281,1.818,1.818,0,0,0-.175,1.052,38.591,38.591,0,0,0,1.024,4.827C124.011,160.194,124.187,161.186,124.334,162.183Z" transform="translate(-87.939 -107.394)" fill="#f28f8f"/>
            <path id="Path_22515" data-name="Path 22515" d="M83.2,128.984c-.96-3.175-5.27-4.716-14.07-9.691-5-2.8-15.178-8.546-21.832-12.293v.42c0,4.315,1.551,7.319,4.033,8.666,2.686,1.564,23.655,13.779,26.3,15.228,2.829,1.569,5.8,3.821,6.059,6.064C83.377,133.3,84.162,132.154,83.2,128.984Z" transform="translate(-47.282 -82.598)" fill="#f28f8f" opacity="0.4"/>
            <path id="Path_22516" data-name="Path 22516" d="M199.541,192.813a5.648,5.648,0,0,0-1.2-1.075,5.538,5.538,0,0,0-1.5-.761.5.5,0,0,0-.258-.032.18.18,0,0,0-.148.185.254.254,0,0,0,.1.134,13.842,13.842,0,0,1,1.311,1.288,4.615,4.615,0,0,1,1.094,2.077,25.02,25.02,0,0,1,.185,2.5.328.328,0,0,0,.055.189.277.277,0,0,0,.355,0,1.066,1.066,0,0,0,.355-.6,6.1,6.1,0,0,0,.3-2.035A3.087,3.087,0,0,0,199.541,192.813Z" transform="translate(-127.599 -127.802)" fill="#f28f8f" opacity="0.4"/>
            <path id="Path_22517" data-name="Path 22517" d="M215.5,183.31a5.92,5.92,0,0,0-1.343-.881,5.578,5.578,0,0,0-1.6-.549.489.489,0,0,0-.258,0,.175.175,0,0,0-.115.2.254.254,0,0,0,.111.12c.5.351,1.024.678,1.491,1.071a4.651,4.651,0,0,1,1.384,1.892c.291.784.346,1.634.558,2.441a.35.35,0,0,0,.088.175.268.268,0,0,0,.346-.055,1.071,1.071,0,0,0,.263-.641,6.134,6.134,0,0,0,0-2.054,3.115,3.115,0,0,0-.923-1.721Z" transform="translate(-136.076 -122.914)" fill="#f28f8f" opacity="0.4"/>
            <path id="Path_22518" data-name="Path 22518" d="M228.451,175.816a5.768,5.768,0,0,0-1.357-.858,5.352,5.352,0,0,0-1.611-.5.462.462,0,0,0-.254,0,.175.175,0,0,0-.115.208.235.235,0,0,0,.115.115c.508.341,1.029.665,1.5,1.048a4.615,4.615,0,0,1,1.426,1.869,24,24,0,0,1,.6,2.432.337.337,0,0,0,.088.171.272.272,0,0,0,.365-.065,1.131,1.131,0,0,0,.254-.646,6.253,6.253,0,0,0-.051-2.054A3.115,3.115,0,0,0,228.451,175.816Z" transform="translate(-143.038 -118.918)" fill="#f28f8f" opacity="0.4"/>
            <g id="Group_9110" data-name="Group 9110" transform="translate(41.098 72.865)" opacity="0.4">
              <path id="Path_22519" data-name="Path 22519" d="M141.448,219.474a2.983,2.983,0,0,0,.3-.42c.046-.065.06-.231-.051-.226a2.343,2.343,0,0,0-.6.051c-.221.055-.461.1-.66.143a8.69,8.69,0,0,1-1.384.212h-.263c.134.429.258.849.378,1.255a.762.762,0,0,0,.1,0,5.418,5.418,0,0,0,1.3-.461,3.344,3.344,0,0,0,.549-.332,3.191,3.191,0,0,0,.328-.221Z" transform="translate(-137.65 -215.685)" fill="#f28f8f"/>
              <path id="Path_22520" data-name="Path 22520" d="M140.921,212.791c-.148-.06-.3-.115-.461-.166-.341-.106-.683-.221-1.024-.309a8.879,8.879,0,0,0-2.229-.3,4.2,4.2,0,0,0-.886.106c.175.508.351,1.02.521,1.537a5.224,5.224,0,0,1,1.149-.226c.5-.055,1.011-.06,1.514-.1a4.4,4.4,0,0,1,1.1.028l.314.065a2.874,2.874,0,0,1,.341.042c.111.042.217-.346.083-.415A4.623,4.623,0,0,0,140.921,212.791Z" transform="translate(-136.32 -212.02)" fill="#f28f8f"/>
            </g>
            <g id="Group_9111" data-name="Group 9111" transform="translate(66.118 97.289)" opacity="0.4">
              <path id="Path_22521" data-name="Path 22521" d="M193.766,264.972a5.077,5.077,0,0,0-1.218.309c-.2.078-.4.166-.6.254a1.186,1.186,0,0,0-.521.341c-.032.046-.055.143,0,.171a.656.656,0,0,0,.42,0c.194-.042.392-.069.586-.1.411-.051.831-.1,1.246-.12a3.1,3.1,0,0,1,1.62.318c.037-.249.069-.508.092-.785v-.143A3,3,0,0,0,193.766,264.972Z" transform="translate(-191.001 -264.948)" fill="#f28f8f"/>
              <path id="Path_22522" data-name="Path 22522" d="M190.978,271.8c-.032-.125-.148-.286-.3-.221s-.157.3-.134.434a3.747,3.747,0,0,0,1.481,2.238c.217-.157.425-.318.614-.461A2.972,2.972,0,0,1,190.978,271.8Z" transform="translate(-190.539 -268.513)" fill="#f28f8f"/>
              <path id="Path_22523" data-name="Path 22523" d="M194.658,270.315a4.152,4.152,0,0,1-1.149-.692c-.2-.175-.328.268-.194.4a4.73,4.73,0,0,0,1.186.84,6.812,6.812,0,0,0,.66.268l.258.106a5.378,5.378,0,0,0,.378-.725h-.535a2.4,2.4,0,0,1-.6-.2Z" transform="translate(-192.004 -267.444)" fill="#f28f8f"/>
            </g>
            <path id="Path_22524" data-name="Path 22524" d="M141.321,230.728a4.786,4.786,0,0,1,3.2-1.089s.309,7.416-.609,8.851a4.647,4.647,0,0,1-2.875,1.754,39.684,39.684,0,0,1,.281-9.515Z" transform="translate(-97.676 -148.643)" fill="#ffa8a7"/>
            <path id="Path_22525" data-name="Path 22525" d="M141.321,230.728a4.786,4.786,0,0,1,3.2-1.089s.309,7.416-.609,8.851a4.647,4.647,0,0,1-2.875,1.754,39.684,39.684,0,0,1,.281-9.515Z" transform="translate(-97.676 -148.643)" fill="#fff" opacity="0.4"/>
            <path id="Path_22526" data-name="Path 22526" d="M141.662,230.727q-.088.577-.152,1.135a5.782,5.782,0,0,0,3.355-2.224A4.655,4.655,0,0,0,141.662,230.727Z" transform="translate(-98.017 -148.642)" fill="#f28f8f"/>
            <path id="Path_22527" data-name="Path 22527" d="M171.126,285.222c-.734-.092-.891-.877-1.624-.8s-3.147,1.846-4.084,2.82-.554,1.421-.531,1.444a46.82,46.82,0,0,0,6.239-3.466Z" transform="translate(-110.554 -178.144)" fill="#ffa8a7"/>
            <path id="Path_22528" data-name="Path 22528" d="M171.126,285.222c-.734-.092-.891-.877-1.624-.8s-3.147,1.846-4.084,2.82-.554,1.421-.531,1.444a46.82,46.82,0,0,0,6.239-3.466Z" transform="translate(-110.554 -178.144)" fill="#fff" opacity="0.4"/>
            <path id="Path_22529" data-name="Path 22529" d="M177.031,285.282c-.6-.074-.817-.6-1.269-.752a1.5,1.5,0,0,0,.461,1.228l.794-.461Z" transform="translate(-116.459 -178.204)" fill="#f28f8f"/>
          </g>
          <g id="freepik--ring--inject-2-4" data-name="freepik--ring--inject-2" transform="translate(79.054 69.833)">
            <path id="Path_22530" data-name="Path 22530" d="M218.774,209.363l-.194,2.769a8.616,8.616,0,0,0,5.4.406c2.174-.558,2.524-1.938,2.524-2.469.028-.632.18-2.769.18-2.769a3.046,3.046,0,0,1-2.072,2.16A9.937,9.937,0,0,1,218.774,209.363Z" transform="translate(-218.575 -206.446)" fill="#e0e0e0"/>
            <path id="Path_22531" data-name="Path 22531" d="M219.054,207.55a7.7,7.7,0,0,0,5.284.54c1.9-.655,1.91-1.647,1.91-1.647l.065-.992a1.149,1.149,0,0,1,.577.858c0,.526-.355,1.906-2.529,2.464a8.56,8.56,0,0,1-5.381-.411Z" transform="translate(-218.791 -205.45)" fill="#fafafa"/>
            <path id="Path_22532" data-name="Path 22532" d="M219.922,214.039a29.724,29.724,0,0,1,.5-3.466,7.181,7.181,0,0,1-1.592-.563h0l-.069.78v.032l-.194,2.769h0A9.609,9.609,0,0,0,219.922,214.039Z" transform="translate(-218.57 -207.906)" opacity="0.2"/>
          </g>
        </g>
      </g>
    </g>
    <g id="freepik--Hearts--inject-2" transform="translate(102.58 36.248)">
      <path id="freepik--Heart--inject-2" d="M217.55,79.2l-5.6-3.295a62.666,62.666,0,0,1-6.525-4.5c-4.047-3.23-9.432-8.306-9.432-15.533a11.075,11.075,0,0,1,21.56-3.47,11.075,11.075,0,0,1,21.555,3.47c0,7.213-5.381,12.321-9.432,15.533a62.3,62.3,0,0,1-6.52,4.5Z" transform="translate(-195.99 -44.898)" fill="#f34d4d"/>
    </g>
  </g>
</svg>
