<svg xmlns="http://www.w3.org/2000/svg" width="15.797" height="15.72" viewBox="0 0 15.797 15.72">
  <g id="Activity" transform="translate(0 0.125)">
    <path id="Path_34168" d="M9.874,14.036h-5.7a4.222,4.222,0,0,1-3.069-1.1A4.212,4.212,0,0,1,0,9.873v-5.7A4.233,4.233,0,0,1,1.1,1.107,4.211,4.211,0,0,1,4.169,0h6.212a3.048,3.048,0,0,0-.055.575,3.142,3.142,0,0,0,3.141,3.136,3.229,3.229,0,0,0,.569-.055V9.873a4.215,4.215,0,0,1-1.1,3.062A4.212,4.212,0,0,1,9.874,14.036ZM5.631,5.52a.586.586,0,0,0-.077.005.578.578,0,0,0-.385.226l-2.3,2.971a.568.568,0,0,0-.124.357.576.576,0,0,0,1.063.335L5.732,6.922,7.871,8.6a.582.582,0,0,0,.362.127A.578.578,0,0,0,8.695,8.5l2.228-2.875V5.607a.585.585,0,0,0-.109-.815A.569.569,0,0,0,10,4.909L8.125,7.326,5.986,5.642A.578.578,0,0,0,5.631,5.52Z" transform="translate(0 1.56)" fill="#f34d4d"/>
    <ellipse id="Ellipse_742" cx="2.5" cy="2" rx="2.5" ry="2" transform="translate(10.797 -0.125)" fill="#f34d4d" opacity="0.4"/>
  </g>
</svg>
