<svg id="Iconly_Bulk_Password" data-name="Iconly/Bulk/Password" xmlns="http://www.w3.org/2000/svg" width="15.352" height="15.352" viewBox="0 0 15.352 15.352">
  <g id="Password">
    <path id="Fill_1" data-name="Fill 1" d="M11,0H4.348A4.211,4.211,0,0,0,0,4.542v6.269a4.211,4.211,0,0,0,4.348,4.541H11a4.212,4.212,0,0,0,4.35-4.541V4.542A4.211,4.211,0,0,0,11,0" fill="#f34d4d" opacity="0.4"/>
    <path id="Combined_Shape" data-name="Combined Shape" d="M8.275,3.992A.57.57,0,0,1,7.7,3.415V2.571H6.678v.844a.577.577,0,0,1-.576.576.57.57,0,0,1-.575-.576V2.571H3.9A1.97,1.97,0,0,1,2,3.992,2,2,0,1,1,2,0,1.97,1.97,0,0,1,3.9,1.42H8.275A.576.576,0,0,1,8.85,2v1.42A.576.576,0,0,1,8.275,3.992ZM2,1.152A.844.844,0,1,0,2.848,2,.849.849,0,0,0,2,1.152Z" transform="translate(3.25 5.679)" fill="#f34d4d"/>
  </g>
</svg>
