<svg id="Group_4668" data-name="Group 4668" xmlns="http://www.w3.org/2000/svg" width="16.172" height="14.555" viewBox="0 0 16.172 14.555">
  <path id="Fill_1" data-name="Fill 1" d="M16.172,5.776A4.081,4.081,0,0,1,12.1,9.867H4.083A4.081,4.081,0,0,1,0,5.792V5.784S0,2.205.011.405A.4.4,0,0,1,.665.088c1.921,1.524,5.357,4.3,5.4,4.34a3.289,3.289,0,0,0,2.046.72,3.245,3.245,0,0,0,2.046-.729c.043-.028,3.4-2.724,5.352-4.273a.4.4,0,0,1,.656.315c.008,1.786.008,5.315.008,5.315" transform="translate(0 4.688)" fill="#ccc" opacity="0.4"/>
  <path id="Fill_4" data-name="Fill 4" d="M15.341,2.162A4.071,4.071,0,0,0,11.746,0H3.677a4.071,4.071,0,0,0-3.6,2.162.7.7,0,0,0,.179.872l6,4.8A2.285,2.285,0,0,0,7.7,8.345H7.72a2.285,2.285,0,0,0,1.439-.509l6-4.8a.7.7,0,0,0,.179-.872" transform="translate(0.407)" fill="#ccc"/>
</svg>
