<svg xmlns="http://www.w3.org/2000/svg" width="300" height="313.841" viewBox="0 0 300 313.841">
  <g id="Download-amico" transform="translate(-27.06 -13.129)">
    <g id="freepik--Floor--inject-2" transform="translate(27.06 153.757)" opacity="0.34">
      <ellipse id="Ellipse_2751" data-name="Ellipse 2751" cx="150" cy="86.606" rx="150" ry="86.606" fill="#ccc"/>
    </g>
    <g id="freepik--Shadows--inject-2" transform="translate(46.7 189.355)">
      <ellipse id="Ellipse_2752" data-name="Ellipse 2752" cx="21.887" cy="12.636" rx="21.887" ry="12.636" transform="translate(0 47.302)" fill="#e0e0e0"/>
      <path id="Path_22831" data-name="Path 22831" d="M172.447,310.613l-60.292,34.812-43.835-25.5,60.292-34.805Z" transform="translate(-60.199 -278.343)" fill="#e0e0e0"/>
      <path id="Path_22832" data-name="Path 22832" d="M296.542,378.806,148.325,293.229a2.018,2.018,0,0,1,0-3.505l23.926-13.813a6.4,6.4,0,0,1,6.419,0l148.217,85.57a2.018,2.018,0,0,1,0,3.512l-23.919,13.813a6.446,6.446,0,0,1-6.426,0Z" transform="translate(-86.042 -275.047)" fill="#e0e0e0"/>
    </g>
    <g id="freepik--Folder--inject-2" transform="translate(115.792 82.379)">
      <path id="Path_22840" data-name="Path 22840" d="M374.719,268.07,355.51,256.82l11.438,15.731Z" transform="translate(-223.252 -162.108)" fill="#f34d4d"/>
      <path id="Path_22841" data-name="Path 22841" d="M374.719,268.07,355.51,256.82l11.438,15.731Z" transform="translate(-223.252 -162.108)" opacity="0.6"/>
      <path id="Path_22842" data-name="Path 22842" d="M311.651,263.649,199.228,198.735a3.169,3.169,0,0,1-1.588-2.745V119.227a3.176,3.176,0,0,1,4.757-2.752l112.436,64.914a3.182,3.182,0,0,1,1.588,2.752V260.9a3.176,3.176,0,0,1-4.77,2.745Z" transform="translate(-171.601 -116.053)" fill="#e0e0e0"/>
      <path id="Path_22843" data-name="Path 22843" d="M371.421,278.021l7.771-4.481v90.832a4.649,4.649,0,0,1-2.335,4.037l-7.677,4.447Z" transform="translate(-227.725 -167.579)" fill="#f34d4d"/>
      <path id="Path_22844" data-name="Path 22844" d="M371.421,278.021l7.771-4.481v90.832a4.649,4.649,0,0,1-2.335,4.037l-7.677,4.447Z" transform="translate(-227.725 -167.579)" opacity="0.3"/>
      <path id="Path_22845" data-name="Path 22845" d="M304.067,267.907,191.631,202.993a3.189,3.189,0,0,1-1.581-2.752V123.458a3.169,3.169,0,0,1,4.757-2.745l112.436,64.914a3.169,3.169,0,0,1,1.588,2.745v76.783a3.176,3.176,0,0,1-4.764,2.752Z" transform="translate(-169.118 -117.438)" fill="#ebebeb"/>
      <path id="Path_22846" data-name="Path 22846" d="M296.477,272.38,184.048,207.472a3.182,3.182,0,0,1-1.588-2.752V127.958a3.169,3.169,0,0,1,4.757-2.745l112.436,64.914a3.169,3.169,0,0,1,1.588,2.759v76.749a3.176,3.176,0,0,1-4.764,2.745Z" transform="translate(-166.635 -118.91)" fill="#fafafa"/>
      <path id="Path_22847" data-name="Path 22847" d="M158.94,125.891V238.724a9.117,9.117,0,0,0,4.563,7.9l132.545,76.513a4.407,4.407,0,0,0,6.607-3.815V228.295l-69.907-40.37L220.672,160.07A26.4,26.4,0,0,0,209.637,147.7L165.4,122.129a4.306,4.306,0,0,0-6.459,3.761Z" transform="translate(-158.94 -117.853)" fill="#f34d4d"/>
      <path id="Path_22848" data-name="Path 22848" d="M158.94,125.891V238.724a9.117,9.117,0,0,0,4.563,7.9l132.545,76.513a4.407,4.407,0,0,0,6.607-3.815V228.295l-69.907-40.37L220.672,160.07A26.4,26.4,0,0,0,209.637,147.7L165.4,122.129a4.306,4.306,0,0,0-6.459,3.761Z" transform="translate(-158.94 -117.853)" opacity="0.2"/>
      <path id="Path_22851" data-name="Path 22851" d="M269.624,303.773,255.878,278.71l-14.688,8.9L247,290.888V315.7l15.65,9.016V299.7Z" transform="translate(-184.194 -183.998)" fill="#fff"/>
    </g>
    <g id="freepik--Arrow--inject-2" transform="translate(58.303 54.367)">
      <path id="Path_22852" data-name="Path 22852" d="M146.783,74.42a68.985,68.985,0,0,0-65.756,48.122l-5.564-3.2a1.11,1.11,0,0,0-1.669.881,68.628,68.628,0,0,0,4.542,31.724,57.191,57.191,0,0,0,7.9,13.948.962.962,0,0,0,1.648-.242A63.918,63.918,0,0,1,97.8,148.828a62.647,62.647,0,0,1,9-9.09,1.473,1.473,0,0,0-.2-2.422l-6.674-3.855a59.478,59.478,0,0,1,115.551,3.734A68.985,68.985,0,0,0,146.783,74.42Z" transform="translate(-73.495 -74.42)" fill="#f34d4d"/>
      <path id="Path_22853" data-name="Path 22853" d="M146.783,74.42a68.985,68.985,0,0,0-65.756,48.122l-5.564-3.2a1.11,1.11,0,0,0-1.669.881,68.628,68.628,0,0,0,4.542,31.724,57.191,57.191,0,0,0,7.9,13.948.962.962,0,0,0,1.648-.242A63.918,63.918,0,0,1,97.8,148.828a62.647,62.647,0,0,1,9-9.09,1.473,1.473,0,0,0-.2-2.422l-6.674-3.855a59.478,59.478,0,0,1,115.551,3.734A68.985,68.985,0,0,0,146.783,74.42Z" transform="translate(-73.495 -74.42)" fill="#fff" opacity="0.4"/>
    </g>
    <g id="freepik--Files--inject-2" transform="translate(184.447 13.129)">
      <ellipse id="Ellipse_2753" data-name="Ellipse 2753" cx="15.865" cy="27.478" rx="15.865" ry="27.478" transform="translate(38.573 15.865) rotate(-30)" fill="#f34d4d"/>
      <ellipse id="Ellipse_2754" data-name="Ellipse 2754" cx="15.865" cy="27.478" rx="15.865" ry="27.478" transform="translate(38.573 15.865) rotate(-30)" opacity="0.2"/>
      <ellipse id="Ellipse_2755" data-name="Ellipse 2755" cx="15.865" cy="27.478" rx="15.865" ry="27.478" transform="translate(37.431 16.525) rotate(-30)" fill="#f34d4d"/>
      <path id="Path_22854" data-name="Path 22854" d="M345.346,60.329,360.3,69.009a1.2,1.2,0,0,0,1.8-1.036V49.47A2.617,2.617,0,0,0,360.76,47.2L345.8,38.55a1.2,1.2,0,0,0-1.8,1.036v18.5a2.617,2.617,0,0,0,1.346,2.241Z" transform="translate(-288.141 -21.392)" fill="#f34d4d"/>
      <path id="Path_22856" data-name="Path 22856" d="M347.72,58.887l12.023,6.91a.955.955,0,0,0,1.44-.854V51.082a2.1,2.1,0,0,0-1.05-1.817L348.11,42.328a.962.962,0,0,0-1.44.834v13.88A2.1,2.1,0,0,0,347.72,58.887Z" transform="translate(-289.015 -22.641)" fill="#f34d4d"/>
      <ellipse id="Ellipse_2756" data-name="Ellipse 2756" cx="15.865" cy="27.478" rx="15.865" ry="27.478" transform="translate(72.248 84.945) rotate(-30)" fill="#f34d4d"/>
      <ellipse id="Ellipse_2757" data-name="Ellipse 2757" cx="15.865" cy="27.478" rx="15.865" ry="27.478" transform="translate(72.248 84.945) rotate(-30)" opacity="0.2"/>
      <ellipse id="Ellipse_2758" data-name="Ellipse 2758" cx="15.865" cy="27.478" rx="15.865" ry="27.478" transform="translate(71.109 85.61) rotate(-30)" fill="#f34d4d"/>
      <path id="Path_22860" data-name="Path 22860" d="M395.853,141.222a1.2,1.2,0,0,0-1.8,1.043v18.5a2.6,2.6,0,0,0,1.312,2.261l14.991,8.659a1.2,1.2,0,0,0,1.83-1.063V156.893l-4.037-8.605Z" transform="translate(-304.516 -54.986)" fill="#f34d4d"/>
      <path id="Path_22862" data-name="Path 22862" d="M414.111,154.949l.525-3.149,4.037,8.612-3.667-3.021a2.6,2.6,0,0,1-.895-2.442Z" transform="translate(-311.067 -58.499)" fill="#f34d4d"/>
      <g id="Group_9161" data-name="Group 9161">
        <path id="Path_22861" data-name="Path 22861" d="M395.853,141.222a1.2,1.2,0,0,0-1.8,1.043v18.5a2.6,2.6,0,0,0,1.312,2.261l14.991,8.659a1.2,1.2,0,0,0,1.83-1.063V156.893l-4.037-8.605Z" transform="translate(-304.516 -54.986)" fill="#fff" opacity="0.6"/>
        <path id="Path_22863" data-name="Path 22863" d="M414.111,154.949l.525-3.149,4.037,8.612-3.667-3.021a2.6,2.6,0,0,1-.895-2.442Z" transform="translate(-311.067 -58.499)" fill="#fff" opacity="0.4"/>
        <path id="Path_22864" data-name="Path 22864" d="M410.345,163.5a.41.41,0,0,1-.209-.061L398.3,156.627a.417.417,0,0,1-.148-.565.41.41,0,0,1,.558-.148l11.842,6.829a.417.417,0,0,1,.148.565.4.4,0,0,1-.357.2Z" transform="translate(-305.841 -59.826)" fill="#fafafa"/>
        <path id="Path_22865" data-name="Path 22865" d="M410.345,169.456a.477.477,0,0,1-.209-.054L398.3,162.567a.417.417,0,0,1-.148-.565.41.41,0,0,1,.558-.148l11.842,6.809a.417.417,0,0,1,.148.565A.4.4,0,0,1,410.345,169.456Z" transform="translate(-305.841 -61.77)" fill="#fafafa"/>
        <path id="Path_22866" data-name="Path 22866" d="M410.345,175.416a.478.478,0,0,1-.209-.054L398.3,168.527a.417.417,0,0,1-.148-.565.41.41,0,0,1,.558-.148l11.842,6.836a.41.41,0,0,1-.209.767Z" transform="translate(-305.841 -63.72)" fill="#fafafa"/>
      </g>
      <g id="Group_9162" data-name="Group 9162" transform="translate(-34.576 -69.963)">
        <path id="Path_22861-2" data-name="Path 22861" d="M395.853,141.222a1.2,1.2,0,0,0-1.8,1.043v18.5a2.6,2.6,0,0,0,1.312,2.261l14.991,8.659a1.2,1.2,0,0,0,1.83-1.063V156.893l-4.037-8.605Z" transform="translate(-304.516 -54.986)" fill="#fff" opacity="0.6"/>
        <path id="Path_22863-2" data-name="Path 22863" d="M414.111,154.949l.525-3.149,4.037,8.612-3.667-3.021a2.6,2.6,0,0,1-.895-2.442Z" transform="translate(-311.067 -58.499)" fill="#fff" opacity="0.4"/>
        <path id="Path_22864-2" data-name="Path 22864" d="M410.345,163.5a.41.41,0,0,1-.209-.061L398.3,156.627a.417.417,0,0,1-.148-.565.41.41,0,0,1,.558-.148l11.842,6.829a.417.417,0,0,1,.148.565.4.4,0,0,1-.357.2Z" transform="translate(-305.841 -59.826)" fill="#fafafa"/>
        <path id="Path_22865-2" data-name="Path 22865" d="M410.345,169.456a.477.477,0,0,1-.209-.054L398.3,162.567a.417.417,0,0,1-.148-.565.41.41,0,0,1,.558-.148l11.842,6.809a.417.417,0,0,1,.148.565A.4.4,0,0,1,410.345,169.456Z" transform="translate(-305.841 -61.77)" fill="#fafafa"/>
        <path id="Path_22866-2" data-name="Path 22866" d="M410.345,175.416a.478.478,0,0,1-.209-.054L398.3,168.527a.417.417,0,0,1-.148-.565.41.41,0,0,1,.558-.148l11.842,6.836a.41.41,0,0,1-.209.767Z" transform="translate(-305.841 -63.72)" fill="#fafafa"/>
      </g>
      <ellipse id="Ellipse_2759" data-name="Ellipse 2759" cx="15.92" cy="27.573" rx="15.92" ry="27.573" transform="translate(1.884 44.766) rotate(-29.887)" fill="#f34d4d"/>
      <ellipse id="Ellipse_2760" data-name="Ellipse 2760" cx="15.92" cy="27.573" rx="15.92" ry="27.573" transform="translate(1.884 44.766) rotate(-29.887)" opacity="0.2"/>
      <ellipse id="Ellipse_2761" data-name="Ellipse 2761" cx="15.865" cy="27.478" rx="15.865" ry="27.478" transform="translate(0 45.256) rotate(-30)" fill="#f34d4d"/>
      <path id="Path_22867" data-name="Path 22867" d="M289.662,103.068l14.991,8.653a1.2,1.2,0,0,0,1.8-1.036v-18.5a2.617,2.617,0,0,0-1.312-2.267l-15.017-8.653a1.2,1.2,0,0,0-1.8,1.036v18.5A2.624,2.624,0,0,0,289.662,103.068Z" transform="translate(-269.928 -35.368)" fill="#f34d4d"/>
      <path id="Path_22870" data-name="Path 22870" d="M358.918,99.437a.478.478,0,0,1-.478-.478V97.688a.478.478,0,0,1,.478-.478.471.471,0,0,1,.471.478v1.272a.471.471,0,0,1-.471.478Z" transform="translate(-292.866 -40.638)" fill="#f34d4d"/>
      <path id="Path_22871" data-name="Path 22871" d="M358.918,172.464a.478.478,0,0,1-.478-.478v-2.543a.478.478,0,0,1,.478-.478.471.471,0,0,1,.471.478v2.543a.471.471,0,0,1-.471.478Zm0-5.087a.478.478,0,0,1-.478-.478v-2.537a.478.478,0,0,1,.478-.478.471.471,0,0,1,.471.478v2.516a.471.471,0,0,1-.471.5Zm0-5.08a.478.478,0,0,1-.478-.478v-2.543a.478.478,0,0,1,.478-.478.471.471,0,0,1,.471.478v2.543a.471.471,0,0,1-.471.478Zm0-5.087a.478.478,0,0,1-.478-.478V154.19a.474.474,0,0,1,.949,0v2.543a.471.471,0,0,1-.471.478Zm0-5.08a.478.478,0,0,1-.478-.478V149.11a.478.478,0,0,1,.478-.478.471.471,0,0,1,.471.478v2.543a.471.471,0,0,1-.471.478Zm0-5.087a.478.478,0,0,1-.478-.478V144a.478.478,0,0,1,.478-.478.471.471,0,0,1,.471.478v2.543a.471.471,0,0,1-.471.5Zm0-5.087a.471.471,0,0,1-.478-.471v-2.543a.478.478,0,0,1,.478-.478.471.471,0,0,1,.471.478v2.543a.471.471,0,0,1-.471.5Zm0-5.08a.478.478,0,0,1-.478-.478v-2.543a.478.478,0,0,1,.478-.478.471.471,0,0,1,.471.478V136.4a.471.471,0,0,1-.471.478Zm0-5.087a.478.478,0,0,1-.478-.478v-2.537a.478.478,0,0,1,.478-.478.471.471,0,0,1,.471.478v2.537a.471.471,0,0,1-.471.478Zm0-5.08a.478.478,0,0,1-.478-.478v-2.543a.478.478,0,0,1,.478-.478.471.471,0,0,1,.471.478v2.543a.471.471,0,0,1-.471.478Zm0-5.087a.478.478,0,0,1-.478-.478V118.6a.474.474,0,0,1,.949,0v2.523a.471.471,0,0,1-.471.5Zm0-5.08a.478.478,0,0,1-.478-.478v-2.543a.478.478,0,0,1,.478-.478.471.471,0,0,1,.471.478v2.543a.471.471,0,0,1-.471.478Zm0-5.087a.478.478,0,0,1-.478-.478v-2.543a.478.478,0,0,1,.478-.478.471.471,0,0,1,.471.478v2.543a.471.471,0,0,1-.471.478Zm0-5.087a.471.471,0,0,1-.478-.471v-2.543a.478.478,0,0,1,.478-.478.471.471,0,0,1,.471.478V105.9a.471.471,0,0,1-.471.471Z" transform="translate(-292.866 -42.493)" fill="#f34d4d"/>
      <path id="Path_22872" data-name="Path 22872" d="M358.918,210.92a.471.471,0,0,1-.478-.471v-1.272a.478.478,0,0,1,.478-.478.471.471,0,0,1,.471.478v1.272A.471.471,0,0,1,358.918,210.92Z" transform="translate(-292.866 -77.115)" fill="#f34d4d"/>
      <path id="Path_22873" data-name="Path 22873" d="M376.769,164.752a.464.464,0,0,1-.424-.262.471.471,0,0,1,.215-.639l1.137-.565a.474.474,0,1,1,.424.848l-1.137.572a.478.478,0,0,1-.215.047Z" transform="translate(-298.707 -62.24)" fill="#f34d4d"/>
      <path id="Path_22874" data-name="Path 22874" d="M368.441,168.467a.464.464,0,0,1-.424-.262.471.471,0,0,1,.215-.673l2.8-1.393a.5.5,0,1,1,.458.888l-2.833,1.393A.478.478,0,0,1,368.441,168.467Z" transform="translate(-295.977 -63.169)" fill="#f34d4d"/>
      <path id="Path_22875" data-name="Path 22875" d="M362.591,171.779a.464.464,0,0,1-.424-.262.471.471,0,0,1,.215-.673l1.137-.565a.485.485,0,1,1,.458.854l-1.137.565A.477.477,0,0,1,362.591,171.779Z" transform="translate(-294.064 -64.524)" fill="#f34d4d"/>
      <path id="Path_22876" data-name="Path 22876" d="M336.087,120.3a.464.464,0,0,1-.4-.229l-.673-1.09a.471.471,0,0,1,.155-.673.484.484,0,0,1,.673.161l.673,1.09a.471.471,0,0,1-.41.72Z" transform="translate(-285.174 -47.515)" fill="#f34d4d"/>
      <path id="Path_22877" data-name="Path 22877" d="M347.494,139.115a.478.478,0,0,1-.41-.229l-1.305-2.153a.478.478,0,1,1,.814-.5l1.305,2.153a.484.484,0,0,1-.161.673A.458.458,0,0,1,347.494,139.115Zm-2.611-4.306a.478.478,0,0,1-.41-.229l-1.305-2.153a.484.484,0,0,1,.161-.673.478.478,0,0,1,.673.161l1.305,2.153a.484.484,0,0,1-.4.727Zm-2.611-4.306a.491.491,0,0,1-.41-.236l-1.305-2.153a.478.478,0,0,1,.814-.491l1.3,2.133a.471.471,0,0,1-.155.673.5.5,0,0,1-.242.074Zm-2.611-4.313a.484.484,0,0,1-.41-.229l-1.305-2.153a.478.478,0,0,1,.821-.491l1.305,2.153a.471.471,0,0,1-.41.72Z" transform="translate(-286.139 -49.104)" fill="#f34d4d"/>
      <path id="Path_22878" data-name="Path 22878" d="M354.528,150.745a.471.471,0,0,1-.4-.236l-.673-1.083a.478.478,0,0,1,.814-.5l.673,1.09a.463.463,0,0,1-.41.727Z" transform="translate(-291.214 -57.491)" fill="#f34d4d"/>
      <g id="Group_9163" data-name="Group 9163" transform="translate(-71.822 -40.344)">
        <path id="Path_22861-3" data-name="Path 22861" d="M395.853,141.222a1.2,1.2,0,0,0-1.8,1.043v18.5a2.6,2.6,0,0,0,1.312,2.261l14.991,8.659a1.2,1.2,0,0,0,1.83-1.063V156.893l-4.037-8.605Z" transform="translate(-304.516 -54.986)" fill="#fff" opacity="0.6"/>
        <path id="Path_22863-3" data-name="Path 22863" d="M414.111,154.949l.525-3.149,4.037,8.612-3.667-3.021a2.6,2.6,0,0,1-.895-2.442Z" transform="translate(-311.067 -58.499)" fill="#fff" opacity="0.4"/>
        <path id="Path_22864-3" data-name="Path 22864" d="M410.345,163.5a.41.41,0,0,1-.209-.061L398.3,156.627a.417.417,0,0,1-.148-.565.41.41,0,0,1,.558-.148l11.842,6.829a.417.417,0,0,1,.148.565.4.4,0,0,1-.357.2Z" transform="translate(-305.841 -59.826)" fill="#fafafa"/>
        <path id="Path_22865-3" data-name="Path 22865" d="M410.345,169.456a.477.477,0,0,1-.209-.054L398.3,162.567a.417.417,0,0,1-.148-.565.41.41,0,0,1,.558-.148l11.842,6.809a.417.417,0,0,1,.148.565A.4.4,0,0,1,410.345,169.456Z" transform="translate(-305.841 -61.77)" fill="#fafafa"/>
        <path id="Path_22866-3" data-name="Path 22866" d="M410.345,175.416a.478.478,0,0,1-.209-.054L398.3,168.527a.417.417,0,0,1-.148-.565.41.41,0,0,1,.558-.148l11.842,6.836a.41.41,0,0,1-.209.767Z" transform="translate(-305.841 -63.72)" fill="#fafafa"/>
      </g>
    </g>
    <g id="freepik--Stairs--inject-2" transform="translate(63.581 178.215)">
      <path id="Path_22879" data-name="Path 22879" d="M127.281,258.49,97.1,276.34v16.679L81.34,301.847v8.969l29.241,16.962L156.515,302v-26.55Z" transform="translate(-81.34 -258.49)" fill="#263238"/>
      <path id="Path_22880" data-name="Path 22880" d="M81.34,322.93l29.241,16.962v8.969L81.34,331.9Z" transform="translate(-81.34 -279.573)" fill="#455a64"/>
      <path id="Path_22881" data-name="Path 22881" d="M140.551,301.557v16.679L124.8,327.057v8.969l45.934-25.776V283.7Z" transform="translate(-95.559 -266.738)" fill="#263238"/>
      <path id="Path_22882" data-name="Path 22882" d="M110.581,335.6l15.751-8.821L97.1,309.81,81.34,318.637Z" transform="translate(-81.34 -275.281)" fill="#37474f"/>
      <path id="Path_22883" data-name="Path 22883" d="M133.994,318.668V301.989L104.76,285.02V301.7Z" transform="translate(-89.002 -267.17)" fill="#455a64"/>
      <path id="Path_22884" data-name="Path 22884" d="M133.994,293.309,104.76,276.34l30.183-17.85,29.234,16.962Z" transform="translate(-89.002 -258.49)" fill="#37474f"/>
    </g>
    <g id="freepik--Character--inject-2" transform="translate(50.533 117.322)">
      <path id="Path_22885" data-name="Path 22885" d="M158.44,193.37s-7.2,10.092-2.92,13.584,13.665.673,14.042-.989S158.44,193.37,158.44,193.37Z" transform="translate(-92.117 -176.292)" fill="#263238"/>
      <path id="Path_22886" data-name="Path 22886" d="M107.577,324.65,97,338.726l2.94,2.321s4.239-.888,5.739-6.486A67.281,67.281,0,0,0,107.577,324.65Z" transform="translate(-73.416 -219.243)" fill="#ffa8a7"/>
      <path id="Path_22887" data-name="Path 22887" d="M107.364,323.23s2.94,2.691,1.642,5.053-3.553,4.306-3.62,7.448-1.642,8.747-5.127,9.635-6.9-.323-6.829-1.561,2.4-5.544,2.4-5.544,3.2,1.985,5.564.067,2.907-9.971,2.907-9.971Z" transform="translate(-72.247 -218.778)" fill="#f34d4d"/>
      <path id="Path_22888" data-name="Path 22888" d="M107.364,323.23s2.94,2.691,1.642,5.053-3.553,4.306-3.62,7.448-1.642,8.747-5.127,9.635-6.9-.323-6.829-1.561,2.4-5.544,2.4-5.544,3.2,1.985,5.564.067,2.907-9.971,2.907-9.971Z" transform="translate(-72.247 -218.778)" opacity="0.2"/>
      <path id="Path_22889" data-name="Path 22889" d="M126.194,258.47s-23.589,9.978-25.5,10.96-5.262,2.691-4.925,10.382,2.267,26.738,2.267,26.738l12.932-24.895,33.392-15.872Z" transform="translate(-73.005 -197.591)" fill="#f34d4d"/>
      <path id="Path_22890" data-name="Path 22890" d="M126.194,258.47s-23.589,9.978-25.5,10.96-5.262,2.691-4.925,10.382,2.267,26.738,2.267,26.738l12.932-24.895,33.392-15.872Z" transform="translate(-73.005 -197.591)" opacity="0.5"/>
      <path id="Path_22891" data-name="Path 22891" d="M97.72,300.4c.5,5.436.949,9.857.949,9.857L111.6,285.359l23.811-11.337-5.383-4.232c-7.61,3.822-18.664,9.366-21.968,11.061-4.2,2.153-5.5,8.242-9.117,16.7C98.534,298.479,98.13,299.421,97.72,300.4Z" transform="translate(-73.651 -201.294)" fill="#f34d4d"/>
      <path id="Path_22892" data-name="Path 22892" d="M97.72,300.4c.5,5.436.949,9.857.949,9.857L111.6,285.359l23.811-11.337-5.383-4.232c-7.61,3.822-18.664,9.366-21.968,11.061-4.2,2.153-5.5,8.242-9.117,16.7C98.534,298.479,98.13,299.421,97.72,300.4Z" transform="translate(-73.651 -201.294)" opacity="0.7"/>
      <path id="Path_22893" data-name="Path 22893" d="M143.89,266.03l2.436,3.68-1.9.289Z" transform="translate(-88.757 -200.064)" fill="#f34d4d"/>
      <path id="Path_22894" data-name="Path 22894" d="M143.89,266.03l2.436,3.68-1.9.289Z" transform="translate(-88.757 -200.064)" opacity="0.7"/>
      <path id="Path_22895" data-name="Path 22895" d="M85.66,353.81s.336.565.336,3.411-1.137,3.445-2.543,3.923a27.326,27.326,0,0,0-6.728,4.871c-1.144,1.332-5.759,2.691-10.321,1.9s-5.524-3.808-3.33-5.739,8.444-5.45,8.444-5.45Z" transform="translate(-61.947 -228.783)" fill="#f34d4d"/>
      <path id="Path_22896" data-name="Path 22896" d="M149.059,266.088l-10.146-2.348s-28.185,14.129-32.383,16.282-5.49,8.249-9.124,16.706c-2.691,6.365-6.277,15.1-8.626,20.346a5.827,5.827,0,0,0,6.957,3.317h0c1.79-3.909,4.952-7.4,9.554-13.618a33.944,33.944,0,0,0,6.15-12.986A4.555,4.555,0,0,1,114.8,290.3c4.649-1.13,14.129-3.586,24.141-7.031C153.055,278.408,149.059,266.088,149.059,266.088Z" transform="translate(-70.726 -199.315)" fill="#f34d4d"/>
      <path id="Path_22897" data-name="Path 22897" d="M149.059,266.088l-10.146-2.348s-28.185,14.129-32.383,16.282-5.49,8.249-9.124,16.706c-2.691,6.365-6.277,15.1-8.626,20.346a5.827,5.827,0,0,0,6.957,3.317h0c1.79-3.909,4.952-7.4,9.554-13.618a33.944,33.944,0,0,0,6.15-12.986A4.555,4.555,0,0,1,114.8,290.3c4.649-1.13,14.129-3.586,24.141-7.031C153.055,278.408,149.059,266.088,149.059,266.088Z" transform="translate(-70.726 -199.315)" opacity="0.5"/>
      <path id="Path_22898" data-name="Path 22898" d="M82.857,343c-.774,1.729-1.413,3.082-1.85,3.842-1.77,3.075-6.93,6.405-8.747,7.98s-2.2,2.167-.464,3.5c4.394,3.364,8.2-.309,10.664-2.691a30.5,30.5,0,0,1,5.383-3.949,1.1,1.1,0,0,0,.545-.74,18.4,18.4,0,0,1,1.433-4.616h0A5.832,5.832,0,0,1,82.857,343Z" transform="translate(-64.803 -225.246)" fill="#ffa8a7"/>
      <path id="Path_22899" data-name="Path 22899" d="M139.406,273.151l-17.742,10.24-29.5-17.056L109.9,255.88Z" transform="translate(-71.832 -196.743)" fill="#37474f"/>
      <path id="Path_22900" data-name="Path 22900" d="M135.6,274.171l-6.654-3.842,4.172-2.409,6.661,3.842Z" transform="translate(-83.869 -200.682)" fill="#263238"/>
      <path id="Path_22901" data-name="Path 22901" d="M130.722,285.245l8.969-5.282-17.52-10.6Z" transform="translate(-81.651 -201.153)" fill="#263238"/>
      <path id="Path_22902" data-name="Path 22902" d="M126.645,245.92l-7.1,3.364a62.9,62.9,0,0,0-6.264,1.938s-4.939,2.019-5.167,3.364,3.707,4.515,7.159,2.96a11.242,11.242,0,0,1,2.886-1.043,10.092,10.092,0,0,0,5.672-2.436l5.739-1.574S132.532,246.748,126.645,245.92Z" transform="translate(-77.049 -193.485)" fill="#ffa8a7"/>
      <path id="Path_22903" data-name="Path 22903" d="M126.65,259.42c-.821.881-3.162,3.1-3.674,3.741s-1.722-1.009.4-3.465a19.936,19.936,0,0,0,5.114-2.785A20.1,20.1,0,0,1,126.65,259.42Z" transform="translate(-81.649 -197.08)" fill="#ffa8a7"/>
      <path id="Path_22904" data-name="Path 22904" d="M148.845,209.2h0a6.97,6.97,0,0,0-7.711,4.676,30.565,30.565,0,0,0-1.447,6.977c-.612,7.307-.78,10.96-.78,10.96l-7.347,3.364s3.97.188,3.7,5.786l9.144-2.321Z" transform="translate(-84.723 -181.441)" fill="#f34d4d"/>
      <path id="Path_22905" data-name="Path 22905" d="M148.845,209.2h0a6.97,6.97,0,0,0-7.711,4.676,30.565,30.565,0,0,0-1.447,6.977c-.612,7.307-.78,10.96-.78,10.96l-7.347,3.364s3.936.188,3.7,5.786l9.144-2.321Z" transform="translate(-84.723 -181.441)" fill="#fff" opacity="0.3"/>
      <path id="Path_22906" data-name="Path 22906" d="M142.48,242.434a5.08,5.08,0,0,1,2.167,1.346,5.467,5.467,0,0,0-2.126-2.2Z" transform="translate(-88.295 -192.065)" fill="#f34d4d"/>
      <path id="Path_22907" data-name="Path 22907" d="M142.48,242.434a5.08,5.08,0,0,1,2.167,1.346,5.467,5.467,0,0,0-2.126-2.2Z" transform="translate(-88.295 -192.065)" fill="#fff" opacity="0.1"/>
      <path id="Path_22908" data-name="Path 22908" d="M150.887,179.151s-4.535-1.346-2.9-6.466,13.2-7.314,21.907,0c0,0,6.109-.942,6.109,7.59s-3.418,12.427,1.844,14.647c0,0-3.209,3.041-5.807,0,0,0-.545,6.661-10.388,4.34Z" transform="translate(-89.981 -167.987)" fill="#263238"/>
      <path id="Path_22909" data-name="Path 22909" d="M163.513,212.147l5.154,2.193v15.112a33.52,33.52,0,0,0-2.577,12.192v7.482s-10.536,3.754-18.7-.309c-3.956-1.965-6.405-6.452-6.405-6.452s4.353-2.563,4.353-5.692a43.56,43.56,0,0,0-.868-7.273,8.747,8.747,0,0,1-2.51-7.327c.579-4.992,9.971-12.831,9.971-12.831l3.5.478Z" transform="translate(-87.805 -181.484)" fill="#f34d4d"/>
      <path id="Path_22910" data-name="Path 22910" d="M170.537,207.619l-8.087-2.429V195.4h8.087Z" transform="translate(-94.829 -176.956)" fill="#ffa8a7"/>
      <path id="Path_22911" data-name="Path 22911" d="M162.45,205.256a13,13,0,0,0,7.4-7.065V195.5h-7.4Z" transform="translate(-94.829 -176.988)" fill="#f28f8f"/>
      <path id="Path_22912" data-name="Path 22912" d="M156.458,175.607s-7.4.431-6.486,13.086c.424,5.847,1.79,8.875,6.3,8.653,5.1-.249,12.346-3.754,11.875-13.766S156.458,175.607,156.458,175.607Z" transform="translate(-90.721 -170.424)" fill="#ffa8a7"/>
      <path id="Path_22913" data-name="Path 22913" d="M168.136,188.291s-2.018.538-2.018-2.368c0,0-9.016-.612-11.007-9.561,0,0,.888-2.691,6.52-2.691s10.355,4.972,8.888,11.815Z" transform="translate(-92.428 -169.846)" fill="#263238"/>
      <path id="Path_22914" data-name="Path 22914" d="M156.83,191.36v4.353l-2.55-.78Z" transform="translate(-92.156 -175.634)" fill="#f28f8f"/>
      <path id="Path_22915" data-name="Path 22915" d="M162.9,191.618a.881.881,0,1,1-.256-.628.888.888,0,0,1,.256.628Z" transform="translate(-94.394 -175.428)" fill="#263238"/>
      <path id="Path_22916" data-name="Path 22916" d="M154.236,190.7a.888.888,0,1,1-.881-.881A.888.888,0,0,1,154.236,190.7Z" transform="translate(-91.561 -175.13)" fill="#263238"/>
      <path id="Path_22917" data-name="Path 22917" d="M152.152,187.694l1.736-1.029s-.673-.673-1.346-.276a1.211,1.211,0,0,0-.39,1.305Z" transform="translate(-91.441 -173.967)" fill="#263238"/>
      <path id="Path_22918" data-name="Path 22918" d="M158.4,199.627a4.5,4.5,0,0,0,2.853-.767s.2,1.507-1.063,1.79a1.621,1.621,0,0,1-1.79-1.023Z" transform="translate(-93.504 -178.088)" fill="#f28f8f"/>
      <path id="Path_22919" data-name="Path 22919" d="M173.408,194.1a4.892,4.892,0,0,1,.4-2.146,2.267,2.267,0,0,1,1.971-1.541c2.267-.061,2.577,2.126,2.543,2.907a4.681,4.681,0,0,1-4.817,4.34Z" transform="translate(-98.413 -175.323)" fill="#ffa8a7"/>
      <path id="Path_22920" data-name="Path 22920" d="M160.984,210l-2.389,3.1a3.021,3.021,0,0,0,.989,4.515h0A5.154,5.154,0,0,0,166,216.271l3.075-3.842Z" transform="translate(-93.363 -181.732)" fill="#ffa8a7"/>
      <path id="Path_22921" data-name="Path 22921" d="M153.655,265.4l-6.728,3.68a20.945,20.945,0,0,0-3.108,0c-1.2.148-4.373.727-5.194.76s-.034,1.568,2.119,1.433c0,0-4.851,2.22-5.026,3.553s3.889,4.36,7.28,2.691a11,11,0,0,1,2.833-1.157,10.167,10.167,0,0,0,5.571-2.691l5.672-1.817S159.562,265.979,153.655,265.4Z" transform="translate(-86.081 -199.858)" fill="#ffa8a7"/>
      <path id="Path_22922" data-name="Path 22922" d="M175.665,216.82s-4.124,2.812-3.418,11.559a102.7,102.7,0,0,1,0,15.9l-9.877,5.228a7.542,7.542,0,0,1,3.364,6.452s14.183-2.92,15.031-6.224,1.157-19.108,1.157-21.853S180.819,219.013,175.665,216.82Z" transform="translate(-94.803 -183.964)" fill="#f34d4d"/>
      <path id="Path_22923" data-name="Path 22923" d="M175.665,216.82s-4.124,2.812-3.418,11.559a102.7,102.7,0,0,1,0,15.9l-9.877,5.228a7.542,7.542,0,0,1,3.364,6.452s14.183-2.92,15.031-6.224,1.157-19.108,1.157-21.853S180.819,219.013,175.665,216.82Z" transform="translate(-94.803 -183.964)" fill="#fff" opacity="0.3"/>
      <path id="Path_22924" data-name="Path 22924" d="M177.06,257.257a8.074,8.074,0,0,1,3.176.579,6.782,6.782,0,0,0-3.115-1.346Z" transform="translate(-99.609 -196.943)" fill="#f34d4d"/>
      <path id="Path_22925" data-name="Path 22925" d="M177.06,257.257a8.074,8.074,0,0,1,3.176.579,6.782,6.782,0,0,0-3.115-1.346Z" transform="translate(-99.609 -196.943)" fill="#fff" opacity="0.1"/>
      <path id="Path_22926" data-name="Path 22926" d="M86.043,241.848l3.082,20.185a.061.061,0,0,0,0,.034l30.647,17.776a.047.047,0,0,0,.067-.047l-2.994-19.586a2.88,2.88,0,0,0-1.346-2.018L87.4,240.933a.895.895,0,0,0-1.359.915Z" transform="translate(-69.826 -191.807)" fill="#455a64"/>
      <path id="Path_22927" data-name="Path 22927" d="M136.141,293.183,152.5,283.7a2.5,2.5,0,0,0,1.245-2.153h0L136,291.79Z" transform="translate(-86.175 -205.142)" fill="#263238"/>
      <path id="Path_22928" data-name="Path 22928" d="M110.2,269.228c0,1.447-1.009,2.018-2.261,1.305a5,5,0,0,1-2.261-3.916c0-1.44,1.016-2.018,2.261-1.305A4.992,4.992,0,0,1,110.2,269.228Z" transform="translate(-76.255 -199.729)" fill="#37474f"/>
      <path id="Path_22929" data-name="Path 22929" d="M157.25,239.37s6.183,1.682,9.467-2.96C166.717,236.41,164.591,242.4,157.25,239.37Z" transform="translate(-93.128 -190.373)" opacity="0.2"/>
    </g>
  </g>
</svg>
