<svg width="32" height="32" viewBox="0 0 32 32" fill="none" xmlns="http://www.w3.org/2000/svg">
<path d="M29.3337 18.6641V15.7281C29.3337 12.2187 29.3337 10.4627 28.307 9.32273C28.2128 9.2175 28.1131 9.11736 28.0083 9.02273C26.8683 7.9974 25.1123 7.9974 21.603 7.9974H21.1043C19.567 7.9974 18.7977 7.9974 18.0803 7.7934C17.6867 7.68087 17.3073 7.52339 16.9497 7.32406C16.299 6.96273 15.755 6.4174 14.667 5.33073L13.9337 4.5974C13.5683 4.23206 13.387 4.05073 13.195 3.89073C12.3692 3.20625 11.3562 2.78665 10.2883 2.68673C10.0403 2.66406 9.78166 2.66406 9.26699 2.66406C8.08966 2.66406 7.50166 2.66406 7.01099 2.7574C5.95744 2.95636 4.98832 3.46824 4.23007 4.22626C3.47181 4.98428 2.95962 5.95324 2.76033 7.00673C2.66699 7.49873 2.66699 8.08806 2.66699 9.26406V18.6641C2.66699 23.6921 2.66699 26.2067 4.22966 27.7681C5.79099 29.3307 8.30566 29.3307 13.3337 29.3307H18.667C23.695 29.3307 26.2097 29.3307 27.771 27.7681C29.3337 26.2067 29.3337 23.6921 29.3337 18.6641Z" fill="white"/>
<path d="M16.334 13.3281C16.334 13.0629 16.4393 12.8086 16.6269 12.621C16.8144 12.4335 17.0688 12.3281 17.334 12.3281H24.0007C24.2659 12.3281 24.5202 12.4335 24.7078 12.621C24.8953 12.8086 25.0007 13.0629 25.0007 13.3281C25.0007 13.5933 24.8953 13.8477 24.7078 14.0352C24.5202 14.2228 24.2659 14.3281 24.0007 14.3281H17.334C17.0688 14.3281 16.8144 14.2228 16.6269 14.0352C16.4393 13.8477 16.334 13.5933 16.334 13.3281Z" fill="#F34D4D"/>
</svg>
