<svg width="53" height="64" viewBox="0 0 53 64" fill="none" xmlns="http://www.w3.org/2000/svg">
<path d="M0 0H53V64H0V0Z" fill="#2D2D2D"/>
<path d="M10.1511 31.428C9.31908 31.012 8.90308 30.356 8.90308 29.46C8.90308 29.028 9.01108 28.632 9.22708 28.272C9.44308 27.912 9.76708 27.628 10.1991 27.42C10.6311 27.204 11.1591 27.096 11.7831 27.096C12.3991 27.096 12.9231 27.204 13.3551 27.42C13.7951 27.628 14.1231 27.912 14.3391 28.272C14.5551 28.632 14.6631 29.028 14.6631 29.46C14.6631 29.908 14.5471 30.304 14.3151 30.648C14.0911 30.984 13.7911 31.244 13.4151 31.428C13.8711 31.596 14.2311 31.872 14.4951 32.256C14.7591 32.632 14.8911 33.076 14.8911 33.588C14.8911 34.108 14.7591 34.568 14.4951 34.968C14.2311 35.368 13.8631 35.676 13.3911 35.892C12.9191 36.108 12.3831 36.216 11.7831 36.216C11.1831 36.216 10.6471 36.108 10.1751 35.892C9.71108 35.676 9.34708 35.368 9.08308 34.968C8.81908 34.568 8.68708 34.108 8.68708 33.588C8.68708 33.068 8.81908 32.62 9.08308 32.244C9.34708 31.868 9.70308 31.596 10.1511 31.428ZM13.3551 29.628C13.3551 29.18 13.2151 28.836 12.9351 28.596C12.6551 28.356 12.2711 28.236 11.7831 28.236C11.3031 28.236 10.9231 28.356 10.6431 28.596C10.3631 28.836 10.2231 29.184 10.2231 29.64C10.2231 30.04 10.3671 30.368 10.6551 30.624C10.9511 30.872 11.3271 30.996 11.7831 30.996C12.2391 30.996 12.6151 30.868 12.9111 30.612C13.2071 30.356 13.3551 30.028 13.3551 29.628ZM11.7831 32.028C11.2551 32.028 10.8231 32.16 10.4871 32.424C10.1591 32.68 9.99508 33.052 9.99508 33.54C9.99508 33.996 10.1551 34.368 10.4751 34.656C10.7951 34.936 11.2311 35.076 11.7831 35.076C12.3271 35.076 12.7551 34.932 13.0671 34.644C13.3871 34.356 13.5471 33.988 13.5471 33.54C13.5471 33.06 13.3831 32.688 13.0551 32.424C12.7351 32.16 12.3111 32.028 11.7831 32.028ZM24.5326 27.66V28.776H20.9926V31.236H23.7526V32.352H20.9926V36H19.6246V27.66H24.5326ZM26.4964 28.512C26.2484 28.512 26.0404 28.428 25.8724 28.26C25.7044 28.092 25.6204 27.884 25.6204 27.636C25.6204 27.388 25.7044 27.18 25.8724 27.012C26.0404 26.844 26.2484 26.76 26.4964 26.76C26.7364 26.76 26.9404 26.844 27.1084 27.012C27.2764 27.18 27.3604 27.388 27.3604 27.636C27.3604 27.884 27.2764 28.092 27.1084 28.26C26.9404 28.428 26.7364 28.512 26.4964 28.512ZM27.1684 29.388V36H25.8004V29.388H27.1684ZM30.3325 27.12V36H28.9645V27.12H30.3325ZM38.1885 32.532C38.1885 32.78 38.1725 33.004 38.1405 33.204H33.0885C33.1285 33.732 33.3245 34.156 33.6765 34.476C34.0285 34.796 34.4605 34.956 34.9725 34.956C35.7085 34.956 36.2285 34.648 36.5325 34.032H38.0085C37.8085 34.64 37.4445 35.14 36.9165 35.532C36.3965 35.916 35.7485 36.108 34.9725 36.108C34.3405 36.108 33.7725 35.968 33.2685 35.688C32.7725 35.4 32.3805 35 32.0925 34.488C31.8125 33.968 31.6725 33.368 31.6725 32.688C31.6725 32.008 31.8085 31.412 32.0805 30.9C32.3605 30.38 32.7485 29.98 33.2445 29.7C33.7485 29.42 34.3245 29.28 34.9725 29.28C35.5965 29.28 36.1525 29.416 36.6405 29.688C37.1285 29.96 37.5085 30.344 37.7805 30.84C38.0525 31.328 38.1885 31.892 38.1885 32.532ZM36.7605 32.1C36.7525 31.596 36.5725 31.192 36.2205 30.888C35.8685 30.584 35.4325 30.432 34.9125 30.432C34.4405 30.432 34.0365 30.584 33.7005 30.888C33.3645 31.184 33.1645 31.588 33.1005 32.1H36.7605ZM41.9348 36.108C41.4148 36.108 40.9468 36.016 40.5308 35.832C40.1228 35.64 39.7988 35.384 39.5588 35.064C39.3188 34.736 39.1908 34.372 39.1748 33.972H40.5908C40.6148 34.252 40.7468 34.488 40.9868 34.68C41.2348 34.864 41.5428 34.956 41.9108 34.956C42.2948 34.956 42.5908 34.884 42.7988 34.74C43.0148 34.588 43.1228 34.396 43.1228 34.164C43.1228 33.916 43.0028 33.732 42.7628 33.612C42.5308 33.492 42.1588 33.36 41.6468 33.216C41.1508 33.08 40.7468 32.948 40.4348 32.82C40.1228 32.692 39.8508 32.496 39.6188 32.232C39.3948 31.968 39.2828 31.62 39.2828 31.188C39.2828 30.836 39.3868 30.516 39.5948 30.228C39.8028 29.932 40.0988 29.7 40.4828 29.532C40.8748 29.364 41.3228 29.28 41.8268 29.28C42.5788 29.28 43.1828 29.472 43.6388 29.856C44.1028 30.232 44.3508 30.748 44.3828 31.404H43.0148C42.9908 31.108 42.8708 30.872 42.6548 30.696C42.4388 30.52 42.1468 30.432 41.7788 30.432C41.4188 30.432 41.1428 30.5 40.9508 30.636C40.7588 30.772 40.6628 30.952 40.6628 31.176C40.6628 31.352 40.7268 31.5 40.8548 31.62C40.9828 31.74 41.1388 31.836 41.3228 31.908C41.5068 31.972 41.7788 32.056 42.1388 32.16C42.6188 32.288 43.0108 32.42 43.3148 32.556C43.6268 32.684 43.8948 32.876 44.1188 33.132C44.3428 33.388 44.4588 33.728 44.4668 34.152C44.4668 34.528 44.3628 34.864 44.1548 35.16C43.9468 35.456 43.6508 35.688 43.2668 35.856C42.8908 36.024 42.4468 36.108 41.9348 36.108Z" fill="white"/>
</svg>
