<svg width="48" height="48" viewBox="0 0 48 48" fill="none" xmlns="http://www.w3.org/2000/svg">
<path d="M12.4588 19.6042H9.79215C9.61534 19.6042 9.44577 19.5339 9.32075 19.4089C9.19573 19.2839 9.12549 19.1143 9.12549 18.9375V9.60417C9.12549 9.42736 9.19573 9.25779 9.32075 9.13276C9.44577 9.00774 9.61534 8.9375 9.79215 8.9375H12.4588C12.6356 8.9375 12.8052 9.00774 12.9302 9.13276C13.0553 9.25779 13.1255 9.42736 13.1255 9.60417V18.9375C13.1255 19.1143 13.0553 19.2839 12.9302 19.4089C12.8052 19.5339 12.6356 19.6042 12.4588 19.6042Z" fill="#A0041E"/>
<path d="M6.6665 21.3333L23.9998 4L41.3332 21.3333V44H6.6665V21.3333Z" fill="#FFE8B6"/>
<path d="M24 21.3359H25.3333V42.6693H24V21.3359Z" fill="#FFCC4D"/>
<path d="M41.3333 22.6643C41.1582 22.6645 40.9848 22.6301 40.823 22.563C40.6612 22.496 40.5143 22.3977 40.3906 22.2737L24 5.883L7.60929 22.2737C7.4855 22.3975 7.33854 22.4957 7.1768 22.5627C7.01505 22.6296 6.8417 22.6641 6.66663 22.6641C6.49156 22.6641 6.3182 22.6296 6.15646 22.5627C5.99472 22.4957 5.84775 22.3975 5.72396 22.2737C5.60017 22.1499 5.50197 22.0029 5.43497 21.8412C5.36798 21.6794 5.3335 21.5061 5.3335 21.331C5.3335 21.1559 5.36798 20.9826 5.43497 20.8208C5.50197 20.6591 5.60017 20.5121 5.72396 20.3883L23.0573 3.055C23.181 2.93107 23.328 2.83275 23.4897 2.76567C23.6515 2.69859 23.8249 2.66406 24 2.66406C24.1751 2.66406 24.3485 2.69859 24.5102 2.76567C24.672 2.83275 24.8189 2.93107 24.9426 3.055L42.276 20.3883C42.463 20.5746 42.5906 20.8121 42.6423 21.071C42.6941 21.3298 42.6679 21.5982 42.5669 21.842C42.4659 22.0859 42.2947 22.2943 42.0751 22.4407C41.8554 22.5871 41.5972 22.6649 41.3333 22.6643Z" fill="#D6332B"/>
<path d="M24 22.6691C23.736 22.6697 23.4779 22.5918 23.2582 22.4454C23.0386 22.299 22.8674 22.0906 22.7664 21.8468C22.6654 21.6029 22.6391 21.3345 22.6909 21.0757C22.7427 20.8169 22.8702 20.5793 23.0573 20.3931L31.724 11.7264C31.8478 11.6026 31.9947 11.5044 32.1565 11.4374C32.3182 11.3704 32.4916 11.3359 32.6666 11.3359C32.8417 11.3359 33.0151 11.3704 33.1768 11.4374C33.3386 11.5044 33.4855 11.6026 33.6093 11.7264C33.7331 11.8502 33.8313 11.9972 33.8983 12.1589C33.9653 12.3206 33.9998 12.494 33.9998 12.6691C33.9998 12.8441 33.9653 13.0175 33.8983 13.1792C33.8313 13.341 33.7331 13.4879 33.6093 13.6117L24.9427 22.2784C24.819 22.4024 24.6721 22.5007 24.5103 22.5678C24.3485 22.6348 24.1751 22.6693 24 22.6691Z" fill="#D6332B"/>
<path d="M13.3335 34.6641H18.6668V42.6641H13.3335V34.6641Z" fill="#C1694F"/>
<path d="M13.3335 22.6641H18.6668V27.9974H13.3335V22.6641ZM30.0002 22.6641H35.3335V27.9974H30.0002V22.6641ZM30.0002 34.6641H35.3335V39.9974H30.0002V34.6641Z" fill="#55ACEE"/>
<path d="M44.6668 44.6641C44.6668 45.1945 44.4561 45.7032 44.081 46.0783C43.706 46.4534 43.1973 46.6641 42.6668 46.6641H5.3335C4.80306 46.6641 4.29436 46.4534 3.91928 46.0783C3.54421 45.7032 3.3335 45.1945 3.3335 44.6641C3.3335 44.1336 3.54421 43.6249 3.91928 43.2498C4.29436 42.8748 4.80306 42.6641 5.3335 42.6641H42.6668C43.1973 42.6641 43.706 42.8748 44.081 43.2498C44.4561 43.6249 44.6668 44.1336 44.6668 44.6641Z" fill="#5C913B"/>
</svg>
