<svg width="48" height="48" viewBox="0 0 48 48" fill="none" xmlns="http://www.w3.org/2000/svg">
<path d="M40.0197 31.2031H20.3447C18.1464 31.2031 16.3643 32.9852 16.3643 35.1836V36.7096C16.3643 38.9079 18.1464 40.69 20.3447 40.69H40.0197C42.218 40.69 44.0001 38.9079 44.0001 36.7096V35.1836C44.0001 32.9852 42.218 31.2031 40.0197 31.2031Z" fill="#FB6F05"/>
<path d="M16.7374 16.0096C16.5286 16.1833 16.3963 16.432 16.369 16.7022C16.3417 16.9724 16.4216 17.2426 16.5914 17.4545L16.6044 17.4674C16.8163 17.6373 17.0864 17.7171 17.3566 17.6898C17.6268 17.6625 17.8755 17.5303 18.0492 17.3215L18.1995 17.1712L16.8868 15.8594L16.7374 16.0096Z" fill="#F7BD6D"/>
<path d="M24.1356 11.2277L24.4672 10.896C24.6761 10.7225 24.8086 10.4739 24.836 10.2036C24.8635 9.93343 24.7838 9.66324 24.614 9.45121L24.6002 9.43825C24.3882 9.26851 24.118 9.18879 23.8478 9.21625C23.5776 9.24371 23.3289 9.37615 23.1554 9.58507L22.8237 9.9167L24.1356 11.2277Z" fill="#F7BD6D"/>
<path d="M22.8248 9.92181L16.8872 15.8594L18.1989 17.1711L24.1365 11.2335L22.8248 9.92181Z" fill="#F7BD6D"/>
<path d="M22.4015 7.24113L22.3877 7.22731C22.1756 7.05757 21.9055 6.97786 21.6352 7.00531C21.365 7.03277 21.1164 7.16521 20.9428 7.37413L14.5235 13.7934C14.3146 13.967 14.1822 14.2156 14.1547 14.4858C14.1273 14.756 14.207 15.0262 14.3767 15.2383L14.3905 15.2521C14.7489 15.6096 16.2974 16.4465 16.737 16.0069L16.8873 15.8566L22.8247 9.91922L23.1563 9.58759C23.5959 9.14801 22.7625 7.59954 22.4015 7.24113Z" fill="#F7A22E"/>
<path d="M32.8965 17.7484L32.8835 17.7355C32.2687 17.2072 31.5128 16.8701 30.7089 16.7656C30.6589 16.8431 30.601 16.9151 30.5362 16.9807L30.2046 17.3123L24.2672 23.2497L24.1169 23.4C24.0515 23.4649 23.9794 23.5228 23.9019 23.5727C24.0062 24.3766 24.3433 25.1325 24.8717 25.7473L24.8847 25.7611C25.0967 25.9308 25.3669 26.0106 25.6371 25.9831C25.9073 25.9556 26.1559 25.8232 26.3295 25.6143L32.7497 19.195C32.9591 19.0214 33.0919 18.7724 33.1193 18.5018C33.1468 18.2311 33.0667 17.9606 32.8965 17.7484Z" fill="#EB8E11"/>
<path d="M30.6829 15.5219L30.6699 15.5089C30.458 15.3391 30.1879 15.2592 29.9177 15.2865C29.6474 15.3138 29.3987 15.4461 29.2251 15.6549L28.8934 15.9865L22.956 21.9247L22.8058 22.075C22.5969 22.2486 22.4644 22.4972 22.437 22.7674C22.4095 23.0376 22.4892 23.3078 22.659 23.5199L22.6719 23.5337C22.8429 23.6783 23.0584 23.7598 23.2824 23.7643C23.5063 23.7689 23.725 23.6963 23.9017 23.5587C23.9793 23.5089 24.0514 23.451 24.1168 23.386L24.267 23.2357L30.2044 17.2983L30.536 16.9667C30.6009 16.9012 30.6588 16.8291 30.7088 16.7517C30.8464 16.5749 30.9189 16.3561 30.9142 16.1322C30.9095 15.9082 30.8278 15.6927 30.6829 15.5219Z" fill="#F7A22E"/>
<path d="M4.55469 35.5748L4.56678 35.5869C4.9032 35.8915 5.32993 36.0779 5.78204 36.1177C6.23415 36.1574 6.68686 36.0484 7.07128 35.8071C12.5803 31.7231 15.5106 25.0611 21.0188 20.977C21.2152 20.843 21.3783 20.6658 21.4955 20.4589L20.5826 19.5469L4.55469 35.5748Z" fill="#F7A22E"/>
<path d="M19.6665 18.6406C19.4597 18.7576 19.2824 18.9203 19.1483 19.1165C15.0643 24.6255 8.40228 27.5558 4.31822 33.0648C4.07707 33.4493 3.96816 33.9021 4.00807 34.3542C4.04798 34.8063 4.23453 35.233 4.5393 35.5693L4.55053 35.5805L20.575 19.5561L19.6665 18.6406Z" fill="#F7BD6D"/>
<path d="M24.1356 11.2344L18.1982 17.1718L19.6664 18.6399L20.5784 19.5519L21.2235 18.9068L26.5166 13.6145L24.1356 11.2344Z" fill="#F7A22E"/>
<path d="M26.5144 13.6172L21.2213 18.9095L20.5762 19.5546L21.4882 20.4666L22.9563 21.9347L28.8937 15.9973L26.5144 13.6172Z" fill="#EB8E11"/>
<path d="M21.3354 30.4754C21.3354 30.5648 21.3531 30.6533 21.3873 30.7358C21.4215 30.8184 21.4716 30.8934 21.5348 30.9566C21.598 31.0198 21.673 31.0699 21.7556 31.1041C21.8381 31.1383 21.9266 31.1559 22.016 31.1559H38.3453C38.5258 31.1559 38.6989 31.0842 38.8265 30.9566C38.9542 30.829 39.0259 30.6559 39.0259 30.4754V30.0781H21.3354V30.4754Z" fill="#F7A22E"/>
<path d="M37.6529 28.2821C37.6527 28.1015 37.5808 27.9284 37.453 27.8008C37.3253 27.6732 37.1521 27.6016 36.9715 27.6016H23.392C23.2115 27.6016 23.0384 27.6733 22.9108 27.8009C22.7831 27.9285 22.7114 28.1016 22.7114 28.2821V28.3287H37.6521L37.6529 28.2821Z" fill="#F7BD6D"/>
<path d="M38.3452 29.1901H38.3314C38.1508 29.1898 37.9777 29.1179 37.8501 28.9902C37.7225 28.8624 37.6508 28.6892 37.6508 28.5087V28.3359H22.7102V28.5087C22.7102 28.6894 22.6384 28.8627 22.5106 28.9905C22.3829 29.1183 22.2095 29.1901 22.0288 29.1901H22.015C21.8345 29.1901 21.6614 29.2618 21.5338 29.3894C21.4062 29.517 21.3345 29.6901 21.3345 29.8706V30.09H39.0249V29.8706C39.0249 29.6903 38.9533 29.5173 38.8259 29.3897C38.6984 29.2621 38.5255 29.1903 38.3452 29.1901Z" fill="#EB8E11"/>
</svg>
