<svg width="48" height="48" viewBox="0 0 48 48" fill="none" xmlns="http://www.w3.org/2000/svg">
<path d="M8.26702 18.9062H37.5823C38.358 18.9062 39.1019 19.2144 39.6504 19.7629C40.1989 20.3114 40.507 21.0553 40.507 21.831V42.1372C40.507 42.9129 40.1989 43.6568 39.6504 44.2053C39.1019 44.7538 38.358 45.062 37.5823 45.062H8.26702C7.49133 45.062 6.74741 44.7538 6.19892 44.2053C5.65043 43.6568 5.34229 42.9129 5.34229 42.1372V21.831C5.34229 21.0553 5.65043 20.3114 6.19892 19.7629C6.74741 19.2144 7.49133 18.9062 8.26702 18.9062Z" fill="#DD3F18"/>
<path d="M33.9723 4.61912L20.6851 21.5078L29.9627 28.807L43.2499 11.9183L33.9723 4.61912Z" fill="url(#paint0_linear_39_1482)"/>
<path d="M22.2676 21.239L29.8547 27.2089L41.6654 12.1965L34.0792 6.22656L22.2676 21.239ZM39.2749 11.7027C39.1738 11.8242 39.1011 11.9668 39.0621 12.1199C39.0231 12.2731 39.0187 12.433 39.0493 12.5881C39.0799 12.7431 39.1446 12.8895 39.2388 13.0163C39.3331 13.1432 39.4544 13.2475 39.594 13.3216L30.4611 24.9285C30.4256 24.8886 30.3874 24.8513 30.3467 24.8167C30.234 24.728 30.1049 24.6624 29.9669 24.6236C29.8288 24.5849 29.6845 24.5737 29.5421 24.5908C29.3997 24.6079 29.2621 24.6529 29.1371 24.7233C29.0122 24.7936 28.9023 24.8879 28.8138 25.0008C28.7811 25.0431 28.7523 25.0883 28.7278 25.1358L24.5471 21.8464C24.5872 21.811 24.6243 21.7724 24.6581 21.7311C24.8369 21.5034 24.918 21.2141 24.8836 20.9267C24.8493 20.6393 24.7023 20.3773 24.4749 20.1982C24.4324 20.1653 24.3869 20.1365 24.339 20.1122L33.4727 8.50442C33.5084 8.54412 33.5466 8.58148 33.5871 8.61625C33.8147 8.79511 34.1039 8.87637 34.3913 8.84217C34.6787 8.80798 34.9408 8.66114 35.12 8.43388C35.1521 8.39085 35.1809 8.34542 35.2061 8.29798L39.3867 11.5874C39.3467 11.6221 39.3093 11.6598 39.2749 11.7001V11.7027Z" fill="white"/>
<path d="M32.8873 16.7422C32.7278 16.7825 32.5732 16.8402 32.4263 16.9142L33.3725 17.6592C33.4697 17.5228 33.5157 17.3565 33.5024 17.1895C33.4774 17.042 33.3952 16.9103 33.2736 16.823C33.2203 16.7797 33.1575 16.7498 33.0903 16.7357C33.0231 16.7216 32.9535 16.7238 32.8873 16.7422Z" fill="white"/>
<path d="M30.6719 16.408C30.7234 16.449 30.7834 16.4781 30.8476 16.493C30.9117 16.5078 30.9784 16.5082 31.0427 16.494C31.1974 16.4592 31.3475 16.4064 31.49 16.3366L30.6134 15.6484C30.5595 15.7084 30.5184 15.7789 30.4928 15.8554C30.4672 15.9319 30.4576 16.0128 30.4646 16.0932C30.4937 16.2196 30.5673 16.3313 30.6719 16.408Z" fill="white"/>
<path d="M29.2639 14.4834C28.8351 15.0277 28.5774 15.6869 28.5234 16.3777C28.4693 17.0685 28.6214 17.7598 28.9603 18.3642C29.2992 18.9686 29.8098 19.4588 30.4274 19.773C31.045 20.0871 31.7418 20.2111 32.4299 20.1291C33.1179 20.0471 33.7662 19.7629 34.2927 19.3125C34.8192 18.862 35.2003 18.2655 35.3877 17.5984C35.5751 16.9314 35.5605 16.2237 35.3457 15.5649C35.1309 14.9062 34.7255 14.3259 34.1809 13.8976C33.4509 13.3238 32.5231 13.0632 31.6012 13.1731C30.6792 13.2829 29.8386 13.7542 29.2639 14.4834ZM34.3271 16.9264C34.3766 17.2605 34.3127 17.6015 34.1456 17.895L34.6462 18.2881L34.2067 18.8464L33.7387 18.4782C33.5917 18.6554 33.4284 18.8184 33.251 18.9651C33.1258 19.0683 32.9879 19.1551 32.8406 19.2232L32.3899 18.5298C32.5061 18.4831 32.616 18.4218 32.7168 18.3475C32.8628 18.2428 32.9974 18.1232 33.1185 17.9905L32.0278 17.1303C31.891 17.2017 31.7473 17.2687 31.5976 17.3298C31.4539 17.3902 31.3025 17.4305 31.1477 17.4494C30.9895 17.4668 30.8294 17.4548 30.6755 17.4141C30.497 17.3615 30.3309 17.2738 30.1869 17.1561C29.9117 16.9662 29.7228 16.6752 29.6613 16.3466C29.6242 16.026 29.6915 15.7021 29.8531 15.4227L29.3637 15.0374L29.8024 14.4782L30.2712 14.8473C30.389 14.7133 30.5202 14.5917 30.6626 14.4842C30.7793 14.3942 30.9027 14.3131 31.0316 14.2417L31.472 14.9023C31.379 14.951 31.2893 15.0059 31.2037 15.0666C31.0913 15.1457 30.9865 15.2349 30.8905 15.3333L31.9004 16.1298C32.0419 16.0544 32.1872 15.9863 32.3357 15.926C32.482 15.8627 32.6363 15.8196 32.7942 15.7978C32.9516 15.779 33.1111 15.7875 33.2656 15.8227C33.443 15.8671 33.6084 15.9502 33.7499 16.0662C34.0424 16.2705 34.2471 16.5777 34.3228 16.9264H34.3271Z" fill="white"/>
<path d="M19.273 3.00315L19.1226 24.4922L30.9264 24.5748L31.0769 3.08578L19.273 3.00315Z" fill="url(#paint1_linear_39_1482)"/>
<path d="M20.2061 23.3051L29.8594 23.3739L29.9979 4.2728L20.3437 4.20312L20.2061 23.3051ZM27.806 5.34893C27.8042 5.63853 27.9175 5.917 28.1209 6.12315C28.3243 6.32929 28.6012 6.44625 28.8908 6.4483C28.9444 6.44731 28.9979 6.44212 29.0508 6.43281L28.9432 21.2001C28.89 21.1911 28.8363 21.1857 28.7824 21.1838C28.6246 21.1786 28.4677 21.2085 28.3229 21.2715C28.1782 21.3345 28.0493 21.429 27.9456 21.548C27.8419 21.667 27.766 21.8076 27.7234 21.9596C27.6808 22.1116 27.6726 22.2712 27.6994 22.4268L22.3798 22.389C22.3894 22.3364 22.3955 22.2832 22.3979 22.2298C22.3993 21.9403 22.2859 21.6621 22.0826 21.4561C21.8793 21.25 21.6026 21.1329 21.3131 21.1304C21.2597 21.1309 21.2065 21.1361 21.154 21.1459L21.2615 6.37863C21.314 6.38686 21.3668 6.3923 21.4198 6.39496C21.5631 6.39609 21.7053 6.36898 21.8381 6.31515C21.9709 6.26133 22.0918 6.18185 22.1939 6.08128C22.296 5.9807 22.3773 5.86098 22.4331 5.72898C22.4889 5.59697 22.5182 5.45526 22.5192 5.31194C22.5187 5.2583 22.5138 5.20478 22.5045 5.15194L27.8241 5.18979C27.8134 5.2422 27.8074 5.29546 27.806 5.34893Z" fill="white"/>
<path d="M25.8513 13.2489C25.7499 13.3788 25.6633 13.5196 25.5933 13.6687L26.7976 13.6782C26.7918 13.5105 26.7258 13.3505 26.6117 13.2274C26.5575 13.1772 26.4938 13.1382 26.4244 13.1127C26.3551 13.0872 26.2813 13.0756 26.2074 13.0786C26.1388 13.0765 26.0707 13.0909 26.0087 13.1205C25.9467 13.1501 25.8928 13.1942 25.8513 13.2489Z" fill="white"/>
<path d="M23.896 14.3464C23.9615 14.3477 24.0266 14.3341 24.0862 14.3067C24.1458 14.2793 24.1984 14.2388 24.2401 14.1881C24.3428 14.067 24.4296 13.9331 24.4981 13.7898L23.3798 13.7812C23.3743 13.8616 23.3851 13.9423 23.4117 14.0183C23.4383 14.0943 23.4802 14.1641 23.5347 14.2234C23.6363 14.3066 23.7646 14.3503 23.896 14.3464Z" fill="white"/>
<path d="M21.6002 13.688C21.5951 14.3808 21.7956 15.0596 22.1763 15.6385C22.557 16.2174 23.1009 16.6703 23.739 16.9401C24.3772 17.2099 25.0811 17.2843 25.7616 17.154C26.4421 17.0237 27.0686 16.6946 27.562 16.2082C28.0554 15.7217 28.3935 15.0999 28.5335 14.4213C28.6734 13.7428 28.609 13.0379 28.3484 12.396C28.0877 11.754 27.6425 11.2038 27.0692 10.8149C26.4958 10.4259 25.8199 10.2158 25.1271 10.211C24.1985 10.2051 23.3055 10.5679 22.6442 11.2198C21.983 11.8717 21.6075 12.7594 21.6002 13.688ZM27.0996 12.5164C27.3425 12.7505 27.5005 13.059 27.5486 13.3929H28.1843L28.1783 14.1043H27.5838C27.578 14.3343 27.5492 14.5631 27.4978 14.7874C27.464 14.9462 27.409 15.0999 27.3344 15.2441L26.5533 14.9723C26.616 14.8641 26.6651 14.7485 26.6996 14.6282C26.7514 14.4559 26.7846 14.2786 26.7985 14.0992L25.4092 14.088C25.3447 14.2308 25.2733 14.3702 25.1933 14.5086C25.1179 14.6451 25.0228 14.7697 24.9112 14.8785C24.7973 14.9887 24.6636 15.0763 24.5172 15.1366C24.3438 15.2039 24.1586 15.2358 23.9727 15.2304C23.6387 15.2492 23.3109 15.1351 23.0608 14.9129C22.8345 14.6825 22.689 14.3849 22.6462 14.0648L22.0234 14.0605L22.0277 13.3499L22.6239 13.3542C22.6349 13.176 22.6637 12.9994 22.7099 12.8269C22.7474 12.6846 22.7957 12.5455 22.8544 12.4106L23.6062 12.6618C23.5639 12.7577 23.5268 12.8559 23.4952 12.956C23.4542 13.0875 23.4254 13.2226 23.4092 13.3594L24.6944 13.3689C24.7589 13.2269 24.8329 13.085 24.9137 12.9387C24.9909 12.7992 25.087 12.671 25.1993 12.5577C25.3121 12.4453 25.4437 12.3536 25.5881 12.2867C25.7553 12.2127 25.937 12.1771 26.1198 12.1826C26.477 12.1679 26.8267 12.2879 27.0996 12.519V12.5164Z" fill="white"/>
<path d="M17.3552 4.95201L6.37695 9.28906L14.2726 29.275L25.2508 24.9379L17.3552 4.95201Z" fill="url(#paint2_linear_39_1482)"/>
<path d="M14.8343 27.7728L23.8149 24.2261L16.7947 6.46094L7.81836 10.0068L14.8343 27.7728ZM15.1655 8.27687C15.2718 8.54603 15.4807 8.76191 15.7463 8.87709C16.0118 8.99226 16.3122 8.99729 16.5814 8.89106C16.6309 8.87093 16.6785 8.84617 16.7233 8.81708L22.1495 22.553C22.0968 22.5638 22.0451 22.5788 21.9947 22.5977C21.8615 22.6502 21.7399 22.7284 21.637 22.8279C21.5341 22.9274 21.4518 23.0463 21.3948 23.1776C21.3378 23.309 21.3073 23.4503 21.305 23.5934C21.3027 23.7366 21.3287 23.8788 21.3814 24.0119C21.4017 24.0615 21.4261 24.1093 21.4545 24.1547L16.5065 26.11C16.496 26.0575 16.4819 26.0057 16.4644 25.9551C16.3577 25.6861 16.1486 25.4703 15.883 25.3552C15.6174 25.24 15.317 25.2349 15.0476 25.3409C14.9981 25.3616 14.9503 25.3864 14.9048 25.4149L9.47943 11.6799C9.53152 11.6681 9.58294 11.6534 9.63343 11.636C9.90238 11.5296 10.1181 11.3208 10.2333 11.0555C10.3484 10.7902 10.3536 10.4901 10.2476 10.2209C10.2266 10.1714 10.2022 10.1234 10.1745 10.0773L15.1216 8.12201C15.1323 8.17467 15.1469 8.22645 15.1655 8.27687Z" fill="white"/>
<path d="M16.3087 16.334C16.2621 16.4921 16.2333 16.6548 16.2227 16.8192L17.341 16.3779C17.2724 16.2237 17.1501 16.0995 16.9968 16.0287C16.8574 15.9759 16.7028 15.9805 16.5667 16.0416C16.5037 16.0665 16.4475 16.106 16.4027 16.1569C16.3578 16.2077 16.3256 16.2684 16.3087 16.334Z" fill="white"/>
<path d="M14.9054 18.0783C14.9664 18.0545 15.0213 18.0172 15.066 17.9693C15.1107 17.9213 15.144 17.8639 15.1634 17.8013C15.2109 17.6503 15.2398 17.494 15.2494 17.3359L14.2129 17.7454C14.2372 17.8223 14.2772 17.8934 14.3301 17.9542C14.3831 18.015 14.448 18.0643 14.5208 18.099C14.6473 18.1388 14.7839 18.1314 14.9054 18.0783Z" fill="white"/>
<path d="M12.5295 18.3279C12.7839 18.9724 13.2237 19.5269 13.7933 19.9214C14.3629 20.3159 15.0366 20.5326 15.7294 20.5442C16.4221 20.5557 17.1027 20.3615 17.6851 19.9862C18.2675 19.6109 18.7256 19.0713 19.0013 18.4357C19.277 17.8001 19.358 17.0969 19.234 16.4153C19.1101 15.7336 18.7868 15.104 18.305 14.6061C17.8232 14.1081 17.2045 13.7643 16.5273 13.618C15.8501 13.4717 15.1446 13.5296 14.5003 13.7842C14.0725 13.9532 13.6823 14.2047 13.3517 14.5245C13.0212 14.8442 12.7569 15.226 12.5739 15.6479C12.3909 16.0698 12.2927 16.5237 12.2851 16.9835C12.2775 17.4433 12.3606 17.9001 12.5295 18.3279ZM17.1911 15.1847C17.5038 15.3108 17.7654 15.5379 17.9343 15.8298L18.5261 15.5959L18.7842 16.2574L18.231 16.4759C18.3095 16.6921 18.3671 16.9153 18.4031 17.1425C18.4307 17.303 18.4374 17.4664 18.4229 17.6285L17.5971 17.6681C17.6145 17.5438 17.6168 17.4179 17.6039 17.293C17.5876 17.1137 17.5521 16.9367 17.4982 16.7649L16.2078 17.2741C16.2001 17.429 16.1855 17.5855 16.1648 17.7447C16.1445 17.8996 16.1028 18.051 16.0409 18.1946C15.9764 18.3395 15.8857 18.4713 15.7734 18.5834C15.6377 18.7109 15.4777 18.8098 15.3029 18.8741C15.0004 19.0168 14.6536 19.0338 14.3386 18.9214C14.0428 18.7922 13.7969 18.5707 13.6375 18.29L13.0586 18.5197L12.8005 17.8582L13.3545 17.6397C13.299 17.4698 13.2598 17.295 13.2375 17.1176C13.2205 16.9717 13.2133 16.8248 13.216 16.678L14.0083 16.6281C14.0041 16.7334 14.0062 16.8388 14.0143 16.9438C14.0264 17.0807 14.0506 17.2163 14.0865 17.349L15.2822 16.8776C15.29 16.7219 15.3046 16.5627 15.327 16.3993C15.3466 16.2409 15.3874 16.0858 15.4483 15.9382C15.5103 15.7921 15.5976 15.6582 15.7063 15.5425C15.8331 15.4114 15.9877 15.3106 16.1588 15.2475C16.4823 15.0983 16.8501 15.0759 17.1893 15.1847H17.1911Z" fill="white"/>
<path d="M40.5352 24.1328H5.37305V40.2145H40.5352V24.1328Z" fill="#D92400"/>
<path d="M10.3949 19.1797H39.7111C40.4868 19.1797 41.2307 19.4878 41.7792 20.0363C42.3277 20.5848 42.6358 21.3287 42.6358 22.1044V42.4115C42.6358 43.1872 42.3277 43.9311 41.7792 44.4796C41.2307 45.0281 40.4868 45.3362 39.7111 45.3362H10.3949C9.61926 45.3362 8.87534 45.0281 8.32685 44.4796C7.77836 43.9311 7.47021 43.1872 7.47021 42.4115V22.1044C7.47021 21.3287 7.77836 20.5848 8.32685 20.0363C8.87534 19.4878 9.61926 19.1797 10.3949 19.1797Z" fill="url(#paint3_linear_39_1482)"/>
<g style="mix-blend-mode:screen" opacity="0.8">
<path d="M40.0622 19.1797H10.0407C9.35845 19.1797 8.70413 19.4506 8.22164 19.933C7.73915 20.4153 7.468 21.0695 7.46777 21.7517V22.261C7.468 21.5788 7.73915 20.9245 8.22164 20.4422C8.70413 19.9599 9.35845 19.6889 10.0407 19.6889H40.0622C40.7442 19.6891 41.3982 19.9603 41.8803 20.4426C42.3625 20.9249 42.6333 21.579 42.6333 22.261V21.7517C42.6333 21.0697 42.3625 20.4156 41.8803 19.9333C41.3982 19.451 40.7442 19.1799 40.0622 19.1797Z" fill="#FF832B"/>
</g>
<g style="mix-blend-mode:multiply">
<path d="M40.0622 44.5963H10.0407C9.70276 44.5965 9.36813 44.53 9.05592 44.4007C8.74371 44.2715 8.46003 44.082 8.22109 43.843C7.98215 43.6041 7.79264 43.3204 7.66337 43.0082C7.53411 42.696 7.46766 42.3613 7.46777 42.0234V42.7649C7.46766 43.1029 7.53411 43.4375 7.66337 43.7497C7.79264 44.0619 7.98215 44.3456 8.22109 44.5845C8.46003 44.8235 8.74371 45.013 9.05592 45.1422C9.36813 45.2715 9.70276 45.338 10.0407 45.3378H40.0622C40.4 45.3378 40.7344 45.2713 41.0465 45.142C41.3586 45.0127 41.6421 44.8231 41.8809 44.5842C42.1197 44.3452 42.309 44.0616 42.4381 43.7494C42.5673 43.4373 42.6336 43.1027 42.6333 42.7649V42.0234C42.6336 42.3612 42.5673 42.6958 42.4381 43.0079C42.309 43.3201 42.1197 43.6037 41.8809 43.8427C41.6421 44.0816 41.3586 44.2712 41.0465 44.4005C40.7344 44.5298 40.4 44.5963 40.0622 44.5963Z" fill="#EBC68D"/>
</g>
<g style="mix-blend-mode:multiply" opacity="0.7">
<path d="M42.6332 36.6094H7.47021V40.2558H42.6332V36.6094Z" fill="#EBC68D"/>
<path d="M42.6332 25.7812H7.47021V29.4286H42.6332V25.7812Z" fill="#EBC68D"/>
</g>
<path d="M42.6332 36.0391H7.47021V39.6855H42.6332V36.0391Z" fill="url(#paint4_linear_39_1482)"/>
<path d="M42.6332 25.2109H7.47021V28.8582H42.6332V25.2109Z" fill="url(#paint5_linear_39_1482)"/>
<g style="mix-blend-mode:screen">
<path d="M42.6332 36.0391H7.47021V36.6464H42.6332V36.0391Z" fill="#45778A"/>
<path d="M42.6332 25.2109H7.47021V25.8182H42.6332V25.2109Z" fill="#45778A"/>
</g>
<g style="mix-blend-mode:multiply">
<path d="M11.736 29.1016H5.97861C5.77087 29.1065 5.56618 29.1527 5.37646 29.2375V36.6293C5.56618 36.7141 5.77087 36.7603 5.97861 36.7652H11.736C12.8285 36.7652 13.7145 35.6186 13.7145 34.1932V31.6779C13.7145 30.2499 12.8294 29.1016 11.736 29.1016Z" fill="#E4CDC0"/>
</g>
<path d="M13.7144 33.8555C13.7144 35.2817 12.8293 36.4276 11.7359 36.4276H5.9785C4.88688 36.4276 4 35.2817 4 33.8555V31.3403C4 29.9157 4.88774 28.7656 5.9785 28.7656H11.7359C12.8284 28.7656 13.7144 29.9157 13.7144 31.3403V33.8555Z" fill="url(#paint6_linear_39_1482)"/>
<g style="mix-blend-mode:screen" opacity="0.8">
<path d="M11.7359 28.7734H5.9785C4.88688 28.7734 4 29.9236 4 31.3481V31.9279C4 30.5025 4.88774 29.3532 5.9785 29.3532H11.7359C12.8284 29.3532 13.7144 30.5025 13.7144 31.9279V31.3481C13.7144 29.9236 12.8293 28.7734 11.7359 28.7734Z" fill="#FF832B"/>
</g>
<g style="mix-blend-mode:multiply">
<path d="M11.7359 35.8377H5.9785C4.88688 35.8377 4 34.691 4 33.2656V33.86C4 35.2863 4.88774 36.4321 5.9785 36.4321H11.7359C12.8284 36.4321 13.7144 35.2863 13.7144 33.86V33.2656C13.7144 34.691 12.8293 35.8377 11.7359 35.8377Z" fill="#EBC68D"/>
</g>
<g style="mix-blend-mode:multiply">
<path d="M11.9009 31.7731C12.0953 32.1349 12.1781 32.5462 12.1387 32.955C12.0993 33.3639 11.9396 33.7518 11.6797 34.0698C11.4198 34.3879 11.0715 34.6217 10.6787 34.7418C10.2859 34.8618 9.86641 34.8628 9.47313 34.7444C9.07986 34.626 8.73052 34.3936 8.46929 34.0767C8.20807 33.7598 8.04669 33.3726 8.00556 32.9639C7.96443 32.5553 8.0454 32.1436 8.23823 31.781C8.43106 31.4184 8.72709 31.1211 9.08889 30.9267C9.57408 30.6663 10.1428 30.6091 10.6701 30.7679C11.1974 30.9266 11.6401 31.2882 11.9009 31.7731Z" fill="#EBC68D"/>
</g>
<path d="M11.7219 31.4443C11.9164 31.8061 11.9993 32.2174 11.96 32.6262C11.9208 33.0351 11.7612 33.4231 11.5014 33.7412C11.2416 34.0593 10.8934 34.2933 10.5006 34.4135C10.1079 34.5337 9.68832 34.5347 9.29499 34.4164C8.90167 34.2982 8.55227 34.0659 8.29095 33.749C8.02963 33.4322 7.86812 33.0449 7.82689 32.6363C7.78567 32.2276 7.86657 31.8159 8.05933 31.4532C8.25209 31.0906 8.54806 30.7932 8.90983 30.5988C9.39492 30.3383 9.96358 30.281 10.4909 30.4396C11.0181 30.5981 11.4609 30.9595 11.7219 31.4443Z" fill="#0E3655"/>
<g style="mix-blend-mode:screen">
<path d="M11.6679 31.3676C11.3935 30.9128 10.9548 30.581 10.4425 30.4407C9.93017 30.3004 9.38353 30.3625 8.91572 30.614C8.4479 30.8655 8.0947 31.2873 7.9292 31.792C7.76371 32.2967 7.79858 32.8457 8.02662 33.3254C8.04555 33.3504 8.06276 33.3762 8.07997 33.4029C7.87371 32.928 7.85339 32.393 8.02305 31.9038C8.19272 31.4147 8.53997 31.0072 8.99597 30.762C9.45197 30.5169 9.98343 30.452 10.485 30.5802C10.9866 30.7085 11.4217 31.0205 11.704 31.4545C11.6886 31.4252 11.6782 31.3968 11.6679 31.3676Z" fill="#45778A"/>
</g>
<g style="mix-blend-mode:multiply">
<path d="M10.7776 34.063C10.3094 34.3137 9.76276 34.3751 9.25057 34.2345C8.73837 34.094 8.29965 33.7622 8.0249 33.3077C8.04039 33.3395 8.04813 33.3739 8.0662 33.4058C8.32719 33.8908 8.77017 34.2523 9.29769 34.4107C9.82521 34.5691 10.3941 34.5115 10.8791 34.2505C11.3641 33.9895 11.7256 33.5465 11.884 33.019C12.0424 32.4915 11.9848 31.9226 11.7238 31.4376C11.7075 31.4058 11.6825 31.3808 11.6645 31.3516C11.8918 31.8311 11.9266 32.3796 11.7616 32.8841C11.5966 33.3885 11.2444 33.8104 10.7776 34.063Z" fill="#9FCBD6"/>
</g>
<path style="mix-blend-mode:multiply" d="M17.3555 4.95312L31.0828 19.1776H22.9753L17.3555 4.95312Z" fill="url(#paint7_linear_39_1482)"/>
<path style="mix-blend-mode:multiply" d="M31.0795 3.08594L44 14.0623L40.7664 19.1814H30.96L31.0795 3.08594Z" fill="url(#paint8_linear_39_1482)"/>
<defs>
<linearGradient id="paint0_linear_39_1482" x1="29.5034" y1="6.27095" x2="41.4264" y2="21.3659" gradientUnits="userSpaceOnUse">
<stop stop-color="#65CFE5"/>
<stop offset="0.01" stop-color="#63CDE4"/>
<stop offset="0.24" stop-color="#49B9D2"/>
<stop offset="0.478" stop-color="#37AAC5"/>
<stop offset="0.726" stop-color="#2CA1BD"/>
<stop offset="1" stop-color="#299FBB"/>
</linearGradient>
<linearGradient id="paint1_linear_39_1482" x1="23.7761" y1="24.1165" x2="23.4487" y2="3.8566" gradientUnits="userSpaceOnUse">
<stop stop-color="#299FBB"/>
<stop offset="0.274" stop-color="#2CA1BD"/>
<stop offset="0.522" stop-color="#37AAC5"/>
<stop offset="0.76" stop-color="#49B9D2"/>
<stop offset="0.99" stop-color="#63CDE4"/>
<stop offset="1" stop-color="#65CFE5"/>
</linearGradient>
<linearGradient id="paint2_linear_39_1482" x1="8.24649" y1="9.26674" x2="26.2475" y2="13.9829" gradientUnits="userSpaceOnUse">
<stop stop-color="#65CFE5"/>
<stop offset="0.01" stop-color="#63CDE4"/>
<stop offset="0.24" stop-color="#49B9D2"/>
<stop offset="0.478" stop-color="#37AAC5"/>
<stop offset="0.726" stop-color="#2CA1BD"/>
<stop offset="1" stop-color="#299FBB"/>
</linearGradient>
<linearGradient id="paint3_linear_39_1482" x1="7.47021" y1="32.258" x2="42.6358" y2="32.258" gradientUnits="userSpaceOnUse">
<stop stop-color="#F34D4D"/>
<stop offset="1" stop-color="#A92317"/>
</linearGradient>
<linearGradient id="paint4_linear_39_1482" x1="15.3467" y1="28.1591" x2="15.5577" y2="47.772" gradientUnits="userSpaceOnUse">
<stop stop-color="#65CFE5"/>
<stop offset="0.01" stop-color="#63CDE4"/>
<stop offset="0.24" stop-color="#49B9D2"/>
<stop offset="0.478" stop-color="#37AAC5"/>
<stop offset="0.726" stop-color="#2CA1BD"/>
<stop offset="1" stop-color="#299FBB"/>
</linearGradient>
<linearGradient id="paint5_linear_39_1482" x1="15.3467" y1="17.3327" x2="15.5578" y2="36.9431" gradientUnits="userSpaceOnUse">
<stop stop-color="#65CFE5"/>
<stop offset="0.01" stop-color="#63CDE4"/>
<stop offset="0.24" stop-color="#49B9D2"/>
<stop offset="0.478" stop-color="#37AAC5"/>
<stop offset="0.726" stop-color="#2CA1BD"/>
<stop offset="1" stop-color="#299FBB"/>
</linearGradient>
<linearGradient id="paint6_linear_39_1482" x1="4" y1="32.5966" x2="13.7144" y2="32.5966" gradientUnits="userSpaceOnUse">
<stop offset="0.217" stop-color="#FD6120"/>
<stop offset="0.432" stop-color="#EF521C"/>
<stop offset="0.741" stop-color="#E14419"/>
<stop offset="1" stop-color="#DD3F18"/>
</linearGradient>
<linearGradient id="paint7_linear_39_1482" x1="15.2003" y1="7.10102" x2="29.6537" y2="20.5697" gradientUnits="userSpaceOnUse">
<stop stop-color="#A5DEF0"/>
<stop offset="0.059" stop-color="#ADE1F1"/>
<stop offset="0.33" stop-color="#D0EEF7"/>
<stop offset="0.585" stop-color="#EAF7FB"/>
<stop offset="0.815" stop-color="#F9FDFE"/>
<stop offset="1" stop-color="white"/>
</linearGradient>
<linearGradient id="paint8_linear_39_1482" x1="27.5044" y1="6.65913" x2="42.433" y2="16.4547" gradientUnits="userSpaceOnUse">
<stop stop-color="#A5DEF0"/>
<stop offset="0.132" stop-color="#B9E5F3"/>
<stop offset="0.36" stop-color="#D7F0F8"/>
<stop offset="0.584" stop-color="#EDF8FC"/>
<stop offset="0.8" stop-color="#FAFDFE"/>
<stop offset="1" stop-color="white"/>
</linearGradient>
</defs>
</svg>
