<svg id="Lock" xmlns="http://www.w3.org/2000/svg" width="16.172" height="19.025" viewBox="0 0 16.172 19.025">
  <path id="Fill_1" data-name="Fill 1" d="M12.111,12.639H4.061A4.021,4.021,0,0,1,0,8.668v-4.7A4.022,4.022,0,0,1,4.061,0h8.05a4.022,4.022,0,0,1,4.061,3.972v4.7A4.021,4.021,0,0,1,12.111,12.639Zm-4.03-8.2a.833.833,0,0,0-.841.823v2.1a.846.846,0,0,0,1.691,0v-2.1A.838.838,0,0,0,8.081,4.443Z" transform="translate(0 6.387)" fill="#ccc"/>
  <path id="Fill_4" data-name="Fill 4" d="M10.507,5.133v1.4A3.95,3.95,0,0,0,9.444,6.39H8.816V5.133A3.522,3.522,0,0,0,5.258,1.654a3.527,3.527,0,0,0-3.567,3.46V6.39H1.073A3.631,3.631,0,0,0,0,6.542V5.133A5.2,5.2,0,0,1,5.239,0a5.2,5.2,0,0,1,5.268,5.133" transform="translate(2.832 0)" fill="#ccc" opacity="0.4"/>
</svg>
