<svg xmlns="http://www.w3.org/2000/svg" width="157.43" height="126" viewBox="0 0 157.43 126">
  <g id="Group_11352" data-name="Group 11352" transform="translate(-214 -171)">
    <g id="Group_9147" data-name="Group 9147" transform="translate(162 84.461)">
      <g id="Group_9124" data-name="Group 9124" transform="translate(52 121.128)">
        <path id="Path_22753" data-name="Path 22753" d="M209.43,215.141,141.1,254.592,52,203.149,120.33,163.7Z" transform="translate(-52 -163.181)" opacity="0.3"/>
        <path id="Path_22754" data-name="Path 22754" d="M209.43,214,141.1,253.449,52,202.008l68.33-39.45Z" transform="translate(-52 -162.559)" fill="#f2f2f2"/>
        <path id="Path_22755" data-name="Path 22755" d="M169.182,199.516l-53.167,30.694-2.4-1.389,53.165-30.694Z" transform="translate(-85.579 -181.943)" fill="#b5afa7"/>
        <path id="Path_22757" data-name="Path 22757" d="M180.923,206.3l-53.167,30.7-2.406-1.389,53.169-30.7Z" transform="translate(-91.976 -185.64)" fill="#b5afa7"/>
        <path id="Path_22758" data-name="Path 22758" d="M192.669,213.078,139.5,243.773l-2.4-1.386,53.166-30.694Z" transform="translate(-98.379 -189.336)" fill="#b5afa7"/>
        <path id="Path_22759" data-name="Path 22759" d="M204.416,219.857l-53.168,30.7-2.4-1.388,53.167-30.7Z" transform="translate(-104.78 -193.029)" fill="#b5afa7"/>
        <path id="Path_22760" data-name="Path 22760" d="M297.519,251.322,276.59,263.4l-.777-.446,20.931-12.079Z" transform="translate(-173.978 -210.693)" fill="#b5afa7"/>
        <path id="Path_22761" data-name="Path 22761" d="M313.838,260.738l-20.929,12.086-.777-.446,20.931-12.086Z" transform="translate(-182.871 -215.823)" fill="#b5afa7"/>
        <path id="Path_22762" data-name="Path 22762" d="M281.2,241.9l-20.929,12.085-.776-.446,20.931-12.085Z" transform="translate(-165.085 -205.558)" fill="#b5afa7"/>
        <path id="Path_22763" data-name="Path 22763" d="M194.223,254.481,163,272.509l-2.4-1.386,31.225-18.029Z" transform="translate(-111.184 -211.9)" fill="#b5afa7"/>
      </g>
      <g id="Group_9129" data-name="Group 9129" transform="translate(102.341 129.458)">
        <path id="Path_22764" data-name="Path 22764" d="M207.677,199.352l-5.227-3.017-7.138-1.106-7.137,1.106-4.492,2.594-6.771-1.045-7.135,1.1L164.549,202l-1.91,4.123,1.91,4.121,5.225,3.017,7.139,1.106,7.138-1.106,4.494-2.594,6.767,1.047,7.139-1.106,5.227-3.017,1.912-4.118Zm-24.393,13.143-6.372.982-6.368-.982-4.664-2.7-1.706-3.675,1.706-3.68,4.664-2.69,6.368-.986,5.886.91-1.762,3.8,1.91,4.118,4.411,2.549Zm4.859-3.115-3.865-2.23-1.706-3.675,1.513-3.26,3.863,2.229,1.706,3.68Zm18.2-2.23-4.664,2.693-6.37.986-5.882-.914,1.761-3.792L189.279,202l-4.412-2.549,4.075-2.35,6.37-.984,6.37.984,4.664,2.693,1.706,3.68Z" transform="translate(-162.639 -188.694)" opacity="0.3"/>
        <g id="Group_9126" data-name="Group 9126" transform="translate(0 5.286)">
          <g id="Group_9125" data-name="Group 9125" transform="translate(0 0.445)">
            <path id="Path_22765" data-name="Path 22765" d="M164.5,204.2l1.383-2.985,4.665-2.693,6.368-.984,6.372.984,4.664,2.693,1.307,2.816,1.936-2.772-2.721-3.856-4.677-2.8-6.881-1.143-6.849,1.043-4.746,2.928-2.679,3.824Z" transform="translate(-162.639 -193.463)" fill="#e09d38"/>
          </g>
          <path id="Path_22766" data-name="Path 22766" d="M162.639,210.594v3.635l1.91,4.117,5.225,3.017,7.139,1.106,7.138-1.1,5.228-3.02,1.912-4.117v-3.635l-1.936,2.772-.718,1.244-4.963,2.76-6.661,1.01-6.613-1.01-4.9-2.625-.9-1.211Z" transform="translate(-162.639 -202.354)" fill="#ffc654"/>
          <path id="Path_22767" data-name="Path 22767" d="M176.913,192.484l-7.135,1.1-5.228,3.019-1.91,4.119,1.91,4.12,5.225,3.018,7.139,1.106,7.138-1.106,5.228-3.018,1.912-4.12-1.912-4.119-5.228-3.019Zm11.036,4.565,1.706,3.675-1.706,3.676-4.664,2.694-6.372.985-6.368-.985L165.88,204.4l-1.706-3.676,1.706-3.675,4.664-2.694,6.368-.986,6.372.986Z" transform="translate(-162.639 -192.484)" fill="#ffec7a"/>
        </g>
        <g id="Group_9128" data-name="Group 9128" transform="translate(18.944 0)">
          <g id="Group_9127" data-name="Group 9127" transform="translate(1.292 0.466)">
            <path id="Path_22768" data-name="Path 22768" d="M207.8,188.966l2.356-2.3,5.318-.853,6.3,1.344,5.6,3.188,3.4,4.175.222,3.1,2.8-1.9-1.17-4.573-3.376-4.281-6.021-3.515-6.774-1.462-5.474,1.043-3.869,2.624Z" transform="translate(-207.114 -181.89)" fill="#e09d38"/>
          </g>
          <path id="Path_22769" data-name="Path 22769" d="M205.566,189.949l-1.292,3.392.319,4.531,3.807,4.682,6.28,3.576,7.063,1.509,5.957-.959,3.252-3.174,1.3-3.392-2.8,1.9-1.114.907-5.618.81-6.586-1.425-5.824-3.3-3.639-4.2-.417-1.453Z" transform="translate(-204.274 -185.816)" fill="#ffc654"/>
          <path id="Path_22770" data-name="Path 22770" d="M223.39,182.375l-7.064-1.509-5.956.961L207.114,185l.321,4.53,3.808,4.678,6.278,3.576,7.065,1.507,5.959-.959,3.253-3.167-.32-4.535-3.81-4.676Zm8.685,8.2.287,4.044-2.9,2.83-5.319.854-6.3-1.347-5.6-3.185-3.4-4.181-.286-4.045,2.905-2.826,5.319-.858,6.3,1.349,5.6,3.187Z" transform="translate(-205.822 -180.866)" fill="#ffec7a"/>
        </g>
      </g>
      <g id="Group_9130" data-name="Group 9130" transform="translate(97.175 95.044)">
        <path id="Path_22771" data-name="Path 22771" d="M161.925,166.859l-.078,3.861-6.23-3.606-4.331-5.617,8,3.294Z" transform="translate(-151.286 -135.897)" fill="#701c1d"/>
        <path id="Path_22772" data-name="Path 22772" d="M158.933,158l-1.42-.473-6.227-3.6v-6.316l8,3.287Z" transform="translate(-151.286 -128.332)" fill="#ab281f"/>
        <path id="Path_22773" data-name="Path 22773" d="M161.364,141.11l-3.85,1.715-6.227-3.6,4.406-7.008,8.044,3.405Z" transform="translate(-151.286 -119.937)" fill="#c84030"/>
        <path id="Path_22774" data-name="Path 22774" d="M217.263,110.926l-3.8-1.009-5.753-4.685,4.409,1.921,6.228,3.6Z" transform="translate(-182.035 -105.232)" fill="#ab281f"/>
        <path id="Path_22775" data-name="Path 22775" d="M203.088,112.274l-2.932,1.037-6.125-4.487,6.222-3.591,6.23,3.6Z" transform="translate(-174.582 -105.232)" fill="#fa5c52"/>
        <path id="Path_22776" data-name="Path 22776" d="M194.072,120.75l-3.318,3.746-6.422-4.359,4.413-7.013,6.225,3.6Z" transform="translate(-169.296 -109.533)" fill="#c84030"/>
        <path id="Path_22777" data-name="Path 22777" d="M184.22,130l-3.809-1.006-5.744-4.69,4.4,1.928,6.236,3.6Z" transform="translate(-164.029 -115.624)" fill="#ab281f"/>
        <path id="Path_22778" data-name="Path 22778" d="M169.372,131.306l-2.169.189-6.232-3.594,6.232-3.6,6.229,3.606Z" transform="translate(-156.564 -115.624)" fill="#fa5c52"/>
        <path id="Path_22779" data-name="Path 22779" d="M190.646,113.139l-6.227,3.589-4.4,7.013-4.4-1.918-6.229,3.589-4.411,7.016v6.311l4.334,5.625,10.711,2.217,10.71-14.593,4.325-10.609v-6.321Z" transform="translate(-158.745 -109.541)" fill="#8a1c14"/>
      </g>
      <g id="Group_9138" data-name="Group 9138" transform="translate(121.809 155.298)">
        <path id="Path_22780" data-name="Path 22780" d="M229.669,311.478v-5.794l-7.106-4.109h-10.04l-7.1,4.109v5.794l7.1,4.1h10.04Z" transform="translate(-205.426 -272.492)" opacity="0.3"/>
        <g id="Group_9131" data-name="Group 9131" transform="translate(0.48 20.212)">
          <path id="Path_22781" data-name="Path 22781" d="M229.763,291.586v-5.561l-6.824-3.946H213.3l-6.816,3.946v5.561l6.816,3.942h9.642Z" transform="translate(-206.481 -282.08)" fill="#e6e1dd"/>
          <rect id="Rectangle_4178" data-name="Rectangle 4178" width="9.642" height="8.945" transform="translate(6.816 13.449)" fill="#b5afa7"/>
          <path id="Path_22782" data-name="Path 22782" d="M213.3,315.86l-6.816-3.934v-8.953l6.816,3.942Z" transform="translate(-206.481 -293.467)" fill="#d8d1c7"/>
          <path id="Path_22783" data-name="Path 22783" d="M242.653,315.86l6.824-3.934v-8.953l-6.824,3.942Z" transform="translate(-226.195 -293.467)" fill="#a39c95"/>
        </g>
        <g id="Group_9132" data-name="Group 9132" transform="translate(0 18.54)">
          <path id="Path_22784" data-name="Path 22784" d="M212.523,313.344l-7.1-4.094v-9.081l7.7,3.621Z" transform="translate(-205.426 -290.267)" fill="#944e39"/>
          <path id="Path_22785" data-name="Path 22785" d="M241.181,313.344l7.106-4.094v-9.081l-8.7,2.939Z" transform="translate(-224.044 -290.267)" fill="#693121"/>
          <rect id="Rectangle_4179" data-name="Rectangle 4179" width="10.04" height="10.192" transform="translate(7.098 12.885)" fill="#853e2a"/>
          <path id="Path_22786" data-name="Path 22786" d="M229.669,288.308v-5.792l-7.106-4.109h-10.04l-7.1,4.109v5.792l7.1,4.1h10.04Z" transform="translate(-205.426 -278.406)" fill="#d18067"/>
        </g>
        <g id="Group_9136" data-name="Group 9136" transform="translate(8.207 19.775)">
          <g id="Group_9133" data-name="Group 9133" transform="translate(0 2.62)">
            <path id="Path_22787" data-name="Path 22787" d="M231.29,290.073V288.2L229,286.877h-3.24l-2.293,1.327v1.869l2.293,1.325H229Z" transform="translate(-223.462 -286.877)" fill="#e6e1dd"/>
            <rect id="Rectangle_4180" data-name="Rectangle 4180" width="3.24" height="1.013" transform="translate(2.293 4.521)" fill="#b5afa7"/>
            <path id="Path_22788" data-name="Path 22788" d="M225.756,296.24l-2.293-1.322V293.9l2.293,1.325Z" transform="translate(-223.462 -290.705)" fill="#d8d1c7"/>
            <path id="Path_22789" data-name="Path 22789" d="M235.623,296.24l2.294-1.322V293.9l-2.294,1.325Z" transform="translate(-230.09 -290.705)" fill="#a39c95"/>
          </g>
          <g id="Group_9134" data-name="Group 9134" transform="translate(0.955 1.67)">
            <path id="Path_22790" data-name="Path 22790" d="M227.294,292.408l-1.734-1v-1.3l2.582.314Z" transform="translate(-225.56 -287.686)" fill="#944e39"/>
            <path id="Path_22791" data-name="Path 22791" d="M234.084,292.408l1.736-1v-1.3l-2.3.243Z" transform="translate(-229.9 -287.686)" fill="#693121"/>
            <path id="Path_22792" data-name="Path 22792" d="M231.48,287.207v-1.415l-1.736-1h-2.45l-1.734,1v1.415l1.734,1h2.45Z" transform="translate(-225.56 -284.788)" fill="#836e69"/>
            <rect id="Rectangle_4181" data-name="Rectangle 4181" width="2.45" height="1.3" transform="translate(1.734 3.422)" fill="#853e2a"/>
          </g>
          <g id="Group_9135" data-name="Group 9135">
            <path id="Path_22793" data-name="Path 22793" d="M231.29,284.316v-1.869L229,281.119h-3.24l-2.293,1.329v1.869l2.293,1.325H229Z" transform="translate(-223.462 -281.119)" fill="#e6e1dd"/>
            <rect id="Rectangle_4182" data-name="Rectangle 4182" width="3.24" height="1.013" transform="translate(2.293 4.523)" fill="#b5afa7"/>
            <path id="Path_22794" data-name="Path 22794" d="M225.756,290.484l-2.293-1.32v-1.018l2.293,1.325Z" transform="translate(-223.462 -284.949)" fill="#d8d1c7"/>
            <path id="Path_22795" data-name="Path 22795" d="M235.623,290.484l2.294-1.32v-1.018l-2.294,1.325Z" transform="translate(-230.09 -284.949)" fill="#a39c95"/>
          </g>
        </g>
        <g id="Group_9137" data-name="Group 9137" transform="translate(5.476)">
          <path id="Path_22796" data-name="Path 22796" d="M229.714,246.94,230,241.9l-3.193-4.239H221.33l-3.87,3.87V247l2.407,2.414.613,5.279-.949,3.079v2.168l2.656,1.535,3.734-.186,2.427-1.58-.4-1.58L227.1,254.9l.685-6.01Z" transform="translate(-217.46 -237.658)" fill="#944e39"/>
          <path id="Path_22797" data-name="Path 22797" d="M236.337,247v-5.468l-3.872-3.87,1.823,3.837-.047,4.945-2.564,3.348-3.531.989,3.4.1-.26,3.815,1.08,3.91.006,1.5-.805.65-3.712.717h3.758l2.656-1.535v-2.168l-.948-3.079.61-5.279Z" transform="translate(-223.123 -237.658)" fill="#693121"/>
          <path id="Path_22798" data-name="Path 22798" d="M223.739,240.831l-1.489.4-1.34,1.336-.4,1.492.772.772,1.493-.4,1.338-1.339.4-1.487Z" transform="translate(-219.123 -239.387)" fill="#d18067"/>
        </g>
      </g>
      <g id="Group_9146" data-name="Group 9146" transform="translate(153.956 86.539)">
        <g id="Group_9141" data-name="Group 9141" transform="translate(0 54.782)">
          <g id="Group_9139" data-name="Group 9139" transform="translate(0 23.141)">
            <path id="Path_22799" data-name="Path 22799" d="M277.423,258.222l-.537-.424-.808,3.23Z" transform="translate(-276.078 -257.798)" fill="#836e69"/>
            <path id="Path_22800" data-name="Path 22800" d="M278.248,259.11l-.657-.209-1.514,2.728Z" transform="translate(-276.078 -258.399)" fill="#403531"/>
            <path id="Path_22801" data-name="Path 22801" d="M277.733,259.057l-.014-.258-.556-.039-1.085,2.792Z" transform="translate(-276.078 -258.322)" fill="#685750"/>
          </g>
          <g id="Group_9140" data-name="Group 9140" transform="translate(0.432 14.277)">
            <path id="Path_22802" data-name="Path 22802" d="M277.5,247.521l-.471-.745,2.139-8.458,1.026.736.474,1.817Z" transform="translate(-277.028 -238.318)" fill="#d8d1c7"/>
            <path id="Path_22803" data-name="Path 22803" d="M279.015,249.185l-.951-.5,2.869-7.278,2.223-.957.234,2.257-.612,1.637Z" transform="translate(-277.592 -239.477)" fill="#b5afa7"/>
            <path id="Path_22804" data-name="Path 22804" d="M281.036,251.255l-.882.041,4.374-6.483,1.288-.495.994.393Z" transform="translate(-278.732 -241.588)" fill="#a39c95"/>
          </g>
          <path id="Path_22805" data-name="Path 22805" d="M282.93,223.142l-1.2-1.925,7.466-14.208,2.283-.069-5.74,12.679Z" transform="translate(-279.158 -206.939)" fill="#d8d1c7"/>
          <path id="Path_22806" data-name="Path 22806" d="M286.826,224.442l-2.456-1.3,8.548-16.2,2.459,1.286-5.516,12.034Z" transform="translate(-280.597 -206.939)" fill="#b5afa7"/>
          <path id="Path_22807" data-name="Path 22807" d="M292.046,225.878l-2.278.1,8.551-16.216,1.213,1.914Z" transform="translate(-283.539 -208.48)" fill="#a39c95"/>
        </g>
        <g id="Group_9145" data-name="Group 9145" transform="translate(10.038)">
          <g id="Group_9143" data-name="Group 9143" transform="translate(0 8.168)">
            <path id="Path_22808" data-name="Path 22808" d="M356.41,107.436l-1.535-.8-.758-1.2.464-.891,1.42-.059,1.536.809.754,1.2-.467.89Z" transform="translate(-328.647 -104.49)" fill="#d1d1d1"/>
            <path id="Path_22809" data-name="Path 22809" d="M324.367,107.774l-.758-1.2-7.972,14.313-.149.858-.5.317-16.845,30.245,1.215,1.921,10.3-18.085,14.736-28.216Z" transform="translate(-298.139 -105.628)" fill="#836e69"/>
            <path id="Path_22810" data-name="Path 22810" d="M327.357,110.006l-1.535-.8-25.013,46.459,2.472,1.3,10.289-18.091,13.86-28.709Z" transform="translate(-299.594 -107.06)" fill="#685750"/>
            <path id="Path_22811" data-name="Path 22811" d="M331.731,110.853l-1.414.051L306.24,157.863l2.269-.09,15.354-31.025-.31-.444.912-.765Z" transform="translate(-302.554 -107.958)" fill="#544540"/>
            <g id="Group_9142" data-name="Group 9142" transform="translate(16.842 15.264)">
              <path id="Path_22812" data-name="Path 22812" d="M335.81,138.036l.906,1.415.041.653-.693.554-.91-1.447Z" transform="translate(-335.154 -138.036)" fill="#fbe979"/>
              <path id="Path_22813" data-name="Path 22813" d="M339.635,142.106l-1.829-.961-.652,1.207,1.854.974.679-1.057Z" transform="translate(-336.244 -139.731)" fill="#e3bd5e"/>
              <path id="Path_22814" data-name="Path 22814" d="M343.534,143.13l-1.678.057-.627,1.221,1.7-.069Z" transform="translate(-338.465 -140.813)" fill="#cc934c"/>
            </g>
          </g>
          <g id="Group_9144" data-name="Group 9144" transform="translate(25.47)">
            <path id="Path_22815" data-name="Path 22815" d="M354.116,95.687l.464-.891,5.759-8.2.606.314-5.012,9.164Z" transform="translate(-354.116 -86.569)" fill="#d1d1d1"/>
            <path id="Path_22816" data-name="Path 22816" d="M360.651,98.157l.467-.893,3.488-9.393-.6-.319-4.7,9.326Z" transform="translate(-356.943 -87.091)" fill="gray"/>
            <path id="Path_22817" data-name="Path 22817" d="M360.767,87.665l-.6-.314L354.116,96.1l.754,1.2,1.6-1.747Z" transform="translate(-354.116 -86.982)" fill="#e6e1dd"/>
            <path id="Path_22818" data-name="Path 22818" d="M362.121,87.8l-.76.258-5.587,9.48,1.54.8,3.916-7.146Z" transform="translate(-355.019 -87.228)" fill="#d1d1d1"/>
            <path id="Path_22819" data-name="Path 22819" d="M364.351,88.348l-.386-.544-.169.564-4.639,9.974,1.42-.047Z" transform="translate(-356.864 -87.228)" fill="#adadad"/>
            <path id="Path_22820" data-name="Path 22820" d="M368.292,87.678l-.592-.306-.295-.464.177-.344.55-.025.6.309.292.471-.175.339Z" transform="translate(-361.359 -86.539)" fill="#f4efe9"/>
          </g>
        </g>
      </g>
    </g>
  </g>
</svg>
