<svg xmlns="http://www.w3.org/2000/svg" width="139.494" height="142.918" viewBox="0 0 139.494 142.918">
  <g id="Group_11353" data-name="Group 11353" transform="translate(-218.547 -351.551)">
    <g id="Transfer_files-amico" data-name="Transfer files-amico" transform="matrix(0.996, -0.087, 0.087, 0.996, 213.336, 349.058)">
      <g id="freepik--Cabinets--inject-12" transform="translate(0 59.795)">
        <g id="freepik--Cabinet--inject-12" transform="translate(101.838 25.249) rotate(7)">
          <path id="Path_22661" data-name="Path 22661" d="M14.769,40.189,0,31.667V0L14.769,8.522Z" transform="translate(0 12.183)" fill="#263238"/>
          <path id="Path_22662" data-name="Path 22662" d="M0,12.176,21.1,0V31.667L0,43.843Z" transform="translate(14.769 8.529)" fill="#37474f"/>
          <path id="Path_22663" data-name="Path 22663" d="M35.865,8.529,14.769,20.7,0,12.183,21.1,0Z" transform="translate(0)" fill="#455a64"/>
          <path id="Path_22664" data-name="Path 22664" d="M0,9.742,16.878,0V11.725l.391.225L.391,21.693,0,21.467Z" transform="translate(16.487 27.025)" fill="#263238"/>
          <path id="Path_22665" data-name="Path 22665" d="M0,9.749,16.878,0V11.732L0,21.474Z" transform="translate(16.878 27.244)" fill="#455a64"/>
          <path id="Path_22666" data-name="Path 22666" d="M.683,1.741,3.535.116C3.906-.1,4.2,0,4.2.335a1.326,1.326,0,0,1-.663.995L.663,2.988C.292,3.207,0,3.107,0,2.769A1.326,1.326,0,0,1,.683,1.741Z" transform="translate(22.827 33.414)" fill="#263238"/>
          <path id="Path_22667" data-name="Path 22667" d="M0,9.742,16.878,0V11.725l.391.225L.391,21.693,0,21.467Z" transform="translate(16.487 12.866)" fill="#263238"/>
          <path id="Path_22668" data-name="Path 22668" d="M0,9.742,16.878,0V11.725L0,21.467Z" transform="translate(16.878 13.091)" fill="#455a64"/>
          <path id="Path_22669" data-name="Path 22669" d="M.663,1.774,3.535.116C3.906-.1,4.2,0,4.2.335a1.327,1.327,0,0,1-.663.995L.663,2.988C.292,3.207,0,3.107,0,2.769a1.326,1.326,0,0,1,.663-.995Z" transform="translate(22.847 19.229)" fill="#263238"/>
        </g>
        <g id="freepik--cabinet--inject-12-2" data-name="freepik--cabinet--inject-12">
          <path id="Path_22670" data-name="Path 22670" d="M413.55,304.56l10.933-6.309V274.81l-10.933,6.309Z" transform="translate(-397.934 -265.792)" fill="#f34d4d"/>
          <g id="Group_9114" data-name="Group 9114" transform="translate(15.617 9.018)" opacity="0.2">
            <path id="Path_22671" data-name="Path 22671" d="M413.55,304.56l10.933-6.309V274.81l-10.933,6.309Z" transform="translate(-413.55 -274.81)"/>
          </g>
          <path id="Path_22672" data-name="Path 22672" d="M451.436,278.313,435.82,269.3v23.442l15.616,9.014Z" transform="translate(-435.82 -262.987)" fill="#f34d4d"/>
          <path id="Path_22673" data-name="Path 22673" d="M413.55,262.753l15.616,9.014,10.933-6.308-15.617-9.018Z" transform="translate(-413.55 -256.44)" fill="#f34d4d"/>
          <g id="Group_9115" data-name="Group 9115" opacity="0.4">
            <path id="Path_22674" data-name="Path 22674" d="M413.55,262.753l15.616,9.014,10.933-6.308-15.617-9.018Z" transform="translate(-413.55 -256.44)" fill="#fff"/>
          </g>
          <path id="Path_22675" data-name="Path 22675" d="M451.184,304.4l-12.489-7.212v8.68l-.285.167,12.489,7.212.29-.167Z" transform="translate(-436.844 -277.185)" fill="#f34d4d"/>
          <g id="Group_9116" data-name="Group 9116" transform="translate(1.566 20.005)" opacity="0.1">
            <path id="Path_22676" data-name="Path 22676" d="M451.184,304.4l-12.489-7.212v8.68l-.285.167,12.489,7.212.29-.167Z" transform="translate(-438.41 -297.19)"/>
          </g>
          <path id="Path_22677" data-name="Path 22677" d="M451.494,304.737,439,297.52l0,8.685,12.489,7.212Z" transform="translate(-437.439 -277.353)" fill="#f34d4d"/>
          <g id="Group_9117" data-name="Group 9117" transform="translate(1.561 20.167)" opacity="0.4">
            <path id="Path_22678" data-name="Path 22678" d="M451.494,304.737,439,297.52l0,8.685,12.489,7.212Z" transform="translate(-439 -297.52)" fill="#fff"/>
          </g>
          <path id="Path_22679" data-name="Path 22679" d="M450.572,308.113l-2.111-1.2c-.275-.162-.491-.088-.491.162a.982.982,0,0,0,.491.736l2.126,1.227c.275.162.491.088.491-.162A.982.982,0,0,0,450.572,308.113Z" transform="translate(-441.426 -282.089)" fill="#f34d4d"/>
          <g id="Group_9118" data-name="Group 9118" transform="translate(6.544 24.735)" opacity="0.1">
            <path id="Path_22680" data-name="Path 22680" d="M450.572,308.113l-2.111-1.2c-.275-.162-.491-.088-.491.162a.982.982,0,0,0,.491.736l2.126,1.227c.275.162.491.088.491-.162A.982.982,0,0,0,450.572,308.113Z" transform="translate(-447.97 -306.825)"/>
          </g>
          <path id="Path_22681" data-name="Path 22681" d="M451.184,283.052l-12.489-7.212v8.68l-.285.167L450.9,291.9l.29-.167Z" transform="translate(-436.844 -266.316)" fill="#f34d4d"/>
          <g id="Group_9119" data-name="Group 9119" transform="translate(1.566 9.524)" opacity="0.1">
            <path id="Path_22682" data-name="Path 22682" d="M451.184,283.052l-12.489-7.212v8.68l-.285.167L450.9,291.9l.29-.167Z" transform="translate(-438.41 -275.84)"/>
          </g>
          <path id="Path_22683" data-name="Path 22683" d="M451.494,283.392,439,276.18l0,8.68,12.489,7.212Z" transform="translate(-437.439 -266.489)" fill="#f34d4d"/>
          <g id="Group_9120" data-name="Group 9120" transform="translate(1.561 9.691)" opacity="0.4">
            <path id="Path_22684" data-name="Path 22684" d="M451.494,283.392,439,276.18l0,8.68,12.489,7.212Z" transform="translate(-439 -276.18)" fill="#fff"/>
          </g>
          <path id="Path_22685" data-name="Path 22685" d="M450.617,286.748l-2.126-1.227c-.275-.162-.491-.088-.491.162a.982.982,0,0,0,.491.736l2.126,1.227c.275.162.491.088.491-.162A.982.982,0,0,0,450.617,286.748Z" transform="translate(-441.471 -271.2)" fill="#f34d4d"/>
          <g id="Group_9121" data-name="Group 9121" transform="translate(6.529 14.234)" opacity="0.1">
            <path id="Path_22686" data-name="Path 22686" d="M450.617,286.748l-2.126-1.227c-.275-.162-.491-.088-.491.162a.982.982,0,0,0,.491.736l2.126,1.227c.275.162.491.088.491-.162A.982.982,0,0,0,450.617,286.748Z" transform="translate(-448 -285.435)"/>
          </g>
        </g>
      </g>
      <g id="freepik--Folders--inject-12" transform="translate(20.094 7.621)">
        <g id="freepik--folder-green--inject-12" transform="translate(0 0)">
          <path id="Path_22721" data-name="Path 22721" d="M62.037,240.414l69.037,39.864,4.191,2.421.192.1a2.28,2.28,0,0,0,.351.139,4.342,4.342,0,0,0,.73.172.086.086,0,0,0,.06,0,3.38,3.38,0,0,0,.371,0,2.255,2.255,0,0,0,1.1-.239,4.105,4.105,0,0,0,1.572-2.5l11.639-60.416a1.99,1.99,0,0,0,.04-.4,1.792,1.792,0,0,0,0-.325h0a2.936,2.936,0,0,0-.113-.491,5.166,5.166,0,0,0-.206-.477l-.172-.285a3.281,3.281,0,0,0-.239-.292,2.539,2.539,0,0,0-.239-.225,2.606,2.606,0,0,0-.279-.192L76.845,174.991a1.756,1.756,0,0,0-.192-.1l-.206-.093a.438.438,0,0,0-.1-.033.922.922,0,0,0-.265,0,3.316,3.316,0,0,0-1.326.61l-1.625.955h0a.842.842,0,0,0-.325.232,1.247,1.247,0,0,0-.3.5,1.328,1.328,0,0,0-.066.252L60.8,237.748A2.739,2.739,0,0,0,62.037,240.414Z" transform="translate(-59.046 -144.37)" fill="#f34d4d"/>
          <path id="Path_22722" data-name="Path 22722" d="M62.037,240.414l69.037,39.864,4.191,2.421.192.1a2.28,2.28,0,0,0,.351.139,4.342,4.342,0,0,0,.73.172.086.086,0,0,0,.06,0,3.38,3.38,0,0,0,.371,0,2.255,2.255,0,0,0,1.1-.239,4.105,4.105,0,0,0,1.572-2.5l11.639-60.416a1.99,1.99,0,0,0,.04-.4,1.792,1.792,0,0,0,0-.325h0a2.936,2.936,0,0,0-.113-.491,5.166,5.166,0,0,0-.206-.477l-.172-.285a3.281,3.281,0,0,0-.239-.292,2.539,2.539,0,0,0-.239-.225,2.606,2.606,0,0,0-.279-.192L76.845,174.991a1.756,1.756,0,0,0-.192-.1l-.206-.093a.438.438,0,0,0-.1-.033.922.922,0,0,0-.265,0,3.316,3.316,0,0,0-1.326.61l-1.625.955h0a.842.842,0,0,0-.325.232,1.247,1.247,0,0,0-.3.5,1.328,1.328,0,0,0-.066.252L60.8,237.748A2.739,2.739,0,0,0,62.037,240.414Z" transform="translate(-59.046 -144.37)" fill="#f34d4d"/>
          <path id="Path_22723" data-name="Path 22723" d="M60.8,304.888a3.1,3.1,0,0,0,2.613.1,4.105,4.105,0,0,0,1.572-2.5l11.632-60.443a2.653,2.653,0,0,0-.305-1.7l-2.447,1.419a2.693,2.693,0,0,1,.312,1.7L62.526,303.913a1.2,1.2,0,0,1-1.724.975Z" transform="translate(15.617 -166.46)" opacity="0.2"/>
          <path id="Path_22724" data-name="Path 22724" d="M62.9,175.329l-1.625.955h0a1.287,1.287,0,0,1,1.227.106l73.229,42.291a2.507,2.507,0,0,1,.942.982l2.467-1.419-.172-.285a3.269,3.269,0,0,0-.239-.292,2.421,2.421,0,0,0-.517-.418L64.987,174.971a2.751,2.751,0,0,0-.4-.192.438.438,0,0,0-.1-.033.922.922,0,0,0-.265,0A3.316,3.316,0,0,0,62.9,175.329Z" transform="translate(-47.194 -144.363)" fill="#fff" opacity="0.1"/>
          <path id="Path_22725" data-name="Path 22725" d="M140.933,282.539,152.565,222.1a2.746,2.746,0,0,0-1.234-2.693L78.1,177.132a1.214,1.214,0,0,0-1.923.875L64.547,238.45a2.746,2.746,0,0,0,1.234,2.7l73.229,42.271a1.22,1.22,0,0,0,1.923-.882Z" transform="translate(-62.79 -145.092)" fill="#f34d4d"/>
          <path id="Path_22726" data-name="Path 22726" d="M140.933,282.539,152.565,222.1a2.746,2.746,0,0,0-1.234-2.693L78.1,177.132a1.214,1.214,0,0,0-1.923.875L64.547,238.45a2.746,2.746,0,0,0,1.234,2.7l73.229,42.271a1.22,1.22,0,0,0,1.923-.882Z" transform="translate(-62.79 -145.092)" opacity="0.15"/>
          <path id="Path_22727" data-name="Path 22727" d="M69.9,246.1l49.666,28.676,3.017,1.777.139.073a1.987,1.987,0,0,0,.252.1,1.737,1.737,0,0,0,.318.086,1.114,1.114,0,0,0,.206.033.06.06,0,0,0,.046,0,1.786,1.786,0,0,0,.265,0,1.638,1.638,0,0,0,.8-.179,2.958,2.958,0,0,0,1.127-1.8l8.369-43.485a1.387,1.387,0,0,0,0-.285,1.45,1.45,0,0,0,0-.239h0a1.645,1.645,0,0,0-.08-.358,3.061,3.061,0,0,0-.146-.338c-.04-.066-.08-.139-.126-.206a1.286,1.286,0,0,0-.172-.206.816.816,0,0,0-.172-.166,1.755,1.755,0,0,0-.192-.139L80.53,199.036l-.146-.073-.153-.066a.193.193,0,0,0-.066,0,.664.664,0,0,0-.192,0,2.368,2.368,0,0,0-.935.444L77.87,200h0a.663.663,0,0,0-.239.166.922.922,0,0,0-.212.358,1.194,1.194,0,0,0-.046.179L69,244.192A1.99,1.99,0,0,0,69.9,246.1Z" transform="translate(-47.271 -152.499)" fill="#f34d4d"/>
          <path id="Path_22728" data-name="Path 22728" d="M69.9,246.1l49.666,28.676,3.017,1.777.139.073a1.987,1.987,0,0,0,.252.1,1.737,1.737,0,0,0,.318.086,1.114,1.114,0,0,0,.206.033.06.06,0,0,0,.046,0,1.786,1.786,0,0,0,.265,0,1.638,1.638,0,0,0,.8-.179,2.958,2.958,0,0,0,1.127-1.8l8.369-43.485a1.387,1.387,0,0,0,0-.285,1.45,1.45,0,0,0,0-.239h0a1.645,1.645,0,0,0-.08-.358,3.061,3.061,0,0,0-.146-.338c-.04-.066-.08-.139-.126-.206a1.286,1.286,0,0,0-.172-.206.816.816,0,0,0-.172-.166,1.755,1.755,0,0,0-.192-.139L80.53,199.036l-.146-.073-.153-.066a.193.193,0,0,0-.066,0,.664.664,0,0,0-.192,0,2.368,2.368,0,0,0-.935.444L77.87,200h0a.663.663,0,0,0-.239.166.922.922,0,0,0-.212.358,1.194,1.194,0,0,0-.046.179L69,244.192A1.99,1.99,0,0,0,69.9,246.1Z" transform="translate(-47.271 -152.499)" fill="#f34d4d"/>
          <path id="Path_22729" data-name="Path 22729" d="M68.97,292.476a2.242,2.242,0,0,0,1.883.066,2.958,2.958,0,0,0,1.127-1.8l8.369-43.478a1.99,1.99,0,0,0-.219-1.227l-1.771,1.021a1.923,1.923,0,0,1,.225,1.227L70.21,291.773a.862.862,0,0,1-1.24.7Z" transform="translate(6.481 -168.38)" fill="#e0e0e0"/>
          <path id="Path_22730" data-name="Path 22730" d="M70.5,199.271l-1.167.663h0a.9.9,0,0,1,.875.08l52.683,30.44a1.717,1.717,0,0,1,.663.71l1.771-1.048c-.04-.066-.08-.139-.126-.206a1.286,1.286,0,0,0-.172-.206,1.59,1.59,0,0,0-.365-.305L71.976,198.986a2.355,2.355,0,0,0-.292-.139.193.193,0,0,0-.066,0,.662.662,0,0,0-.192,0A2.368,2.368,0,0,0,70.5,199.271Z" transform="translate(-38.711 -152.482)" fill="#fafafa"/>
          <path id="Path_22731" data-name="Path 22731" d="M126.6,276.4l8.369-43.485a1.99,1.99,0,0,0-.882-1.937l-52.677-30.42a.875.875,0,0,0-1.386.663L71.661,244.7a1.989,1.989,0,0,0,.882,1.937l52.677,30.42a.875.875,0,0,0,1.379-.663Z" transform="translate(-49.908 -153.004)" fill="#f5f5f5"/>
          <g id="freepik--document--inject-12" transform="translate(0)">
            <path id="Path_22732" data-name="Path 22732" d="M179.932,165.162a1.117,1.117,0,0,0,.486-.889V106.367a1.151,1.151,0,0,0-.525-.908l-36.386-21a.971.971,0,0,0-1.506.874v57.906a1.151,1.151,0,0,0,.525.908l36.362,21A1.127,1.127,0,0,0,179.932,165.162Z" transform="translate(-142 -84.297)" fill="#ebebeb"/>
            <path id="Path_22733" data-name="Path 22733" d="M142.37,85.288c.049-.267.262-.359.52-.209l36.371,20.976a1.035,1.035,0,0,1,.369.393l.971-.568a1.136,1.136,0,0,0-.374-.4L143.871,84.511a1.127,1.127,0,0,0-1.02,0A1.18,1.18,0,0,0,142.37,85.288Z" transform="translate(-142.363 -84.344)" fill="#c6c9cc"/>
            <path id="Path_22734" data-name="Path 22734" d="M142,188.009a1.132,1.132,0,0,0,.971,0,1.117,1.117,0,0,0,.486-.889V129.195a1.083,1.083,0,0,0-.151-.515l-.971.568a1.039,1.039,0,0,1,.155.515v57.906C142.461,187.975,142.257,188.12,142,188.009Z" transform="translate(-105.039 -107.125)" fill="#e0e0e0"/>
            <path id="Path_22735" data-name="Path 22735" d="M180.941,165.841l-36.357-21a1.151,1.151,0,0,1-.525-.908V86.027c0-.335.233-.486.525-.3L180.941,106.7a1.151,1.151,0,0,1,.525.908v57.925C181.466,165.87,181.233,166.006,180.941,165.841Z" transform="translate(-144.048 -84.991)" fill="#e1dedb"/>
            <g id="Group_9123" data-name="Group 9123" transform="translate(2.659 9.815)" opacity="0.3">
              <path id="Path_22736" data-name="Path 22736" d="M181.627,163.274c0,.447-.4.578-.894.291l-30.32-17.484a1.8,1.8,0,0,1-.894-1.321c0-.447.4-.578.894-.291l30.32,17.484A1.8,1.8,0,0,1,181.627,163.274Z" transform="translate(-149.52 -124.983)" fill="#455a64"/>
              <path id="Path_22737" data-name="Path 22737" d="M181.627,173.236c0,.442-.4.573-.894.291l-30.32-17.484a1.787,1.787,0,0,1-.894-1.321c0-.447.4-.573.894-.291l30.32,17.508a1.787,1.787,0,0,1,.894,1.3Z" transform="translate(-149.52 -130.108)" fill="#455a64"/>
              <path id="Path_22738" data-name="Path 22738" d="M181.627,183.184c0,.447-.4.578-.894.291l-30.32-17.484a1.8,1.8,0,0,1-.894-1.321c0-.447.4-.578.894-.291l30.32,17.484A1.8,1.8,0,0,1,181.627,183.184Z" transform="translate(-149.52 -135.224)" fill="#455a64"/>
              <path id="Path_22739" data-name="Path 22739" d="M181.627,193.148c0,.447-.4.573-.894.291l-30.32-17.484a1.787,1.787,0,0,1-.894-1.321c0-.442.4-.573.894-.291l30.32,17.484a1.787,1.787,0,0,1,.894,1.321Z" transform="translate(-149.52 -140.35)" fill="#455a64"/>
              <path id="Path_22740" data-name="Path 22740" d="M181.627,133.4c0,.447-.4.578-.894.291l-30.32-17.484a1.8,1.8,0,0,1-.894-1.321c0-.447.4-.578.894-.291l30.32,17.484A1.8,1.8,0,0,1,181.627,133.4Z" transform="translate(-149.52 -109.62)" fill="#455a64"/>
              <path id="Path_22741" data-name="Path 22741" d="M181.627,143.369c0,.447-.4.573-.894.291l-30.32-17.484a1.787,1.787,0,0,1-.894-1.321c0-.442.4-.573.894-.287l30.32,17.484A1.8,1.8,0,0,1,181.627,143.369Z" transform="translate(-149.52 -114.748)" fill="#455a64"/>
              <path id="Path_22742" data-name="Path 22742" d="M181.627,123.464c0,.447-.4.578-.894.291l-30.32-17.484a1.8,1.8,0,0,1-.894-1.321c0-.447.4-.578.894-.291l30.32,17.484A1.8,1.8,0,0,1,181.627,123.464Z" transform="translate(-149.52 -104.507)" fill="#455a64"/>
              <path id="Path_22743" data-name="Path 22743" d="M181.627,153.319c0,.442-.4.573-.894.287l-30.32-17.484a1.8,1.8,0,0,1-.894-1.321c0-.447.4-.578.894-.291l30.32,17.484A1.8,1.8,0,0,1,181.627,153.319Z" transform="translate(-149.52 -119.86)" fill="#455a64"/>
              <path id="Path_22744" data-name="Path 22744" d="M181.627,203.1c0,.442-.4.573-.894.287L150.414,185.9a1.8,1.8,0,0,1-.894-1.321c0-.447.4-.578.894-.291l30.32,17.484A1.8,1.8,0,0,1,181.627,203.1Z" transform="translate(-149.52 -145.464)" fill="#455a64"/>
              <path id="Path_22745" data-name="Path 22745" d="M181.627,213.059c0,.447-.4.578-.894.291l-30.32-17.484a1.787,1.787,0,0,1-.894-1.321c0-.442.4-.573.894-.287l30.32,17.484a1.8,1.8,0,0,1,.894,1.316Z" transform="translate(-149.52 -150.592)" fill="#455a64"/>
            </g>
          </g>
          <path id="Path_22746" data-name="Path 22746" d="M80.135,185.735a1.161,1.161,0,0,1,.451-1.035.763.763,0,0,1,.113-.073l2.374-1.379h0a1.147,1.147,0,0,1,1.154.119l47.464,27.37,1.419-5.584a1.545,1.545,0,0,1,.663-.909h0l2.467-1.439h0a1.452,1.452,0,0,1,1.5.04L157.92,214.51a3.628,3.628,0,0,1,1.645,2.845V284.7a1.167,1.167,0,0,1-.444,1.035h0l-2.54,1.479h0a1.18,1.18,0,0,1-1.121-.139L81.746,244.513a3.628,3.628,0,0,1-1.645-2.845Z" transform="translate(-80.102 -147.196)" fill="#f34d4d"/>
          <path id="Path_22747" data-name="Path 22747" d="M80.84,214.12a1.452,1.452,0,0,1,1.472.066l20.214,11.652a3.448,3.448,0,0,1,1.161,1.227l2.46-1.432a3.316,3.316,0,0,0-1.161-1.227L84.819,212.754a1.466,1.466,0,0,0-1.505-.04h0Z" transform="translate(-27.169 -157.091)" fill="#fff" opacity="0.4"/>
          <path id="Path_22748" data-name="Path 22748" d="M122.13,184.639a1.253,1.253,0,0,1,1.081.159l47.484,27.443a1.439,1.439,0,0,0,2.2-.869l.219-.6L125.645,183.4a1.412,1.412,0,0,0-.723-.219.876.876,0,0,0-.424.106h0Z" transform="translate(-121.513 -147.207)" fill="#fff" opacity="0.4"/>
          <path id="Path_22749" data-name="Path 22749" d="M83.843,186.444,83.81,242.37a3.628,3.628,0,0,0,1.645,2.845l73.912,42.656a.968.968,0,0,0,1.452-.842V219.49a3.316,3.316,0,0,0-.477-1.612,3.455,3.455,0,0,0-1.161-1.227l-20.2-11.679a1.472,1.472,0,0,0-1.472-.066h-.046a1.532,1.532,0,0,0-.663.909l-1.386,5.571-.219.6a1.432,1.432,0,0,1-2.189.869l-47.51-27.409a1.22,1.22,0,0,0-1.074-.159l-.066.04h-.04a1.174,1.174,0,0,0-.471,1.114Z" transform="translate(-83.81 -147.898)" fill="#f34d4d"/>
          <path id="Path_22750" data-name="Path 22750" d="M143.614,260.742a.828.828,0,0,1-.332.073.783.783,0,0,1-.7-.444l-2.208-4.675v8.29a.783.783,0,0,1-1.558,0v-9.948l-2.368,2.281a.779.779,0,0,1-1.081-1.121l3.687-3.548a.783.783,0,0,1,1.247.225l3.687,7.812a.776.776,0,0,1-.371,1.054Z" transform="translate(-101.09 -170.196)" fill="#263238"/>
          <path id="Path_22751" data-name="Path 22751" d="M133.5,261.79a.776.776,0,0,1,.776.776v4.669l9.039,5.219v-3.793a.783.783,0,0,1,1.558,0v5.14a.776.776,0,0,1-.391.663.763.763,0,0,1-.776,0L133.1,268.342a.769.769,0,0,1-.385-.663v-5.087a.776.776,0,0,1,.789-.8Z" transform="translate(-100.294 -173.684)" fill="#263238"/>
          <path id="Path_22752" data-name="Path 22752" d="M80.1,303.781a.153.153,0,0,0,.073,0l2.54-1.472a1.207,1.207,0,0,0,.444-1.048V233.908a3.316,3.316,0,0,0-.484-1.618l-2.46,1.432h0a3.316,3.316,0,0,1,.484,1.618v67.552A.955.955,0,0,1,80.1,303.781Z" transform="translate(-3.697 -163.748)" opacity="0.2"/>
        </g>
      </g>
    </g>
  </g>
</svg>
