<svg xmlns="http://www.w3.org/2000/svg" width="291" height="242.243" viewBox="0 0 291 242.243">
  <g id="Transfer_files-amico" data-name="Transfer files-amico" transform="translate(-32.37 -84.297)">
    <g id="freepik--Floor--inject-12" transform="translate(50.535 194.084)">
      <ellipse id="freepik--floor--inject-12-2" data-name="freepik--floor--inject-12" cx="126.7" cy="66.228" rx="126.7" ry="66.228" fill="#fafafa"/>
    </g>
    <g id="freepik--Shadow--inject-12" transform="translate(114.724 242.609)">
      <path id="freepik--shadow--inject-12-2" data-name="freepik--shadow--inject-12" d="M219.6,354.084c-2.968,0-5.984-.127-8.959-.374-23.46-1.966-44.406-11.439-54.675-24.737l-.415-.528,9.5-7.354.408.528c9.447,12.221,31.229,20.431,54.2,20.431h0c2.146,0,4.306-.074,6.412-.221,14.287-1,26.642-5.3,34.05-11.814l-6.686-7.261,23.7-1.337L275.05,346.2l-6.779-7.354c-9.467,8.457-24.115,13.766-41.344,14.969C224.506,354,222.039,354.084,219.6,354.084Z" transform="translate(-155.55 -321.09)" fill="#e0e0e0"/>
    </g>
    <g id="freepik--Boxes--inject-12" transform="translate(134.881 176.361)">
      <g id="freepik--boxes--inject-12-2" data-name="freepik--boxes--inject-12">
        <path id="Path_23414" data-name="Path 23414" d="M209.54,269.011v-9.587L222,252.23v9.587Z" transform="translate(-193.601 -232.019)" fill="#f0f0f0"/>
        <path id="Path_23415" data-name="Path 23415" d="M201.824,258.532,186.26,249.54v9.587l15.564,8.992Z" transform="translate(-185.886 -231.128)" fill="#e6e6e6"/>
        <path id="Path_23416" data-name="Path 23416" d="M201.639,254.754l12.823-7.408-15.939-9.206L185.7,245.548Z" transform="translate(-185.7 -227.349)" fill="#fafafa"/>
        <path id="Path_23417" data-name="Path 23417" d="M209.54,259.318v2.393l12.823-7.4v-2.4Z" transform="translate(-193.601 -231.913)" fill="#f0f0f0"/>
        <path id="Path_23418" data-name="Path 23418" d="M209.54,263.007,222,255.82v.528l-12.455,7.187Z" transform="translate(-193.601 -233.209)" fill="#e6e6e6"/>
        <path id="Path_23419" data-name="Path 23419" d="M185.7,249.22l15.939,9.206v2.393l-15.939-9.2Z" transform="translate(-185.7 -231.022)" fill="#e6e6e6"/>
        <path id="Path_23420" data-name="Path 23420" d="M201.824,262.116,186.26,253.13v.528l15.564,8.986Z" transform="translate(-185.886 -232.318)" fill="#e0e0e0"/>
        <path id="Path_23421" data-name="Path 23421" d="M215.508,263.931l4.259-2.46a.2.2,0,0,1,.328.194v2.514a.735.735,0,0,1-.328.575l-4.259,2.46c-.181.107-.328,0-.328-.194v-2.534A.735.735,0,0,1,215.508,263.931Z" transform="translate(-195.471 -235.069)" fill="#ebebeb"/>
        <path id="Path_23422" data-name="Path 23422" d="M215.971,264.516l3.711-2.139a.137.137,0,0,1,.221.127v1.885a.508.508,0,0,1-.221.388l-3.711,2.139a.136.136,0,0,1-.221-.127V264.9a.508.508,0,0,1,.221-.388Z" transform="translate(-195.66 -235.374)" fill="#fafafa"/>
        <path id="Path_23423" data-name="Path 23423" d="M209.54,252.871v-9.587L222,236.09v9.587Z" transform="translate(-193.601 -226.67)" fill="#f0f0f0"/>
        <path id="Path_23424" data-name="Path 23424" d="M201.824,242.392,186.26,233.4v9.587l15.564,8.992Z" transform="translate(-185.886 -225.778)" fill="#e6e6e6"/>
        <path id="Path_23425" data-name="Path 23425" d="M201.639,238.614l12.823-7.408L198.523,222,185.7,229.408Z" transform="translate(-185.7 -222)" fill="#f5f5f5"/>
        <path id="Path_23426" data-name="Path 23426" d="M209.54,243.178v2.393l12.823-7.4v-2.4Z" transform="translate(-193.601 -226.564)" fill="#f0f0f0"/>
        <path id="Path_23427" data-name="Path 23427" d="M209.54,246.867,222,239.68v.521L209.54,247.4Z" transform="translate(-193.601 -227.86)" fill="#e6e6e6"/>
        <path id="Path_23428" data-name="Path 23428" d="M185.7,233.08l15.939,9.206v2.393l-15.939-9.2Z" transform="translate(-185.7 -225.672)" fill="#e6e6e6"/>
        <path id="Path_23429" data-name="Path 23429" d="M201.824,245.976,186.26,236.99v.528l15.564,8.986Z" transform="translate(-185.886 -226.968)" fill="#e0e0e0"/>
        <path id="Path_23430" data-name="Path 23430" d="M215.508,247.759l4.259-2.46c.181-.107.328,0,.328.194v2.514a.735.735,0,0,1-.328.575l-4.259,2.454a.2.2,0,0,1-.328-.187v-2.514A.722.722,0,0,1,215.508,247.759Z" transform="translate(-195.471 -229.708)" fill="#ebebeb"/>
        <path id="Path_23431" data-name="Path 23431" d="M215.971,248.375l3.711-2.139a.136.136,0,0,1,.221.127v1.885a.488.488,0,0,1-.221.381l-3.711,2.119a.137.137,0,0,1-.221-.127v-1.879A.5.5,0,0,1,215.971,248.375Z" transform="translate(-195.66 -230.023)" fill="#fafafa"/>
        <path id="Path_23432" data-name="Path 23432" d="M213.764,250.115l-11.787,6.806-14.9-8.611-.361.221,15.257,8.778,12.148-6.98Z" transform="translate(-186.038 -230.72)" fill="#e0e0e0"/>
        <path id="Path_23433" data-name="Path 23433" d="M213.764,250.115l-11.787,6.806-14.9-8.611-.361.221,15.257,8.778,12.148-6.98Z" transform="translate(-186.038 -230.72)" fill="#e0e0e0" opacity="0.5"/>
      </g>
      <g id="freepik--boxes--inject-12-3" data-name="freepik--boxes--inject-12" transform="translate(57.216)">
        <path id="Path_23434" data-name="Path 23434" d="M284.285,269.011v-9.587L271.83,252.23v9.587Z" transform="translate(-271.462 -232.019)" fill="#f0f0f0"/>
        <path id="Path_23435" data-name="Path 23435" d="M290.46,258.532l15.564-8.992v9.587l-15.564,8.992Z" transform="translate(-277.637 -231.128)" fill="#e6e6e6"/>
        <path id="Path_23436" data-name="Path 23436" d="M284.1,254.754l-12.823-7.408,15.939-9.206,12.823,7.408Z" transform="translate(-271.28 -227.349)" fill="#fafafa"/>
        <path id="Path_23437" data-name="Path 23437" d="M284.1,259.318v2.393l-12.823-7.4v-2.4Z" transform="translate(-271.28 -231.913)" fill="#f0f0f0"/>
        <path id="Path_23438" data-name="Path 23438" d="M284.285,263.007,271.83,255.82v.528l12.455,7.187Z" transform="translate(-271.462 -233.209)" fill="#e6e6e6"/>
        <path id="Path_23439" data-name="Path 23439" d="M306.4,249.22l-15.939,9.206v2.393l15.939-9.2Z" transform="translate(-277.637 -231.022)" fill="#e6e6e6"/>
        <path id="Path_23440" data-name="Path 23440" d="M290.46,262.116l15.571-8.986-.007.528-15.564,8.986Z" transform="translate(-277.637 -232.318)" fill="#e0e0e0"/>
        <path id="Path_23441" data-name="Path 23441" d="M282.07,263.931l-4.232-2.46a.2.2,0,0,0-.328.194v2.514a.735.735,0,0,0,.328.575l4.259,2.46c.18.107.328,0,.328-.194v-2.534A.735.735,0,0,0,282.07,263.931Z" transform="translate(-273.345 -235.069)" fill="#ebebeb"/>
        <path id="Path_23442" data-name="Path 23442" d="M281.971,264.516l-3.711-2.139a.137.137,0,0,0-.221.127v1.885a.508.508,0,0,0,.221.388l3.711,2.139a.136.136,0,0,0,.221-.127V264.9a.508.508,0,0,0-.221-.388Z" transform="translate(-273.521 -235.374)" fill="#fafafa"/>
        <path id="Path_23443" data-name="Path 23443" d="M284.285,252.871v-9.587L271.83,236.09v9.587Z" transform="translate(-271.462 -226.67)" fill="#f0f0f0"/>
        <path id="Path_23444" data-name="Path 23444" d="M290.46,242.392l15.564-8.992v9.587l-15.564,8.992Z" transform="translate(-277.637 -225.778)" fill="#e6e6e6"/>
        <path id="Path_23445" data-name="Path 23445" d="M284.1,238.614l-12.823-7.408L287.219,222l12.823,7.408Z" transform="translate(-271.28 -222)" fill="#f5f5f5"/>
        <path id="Path_23446" data-name="Path 23446" d="M284.1,243.178v2.393l-12.823-7.4v-2.4Z" transform="translate(-271.28 -226.564)" fill="#f0f0f0"/>
        <path id="Path_23447" data-name="Path 23447" d="M284.285,246.867,271.83,239.68v.521l12.455,7.194Z" transform="translate(-271.462 -227.86)" fill="#e6e6e6"/>
        <path id="Path_23448" data-name="Path 23448" d="M306.4,233.08l-15.939,9.206v2.393l15.939-9.2Z" transform="translate(-277.637 -225.672)" fill="#e6e6e6"/>
        <path id="Path_23449" data-name="Path 23449" d="M290.46,245.976l15.571-8.986-.007.528L290.46,246.5Z" transform="translate(-277.637 -226.968)" fill="#e0e0e0"/>
        <path id="Path_23450" data-name="Path 23450" d="M282.07,247.769l-4.232-2.44c-.18-.107-.328,0-.328.194v2.514a.735.735,0,0,0,.328.575l4.259,2.454a.2.2,0,0,0,.328-.187v-2.514a.722.722,0,0,0-.354-.6Z" transform="translate(-273.345 -229.718)" fill="#ebebeb"/>
        <path id="Path_23451" data-name="Path 23451" d="M281.971,248.375l-3.711-2.139a.136.136,0,0,0-.221.127v1.885a.488.488,0,0,0,.221.381l3.711,2.146a.137.137,0,0,0,.221-.127v-1.905A.5.5,0,0,0,281.971,248.375Z" transform="translate(-273.521 -230.023)" fill="#fafafa"/>
        <path id="Path_23452" data-name="Path 23452" d="M272.651,250.115l11.787,6.806,14.9-8.611.361.221-15.257,8.778-12.148-6.98Z" transform="translate(-271.615 -230.72)" fill="#e0e0e0"/>
        <path id="Path_23453" data-name="Path 23453" d="M272.651,250.115l11.787,6.806,14.9-8.611.361.221-15.257,8.778-12.148-6.98Z" transform="translate(-271.615 -230.72)" fill="#e0e0e0" opacity="0.5"/>
      </g>
    </g>
    <g id="freepik--Cabinets--inject-12" transform="translate(32.37 199.386)">
      <g id="freepik--Cabinet--inject-12">
        <path id="Path_23454" data-name="Path 23454" d="M64.18,315.325l14.889-8.591V274.81L64.18,283.4Z" transform="translate(-42.913 -262.528)" fill="#263238"/>
        <path id="Path_23455" data-name="Path 23455" d="M53.637,281.575,32.37,269.3v31.924L53.637,313.5Z" transform="translate(-32.37 -260.702)" fill="#37474f"/>
        <path id="Path_23456" data-name="Path 23456" d="M32.37,265.038l21.267,12.275,14.889-8.591L47.259,256.44Z" transform="translate(-32.37 -256.44)" fill="#455a64"/>
        <path id="Path_23457" data-name="Path 23457" d="M52.959,307.011,35.944,297.19v11.82l-.394.227,17.015,9.821.394-.227Z" transform="translate(-33.424 -269.946)" fill="#263238"/>
        <path id="Path_23458" data-name="Path 23458" d="M52.565,307.348,35.55,297.52v11.827l17.015,9.821Z" transform="translate(-33.424 -270.055)" fill="#455a64"/>
        <path id="Path_23459" data-name="Path 23459" d="M49.243,308.58l-2.875-1.638c-.374-.221-.669-.12-.669.221a1.337,1.337,0,0,0,.669,1l2.895,1.671c.374.221.669.12.669-.221A1.337,1.337,0,0,0,49.243,308.58Z" transform="translate(-36.788 -273.139)" fill="#263238"/>
        <path id="Path_23460" data-name="Path 23460" d="M52.959,285.661,35.944,275.84v11.82l-.394.227,17.015,9.821.394-.227Z" transform="translate(-33.424 -262.87)" fill="#263238"/>
        <path id="Path_23461" data-name="Path 23461" d="M52.565,286,35.55,276.18V288l17.015,9.821Z" transform="translate(-33.424 -262.983)" fill="#455a64"/>
        <path id="Path_23462" data-name="Path 23462" d="M49.233,287.223l-2.895-1.671c-.374-.221-.669-.12-.669.221a1.337,1.337,0,0,0,.669,1l2.895,1.671c.374.221.669.12.669-.221a1.337,1.337,0,0,0-.669-1Z" transform="translate(-36.778 -266.05)" fill="#263238"/>
      </g>
      <g id="freepik--cabinet--inject-12-2" data-name="freepik--cabinet--inject-12" transform="translate(254.844)">
        <path id="Path_23463" data-name="Path 23463" d="M428.439,315.325l-14.889-8.591V274.81l14.889,8.591Z" transform="translate(-413.55 -262.528)" fill="#f34d4d"/>
        <g id="Group_9657" data-name="Group 9657" transform="translate(0 12.282)" opacity="0.2">
          <path id="Path_23464" data-name="Path 23464" d="M428.439,315.325l-14.889-8.591V274.81l14.889,8.591Z" transform="translate(-413.55 -274.81)"/>
        </g>
        <path id="Path_23465" data-name="Path 23465" d="M435.82,281.575,457.087,269.3v31.924L435.82,313.5Z" transform="translate(-420.931 -260.702)" fill="#f34d4d"/>
        <path id="Path_23466" data-name="Path 23466" d="M449.706,265.038l-21.267,12.275-14.889-8.591,21.267-12.282Z" transform="translate(-413.55 -256.44)" fill="#f34d4d"/>
        <g id="Group_9658" data-name="Group 9658" opacity="0.4">
          <path id="Path_23467" data-name="Path 23467" d="M449.706,265.038l-21.267,12.275-14.889-8.591,21.267-12.282Z" transform="translate(-413.55 -256.44)" fill="#fff"/>
        </g>
        <path id="Path_23468" data-name="Path 23468" d="M438.417,307.011l17.008-9.821v11.82l.388.227L438.8,319.059l-.394-.227Z" transform="translate(-421.789 -269.946)" fill="#f34d4d"/>
        <g id="Group_9659" data-name="Group 9659" transform="translate(16.621 27.244)" opacity="0.1">
          <path id="Path_23469" data-name="Path 23469" d="M438.417,307.011l17.008-9.821v11.82l.388.227L438.8,319.059l-.394-.227Z" transform="translate(-438.41 -297.19)"/>
        </g>
        <path id="Path_23470" data-name="Path 23470" d="M439,307.348l17.015-9.828-.007,11.827L439,319.168Z" transform="translate(-421.985 -270.055)" fill="#f34d4d"/>
        <g id="Group_9660" data-name="Group 9660" transform="translate(17.015 27.465)" opacity="0.4">
          <path id="Path_23471" data-name="Path 23471" d="M439,307.348l17.015-9.828-.007,11.827L439,319.168Z" transform="translate(-439 -297.52)" fill="#fff"/>
        </g>
        <path id="Path_23472" data-name="Path 23472" d="M448.659,308.58l2.875-1.638c.374-.221.669-.12.669.221a1.337,1.337,0,0,1-.669,1l-2.895,1.671c-.374.221-.669.12-.669-.221A1.337,1.337,0,0,1,448.659,308.58Z" transform="translate(-424.958 -273.139)" fill="#f34d4d"/>
        <g id="Group_9661" data-name="Group 9661" transform="translate(23.012 33.685)" opacity="0.1">
          <path id="Path_23473" data-name="Path 23473" d="M448.659,308.58l2.875-1.638c.374-.221.669-.12.669.221a1.337,1.337,0,0,1-.669,1l-2.895,1.671c-.374.221-.669.12-.669-.221A1.337,1.337,0,0,1,448.659,308.58Z" transform="translate(-447.97 -306.825)"/>
        </g>
        <path id="Path_23474" data-name="Path 23474" d="M438.417,285.661l17.008-9.821v11.82l.388.227L438.8,297.709l-.394-.227Z" transform="translate(-421.789 -262.87)" fill="#f34d4d"/>
        <g id="Group_9662" data-name="Group 9662" transform="translate(16.621 12.97)" opacity="0.1">
          <path id="Path_23475" data-name="Path 23475" d="M438.417,285.661l17.008-9.821v11.82l.388.227L438.8,297.709l-.394-.227Z" transform="translate(-438.41 -275.84)"/>
        </g>
        <path id="Path_23476" data-name="Path 23476" d="M439,286l17.015-9.821L456.008,288,439,297.821Z" transform="translate(-421.985 -262.983)" fill="#f34d4d"/>
        <g id="Group_9663" data-name="Group 9663" transform="translate(17.015 13.197)" opacity="0.4">
          <path id="Path_23477" data-name="Path 23477" d="M439,286l17.015-9.821L456.008,288,439,297.821Z" transform="translate(-439 -276.18)" fill="#fff"/>
        </g>
        <path id="Path_23478" data-name="Path 23478" d="M448.669,287.223l2.895-1.671c.374-.221.669-.12.669.221a1.337,1.337,0,0,1-.669,1l-2.895,1.671c-.374.221-.669.12-.669-.221A1.337,1.337,0,0,1,448.669,287.223Z" transform="translate(-424.968 -266.05)" fill="#f34d4d"/>
        <g id="Group_9664" data-name="Group 9664" transform="translate(23.032 19.385)" opacity="0.1">
          <path id="Path_23479" data-name="Path 23479" d="M448.669,287.223l2.895-1.671c.374-.221.669-.12.669.221a1.337,1.337,0,0,1-.669,1l-2.895,1.671c-.374.221-.669.12-.669-.221A1.337,1.337,0,0,1,448.669,287.223Z" transform="translate(-448 -285.435)"/>
        </g>
      </g>
    </g>
    <g id="freepik--Folders--inject-12" transform="translate(51.363 84.297)">
      <g id="freepik--folder-black--inject-12" transform="translate(145.825)">
        <path id="Path_23480" data-name="Path 23480" d="M303.938,240.94l69.6,40.188,4.232,2.44.194.1a2.3,2.3,0,0,0,.354.14,4.384,4.384,0,0,0,.735.174.087.087,0,0,0,.06,0,3.42,3.42,0,0,0,.374,0,2.273,2.273,0,0,0,1.11-.241,4.138,4.138,0,0,0,1.585-2.52l11.727-60.933a2,2,0,0,0,.04-.4,1.807,1.807,0,0,0,0-.328h0a2.961,2.961,0,0,0-.114-.495,5.212,5.212,0,0,0-.207-.481l-.174-.287a3.3,3.3,0,0,0-.241-.294,2.553,2.553,0,0,0-.241-.227,2.63,2.63,0,0,0-.281-.194l-73.85-42.608a1.767,1.767,0,0,0-.194-.1l-.207-.094a.44.44,0,0,0-.1-.033.93.93,0,0,0-.267,0,3.343,3.343,0,0,0-1.337.615l-1.638.963h0a.849.849,0,0,0-.328.234,1.257,1.257,0,0,0-.3.5,1.338,1.338,0,0,0-.067.254l-11.733,60.926a2.761,2.761,0,0,0,1.27,2.7Z" transform="translate(-286.767 -114.272)" fill="#f34d4d"/>
        <path id="Path_23481" data-name="Path 23481" d="M303.938,240.94l69.6,40.188,4.232,2.44.194.1a2.3,2.3,0,0,0,.354.14,4.384,4.384,0,0,0,.735.174.087.087,0,0,0,.06,0,3.42,3.42,0,0,0,.374,0,2.273,2.273,0,0,0,1.11-.241,4.138,4.138,0,0,0,1.585-2.52l11.727-60.933a2,2,0,0,0,.04-.4,1.807,1.807,0,0,0,0-.328h0a2.961,2.961,0,0,0-.114-.495,5.212,5.212,0,0,0-.207-.481l-.174-.287a3.3,3.3,0,0,0-.241-.294,2.553,2.553,0,0,0-.241-.227,2.63,2.63,0,0,0-.281-.194l-73.85-42.608a1.767,1.767,0,0,0-.194-.1l-.207-.094a.44.44,0,0,0-.1-.033.93.93,0,0,0-.267,0,3.343,3.343,0,0,0-1.337.615l-1.638.963h0a.849.849,0,0,0-.328.234,1.257,1.257,0,0,0-.3.5,1.338,1.338,0,0,0-.067.254l-11.733,60.926a2.761,2.761,0,0,0,1.27,2.7Z" transform="translate(-286.767 -114.272)" fill="#f34d4d"/>
        <path id="Path_23482" data-name="Path 23482" d="M415.3,305.412a3.129,3.129,0,0,0,2.634.1,4.138,4.138,0,0,0,1.585-2.521l11.727-60.933a2.674,2.674,0,0,0-.308-1.718l-2.467,1.431a2.715,2.715,0,0,1,.314,1.718l-11.747,60.94a1.21,1.21,0,0,1-1.738.983Z" transform="translate(-324.105 -136.015)" fill="#263238"/>
        <path id="Path_23483" data-name="Path 23483" d="M322.948,175.334l-1.638.963h0a1.3,1.3,0,0,1,1.237.107l73.823,42.634a2.527,2.527,0,0,1,.929,1l2.487-1.431-.174-.287a3.3,3.3,0,0,0-.241-.294,2.441,2.441,0,0,0-.521-.421l-73.823-42.628a2.775,2.775,0,0,0-.4-.194.441.441,0,0,0-.1-.033.93.93,0,0,0-.267,0A3.343,3.343,0,0,0,322.948,175.334Z" transform="translate(-292.953 -114.272)" fill="#37474f"/>
        <path id="Path_23484" data-name="Path 23484" d="M322.948,175.334l-1.638.963h0a1.3,1.3,0,0,1,1.237.107l73.823,42.634a2.527,2.527,0,0,1,.929,1l2.487-1.431-.174-.287a3.3,3.3,0,0,0-.241-.294,2.441,2.441,0,0,0-.521-.421l-73.823-42.628a2.775,2.775,0,0,0-.4-.194.441.441,0,0,0-.1-.033.93.93,0,0,0-.267,0A3.343,3.343,0,0,0,322.948,175.334Z" transform="translate(-292.953 -114.272)" fill="#455a64" opacity="0.5"/>
        <path id="Path_23485" data-name="Path 23485" d="M379.712,283.392l11.727-60.926a2.768,2.768,0,0,0-1.244-2.721l-73.823-42.621a1.223,1.223,0,0,0-1.939.882l-11.727,60.933a2.768,2.768,0,0,0,1.244,2.721l73.823,42.621a1.23,1.23,0,0,0,1.939-.889Z" transform="translate(-286.778 -114.986)" fill="#f34d4d"/>
        <path id="Path_23486" data-name="Path 23486" d="M379.712,283.392l11.727-60.926a2.768,2.768,0,0,0-1.244-2.721l-73.823-42.621a1.223,1.223,0,0,0-1.939.882l-11.727,60.933a2.768,2.768,0,0,0,1.244,2.721l73.823,42.621a1.23,1.23,0,0,0,1.939-.889Z" transform="translate(-286.778 -114.986)" fill="#37474f"/>
        <path id="Path_23487" data-name="Path 23487" d="M379.712,283.392l11.727-60.926a2.768,2.768,0,0,0-1.244-2.721l-73.823-42.621a1.223,1.223,0,0,0-1.939.882l-11.727,60.933a2.768,2.768,0,0,0,1.244,2.721l73.823,42.621a1.23,1.23,0,0,0,1.939-.889Z" transform="translate(-286.778 -114.986)" fill="#263238" opacity="0.5"/>
        <path id="Path_23488" data-name="Path 23488" d="M333.735,246.485,383.8,275.394l3.042,1.758.14.074a2.009,2.009,0,0,0,.254.1,1.753,1.753,0,0,0,.321.087,1.118,1.118,0,0,0,.207.033.06.06,0,0,0,.047,0,1.794,1.794,0,0,0,.267,0,1.651,1.651,0,0,0,.8-.181,2.982,2.982,0,0,0,1.137-1.812l8.437-43.8a1.4,1.4,0,0,0,0-.287,1.467,1.467,0,0,0,0-.241h0a1.659,1.659,0,0,0-.08-.361,3.079,3.079,0,0,0-.147-.341c-.04-.067-.08-.14-.127-.207a1.3,1.3,0,0,0-.174-.207.82.82,0,0,0-.174-.167,1.764,1.764,0,0,0-.194-.14l-53.1-30.667-.154-.067-.154-.067a.194.194,0,0,0-.067,0,.668.668,0,0,0-.194,0,2.387,2.387,0,0,0-.943.448l-1.177.669h0a.668.668,0,0,0-.241.167.929.929,0,0,0-.214.361,1.2,1.2,0,0,0-.047.181l-8.437,43.838A2.006,2.006,0,0,0,333.735,246.485Z" transform="translate(-296.767 -122.277)" fill="#f34d4d"/>
        <path id="Path_23489" data-name="Path 23489" d="M333.735,246.485,383.8,275.394l3.042,1.758.14.074a2.009,2.009,0,0,0,.254.1,1.753,1.753,0,0,0,.321.087,1.118,1.118,0,0,0,.207.033.06.06,0,0,0,.047,0,1.794,1.794,0,0,0,.267,0,1.651,1.651,0,0,0,.8-.181,2.982,2.982,0,0,0,1.137-1.812l8.437-43.8a1.4,1.4,0,0,0,0-.287,1.467,1.467,0,0,0,0-.241h0a1.659,1.659,0,0,0-.08-.361,3.079,3.079,0,0,0-.147-.341c-.04-.067-.08-.14-.127-.207a1.3,1.3,0,0,0-.174-.207.82.82,0,0,0-.174-.167,1.764,1.764,0,0,0-.194-.14l-53.1-30.667-.154-.067-.154-.067a.194.194,0,0,0-.067,0,.668.668,0,0,0-.194,0,2.387,2.387,0,0,0-.943.448l-1.177.669h0a.668.668,0,0,0-.241.167.929.929,0,0,0-.214.361,1.2,1.2,0,0,0-.047.181l-8.437,43.838A2.006,2.006,0,0,0,333.735,246.485Z" transform="translate(-296.767 -122.277)" fill="#f34d4d"/>
        <path id="Path_23490" data-name="Path 23490" d="M413.84,292.853a2.26,2.26,0,0,0,1.9.067,2.982,2.982,0,0,0,1.137-1.812l8.437-43.831a2.005,2.005,0,0,0-.221-1.237l-1.785,1.03a1.939,1.939,0,0,1,.227,1.237l-8.444,43.838a.869.869,0,0,1-1.25.709Z" transform="translate(-323.621 -137.904)" fill="#e0e0e0"/>
        <path id="Path_23491" data-name="Path 23491" d="M347.417,199.288l-1.177.669h0a.9.9,0,0,1,.883.08l53.111,30.687a1.732,1.732,0,0,1,.669.715l1.792-1.03c-.04-.067-.08-.14-.127-.207a1.3,1.3,0,0,0-.174-.207,1.6,1.6,0,0,0-.368-.308l-53.118-30.66a2.375,2.375,0,0,0-.294-.14.194.194,0,0,0-.067,0,.669.669,0,0,0-.194,0A2.387,2.387,0,0,0,347.417,199.288Z" transform="translate(-301.216 -122.274)" fill="#fafafa"/>
        <path id="Path_23492" data-name="Path 23492" d="M388.241,277.015l8.437-43.838a2.006,2.006,0,0,0-.9-1.952l-53.1-30.667a.883.883,0,0,0-1.4.669l-8.431,43.838a2.006,2.006,0,0,0,.889,1.952l53.111,30.667a.882.882,0,0,0,1.391-.669Z" transform="translate(-296.772 -122.775)" fill="#f5f5f5"/>
        <g id="freepik--Document--inject-12">
          <path id="Path_23493" data-name="Path 23493" d="M331.114,195.615a1.538,1.538,0,0,0,.669-1.223V114.679a1.584,1.584,0,0,0-.722-1.25L280.971,84.52a1.337,1.337,0,0,0-2.073,1.2v79.713a1.585,1.585,0,0,0,.722,1.25L329.676,195.6A1.551,1.551,0,0,0,331.114,195.615Z" transform="translate(-278.896 -84.297)" fill="#ebebeb"/>
          <path id="Path_23494" data-name="Path 23494" d="M278.91,85.626c.067-.368.361-.495.722-.287l50.062,28.875a1.424,1.424,0,0,1,.508.542l1.337-.782a1.564,1.564,0,0,0-.515-.548L280.976,84.557a1.551,1.551,0,0,0-1.4,0A1.625,1.625,0,0,0,278.91,85.626Z" transform="translate(-278.9 -84.328)" fill="#fafafa"/>
          <path id="Path_23495" data-name="Path 23495" d="M355,210.352a1.558,1.558,0,0,0,1.3,0,1.538,1.538,0,0,0,.669-1.223v-79.74a1.491,1.491,0,0,0-.207-.709l-1.337.782a1.431,1.431,0,0,1,.214.709v79.713A.434.434,0,0,1,355,210.352Z" transform="translate(-304.119 -99.007)" fill="#e0e0e0"/>
          <path id="Path_23496" data-name="Path 23496" d="M329.691,196.042l-50.049-28.909a1.585,1.585,0,0,1-.722-1.25V86.17c0-.461.321-.669.722-.415l50.049,28.875a1.585,1.585,0,0,1,.722,1.25v79.74C330.413,196.082,330.092,196.27,329.691,196.042Z" transform="translate(-278.904 -84.744)" fill="#f5f5f5"/>
          <g id="Group_9665" data-name="Group 9665" transform="translate(3.66 13.512)" opacity="0.3">
            <path id="Path_23497" data-name="Path 23497" d="M328.569,170.413c0,.615-.555.8-1.23.4L285.6,146.746a2.48,2.48,0,0,1-1.23-1.818c0-.615.555-.8,1.23-.4l41.739,24.068A2.48,2.48,0,0,1,328.569,170.413Z" transform="translate(-284.37 -117.702)" fill="#455a64"/>
            <path id="Path_23498" data-name="Path 23498" d="M328.569,180.375c0,.608-.555.789-1.23.4L285.6,156.707a2.46,2.46,0,0,1-1.23-1.818c0-.615.555-.789,1.23-.4l41.739,24.1A2.46,2.46,0,0,1,328.569,180.375Z" transform="translate(-284.37 -121.004)" fill="#455a64"/>
            <path id="Path_23499" data-name="Path 23499" d="M328.569,190.323c0,.615-.555.8-1.23.4L285.6,166.656a2.48,2.48,0,0,1-1.23-1.818c0-.615.555-.8,1.23-.4L327.339,188.5A2.48,2.48,0,0,1,328.569,190.323Z" transform="translate(-284.37 -124.301)" fill="#455a64"/>
            <path id="Path_23500" data-name="Path 23500" d="M328.569,200.286c0,.615-.555.789-1.23.4L285.6,176.618a2.46,2.46,0,0,1-1.23-1.819c0-.608.555-.789,1.23-.4l41.739,24.1A2.46,2.46,0,0,1,328.569,200.286Z" transform="translate(-284.37 -127.604)" fill="#455a64"/>
            <path id="Path_23501" data-name="Path 23501" d="M328.569,140.543c0,.615-.555.8-1.23.4L285.6,116.876a2.48,2.48,0,0,1-1.23-1.819c0-.615.555-.8,1.23-.4l41.739,24.068A2.48,2.48,0,0,1,328.569,140.543Z" transform="translate(-284.37 -107.802)" fill="#455a64"/>
            <path id="Path_23502" data-name="Path 23502" d="M328.569,150.506c0,.615-.555.789-1.23.4L285.6,126.839a2.46,2.46,0,0,1-1.23-1.818c0-.608.555-.789,1.23-.394l41.739,24.068A2.474,2.474,0,0,1,328.569,150.506Z" transform="translate(-284.37 -111.106)" fill="#455a64"/>
            <path id="Path_23503" data-name="Path 23503" d="M328.569,130.6c0,.615-.555.8-1.23.4L285.6,106.936a2.48,2.48,0,0,1-1.23-1.819c0-.615.555-.8,1.23-.4l41.739,24.068A2.48,2.48,0,0,1,328.569,130.6Z" transform="translate(-284.37 -104.507)" fill="#455a64"/>
            <path id="Path_23504" data-name="Path 23504" d="M328.569,160.46c0,.608-.555.789-1.23.394L285.6,136.786a2.474,2.474,0,0,1-1.23-1.818c0-.615.555-.8,1.23-.4l41.739,24.068A2.48,2.48,0,0,1,328.569,160.46Z" transform="translate(-284.37 -114.401)" fill="#455a64"/>
            <path id="Path_23505" data-name="Path 23505" d="M328.569,210.24c0,.608-.555.789-1.23.394L285.6,186.566a2.48,2.48,0,0,1-1.23-1.818c0-.615.555-.8,1.23-.4l41.739,24.068A2.48,2.48,0,0,1,328.569,210.24Z" transform="translate(-284.37 -130.899)" fill="#455a64"/>
            <path id="Path_23506" data-name="Path 23506" d="M328.569,220.2c0,.615-.555.8-1.23.4L285.6,196.529a2.46,2.46,0,0,1-1.23-1.819c0-.608.555-.789,1.23-.394l41.739,24.068a2.474,2.474,0,0,1,1.23,1.812Z" transform="translate(-284.37 -134.204)" fill="#455a64"/>
          </g>
        </g>
        <path id="Path_23507" data-name="Path 23507" d="M300.1,185.756a1.17,1.17,0,0,1,.455-1.043.768.768,0,0,1,.114-.074l2.393-1.391h0a1.157,1.157,0,0,1,1.163.12l47.849,27.592,1.4-5.623a1.558,1.558,0,0,1,.669-.916h0l2.487-1.451h0a1.464,1.464,0,0,1,1.511.04L378.5,214.758a3.657,3.657,0,0,1,1.658,2.868v67.893a1.177,1.177,0,0,1-.448,1.043h0l-2.561,1.491h0a1.19,1.19,0,0,1-1.13-.14l-74.291-42.9a3.657,3.657,0,0,1-1.658-2.868Z" transform="translate(-285.913 -117.059)" fill="#f34d4d"/>
        <path id="Path_23508" data-name="Path 23508" d="M381,214.133a1.464,1.464,0,0,1,1.484.067l20.378,11.747a3.476,3.476,0,0,1,1.17,1.237l2.48-1.444a3.343,3.343,0,0,0-1.17-1.237l-20.331-11.747a1.478,1.478,0,0,0-1.518-.04h0Z" transform="translate(-312.736 -126.797)" fill="#455a64"/>
        <path id="Path_23509" data-name="Path 23509" d="M301,184.651a1.264,1.264,0,0,1,1.09.16l47.876,27.665a1.444,1.444,0,0,0,2.206-.876l.221-.6L304.55,183.4a1.464,1.464,0,0,0-.735-.221.883.883,0,0,0-.428.107h0Z" transform="translate(-286.222 -117.07)" fill="#455a64"/>
        <path id="Path_23510" data-name="Path 23510" d="M300.1,186.477l-.033,56.38a3.657,3.657,0,0,0,1.658,2.868l74.512,43a.976.976,0,0,0,1.464-.849V219.791a3.343,3.343,0,0,0-.481-1.625,3.483,3.483,0,0,0-1.17-1.237l-20.365-11.773a1.484,1.484,0,0,0-1.484-.067h-.047a1.544,1.544,0,0,0-.669.916l-1.4,5.616-.221.608a1.444,1.444,0,0,1-2.206.876l-47.9-27.585a1.23,1.23,0,0,0-1.083-.16l-.067.04h-.04a1.183,1.183,0,0,0-.468,1.076Z" transform="translate(-285.913 -117.773)" fill="#37474f"/>
        <path id="Path_23511" data-name="Path 23511" d="M351.857,266.062a.8.8,0,0,1,1.05.374l2.22,4.68v-8.324a.789.789,0,1,1,1.571,0v10.029l2.393-2.3a.775.775,0,0,1,1.11,0,.789.789,0,0,1,0,1.11l-3.717,3.577a.782.782,0,0,1-.669.207.769.769,0,0,1-.562-.441l-3.724-7.869A.789.789,0,0,1,351.857,266.062Z" transform="translate(-302.941 -143.171)" fill="#f34d4d"/>
        <path id="Path_23512" data-name="Path 23512" d="M360.436,264.38a.782.782,0,0,1-.789-.782v-4.733l-9.113-5.262v3.831a.782.782,0,0,1-1.564,0v-5.188a.776.776,0,0,1,.388-.669.762.762,0,0,1,.394-.107.775.775,0,0,1,.395.107l10.7,6.164a.782.782,0,0,1,.394.669v5.181a.782.782,0,0,1-.8.789Z" transform="translate(-302.121 -139.704)" fill="#f34d4d"/>
        <path id="Path_23513" data-name="Path 23513" d="M415.28,304.361a.154.154,0,0,0,.074,0l2.561-1.484a1.217,1.217,0,0,0,.448-1.056v-67.9a3.342,3.342,0,0,0-.488-1.631l-2.48,1.444h0a3.343,3.343,0,0,1,.488,1.631v68.1a.963.963,0,0,1-.6.9Z" transform="translate(-324.098 -133.347)" fill="#263238"/>
      </g>
      <g id="freepik--folder-green--inject-12">
        <path id="Path_23514" data-name="Path 23514" d="M150.8,240.947,81.2,281.134l-4.225,2.44-.194.1a2.3,2.3,0,0,1-.354.14,4.377,4.377,0,0,1-.735.174.087.087,0,0,1-.06,0,3.42,3.42,0,0,1-.374,0,2.274,2.274,0,0,1-1.11-.241,4.138,4.138,0,0,1-1.585-2.52L60.826,220.321a2.006,2.006,0,0,1-.04-.4,1.806,1.806,0,0,1,0-.328h0a2.961,2.961,0,0,1,.114-.495,5.209,5.209,0,0,1,.207-.481l.174-.287a3.308,3.308,0,0,1,.241-.294,2.559,2.559,0,0,1,.241-.227,2.626,2.626,0,0,1,.281-.194l73.823-42.621a1.765,1.765,0,0,1,.194-.1l.207-.094a.442.442,0,0,1,.1-.033.929.929,0,0,1,.267,0,3.343,3.343,0,0,1,1.337.615l1.638.963h0a.849.849,0,0,1,.328.234,1.257,1.257,0,0,1,.3.5,1.337,1.337,0,0,1,.067.254l11.733,60.926A2.761,2.761,0,0,1,150.8,240.947Z" transform="translate(-60.779 -114.278)" fill="#f34d4d"/>
        <path id="Path_23515" data-name="Path 23515" d="M150.8,240.947,81.2,281.134l-4.225,2.44-.194.1a2.3,2.3,0,0,1-.354.14,4.377,4.377,0,0,1-.735.174.087.087,0,0,1-.06,0,3.42,3.42,0,0,1-.374,0,2.274,2.274,0,0,1-1.11-.241,4.138,4.138,0,0,1-1.585-2.52L60.826,220.321a2.006,2.006,0,0,1-.04-.4,1.806,1.806,0,0,1,0-.328h0a2.961,2.961,0,0,1,.114-.495,5.209,5.209,0,0,1,.207-.481l.174-.287a3.308,3.308,0,0,1,.241-.294,2.559,2.559,0,0,1,.241-.227,2.626,2.626,0,0,1,.281-.194l73.823-42.621a1.765,1.765,0,0,1,.194-.1l.207-.094a.442.442,0,0,1,.1-.033.929.929,0,0,1,.267,0,3.343,3.343,0,0,1,1.337.615l1.638.963h0a.849.849,0,0,1,.328.234,1.257,1.257,0,0,1,.3.5,1.337,1.337,0,0,1,.067.254l11.733,60.926A2.761,2.761,0,0,1,150.8,240.947Z" transform="translate(-60.779 -114.278)" fill="#f34d4d"/>
        <path id="Path_23516" data-name="Path 23516" d="M76.779,305.412a3.129,3.129,0,0,1-2.634.1,4.138,4.138,0,0,1-1.584-2.52L60.834,242.058a2.674,2.674,0,0,1,.308-1.718l2.467,1.431a2.714,2.714,0,0,0-.314,1.718l11.747,60.94a1.21,1.21,0,0,0,1.738.983Z" transform="translate(-60.786 -136.015)" opacity="0.2"/>
        <path id="Path_23517" data-name="Path 23517" d="M138.138,175.334l1.638.963h0a1.3,1.3,0,0,0-1.237.107L64.716,219.038a2.527,2.527,0,0,0-.949.989L61.28,218.6l.174-.287a3.3,3.3,0,0,1,.241-.294,2.44,2.44,0,0,1,.521-.421l73.823-42.621a2.773,2.773,0,0,1,.4-.194.442.442,0,0,1,.1-.033.93.93,0,0,1,.267,0A3.343,3.343,0,0,1,138.138,175.334Z" transform="translate(-60.945 -114.272)" fill="#fff" opacity="0.1"/>
        <path id="Path_23518" data-name="Path 23518" d="M76.273,283.4,64.547,222.469a2.768,2.768,0,0,1,1.244-2.714l73.823-42.621a1.223,1.223,0,0,1,1.939.882l11.727,60.933a2.768,2.768,0,0,1-1.244,2.721L78.212,284.285a1.23,1.23,0,0,1-1.939-.889Z" transform="translate(-62.019 -114.989)" fill="#f34d4d"/>
        <path id="Path_23519" data-name="Path 23519" d="M76.273,283.4,64.547,222.469a2.768,2.768,0,0,1,1.244-2.714l73.823-42.621a1.223,1.223,0,0,1,1.939.882l11.727,60.933a2.768,2.768,0,0,1-1.244,2.721L78.212,284.285a1.23,1.23,0,0,1-1.939-.889Z" transform="translate(-62.019 -114.989)" opacity="0.15"/>
        <path id="Path_23520" data-name="Path 23520" d="M133.72,246.485,83.651,275.394l-3.042,1.792-.14.074a2.011,2.011,0,0,1-.254.1,1.754,1.754,0,0,1-.321.087,1.118,1.118,0,0,1-.207.033.06.06,0,0,1-.047,0,1.8,1.8,0,0,1-.267,0,1.652,1.652,0,0,1-.8-.181,2.982,2.982,0,0,1-1.137-1.812L69,231.65a1.4,1.4,0,0,1,0-.287,1.466,1.466,0,0,1,0-.241h0a1.658,1.658,0,0,1,.08-.361,3.084,3.084,0,0,1,.147-.341c.04-.067.08-.14.127-.207a1.3,1.3,0,0,1,.174-.207.822.822,0,0,1,.174-.167,1.768,1.768,0,0,1,.194-.14L123,199.037l.147-.074.154-.067a.194.194,0,0,1,.067,0,.668.668,0,0,1,.194,0,2.387,2.387,0,0,1,.943.448l1.177.669h0a.668.668,0,0,1,.241.167.929.929,0,0,1,.214.361,1.2,1.2,0,0,1,.047.181l8.437,43.838A2.006,2.006,0,0,1,133.72,246.485Z" transform="translate(-63.5 -122.277)" fill="#f34d4d"/>
        <path id="Path_23521" data-name="Path 23521" d="M133.72,246.485,83.651,275.394l-3.042,1.792-.14.074a2.011,2.011,0,0,1-.254.1,1.754,1.754,0,0,1-.321.087,1.118,1.118,0,0,1-.207.033.06.06,0,0,1-.047,0,1.8,1.8,0,0,1-.267,0,1.652,1.652,0,0,1-.8-.181,2.982,2.982,0,0,1-1.137-1.812L69,231.65a1.4,1.4,0,0,1,0-.287,1.466,1.466,0,0,1,0-.241h0a1.658,1.658,0,0,1,.08-.361,3.084,3.084,0,0,1,.147-.341c.04-.067.08-.14.127-.207a1.3,1.3,0,0,1,.174-.207.822.822,0,0,1,.174-.167,1.768,1.768,0,0,1,.194-.14L123,199.037l.147-.074.154-.067a.194.194,0,0,1,.067,0,.668.668,0,0,1,.194,0,2.387,2.387,0,0,1,.943.448l1.177.669h0a.668.668,0,0,1,.241.167.929.929,0,0,1,.214.361,1.2,1.2,0,0,1,.047.181l8.437,43.838A2.006,2.006,0,0,1,133.72,246.485Z" transform="translate(-63.5 -122.277)" fill="#f34d4d"/>
        <path id="Path_23522" data-name="Path 23522" d="M80.463,292.853a2.26,2.26,0,0,1-1.9.067,2.982,2.982,0,0,1-1.137-1.812L68.99,247.277a2.006,2.006,0,0,1,.221-1.237L71,247.07a1.939,1.939,0,0,0-.227,1.237l8.444,43.838a.869.869,0,0,0,1.25.709Z" transform="translate(-63.494 -137.904)" fill="#e0e0e0"/>
        <path id="Path_23523" data-name="Path 23523" d="M124.6,199.274l1.177.669h0a.9.9,0,0,0-.883.08L71.784,230.71a1.732,1.732,0,0,0-.669.715l-1.785-1.056c.04-.067.08-.14.127-.207a1.3,1.3,0,0,1,.174-.207,1.6,1.6,0,0,1,.368-.308l53.111-30.66a2.377,2.377,0,0,1,.294-.14.194.194,0,0,1,.067,0,.668.668,0,0,1,.194,0A2.387,2.387,0,0,1,124.6,199.274Z" transform="translate(-63.613 -122.261)" fill="#fafafa"/>
        <path id="Path_23524" data-name="Path 23524" d="M80.1,277.015l-8.437-43.838a2.006,2.006,0,0,1,.889-1.952l53.1-30.667a.883.883,0,0,1,1.4.669l8.431,43.838a2.006,2.006,0,0,1-.889,1.952l-53.1,30.667a.882.882,0,0,1-1.391-.669Z" transform="translate(-64.379 -122.775)" fill="#f5f5f5"/>
        <g id="freepik--document--inject-12-2" data-name="freepik--document--inject-12" transform="translate(54.302)">
          <path id="Path_23525" data-name="Path 23525" d="M142.669,195.615a1.538,1.538,0,0,1-.669-1.223V114.679a1.585,1.585,0,0,1,.722-1.25L192.811,84.52a1.337,1.337,0,0,1,2.073,1.2v79.713a1.585,1.585,0,0,1-.722,1.25L144.106,195.6a1.551,1.551,0,0,1-1.437.02Z" transform="translate(-142 -84.297)" fill="#ebebeb"/>
          <path id="Path_23526" data-name="Path 23526" d="M195,85.626c-.067-.368-.361-.495-.715-.287l-50.069,28.875a1.424,1.424,0,0,0-.508.542l-1.337-.782a1.564,1.564,0,0,1,.515-.548l50.049-28.869a1.551,1.551,0,0,1,1.4,0A1.625,1.625,0,0,1,195,85.626Z" transform="translate(-142.123 -84.328)" fill="#fafafa"/>
          <path id="Path_23527" data-name="Path 23527" d="M144.006,210.352a1.558,1.558,0,0,1-1.337,0,1.538,1.538,0,0,1-.669-1.223v-79.74a1.491,1.491,0,0,1,.207-.709l1.337.782a1.43,1.43,0,0,0-.214.709v79.713C143.371,210.305,143.651,210.506,144.006,210.352Z" transform="translate(-142 -99.007)" fill="#e0e0e0"/>
          <path id="Path_23528" data-name="Path 23528" d="M144.782,196.042l50.049-28.909a1.585,1.585,0,0,0,.722-1.25V86.17c0-.461-.321-.669-.722-.415l-50.049,28.875a1.585,1.585,0,0,0-.722,1.25v79.74C144.06,196.082,144.381,196.27,144.782,196.042Z" transform="translate(-142.683 -84.744)" fill="#f5f5f5"/>
          <g id="Group_9666" data-name="Group 9666" transform="translate(5.028 13.512)" opacity="0.3">
            <path id="Path_23529" data-name="Path 23529" d="M149.52,170.413c0,.615.555.8,1.23.4l41.739-24.068a2.48,2.48,0,0,0,1.23-1.818c0-.615-.555-.8-1.23-.4L150.75,168.595a2.48,2.48,0,0,0-1.23,1.818Z" transform="translate(-149.52 -117.702)" fill="#455a64"/>
            <path id="Path_23530" data-name="Path 23530" d="M149.52,180.375c0,.608.555.789,1.23.4l41.739-24.068a2.46,2.46,0,0,0,1.23-1.818c0-.615-.555-.789-1.23-.4l-41.739,24.1a2.46,2.46,0,0,0-1.23,1.785Z" transform="translate(-149.52 -121.004)" fill="#455a64"/>
            <path id="Path_23531" data-name="Path 23531" d="M149.52,190.323c0,.615.555.8,1.23.4l41.739-24.068a2.48,2.48,0,0,0,1.23-1.818c0-.615-.555-.8-1.23-.4L150.75,188.5a2.48,2.48,0,0,0-1.23,1.819Z" transform="translate(-149.52 -124.301)" fill="#455a64"/>
            <path id="Path_23532" data-name="Path 23532" d="M149.52,200.286c0,.615.555.789,1.23.4l41.739-24.068a2.46,2.46,0,0,0,1.23-1.819c0-.608-.555-.789-1.23-.4L150.75,198.467a2.46,2.46,0,0,0-1.23,1.818Z" transform="translate(-149.52 -127.604)" fill="#455a64"/>
            <path id="Path_23533" data-name="Path 23533" d="M149.52,140.543c0,.615.555.8,1.23.4l41.739-24.068a2.48,2.48,0,0,0,1.23-1.819c0-.615-.555-.8-1.23-.4L150.75,138.725a2.48,2.48,0,0,0-1.23,1.818Z" transform="translate(-149.52 -107.802)" fill="#455a64"/>
            <path id="Path_23534" data-name="Path 23534" d="M149.52,150.506c0,.615.555.789,1.23.4l41.739-24.068a2.46,2.46,0,0,0,1.23-1.818c0-.608-.555-.789-1.23-.394L150.75,148.695a2.474,2.474,0,0,0-1.23,1.812Z" transform="translate(-149.52 -111.106)" fill="#455a64"/>
            <path id="Path_23535" data-name="Path 23535" d="M149.52,130.6c0,.615.555.8,1.23.4l41.739-24.068a2.48,2.48,0,0,0,1.23-1.819c0-.615-.555-.8-1.23-.4L150.75,128.785a2.48,2.48,0,0,0-1.23,1.818Z" transform="translate(-149.52 -104.507)" fill="#455a64"/>
            <path id="Path_23536" data-name="Path 23536" d="M149.52,160.46c0,.608.555.789,1.23.394l41.739-24.068a2.474,2.474,0,0,0,1.23-1.818c0-.615-.555-.8-1.23-.4L150.75,158.635a2.48,2.48,0,0,0-1.23,1.825Z" transform="translate(-149.52 -114.401)" fill="#455a64"/>
            <path id="Path_23537" data-name="Path 23537" d="M149.52,210.24c0,.608.555.789,1.23.394l41.739-24.068a2.48,2.48,0,0,0,1.23-1.818c0-.615-.555-.8-1.23-.4L150.75,208.415a2.48,2.48,0,0,0-1.23,1.825Z" transform="translate(-149.52 -130.899)" fill="#455a64"/>
            <path id="Path_23538" data-name="Path 23538" d="M149.52,220.2c0,.615.555.8,1.23.4l41.739-24.068a2.46,2.46,0,0,0,1.23-1.819c0-.608-.555-.789-1.23-.394L150.75,218.385a2.474,2.474,0,0,0-1.23,1.812Z" transform="translate(-149.52 -134.204)" fill="#455a64"/>
          </g>
        </g>
        <path id="Path_23539" data-name="Path 23539" d="M160.181,185.756a1.17,1.17,0,0,0-.455-1.043.77.77,0,0,0-.114-.074l-2.393-1.391h0a1.157,1.157,0,0,0-1.163.12l-47.849,27.592-1.431-5.629a1.558,1.558,0,0,0-.669-.916h0l-2.487-1.451h0a1.464,1.464,0,0,0-1.511.04l-20.344,11.76a3.657,3.657,0,0,0-1.658,2.868v67.886a1.177,1.177,0,0,0,.448,1.043h0l2.561,1.491h0a1.19,1.19,0,0,0,1.13-.14l74.311-42.9a3.657,3.657,0,0,0,1.658-2.868Z" transform="translate(-67.183 -117.059)" fill="#f34d4d"/>
        <path id="Path_23540" data-name="Path 23540" d="M106.352,214.133a1.464,1.464,0,0,0-1.484.067L84.49,225.947a3.476,3.476,0,0,0-1.17,1.237l-2.48-1.444a3.343,3.343,0,0,1,1.17-1.237l20.331-11.747a1.478,1.478,0,0,1,1.518-.04h0Z" transform="translate(-67.428 -126.797)" fill="#fff" opacity="0.4"/>
        <path id="Path_23541" data-name="Path 23541" d="M173.523,184.651a1.264,1.264,0,0,0-1.09.16l-47.869,27.665a1.451,1.451,0,0,1-2.213-.876l-.221-.6,47.849-27.6a1.424,1.424,0,0,1,.729-.221.883.883,0,0,1,.428.107h0Z" transform="translate(-81.113 -117.07)" fill="#fff" opacity="0.4"/>
        <path id="Path_23542" data-name="Path 23542" d="M161.41,186.453l.033,56.38a3.657,3.657,0,0,1-1.658,2.868l-74.512,43a.976.976,0,0,1-1.464-.849V219.768a3.343,3.343,0,0,1,.481-1.625,3.483,3.483,0,0,1,1.17-1.237l20.365-11.773a1.484,1.484,0,0,1,1.484-.067h.047a1.544,1.544,0,0,1,.669.916l1.4,5.616.221.608a1.444,1.444,0,0,0,2.206.876l47.9-27.632a1.23,1.23,0,0,1,1.083-.16l.067.04h.04a1.183,1.183,0,0,1,.475,1.123Z" transform="translate(-68.412 -117.75)" fill="#f34d4d"/>
        <path id="Path_23543" data-name="Path 23543" d="M135.583,260.817a.836.836,0,0,0,.334.074.789.789,0,0,0,.709-.448l2.226-4.713v8.357a.789.789,0,0,0,1.571,0V254.058l2.387,2.3a.785.785,0,0,0,1.09-1.13l-3.717-3.577a.789.789,0,0,0-1.257.227l-3.717,7.876a.782.782,0,0,0,.374,1.063Z" transform="translate(-85.42 -139.691)" fill="#263238"/>
        <path id="Path_23544" data-name="Path 23544" d="M144.176,261.79a.782.782,0,0,0-.782.782v4.707l-9.113,5.262v-3.824a.789.789,0,0,0-1.571,0V273.9a.782.782,0,0,0,.394.669.769.769,0,0,0,.782,0l10.7-6.171a.775.775,0,0,0,.388-.669V262.6a.782.782,0,0,0-.8-.809Z" transform="translate(-84.619 -143.124)" fill="#263238"/>
        <path id="Path_23545" data-name="Path 23545" d="M83.19,304.361a.154.154,0,0,1-.074,0l-2.561-1.484a1.217,1.217,0,0,1-.448-1.056v-67.9a3.343,3.343,0,0,1,.488-1.631l2.48,1.444h0a3.343,3.343,0,0,0-.488,1.631v68.1A.963.963,0,0,0,83.19,304.361Z" transform="translate(-67.183 -133.347)" opacity="0.2"/>
      </g>
    </g>
    <g id="freepik--Arrow--inject-12" transform="translate(115.272 237.394)">
      <g id="freepik--arrow--inject-12-2" data-name="freepik--arrow--inject-12">
        <path id="Path_23546" data-name="Path 23546" d="M304.12,315.25v5.094l19.622,21.274v-5.094Z" transform="translate(-205.339 -313.94)" fill="#f34d4d"/>
        <path id="Path_23547" data-name="Path 23547" d="M304.12,315.25v5.094l19.622,21.274v-5.094Z" transform="translate(-205.339 -313.94)" opacity="0.15"/>
        <path id="Path_23548" data-name="Path 23548" d="M335.369,318.514V313.42l-1.9,22.5v5.094Z" transform="translate(-215.067 -313.333)" fill="#f34d4d"/>
        <path id="Path_23549" data-name="Path 23549" d="M335.369,318.514V313.42l-1.9,22.5v5.094Z" transform="translate(-215.067 -313.333)" opacity="0.2"/>
        <path id="Path_23550" data-name="Path 23550" d="M210.577,351.251c-22.878-1.919-43.871-11.118-54.207-24.49l.394-4.68,8.023-1.852c10.523,13.605,36.256,22.216,61.2,20.471,14.755-1.036,27.5-5.569,34.946-12.442l7.642,3.182-.388,4.68c-9.36,8.611-24.068,14.04-41.451,15.243a105.237,105.237,0,0,1-16.159-.114Z" transform="translate(-156.37 -315.59)" fill="#f34d4d"/>
        <g id="Group_9667" data-name="Group 9667" transform="translate(0 4.64)" opacity="0.15">
          <path id="Path_23551" data-name="Path 23551" d="M210.577,351.251c-22.878-1.919-43.871-11.118-54.207-24.49l.394-4.68,8.023-1.852c10.523,13.605,36.256,22.216,61.2,20.471,14.755-1.036,27.5-5.569,34.946-12.442l7.642,3.182-.388,4.68c-9.36,8.611-24.068,14.04-41.451,15.243a105.237,105.237,0,0,1-16.159-.114Z" transform="translate(-156.37 -320.23)"/>
        </g>
        <path id="Path_23552" data-name="Path 23552" d="M276.881,313.377,255.359,314.6l6.2,6.719c-7.455,6.873-20.191,11.406-34.953,12.442-24.938,1.745-50.677-6.866-61.194-20.471L157,319.815c10.336,13.371,31.329,22.544,54.207,24.463a105.237,105.237,0,0,0,16.173.12c17.383-1.217,32.091-6.632,41.451-15.243l6.2,6.719Z" transform="translate(-156.579 -313.29)" fill="#f34d4d"/>
      </g>
    </g>
  </g>
</svg>
