<svg id="Iconly_Bulk_Message" data-name="Iconly/Bulk/Message" xmlns="http://www.w3.org/2000/svg" width="14.544" height="13.542" viewBox="0 0 14.544 13.542">
  <path id="Fill_1" data-name="Fill 1" d="M14.544,5.374a3.736,3.736,0,0,1-3.658,3.807H3.672A3.735,3.735,0,0,1,0,5.389V5.381s0-3.33.01-5A.362.362,0,0,1,.6.082c1.728,1.418,4.818,4,4.856,4.038a2.9,2.9,0,0,0,1.84.67,2.859,2.859,0,0,0,1.84-.678c.039-.026,3.059-2.535,4.813-3.976a.363.363,0,0,1,.59.293c.007,1.662.007,4.945.007,4.945" transform="translate(0 4.362)" fill="#d8d7d7" opacity="0.4"/>
  <path id="Fill_4" data-name="Fill 4" d="M13.8,2.012A3.647,3.647,0,0,0,10.564,0H3.307A3.647,3.647,0,0,0,.073,2.012a.665.665,0,0,0,.161.811l5.4,4.468a2.013,2.013,0,0,0,1.294.473h.015a2.013,2.013,0,0,0,1.294-.473l5.4-4.468a.665.665,0,0,0,.161-.811" transform="translate(0.366)" fill="#d8d7d7"/>
</svg>
