<svg width="48" height="48" viewBox="0 0 48 48" fill="none" xmlns="http://www.w3.org/2000/svg">
<g filter="url(#filter0_i_39_1544)">
<path d="M6.66309 31.3281C6.66309 21.8016 14.3866 14.0781 23.9131 14.0781H24.7576C34.2826 14.0781 42.0076 21.8016 42.0076 31.3281V31.7571C42.0076 35.258 40.6169 38.6155 38.1414 41.0909C35.6659 43.5664 32.3084 44.9571 28.8076 44.9571H19.8631C16.3622 44.9571 13.0048 43.5664 10.5293 41.0909C8.0538 38.6155 6.66309 35.258 6.66309 31.7571V31.3281Z" fill="url(#paint0_radial_39_1544)"/>
<path d="M6.66309 31.3281C6.66309 21.8016 14.3866 14.0781 23.9131 14.0781H24.7576C34.2826 14.0781 42.0076 21.8016 42.0076 31.3281V31.7571C42.0076 35.258 40.6169 38.6155 38.1414 41.0909C35.6659 43.5664 32.3084 44.9571 28.8076 44.9571H19.8631C16.3622 44.9571 13.0048 43.5664 10.5293 41.0909C8.0538 38.6155 6.66309 35.258 6.66309 31.7571V31.3281Z" fill="url(#paint1_radial_39_1544)"/>
</g>
<path d="M6.66309 31.3281C6.66309 21.8016 14.3866 14.0781 23.9131 14.0781H24.7576C34.2826 14.0781 42.0076 21.8016 42.0076 31.3281V31.7571C42.0076 35.258 40.6169 38.6155 38.1414 41.0909C35.6659 43.5664 32.3084 44.9571 28.8076 44.9571H19.8631C16.3622 44.9571 13.0048 43.5664 10.5293 41.0909C8.0538 38.6155 6.66309 35.258 6.66309 31.7571V31.3281Z" fill="url(#paint2_radial_39_1544)"/>
<path d="M6.66309 31.3281C6.66309 21.8016 14.3866 14.0781 23.9131 14.0781H24.7576C34.2826 14.0781 42.0076 21.8016 42.0076 31.3281V31.7571C42.0076 35.258 40.6169 38.6155 38.1414 41.0909C35.6659 43.5664 32.3084 44.9571 28.8076 44.9571H19.8631C16.3622 44.9571 13.0048 43.5664 10.5293 41.0909C8.0538 38.6155 6.66309 35.258 6.66309 31.7571V31.3281Z" fill="url(#paint3_radial_39_1544)"/>
<g filter="url(#filter1_ii_39_1544)">
<path d="M18.2417 7.04306C18.9467 8.24456 19.9742 9.78656 21.2942 11.0511H27.3767C28.6967 9.78656 29.7227 8.24606 30.4292 7.04306C30.5138 6.89556 30.5672 6.73231 30.5862 6.56338C30.6052 6.39444 30.5894 6.22341 30.5398 6.0608C30.4902 5.8982 30.4078 5.74749 30.2977 5.61794C30.1876 5.48839 30.0522 5.38277 29.8997 5.30756C29.4197 5.06156 28.8557 5.17856 28.3892 5.45006C27.3362 6.06356 26.7287 5.34056 25.8002 3.92006C25.3337 3.20606 24.6212 3.16856 24.3347 3.16406C24.0497 3.16856 23.3372 3.20606 22.8707 3.92006C21.9407 5.34056 21.3347 6.06356 20.2817 5.45006C19.8152 5.17856 19.2512 5.06156 18.7697 5.30756C18.6174 5.3829 18.4821 5.48863 18.3722 5.61824C18.2623 5.74784 18.18 5.89858 18.1306 6.06117C18.0811 6.22376 18.0654 6.39475 18.0846 6.56362C18.1037 6.73249 18.1572 6.89565 18.2417 7.04306Z" fill="url(#paint4_linear_39_1544)"/>
</g>
<g filter="url(#filter2_f_39_1544)">
<path d="M25.1999 21.3875C25.1999 21.0692 25.0735 20.764 24.8484 20.539C24.6234 20.3139 24.3182 20.1875 23.9999 20.1875C23.6817 20.1875 23.3764 20.3139 23.1514 20.539C22.9263 20.764 22.7999 21.0692 22.7999 21.3875V22.52C22.7999 22.7885 22.6199 23.021 22.3694 23.117C21.9367 23.2815 21.5288 23.5051 21.1574 23.7815C20.6105 24.1821 20.1674 24.708 19.8655 25.315C19.5635 25.922 19.4114 26.5926 19.4219 27.2705C19.4219 28.8605 20.1389 30.0125 21.1124 30.7505C22.0394 31.4555 23.1599 31.7585 24.0524 31.8395C24.4154 31.8725 24.9569 31.97 25.4039 32.252C25.7924 32.4965 26.1779 32.915 26.2589 33.812C26.3369 34.67 25.9889 35.18 25.5344 35.5265C25.0094 35.927 24.3989 36.0545 24.2444 36.0545C23.8829 36.0545 23.2634 36.0065 22.7384 35.7215C22.2974 35.4815 21.8234 35.03 21.7244 33.9245C21.696 33.6074 21.5427 33.3147 21.2984 33.1106C21.0541 32.9065 20.7387 32.8078 20.4217 32.8362C20.1046 32.8647 19.8118 33.0179 19.6077 33.2622C19.4036 33.5066 19.305 33.8219 19.3334 34.139C19.5044 36.0575 20.4584 37.214 21.5939 37.832C21.8444 37.967 22.0979 38.0735 22.3454 38.1575C22.4747 38.1979 22.5881 38.2778 22.6696 38.386C22.7511 38.4941 22.7967 38.6251 22.7999 38.7605V39.785C22.7999 40.1033 22.9263 40.4085 23.1514 40.6335C23.3764 40.8586 23.6817 40.985 23.9999 40.985C24.3182 40.985 24.6234 40.8586 24.8484 40.6335C25.0735 40.4085 25.1999 40.1033 25.1999 39.785V38.771C25.1999 38.501 25.3829 38.2655 25.6379 38.171C26.0879 38.006 26.5589 37.763 26.9879 37.436C27.9854 36.6755 28.8149 35.411 28.6499 33.596C28.4969 31.9145 27.6539 30.902 26.6699 30.281C25.9289 29.829 25.096 29.5492 24.2324 29.462C22.8689 29.3915 21.8219 28.6385 21.8219 27.2705C21.8219 26.5175 22.1219 25.9655 22.5629 25.6355C23.4764 24.8615 25.0289 24.9665 25.7624 25.9385C26.0864 26.369 26.2319 26.843 26.2649 27.2705C26.3159 27.9305 26.8874 28.457 27.5489 28.406C28.2089 28.3565 28.7024 27.839 28.6514 27.1775C28.5793 26.2276 28.2397 25.3175 27.6719 24.5525C27.2159 23.9465 26.3534 23.3675 25.6469 23.0765C25.5195 23.0286 25.409 22.9441 25.3295 22.8336C25.2499 22.7231 25.2048 22.5916 25.1999 22.4555V21.3875Z" fill="url(#paint5_linear_39_1544)"/>
</g>
<g filter="url(#filter3_ii_39_1544)">
<path d="M25.5001 21.2313C25.5001 20.913 25.3737 20.6078 25.1487 20.3827C24.9236 20.1577 24.6184 20.0313 24.3001 20.0312C23.9819 20.0313 23.6767 20.1577 23.4516 20.3827C23.2266 20.6078 23.1001 20.913 23.1001 21.2313V22.3638C23.1001 22.6338 22.9201 22.8648 22.6696 22.9608C22.2369 23.1253 21.8291 23.3489 21.4576 23.6252C20.911 24.0261 20.4684 24.5521 20.1667 25.1591C19.865 25.7661 19.7131 26.4365 19.7236 27.1142C19.7236 28.7042 20.4391 29.8563 21.4126 30.5943C22.3396 31.2993 23.4586 31.6038 24.3526 31.6848C24.7156 31.7178 25.2571 31.8138 25.7056 32.0958C26.0926 32.3403 26.4781 32.7587 26.5606 33.6557C26.6386 34.5152 26.2891 35.0253 25.8331 35.3718C25.3081 35.7723 24.6991 35.8983 24.5431 35.8983C24.1831 35.8983 23.5636 35.8502 23.0386 35.5667C22.5976 35.3267 22.1236 34.8737 22.0246 33.7697C22.0107 33.6128 21.9659 33.4601 21.8929 33.3204C21.8199 33.1807 21.7201 33.0567 21.5992 32.9556C21.4783 32.8545 21.3386 32.7782 21.1882 32.731C21.0378 32.6838 20.8796 32.6668 20.7226 32.6807C20.5656 32.6947 20.4129 32.7395 20.2732 32.8125C20.1336 32.8855 20.0096 32.9853 19.9085 33.1062C19.8074 33.2271 19.731 33.3667 19.6839 33.5171C19.6367 33.6675 19.6197 33.8258 19.6336 33.9827C19.8046 35.9027 20.7586 37.0592 21.8941 37.6757C22.1446 37.8107 22.3981 37.9188 22.6456 38.0013C22.9081 38.0913 23.1001 38.3283 23.1001 38.6058V39.6303C23.1001 39.9485 23.2266 40.2537 23.4516 40.4788C23.6767 40.7038 23.9819 40.8303 24.3001 40.8303C24.6184 40.8303 24.9236 40.7038 25.1487 40.4788C25.3737 40.2537 25.5001 39.9485 25.5001 39.6303V38.6163C25.5001 38.3448 25.6831 38.1108 25.9381 38.0163C26.3881 37.8513 26.8591 37.6083 27.2881 37.2813C28.2856 36.5208 29.1151 35.2548 28.9501 33.4398C28.7971 31.7583 27.9541 30.7472 26.9701 30.1247C26.2292 29.6727 25.3962 29.3928 24.5326 29.3057C23.1691 29.2352 22.1221 28.4823 22.1221 27.1158C22.1221 26.3628 22.4221 25.8108 22.8631 25.4808C23.7766 24.7068 25.3291 24.8118 26.0626 25.7838C26.3866 26.2143 26.5321 26.6882 26.5651 27.1142C26.6161 27.7742 27.1876 28.3023 27.8491 28.2513C28.5091 28.2003 29.0026 27.6828 28.9516 27.0213C28.8796 26.0713 28.54 25.1612 27.9721 24.3963C27.5161 23.7918 26.6536 23.2112 25.9471 22.9202C25.8197 22.8724 25.7092 22.7879 25.6297 22.6774C25.5501 22.5669 25.5051 22.4353 25.5001 22.2993V21.2313Z" fill="url(#paint6_linear_39_1544)"/>
</g>
<g filter="url(#filter4_i_39_1544)">
<path d="M27.024 11.0547H21.576C20.7053 11.0547 19.9995 11.7605 19.9995 12.6312V12.6417C19.9995 13.5124 20.7053 14.2182 21.576 14.2182H27.024C27.8947 14.2182 28.6005 13.5124 28.6005 12.6417V12.6312C28.6005 11.7605 27.8947 11.0547 27.024 11.0547Z" fill="url(#paint7_linear_39_1544)"/>
<path d="M27.024 11.0547H21.576C20.7053 11.0547 19.9995 11.7605 19.9995 12.6312V12.6417C19.9995 13.5124 20.7053 14.2182 21.576 14.2182H27.024C27.8947 14.2182 28.6005 13.5124 28.6005 12.6417V12.6312C28.6005 11.7605 27.8947 11.0547 27.024 11.0547Z" fill="url(#paint8_radial_39_1544)"/>
</g>
<path d="M27.024 11.0547H21.576C20.7053 11.0547 19.9995 11.7605 19.9995 12.6312V12.6417C19.9995 13.5124 20.7053 14.2182 21.576 14.2182H27.024C27.8947 14.2182 28.6005 13.5124 28.6005 12.6417V12.6312C28.6005 11.7605 27.8947 11.0547 27.024 11.0547Z" fill="url(#paint9_radial_39_1544)"/>
<defs>
<filter id="filter0_i_39_1544" x="6.66309" y="12.5781" width="36.3447" height="32.3828" filterUnits="userSpaceOnUse" color-interpolation-filters="sRGB">
<feFlood flood-opacity="0" result="BackgroundImageFix"/>
<feBlend mode="normal" in="SourceGraphic" in2="BackgroundImageFix" result="shape"/>
<feColorMatrix in="SourceAlpha" type="matrix" values="0 0 0 0 0 0 0 0 0 0 0 0 0 0 0 0 0 0 127 0" result="hardAlpha"/>
<feOffset dx="1" dy="-1.5"/>
<feGaussianBlur stdDeviation="1.75"/>
<feComposite in2="hardAlpha" operator="arithmetic" k2="-1" k3="1"/>
<feColorMatrix type="matrix" values="0 0 0 0 0.713726 0 0 0 0 0.321569 0 0 0 0 0.211765 0 0 0 1 0"/>
<feBlend mode="normal" in2="shape" result="effect1_innerShadow_39_1544"/>
</filter>
<filter id="filter1_ii_39_1544" x="17.8767" y="2.91406" width="12.8176" height="8.34063" filterUnits="userSpaceOnUse" color-interpolation-filters="sRGB">
<feFlood flood-opacity="0" result="BackgroundImageFix"/>
<feBlend mode="normal" in="SourceGraphic" in2="BackgroundImageFix" result="shape"/>
<feColorMatrix in="SourceAlpha" type="matrix" values="0 0 0 0 0 0 0 0 0 0 0 0 0 0 0 0 0 0 127 0" result="hardAlpha"/>
<feOffset dx="-0.2" dy="0.2"/>
<feGaussianBlur stdDeviation="0.15"/>
<feComposite in2="hardAlpha" operator="arithmetic" k2="-1" k3="1"/>
<feColorMatrix type="matrix" values="0 0 0 0 1 0 0 0 0 0.92549 0 0 0 0 0.403922 0 0 0 1 0"/>
<feBlend mode="normal" in2="shape" result="effect1_innerShadow_39_1544"/>
<feColorMatrix in="SourceAlpha" type="matrix" values="0 0 0 0 0 0 0 0 0 0 0 0 0 0 0 0 0 0 127 0" result="hardAlpha"/>
<feOffset dx="0.1" dy="-0.25"/>
<feGaussianBlur stdDeviation="0.25"/>
<feComposite in2="hardAlpha" operator="arithmetic" k2="-1" k3="1"/>
<feColorMatrix type="matrix" values="0 0 0 0 0.788235 0 0 0 0 0.364706 0 0 0 0 0.12549 0 0 0 1 0"/>
<feBlend mode="normal" in2="effect1_innerShadow_39_1544" result="effect2_innerShadow_39_1544"/>
</filter>
<filter id="filter2_f_39_1544" x="19.0286" y="19.8875" width="9.94229" height="21.3969" filterUnits="userSpaceOnUse" color-interpolation-filters="sRGB">
<feFlood flood-opacity="0" result="BackgroundImageFix"/>
<feBlend mode="normal" in="SourceGraphic" in2="BackgroundImageFix" result="shape"/>
<feGaussianBlur stdDeviation="0.15" result="effect1_foregroundBlur_39_1544"/>
</filter>
<filter id="filter3_ii_39_1544" x="19.5289" y="19.8312" width="9.59229" height="21.1469" filterUnits="userSpaceOnUse" color-interpolation-filters="sRGB">
<feFlood flood-opacity="0" result="BackgroundImageFix"/>
<feBlend mode="normal" in="SourceGraphic" in2="BackgroundImageFix" result="shape"/>
<feColorMatrix in="SourceAlpha" type="matrix" values="0 0 0 0 0 0 0 0 0 0 0 0 0 0 0 0 0 0 127 0" result="hardAlpha"/>
<feOffset dx="0.15" dy="-0.2"/>
<feGaussianBlur stdDeviation="0.15"/>
<feComposite in2="hardAlpha" operator="arithmetic" k2="-1" k3="1"/>
<feColorMatrix type="matrix" values="0 0 0 0 0.352941 0 0 0 0 0.168627 0 0 0 0 0.188235 0 0 0 1 0"/>
<feBlend mode="normal" in2="shape" result="effect1_innerShadow_39_1544"/>
<feColorMatrix in="SourceAlpha" type="matrix" values="0 0 0 0 0 0 0 0 0 0 0 0 0 0 0 0 0 0 127 0" result="hardAlpha"/>
<feOffset dx="-0.1" dy="0.15"/>
<feGaussianBlur stdDeviation="0.11"/>
<feComposite in2="hardAlpha" operator="arithmetic" k2="-1" k3="1"/>
<feColorMatrix type="matrix" values="0 0 0 0 0.670588 0 0 0 0 0.458824 0 0 0 0 0.403922 0 0 0 1 0"/>
<feBlend mode="normal" in2="effect1_innerShadow_39_1544" result="effect2_innerShadow_39_1544"/>
</filter>
<filter id="filter4_i_39_1544" x="19.9995" y="10.4547" width="8.60107" height="3.76406" filterUnits="userSpaceOnUse" color-interpolation-filters="sRGB">
<feFlood flood-opacity="0" result="BackgroundImageFix"/>
<feBlend mode="normal" in="SourceGraphic" in2="BackgroundImageFix" result="shape"/>
<feColorMatrix in="SourceAlpha" type="matrix" values="0 0 0 0 0 0 0 0 0 0 0 0 0 0 0 0 0 0 127 0" result="hardAlpha"/>
<feOffset dy="-0.6"/>
<feGaussianBlur stdDeviation="0.5"/>
<feComposite in2="hardAlpha" operator="arithmetic" k2="-1" k3="1"/>
<feColorMatrix type="matrix" values="0 0 0 0 0.388235 0 0 0 0 0.223529 0 0 0 0 0.109804 0 0 0 1 0"/>
<feBlend mode="normal" in2="shape" result="effect1_innerShadow_39_1544"/>
</filter>
<radialGradient id="paint0_radial_39_1544" cx="0" cy="0" r="1" gradientUnits="userSpaceOnUse" gradientTransform="translate(29.1618 16.9734) rotate(100.07) scale(27.6129 28.9213)">
<stop stop-color="#F6C93B"/>
<stop offset="1" stop-color="#E88340"/>
</radialGradient>
<radialGradient id="paint1_radial_39_1544" cx="0" cy="0" r="1" gradientUnits="userSpaceOnUse" gradientTransform="translate(36.1011 21.2839) rotate(133.199) scale(10.5455 17.6679)">
<stop stop-color="#FFE065"/>
<stop offset="1" stop-color="#FFE065" stop-opacity="0"/>
</radialGradient>
<radialGradient id="paint2_radial_39_1544" cx="0" cy="0" r="1" gradientUnits="userSpaceOnUse" gradientTransform="translate(9.10059 21.2856) rotate(31.6513) scale(8.03957 19.9249)">
<stop offset="0.187" stop-color="#FFA45D"/>
<stop offset="1" stop-color="#FFA45D" stop-opacity="0"/>
</radialGradient>
<radialGradient id="paint3_radial_39_1544" cx="0" cy="0" r="1" gradientUnits="userSpaceOnUse" gradientTransform="translate(24.3346 37.8786) rotate(-90) scale(24.4687 36.8658)">
<stop offset="0.928" stop-color="#F3BD46" stop-opacity="0"/>
<stop offset="0.98" stop-color="#917011"/>
</radialGradient>
<linearGradient id="paint4_linear_39_1544" x1="26.2157" y1="5.83706" x2="24.3347" y2="11.0511" gradientUnits="userSpaceOnUse">
<stop stop-color="#F3C048"/>
<stop offset="1" stop-color="#E67A41"/>
</linearGradient>
<linearGradient id="paint5_linear_39_1544" x1="23.9999" y1="20.684" x2="23.9999" y2="39.9035" gradientUnits="userSpaceOnUse">
<stop stop-color="#A6782C"/>
<stop offset="1" stop-color="#B95940"/>
</linearGradient>
<linearGradient id="paint6_linear_39_1544" x1="29.4916" y1="32.8097" x2="19.6291" y2="32.8097" gradientUnits="userSpaceOnUse">
<stop stop-color="#9D6360"/>
<stop offset="1" stop-color="#724A4D"/>
</linearGradient>
<linearGradient id="paint7_linear_39_1544" x1="21.195" y1="12.6372" x2="28.6005" y2="12.6372" gradientUnits="userSpaceOnUse">
<stop stop-color="#834B41"/>
<stop offset="1" stop-color="#735854"/>
</linearGradient>
<radialGradient id="paint8_radial_39_1544" cx="0" cy="0" r="1" gradientUnits="userSpaceOnUse" gradientTransform="translate(27.1005 12.1452) rotate(180) scale(2.80078 2.10937)">
<stop stop-color="#7D5A54"/>
<stop offset="1" stop-color="#7D5A54" stop-opacity="0"/>
</radialGradient>
<radialGradient id="paint9_radial_39_1544" cx="0" cy="0" r="1" gradientUnits="userSpaceOnUse" gradientTransform="translate(27.4755 12.6372) rotate(180) scale(8.29687 6.64654)">
<stop offset="0.695" stop-color="#B3624D" stop-opacity="0"/>
<stop offset="0.96" stop-color="#B3624D"/>
</radialGradient>
</defs>
</svg>
