<svg width="24" height="24" viewBox="0 0 24 24" fill="none" xmlns="http://www.w3.org/2000/svg">
<path d="M19.23 15.2578L16.69 14.9678C16.3914 14.9327 16.0886 14.9658 15.8046 15.0645C15.5206 15.1632 15.2626 15.3251 15.05 15.5378L13.21 17.3778C10.3712 15.934 8.06382 13.6266 6.62004 10.7878L8.47004 8.93781C8.90004 8.50781 9.11004 7.90781 9.04004 7.29781L8.75004 4.77781C8.69335 4.28999 8.45923 3.84005 8.09228 3.51366C7.72532 3.18727 7.25115 3.00723 6.76004 3.00781H5.03004C3.90004 3.00781 2.96004 3.94781 3.03004 5.07781C3.56004 13.6178 10.39 20.4378 18.92 20.9678C20.05 21.0378 20.99 20.0978 20.99 18.9678V17.2378C21 16.2278 20.24 15.3778 19.23 15.2578Z" fill="#CCCCCC"/>
</svg>
