<svg xmlns="http://www.w3.org/2000/svg" width="41" height="41" viewBox="0 0 41 41">
  <g id="Group_11354" data-name="Group 11354" transform="translate(-25 -69)">
    <g id="Group_9159" data-name="Group 9159" transform="translate(-36.838 7.162)">
      <rect id="Rectangle_4183" data-name="Rectangle 4183" width="41" height="41" rx="10" transform="translate(61.838 61.838)" fill="#2d2d2d"/>
      <g id="Group_9148" data-name="Group 9148" transform="translate(68.295 71.701)">
        <path id="Path_22821" data-name="Path 22821" d="M127.7,127.487a6.169,6.169,0,0,1-1.575,2.793c-.016.019-.035.037-.053.056l-4.8,4.8a3.89,3.89,0,0,1-1.687-1l-.552-.552,5.147-5.147a3.336,3.336,0,0,0,.316-.364,3.575,3.575,0,0,0-5.372-4.694l-3.262,3.262a1.34,1.34,0,0,1-1.893,0l-3.259-3.259a3.571,3.571,0,0,0-6.066,2.011v0a6.556,6.556,0,0,0-1.837,1.3,6.954,6.954,0,0,0-.675.787,6.251,6.251,0,0,1,10.471-6l2.314,2.314,2.314-2.314a6.251,6.251,0,0,1,10.471,6Z" transform="translate(-100.874 -119.664)" fill="#fffafb"/>
        <path id="Path_22822" data-name="Path 22822" d="M130.862,192.339,127.5,195.7a1.341,1.341,0,0,1-1.893,0l-3.363-3.363-2.046-2.046-4.8-4.8c-.019-.019-.035-.035-.051-.054a3.869,3.869,0,0,1,.993-1.687,3.813,3.813,0,0,1,.635-.514,3.612,3.612,0,0,0,.316.361l5.15,5.147,4.116,4.116,2.223-2.223.552.552A6.536,6.536,0,0,0,130.862,192.339Z" transform="translate(-112.508 -174.821)" fill="#fffafb"/>
        <path id="Path_22823" data-name="Path 22823" d="M122.029,164.8a6.6,6.6,0,0,1-11.269,4.668l-.552-.552-2.223-2.22-2.223,2.22-1.893-1.893,2.223-2.223-2.774-2.772a3.924,3.924,0,0,0-4.914-.514,3.814,3.814,0,0,0-.635.514,3.87,3.87,0,0,0-.993,1.687,3.921,3.921,0,0,0,4.852,4.855l2.046,2.046a6.605,6.605,0,0,1-8.473-9.7,6.957,6.957,0,0,1,.675-.787,6.557,6.557,0,0,1,1.837-1.3v0a6.62,6.62,0,0,1,7.5,1.3l2.774,2.774,2.774-2.774a6.611,6.611,0,0,1,7.5-1.3,3.568,3.568,0,0,1-.694,2.678,3.927,3.927,0,0,0-4.911.517l-2.774,2.772,2.223,2.223.552.552a3.922,3.922,0,0,0,6.542-3.862,6.169,6.169,0,0,0,1.575-2.793A6.56,6.56,0,0,1,122.029,164.8Z" transform="translate(-93.943 -153.098)" fill="#f34d4d"/>
      </g>
    </g>
  </g>
</svg>
