<svg id="Group_11351" data-name="Group 11351" xmlns="http://www.w3.org/2000/svg" xmlns:xlink="http://www.w3.org/1999/xlink" width="297.676" height="293.378" viewBox="0 0 297.676 293.378">
  <defs>
    <clipPath id="clip-path">
      <rect id="Rectangle_4613" data-name="Rectangle 4613" width="297.676" height="293.378" fill="none"/>
    </clipPath>
    <clipPath id="clip-path-5">
      <rect id="Rectangle_4588" data-name="Rectangle 4588" width="140.486" height="45.434" fill="none"/>
    </clipPath>
    <clipPath id="clip-path-7">
      <rect id="Rectangle_4597" data-name="Rectangle 4597" width="3.532" height="13.849" fill="none"/>
    </clipPath>
    <clipPath id="clip-path-9">
      <rect id="Rectangle_4599" data-name="Rectangle 4599" width="19.407" height="7.575" fill="none"/>
    </clipPath>
    <clipPath id="clip-path-11">
      <rect id="Rectangle_4601" data-name="Rectangle 4601" width="1.931" height="1.85" fill="none"/>
    </clipPath>
    <clipPath id="clip-path-12">
      <rect id="Rectangle_4602" data-name="Rectangle 4602" width="31.369" height="8.384" fill="none"/>
    </clipPath>
    <clipPath id="clip-path-14">
      <rect id="Rectangle_4611" data-name="Rectangle 4611" width="0.788" height="2.91" fill="none"/>
    </clipPath>
  </defs>
  <g id="Group_11350" data-name="Group 11350" clip-path="url(#clip-path)">
    <g id="Group_11317" data-name="Group 11317">
      <g id="Group_11316" data-name="Group 11316" clip-path="url(#clip-path)">
        <path id="Path_24815" data-name="Path 24815" d="M414.382,148.709l1.57.523a2.143,2.143,0,0,0,2.711-1.357L439.51,85.222a3.8,3.8,0,0,0-2.4-4.8Z" transform="translate(-142.029 -27.564)" fill="#e0e0e0"/>
        <path id="Path_24816" data-name="Path 24816" d="M320.894,291.3l17.545,5.838,49.347-148.3A9.245,9.245,0,1,0,370.241,143Z" transform="translate(-109.986 -46.843)" fill="#f5f5f5"/>
        <path id="Path_24817" data-name="Path 24817" d="M362.746,241.83,374.2,265.966l-2.618,7.869-11.6-23.692Z" transform="translate(-123.383 -82.887)" fill="#fff"/>
        <path id="Path_24818" data-name="Path 24818" d="M356.856,261.676l11.457,24.136-1.249,3.752-11.6-23.692Z" transform="translate(-121.834 -89.689)" fill="#fff"/>
        <path id="Path_24819" data-name="Path 24819" d="M393.508,118.3l19.619,6.528L429.35,76.071a10.339,10.339,0,0,0-19.62-6.528Z" transform="translate(-134.875 -21.41)" fill="#e0e0e0"/>
        <path id="Path_24820" data-name="Path 24820" d="M414.863,148.8c-.085-.028,4.714-14.68,10.718-32.723s10.941-32.652,11.025-32.623-4.713,14.678-10.718,32.726-10.94,32.648-11.025,32.62" transform="translate(-142.194 -28.603)" fill="#ebebeb"/>
        <path id="Path_24821" data-name="Path 24821" d="M322.384,382.021l7.508,2.5a5.289,5.289,0,0,0,6.688-3.348l1.128-3.391-17.545-5.838-1.128,3.391a5.288,5.288,0,0,0,3.348,6.688" transform="translate(-109.256 -127.483)" fill="#e0e0e0"/>
        <path id="Path_24822" data-name="Path 24822" d="M391.856,155.378c.085.028-10.833,33.069-24.382,73.79s-24.607,73.723-24.692,73.694,10.83-33.062,24.385-73.8,24.6-73.715,24.689-73.687" transform="translate(-117.488 -53.256)" fill="#e0e0e0"/>
        <path id="Path_24823" data-name="Path 24823" d="M383.151,152.482c.085.028-10.833,33.069-24.382,73.79s-24.607,73.722-24.692,73.694,10.83-33.062,24.385-73.8,24.6-73.715,24.689-73.687" transform="translate(-114.505 -52.263)" fill="#e0e0e0"/>
        <path id="Path_24824" data-name="Path 24824" d="M374.445,149.585c.085.028-10.833,33.069-24.382,73.79s-24.607,73.722-24.692,73.694,10.83-33.062,24.385-73.8,24.6-73.715,24.689-73.687" transform="translate(-111.521 -51.27)" fill="#e0e0e0"/>
        <rect id="Rectangle_4582" data-name="Rectangle 4582" width="59.26" height="85.894" transform="translate(7.414 16.014)" fill="#e0e0e0"/>
        <rect id="Rectangle_4583" data-name="Rectangle 4583" width="59.26" height="85.894" transform="translate(4.445 16.014)" fill="#f5f5f5"/>
        <rect id="Rectangle_4584" data-name="Rectangle 4584" width="44.535" height="67.289" transform="translate(11.808 25.316)" fill="#fff"/>
        <path id="Path_24825" data-name="Path 24825" d="M62.417,105.723s-.007-.113-.009-.329-.006-.539-.009-.954c0-.845-.011-2.083-.018-3.691-.009-3.224-.023-7.924-.04-13.86-.018-11.865-.043-28.667-.073-48.453l.149.147L17.887,38.6h-.006l.162-.16c-.012,25.384-.024,48.788-.033,67.287l-.129-.128,32.416.067,8.956.032,2.35.014c.533.005.814.014.814.014s-.262.009-.786.014l-2.327.014-8.927.033-32.5.066h-.128v-.129c-.009-18.5-.02-41.9-.033-67.287v-.162h.166l44.529.014h.148v.149c-.03,19.825-.055,36.66-.073,48.55-.017,5.922-.031,10.61-.04,13.828-.007,1.594-.014,2.822-.018,3.661,0,.408-.007.719-.009.937s-.008.312-.008.312" transform="translate(-6.074 -13.118)" fill="#e0e0e0"/>
        <path id="Path_24826" data-name="Path 24826" d="M92.971,24.364A10.279,10.279,0,0,1,91.915,25.9c-.689.921-1.665,2.173-2.781,3.527s-2.157,2.553-2.929,3.405a10.259,10.259,0,0,1-1.3,1.33,11.158,11.158,0,0,1,1.131-1.479l2.853-3.462,2.851-3.463a11.138,11.138,0,0,1,1.235-1.393" transform="translate(-29.099 -8.351)" fill="#e0e0e0"/>
        <path id="Path_24827" data-name="Path 24827" d="M86.07,140.568a55.145,55.145,0,0,0,7.767,9.714" transform="translate(-29.5 -48.18)" fill="#fff"/>
        <path id="Path_24828" data-name="Path 24828" d="M93.836,150.282a8.87,8.87,0,0,1-1.354-1.232,43.426,43.426,0,0,1-5.51-6.891,8.86,8.86,0,0,1-.9-1.592,12.213,12.213,0,0,1,1.092,1.464c.653.918,1.571,2.172,2.643,3.513s2.093,2.511,2.844,3.349a12.261,12.261,0,0,1,1.188,1.388" transform="translate(-29.499 -48.179)" fill="#e0e0e0"/>
        <path id="Path_24829" data-name="Path 24829" d="M6.751,149.955l7.762-9.577" transform="translate(-2.314 -48.114)" fill="#fff"/>
        <path id="Path_24830" data-name="Path 24830" d="M14.512,140.376a59.044,59.044,0,0,1-3.756,4.89,59.029,59.029,0,0,1-4.007,4.687,59.1,59.1,0,0,1,3.756-4.89,59.077,59.077,0,0,1,4.006-4.687" transform="translate(-2.313 -48.114)" fill="#e0e0e0"/>
        <path id="Path_24831" data-name="Path 24831" d="M6.763,24.364a53.576,53.576,0,0,1,3.767,4.5,53.536,53.536,0,0,1,3.515,4.7,53.674,53.674,0,0,1-3.767-4.5,53.635,53.635,0,0,1-3.515-4.7" transform="translate(-2.317 -8.351)" fill="#e0e0e0"/>
        <rect id="Rectangle_4585" data-name="Rectangle 4585" width="14.912" height="42.339" transform="translate(27.556 38.979)" fill="#e0e0e0"/>
        <path id="Path_24832" data-name="Path 24832" d="M16.358,345.318a19.96,19.96,0,0,0-8.533-2.937,5.683,5.683,0,0,0-4.036.743.829.829,0,0,0-.415.737.9.9,0,0,0,.394.5,12.2,12.2,0,0,0,12.59.953" transform="translate(-1.153 -117.329)" fill="#e0e0e0"/>
        <path id="Path_24833" data-name="Path 24833" d="M18.071,339.539a41.631,41.631,0,0,1-5.511-4.849A13.941,13.941,0,0,1,9.1,328.3a2.579,2.579,0,0,1,.273-2.139c4.393,3.431,7.844,7.869,8.693,13.378" transform="translate(-3.085 -111.792)" fill="#e0e0e0"/>
        <path id="Path_24834" data-name="Path 24834" d="M22.918,339.945a19.944,19.944,0,0,1,.1-7.236,9.782,9.782,0,0,1,3.855-5.971,8.547,8.547,0,0,1-.1,5.673,27.579,27.579,0,0,1-3.822,8.047" transform="translate(-7.759 -111.989)" fill="#e0e0e0"/>
        <path id="Path_24835" data-name="Path 24835" d="M24.007,358.573a12.607,12.607,0,0,0-6.843,3.464,12.941,12.941,0,0,0-3.914,6.719c2.564-.158,4.739-1.966,6.317-3.994s2.671-4.252,4.4-6.149" transform="translate(-4.541 -122.901)" fill="#e0e0e0"/>
        <path id="Path_24836" data-name="Path 24836" d="M30.426,352.126a16.877,16.877,0,0,1,1.949-15.965,20.324,20.324,0,0,1-1.949,15.965" transform="translate(-10.025 -115.219)" fill="#e0e0e0"/>
        <path id="Path_24837" data-name="Path 24837" d="M33.519,370.748a12.205,12.205,0,0,0-11.669,6.717c-.145.289-.272.657-.078.915a.869.869,0,0,0,.774.228,10.153,10.153,0,0,0,6.02-3.109,57.619,57.619,0,0,1,5.006-4.758" transform="translate(-7.428 -127.066)" fill="#e0e0e0"/>
        <path id="Path_24838" data-name="Path 24838" d="M38.911,361.766a21.734,21.734,0,0,1-.217-12.141c.428-1.562,1.146-3.207,2.591-3.94a.506.506,0,0,1,.4-.07.522.522,0,0,1,.25.29,7.323,7.323,0,0,1,.611,3.483A21.817,21.817,0,0,1,42,352.914c-.455,2.155-.7,4.471-1.879,6.33a12.756,12.756,0,0,0-.751,1.39c-.224.472-.225.638-.43,1.014" transform="translate(-13.002 -118.453)" fill="#e0e0e0"/>
        <path id="Path_24839" data-name="Path 24839" d="M62.12,366.639a15.651,15.651,0,0,1,2.743-12.87c.2-.256.458-.531.78-.5.492.046.62.7.6,1.2a23.254,23.254,0,0,1-4.122,12.176" transform="translate(-21.148 -121.081)" fill="#e0e0e0"/>
        <path id="Path_24840" data-name="Path 24840" d="M64.4,372.7a18.721,18.721,0,0,0,15.363-3.125,12.437,12.437,0,0,0-8.316-1.021A11.865,11.865,0,0,0,64.4,372.7" transform="translate(-22.074 -126.219)" fill="#e0e0e0"/>
        <path id="Path_24841" data-name="Path 24841" d="M66.147,366.521a17.753,17.753,0,0,1,13.943-8.062,8.589,8.589,0,0,1-4.561,5.042,25.327,25.327,0,0,1-6.693,1.957,4.715,4.715,0,0,0-2.689,1.063" transform="translate(-22.672 -122.862)" fill="#e0e0e0"/>
        <path id="Path_24842" data-name="Path 24842" d="M61.73,341.388a40.514,40.514,0,0,0,1.783-8.166,13.6,13.6,0,0,0-1.626-8.077,17.778,17.778,0,0,0-.238,16.523" transform="translate(-20.471 -111.443)" fill="#e0e0e0"/>
        <path id="Path_24843" data-name="Path 24843" d="M76.6,337.159c3.155-5.734,9.592-10.315,16.105-10.956-2.513,6.256-9.365,11.09-16.105,10.956" transform="translate(-26.253 -111.806)" fill="#e0e0e0"/>
        <path id="Path_24844" data-name="Path 24844" d="M73.575,344.092c4.705.717,8.714,3.722,13.111,5.544a5.876,5.876,0,0,0,2.964.568A2.321,2.321,0,0,0,91.1,346.1a6.336,6.336,0,0,0-2.153-1.306,23.931,23.931,0,0,0-14.97-.835" transform="translate(-25.218 -117.615)" fill="#e0e0e0"/>
        <path id="Path_24845" data-name="Path 24845" d="M69.432,349.485A5.556,5.556,0,0,1,71.7,351.06a24.514,24.514,0,0,0,9.943,5.107c.379.095.877.132,1.066-.211.164-.3-.044-.663-.257-.93a13.686,13.686,0,0,0-6-4.075c-2.294-.854-4.283-1.884-7.021-1.663" transform="translate(-23.798 -119.708)" fill="#e0e0e0"/>
        <path id="Path_24846" data-name="Path 24846" d="M64.757,319.012a18.817,18.817,0,0,0,14.426,4.908.99.99,0,0,0,.657-.236c.363-.395-.072-1-.5-1.335a16.619,16.619,0,0,0-14.587-3.337" transform="translate(-22.195 -109.167)" fill="#e0e0e0"/>
        <path id="Path_24847" data-name="Path 24847" d="M70.3,315.206a20.108,20.108,0,0,1,18-2.97A14.288,14.288,0,0,1,79.723,316a27.138,27.138,0,0,1-9.423-.8" transform="translate(-24.095 -106.694)" fill="#e0e0e0"/>
        <path id="Path_24848" data-name="Path 24848" d="M66.829,296.674c-.417-4.233-.146-7.575-.44-11.829-.023-.339-.1-.749-.414-.871-.442-.17-.812.374-.957.826a13.557,13.557,0,0,0,1.805,11.781" transform="translate(-22.072 -97.321)" fill="#e0e0e0"/>
        <path id="Path_24849" data-name="Path 24849" d="M67.633,297.085a24.885,24.885,0,0,0,7.012-6.816c1.385-1.895,2.553-4.166,2.238-6.492a6.712,6.712,0,0,0-5.058,2.512,14.11,14.11,0,0,0-2.578,5.188c-.562,1.863-.955,3.777-1.614,5.607" transform="translate(-23.181 -97.264)" fill="#e0e0e0"/>
        <path id="Path_24850" data-name="Path 24850" d="M78.069,295.584a56.535,56.535,0,0,0,17.257-10.176c-2.061-.83-4.421-.333-6.482.5a20.443,20.443,0,0,0-10.865,9.631" transform="translate(-26.727 -97.677)" fill="#e0e0e0"/>
        <path id="Path_24851" data-name="Path 24851" d="M70.581,304.946a35.082,35.082,0,0,0,9.583.047,40.66,40.66,0,0,0,8.946-2.973,1.045,1.045,0,0,0,.608-.461.7.7,0,0,0-.218-.765,1.845,1.845,0,0,0-.763-.358,16.561,16.561,0,0,0-9.667.578,44.854,44.854,0,0,0-8.488,3.932" transform="translate(-24.192 -102.809)" fill="#e0e0e0"/>
        <path id="Path_24852" data-name="Path 24852" d="M42.07,312.182a16.952,16.952,0,0,1-.155-14.029,10.715,10.715,0,0,1,1.242,6.975c-.241,2.4-.971,4.864-1.018,7.272" transform="translate(-13.872 -102.192)" fill="#e0e0e0"/>
        <path id="Path_24853" data-name="Path 24853" d="M22.11,312.833a19.567,19.567,0,0,0-14.54,6.194,13.584,13.584,0,0,0,7.961-1.476,40.441,40.441,0,0,0,6.823-4.567" transform="translate(-2.595 -107.222)" fill="#e0e0e0"/>
        <path id="Path_24854" data-name="Path 24854" d="M13.677,309.731c-2.655-.215-5.209-.544-7.761.239A9.309,9.309,0,0,0,0,314.985a14.033,14.033,0,0,0,7.277-1.374,41.878,41.878,0,0,0,6.4-3.88" transform="translate(0 -106.072)" fill="#e0e0e0"/>
        <path id="Path_24855" data-name="Path 24855" d="M25.845,307.875a24.5,24.5,0,0,0-7.621-3.807c-2.781-.648-6-.169-7.942,1.927,2.251,1.321,4.982,1.477,7.592,1.475s5.809-.032,8.27.839" transform="translate(-3.524 -104.127)" fill="#e0e0e0"/>
        <path id="Path_24856" data-name="Path 24856" d="M31.566,301.487c-4.083-4.009-5.631-11.211-3.988-16.693a25.435,25.435,0,0,1,3.988,16.693" transform="translate(-9.231 -97.613)" fill="#e0e0e0"/>
        <path id="Path_24857" data-name="Path 24857" d="M51.065,286.038c.77-1.79,1.312-3.669,2-5.491a15.785,15.785,0,0,1,2.854-5.062,7.52,7.52,0,0,1,5.057-2.62,20.369,20.369,0,0,1-9.814,13.2" transform="translate(-17.503 -93.524)" fill="#e0e0e0"/>
        <path id="Path_24858" data-name="Path 24858" d="M42.466,292.758c-1.274-1.754-2.747-4.135-4.475-5.444a7.485,7.485,0,0,0-6.087-1.6,14.178,14.178,0,0,0,10.561,7.042" transform="translate(-10.935 -97.876)" fill="#e0e0e0"/>
        <path id="Path_24859" data-name="Path 24859" d="M47.465,286.27a30.285,30.285,0,0,1-2.014-6.523,10.176,10.176,0,0,1,1.021-6.633c2.241,4.237,2.963,8.784,1.107,13.2" transform="translate(-15.528 -93.61)" fill="#e0e0e0"/>
        <path id="Path_24860" data-name="Path 24860" d="M51.1,268.432c1.269-4.2,5.115-7.292,9.267-8.711a3.464,3.464,0,0,1,1.625-.244,1.411,1.411,0,0,1,1.2,1c.151.714-.439,1.355-.994,1.829a31.539,31.539,0,0,1-11.1,6.126" transform="translate(-17.513 -88.927)" fill="#e0e0e0"/>
        <path id="Path_24861" data-name="Path 24861" d="M51.131,260.527a30.087,30.087,0,0,1,1.211-8.02,10.142,10.142,0,0,1,5.048-6.1c.42,2.735-.787,5.456-2.242,7.809s-3.209,4.575-4.083,7.2" transform="translate(-17.503 -84.457)" fill="#e0e0e0"/>
        <path id="Path_24862" data-name="Path 24862" d="M46.958,263.047c-1.049-3.061-1.157-6.948-2.99-9.615-1.281-1.864-3.333-3.134-4.436-5.108a7.77,7.77,0,0,0,.258,5.8,16.787,16.787,0,0,0,3.391,4.854c1.356,1.449,2.517,2.538,3.779,4.07" transform="translate(-13.396 -85.113)" fill="#e0e0e0"/>
        <path id="Path_24863" data-name="Path 24863" d="M51.014,360.307c-.082,0-.152-20.418-.158-45.6s.056-45.6.137-45.6.152,20.414.158,45.6-.056,45.6-.137,45.6" transform="translate(-17.431 -92.235)" fill="#e0e0e0"/>
        <path id="Path_24864" data-name="Path 24864" d="M68.925,314.808a4.392,4.392,0,0,1-.768.289l-2.112.712c-1.782.607-4.229,1.485-6.885,2.574-2.63,1.129-5.11,2.045-6.523,3.268a4.787,4.787,0,0,0-1.311,1.734c-.2.479-.239.772-.266.767a.6.6,0,0,1,.009-.214,3.19,3.19,0,0,1,.15-.6A4.609,4.609,0,0,1,52.5,321.5a11.467,11.467,0,0,1,2.83-1.758c1.132-.528,2.386-1.079,3.719-1.627,2.664-1.092,5.131-1.942,6.932-2.5.9-.281,1.635-.488,2.145-.624a4.319,4.319,0,0,1,.8-.178" transform="translate(-17.499 -107.899)" fill="#e0e0e0"/>
        <path id="Path_24865" data-name="Path 24865" d="M75.507,292.952a1.27,1.27,0,0,1-.215.23l-.655.615-2.446,2.222-8.141,7.249c-3.178,2.829-5.924,5.531-7.828,7.566-.953,1.017-1.7,1.859-2.216,2.446l-.592.676a1.272,1.272,0,0,1-.221.224,1.276,1.276,0,0,1,.175-.262c.124-.164.3-.409.549-.712.486-.612,1.214-1.477,2.15-2.514a103.234,103.234,0,0,1,7.785-7.645c3.188-2.822,6.091-5.357,8.2-7.185l2.508-2.152.692-.574a1.269,1.269,0,0,1,.254-.185" transform="translate(-18.232 -100.409)" fill="#e0e0e0"/>
        <path id="Path_24866" data-name="Path 24866" d="M64.487,309.338c-.083-.037.58-1.57,1.242-3.508s.982-3.574,1.066-3.56a11.958,11.958,0,0,1-.787,3.655,23.887,23.887,0,0,1-.989,2.453,3.815,3.815,0,0,1-.533.96" transform="translate(-22.101 -103.603)" fill="#e0e0e0"/>
        <path id="Path_24867" data-name="Path 24867" d="M44.952,324.052a3.688,3.688,0,0,1-.49-.569l-1.255-1.609c-1.054-1.362-2.511-3.242-4.143-5.3s-3.134-3.9-4.222-5.24l-1.282-1.587a3.609,3.609,0,0,1-.442-.606,3.719,3.719,0,0,1,.53.531c.327.355.789.876,1.354,1.527,1.129,1.3,2.657,3.129,4.294,5.19s3.067,3.963,4.079,5.359c.506.7.909,1.267,1.18,1.665a3.667,3.667,0,0,1,.4.637" transform="translate(-11.351 -105.958)" fill="#e0e0e0"/>
        <path id="Path_24868" data-name="Path 24868" d="M44.113,320.966a7.186,7.186,0,0,1-1.639-3.069A8.751,8.751,0,0,1,42.1,314.8l.13.011c-.058.237-.1.361-.124.357s-.024-.135-.005-.378l.13.011a14.127,14.127,0,0,0,.524,3.01,22.934,22.934,0,0,0,1.356,3.152" transform="translate(-14.424 -107.895)" fill="#e0e0e0"/>
        <path id="Path_24869" data-name="Path 24869" d="M32.878,313.864a5.274,5.274,0,0,0-1.144-.664,7.647,7.647,0,0,0-3.177-.253,19.61,19.61,0,0,0-3.2.517,9.7,9.7,0,0,1-1.316.315,4.581,4.581,0,0,1,1.261-.517,14.6,14.6,0,0,1,3.233-.61,6.939,6.939,0,0,1,3.278.354,2.03,2.03,0,0,1,1.066.858" transform="translate(-8.24 -107.147)" fill="#e0e0e0"/>
        <path id="Path_24870" data-name="Path 24870" d="M29.189,311.2c-.022.046-.666-.267-1.753-.638a17.647,17.647,0,0,0-8.835-.674c-1.13.2-1.814.414-1.83.365a1.672,1.672,0,0,1,.465-.2,10.981,10.981,0,0,1,1.324-.372,15.6,15.6,0,0,1,8.947.682,10.956,10.956,0,0,1,1.253.568,1.67,1.67,0,0,1,.429.266" transform="translate(-5.748 -106.019)" fill="#e0e0e0"/>
        <path id="Path_24871" data-name="Path 24871" d="M49.876,297.6a72.549,72.549,0,0,1-2.271-8.955,36.038,36.038,0,0,1,1.279,4.441,36.353,36.353,0,0,1,.992,4.514" transform="translate(-16.313 -98.933)" fill="#e0e0e0"/>
        <path id="Path_24872" data-name="Path 24872" d="M49.361,299.757a21.467,21.467,0,0,0-1.417-2.659,11.688,11.688,0,0,0-2.086-2.153,1.935,1.935,0,0,1,.805.415,6.473,6.473,0,0,1,1.522,1.568,5.89,5.89,0,0,1,1.176,2.828" transform="translate(-15.717 -101.091)" fill="#e0e0e0"/>
        <path id="Path_24873" data-name="Path 24873" d="M41.341,375.766c-.032,0-.092-.491-.322-1.358a19.364,19.364,0,0,0-1.364-3.535,48.907,48.907,0,0,0-7.24-10.2c-1.616-1.847-3.184-3.589-4.515-5.257a36.866,36.866,0,0,1-3.228-4.657,22.346,22.346,0,0,1-1.63-3.455c-.15-.426-.26-.758-.32-.989a1.677,1.677,0,0,1-.084-.353c.027-.008.175.467.511,1.3a25.3,25.3,0,0,0,1.7,3.391,39,39,0,0,0,3.261,4.592c1.336,1.651,2.906,3.384,4.526,5.233a46.387,46.387,0,0,1,7.2,10.3,17.657,17.657,0,0,1,1.288,3.6,10.084,10.084,0,0,1,.181,1.024,1.713,1.713,0,0,1,.03.362" transform="translate(-7.758 -118.579)" fill="#e0e0e0"/>
        <path id="Path_24874" data-name="Path 24874" d="M67.219,363.6a7.408,7.408,0,0,1-.845.475,18.53,18.53,0,0,0-2.192,1.449,25.116,25.116,0,0,0-2.878,2.626c-1.01,1.067-2.051,2.307-3.113,3.635-2.124,2.665-4.11,5.023-5.3,6.905-.6.933-1.043,1.721-1.33,2.273a7.26,7.26,0,0,1-.465.85.823.823,0,0,1,.078-.24c.063-.152.149-.38.284-.662a21.443,21.443,0,0,1,1.257-2.333A75.942,75.942,0,0,1,57.96,371.6c1.064-1.33,2.118-2.572,3.147-3.638a23.364,23.364,0,0,1,2.95-2.6,15.44,15.44,0,0,1,2.264-1.384c.28-.141.509-.227.66-.292a.805.805,0,0,1,.239-.081" transform="translate(-17.512 -124.622)" fill="#e0e0e0"/>
        <path id="Path_24875" data-name="Path 24875" d="M70.3,372.577a12.307,12.307,0,0,1-1.786.26,23.564,23.564,0,0,0-4.236.834,12.731,12.731,0,0,0-3.792,1.99c-.875.676-1.287,1.235-1.328,1.2a1.374,1.374,0,0,1,.265-.411,6.711,6.711,0,0,1,.931-.953,11.49,11.49,0,0,1,3.834-2.109,19.105,19.105,0,0,1,4.306-.761,9.869,9.869,0,0,1,1.807-.052" transform="translate(-20.275 -127.693)" fill="#e0e0e0"/>
        <path id="Path_24876" data-name="Path 24876" d="M59.945,374.965c-.093-.053.712-1.282,1.336-2.936.586-1.669.723-3.132.828-3.115a2.845,2.845,0,0,1-.03.958,10.294,10.294,0,0,1-.521,2.258,10.938,10.938,0,0,1-1.036,2.07,2.892,2.892,0,0,1-.578.765" transform="translate(-20.544 -126.445)" fill="#e0e0e0"/>
        <path id="Path_24877" data-name="Path 24877" d="M72.444,339.464a1.315,1.315,0,0,1-.286.152l-.839.382c-.367.157-.814.358-1.316.622s-1.094.528-1.707.9l-.975.554c-.338.195-.672.425-1.027.648-.718.436-1.438.972-2.206,1.52a37.85,37.85,0,0,0-8.5,8.791c-.521.787-1.033,1.523-1.444,2.257-.211.363-.43.705-.613,1.049l-.521.992c-.347.626-.595,1.223-.837,1.737s-.432.964-.578,1.337c-.143.345-.259.627-.352.851a1.344,1.344,0,0,1-.142.291,1.313,1.313,0,0,1,.086-.31c.08-.231.179-.52.3-.874.129-.381.3-.842.534-1.362s.465-1.129.8-1.763l.507-1.008c.178-.349.394-.7.6-1.065.4-.743.912-1.491,1.431-2.287a36.468,36.468,0,0,1,8.558-8.856c.778-.546,1.508-1.079,2.237-1.508.361-.22.7-.447,1.044-.637l.99-.541c.623-.359,1.222-.615,1.735-.863s.967-.437,1.343-.579l.863-.331a1.336,1.336,0,0,1,.308-.1" transform="translate(-17.516 -116.351)" fill="#e0e0e0"/>
        <path id="Path_24878" data-name="Path 24878" d="M64.156,351.362a2.048,2.048,0,0,1,.7-1.045,4.43,4.43,0,0,1,2.827-1.084,7.729,7.729,0,0,1,2.975.581,4.217,4.217,0,0,1,1.125.547,6.987,6.987,0,0,1-1.194-.35,8.991,8.991,0,0,0-2.9-.484,4.6,4.6,0,0,0-2.7.948,8.32,8.32,0,0,0-.838.887" transform="translate(-21.989 -119.699)" fill="#e0e0e0"/>
        <path id="Path_24879" data-name="Path 24879" d="M61.253,352.684a7.552,7.552,0,0,0,.623-5.338,1.732,1.732,0,0,1,.331.76,5.4,5.4,0,0,1-.457,3.914c-.249.451-.469.684-.5.664" transform="translate(-20.992 -119.052)" fill="#e0e0e0"/>
        <path id="Path_24880" data-name="Path 24880" d="M29.639,395.759c.44,7.8,2.791,15.739,6.408,23.762H51.775A68.322,68.322,0,0,0,57.8,395.759Z" transform="translate(-10.159 -135.646)" fill="#e0e0e0"/>
        <path id="Path_24881" data-name="Path 24881" d="M56.55,414.894c0,.082-5.178.148-11.565.148s-11.566-.066-11.566-.148,5.177-.147,11.566-.147,11.565.066,11.565.147" transform="translate(-11.454 -142.154)" fill="#fafafa"/>
        <path id="Path_24882" data-name="Path 24882" d="M56.769,419.194c0,.082-4.854.148-10.842.148s-10.843-.066-10.843-.148,4.854-.147,10.843-.147,10.842.066,10.842.147" transform="translate(-12.025 -143.628)" fill="#fafafa"/>
        <path id="Path_24883" data-name="Path 24883" d="M39.7,403.554a44.449,44.449,0,0,1,0,7.246,44.448,44.448,0,0,1,0-7.246" transform="translate(-13.556 -138.318)" fill="#fafafa"/>
        <path id="Path_24884" data-name="Path 24884" d="M52.52,403.554a47.661,47.661,0,0,1,0,7.5,47.661,47.661,0,0,1,0-7.5" transform="translate(-17.95 -138.318)" fill="#fafafa"/>
        <path id="Path_24885" data-name="Path 24885" d="M64.556,403.457a49.8,49.8,0,0,1,0,7.653,49.581,49.581,0,0,1,0-7.653" transform="translate(-22.076 -138.285)" fill="#fafafa"/>
        <path id="Path_24886" data-name="Path 24886" d="M57.582,403.477c0,.082-6.074.148-13.564.148s-13.566-.066-13.566-.148,6.072-.148,13.566-.148,13.564.066,13.564.148" transform="translate(-10.437 -138.241)" fill="#fafafa"/>
      </g>
    </g>
    <g id="Group_11319" data-name="Group 11319">
      <g id="Group_11318" data-name="Group 11318" clip-path="url(#clip-path)">
        <path id="Path_24887" data-name="Path 24887" d="M295.913,430.888c0,.095-64.669.171-144.424.171-79.783,0-144.438-.076-144.438-.171s64.655-.171,144.438-.171c79.755,0,144.424.076,144.424.171" transform="translate(-2.417 -147.628)" fill="#263238"/>
      </g>
    </g>
    <g id="Group_11330" data-name="Group 11330">
      <g id="Group_11329" data-name="Group 11329" clip-path="url(#clip-path)">
        <path id="Path_24888" data-name="Path 24888" d="M285.677,253.119l-150.984,2.258a6.638,6.638,0,0,1-6.736-6.537L124.67,28.974a6.636,6.636,0,0,1,6.536-6.736L282.19,19.981a6.637,6.637,0,0,1,6.736,6.536l3.288,219.867a6.636,6.636,0,0,1-6.536,6.735" transform="translate(-42.73 -6.848)" fill="#e0e0e0"/>
        <path id="Path_24889" data-name="Path 24889" d="M285.6,253.044s.171-.016.508-.041a7.17,7.17,0,0,0,1.474-.309,6.85,6.85,0,0,0,2.153-1.21,6.664,6.664,0,0,0,1.951-2.774,6.318,6.318,0,0,0,.4-2.013c.027-.724-.014-1.5-.019-2.3q-.039-2.415-.086-5.278c-.061-3.815-.132-8.217-.212-13.172-.308-19.823-.755-48.5-1.306-83.943-.271-17.72-.568-37.13-.886-57.968q-.238-15.628-.491-32.293-.126-8.325-.256-16.888-.07-4.279-.141-8.614a6.465,6.465,0,0,0-5.136-6.045,9.141,9.141,0,0,0-2.157-.133l-2.206.034-4.434.067-8.946.135-18.2.275-37.534.565-78.93,1.184a6.476,6.476,0,0,0-6.387,6.254c.017,3.344.091,6.705.133,10.041q.15,10.016.3,19.895.294,19.755.579,38.9c.379,25.5.743,50.1,1.09,73.533s.674,45.7.981,66.539q.057,3.907.114,7.747c.025,1.277.023,2.56.07,3.817a6.449,6.449,0,0,0,1.23,3.449,6.586,6.586,0,0,0,2.869,2.227,7,7,0,0,0,1.772.425c.6.044,1.223.022,1.84.014l7.327-.107,27.816-.406,83.94-1.2,22.822-.312,5.935-.073c1.337-.014,2.022-.014,2.022-.014s-.685.021-2.022.047l-5.934.1-22.821.371-83.939,1.306-27.816.427-7.327.112c-.616.009-1.232.032-1.867-.014a7.252,7.252,0,0,1-1.841-.44,6.837,6.837,0,0,1-2.982-2.312,6.706,6.706,0,0,1-1.28-3.585c-.049-1.278-.047-2.546-.073-3.827q-.058-3.84-.118-7.747c-.316-20.839-.654-43.106-1.01-66.538s-.724-48.031-1.109-73.533q-.288-19.126-.584-38.9-.148-9.876-.3-19.895c-.042-3.342-.116-6.681-.133-10.056a6.8,6.8,0,0,1,6.7-6.561l78.93-1.177,37.534-.557,18.2-.269,8.947-.133,4.433-.066,2.207-.032a9.447,9.447,0,0,1,2.222.139,6.757,6.757,0,0,1,5.364,6.319q.069,4.34.138,8.622.126,8.561.249,16.888.244,16.649.475,32.294c.3,20.837.589,40.247.848,57.968.509,35.44.92,64.121,1.2,83.945.069,4.955.129,9.357.183,13.172q.038,2.861.071,5.278c0,.806.041,1.571.011,2.3a6.371,6.371,0,0,1-.413,2.032,6.705,6.705,0,0,1-1.98,2.788,6.827,6.827,0,0,1-2.174,1.2,6.949,6.949,0,0,1-1.483.294c-.338.019-.509.025-.509.025" transform="translate(-42.654 -6.773)" fill="#263238"/>
        <g id="Group_11322" data-name="Group 11322" transform="translate(99.24 197.17)" opacity="0.3">
          <g id="Group_11321" data-name="Group 11321">
            <g id="Group_11320" data-name="Group 11320" clip-path="url(#clip-path-5)">
              <path id="Path_24890" data-name="Path 24890" d="M152.575,345.426,290.3,342.614l1.18-26.636-4.46-15.986L150.992,323.336Z" transform="translate(-150.992 -299.992)"/>
            </g>
          </g>
        </g>
        <path id="Path_24891" data-name="Path 24891" d="M285.6,253.044s.171-.016.508-.041a7.17,7.17,0,0,0,1.474-.309,6.85,6.85,0,0,0,2.153-1.21,6.664,6.664,0,0,0,1.951-2.774,6.318,6.318,0,0,0,.4-2.013c.027-.724-.014-1.5-.019-2.3q-.039-2.415-.086-5.278c-.061-3.815-.132-8.217-.212-13.172-.308-19.823-.755-48.5-1.306-83.943-.271-17.72-.568-37.13-.886-57.968q-.238-15.628-.491-32.293-.126-8.325-.256-16.888-.07-4.279-.141-8.614a6.465,6.465,0,0,0-5.136-6.045,9.141,9.141,0,0,0-2.157-.133l-2.206.034-4.434.067-8.946.135-18.2.275-37.534.565-78.93,1.184a6.476,6.476,0,0,0-6.387,6.254c.017,3.344.091,6.705.133,10.041q.15,10.016.3,19.895.294,19.755.579,38.9c.379,25.5.743,50.1,1.09,73.533s.674,45.7.981,66.539q.057,3.907.114,7.747c.025,1.277.023,2.56.07,3.817a6.449,6.449,0,0,0,1.23,3.449,6.586,6.586,0,0,0,2.869,2.227,7,7,0,0,0,1.772.425c.6.044,1.223.022,1.84.014l7.327-.107,27.816-.406,83.94-1.2,22.822-.312,5.935-.073c1.337-.014,2.022-.014,2.022-.014s-.685.021-2.022.047l-5.934.1-22.821.371-83.939,1.306-27.816.427-7.327.112c-.616.009-1.232.032-1.867-.014a7.252,7.252,0,0,1-1.841-.44,6.837,6.837,0,0,1-2.982-2.312,6.706,6.706,0,0,1-1.28-3.585c-.049-1.278-.047-2.546-.073-3.827q-.058-3.84-.118-7.747c-.316-20.839-.654-43.106-1.01-66.538s-.724-48.031-1.109-73.533q-.288-19.126-.584-38.9-.148-9.876-.3-19.895c-.042-3.342-.116-6.681-.133-10.056a6.8,6.8,0,0,1,6.7-6.561l78.93-1.177,37.534-.557,18.2-.269,8.947-.133,4.433-.066,2.207-.032a9.447,9.447,0,0,1,2.222.139,6.757,6.757,0,0,1,5.364,6.319q.069,4.34.138,8.622.126,8.561.249,16.888.244,16.649.475,32.294c.3,20.837.589,40.247.848,57.968.509,35.44.92,64.121,1.2,83.945.069,4.955.129,9.357.183,13.172q.038,2.861.071,5.278c0,.806.041,1.571.011,2.3a6.371,6.371,0,0,1-.413,2.032,6.705,6.705,0,0,1-1.98,2.788,6.827,6.827,0,0,1-2.174,1.2,6.949,6.949,0,0,1-1.483.294c-.338.019-.509.025-.509.025" transform="translate(-42.654 -6.773)" fill="#263238"/>
        <g id="Group_11325" data-name="Group 11325" transform="translate(99.24 197.17)" opacity="0.3">
          <g id="Group_11324" data-name="Group 11324">
            <g id="Group_11323" data-name="Group 11323" clip-path="url(#clip-path-5)">
              <path id="Path_24892" data-name="Path 24892" d="M152.575,345.426,290.3,342.614l1.18-26.636-4.46-15.986L150.992,323.336Z" transform="translate(-150.992 -299.992)"/>
            </g>
          </g>
        </g>
        <rect id="Rectangle_4590" data-name="Rectangle 4590" width="147.645" height="212.761" transform="translate(90.294 24.757) rotate(-0.857)" fill="#fff"/>
        <path id="Path_24893" data-name="Path 24893" d="M288.112,246.972c-.019-1.225-1.361-87.187-3.319-212.735l.14.136-147.611,2.22H137.3l.149-.153c1.184,79.889,2.277,153.7,3.152,212.737l-.123-.12,147.63-2.086L140.485,249.3l-.122,0,0-.122c-.891-59.038-2-132.847-3.211-212.736l0-.151.151,0h.017L284.928,34.1l.138,0,0,.137c1.8,125.551,3.026,211.514,3.044,212.739" transform="translate(-47.008 -11.686)" fill="#263238"/>
        <rect id="Rectangle_4591" data-name="Rectangle 4591" width="32.292" height="6.838" transform="matrix(1, -0.015, 0.015, 1, 99.521, 76.678)" fill="#e0e0e0"/>
        <rect id="Rectangle_4592" data-name="Rectangle 4592" width="64.725" height="6.838" transform="matrix(1, -0.015, 0.015, 1, 135.483, 61.237)" fill="#f5f5f5"/>
        <rect id="Rectangle_4593" data-name="Rectangle 4593" width="30.791" height="6.838" transform="matrix(1, -0.015, 0.015, 1, 98.982, 61.643)" fill="#f5f5f5"/>
        <rect id="Rectangle_4594" data-name="Rectangle 4594" width="23.422" height="6.838" transform="translate(203.903 60.192) rotate(-0.857)" fill="#f5f5f5"/>
        <rect id="Rectangle_4595" data-name="Rectangle 4595" width="41.636" height="7.788" transform="translate(180.218 175.948) rotate(-0.857)" fill="#e0e0e0"/>
        <rect id="Rectangle_4596" data-name="Rectangle 4596" width="127.725" height="7.788" transform="translate(99.636 93.817) rotate(-0.857)" fill="#e0e0e0"/>
        <path id="Path_24894" data-name="Path 24894" d="M278.564,166.869c0,.095-27.516.583-61.455,1.09s-61.465.843-61.466.748,27.511-.582,61.461-1.09,61.459-.843,61.46-.748" transform="translate(-53.347 -57.189)" fill="#263238"/>
        <path id="Path_24896" data-name="Path 24896" d="M278.717,177.154c0,.095-27.516.583-61.455,1.09s-61.465.843-61.466.748,27.511-.583,61.461-1.09,61.459-.843,61.46-.748" transform="translate(-53.399 -60.714)" fill="#263238"/>
        <path id="Path_24897" data-name="Path 24897" d="M278.871,187.439c0,.095-27.516.582-61.455,1.09s-61.465.843-61.466.748,27.511-.583,61.461-1.09,61.459-.843,61.46-.748" transform="translate(-53.452 -64.239)" fill="#263238"/>
        <path id="Path_24898" data-name="Path 24898" d="M210.927,199.263c0,.095-12.271.355-27.408.581s-27.414.333-27.415.239,12.268-.354,27.411-.581,27.411-.333,27.413-.239" transform="translate(-53.505 -68.285)" fill="#263238"/>
        <path id="Path_24899" data-name="Path 24899" d="M279.179,208.008c0,.095-27.516.583-61.455,1.09s-61.465.843-61.466.748,27.511-.582,61.461-1.09,61.459-.843,61.46-.748" transform="translate(-53.557 -71.289)" fill="#263238"/>
        <path id="Path_24900" data-name="Path 24900" d="M279.333,218.293c0,.095-27.516.583-61.455,1.09s-61.465.843-61.466.748,27.511-.582,61.461-1.09,61.459-.843,61.46-.748" transform="translate(-53.61 -74.814)" fill="#263238"/>
        <path id="Path_24901" data-name="Path 24901" d="M255.074,229.132c0,.095-22.051.5-49.249.908s-49.258.66-49.259.565,22.046-.5,49.254-.908,49.253-.66,49.254-.565" transform="translate(-53.663 -78.528)" fill="#263238"/>
        <path id="Path_24902" data-name="Path 24902" d="M279.64,238.863c0,.095-27.516.582-61.455,1.09s-61.465.843-61.466.748,27.511-.582,61.461-1.09,61.459-.843,61.46-.748" transform="translate(-53.715 -81.865)" fill="#263238"/>
        <path id="Path_24903" data-name="Path 24903" d="M279.794,249.148c0,.095-27.516.583-61.455,1.09s-61.465.843-61.466.748,27.511-.583,61.461-1.09,61.459-.843,61.46-.748" transform="translate(-53.768 -85.39)" fill="#263238"/>
        <path id="Path_24904" data-name="Path 24904" d="M273.29,33.908l-75.7,1.132-.266-17.8a4.157,4.157,0,0,1,4.095-4.219l67.382-1.008a4.158,4.158,0,0,1,4.219,4.1Z" transform="translate(-67.634 -4.118)" fill="#263238"/>
        <path id="Path_24905" data-name="Path 24905" d="M259.241,0,239.975.288l2.5,16.481,14.512-.218Z" transform="translate(-82.251 0)" fill="#263238"/>
        <path id="Path_24906" data-name="Path 24906" d="M270.6,12.018c0,.088-14.766.38-32.982.652s-32.987.423-32.989.335,14.763-.38,32.984-.652,32.985-.422,32.986-.335" transform="translate(-70.138 -4.111)" fill="#455a64"/>
        <path id="Path_24907" data-name="Path 24907" d="M200.078,34.385c-.087,0-.205-3.1-.263-6.933s-.032-6.937.055-6.939.206,3.1.263,6.934.032,6.937-.055,6.938" transform="translate(-68.476 -7.031)" fill="#455a64"/>
        <path id="Path_24908" data-name="Path 24908" d="M308.913,30.924a62.4,62.4,0,0,1-.253-6.294,62.747,62.747,0,0,1,.064-6.3,62.381,62.381,0,0,1,.253,6.3,62.751,62.751,0,0,1-.064,6.3" transform="translate(-105.784 -6.283)" fill="#455a64"/>
        <path id="Path_24909" data-name="Path 24909" d="M268.256,42.005c0,.088-15.158.386-33.855.665s-33.862.435-33.863.348,15.154-.386,33.858-.665,33.858-.435,33.86-.348" transform="translate(-68.734 -14.389)" fill="#455a64"/>
        <g id="Group_11328" data-name="Group 11328" transform="translate(205.23 14.118)" opacity="0.3">
          <g id="Group_11327" data-name="Group 11327">
            <g id="Group_11326" data-name="Group 11326" clip-path="url(#clip-path-7)">
              <path id="Path_24910" data-name="Path 24910" d="M312.447,21.48l3.272,9.244.068,4.552-3.533.053Z" transform="translate(-312.255 -21.48)"/>
            </g>
          </g>
        </g>
        <path id="Path_24911" data-name="Path 24911" d="M309.626,291.891s.118.007.347.038l1.012.151a31.78,31.78,0,0,1,3.85.82,15.617,15.617,0,0,1,2.661,1.024,10.261,10.261,0,0,1,2.766,1.966,8.444,8.444,0,0,1,2.092,3.288,6.282,6.282,0,0,1-.108,4.341,9.7,9.7,0,0,1-2.946,3.795,22.087,22.087,0,0,1-4.43,2.749,51.794,51.794,0,0,1-10.751,4,52.97,52.97,0,0,1-26.076-.1c-1.132-.294-2.24-.644-3.341-.993a21.832,21.832,0,0,1-3.176-1.351,13.066,13.066,0,0,1-2.8-1.947,8.1,8.1,0,0,1-1.943-2.754,6.964,6.964,0,0,1-.466-3.28,8.928,8.928,0,0,1,.923-3.111,12.072,12.072,0,0,1,4.235-4.546,29.291,29.291,0,0,1,5.285-2.669,53.766,53.766,0,0,1,15.065-3.8,56.107,56.107,0,0,1,8.245-.269,55.335,55.335,0,0,1,6.2.632c.848.113,1.588.287,2.235.408s1.187.254,1.623.364l.992.25c.223.058.335.1.335.1s-.118-.015-.344-.062l-1-.216c-.438-.1-.98-.224-1.628-.331s-1.388-.273-2.235-.376a57.464,57.464,0,0,0-6.183-.572,56.823,56.823,0,0,0-8.211.319,55.916,55.916,0,0,0-9.754,1.974,55.351,55.351,0,0,0-5.223,1.869,29.064,29.064,0,0,0-5.224,2.653,11.767,11.767,0,0,0-4.118,4.431,7.387,7.387,0,0,0-.44,6.119,7.772,7.772,0,0,0,1.865,2.634,12.769,12.769,0,0,0,2.731,1.893,21.54,21.54,0,0,0,3.128,1.328c1.091.345,2.194.693,3.317.985a52.865,52.865,0,0,0,25.914.122,51.742,51.742,0,0,0,10.7-3.951,21.843,21.843,0,0,0,4.39-2.7,9.468,9.468,0,0,0,2.889-3.68,6.062,6.062,0,0,0,.127-4.185,8.258,8.258,0,0,0-2.02-3.221,12.36,12.36,0,0,0-5.33-3,35.05,35.05,0,0,0-3.824-.88l-1.006-.184c-.227-.043-.341-.073-.341-.073" transform="translate(-91.268 -99.122)" fill="#263238"/>
      </g>
    </g>
    <g id="Group_11335" data-name="Group 11335">
      <g id="Group_11334" data-name="Group 11334" clip-path="url(#clip-path)">
        <path id="Path_24912" data-name="Path 24912" d="M383.849,383.243l13.1,11.981L382.125,411.6c-1.477-1.511,3.051-12.824,3.051-12.824l-8.183-7.915Z" transform="translate(-129.214 -131.356)" fill="#455a64"/>
        <path id="Path_24913" data-name="Path 24913" d="M395.14,398.122a.9.9,0,0,1,1.182.229.867.867,0,0,1-.216,1.173.952.952,0,0,1-1.25-.248.9.9,0,0,1,.36-1.2" transform="translate(-135.304 -136.412)" fill="#fff"/>
        <path id="Path_24914" data-name="Path 24914" d="M399.47,400.811l-1.368-1.266-13.652,16.289s-.336,1.018.254,1.4Z" transform="translate(-131.737 -136.944)" fill="#263238"/>
        <path id="Path_24915" data-name="Path 24915" d="M388.943,406.694c.082.07.48-.3,1.094-.458.609-.176,1.139-.066,1.174-.168.051-.088-.534-.4-1.274-.194s-1.082.77-.994.82" transform="translate(-133.305 -139.089)" fill="#fff"/>
        <path id="Path_24916" data-name="Path 24916" d="M387.662,410.5c.061.089.511-.135,1.094-.1.585.017,1.013.28,1.081.2.081-.064-.3-.539-1.027-.568s-1.223.4-1.148.471" transform="translate(-132.868 -140.538)" fill="#fff"/>
        <path id="Path_24917" data-name="Path 24917" d="M388.436,414.648c.1-.07-.135-.505-.839-.721-.623-.2-1.137.025-1.1.119s.48.075.989.239.872.435.951.363" transform="translate(-132.471 -141.846)" fill="#fff"/>
        <path id="Path_24918" data-name="Path 24918" d="M386.194,403.422c.1.032.325-.434.764-.858s.9-.647.871-.751c-.016-.1-.623-.023-1.134.484s-.6,1.108-.5,1.126" transform="translate(-132.356 -137.708)" fill="#fff"/>
        <path id="Path_24919" data-name="Path 24919" d="M383.72,399.2c.032.031.367-.241.738-.824a4.97,4.97,0,0,0,.513-1.1,5.252,5.252,0,0,0,.176-.7,1.37,1.37,0,0,0,.032-.423.47.47,0,0,0-.392-.421.59.59,0,0,0-.5.185,1.42,1.42,0,0,0-.236.346,3.911,3.911,0,0,0-.475,1.874,1.85,1.85,0,0,0,.229,1.085c.059-.012-.024-.424.036-1.073a4.383,4.383,0,0,1,.25-1.1,4.06,4.06,0,0,1,.281-.6c.111-.214.244-.363.361-.338.044.01.058.019.076.1a1.093,1.093,0,0,1-.024.31,5.9,5.9,0,0,1-.145.657,6.122,6.122,0,0,1-.414,1.068,7.57,7.57,0,0,0-.507.954" transform="translate(-131.47 -135.639)" fill="#fff"/>
        <path id="Path_24920" data-name="Path 24920" d="M382.395,400.006c.038-.017-.105-.435-.6-.933a3.582,3.582,0,0,0-1.686-.943.916.916,0,0,0-.888.148.518.518,0,0,0-.082.549,1.482,1.482,0,0,0,.225.356,2.461,2.461,0,0,0,.552.5,2.538,2.538,0,0,0,1.164.417,1.422,1.422,0,0,0,1.09-.214,9.149,9.149,0,0,1-1.052-.049,2.545,2.545,0,0,1-1-.438,2.3,2.3,0,0,1-.461-.444c-.151-.183-.232-.375-.155-.425a.635.635,0,0,1,.528-.043,3.641,3.641,0,0,1,.628.2,3.986,3.986,0,0,1,.962.582c.5.413.722.769.774.737" transform="translate(-129.936 -136.442)" fill="#fff"/>
        <path id="Path_24921" data-name="Path 24921" d="M380.632,400.8l-.166,17.75-22.086-.093c.138-2.109,11.582-6.3,11.582-6.3l-.36-11.378Z" transform="translate(-122.835 -137.369)" fill="#455a64"/>
        <path id="Path_24922" data-name="Path 24922" d="M385.835,416.663a.9.9,0,0,1,.619,1.032.867.867,0,0,1-1.017.623.952.952,0,0,1-.65-1.1.9.9,0,0,1,1.13-.53" transform="translate(-131.874 -142.798)" fill="#fff"/>
        <path id="Path_24923" data-name="Path 24923" d="M380.464,426.883l.026-1.9-21.241.72s-.982.43-.87,1.122Z" transform="translate(-122.831 -145.662)" fill="#263238"/>
        <path id="Path_24924" data-name="Path 24924" d="M375.458,417.87c0,.108.542.159,1.071.508s.81.8.909.761c.1-.02-.059-.666-.707-1.077s-1.3-.291-1.274-.192" transform="translate(-128.688 -143.191)" fill="#263238"/>
        <path id="Path_24925" data-name="Path 24925" d="M371.927,419.342c-.025.1.441.29.805.747s.469.941.576.937c.1.017.179-.614-.285-1.174s-1.093-.612-1.1-.509" transform="translate(-127.477 -143.714)" fill="#263238"/>
        <path id="Path_24926" data-name="Path 24926" d="M369.462,422.6c.1.024.25-.515-.024-1.107s-.778-.829-.824-.739c-.061.089.265.407.482.9s.258.939.365.95" transform="translate(-126.34 -144.207)" fill="#263238"/>
        <path id="Path_24927" data-name="Path 24927" d="M375.769,413.762c.045.1.54-.048,1.15,0s1.084.238,1.14.146-.4-.479-1.117-.521-1.225.294-1.173.379" transform="translate(-128.793 -141.686)" fill="#263238"/>
        <path id="Path_24928" data-name="Path 24928" d="M379.786,246.75a31.5,31.5,0,0,1,4.615,6.49c1.52,3.176,3.857,9.94,3.857,9.94s2.909,10.333,2.26,15.2-5,38.181-5,38.181.856,26.407-2.868,38.155l-.688,3.117-12.45-2.21-2.758-65.369-7.6-43.219Z" transform="translate(-123.1 -84.573)" fill="#263238"/>
        <path id="Path_24929" data-name="Path 24929" d="M366.333,250.4c.053.018.035-.407.479-.717a.92.92,0,0,1,.853-.086.885.885,0,0,1-.028,1.652.921.921,0,0,1-.85-.116c-.433-.325-.4-.749-.454-.733-.017,0-.049.091-.03.263a1.019,1.019,0,0,0,.352.638,1.12,1.12,0,0,0,1.072.211,1.15,1.15,0,0,0,.037-2.174,1.118,1.118,0,0,0-1.079.174,1.019,1.019,0,0,0-.373.625c-.025.172,0,.264.02.264" transform="translate(-125.548 -85.436)" fill="#455a64"/>
        <path id="Path_24930" data-name="Path 24930" d="M341.633,255.865s-4.567,41.44-5.223,48.556,25.175,45.069,25.175,45.069l10.9-12.877L355.854,305.7l5.6-30.79-7.373-27.781-11.462.137Z" transform="translate(-115.3 -84.704)" fill="#263238"/>
        <path id="Path_24931" data-name="Path 24931" d="M387.035,357.08a8.518,8.518,0,0,1-.089.906c-.076.593-.222,1.467-.429,2.595-.415,2.256-1.086,5.526-1.988,9.612l-.019.085-.086-.015-12.456-2.183-.094-.016,0-.1c-.346-8.546-.76-18.759-1.2-29.713-.459-11.786-.885-22.713-1.235-31.679v.011c-.933-7.2-1.706-13.159-2.245-17.326-.261-2.07-.465-3.7-.607-4.816q-.1-.818-.151-1.265c-.032-.287-.039-.435-.039-.435s.031.146.075.431.1.717.184,1.261c.156,1.119.381,2.741.669,4.808.563,4.164,1.369,10.116,2.344,17.313v.011c.364,8.965.807,19.892,1.286,31.678.427,10.954.826,21.168,1.16,29.714l-.1-.113,12.445,2.238-.1.07c.925-4.078,1.624-7.342,2.068-9.59.221-1.124.383-1.994.475-2.584.051-.294.08-.519.1-.671s.039-.227.039-.227" transform="translate(-125.58 -96.91)" fill="#455a64"/>
        <path id="Path_24932" data-name="Path 24932" d="M366.963,264.743a4.4,4.4,0,0,0-.682.034,3.119,3.119,0,0,1-1.752-.3,1.621,1.621,0,0,1-.7-.942,6.549,6.549,0,0,1-.214-1.426c-.088-1.034-.177-2.171-.256-3.365-.16-2.39-.247-4.557-.3-6.126-.027-.737-.049-1.358-.068-1.858a3.043,3.043,0,0,0-.058-.682,3.05,3.05,0,0,0-.057.682c-.016.44-.027,1.076-.026,1.862,0,1.573.056,3.746.216,6.141.08,1.2.176,2.337.28,3.371a6.506,6.506,0,0,0,.252,1.479,1.826,1.826,0,0,0,.83,1.044,2.331,2.331,0,0,0,1.057.277,4.624,4.624,0,0,0,.811-.043,2.366,2.366,0,0,0,.67-.148" transform="translate(-124.365 -85.714)" fill="#455a64"/>
        <path id="Path_24933" data-name="Path 24933" d="M345.123,256.954a4.375,4.375,0,0,0,1.19-.63,12.347,12.347,0,0,0,4.253-4.845,4.335,4.335,0,0,0,.471-1.261,16.693,16.693,0,0,1-5.913,6.736" transform="translate(-118.29 -85.762)" fill="#455a64"/>
        <path id="Path_24934" data-name="Path 24934" d="M346.47,120a9.028,9.028,0,0,0-2.775,7.878c.213,1.392.718,2.961-.113,4.1s-2.6,1.227-3.379,2.381c-.922,1.357.072,3.2-.173,4.824a3.249,3.249,0,0,1-3.266,2.664,12.675,12.675,0,0,0,6.471,2.252l1.586-2.383a2.33,2.33,0,0,0,.369,2.839,5.307,5.307,0,0,0,2.736,1.361,16.09,16.09,0,0,0,13.891-3.334" transform="translate(-115.426 -41.129)" fill="#263238"/>
        <path id="Path_24935" data-name="Path 24935" d="M377.595,126.045a32.3,32.3,0,0,1-1.412-3.085c-.684-2.336.273-5.094-1.038-7.145-.933-1.46-2.735-2.074-4.424-2.459s-3.493-.684-4.815-1.8c-.969-.822-1.574-2.007-2.541-2.832a7.635,7.635,0,0,0-5.113-1.441,10.84,10.84,0,0,0-5.364,1.286,5.948,5.948,0,0,0-3.031,4.43,17.529,17.529,0,0,1-.116,2.71,18.551,18.551,0,0,1-1.318,2.675,4.769,4.769,0,0,0,1.614,5.612l13.929,15.465c2.745.809,9.121-.893,11.037-3.017s3.679-7.748,2.591-10.394" transform="translate(-119.304 -36.769)" fill="#263238"/>
        <path id="Path_24936" data-name="Path 24936" d="M351.2,125.325c.246-3.765,2.751-8.38,6.5-7.974l11.71,2.989a2.207,2.207,0,0,1,1.97,2.244l-1.318,28.251.081.018s-4.668,11.11-12.411,8.675c-1.535-.483-.239-5.3-.543-7.032l-.133-4.461c-.021-2.281-.019-3.217-.02-3.2,0,0-4.809-.81-5.792-7.089a67.065,67.065,0,0,1-.047-12.424" transform="translate(-120.282 -40.213)" fill="#ffc09d"/>
        <path id="Path_24937" data-name="Path 24937" d="M352.7,137.281a.8.8,0,0,0,.774.814.769.769,0,0,0,.831-.724.8.8,0,0,0-.773-.814.77.77,0,0,0-.833.724" transform="translate(-120.887 -46.804)" fill="#263238"/>
        <path id="Path_24938" data-name="Path 24938" d="M364.545,137.681a.8.8,0,0,0,.774.814.769.769,0,0,0,.831-.724.805.805,0,0,0-.774-.814.77.77,0,0,0-.832.724" transform="translate(-124.947 -46.941)" fill="#263238"/>
        <path id="Path_24939" data-name="Path 24939" d="M352.508,133.213c.1.14.808-.386,1.75-.32.942.051,1.589.661,1.7.534.055-.056-.036-.3-.317-.578a2.159,2.159,0,0,0-1.349-.592,2.135,2.135,0,0,0-1.406.421c-.311.239-.429.473-.38.536" transform="translate(-120.818 -45.329)" fill="#263238"/>
        <path id="Path_24940" data-name="Path 24940" d="M365.268,133.669c.12.127.814-.46,1.819-.492,1-.047,1.759.482,1.865.346.052-.06-.072-.292-.4-.532a2.439,2.439,0,0,0-1.5-.439,2.377,2.377,0,0,0-1.443.555c-.3.266-.4.505-.342.562" transform="translate(-125.19 -45.432)" fill="#263238"/>
        <path id="Path_24941" data-name="Path 24941" d="M360.013,139.828a5.747,5.747,0,0,0-1.406-.257c-.221-.024-.431-.068-.467-.219a1.124,1.124,0,0,1,.149-.655l.658-1.683a28.92,28.92,0,0,0,1.479-4.4,28.975,28.975,0,0,0-1.83,4.273c-.22.592-.431,1.154-.63,1.693a1.277,1.277,0,0,0-.117.868.554.554,0,0,0,.363.324,1.464,1.464,0,0,0,.375.053,5.631,5.631,0,0,0,1.426.005" transform="translate(-122.638 -45.452)" fill="#263238"/>
        <path id="Path_24942" data-name="Path 24942" d="M360.216,158.026a15.97,15.97,0,0,0,8.412-2.223s-2.124,4.4-8.4,3.8Z" transform="translate(-123.464 -53.401)" fill="#ff9b6c"/>
        <path id="Path_24943" data-name="Path 24943" d="M361.791,146.685a1.56,1.56,0,0,1,1.493-.252,1.425,1.425,0,0,1,.841.734.9.9,0,0,1-.164,1.022,1.047,1.047,0,0,1-1.171.026,3.284,3.284,0,0,1-.931-.892.956.956,0,0,1-.184-.3.289.289,0,0,1,.074-.314" transform="translate(-123.959 -50.16)" fill="#ff9b6c"/>
        <path id="Path_24944" data-name="Path 24944" d="M363.6,145.293c-.141-.009-.145.932-.951,1.6s-1.807.56-1.815.691c-.014.059.223.183.645.2a2.344,2.344,0,0,0,1.515-.524,2.043,2.043,0,0,0,.737-1.339c.037-.393-.068-.626-.132-.621" transform="translate(-123.674 -49.799)" fill="#263238"/>
        <path id="Path_24945" data-name="Path 24945" d="M365.07,130.365c.085.236.95.126,1.966.251,1.019.1,1.838.4,1.973.193.06-.1-.082-.323-.413-.551a3.448,3.448,0,0,0-3-.338c-.373.15-.561.335-.525.446" transform="translate(-125.126 -44.461)" fill="#263238"/>
        <path id="Path_24946" data-name="Path 24946" d="M353.463,127.871c.173.2.856-.005,1.676-.012.82-.033,1.515.135,1.675-.07.07-.1-.039-.3-.342-.484a2.561,2.561,0,0,0-1.362-.325,2.533,2.533,0,0,0-1.337.392c-.29.2-.386.4-.31.5" transform="translate(-121.14 -43.522)" fill="#263238"/>
        <path id="Path_24947" data-name="Path 24947" d="M374.445,120.949a5.139,5.139,0,0,0-2.728-1.531,57.706,57.706,0,0,0-13.482-2.383,2.343,2.343,0,0,0,1.021,2.808,10.428,10.428,0,0,0,3.058,1.1,4.064,4.064,0,0,1,2.626,1.784c.525,1.033.243,2.323.715,3.38.813,1.819,3.467,2.227,4.271,4.051.606,1.38-.1,2.95-.2,4.454a5.386,5.386,0,0,0,5.731,5.721q-.136-8.082-.271-16.164a5.378,5.378,0,0,0-.745-3.223" transform="translate(-122.724 -40.114)" fill="#263238"/>
        <path id="Path_24948" data-name="Path 24948" d="M392.284,135.143c-.9-.7-2.015-1.274-2.434-2.335-.61-1.546.523-3.5-.4-4.881-.845-1.259-3.039-1.028-3.833-2.319-.62-1.008-.067-1.983-.341-2.889a2.52,2.52,0,0,0-2.572-1.435l-6.534,11.165c-.415,3.613-.958,5.56-.038,7.587a16.957,16.957,0,0,1,1.389,3.379,3.467,3.467,0,0,1-.885,3.371c4.406.017,8.341-2.582,11.969-5.081l3.841-2.645a2.947,2.947,0,0,0,1.034-1c.516-1.018-.289-2.218-1.192-2.914" transform="translate(-128.745 -41.56)" fill="#263238"/>
        <path id="Path_24949" data-name="Path 24949" d="M382.409,137a2.1,2.1,0,0,1-.461.125,4,4,0,0,1-1.372.005,4.244,4.244,0,0,1-1.98-.883,4.17,4.17,0,0,1-1.444-2.467,4.3,4.3,0,0,1,.018-1.691,6.853,6.853,0,0,1,.692-1.688,6.466,6.466,0,0,0,.713-1.752,2.184,2.184,0,0,0-.373-1.84,3.977,3.977,0,0,0-1.9-.805,2,2,0,0,1-.985-.622,1.965,1.965,0,0,1-.387-1.127,12.47,12.47,0,0,1,.328-2.319,2.5,2.5,0,0,0-.076-1.119,1.563,1.563,0,0,0-.7-.841,4.387,4.387,0,0,0-2.26-.427,4.758,4.758,0,0,1-2.307-.5,4.267,4.267,0,0,1-1.671-1.56,7.045,7.045,0,0,1-.726-2.057,9.864,9.864,0,0,0-.576-1.937,4.391,4.391,0,0,0-1.146-1.476,4.934,4.934,0,0,0-5.8-.379,6.015,6.015,0,0,0-1.591,1.411,8.028,8.028,0,0,0-.932,1.572.437.437,0,0,1,.034-.116c.028-.075.062-.191.128-.333a5.758,5.758,0,0,1,.692-1.183,5.969,5.969,0,0,1,1.6-1.472,5.155,5.155,0,0,1,2.747-.827,5.238,5.238,0,0,1,3.268,1.164,4.584,4.584,0,0,1,1.215,1.545,9.959,9.959,0,0,1,.6,1.978,6.843,6.843,0,0,0,.707,1.985,4.024,4.024,0,0,0,1.577,1.464,4.515,4.515,0,0,0,2.2.464,4.606,4.606,0,0,1,2.388.463,1.821,1.821,0,0,1,.807.976,2.735,2.735,0,0,1,.088,1.234,12.625,12.625,0,0,0-.331,2.275,1.723,1.723,0,0,0,.331.986,1.764,1.764,0,0,0,.869.544c.337.114.7.182,1.046.3a2.089,2.089,0,0,1,.948.58,2.4,2.4,0,0,1,.418,2.037,6.632,6.632,0,0,1-.747,1.809,6.719,6.719,0,0,0-.687,1.633,4.126,4.126,0,0,0-.033,1.615,4.033,4.033,0,0,0,1.357,2.39,4.187,4.187,0,0,0,1.906.895,4.751,4.751,0,0,0,1.815-.032" transform="translate(-122.524 -37.942)" fill="#455a64"/>
        <path id="Path_24950" data-name="Path 24950" d="M392.8,128.834a.919.919,0,0,1,.171.348,1.572,1.572,0,0,1-.107,1.1,1.673,1.673,0,0,1-.517.631,1.748,1.748,0,0,1-.917.319,2.192,2.192,0,0,1-2.01-1.075,2.943,2.943,0,0,1-.411-1.312,4.1,4.1,0,0,1,.2-1.471,9.032,9.032,0,0,0,.77-3.054,2.029,2.029,0,0,0-.62-1.468,2.22,2.22,0,0,0-1.629-.379,5.383,5.383,0,0,1-1.912-.055,1.657,1.657,0,0,1-.829-.6,2.353,2.353,0,0,1-.392-.942,7.8,7.8,0,0,1,.013-1.96,4.28,4.28,0,0,0-.236-1.8,4.569,4.569,0,0,0-2.238-2.524,6.472,6.472,0,0,0-3.09-.467,9,9,0,0,1-2.806-.23,5.812,5.812,0,0,1-2.055-1.089,5.735,5.735,0,0,1-1.178-1.3,4.167,4.167,0,0,1-.625-1.351,8.11,8.11,0,0,0,.707,1.295,5.836,5.836,0,0,0,1.186,1.245,5.731,5.731,0,0,0,2.014,1.027,8.937,8.937,0,0,0,2.752.192,6.629,6.629,0,0,1,3.2.468,4.794,4.794,0,0,1,2.371,2.65,4.532,4.532,0,0,1,.254,1.9,7.666,7.666,0,0,0-.016,1.9,1.638,1.638,0,0,0,1.05,1.349,5.255,5.255,0,0,0,1.819.047,2.45,2.45,0,0,1,1.8.444,2.262,2.262,0,0,1,.7,1.642,4.311,4.311,0,0,1-.279,1.662c-.175.513-.378.991-.524,1.466a3.923,3.923,0,0,0-.206,1.4,2.761,2.761,0,0,0,.37,1.231,2.041,2.041,0,0,0,1.847,1.027,1.627,1.627,0,0,0,.854-.276,1.6,1.6,0,0,0,.644-1.619,3.745,3.745,0,0,0-.121-.36" transform="translate(-127.634 -37.756)" fill="#263238"/>
        <path id="Path_24951" data-name="Path 24951" d="M333.434,138.141a1.739,1.739,0,0,0,.1,1.144,1.512,1.512,0,0,0,.979.856,1.585,1.585,0,0,0,1.575-.559,1.458,1.458,0,0,0,.309-.945,3.035,3.035,0,0,0-.25-1.1,6.47,6.47,0,0,1-.822-2.469,3.544,3.544,0,0,1,1.144-2.631,4.152,4.152,0,0,1,1.312-.821,6.079,6.079,0,0,1,1.544-.34,8.228,8.228,0,0,0,1.5-.271,2.018,2.018,0,0,0,1.125-.821,2.486,2.486,0,0,0,.329-1.328,4.935,4.935,0,0,0-.214-1.343,10.282,10.282,0,0,1-.584-2.534,3.9,3.9,0,0,1,.624-2.187,5.037,5.037,0,0,1,1.338-1.312,9.44,9.44,0,0,0,1.083-.874,2.944,2.944,0,0,0,.649-.975s0,.028-.012.078a1.3,1.3,0,0,1-.072.221,2.347,2.347,0,0,1-.493.745,8.679,8.679,0,0,1-1.068.919,4.966,4.966,0,0,0-1.271,1.3,3.727,3.727,0,0,0-.565,2.084,10.311,10.311,0,0,0,.6,2.475,5.162,5.162,0,0,1,.232,1.405,2.715,2.715,0,0,1-.361,1.463,2.27,2.27,0,0,1-1.257.929,8.355,8.355,0,0,1-1.55.283,5.872,5.872,0,0,0-1.483.324,3.913,3.913,0,0,0-1.234.767,3.315,3.315,0,0,0-1.079,2.445,6.382,6.382,0,0,0,.783,2.392,3.218,3.218,0,0,1,.25,1.175,1.644,1.644,0,0,1-.365,1.059,1.74,1.74,0,0,1-1.752.584,1.675,1.675,0,0,1-1.143-1.843.919.919,0,0,1,.1-.3" transform="translate(-114.243 -41.004)" fill="#263238"/>
        <path id="Path_24952" data-name="Path 24952" d="M376.06,177.064l-3.231,42.961-15.909-.475-12.241,2.477,3.257-46.592,6.566-7.406,4.528,8.928,8.912-10.293Z" transform="translate(-118.139 -57.124)" fill="#fff"/>
        <path id="Path_24953" data-name="Path 24953" d="M377.042,160.583l3.356,2.81,13.934,4.293-5.054,37.562,4.115,18.112,4.359,17.054S384.908,243.91,381.6,242s-7.344-20.469-8.568-24.876-3.06-17.5-2.2-24.48,2.326-17.259,3.06-20.809,3.151-11.255,3.151-11.255" transform="translate(-127.027 -55.04)" fill="#f34d4d"/>
        <path id="Path_24954" data-name="Path 24954" d="M399.618,171.389s3.338,4.365,4.284,8.559c1.6,7.085,7.776,26.422,7.409,30.951s-24.3,12.747-24.3,12.747l-.979-12.607,11.134-5.868-3.056-11.88" transform="translate(-132.312 -58.743)" fill="#f34d4d"/>
        <path id="Path_24955" data-name="Path 24955" d="M394.038,193.29a1.187,1.187,0,0,0,.039.208c.035.149.082.349.142.605.134.547.327,1.331.575,2.34.517,2.055,1.265,5.025,2.2,8.751l.049-.112L385.9,210.921l-.077.04.007.087c.292,3.829.617,8.088.962,12.608l.014.195.183-.064c4.689-1.65,9.741-3.575,14.829-5.937,1.672-.787,3.312-1.6,4.87-2.511a14.617,14.617,0,0,0,4.212-3.283,3.007,3.007,0,0,0,.344-.591,1.285,1.285,0,0,0,.1-.336,1.064,1.064,0,0,0,.049-.34,10.027,10.027,0,0,0-.047-1.308c-.072-.861-.228-1.7-.365-2.525q-.486-2.471-1.066-4.8c-1.543-6.214-3.18-11.738-4.464-16.4-.654-2.331-1.2-4.442-1.659-6.312a20.747,20.747,0,0,0-1.931-4.542,30.088,30.088,0,0,0-1.656-2.642c-.2-.292-.367-.51-.478-.655s-.177-.213-.177-.213.048.081.152.231.259.386.452.672c.388.595.962,1.476,1.6,2.665a21.018,21.018,0,0,1,1.869,4.528c.441,1.865.975,3.995,1.615,6.326,1.258,4.672,2.873,10.2,4.4,16.41q.575,2.328,1.052,4.789c.135.823.287,1.654.357,2.5a9.653,9.653,0,0,1,.045,1.262,1.977,1.977,0,0,1-.438,1.109,14.432,14.432,0,0,1-4.119,3.192c-1.546.9-3.179,1.713-4.845,2.5-5.071,2.354-10.119,4.283-14.793,5.938l.2.129c-.358-4.519-.694-8.777-1-12.606l-.07.128,11.118-5.9.07-.037-.02-.076-2.291-8.728-.626-2.328c-.071-.253-.127-.452-.168-.6a1.186,1.186,0,0,0-.066-.2" transform="translate(-132.24 -58.743)" fill="#263238"/>
        <path id="Path_24956" data-name="Path 24956" d="M351.568,161.916l-1.781,2.354L339.78,168.1s-.793,9.185-.793,12,1.161,34.023,1.161,35.492-5.631,21.42-5.141,22.644,6.365,2.081,6.365,2.081,2.2-17.259,2.2-23.134.245-20.318,1.468-27.418,6.566-22.678,6.566-22.678Z" transform="translate(-114.813 -55.497)" fill="#f34d4d"/>
        <path id="Path_24957" data-name="Path 24957" d="M337.514,171.319s-2.675,1.153-2.979,7.324-.809,20.131-.809,20.131a11.014,11.014,0,0,0-1.922,4.248c-.2,1.922-3.44,13.151-3.44,13.151l7.284,2.428,1.866-3.439,1.573-34.091Z" transform="translate(-112.547 -58.72)" fill="#f34d4d"/>
        <path id="Path_24958" data-name="Path 24958" d="M347.372,222.087a.52.52,0,0,0,.011-.147c0-.115,0-.256,0-.429q-.009-.6-.024-1.648c-.034-1.459-.08-3.522-.138-6.061-.12-5.117-.326-12.185-.453-19.992-.009-.976-.023-1.941-.014-2.889s.1-1.872.17-2.792c.148-1.836.294-3.605.465-5.286s.363-3.276.616-4.755a20.251,20.251,0,0,1,1.141-3.995,51.8,51.8,0,0,1,2.565-5.476q.5-.915.787-1.447l.206-.376a.486.486,0,0,0,.062-.133.546.546,0,0,0-.089.117l-.232.36c-.2.32-.488.8-.84,1.42a46.349,46.349,0,0,0-2.664,5.453,20.178,20.178,0,0,0-1.191,4.03c-.266,1.487-.468,3.086-.647,4.77s-.333,3.456-.484,5.292c-.072.916-.179,1.85-.175,2.813s0,1.919.013,2.9c.128,7.811.369,14.879.546,19.995.1,2.537.18,4.6.237,6.057.035.695.062,1.245.082,1.647.012.172.022.313.03.428a.524.524,0,0,0,.021.145" transform="translate(-118.743 -57.124)" fill="#263238"/>
        <path id="Path_24959" data-name="Path 24959" d="M371.8,208.66a2.777,2.777,0,0,0,.062-.459c.029-.3.063-.749.1-1.324.064-1.152.128-2.821.1-4.885-.014-1.032-.053-2.162-.123-3.373a16.787,16.787,0,0,1,.413-3.789,69.113,69.113,0,0,1,2.542-8.372c1.064-2.912,2.166-5.646,3.186-8.124a35.6,35.6,0,0,0,1.36-3.577c.328-1.166.541-2.274.722-3.287.354-2.028.547-3.684.672-4.828.061-.573.1-1.018.124-1.321a2.819,2.819,0,0,0,.02-.463,3.066,3.066,0,0,0-.076.456c-.045.329-.1.766-.177,1.312-.158,1.138-.381,2.787-.759,4.8-.193,1.006-.415,2.106-.749,3.252a36.381,36.381,0,0,1-1.374,3.536c-1.034,2.473-2.145,5.208-3.211,8.128a66.63,66.63,0,0,0-2.534,8.423,16.859,16.859,0,0,0-.394,3.873c.081,1.206.131,2.331.158,3.36.057,2.057.023,3.723-.007,4.874-.019.552-.034.992-.045,1.326a2.986,2.986,0,0,0-.005.463" transform="translate(-127.396 -56.505)" fill="#263238"/>
        <path id="Path_24960" data-name="Path 24960" d="M318.332,225.879l6.682,9.033a1.22,1.22,0,0,0,1.206.473l28.906-5.463a1.219,1.219,0,0,0,.933-1.574l-3.119-9.6a1.218,1.218,0,0,0-1.381-.822l-32.47,6.031a1.218,1.218,0,0,0-.757,1.922" transform="translate(-109.026 -74.687)" fill="#263238"/>
        <path id="Path_24961" data-name="Path 24961" d="M409.153,223.16a2.791,2.791,0,0,0-.971-.785,5.95,5.95,0,0,0-5.837-.079,2.771,2.771,0,0,0-.992.758c.031.041.409-.246,1.091-.56a6.44,6.44,0,0,1,5.633.076c.674.333,1.044.63,1.076.59" transform="translate(-137.563 -75.943)" fill="#263238"/>
        <g id="Group_11333" data-name="Group 11333" transform="translate(246.003 160.974)" opacity="0.3">
          <g id="Group_11332" data-name="Group 11332">
            <g id="Group_11331" data-name="Group 11331" clip-path="url(#clip-path-9)">
              <path id="Path_24962" data-name="Path 24962" d="M393.7,248.053l-12.079,4.442-1.19-4.739-5.409,1.092-.729-2.738,8.489-1.191.084,3.929L393,245.023Z" transform="translate(-374.291 -244.92)"/>
            </g>
          </g>
        </g>
        <path id="Path_24963" data-name="Path 24963" d="M375.189,231.045s-2.285-1.929-2.992-2.364-3.1-2.013-4.189-1.85l-1.088.163.979,2.883s-8.758-1.306-9.955.108,1.306,1.687,2.611,1.85,5.5.87,5.5.87-10.939-1.2-11.7,0,1.061,1.469,1.061,1.469l7.246,2.884.832.326.831,1.088s2.976,2.068,3.9,1.8,7.414-1.552,7.414-1.552Z" transform="translate(-121.391 -77.742)" fill="#ffc09d"/>
        <path id="Path_24964" data-name="Path 24964" d="M368.35,239.876a8.548,8.548,0,0,0-1.7-.517,42.637,42.637,0,0,0-8.465-1.185,8.54,8.54,0,0,0-1.774.032,11.907,11.907,0,0,0,1.76.189c1.087.093,2.586.239,4.233.469s3.128.5,4.2.712a11.8,11.8,0,0,0,1.744.3" transform="translate(-122.161 -81.628)" fill="#ff9b6c"/>
        <path id="Path_24965" data-name="Path 24965" d="M371.386,243.529a8.866,8.866,0,0,0-3.214-.835,8.9,8.9,0,0,0,3.214.835" transform="translate(-126.191 -83.174)" fill="#ff9b6c"/>
        <path id="Path_24966" data-name="Path 24966" d="M330.07,224.006s-1.316-1.5-2.315-1.5c-.9,0-1.6.521-1.6,1.211v1.017Z" transform="translate(-111.791 -76.263)" fill="#ffc09d"/>
        <path id="Path_24967" data-name="Path 24967" d="M341.216,183.059a1.969,1.969,0,0,0-.051.4c-.022.3-.05.68-.085,1.155-.077,1-.129,2.458-.164,4.256-.066,3.6.1,8.567.461,14.04s.668,10.427.737,14.017c.039,1.795.053,3.248.04,4.252,0,.477,0,.86,0,1.157a1.947,1.947,0,0,0,.022.4,1.954,1.954,0,0,0,.041-.4c.014-.3.034-.68.058-1.156.051-1,.07-2.46.059-4.258-.013-3.6-.288-8.561-.646-14.034s-.562-10.427-.552-14.018c.006-1.794.025-3.248.064-4.252.011-.477.02-.86.027-1.157a2,2,0,0,0-.012-.4" transform="translate(-116.843 -62.743)" fill="#263238"/>
        <path id="Path_24968" data-name="Path 24968" d="M396.945,192.631a3.992,3.992,0,0,0,.051-.805c.007-.517.039-1.266.1-2.187a37.389,37.389,0,0,1,3.7-13.852c.4-.83.751-1.5,1-1.947a3.981,3.981,0,0,0,.357-.724,4,4,0,0,0-.463.662c-.285.434-.662,1.086-1.094,1.909a33.332,33.332,0,0,0-3.727,13.938c-.035.929-.034,1.682,0,2.2a3.991,3.991,0,0,0,.07.8" transform="translate(-136.021 -59.336)" fill="#263238"/>
        <path id="Path_24969" data-name="Path 24969" d="M319.793,232.339a3.118,3.118,0,0,0-.629,2.338c.345,1.035,2.8,2.933,2.8,2.933s.949,1.121,1.38,1.121,2.488.373,2.344-.849-1.955-1.437-1.955-1.437-.043-.442-.82-1-1.725-1.219-1.725-1.219Z" transform="translate(-109.368 -79.634)" fill="#ffc09d"/>
        <path id="Path_24970" data-name="Path 24970" d="M322.83,239.309c-.024.031.094.188.37.346a1.475,1.475,0,0,0,1.234.107,1.174,1.174,0,0,0,.566-.445,1.023,1.023,0,0,0,.164-.563c-.01-.344-.185-.5-.212-.472-.042.022.037.194-.009.457a.944.944,0,0,1-.62.73,1.531,1.531,0,0,1-1.031-.017c-.268-.091-.433-.181-.46-.143" transform="translate(-110.649 -81.67)" fill="#ff9b6c"/>
        <path id="Path_24971" data-name="Path 24971" d="M340.606,219.132a8.943,8.943,0,0,0-2.715-5.019c-.071.061.75,1.051,1.493,2.436s1.132,2.608,1.222,2.582" transform="translate(-115.81 -73.387)" fill="#263238"/>
      </g>
    </g>
    <g id="Group_11349" data-name="Group 11349">
      <g id="Group_11348" data-name="Group 11348" clip-path="url(#clip-path)">
        <path id="Path_24972" data-name="Path 24972" d="M113.531,400.054l-.953,13.054s13.7,5.3,13.773,7.73L99.539,420l.6-20.4Z" transform="translate(-34.117 -136.963)" fill="#263238"/>
        <path id="Path_24973" data-name="Path 24973" d="M106.4,418.066a1.039,1.039,0,0,0-.8,1.159,1.053,1.053,0,0,0,1.207.759,1.094,1.094,0,0,0,.839-1.232,1.107,1.107,0,0,0-1.347-.657" transform="translate(-36.188 -143.28)" fill="#e0e0e0"/>
        <path id="Path_24974" data-name="Path 24974" d="M99.539,429.565l.146-2.054,25.651,1.573s1.176.529,1.013,1.32Z" transform="translate(-34.117 -146.529)" fill="#455a64"/>
        <path id="Path_24975" data-name="Path 24975" d="M118.746,419.91c-.009.124-.665.16-1.323.538-.669.362-1.02.889-1.138.835-.12-.028.1-.762.906-1.207s1.587-.279,1.555-.166" transform="translate(-39.846 -143.88)" fill="#fff"/>
        <path id="Path_24976" data-name="Path 24976" d="M123.308,421.757c.025.121-.549.314-1.012.824-.48.5-.611,1.06-.742,1.051-.124.016-.188-.713.4-1.337s1.355-.657,1.354-.538" transform="translate(-41.634 -144.538)" fill="#fff"/>
        <path id="Path_24977" data-name="Path 24977" d="M126.452,425.609c-.12.022-.281-.6.08-1.27s.981-.919,1.033-.814c.07.1-.34.456-.626,1.009s-.356,1.067-.486,1.075" transform="translate(-43.293 -145.155)" fill="#fff"/>
        <path id="Path_24978" data-name="Path 24978" d="M118.389,415.162c-.059.111-.653-.079-1.4-.054-.742.01-1.326.227-1.391.118-.072-.092.506-.533,1.38-.55s1.474.39,1.407.486" transform="translate(-39.621 -142.13)" fill="#fff"/>
        <path id="Path_24979" data-name="Path 24979" d="M65.728,399.97l-.789,15.814,3.186,12.678a1.628,1.628,0,0,1-1.385,1.975,1.763,1.763,0,0,1-1.494-.453c-2.492-2.375-11.615-11.156-11.489-12.31.146-1.336-.338-16.733-.338-16.733Z" transform="translate(-18.309 -137.09)" fill="#263238"/>
        <path id="Path_24980" data-name="Path 24980" d="M66.92,439.113,53.965,425.282l-.017.671a2.359,2.359,0,0,0,.57,1.6c1.032,1.205,3.957,4.475,10.858,11.11a1.773,1.773,0,0,0,1.545.454" transform="translate(-18.49 -145.765)" fill="#455a64"/>
        <g id="Group_11338" data-name="Group 11338" transform="translate(37.511 274.325)" opacity="0.6">
          <g id="Group_11337" data-name="Group 11337">
            <g id="Group_11336" data-name="Group 11336" clip-path="url(#clip-path-11)">
              <path id="Path_24981" data-name="Path 24981" d="M58.6,417.548a.948.948,0,0,1,.251,1.288,1.033,1.033,0,0,1-1.347.246,1,1,0,0,1-.258-1.365,1.077,1.077,0,0,1,1.431-.109" transform="translate(-57.073 -417.382)" fill="#fff"/>
            </g>
          </g>
        </g>
        <path id="Path_24982" data-name="Path 24982" d="M68.134,434.755a5.135,5.135,0,0,1,1.5-1.2,5.523,5.523,0,0,1,1.934-.3c.016-.038-.193-.166-.583-.227a2.8,2.8,0,0,0-1.505.216,2.628,2.628,0,0,0-1.15.945c-.2.321-.236.554-.195.568" transform="translate(-23.347 -148.41)" fill="#fff"/>
        <path id="Path_24983" data-name="Path 24983" d="M69.866,438.376a14.32,14.32,0,0,1,1.5-.646A14.636,14.636,0,0,1,73,437.568a1.991,1.991,0,0,0-1.735-.174c-.991.25-1.488.937-1.4.982" transform="translate(-23.943 -149.885)" fill="#fff"/>
        <path id="Path_24984" data-name="Path 24984" d="M64.871,430.536a17.5,17.5,0,0,1,2.242-1.146,17.949,17.949,0,0,1,2.494-.49,3.994,3.994,0,0,0-2.62.163,3.763,3.763,0,0,0-2.116,1.472" transform="translate(-22.233 -146.958)" fill="#fff"/>
        <path id="Path_24985" data-name="Path 24985" d="M64.593,423.8c.042.1.975-.248,2.179-.262,1.2-.029,2.149.282,2.187.185a4.46,4.46,0,0,0-4.366.077" transform="translate(-22.139 -145.048)" fill="#fff"/>
        <path id="Path_24986" data-name="Path 24986" d="M64.756,416.689a8.8,8.8,0,0,1,2.26-.329,8.735,8.735,0,0,1,2.2.578c.028-.032-.149-.235-.53-.455a3.922,3.922,0,0,0-3.352-.187c-.4.176-.607.358-.582.393" transform="translate(-22.194 -142.586)" fill="#fff"/>
        <path id="Path_24987" data-name="Path 24987" d="M66.987,413.561a1.3,1.3,0,0,0,.038-.6,3.984,3.984,0,0,0-.462-1.579,1.875,1.875,0,0,0-.813-.9.718.718,0,0,0-.78.127,1.029,1.029,0,0,0-.283.708,2.341,2.341,0,0,0,2.068,2.17,2.857,2.857,0,0,0,2.8-1.327.879.879,0,0,0,.066-.766.685.685,0,0,0-.7-.354,2.452,2.452,0,0,0-1.116.516,4.74,4.74,0,0,0-1.173,1.2,1.389,1.389,0,0,0-.271.541,7.6,7.6,0,0,1,1.6-1.545,2.3,2.3,0,0,1,.984-.428.363.363,0,0,1,.381.191.6.6,0,0,1-.074.5,2.557,2.557,0,0,1-2.438,1.124,2.038,2.038,0,0,1-1.784-1.818.742.742,0,0,1,.176-.5.387.387,0,0,1,.429-.076,1.694,1.694,0,0,1,.7.75,5.9,5.9,0,0,1,.654,2.062" transform="translate(-22.171 -140.671)" fill="#fff"/>
        <path id="Path_24988" data-name="Path 24988" d="M104.2,236.885a53.4,53.4,0,0,1,1.989,16.471c-.138,3.522-8.576,101.116-8.576,101.116l-16.9.636.917-91.461-1.372.336s-7.591,39.279-8.079,45.611c-.438,5.69-6.49,47.145-6.49,47.145l-15.446.749,2.649-54.63L56.443,250.4l1.522-15.288Z" transform="translate(-17.221 -80.585)" fill="#263238"/>
        <path id="Path_24989" data-name="Path 24989" d="M99.043,264.014c-.007.009.031.046.113.11a1.134,1.134,0,0,0,.414.176,1.913,1.913,0,0,0,1.571-.438,3.144,3.144,0,0,0,1-2.2c.084-.914.062-1.891.089-2.927.031-2.07.04-3.943.03-5.3a14.769,14.769,0,0,0-.083-2.2,14.641,14.641,0,0,0-.148,2.193c-.05,1.355-.1,3.228-.125,5.3-.026,1.031,0,2.028-.062,2.9a2.973,2.973,0,0,1-.847,2.057,1.847,1.847,0,0,1-1.4.49,3.119,3.119,0,0,1-.549-.161" transform="translate(-33.947 -86.111)" fill="#455a64"/>
        <path id="Path_24990" data-name="Path 24990" d="M61.027,254.725a1.363,1.363,0,0,0,.475.151,7.985,7.985,0,0,0,1.345.171,9.629,9.629,0,0,0,7.917-3.552,8.045,8.045,0,0,0,.766-1.119,1.353,1.353,0,0,0,.2-.454c-.048-.03-.4.586-1.145,1.424a10.279,10.279,0,0,1-7.736,3.471c-1.124,0-1.815-.147-1.825-.091" transform="translate(-20.917 -85.66)" fill="#455a64"/>
        <path id="Path_24991" data-name="Path 24991" d="M124.583,248.232a5.493,5.493,0,0,0,.32,1.668,12.576,12.576,0,0,0,4.747,6.561,5.468,5.468,0,0,0,1.484.826,15.232,15.232,0,0,1-6.551-9.056" transform="translate(-42.698 -85.081)" fill="#455a64"/>
        <path id="Path_24992" data-name="Path 24992" d="M109.78,80.311a3.092,3.092,0,0,0,1.157-6.042A3.216,3.216,0,0,0,108,68.918a3.849,3.849,0,0,0-5.881-3.007,4.328,4.328,0,0,0-5.33.028A3.078,3.078,0,0,0,94.2,71.227" transform="translate(-31.959 -22.281)" fill="#263238"/>
        <path id="Path_24993" data-name="Path 24993" d="M92.426,71.08l.679-.016a13.118,13.118,0,0,1,13.363,11.744c.663,6.323,1.315,13.318,1.355,16.718.082,7.04-6.93,8.3-6.93,8.3l.8,8.441L84.6,116.153l-2.25-30.629c-.806-7.292,2.766-13.84,10.078-14.444" transform="translate(-28.187 -24.356)" fill="#ae7461"/>
        <path id="Path_24994" data-name="Path 24994" d="M105.867,125.7a17.08,17.08,0,0,1-9.287-2.477s2.291,5.012,9.3,4.21Z" transform="translate(-33.103 -42.233)" fill="#6f4439"/>
        <path id="Path_24995" data-name="Path 24995" d="M114.037,99.111a1,1,0,0,1-.944,1.037.96.96,0,0,1-1.058-.881,1.006,1.006,0,0,1,.943-1.038.963.963,0,0,1,1.059.882" transform="translate(-38.399 -33.667)" fill="#263238"/>
        <path id="Path_24996" data-name="Path 24996" d="M114.856,93.7c-.122.134-.9-.411-1.978-.383s-1.861.589-1.982.459c-.059-.057.062-.3.4-.557a2.758,2.758,0,0,1,1.583-.53,2.65,2.65,0,0,1,1.578.468c.339.247.457.482.4.542" transform="translate(-38.005 -31.77)" fill="#263238"/>
        <path id="Path_24997" data-name="Path 24997" d="M99,99.054a1,1,0,0,1-.944,1.037A.962.962,0,0,1,97,99.21a1.006,1.006,0,0,1,.944-1.038A.962.962,0,0,1,99,99.054" transform="translate(-33.246 -33.647)" fill="#263238"/>
        <path id="Path_24998" data-name="Path 24998" d="M98.689,94.4c-.122.134-.9-.411-1.978-.382-1.08.013-1.861.589-1.981.459-.059-.057.06-.3.4-.557a2.765,2.765,0,0,1,1.582-.53,2.652,2.652,0,0,1,1.579.468c.338.247.457.482.4.542" transform="translate(-32.464 -32.009)" fill="#263238"/>
        <path id="Path_24999" data-name="Path 24999" d="M106.65,102.292a7.125,7.125,0,0,1,1.749-.36c.275-.035.536-.1.578-.286a1.409,1.409,0,0,0-.2-.814l-.867-2.083a36.169,36.169,0,0,1-1.967-5.456,36.2,36.2,0,0,1,2.4,5.286q.437,1.1.833,2.1a1.6,1.6,0,0,1,.17,1.081.691.691,0,0,1-.444.415,1.883,1.883,0,0,1-.467.077,7.051,7.051,0,0,1-1.78.045" transform="translate(-36.307 -31.976)" fill="#263238"/>
        <path id="Path_25000" data-name="Path 25000" d="M99.727,87.984c-.136.277-1.07,0-2.212-.007-1.142-.035-2.1.2-2.209-.08-.049-.135.149-.386.554-.615a3.43,3.43,0,0,1,1.7-.4,3.3,3.3,0,0,1,1.665.467c.385.244.559.5.5.636" transform="translate(-32.663 -29.778)" fill="#263238"/>
        <path id="Path_25001" data-name="Path 25001" d="M114.541,86.884c-.222.251-1.121.018-2.195.032-1.074-.018-1.978.213-2.193-.039-.095-.122.042-.372.434-.614a3.5,3.5,0,0,1,1.774-.446,3.442,3.442,0,0,1,1.762.452c.385.244.516.494.418.616" transform="translate(-37.745 -29.414)" fill="#263238"/>
        <path id="Path_25002" data-name="Path 25002" d="M104.829,79.139s-1.963-4.363-4.112-5.34c-2.6-1.183-3.642,1.667-6.11,1.041s-4.954-1.761-7.414.194C84.5,77.175,85.82,78.6,85.726,81.726c-.383,12.676-2.608,16.312-3.409,10.365-.088-.651-1.913-1.127-2.249-3.881-.434-3.571-.676-7.913.061-10.473a10.021,10.021,0,0,1,3.957-5.349c3.393-2.658,8.138-2.827,11.37-2.58s9.534,3.806,9.374,9.332" transform="translate(-27.302 -23.898)" fill="#263238"/>
        <path id="Path_25003" data-name="Path 25003" d="M81.918,102.506a1.91,1.91,0,0,0-2.107-1.791c-1.309.156-2.752.937-2.6,3.647.269,4.808,5.041,3.545,5.042,3.407,0-.094-.2-3.251-.335-5.263" transform="translate(-26.46 -34.516)" fill="#ae7461"/>
        <path id="Path_25004" data-name="Path 25004" d="M81.968,106.833c-.022-.014-.081.063-.218.136a.837.837,0,0,1-.626.048,2.075,2.075,0,0,1-1.063-1.805A2.774,2.774,0,0,1,80.228,104a.969.969,0,0,1,.594-.678.427.427,0,0,1,.507.2c.072.131.047.229.073.235s.1-.087.049-.283a.531.531,0,0,0-.206-.291.632.632,0,0,0-.47-.1,1.179,1.179,0,0,0-.833.795,2.844,2.844,0,0,0-.215,1.356,2.176,2.176,0,0,0,1.338,2.008.9.9,0,0,0,.758-.17c.143-.127.162-.236.145-.244" transform="translate(-27.323 -35.33)" fill="#6f4439"/>
        <path id="Path_25005" data-name="Path 25005" d="M81.716,81.707a4.572,4.572,0,0,0,2.06.892,1.571,1.571,0,0,0,1.715-1.146c.049-.337-.043-.723.172-.987.255-.315.742-.23,1.146-.2,1.4.115,3-1.47,3.324-2.839a1.256,1.256,0,0,0,1.687.308,4.515,4.515,0,0,0,1.134-1.059,1.979,1.979,0,0,1,1.631-.866,4.765,4.765,0,0,0,1.052.205c.63-.071.921-.818,1-1.448s.137-1.363.664-1.717a2.517,2.517,0,0,1,1.719-.089c.584.072,1.332-.083,1.467-.655a1.143,1.143,0,0,0-.237-.867,3.117,3.117,0,0,0-3.707-1.091,4.225,4.225,0,0,0-7.78-.632,4.288,4.288,0,0,0-6.814,1.728,3.108,3.108,0,0,0-3.394,4.6,2.95,2.95,0,0,0-1.566,2.388,1.689,1.689,0,0,0,1.955,1.68,1.721,1.721,0,0,0,3.017,1.644" transform="translate(-26.389 -23.041)" fill="#263238"/>
        <path id="Path_25006" data-name="Path 25006" d="M97.165,73.817a.282.282,0,0,1,0,.088c-.005.058-.007.145-.025.258a3.03,3.03,0,0,1-.327.936,3.438,3.438,0,0,1-1.04,1.163,3.2,3.2,0,0,1-1.957.61l.079-.108a1.738,1.738,0,0,1-.064,1.33,4.979,4.979,0,0,1-.795,1.2,3.6,3.6,0,0,1-.525.565,1.688,1.688,0,0,1-.756.3,1.757,1.757,0,0,1-1.562-.518l.179-.055A3.614,3.614,0,0,1,88.9,82.123a2.635,2.635,0,0,1-1.568.556,4.763,4.763,0,0,1-1.566-.3l.128-.06a3.8,3.8,0,0,1-1.1,1.512,2.018,2.018,0,0,1-1.665.5A2.65,2.65,0,0,1,81.038,82.3l.11.048a2.478,2.478,0,0,1-1.646.283,2.691,2.691,0,0,1-1.166-.486,2.331,2.331,0,0,1-.552-.575,1.153,1.153,0,0,1-.128-.246,2.889,2.889,0,0,0,.727.755,2.675,2.675,0,0,0,1.136.437,2.375,2.375,0,0,0,1.554-.294l.089-.053.022.1a2.5,2.5,0,0,0,1.977,1.876,1.834,1.834,0,0,0,1.511-.469,3.613,3.613,0,0,0,1.036-1.435l.035-.09.091.03a4.591,4.591,0,0,0,1.5.289,2.428,2.428,0,0,0,1.448-.517,3.416,3.416,0,0,0,1.391-2.388l.024-.228.154.173a1.559,1.559,0,0,0,1.379.456,1.492,1.492,0,0,0,.67-.261,3.55,3.55,0,0,0,.5-.53,4.878,4.878,0,0,0,.778-1.152,1.579,1.579,0,0,0,.076-1.2l-.042-.114.121.005a3.1,3.1,0,0,0,1.876-.555,3.43,3.43,0,0,0,1.035-1.1,3.765,3.765,0,0,0,.429-1.237" transform="translate(-26.616 -25.301)" fill="#455a64"/>
        <path id="Path_25007" data-name="Path 25007" d="M105.5,110.77c-.032-.179-1.209.1-2.283-.713s-1.24-2.094-1.407-2.064c-.078,0-.162.333-.052.866a3.016,3.016,0,0,0,1.108,1.739,2.621,2.621,0,0,0,1.9.522c.5-.071.764-.271.737-.35" transform="translate(-34.858 -37.014)" fill="#263238"/>
        <path id="Path_25008" data-name="Path 25008" d="M108.54,176.232l-.064-1.592-3.155-38.758c-.948-.241-9.618-2.1-9.618-2.1l-1.955-4.465-6.1,3.92L76.033,128.28l-1.585,4.356-12.784,5.6-.292.617,2.283,34.914-3.976,22.222.885,6.678,30.56,4.724a16.275,16.275,0,0,0,4.6-.183l13.862-2.548,1.53-3.941Z" transform="translate(-20.455 -43.968)" fill="#455a64"/>
        <path id="Path_25009" data-name="Path 25009" d="M58.169,142.339s-9.76,1.117-11.685,13.272c-1.6,10.122-6.074,32.861-3.817,36.654,6.147,10.328,14.744,2.136,14.744,2.136l.824-14.358,1.252-20.465Z" transform="translate(-14.41 -48.787)" fill="#455a64"/>
        <path id="Path_25010" data-name="Path 25010" d="M128.1,139.847a12.944,12.944,0,0,1,11.263,10.715c.724,3.508,2.432,34.657,2.432,34.657l-2.509,27.113-11.844-.953-.889-48.067Z" transform="translate(-43.377 -47.932)" fill="#455a64"/>
        <path id="Path_25011" data-name="Path 25011" d="M60.065,206.582a1.372,1.372,0,0,1,.064-.323c.064-.239.143-.542.242-.915l.955-3.4c.85-2.925,2.023-6.963,3.368-11.591l-.007.06c-.123-1.626-.195-3.344-.263-5.112-.218-6.072-.325-11.567-.436-15.544-.057-1.957-.1-3.556-.138-4.709-.017-.528-.031-.952-.041-1.28a2.191,2.191,0,0,1,.007-.448,2.189,2.189,0,0,1,.062.443c.03.292.069.722.105,1.278.081,1.11.163,2.72.247,4.708.173,3.975.318,9.472.536,15.538.068,1.766.137,3.485.252,5.1l0,.033-.009.028c-1.391,4.615-2.6,8.64-3.483,11.557-.438,1.407-.791,2.544-1.049,3.37l-.3.9a1.354,1.354,0,0,1-.122.306" transform="translate(-20.586 -55.979)" fill="#263238"/>
        <path id="Path_25012" data-name="Path 25012" d="M134.659,159.362c.095,0-.01,4.459-.233,9.949s-.48,9.941-.575,9.937.01-4.458.233-9.951.48-9.94.574-9.936" transform="translate(-45.865 -54.621)" fill="#263238"/>
        <path id="Path_25013" data-name="Path 25013" d="M95.538,135.534c.031.031-.443.549-1.079,1.543a32.4,32.4,0,0,0-2.292,4.141l-.081.179-.159-.1-1.888-1.244c-2.054-1.361-3.9-2.608-5.23-3.524-.664-.459-1.2-.834-1.562-1.1a2.742,2.742,0,0,1-.546-.442,2.851,2.851,0,0,1,.622.332c.387.233.942.577,1.623,1.01,1.361.864,3.228,2.078,5.28,3.437l1.879,1.251-.241.074a26.239,26.239,0,0,1,2.422-4.129,11.051,11.051,0,0,1,.876-1.087,1.425,1.425,0,0,1,.377-.337" transform="translate(-28.345 -46.265)" fill="#263238"/>
        <path id="Path_25014" data-name="Path 25014" d="M102.821,139.94a.8.8,0,0,1,.022.189c.009.143.018.325.032.551.021.512.051,1.223.088,2.126.072,1.846.147,4.517.216,7.82.139,6.6.208,15.732.043,25.81s-.538,19.2-.895,25.8c-.177,3.3-.341,5.966-.473,7.809-.068.9-.12,1.611-.158,2.12-.02.226-.037.408-.049.551a.763.763,0,0,1-.029.187.771.771,0,0,1-.006-.189c0-.144.009-.326.016-.553.022-.51.054-1.222.093-2.125.087-1.87.212-4.532.365-7.812.294-6.6.626-15.716.794-25.792s.133-19.2.057-25.8c-.045-3.282-.082-5.947-.108-7.82-.01-.9-.018-1.616-.024-2.127,0-.227,0-.409,0-.553a.8.8,0,0,1,.012-.189" transform="translate(-34.827 -47.964)" fill="#263238"/>
        <path id="Path_25015" data-name="Path 25015" d="M112.674,168.34a5.9,5.9,0,0,1,.728-.034l2.129-.039,7.7-.076.156,0-.007.158c-.135,2.986-.292,6.483-.46,10.21l-.005.114-.108.039-.012,0-5.424,1.969-.063.023-.06-.028-4.374-2-.085-.039v-.091c-.046-3.056-.084-5.612-.112-7.453-.005-.855-.01-1.543-.013-2.057a5.545,5.545,0,0,1,.016-.7c.011.011.028.277.053.763.022.522.053,1.22.091,2.088.064,1.817.153,4.339.26,7.355l-.086-.131,4.388,1.965-.124,0,5.419-1.982.013,0-.112.152c.185-3.727.358-7.223.5-10.208l.149.156-7.6-.076-2.163-.039c-.5-.012-.78-.022-.791-.034" transform="translate(-38.613 -57.647)" fill="#263238"/>
        <path id="Path_25016" data-name="Path 25016" d="M110.19,136.843a4.845,4.845,0,0,1-.948,1.224,13.034,13.034,0,0,1-1.228,1.15c-.245.2-.509.406-.791.6a2.859,2.859,0,0,1-.471.292.751.751,0,0,1-.66-.009,5.3,5.3,0,0,1-.851-.7c-.251-.235-.486-.469-.706-.7-.44-.454-.813-.884-1.115-1.255a5.452,5.452,0,0,1-.879-1.27,9.482,9.482,0,0,1,1.062,1.112c.321.346.709.755,1.155,1.19.223.218.459.445.71.674a5.923,5.923,0,0,0,.774.642c.236.143.5-.053.788-.25s.541-.386.786-.576c.49-.382.91-.753,1.254-1.076a12.249,12.249,0,0,1,1.119-1.052" transform="translate(-35.145 -46.675)" fill="#263238"/>
        <path id="Path_25017" data-name="Path 25017" d="M49.782,201.474s-.938-.708-3.648.3-2.663,8.586-2.663,8.586-.2,3.969,5.73,4.947,8.663-3.012,8.663-3.012l2.8-6.032Z" transform="translate(-14.9 -68.973)" fill="#ae7461"/>
        <path id="Path_25018" data-name="Path 25018" d="M67.692,199.4a2.571,2.571,0,0,1,2.525-.375c1.43.571.693,2.964.693,2.964l-2.07-1.01Z" transform="translate(-23.201 -68.152)" fill="#ae7461"/>
        <path id="Path_25019" data-name="Path 25019" d="M54.233,191.6c3.776,3.205,16.816,14.418,16.816,14.418l2.371.748-.9-2.314-16.6-14.791a1.288,1.288,0,1,0-1.7,1.938" transform="translate(-18.433 -64.896)" fill="#f34d4d"/>
        <path id="Path_25020" data-name="Path 25020" d="M62.011,201.83a1.3,1.3,0,0,0,.108-1.454c-.469-.749-1.176-.756-1.954-.79a65.737,65.737,0,0,0-6.991.885c-1.4.3-3.328,1.978-2.636,3.726l.6.706s-1.517,1.895-.6,3.183l1.079.783s-.491,2.471.638,3.067a3.627,3.627,0,0,0,2.5.153,6.98,6.98,0,0,0,2.848.584c1.476-.057,6.882-4.5,7.224-4.916a1.539,1.539,0,0,0,.1-1.8,2.076,2.076,0,0,0,0-1.511,1.028,1.028,0,0,0-.979-.805,2.1,2.1,0,0,0-.421-1.344,3.271,3.271,0,0,0-1.522-.465" transform="translate(-17.222 -68.408)" fill="#ae7461"/>
        <path id="Path_25021" data-name="Path 25021" d="M61.925,201.782a.618.618,0,0,1,.2,0,3.936,3.936,0,0,1,.59.088,1.583,1.583,0,0,1,.873.442,2.194,2.194,0,0,1,.359,1.282l-.091-.085a1.159,1.159,0,0,1,1.071.836,2.227,2.227,0,0,1,.014,1.613l-.009-.113a1.705,1.705,0,0,1,.2,1.408,1.609,1.609,0,0,1-.413.657c-.184.175-.373.339-.567.507-.781.663-1.635,1.348-2.561,2.04a22.69,22.69,0,0,1-3.065,1.993,3.247,3.247,0,0,1-.451.2,1.963,1.963,0,0,1-.507.133,5,5,0,0,1-1.006-.039,7.472,7.472,0,0,1-1.97-.547l.123.007a3.987,3.987,0,0,1-2.015.069,1.887,1.887,0,0,1-.956-.505,2.017,2.017,0,0,1-.434-1,5.953,5.953,0,0,1,.045-1.978l.067.171-1.077-.783-.023-.016-.016-.022a2.1,2.1,0,0,1-.205-1.83,4.92,4.92,0,0,1,.812-1.554l0,.208-.6-.707-.018-.021-.009-.024a2.289,2.289,0,0,1,.07-1.786,3.674,3.674,0,0,1,1.063-1.325,4.129,4.129,0,0,1,1.426-.764c.517-.131,1-.192,1.482-.269,1.913-.28,3.6-.478,5.015-.591a5.917,5.917,0,0,1,1.015-.012,3.222,3.222,0,0,1,.9.153,1.527,1.527,0,0,1,.964,1.038,1.269,1.269,0,0,1-.125.881c-.1.179-.175.253-.181.248s.054-.091.131-.271a1.264,1.264,0,0,0,.071-.83,1.421,1.421,0,0,0-.911-.918,3.121,3.121,0,0,0-.853-.122,5.78,5.78,0,0,0-.989.034c-1.4.139-3.088.363-4.99.662-.471.081-.973.151-1.444.277a3.835,3.835,0,0,0-1.315.72,3.37,3.37,0,0,0-.967,1.218,1.971,1.971,0,0,0-.057,1.539l-.027-.045.6.7.085.1-.082.11a4.613,4.613,0,0,0-.747,1.443,1.764,1.764,0,0,0,.16,1.539l-.038-.038,1.079.781.086.062-.019.109a5.647,5.647,0,0,0-.043,1.851,1.7,1.7,0,0,0,.352.831,1.57,1.57,0,0,0,.783.4,3.678,3.678,0,0,0,1.829-.059l.064-.018.059.026a7.2,7.2,0,0,0,1.871.524,4.669,4.669,0,0,0,.939.041,1.675,1.675,0,0,0,.42-.112,2.884,2.884,0,0,0,.421-.183,22.754,22.754,0,0,0,3.028-1.944c.927-.68,1.784-1.354,2.567-2,.387-.337.793-.615.917-1.038a1.478,1.478,0,0,0-.157-1.2l-.032-.054.024-.059c.379-.935-.08-2.2-.868-2.183l-.091,0v-.087a2.1,2.1,0,0,0-.292-1.2,1.539,1.539,0,0,0-.794-.436c-.5-.135-.775-.153-.772-.172" transform="translate(-17.136 -68.36)" fill="#6f4439"/>
        <path id="Path_25022" data-name="Path 25022" d="M63.679,202.986c.009.093-1.94.387-4.282,1.044a32.331,32.331,0,0,1-4.285,1.079,4.978,4.978,0,0,1,1.205-.486c.756-.259,1.809-.6,2.99-.923a14.8,14.8,0,0,1,4.371-.713" transform="translate(-18.889 -69.564)" fill="#6f4439"/>
        <path id="Path_25023" data-name="Path 25023" d="M66.062,205.749a6.833,6.833,0,0,1-1.326.795c-.84.45-2.014,1.049-3.344,1.644a31.3,31.3,0,0,1-3.487,1.33,5.816,5.816,0,0,1-1.508.35,8.638,8.638,0,0,1,1.43-.579c.889-.334,2.1-.824,3.426-1.414,2.64-1.192,4.762-2.222,4.809-2.126" transform="translate(-19.33 -70.518)" fill="#6f4439"/>
        <path id="Path_25024" data-name="Path 25024" d="M68.438,209.273a5.989,5.989,0,0,1-1.086.82c-.689.476-1.639,1.137-2.718,1.83a24.028,24.028,0,0,1-2.869,1.608,4.3,4.3,0,0,1-1.286.461,7.278,7.278,0,0,1,1.176-.677c.732-.4,1.72-.992,2.794-1.681a25.74,25.74,0,0,1,3.988-2.362" transform="translate(-20.729 -71.726)" fill="#6f4439"/>
        <path id="Path_25025" data-name="Path 25025" d="M140.734,234.7H107.04a1.392,1.392,0,0,1-1.481-1.282V190.958a1.392,1.392,0,0,1,1.481-1.282h33.695a1.392,1.392,0,0,1,1.481,1.282v42.459a1.392,1.392,0,0,1-1.481,1.282" transform="translate(-36.18 -65.011)" fill="#e0e0e0"/>
        <path id="Path_25026" data-name="Path 25026" d="M140.716,234.683l.114-.007a1.834,1.834,0,0,0,.33-.055,1.629,1.629,0,0,0,.484-.227,1.316,1.316,0,0,0,.444-.53,1.082,1.082,0,0,0,.1-.388c.009-.14,0-.289,0-.444,0-.311,0-.651,0-1.019,0-.737,0-1.587,0-2.544,0-3.828-.007-9.367-.011-16.211,0-3.422,0-7.171,0-11.194q0-3.019,0-6.237,0-1.607,0-3.261,0-.826,0-1.664a1.161,1.161,0,0,0-.327-.756,1.509,1.509,0,0,0-.8-.426,2.372,2.372,0,0,0-.481-.032h-33.53a1.576,1.576,0,0,0-1,.345,1.182,1.182,0,0,0-.447.844c-.007.645,0,1.295,0,1.939v3.842q0,3.814,0,7.511c0,4.925,0,9.675,0,14.2s0,8.825,0,12.849q0,.755,0,1.5c0,.246,0,.494,0,.737a1.143,1.143,0,0,0,.263.67,1.451,1.451,0,0,0,.633.438,1.735,1.735,0,0,0,.394.087c.134.011.273.008.411.008h1.635l6.207,0,18.732.01,5.093.006,1.324,0,.452,0-.452,0-1.324,0-5.093.006-18.732.01-6.207,0h-1.635c-.137,0-.275,0-.417-.009a1.8,1.8,0,0,1-.409-.09,1.509,1.509,0,0,1-.657-.455,1.182,1.182,0,0,1-.274-.7c-.007-.247,0-.492,0-.739q0-.742,0-1.5c0-4.024,0-8.324,0-12.849s0-9.276,0-14.2q0-3.693,0-7.511v-3.842c0-.645,0-1.29,0-1.942a1.239,1.239,0,0,1,.468-.885,1.653,1.653,0,0,1,1.048-.362h33.53a2.422,2.422,0,0,1,.5.034,1.577,1.577,0,0,1,.835.446,1.216,1.216,0,0,1,.341.79q0,.838,0,1.665,0,1.653,0,3.261,0,3.215,0,6.237c0,4.024,0,7.772,0,11.194,0,6.844-.009,12.383-.011,16.211,0,.956,0,1.807,0,2.544,0,.368,0,.708,0,1.019,0,.155,0,.3-.005.444a1.082,1.082,0,0,1-.1.391,1.322,1.322,0,0,1-.451.533,1.631,1.631,0,0,1-.489.226,1.741,1.741,0,0,1-.332.053l-.114,0" transform="translate(-36.162 -64.996)" fill="#263238"/>
        <g id="Group_11341" data-name="Group 11341" transform="translate(72.577 160.185)" opacity="0.3">
          <g id="Group_11340" data-name="Group 11340">
            <g id="Group_11339" data-name="Group 11339" clip-path="url(#clip-path-12)">
              <path id="Path_25027" data-name="Path 25027" d="M110.7,252.1l30.738-.145.352-5.139-.942-3.1-30.427,4.114Z" transform="translate(-110.425 -243.72)"/>
            </g>
          </g>
        </g>
        <path id="Path_25028" data-name="Path 25028" d="M140.716,234.683l.114-.007a1.834,1.834,0,0,0,.33-.055,1.629,1.629,0,0,0,.484-.227,1.316,1.316,0,0,0,.444-.53,1.082,1.082,0,0,0,.1-.388c.009-.14,0-.289,0-.444,0-.311,0-.651,0-1.019,0-.737,0-1.587,0-2.544,0-3.828-.007-9.367-.011-16.211,0-3.422,0-7.171,0-11.194q0-3.019,0-6.237,0-1.607,0-3.261,0-.826,0-1.664a1.161,1.161,0,0,0-.327-.756,1.509,1.509,0,0,0-.8-.426,2.372,2.372,0,0,0-.481-.032h-33.53a1.576,1.576,0,0,0-1,.345,1.182,1.182,0,0,0-.447.844c-.007.645,0,1.295,0,1.939v3.842q0,3.814,0,7.511c0,4.925,0,9.675,0,14.2s0,8.825,0,12.849q0,.755,0,1.5c0,.246,0,.494,0,.737a1.143,1.143,0,0,0,.263.67,1.451,1.451,0,0,0,.633.438,1.735,1.735,0,0,0,.394.087c.134.011.273.008.411.008h1.635l6.207,0,18.732.01,5.093.006,1.324,0,.452,0-.452,0-1.324,0-5.093.006-18.732.01-6.207,0h-1.635c-.137,0-.275,0-.417-.009a1.8,1.8,0,0,1-.409-.09,1.509,1.509,0,0,1-.657-.455,1.182,1.182,0,0,1-.274-.7c-.007-.247,0-.492,0-.739q0-.742,0-1.5c0-4.024,0-8.324,0-12.849s0-9.276,0-14.2q0-3.693,0-7.511v-3.842c0-.645,0-1.29,0-1.942a1.239,1.239,0,0,1,.468-.885,1.653,1.653,0,0,1,1.048-.362h33.53a2.422,2.422,0,0,1,.5.034,1.577,1.577,0,0,1,.835.446,1.216,1.216,0,0,1,.341.79q0,.838,0,1.665,0,1.653,0,3.261,0,3.215,0,6.237c0,4.024,0,7.772,0,11.194,0,6.844-.009,12.383-.011,16.211,0,.956,0,1.807,0,2.544,0,.368,0,.708,0,1.019,0,.155,0,.3-.005.444a1.082,1.082,0,0,1-.1.391,1.322,1.322,0,0,1-.451.533,1.631,1.631,0,0,1-.489.226,1.741,1.741,0,0,1-.332.053l-.114,0" transform="translate(-36.162 -64.996)" fill="#263238"/>
        <g id="Group_11344" data-name="Group 11344" transform="translate(72.577 160.185)" opacity="0.3">
          <g id="Group_11343" data-name="Group 11343">
            <g id="Group_11342" data-name="Group 11342" clip-path="url(#clip-path-12)">
              <path id="Path_25029" data-name="Path 25029" d="M110.7,252.1l30.738-.145.352-5.139-.942-3.1-30.427,4.114Z" transform="translate(-110.425 -243.72)"/>
            </g>
          </g>
        </g>
        <rect id="Rectangle_4604" data-name="Rectangle 4604" width="32.945" height="41.082" transform="translate(71.234 126.479)" fill="#fff"/>
        <path id="Path_25030" data-name="Path 25030" d="M141.31,233.5c0-.237-.012-16.837-.031-41.082l.031.026-32.941,0h0l.034-.029c0,15.428,0,29.681-.007,41.082l-.027-.024,32.945.024-32.945.024h-.028V233.5c0-11.4,0-25.654-.007-41.082v-.03h.038l32.941,0h.031v.027c-.018,24.245-.031,40.845-.031,41.082" transform="translate(-37.13 -65.942)" fill="#263238"/>
        <rect id="Rectangle_4605" data-name="Rectangle 4605" width="7.205" height="1.437" transform="translate(73.12 137.586)" fill="#e0e0e0"/>
        <rect id="Rectangle_4606" data-name="Rectangle 4606" width="14.443" height="1.437" transform="translate(81.195 134.453)" fill="#f5f5f5"/>
        <rect id="Rectangle_4607" data-name="Rectangle 4607" width="6.871" height="1.437" transform="translate(73.049 134.424)" fill="#f5f5f5"/>
        <rect id="Rectangle_4608" data-name="Rectangle 4608" width="5.226" height="1.437" transform="translate(96.464 134.448)" fill="#f5f5f5"/>
        <rect id="Rectangle_4609" data-name="Rectangle 4609" width="9.29" height="1.637" transform="translate(73.088 158.345)" fill="#e0e0e0"/>
        <rect id="Rectangle_4610" data-name="Rectangle 4610" width="28.5" height="1.637" transform="translate(73.088 141.189)" fill="#e0e0e0"/>
        <path id="Path_25031" data-name="Path 25031" d="M139.448,220.4c0,.095-6.141.171-13.716.171s-13.716-.076-13.716-.171,6.14-.171,13.716-.171,13.716.076,13.716.171" transform="translate(-38.393 -75.484)" fill="#263238"/>
        <path id="Path_25032" data-name="Path 25032" d="M139.448,222.565c0,.095-6.141.171-13.716.171s-13.716-.076-13.716-.171,6.14-.171,13.716-.171,13.716.076,13.716.171" transform="translate(-38.393 -76.225)" fill="#263238"/>
        <path id="Path_25033" data-name="Path 25033" d="M139.448,224.727c0,.1-6.141.172-13.716.172s-13.716-.076-13.716-.172,6.14-.17,13.716-.17,13.716.076,13.716.17" transform="translate(-38.393 -76.967)" fill="#263238"/>
        <path id="Path_25034" data-name="Path 25034" d="M124.251,226.89a54.813,54.813,0,0,1-6.117.171,54.82,54.82,0,0,1-6.118-.171,54.825,54.825,0,0,1,6.118-.171,54.818,54.818,0,0,1,6.117.171" transform="translate(-38.393 -77.708)" fill="#263238"/>
        <path id="Path_25035" data-name="Path 25035" d="M139.448,229.052c0,.1-6.141.172-13.716.172s-13.716-.076-13.716-.172,6.14-.17,13.716-.17,13.716.076,13.716.17" transform="translate(-38.393 -78.449)" fill="#263238"/>
        <path id="Path_25036" data-name="Path 25036" d="M139.448,231.215c0,.095-6.141.171-13.716.171s-13.716-.076-13.716-.171,6.14-.171,13.716-.171,13.716.076,13.716.171" transform="translate(-38.393 -79.19)" fill="#263238"/>
        <path id="Path_25037" data-name="Path 25037" d="M134,233.377c0,.095-4.921.171-10.991.171s-10.993-.076-10.993-.171,4.921-.171,10.993-.171,10.991.076,10.991.171" transform="translate(-38.393 -79.931)" fill="#263238"/>
        <path id="Path_25038" data-name="Path 25038" d="M139.448,235.54c0,.095-6.141.171-13.716.171s-13.716-.076-13.716-.171,6.14-.171,13.716-.171,13.716.076,13.716.171" transform="translate(-38.393 -80.673)" fill="#263238"/>
        <path id="Path_25039" data-name="Path 25039" d="M139.448,237.7c0,.095-6.141.171-13.716.171s-13.716-.076-13.716-.171,6.14-.171,13.716-.171,13.716.076,13.716.171" transform="translate(-38.393 -81.414)" fill="#263238"/>
        <path id="Path_25040" data-name="Path 25040" d="M138.709,192.439H121.816v-3.152a1.464,1.464,0,0,1,1.464-1.464h13.965a1.464,1.464,0,0,1,1.464,1.464Z" transform="translate(-41.752 -64.376)" fill="#263238"/>
        <path id="Path_25041" data-name="Path 25041" d="M135.7,185.182h-4.3l.5,3.472h3.238Z" transform="translate(-45.036 -63.471)" fill="#263238"/>
        <path id="Path_25042" data-name="Path 25042" d="M138.189,187.806c0,.018-3.3.034-7.361.034s-7.362-.015-7.362-.034,3.3-.034,7.362-.034,7.361.015,7.361.034" transform="translate(-42.318 -64.359)" fill="#455a64"/>
        <path id="Path_25043" data-name="Path 25043" d="M122.372,192.192c-.02,0-.035-.653-.035-1.458s.016-1.458.035-1.458.035.653.035,1.458-.016,1.458-.035,1.458" transform="translate(-41.931 -64.874)" fill="#455a64"/>
        <path id="Path_25044" data-name="Path 25044" d="M146.667,191.807a24.714,24.714,0,0,1,0-2.648,24.714,24.714,0,0,1,0,2.648" transform="translate(-50.258 -64.834)" fill="#455a64"/>
        <path id="Path_25045" data-name="Path 25045" d="M137.566,194.1c0,.018-3.384.034-7.556.034s-7.556-.015-7.556-.034,3.382-.034,7.556-.034,7.556.015,7.556.034" transform="translate(-41.971 -66.518)" fill="#455a64"/>
        <g id="Group_11347" data-name="Group 11347" transform="translate(96.868 124.768)" opacity="0.3">
          <g id="Group_11346" data-name="Group 11346">
            <g id="Group_11345" data-name="Group 11345" clip-path="url(#clip-path-14)">
              <path id="Path_25046" data-name="Path 25046" d="M147.472,189.833l.7,1.953v.957h-.789Z" transform="translate(-147.383 -189.833)"/>
            </g>
          </g>
        </g>
        <path id="Path_25047" data-name="Path 25047" d="M136.45,257.083l-.772-1.219s-.292-3.077-1.708-3.137-1.668,1.643-1.668,1.643a1.582,1.582,0,0,0-1.4-1.393c-1.281-.136-1.316,1.518-1.316,1.518s-.117-1.9-1.151-1.74a2.215,2.215,0,0,0-1.516,1.138s.027-1.548-.521-1.717a1.284,1.284,0,0,0-1.505.58c-.446.6-.252,3.468-.252,3.468a1.283,1.283,0,0,0,1.114,1.243l.872-.152s-.245,2.78,1.714,3.052,1.89-.594,1.89-.594a2.383,2.383,0,0,0,2.3.913c1.442-.3,1.256-1.17,1.256-1.17s1.535.671,2.217.162.447-2.593.447-2.593" transform="translate(-42.705 -86.411)" fill="#ae7461"/>
        <path id="Path_25048" data-name="Path 25048" d="M127.524,258.176a4.889,4.889,0,0,1,.448-3.8,15.609,15.609,0,0,1-.271,1.893,16.093,16.093,0,0,1-.177,1.9" transform="translate(-43.638 -87.188)" fill="#6f4439"/>
        <path id="Path_25049" data-name="Path 25049" d="M132.845,260.957a6.5,6.5,0,0,1-.782-2.782,7.077,7.077,0,0,1,.154-2.887c.106.008.028,1.293.187,2.85s.541,2.785.442,2.818" transform="translate(-45.245 -87.5)" fill="#6f4439"/>
        <path id="Path_25050" data-name="Path 25050" d="M137.89,260.733c-.034.026-.258-.2-.5-.647a8.553,8.553,0,0,1-.673-1.83,8.957,8.957,0,0,1-.415-2.707,14.283,14.283,0,0,1,.746,2.619,17.3,17.3,0,0,0,.562,1.816c.172.453.317.719.275.749" transform="translate(-46.711 -87.589)" fill="#6f4439"/>
      </g>
    </g>
  </g>
</svg>
