<svg width="24" height="24" viewBox="0 0 24 24" fill="none" xmlns="http://www.w3.org/2000/svg">
<path d="M20.0302 10.6582L14.0882 5.10025C14.0587 5.06718 14.0222 5.04107 13.9814 5.02377C13.9406 5.00648 13.8965 4.99845 13.8522 5.00025C13.6672 5.00825 13.4312 5.13925 13.4312 5.33725V8.12325C13.4301 8.1653 13.4143 8.20563 13.3865 8.23724C13.3587 8.26884 13.3208 8.28972 13.2792 8.29625C7.37121 9.20125 4.87921 13.6222 4.00321 18.2122C3.96921 18.3932 4.21421 18.5612 4.32721 18.4182C5.33628 16.9964 6.67639 15.8417 8.23174 15.0538C9.7871 14.2659 11.5109 13.8686 13.2542 13.8962C13.3025 13.9035 13.3467 13.9275 13.379 13.9641C13.4114 14.0007 13.4299 14.0474 13.4312 14.0962V16.8332C13.4379 16.9009 13.4636 16.9652 13.5052 17.0189C13.5469 17.0725 13.6028 17.1134 13.6667 17.1367C13.7305 17.1599 13.7996 17.1648 13.866 17.1505C13.9324 17.1363 13.9935 17.1036 14.0422 17.0562L20.0252 11.4012C20.0735 11.3561 20.1115 11.3011 20.1369 11.2401C20.1622 11.1791 20.1743 11.1133 20.1722 11.0472C20.1759 10.9043 20.1252 10.7652 20.0302 10.6582Z" fill="#F34D4D"/>
</svg>
