<svg xmlns="http://www.w3.org/2000/svg" width="15" height="15" viewBox="0 0 15 15">
  <g id="Iconly_Bulk_Upload" data-name="Iconly/Bulk/Upload" transform="translate(0 15) rotate(-90)">
    <g id="Upload">
      <path id="Fill_1" data-name="Fill 1" d="M0,3.335A3.369,3.369,0,0,1,3.393,0H7.114A3.361,3.361,0,0,1,10.5,3.328v8.337A3.369,3.369,0,0,1,7.106,15H3.387A3.361,3.361,0,0,1,0,11.672V3.335Z" transform="translate(0 15) rotate(-90)" fill="#f34d4d"/>
      <path id="Fill_3" data-name="Fill 3" d="M9.735,2.35,7.6.169a.552.552,0,0,0-.8,0,.589.589,0,0,0,0,.817L7.976,2.182H.562a.578.578,0,0,0,0,1.155H7.976L6.807,4.531a.589.589,0,0,0,0,.817.551.551,0,0,0,.8,0L9.735,3.169a.588.588,0,0,0,0-.818" transform="translate(4.741 9.901) rotate(-90)" fill="#f34d4d"/>
    </g>
  </g>
</svg>
