<svg width="48" height="48" viewBox="0 0 48 48" fill="none" xmlns="http://www.w3.org/2000/svg">
<path d="M36.7856 4H11V38.2509H36.7856V4Z" fill="#E7E6E6"/>
<path d="M26.9962 33.8906L24.2129 42.8154L26.893 40.9759L28.9157 34.4912L26.9962 33.8906Z" fill="#A3DADD"/>
<path d="M30.8358 35.0788L28.9163 34.4766L26.8936 40.9612L28.0525 43.9984L30.8358 35.0788Z" fill="#64BDC5"/>
<path d="M32.6798 33.8906L35.4631 42.8136L32.783 40.9741L30.7603 34.4895L32.6798 33.8906Z" fill="#64BDC5"/>
<path d="M28.8413 35.0788L30.7608 34.4766L32.7836 40.9612L31.6246 43.9984L28.8413 35.0788Z" fill="#A3DADD"/>
<path d="M30.0241 32.1654L29.9897 32.1172L30.0164 32.1774L30.0241 32.1817V32.1654Z" fill="#FB6F05"/>
<path d="M30.0376 32.1444L30.0229 32.0781V32.1461L30.0307 32.1581L30.0376 32.1444Z" fill="#FB6F05"/>
<path d="M30.0248 32.1838V32.1761L30.0171 32.1641V32.1804L30.0248 32.1838Z" fill="#FB6F05"/>
<path d="M30.0479 32.173L30.0617 32.1094L30.0376 32.1627V32.1791L30.0479 32.173Z" fill="#FB6F05"/>
<path d="M30.0469 32.1654L30.077 32.125L30.0477 32.1517V32.1672L30.0469 32.1654Z" fill="#FB6F05"/>
<path d="M30.0234 32.1778V32.1684L30.0156 32.1641L30.0216 32.1787L30.0234 32.1778Z" fill="#FB6F05"/>
<path d="M30.042 32.1796V32.1641L30.0352 32.1701L30.042 32.1796Z" fill="#FB6F05"/>
<path d="M30.0377 32.1804H30.042V32.1641L30.0352 32.177L30.0377 32.1804Z" fill="#FB6F05"/>
<path d="M30.0152 32.1769L29.98 32.1562L30.0178 32.1907L30.0152 32.1769Z" fill="#FB6F05"/>
<path d="M30.0243 32.1719L30.02 32.1762H30.0303L30.0243 32.1719Z" fill="#FB6F05"/>
<path d="M30.0171 32.1719L30.0231 32.1779V32.1729L30.0171 32.1719Z" fill="#FB6F05"/>
<path d="M30.0254 32.1719V32.1769L30.0304 32.1719H30.0254Z" fill="#FB6F05"/>
<path d="M30.0293 32.204L30.0345 32.2109V32.2031H30.0302L30.0293 32.204Z" fill="#FB6F05"/>
<path d="M30.0299 32.1703L30.0259 32.1719L30.0287 32.1791L30.0327 32.1775L30.0299 32.1703Z" fill="#FB6F05"/>
<path d="M30.0238 32.1719V32.1813H30.0281L30.0229 32.1753L30.0238 32.1719Z" fill="#FB6F05"/>
<path d="M30.0381 32.1813H30.0433V32.1719L30.0381 32.1813Z" fill="#FB6F05"/>
<path d="M30.0398 32.1736L30.0347 32.1788H30.039V32.1719L30.0398 32.1736Z" fill="#FB6F05"/>
<path d="M30.0073 32.177H30.0202V32.1719L30.0073 32.177Z" fill="#FB6F05"/>
<path d="M30.002 32.1719L30.0226 32.1788L30.0174 32.1736L30.002 32.1719Z" fill="#FB6F05"/>
<path d="M30.0606 32.1719H30.0469V32.1779L30.0606 32.1719Z" fill="#FB6F05"/>
<path d="M30.034 32.1719L30.0288 32.1762H30.0348H30.04L30.034 32.1719Z" fill="#FB6F05"/>
<path d="M30.0283 32.1732L30.0259 32.1797L30.0299 32.1812L30.0323 32.1748L30.0283 32.1732Z" fill="#FB6F05"/>
<path d="M30.0374 32.1709L30.0322 32.1641V32.1718H30.0374V32.1709Z" fill="#FB6F05"/>
<path d="M30.0273 32.1641H30.0229V32.1727H30.0273V32.1641Z" fill="#FB6F05"/>
<path d="M30.0379 32.1628L30.0347 32.1641L30.0371 32.1705L30.0404 32.1692L30.0379 32.1628Z" fill="#FB6F05"/>
<path d="M30.0412 32.1769V32.1719H30.0352L30.0412 32.1769Z" fill="#FB6F05"/>
<path d="M30.0429 32.1735V32.1641H30.0386L30.0429 32.1701V32.1735Z" fill="#FB6F05"/>
<path d="M30.0222 32.1719L24.4408 32.744C24.459 32.9771 24.3984 33.2094 24.2688 33.4039C24.1991 33.4959 24.1541 33.6042 24.138 33.7185C24.1219 33.8328 24.1352 33.9493 24.1767 34.057L30.0024 32.1813L30.0222 32.1719Z" fill="#FB6F05"/>
<path d="M24.6696 30.4297C24.5921 30.6515 24.4421 30.8406 24.2437 30.9666C24.1436 31.0219 24.0589 31.1016 23.9977 31.1983C23.9365 31.295 23.9007 31.4056 23.8936 31.5198L30.0023 32.1797L24.6696 30.4297Z" fill="#FB6F05"/>
<path d="M30.0024 32.1599L23.8937 31.5C23.8918 31.6012 23.9119 31.7016 23.9526 31.7943C23.9933 31.887 24.0536 31.9698 24.1294 32.0369C24.3184 32.2232 24.4302 32.4739 24.4426 32.739L30.0239 32.1668L30.0024 32.1599Z" fill="#E55C00"/>
<path d="M24.1797 34.0788C24.2194 34.1705 24.2784 34.2526 24.3526 34.3195C24.4268 34.3865 24.5146 34.4367 24.6099 34.4668C24.8561 34.5592 25.0589 34.7402 25.1786 34.9744L30.0053 32.2031L24.1797 34.0788Z" fill="#E55C00"/>
<path d="M30.0217 32.1719L30.0079 32.1762L25.1812 34.9475C25.2949 35.154 25.3358 35.3928 25.2973 35.6254C25.2709 35.7375 25.2735 35.8544 25.3048 35.9652C25.3361 36.076 25.3951 36.177 25.4763 36.2587L29.9907 32.2149L30.0217 32.1719Z" fill="#FB6F05"/>
<path d="M30.0147 32.1478L29.988 32.0885L26.402 27.1172C26.3158 27.1832 26.2464 27.2685 26.1991 27.3662C26.1519 27.4639 26.1283 27.5714 26.1301 27.6799C26.1183 27.9382 26.012 28.1831 25.8315 28.3682L29.9794 32.1263L30.0147 32.1478Z" fill="#E55C00"/>
<path d="M30.0244 32.1543V32.0863L28.7511 26.0938C28.6443 26.1178 28.5449 26.167 28.4609 26.2371C28.377 26.3073 28.311 26.3965 28.2684 26.4973C28.1563 26.7226 27.9675 26.9005 27.7358 26.9989L29.9892 32.1061L30.0244 32.1543Z" fill="#E55C00"/>
<path d="M27.7351 27.0078C27.5096 27.1104 27.2552 27.1302 27.0166 27.0637C26.915 27.0288 26.8066 27.0179 26.7 27.0319C26.5934 27.046 26.4915 27.0845 26.4023 27.1446L29.9884 32.1159L27.7351 27.0078Z" fill="#FB6F05"/>
<path d="M25.4702 36.266C25.544 36.3341 25.6316 36.3855 25.7271 36.4167C25.8226 36.4479 25.9237 36.4581 26.0234 36.4467C26.2806 36.431 26.5346 36.5099 26.7375 36.6686L29.9846 32.2188L25.4702 36.266Z" fill="#E55C00"/>
<path d="M25.8318 28.3672C25.6695 28.544 25.4514 28.6597 25.214 28.695C25.1032 28.7047 24.9965 28.741 24.9028 28.8009C24.8092 28.8609 24.7314 28.9426 24.6763 29.0392L29.9788 32.1228L25.8318 28.3672Z" fill="#FB6F05"/>
<path d="M30.0178 32.1649L29.98 32.1305L24.6774 29.0469C24.6306 29.1401 24.6054 29.2426 24.6036 29.3468C24.6018 29.4511 24.6235 29.5544 24.6671 29.6492C24.7627 29.8951 24.7627 30.168 24.6671 30.414L30.0015 32.1632L30.0178 32.1649Z" fill="#E55C00"/>
<path d="M34.5747 36.2703C34.6538 36.1881 34.711 36.0874 34.7411 35.9773C34.7711 35.8673 34.7731 35.7515 34.7467 35.6405C34.7091 35.4147 34.7469 35.1828 34.8543 34.9806L30.0835 32.2188L34.5747 36.2703Z" fill="#E55C00"/>
<path d="M30.0498 32.1719L30.0876 32.2063L34.8585 34.9681C34.9766 34.7257 35.1832 34.5379 35.4358 34.4433C35.5293 34.4136 35.6156 34.3645 35.689 34.2993C35.7623 34.2341 35.8212 34.1541 35.8617 34.0647L30.0644 32.1719H30.0498Z" fill="#FB6F05"/>
<path d="M30.0649 32.1719L35.8622 34.0647C35.9064 33.9563 35.9217 33.8382 35.9066 33.7221C35.8915 33.606 35.8466 33.4958 35.7762 33.4022C35.6505 33.213 35.5901 32.9879 35.6041 32.7612L30.0649 32.1719Z" fill="#E55C00"/>
<path d="M30.0224 32.2109L29.9932 32.2367L26.7461 36.6866C26.9405 36.8296 27.0794 37.0354 27.1393 37.2691C27.1607 37.3801 27.2094 37.484 27.2809 37.5715C27.3523 37.6591 27.4444 37.7275 27.5488 37.7707L30.0095 32.2746L30.0224 32.2109Z" fill="#FB6F05"/>
<path d="M32.5155 37.7565C32.6164 37.7114 32.705 37.6427 32.7737 37.5561C32.8424 37.4696 32.8893 37.3677 32.9104 37.2592C32.9685 37.032 33.1016 36.831 33.2881 36.6888L30.0771 32.2578L32.5155 37.7565Z" fill="#E55C00"/>
<path d="M30.0299 32.2109L30.0058 32.2651L28.8589 37.6115C29.1026 37.6608 29.3211 37.7946 29.4758 37.9893C29.5385 38.0791 29.6217 38.1526 29.7185 38.2038C29.8153 38.2549 29.923 38.2823 30.0325 38.2835L30.0445 32.2772L30.0299 32.2109Z" fill="#FB6F05"/>
<path d="M30.0435 32.2109V32.2789L31.1688 37.6184C31.418 37.5557 31.6815 37.5863 31.9096 37.7045C31.9996 37.7579 32.1006 37.7902 32.2048 37.7992C32.3091 37.8081 32.4141 37.7934 32.5119 37.7561L30.0744 32.2574L30.0435 32.2109Z" fill="#FB6F05"/>
<path d="M27.5439 37.7609C27.6406 37.7959 27.7439 37.8091 27.8462 37.7994C27.9486 37.7897 28.0475 37.7575 28.1359 37.705C28.3578 37.5891 28.6137 37.5562 28.8578 37.612L30.0047 32.2656L27.5439 37.7609Z" fill="#E55C00"/>
<path d="M30.0322 38.272C30.1386 38.2679 30.2427 38.2392 30.3361 38.1882C30.4296 38.1371 30.5099 38.0651 30.5708 37.9777C30.7222 37.7873 30.9351 37.6555 31.1731 37.6051L30.0477 32.2656L30.0322 38.272Z" fill="#E55C00"/>
<path d="M30.0522 32.2109L30.0789 32.2712L33.2899 36.7021C33.495 36.5359 33.755 36.4524 34.0186 36.4681C34.1194 36.4797 34.2215 36.4692 34.3178 36.4372C34.4141 36.4053 34.5023 36.3527 34.5762 36.2831L30.0884 32.2316L30.0522 32.2109Z" fill="#FB6F05"/>
<path d="M30.0381 32.2031V32.2109L30.0467 32.2229V32.2066L30.0381 32.2031Z" fill="#FB6F05"/>
<path d="M30.0293 32.223L30.0431 32.2892V32.223L30.0344 32.2109L30.0293 32.223Z" fill="#FB6F05"/>
<path d="M30.0439 32.2195L30.0783 32.2677L30.0517 32.2074L30.0439 32.2031V32.2195Z" fill="#FB6F05"/>
<path d="M30.0524 32.1856L30.0877 32.2063L30.0498 32.1719L30.0524 32.1856Z" fill="#FB6F05"/>
<path d="M30.0439 32.1727V32.1822L30.0517 32.1865L30.0457 32.1719L30.0439 32.1727Z" fill="#FB6F05"/>
<path d="M30.0178 32.21L30.0049 32.2728L30.029 32.2195V32.2031L30.0178 32.21Z" fill="#FB6F05"/>
<path d="M30.0302 32.2031H30.0259V32.2195L30.0311 32.2066L30.0302 32.2031Z" fill="#FB6F05"/>
<path d="M30.0283 32.1719V32.1874L30.0352 32.1805L30.0283 32.1719Z" fill="#FB6F05"/>
<path d="M30.0199 32.1727L29.9897 32.2132L30.019 32.1874V32.1719L30.0199 32.1727Z" fill="#FB6F05"/>
<path d="M30.0234 26.518C29.7725 26.5216 29.5286 26.4359 29.3351 26.2762C29.2568 26.2044 29.1629 26.1515 29.0609 26.1216C28.9589 26.0918 28.8513 26.0858 28.7466 26.1042L30.02 32.0967L30.0234 26.518Z" fill="#FB6F05"/>
<path d="M34.2304 28.391C34.0408 28.2043 33.9286 27.953 33.9164 27.6872C33.9171 27.5887 33.897 27.4912 33.8574 27.4011C33.8178 27.3109 33.7596 27.2301 33.6867 27.1641L30.0825 32.1293L34.2304 28.391Z" fill="#FB6F05"/>
<path d="M30.0474 32.1649L30.0766 32.1383L33.6851 27.1764C33.5953 27.1015 33.4876 27.0511 33.3726 27.0302C33.2575 27.0092 33.139 27.0184 33.0286 27.0569C32.797 27.1213 32.5503 27.104 32.3299 27.0078L30.0611 32.1013L30.0474 32.1649Z" fill="#E55C00"/>
<path d="M32.3274 27.0015C32.0878 26.9053 31.8916 26.7248 31.7759 26.4939C31.7354 26.4001 31.6748 26.3164 31.5984 26.2486C31.522 26.1808 31.4316 26.1306 31.3337 26.1016L30.0586 32.095L32.3274 27.0015Z" fill="#FB6F05"/>
<path d="M30.0367 32.1613L30.0608 32.107L31.3359 26.1136C31.2257 26.0864 31.1104 26.0872 31.0005 26.1159C30.8907 26.1446 30.7898 26.2003 30.707 26.278C30.5148 26.437 30.2724 26.5226 30.0229 26.5197V32.0941L30.0367 32.1613Z" fill="#E55C00"/>
<path d="M30.0439 32.1703L36.1526 31.5345C36.1507 31.4154 36.1174 31.2989 36.0559 31.1969C35.9943 31.0949 35.9069 31.011 35.8025 30.9537C35.61 30.8324 35.463 30.6509 35.3843 30.4375L30.0611 32.1634L30.0439 32.1703Z" fill="#E55C00"/>
<path d="M30.0474 32.1782H30.0603L35.3869 29.1074C35.3366 28.9998 35.2588 28.9073 35.1614 28.8394C35.064 28.7714 34.9503 28.7303 34.8319 28.7203C34.6018 28.6857 34.3898 28.5752 34.2297 28.4062L30.0775 32.1412L30.0474 32.1782Z" fill="#E55C00"/>
<path d="M30.0632 32.1818L35.6024 32.7694C35.6105 32.4976 35.7229 32.2394 35.9164 32.0484C35.9885 31.9842 36.0466 31.9058 36.0872 31.8182C36.1277 31.7306 36.1498 31.6356 36.1521 31.5391L30.0435 32.1749L30.0632 32.1818Z" fill="#FB6F05"/>
<path d="M30.0491 32.1788H30.0637L30.0439 32.1719L30.0491 32.1788Z" fill="#FB6F05"/>
<path d="M35.3831 30.4385C35.2812 30.1878 35.2793 29.9076 35.3779 29.6556C35.4178 29.5675 35.4392 29.4722 35.4405 29.3755C35.4418 29.2788 35.4232 29.1829 35.3857 29.0938L30.0591 32.1645L35.3831 30.4385Z" fill="#FB6F05"/>
<path d="M34.1479 32.1923C34.1479 33.0091 33.9056 33.8076 33.4518 34.4867C32.998 35.1659 32.3531 35.6952 31.5984 36.0078C30.8438 36.3204 30.0134 36.4022 29.2123 36.2428C28.4112 36.0835 27.6754 35.6901 27.0978 35.1126C26.5202 34.535 26.1269 33.7991 25.9675 32.998C25.8082 32.1969 25.89 31.3665 26.2026 30.6119C26.5151 29.8573 27.0445 29.2123 27.7236 28.7585C28.4028 28.3047 29.2012 28.0625 30.018 28.0625C31.1133 28.0625 32.1638 28.4976 32.9383 29.2721C33.7128 30.0466 34.1479 31.097 34.1479 32.1923Z" fill="#F6F7F8"/>
<path d="M30.0208 36.567C29.1558 36.567 28.3103 36.3105 27.5911 35.8299C26.8719 35.3494 26.3114 34.6664 25.9804 33.8672C25.6494 33.0681 25.5628 32.1888 25.7315 31.3404C25.9002 30.4921 26.3168 29.7128 26.9284 29.1012C27.54 28.4896 28.3192 28.0731 29.1676 27.9043C30.0159 27.7356 30.8953 27.8222 31.6944 28.1532C32.4935 28.4842 33.1765 29.0448 33.6571 29.7639C34.1376 30.4831 34.3941 31.3287 34.3941 32.1936C34.393 33.3532 33.9318 34.4649 33.1119 35.2848C32.292 36.1047 31.1803 36.5658 30.0208 36.567ZM30.0208 28.3142C29.2533 28.3142 28.503 28.5418 27.8649 28.9682C27.2268 29.3946 26.7294 30.0007 26.4358 30.7098C26.1421 31.4188 26.0653 32.1991 26.2151 32.9518C26.3649 33.7045 26.7345 34.396 27.2773 34.9386C27.82 35.4812 28.5115 35.8507 29.2643 36.0004C30.0171 36.15 30.7973 36.073 31.5063 35.7792C32.2153 35.4854 32.8213 34.9879 33.2476 34.3497C33.6738 33.7114 33.9013 32.9611 33.9011 32.1936C33.9 31.1649 33.4907 30.1787 32.7633 29.4514C32.0358 28.7241 31.0495 28.3151 30.0208 28.3142Z" fill="#FFCE00"/>
<path d="M34.2342 6.71175H13.8431C13.6177 6.71175 13.4336 6.60161 13.4336 6.46567C13.4336 6.32973 13.6177 6.21875 13.8431 6.21875H34.2342C34.4596 6.21875 34.6429 6.32973 34.6429 6.46567C34.6429 6.60161 34.4605 6.71175 34.2342 6.71175Z" fill="#F34D4D"/>
<path d="M34.2342 8.68746H13.8431C13.6177 8.68746 13.4336 8.57733 13.4336 8.44139C13.4336 8.30545 13.6177 8.19531 13.8431 8.19531H34.2342C34.4596 8.19531 34.6429 8.30545 34.6429 8.44139C34.6429 8.57733 34.4605 8.68746 34.2342 8.68746Z" fill="#F34D4D"/>
<path d="M34.2342 10.6571H13.8431C13.6177 10.6571 13.4336 10.5461 13.4336 10.4101C13.4336 10.2742 13.6177 10.1641 13.8431 10.1641H34.2342C34.4596 10.1641 34.6429 10.2742 34.6429 10.4101C34.6429 10.5461 34.4605 10.6571 34.2342 10.6571Z" fill="#F34D4D"/>
<path d="M34.2342 12.6258H13.8431C13.6177 12.6258 13.4336 12.5148 13.4336 12.3789C13.4336 12.243 13.6177 12.1328 13.8431 12.1328H34.2342C34.4596 12.1328 34.6429 12.243 34.6429 12.3789C34.6429 12.5148 34.4605 12.6258 34.2342 12.6258Z" fill="#F34D4D"/>
<path d="M34.2342 17.5546H13.8431C13.6177 17.5546 13.4336 17.4445 13.4336 17.3086C13.4336 17.1726 13.6177 17.0625 13.8431 17.0625H34.2342C34.4596 17.0625 34.6429 17.1726 34.6429 17.3086C34.6429 17.4445 34.4605 17.5546 34.2342 17.5546Z" fill="#F34D4D"/>
<path d="M34.2342 19.5312H13.8431C13.6177 19.5312 13.4336 19.4211 13.4336 19.2851C13.4336 19.1492 13.6177 19.0391 13.8431 19.0391H34.2342C34.4596 19.0391 34.6429 19.1492 34.6429 19.2851C34.6429 19.4211 34.4605 19.5312 34.2342 19.5312Z" fill="#F34D4D"/>
<path d="M34.2342 21.5008H13.8431C13.6177 21.5008 13.4336 21.3907 13.4336 21.2539C13.4336 21.1171 13.6177 21.0078 13.8431 21.0078H34.2342C34.4596 21.0078 34.6429 21.1179 34.6429 21.2539C34.6429 21.3898 34.4605 21.5008 34.2342 21.5008Z" fill="#F34D4D"/>
<path d="M34.2342 23.4696H13.8431C13.6177 23.4696 13.4336 23.3594 13.4336 23.2235C13.4336 23.0876 13.6177 22.9766 13.8431 22.9766H34.2342C34.4596 22.9766 34.6429 23.0867 34.6429 23.2235C34.6429 23.3603 34.4605 23.4696 34.2342 23.4696Z" fill="#F34D4D"/>
</svg>
