<svg id="Iconly_Bulk_Folder" data-name="Iconly/Bulk/Folder" xmlns="http://www.w3.org/2000/svg" width="21.001" height="21" viewBox="0 0 21.001 21">
  <g id="Folder" transform="translate(0 0)">
    <path id="Folder_2" data-name="Folder 2" d="M15.629,3.271h-3.09a2.551,2.551,0,0,1-1.989-.932L9.532.932A2.485,2.485,0,0,0,7.553,0H5.368C1.447,0,0,2.3,0,6.215v4.23c0,.465,21,.465,21,0V9.215C21.015,5.3,19.606,3.271,15.629,3.271Z" transform="translate(0 0)" fill="#ccc" opacity="0.4"/>
    <path id="Folder-2" data-name="Folder" d="M15.085,17.746h0c-.108,0-.217,0-.325-.008H6.228c-.107.005-.215.008-.322.008a6.318,6.318,0,0,1-4.272-1.657,4.711,4.711,0,0,1-.7-.932,6.093,6.093,0,0,1-.821-2.293A8.555,8.555,0,0,1,0,11.476V5.961a12.751,12.751,0,0,1,.075-1.38C.085,4.5.1,4.423.116,4.347a1.989,1.989,0,0,0,.052-.389A5.9,5.9,0,0,1,.681,2.365C1.421.784,2.948.016,5.35.016H15.619C15.759.005,15.9,0,16.041,0a5.5,5.5,0,0,1,3.387,1.172,2.919,2.919,0,0,1,.346.345,4.132,4.132,0,0,1,.765,1.332A8.936,8.936,0,0,1,21,5.961v5.515a9.913,9.913,0,0,1-.1,1.388,6.26,6.26,0,0,1-.84,2.293,4.668,4.668,0,0,1-.71.932A6.282,6.282,0,0,1,15.085,17.746ZM5.219,9.231a.867.867,0,1,0,0,1.733H15.845a.867.867,0,0,0,.867-.839.78.78,0,0,0-.186-.559.828.828,0,0,0-.654-.335Z" transform="translate(0 3.254)" fill="#ccc"/>
  </g>
</svg>
