<svg xmlns="http://www.w3.org/2000/svg" xmlns:xlink="http://www.w3.org/1999/xlink" width="109" height="93" viewBox="0 0 109 93">
  <defs>
    <filter id="Ellipse_889" x="23.84" y="14.752" width="57.617" height="57.617" filterUnits="userSpaceOnUse">
      <feOffset dy="3" input="SourceAlpha"/>
      <feGaussianBlur stdDeviation="3" result="blur"/>
      <feFlood flood-opacity="0.161"/>
      <feComposite operator="in" in2="blur"/>
      <feComposite in="SourceGraphic"/>
    </filter>
  </defs>
  <g id="Group_11358" data-name="Group 11358" transform="translate(-54 -254)">
    <g id="Group_11210" data-name="Group 11210" transform="translate(54 254)">
      <g id="Group_10382" data-name="Group 10382" transform="translate(0 0)">
        <rect id="Rectangle_3812" data-name="Rectangle 3812" width="109" height="93" rx="15" fill="#f34d4d"/>
        <g id="Group_10364" data-name="Group 10364" transform="translate(20.578 20.752)">
          <text id="Upload_Document" data-name="Upload Document" transform="translate(3.571 51.044)" fill="#fffafb" font-size="7" font-family="SegoeUI, Segoe UI"><tspan x="0" y="0">Upload Document</tspan></text>
          <g id="Group_10363" data-name="Group 10363" transform="translate(12.262)">
            <g transform="matrix(1, 0, 0, 1, -32.84, -20.75)" filter="url(#Ellipse_889)">
              <circle id="Ellipse_889-2" data-name="Ellipse 889" cx="19.809" cy="19.809" r="19.809" transform="translate(32.84 20.75)" fill="#fff"/>
            </g>
            <g id="Group_10362" data-name="Group 10362" transform="translate(11.181 11.259)">
              <g id="Camera" transform="translate(0.875 2.357)">
                <path id="Combined_Shape" data-name="Combined Shape" d="M.942,5.685A3.22,3.22,0,0,1,0,3.411,3.17,3.17,0,0,1,.934,1.145a3.216,3.216,0,1,1,.008,4.54ZM1.8,2.012A1.911,1.911,0,0,0,1.229,3.4v.008A1.984,1.984,0,0,0,3.219,5.4a2,2,0,0,0,1.99-1.988A1.993,1.993,0,0,0,1.8,2.012ZM7.076.744a.741.741,0,1,1,.737.736A.741.741,0,0,1,7.076.744Z" transform="translate(4.971 5.048)" fill="#f34d4d"/>
                <path id="Path" d="M12.645,2.651l-.082-.18c-.221-.466-.475-1.006-.631-1.317A2,2,0,0,0,10.114,0H6.257a1.988,1.988,0,0,0-1.81,1.153c-.164.327-.442.916-.672,1.4l-.049.1a.161.161,0,0,1-.156.1A3.572,3.572,0,0,0,0,6.316v4.859a3.572,3.572,0,0,0,3.571,3.567h9.238a3.577,3.577,0,0,0,3.571-3.567V6.316a3.577,3.577,0,0,0-3.571-3.567A.186.186,0,0,1,12.645,2.651Z" fill="#f34d4d" opacity="0.4"/>
              </g>
              <g id="Button">
                <g id="plus">
                  <path id="Shape" d="M7,0V3.933" transform="translate(-5.033)" fill="#f34d4d" stroke="#f34d4d" stroke-linecap="round" stroke-linejoin="round" stroke-width="1" fill-rule="evenodd"/>
                  <path id="Shape-2" data-name="Shape" d="M0,7H3.933" transform="translate(0 -5.033)" fill="#f34d4d" stroke="#f34d4d" stroke-linecap="round" stroke-linejoin="round" stroke-width="1" fill-rule="evenodd"/>
                </g>
              </g>
            </g>
          </g>
        </g>
      </g>
    </g>
  </g>
</svg>
