<svg xmlns="http://www.w3.org/2000/svg" width="159.6" height="152.533" viewBox="0 0 159.6 152.533">
  <g id="Group_9719" data-name="Group 9719" transform="translate(-22.594 -17.395)">
    <g id="BACKGROUND" transform="translate(22.594 17.395)" opacity="0.6">
      <g id="Group_9678" data-name="Group 9678" transform="translate(1.891 5.809)">
        <g id="Group_9677" data-name="Group 9677" transform="translate(0 0)">
          <g id="Group_9672" data-name="Group 9672" transform="translate(0 3.532)" opacity="0.41">
            <g id="Group_9671" data-name="Group 9671">
              <g id="Group_9670" data-name="Group 9670">
                <path id="Path_23553" data-name="Path 23553" d="M28.3,134.3a47.672,47.672,0,0,1-.188-7.96,51.956,51.956,0,0,1,15.143-33.2c3.121-3.113,6.708-5.944,8.641-9.938C55.151,76.485,54.5,68.988,58.627,62.3A37.9,37.9,0,0,1,76.172,47.245c21.422-8.871,52.581,2.072,51.174,29.043-.005.1-.009.237-.012.415a9.664,9.664,0,0,0,9.889,9.892c20.145-.58,38.256,14.34,42.965,34.206,3.028,12.776-.167,27.124-8.955,36.742-6.559,7.179-15.63,11.413-24.765,14.476-18.314,6.142-37.8,8.258-57.052,7.3-18.017-.9-37.188-5.154-49.485-18.62A46.708,46.708,0,0,1,28.3,134.3Z" transform="translate(-28.026 -44.223)" fill="#c7c7c7"/>
              </g>
            </g>
          </g>
          <g id="Group_9673" data-name="Group 9673" transform="translate(92.227)" opacity="0.31">
            <ellipse id="Ellipse_2768" data-name="Ellipse 2768" cx="4.628" cy="4.533" rx="4.628" ry="4.533" transform="matrix(0.021, -1, 1, 0.021, 0, 9.255)" fill="#c7c7c7"/>
          </g>
          <g id="Group_9674" data-name="Group 9674" transform="translate(20.049 2.335)" opacity="0.31">
            <path id="Path_23554" data-name="Path 23554" d="M85.612,43.3a2.34,2.34,0,1,0,2.217-2.509A2.355,2.355,0,0,0,85.612,43.3Z" transform="translate(-85.609 -40.785)" fill="#c7c7c7"/>
          </g>
          <g id="Group_9675" data-name="Group 9675" transform="translate(154.613 57.149)" opacity="0.31">
            <path id="Path_23555" data-name="Path 23555" d="M472.088,199.877a1.549,1.549,0,1,0,1.467-1.66A1.559,1.559,0,0,0,472.088,199.877Z" transform="translate(-472.086 -198.215)" fill="#c7c7c7"/>
          </g>
          <g id="Group_9676" data-name="Group 9676" transform="translate(132.974 130.914)" opacity="0.31">
            <ellipse id="Ellipse_2769" data-name="Ellipse 2769" cx="7.287" cy="7.136" rx="7.287" ry="7.136" transform="translate(0 14.57) rotate(-88.801)" fill="#c7c7c7"/>
          </g>
        </g>
      </g>
      <g id="Group_9682" data-name="Group 9682" transform="translate(0 0)">
        <g id="Group_9679" data-name="Group 9679">
          <path id="Path_23556" data-name="Path 23556" d="M23.683,73.843a8.335,8.335,0,0,1,2.933-11.257c3.854-2.284,11.467-2.535,13.7,1.4s-3.684,7.723-5.979,11.623C31.136,81.046,25.916,77.775,23.683,73.843Z" transform="translate(-22.594 -45.774)" fill="#c7c7c7" opacity="0.47"/>
          <path id="Path_23557" data-name="Path 23557" d="M73.76,428.218a6.1,6.1,0,0,1-8.626-1.423c-1.995-2.825-2.753-8.732.016-10.771s6.043,2.277,9.128,3.766C78.58,421.866,76.529,426.178,73.76,428.218Z" transform="translate(-49.157 -276.879)" fill="#c7c7c7" opacity="0.47"/>
          <path id="Path_23558" data-name="Path 23558" d="M403.351,19.81a7.68,7.68,0,0,1,11.02-.168c3.086,3.06,5.3,10.224,2.3,13.377s-8-1.472-12.147-2.628C398.733,28.778,400.351,22.963,403.351,19.81Z" transform="translate(-269.011 -17.395)" fill="#c7c7c7" opacity="0.47"/>
        </g>
        <g id="Group_9681" data-name="Group 9681" transform="translate(5.831 11.743)">
          <path id="Path_23559" data-name="Path 23559" d="M41.317,96.556A33.968,33.968,0,0,0,40.05,114.8c1.764,8.11,7.837,15.239,6.8,23.888-.621,5.19-.511,9.948-.636,15.047-.257,10.471,7.06,19.14,15.642,23.478,6.971,3.524,14.9,4.454,22.548,3.78a86.217,86.217,0,0,0,20.213-4.654c6.308-2.159,12.431-4.843,19.233-4.642,5.657.167,10.9,2.269,16.27,3.729,12.816,3.486,27.979,2.99,38.873-4.564,11.941-8.28,16.764-23.993,12.591-37.723-2.238-7.365-5.227-13.748-4.145-21.6.532-3.86,1.325-7.789.593-11.616a21.473,21.473,0,0,0-4.9-9.451c-6.175-7.441-14.966-12.185-24.1-14.976-10.367-3.167-21.877-4.893-32.657-3.254-20.941,3.185-25.5.087-47.389-3.02C64.324,67.143,50.559,78.8,43.876,90.831A36.315,36.315,0,0,0,41.317,96.556Z" transform="translate(-39.34 -62.763)" fill="#c7c7c7" opacity="0.32"/>
          <g id="Group_9680" data-name="Group 9680" transform="translate(8.998)" opacity="0.83">
            <path id="Path_23560" data-name="Path 23560" d="M68.3,101.765c3.016-3.98,7.679-6.683,9.963-11.256,2.735-5.475,2.159-11.936,4.6-17.529a38.034,38.034,0,0,1,18.332-19.14,25.241,25.241,0,0,1,12.5-2.664c6.511.5,12.127,4.375,16.519,9,6.536,6.889,11.158,16.673,19,22.193,4.329,3.046,9.416-.186,14-1.211a31.731,31.731,0,0,1,15.531.524A33.036,33.036,0,0,1,199.662,99.44c4.2,9.2,3.6,21.926-4.276,29.838-3.644,3.66-8.585,6.107-11.289,10.491-3.393,5.5-3.791,12.939-4.739,19.057a40.433,40.433,0,0,1-8.274,18.8l-.148.186a26.655,26.655,0,0,1-31.258,7.835l-23.083-10c-23.421-10.147-41.2-26.5-49.738-50.195-1.847-5.128-2.518-16.06-.165-21.066A14.685,14.685,0,0,1,68.3,101.765Z" transform="translate(-65.183 -51.12)" fill="#c7c7c7" opacity="0.81"/>
          </g>
        </g>
      </g>
      <circle id="Ellipse_2770" data-name="Ellipse 2770" cx="1.567" cy="1.567" r="1.567" transform="translate(124.29 143.093)" fill="#c7c7c7" opacity="0.58"/>
      <circle id="Ellipse_2771" data-name="Ellipse 2771" cx="0.783" cy="0.783" r="0.783" transform="translate(85.423 6.256)" fill="#c7c7c7" opacity="0.58"/>
      <circle id="Ellipse_2772" data-name="Ellipse 2772" cx="1.882" cy="1.882" r="1.882" transform="translate(151.235 22.873) rotate(-63.039)" fill="#c7c7c7" opacity="0.58"/>
      <path id="Path_23561" data-name="Path 23561" d="M287.04,18.287a.738.738,0,1,1-.568-.876A.738.738,0,0,1,287.04,18.287Z" transform="translate(-194.014 -17.395)" fill="#c7c7c7" opacity="0.58"/>
      <path id="Path_23562" data-name="Path 23562" d="M436.321,85.082a.627.627,0,1,1-.482-.744A.627.627,0,0,1,436.321,85.082Z" transform="translate(-291.461 -61.021)" fill="#c7c7c7" opacity="0.58"/>
    </g>
    <g id="OBJECTS" transform="translate(37.552 26.557)">
      <g id="Group_9697" data-name="Group 9697" transform="translate(5.163 20.87)">
        <g id="Group_9687" data-name="Group 9687" transform="translate(26.627)" opacity="0.66">
          <g id="Group_9686" data-name="Group 9686">
            <g id="Group_9683" data-name="Group 9683" transform="translate(55.01)">
              <path id="Path_23563" data-name="Path 23563" d="M334.445,140.116h-2.718a2.071,2.071,0,0,1-2.069-2.069V134.99a1.378,1.378,0,0,0-.9-1.289c-.321-.118-.641-.25-.95-.394a1.391,1.391,0,0,0-1.563.268l-2.162,2.162a2.07,2.07,0,0,1-2.926,0l-1.922-1.922a2.072,2.072,0,0,1,0-2.926l2.162-2.162a1.39,1.39,0,0,0,.267-1.563c-.144-.312-.277-.632-.393-.951a1.379,1.379,0,0,0-1.289-.9h-3.057a2.072,2.072,0,0,1-2.07-2.069v-2.718a2.072,2.072,0,0,1,2.07-2.069h3.057a1.379,1.379,0,0,0,1.289-.9c.117-.319.25-.639.393-.95a1.391,1.391,0,0,0-.267-1.563l-2.162-2.162a2.071,2.071,0,0,1,0-2.926l1.922-1.922a2.071,2.071,0,0,1,2.926,0l2.162,2.162a1.391,1.391,0,0,0,1.563.268c.312-.144.632-.277.951-.394a1.379,1.379,0,0,0,.9-1.289v-3.057a2.071,2.071,0,0,1,2.069-2.069h2.718a2.072,2.072,0,0,1,2.069,2.069v3.057a1.379,1.379,0,0,0,.9,1.289c.318.117.638.249.95.393a1.39,1.39,0,0,0,1.563-.267l2.162-2.162a2.071,2.071,0,0,1,2.926,0l1.922,1.922a2.072,2.072,0,0,1,0,2.926l-2.162,2.162a1.389,1.389,0,0,0-.268,1.563c.144.312.276.631.393.951a1.379,1.379,0,0,0,1.289.9h3.057a2.072,2.072,0,0,1,2.07,2.069v2.718a2.072,2.072,0,0,1-2.07,2.069h-3.057a1.379,1.379,0,0,0-1.289.9c-.117.319-.249.638-.393.95a1.389,1.389,0,0,0,.267,1.563l2.162,2.162a2.072,2.072,0,0,1,0,2.926l-1.922,1.922a2.07,2.07,0,0,1-2.926,0l-2.162-2.162a1.391,1.391,0,0,0-1.563-.268c-.31.143-.629.276-.95.394a1.378,1.378,0,0,0-.9,1.289v3.057A2.072,2.072,0,0,1,334.445,140.116Zm-7.229-7.636a2.1,2.1,0,0,1,.883.195c.292.135.594.26.9.371a2.078,2.078,0,0,1,1.358,1.943v3.057a1.374,1.374,0,0,0,1.372,1.373h2.718a1.374,1.374,0,0,0,1.373-1.373V134.99a2.078,2.078,0,0,1,1.359-1.943c.3-.111.605-.236.9-.371a2.089,2.089,0,0,1,2.348.407l2.162,2.162a1.375,1.375,0,0,0,1.942,0l1.922-1.922a1.375,1.375,0,0,0,0-1.942l-2.162-2.162a2.088,2.088,0,0,1-.407-2.348c.136-.294.261-.6.371-.9a2.078,2.078,0,0,1,1.943-1.359h3.057a1.375,1.375,0,0,0,1.373-1.373v-2.718a1.375,1.375,0,0,0-1.373-1.373h-3.057a2.078,2.078,0,0,1-1.943-1.358c-.111-.3-.236-.6-.371-.9a2.087,2.087,0,0,1,.407-2.348l2.162-2.162a1.375,1.375,0,0,0,0-1.941l-1.922-1.922a1.375,1.375,0,0,0-1.942,0l-2.162,2.162a2.089,2.089,0,0,1-2.348.407c-.295-.136-.6-.261-.9-.372a2.078,2.078,0,0,1-1.359-1.943v-3.057a1.374,1.374,0,0,0-1.373-1.373h-2.718a1.374,1.374,0,0,0-1.372,1.373v3.057A2.078,2.078,0,0,1,329,110.719c-.3.11-.6.235-.9.372a2.088,2.088,0,0,1-2.348-.407l-2.162-2.162a1.375,1.375,0,0,0-1.942,0l-1.922,1.922a1.375,1.375,0,0,0,0,1.941l2.162,2.162a2.09,2.09,0,0,1,.407,2.348c-.136.294-.261.6-.372.9a2.077,2.077,0,0,1-1.943,1.358h-3.057a1.375,1.375,0,0,0-1.373,1.373v2.718a1.375,1.375,0,0,0,1.373,1.373h3.057a2.077,2.077,0,0,1,1.943,1.359c.111.3.236.6.372.9a2.09,2.09,0,0,1-.407,2.348l-2.162,2.162a1.375,1.375,0,0,0,0,1.942l1.922,1.922a1.375,1.375,0,0,0,1.942,0l2.162-2.162A2.072,2.072,0,0,1,327.216,132.481Zm5.871-1.04a9.558,9.558,0,1,1,9.557-9.558A9.569,9.569,0,0,1,333.086,131.441Zm0-18.419a8.861,8.861,0,1,0,8.861,8.861A8.871,8.871,0,0,0,333.086,113.022Z" transform="translate(-314.853 -103.65)" fill="#fff"/>
            </g>
            <g id="Group_9684" data-name="Group 9684" transform="translate(31.781 69.728)" opacity="0.84">
              <path id="Path_23564" data-name="Path 23564" d="M285.9,320.335h-3.391a1.909,1.909,0,0,1-1.792-1.253q-.192-.522-.424-1.024a1.92,1.92,0,0,1,.374-2.169l2.4-2.4a1.909,1.909,0,0,0,0-2.7l-2.131-2.131a1.908,1.908,0,0,0-2.7,0l-2.4,2.4a1.92,1.92,0,0,1-2.169.374q-.5-.232-1.025-.424a1.91,1.91,0,0,1-1.253-1.792v-3.391a1.909,1.909,0,0,0-1.909-1.909h-3.014a1.909,1.909,0,0,0-1.909,1.909v3.391a1.91,1.91,0,0,1-1.253,1.792q-.523.192-1.024.424a1.92,1.92,0,0,1-2.169-.374l-2.4-2.4a1.909,1.909,0,0,0-2.7,0l-2.131,2.131a1.909,1.909,0,0,0,0,2.7l2.4,2.4a1.92,1.92,0,0,1,.374,2.169q-.232.5-.424,1.024a1.909,1.909,0,0,1-1.792,1.253h-3.391a1.909,1.909,0,0,0-1.909,1.909v3.014a1.909,1.909,0,0,0,1.909,1.909h3.391a1.909,1.909,0,0,1,1.792,1.253q.192.522.424,1.024a1.92,1.92,0,0,1-.374,2.169l-2.4,2.4a1.909,1.909,0,0,0,0,2.7l2.131,2.131a1.909,1.909,0,0,0,2.7,0l2.4-2.4a1.921,1.921,0,0,1,2.169-.374q.5.232,1.024.424a1.91,1.91,0,0,1,1.253,1.792v3.391a1.909,1.909,0,0,0,1.909,1.909h3.014a1.909,1.909,0,0,0,1.909-1.909v-3.391a1.91,1.91,0,0,1,1.253-1.792q.523-.192,1.025-.424a1.92,1.92,0,0,1,2.169.374l2.4,2.4a1.908,1.908,0,0,0,2.7,0l2.131-2.131a1.909,1.909,0,0,0,0-2.7l-2.4-2.4a1.92,1.92,0,0,1-.374-2.169q.232-.5.424-1.024a1.909,1.909,0,0,1,1.792-1.253H285.9a1.909,1.909,0,0,0,1.909-1.909v-3.014A1.909,1.909,0,0,0,285.9,320.335Zm-17.926,13.629a10.213,10.213,0,1,1,10.213-10.214A10.213,10.213,0,0,1,267.973,333.964Z" transform="translate(-248.138 -303.916)" fill="#fff"/>
            </g>
            <g id="Group_9685" data-name="Group 9685" transform="translate(0 75.71)">
              <path id="Path_23565" data-name="Path 23565" d="M173.373,351.84H171.09a1.8,1.8,0,0,1-1.794-1.794v-2.568a1.1,1.1,0,0,0-.721-1.031c-.269-.1-.539-.21-.8-.332a1.113,1.113,0,0,0-1.25.214l-1.816,1.816a1.793,1.793,0,0,1-2.537,0l-1.614-1.614a1.793,1.793,0,0,1,0-2.537l1.816-1.816a1.112,1.112,0,0,0,.214-1.25c-.121-.262-.233-.532-.333-.8a1.1,1.1,0,0,0-1.031-.721h-2.568a1.8,1.8,0,0,1-1.794-1.794v-2.283a1.8,1.8,0,0,1,1.794-1.794h2.568a1.1,1.1,0,0,0,1.031-.721c.1-.273.212-.542.333-.8a1.112,1.112,0,0,0-.214-1.25l-1.816-1.816a1.793,1.793,0,0,1,0-2.537l1.614-1.615a1.8,1.8,0,0,1,2.537,0l1.816,1.816a1.111,1.111,0,0,0,1.25.213c.259-.12.53-.232.8-.332a1.1,1.1,0,0,0,.721-1.031v-2.568a1.8,1.8,0,0,1,1.794-1.794h2.283a1.8,1.8,0,0,1,1.794,1.794v2.568a1.1,1.1,0,0,0,.721,1.031c.273.1.543.212.8.332a1.112,1.112,0,0,0,1.251-.213l1.816-1.816a1.8,1.8,0,0,1,2.537,0l1.615,1.615a1.794,1.794,0,0,1,0,2.537l-1.816,1.816a1.113,1.113,0,0,0-.214,1.251c.121.259.233.53.333.8a1.1,1.1,0,0,0,1.031.721h2.568a1.8,1.8,0,0,1,1.794,1.794v2.283a1.8,1.8,0,0,1-1.794,1.794h-2.568a1.1,1.1,0,0,0-1.031.721c-.1.271-.211.541-.333.8a1.112,1.112,0,0,0,.214,1.25l1.816,1.816a1.794,1.794,0,0,1,0,2.537l-1.615,1.614a1.793,1.793,0,0,1-2.537,0l-1.816-1.816a1.114,1.114,0,0,0-1.251-.214c-.264.122-.534.234-.8.333a1.1,1.1,0,0,0-.721,1.031v2.568A1.8,1.8,0,0,1,173.373,351.84Zm-6.072-6.526a1.821,1.821,0,0,1,.765.169c.245.114.5.218.749.31a1.8,1.8,0,0,1,1.178,1.685v2.568a1.1,1.1,0,0,0,1.1,1.1h2.283a1.1,1.1,0,0,0,1.1-1.1v-2.568a1.8,1.8,0,0,1,1.178-1.684c.251-.092.5-.2.75-.31a1.812,1.812,0,0,1,2.035.353l1.816,1.816a1.123,1.123,0,0,0,1.552,0l1.615-1.615a1.1,1.1,0,0,0,0-1.552l-1.816-1.816a1.81,1.81,0,0,1-.353-2.035c.113-.244.218-.5.31-.749a1.8,1.8,0,0,1,1.684-1.178h2.568a1.1,1.1,0,0,0,1.1-1.1v-2.283a1.1,1.1,0,0,0-1.1-1.1h-2.568a1.8,1.8,0,0,1-1.684-1.178c-.093-.255-.2-.507-.31-.75a1.811,1.811,0,0,1,.353-2.035l1.816-1.816a1.1,1.1,0,0,0,0-1.552l-1.615-1.615a1.1,1.1,0,0,0-1.552,0l-1.816,1.816a1.81,1.81,0,0,1-2.036.353c-.242-.112-.494-.217-.749-.311a1.8,1.8,0,0,1-1.178-1.684v-2.568a1.1,1.1,0,0,0-1.1-1.1H171.09a1.1,1.1,0,0,0-1.1,1.1v2.568a1.8,1.8,0,0,1-1.178,1.684c-.255.094-.507.2-.75.311a1.81,1.81,0,0,1-2.035-.353l-1.816-1.816a1.1,1.1,0,0,0-1.552,0l-1.614,1.615a1.1,1.1,0,0,0,0,1.552l1.816,1.816a1.81,1.81,0,0,1,.353,2.035c-.112.243-.217.5-.311.75a1.8,1.8,0,0,1-1.684,1.178h-2.568a1.1,1.1,0,0,0-1.1,1.1v2.283a1.1,1.1,0,0,0,1.1,1.1h2.568a1.8,1.8,0,0,1,1.684,1.178c.093.253.2.505.31.75a1.81,1.81,0,0,1-.353,2.035l-1.816,1.816a1.1,1.1,0,0,0,0,1.552l1.614,1.615a1.124,1.124,0,0,0,1.552,0l1.816-1.816A1.8,1.8,0,0,1,167.3,345.314Zm4.931-.763a8.084,8.084,0,1,1,8.084-8.084A8.093,8.093,0,0,1,172.231,344.551Zm0-15.472a7.388,7.388,0,1,0,7.388,7.388A7.4,7.4,0,0,0,172.231,329.079Z" transform="translate(-156.859 -321.095)" fill="#fff"/>
            </g>
          </g>
        </g>
        <g id="Group_9696" data-name="Group 9696" transform="translate(0 19.438)">
          <g id="Group_9691" data-name="Group 9691" transform="translate(91.671 39.32)" opacity="0.81">
            <path id="Path_23566" data-name="Path 23566" d="M407.282,299.618h-4.539a.348.348,0,1,1,0-.7h4.539a.348.348,0,0,1,0,.7Z" transform="translate(-381.949 -289.69)" fill="#fff"/>
            <path id="Path_23567" data-name="Path 23567" d="M407.282,321.1h-4.539a.348.348,0,1,1,0-.7h4.539a.348.348,0,1,1,0,.7Z" transform="translate(-381.949 -303.693)" fill="#fff"/>
            <g id="Group_9690" data-name="Group 9690">
              <g id="Group_9689" data-name="Group 9689">
                <g id="Group_9688" data-name="Group 9688">
                  <path id="Path_23568" data-name="Path 23568" d="M372.214,297.37h-27.6a.945.945,0,0,1-.944-.944V273.352a.945.945,0,0,1,.944-.944h27.6a.945.945,0,0,1,.944.944v23.073A.945.945,0,0,1,372.214,297.37Zm-27.6-24.265a.248.248,0,0,0-.248.248v23.073a.248.248,0,0,0,.248.248h27.6a.248.248,0,0,0,.248-.248V273.352a.248.248,0,0,0-.248-.248Z" transform="translate(-343.672 -272.408)" fill="#fff"/>
                  <path id="Path_23569" data-name="Path 23569" d="M372.214,297.37h-27.6a.945.945,0,0,1-.944-.944V273.352a.945.945,0,0,1,.944-.944h27.6a.945.945,0,0,1,.944.944v23.073A.945.945,0,0,1,372.214,297.37Zm-27.6-24.265a.248.248,0,0,0-.248.248v23.073a.248.248,0,0,0,.248.248h27.6a.248.248,0,0,0,.248-.248V273.352a.248.248,0,0,0-.248-.248Z" transform="translate(-343.672 -272.408)" fill="#fff" opacity="0.66"/>
                </g>
              </g>
              <path id="Path_23570" data-name="Path 23570" d="M375.287,289.192h-21.63a.348.348,0,1,1,0-.7h21.63a.348.348,0,1,1,0,.7Z" transform="translate(-349.954 -282.894)" fill="#fff"/>
              <path id="Path_23571" data-name="Path 23571" d="M375.287,310.043h-21.63a.348.348,0,1,1,0-.7h21.63a.348.348,0,0,1,0,.7Z" transform="translate(-349.954 -296.486)" fill="#fff"/>
              <path id="Path_23572" data-name="Path 23572" d="M365.319,299.618H353.657a.348.348,0,1,1,0-.7h11.662a.348.348,0,0,1,0,.7Z" transform="translate(-349.954 -289.69)" fill="#fff"/>
              <path id="Path_23573" data-name="Path 23573" d="M365.319,321.1H353.657a.348.348,0,1,1,0-.7h11.662a.348.348,0,0,1,0,.7Z" transform="translate(-349.954 -303.693)" fill="#fff"/>
              <path id="Path_23574" data-name="Path 23574" d="M361.521,331.052h-7.864a.348.348,0,1,1,0-.7h7.864a.348.348,0,1,1,0,.7Z" transform="translate(-349.954 -310.18)" fill="#fff"/>
            </g>
          </g>
          <g id="Group_9695" data-name="Group 9695" opacity="0.81">
            <path id="Path_23575" data-name="Path 23575" d="M152.505,190.256h-5.15a.348.348,0,1,1,0-.7h5.15a.348.348,0,1,1,0,.7Z" transform="translate(-123.81 -179.086)" fill="#fff"/>
            <path id="Path_23576" data-name="Path 23576" d="M152.505,214.629h-5.15a.348.348,0,0,1,0-.7h5.15a.348.348,0,0,1,0,.7Z" transform="translate(-123.81 -194.973)" fill="#fff"/>
            <g id="Group_9694" data-name="Group 9694">
              <g id="Group_9693" data-name="Group 9693">
                <g id="Group_9692" data-name="Group 9692">
                  <path id="Path_23577" data-name="Path 23577" d="M112.8,187.7H81.328a.945.945,0,0,1-.944-.944V160.423a.945.945,0,0,1,.944-.944H112.8a.945.945,0,0,1,.944.944v26.338A.945.945,0,0,1,112.8,187.7ZM81.328,160.175a.248.248,0,0,0-.248.248v26.338a.248.248,0,0,0,.248.248H112.8a.248.248,0,0,0,.248-.248V160.423a.248.248,0,0,0-.248-.248Z" transform="translate(-80.384 -159.479)" fill="#fff"/>
                  <path id="Path_23578" data-name="Path 23578" d="M112.8,187.7H81.328a.945.945,0,0,1-.944-.944V160.423a.945.945,0,0,1,.944-.944H112.8a.945.945,0,0,1,.944.944v26.338A.945.945,0,0,1,112.8,187.7ZM81.328,160.175a.248.248,0,0,0-.248.248v26.338a.248.248,0,0,0,.248.248H112.8a.248.248,0,0,0,.248-.248V160.423a.248.248,0,0,0-.248-.248Z" transform="translate(-80.384 -159.479)" fill="#fff" opacity="0.66"/>
                </g>
              </g>
              <path id="Path_23579" data-name="Path 23579" d="M116.205,178.427H91.665a.348.348,0,1,1,0-.7h24.54a.348.348,0,0,1,0,.7Z" transform="translate(-87.51 -171.376)" fill="#fff"/>
              <path id="Path_23580" data-name="Path 23580" d="M116.205,202.084H91.665a.348.348,0,1,1,0-.7h24.54a.348.348,0,0,1,0,.7Z" transform="translate(-87.51 -186.796)" fill="#fff"/>
              <path id="Path_23581" data-name="Path 23581" d="M104.9,190.256H91.665a.348.348,0,1,1,0-.7H104.9a.348.348,0,1,1,0,.7Z" transform="translate(-87.51 -179.086)" fill="#fff"/>
              <path id="Path_23582" data-name="Path 23582" d="M104.9,214.629H91.665a.348.348,0,1,1,0-.7H104.9a.348.348,0,1,1,0,.7Z" transform="translate(-87.51 -194.973)" fill="#fff"/>
              <path id="Path_23583" data-name="Path 23583" d="M100.588,225.92H91.665a.348.348,0,1,1,0-.7h8.922a.348.348,0,1,1,0,.7Z" transform="translate(-87.51 -202.333)" fill="#fff"/>
            </g>
          </g>
        </g>
      </g>
      <g id="Group_9703" data-name="Group 9703" transform="translate(0 39.8)">
        <g id="Group_9699" data-name="Group 9699" transform="translate(81.201)">
          <g id="Group_9698" data-name="Group 9698">
            <path id="Path_23584" data-name="Path 23584" d="M342.093,158.019h-15.65a1.678,1.678,0,0,0-1.553,1.274l-.518,1.72a1.679,1.679,0,0,1-1.553,1.274h-22.4a1.784,1.784,0,0,0-1.644,1.9h0v25.366a1.784,1.784,0,0,0,1.644,1.9h41.677a1.83,1.83,0,0,0,1.755-1.9V159.916A1.83,1.83,0,0,0,342.093,158.019Z" transform="translate(-298.772 -158.019)" fill="#934665"/>
            <path id="Path_23585" data-name="Path 23585" d="M326.1,165.439l.554-1.72a1.77,1.77,0,0,1,1.657-1.274h13.777a1.83,1.83,0,0,1,1.755,1.9v29.633a1.83,1.83,0,0,1-1.755,1.9H300.527a1.83,1.83,0,0,1-1.755-1.9V168.609a1.83,1.83,0,0,1,1.755-1.9h23.92A1.77,1.77,0,0,0,326.1,165.439Z" transform="translate(-298.772 -160.904)" fill="#f34d4d"/>
            <path id="Path_23586" data-name="Path 23586" d="M331.97,170.781l.522-1.621a1.669,1.669,0,0,1,1.563-1.2h12.986a1.725,1.725,0,0,1,1.654,1.788v27.931a1.725,1.725,0,0,1-1.654,1.788H307.862a1.725,1.725,0,0,1-1.654-1.788V173.769a1.725,1.725,0,0,1,1.654-1.788h22.546A1.668,1.668,0,0,0,331.97,170.781Z" transform="translate(-303.619 -164.498)" fill="#faabab" opacity="0.12"/>
          </g>
          <path id="Path_23587" data-name="Path 23587" d="M394.695,232.83H384.413a.348.348,0,0,1,0-.7h10.282a1.2,1.2,0,0,0,1.2-1.2v-8.156a.348.348,0,0,1,.7,0v8.156A1.9,1.9,0,0,1,394.695,232.83Z" transform="translate(-354.368 -200.001)" fill="#f34d4d"/>
        </g>
        <g id="Group_9702" data-name="Group 9702" transform="translate(0 28.849)">
          <g id="Group_9701" data-name="Group 9701">
            <g id="Group_9700" data-name="Group 9700">
              <path id="Path_23588" data-name="Path 23588" d="M67.321,240.875H83.072a1.744,1.744,0,0,1,1.562,1.433l.522,1.935a1.744,1.744,0,0,0,1.563,1.432h22.548a1.94,1.94,0,0,1,1.654,2.134h0v28.534a1.94,1.94,0,0,1-1.654,2.134H67.321a1.976,1.976,0,0,1-1.766-2.134V243.009A1.976,1.976,0,0,1,67.321,240.875Z" transform="translate(-65.555 -240.875)" fill="#f28393"/>
              <path id="Path_23589" data-name="Path 23589" d="M83.413,249.222l-.557-1.935a1.825,1.825,0,0,0-1.668-1.433H67.321a1.976,1.976,0,0,0-1.766,2.134v33.334a1.976,1.976,0,0,0,1.766,2.134h41.834a1.976,1.976,0,0,0,1.766-2.134V252.788a1.976,1.976,0,0,0-1.766-2.134H85.081A1.825,1.825,0,0,1,83.413,249.222Z" transform="translate(-65.555 -244.12)" fill="#fff" opacity="0.12"/>
              <path id="Path_23590" data-name="Path 23590" d="M82.387,255.231l-.525-1.824a1.72,1.72,0,0,0-1.573-1.35H67.22a1.863,1.863,0,0,0-1.665,2.011v31.419A1.863,1.863,0,0,0,67.22,287.5h39.432a1.862,1.862,0,0,0,1.665-2.011V258.593a1.863,1.863,0,0,0-1.665-2.011H83.96A1.719,1.719,0,0,1,82.387,255.231Z" transform="translate(-65.555 -248.164)" fill="#fff" opacity="0.12"/>
            </g>
          </g>
          <path id="Path_23591" data-name="Path 23591" d="M74.215,264.131a.331.331,0,0,1-.312-.348V258.95a1.131,1.131,0,0,1,1.062-1.187h6.491a.35.35,0,0,1,0,.7H74.965a.467.467,0,0,0-.439.491v4.833A.331.331,0,0,1,74.215,264.131Z" transform="translate(-70.996 -251.883)" fill="#fff"/>
        </g>
      </g>
      <g id="Group_9718" data-name="Group 9718" transform="translate(21.363)">
        <g id="Group_9711" data-name="Group 9711" transform="translate(7.981)">
          <g id="Group_9705" data-name="Group 9705" transform="translate(0 9.906)">
            <g id="Group_9704" data-name="Group 9704">
              <rect id="Rectangle_4292" data-name="Rectangle 4292" width="71.651" height="26.908" rx="13.454" transform="translate(0 16.864)" fill="#bb3535"/>
              <circle id="Ellipse_2773" data-name="Ellipse 2773" cx="18.921" cy="18.921" r="18.921" transform="translate(16.905)" fill="#bb3535"/>
            </g>
          </g>
          <g id="Group_9706" data-name="Group 9706">
            <rect id="Rectangle_4293" data-name="Rectangle 4293" width="71.651" height="26.908" rx="13.454" transform="translate(0 22.806)" fill="#599af2"/>
            <circle id="Ellipse_2774" data-name="Ellipse 2774" cx="18.921" cy="18.921" r="18.921" transform="translate(10.962 14.973) rotate(-23.309)" fill="#599af2"/>
          </g>
          <g id="Group_9708" data-name="Group 9708">
            <g id="Group_9707" data-name="Group 9707">
              <rect id="Rectangle_4294" data-name="Rectangle 4294" width="71.651" height="26.908" rx="13.454" transform="translate(0 22.806)" fill="#f34d4d"/>
              <circle id="Ellipse_2775" data-name="Ellipse 2775" cx="18.921" cy="18.921" r="18.921" transform="translate(10.962 14.973) rotate(-23.309)" fill="#f34d4d"/>
            </g>
          </g>
          <g id="Group_9710" data-name="Group 9710" transform="translate(25.312 21.197)">
            <g id="Group_9709" data-name="Group 9709" transform="translate(5.219)">
              <path id="Path_23592" data-name="Path 23592" d="M238.39,111.072a.87.87,0,0,1-.61-1.491l5.078-4.992,5,5a.87.87,0,0,1-1.231,1.231l-3.777-3.776L239,110.822A.867.867,0,0,1,238.39,111.072Z" transform="translate(-237.52 -104.589)" fill="#fff"/>
              <path id="Path_23593" data-name="Path 23593" d="M251.1,118.66a.871.871,0,0,1-.87-.87v-11.31a.87.87,0,1,1,1.741,0v11.31A.87.87,0,0,1,251.1,118.66Z" transform="translate(-245.803 -105.254)" fill="#fff"/>
            </g>
            <path id="Path_23594" data-name="Path 23594" d="M241.272,141.571H224.687a2.159,2.159,0,0,1-2.156-2.156v-6.025a.87.87,0,1,1,1.741,0v6.025a.416.416,0,0,0,.415.415h16.585a.546.546,0,0,0,.546-.545v-5.9a.87.87,0,0,1,1.741,0v5.9A2.289,2.289,0,0,1,241.272,141.571Z" transform="translate(-222.531 -122.794)" fill="#fff"/>
          </g>
        </g>
        <g id="Group_9713" data-name="Group 9713" transform="translate(0 43.449)">
          <path id="Path_23595" data-name="Path 23595" d="M204.66,227l-47.465,15.682a2.214,2.214,0,0,1-2.8-1.407l-15.682-47.465a2.214,2.214,0,0,1,1.407-2.8l47.466-15.682a2.213,2.213,0,0,1,2.8,1.407L206.067,224.2A2.213,2.213,0,0,1,204.66,227Z" transform="translate(-134.533 -172.876)" fill="#4c65ba" opacity="0.36"/>
          <rect id="Rectangle_4295" data-name="Rectangle 4295" width="54.416" height="54.416" rx="6.357" transform="translate(0 17.071) rotate(-18.283)" fill="#fff"/>
          <g id="Group_9712" data-name="Group 9712" transform="translate(5.824 5.864)">
            <rect id="Rectangle_4296" data-name="Rectangle 4296" width="45.147" height="45.147" transform="translate(0 14.163) rotate(-18.283)" fill="#2d2d2d" opacity="0.37"/>
            <path id="Path_23596" data-name="Path 23596" d="M177.27,283.5l-3.207-9.706,4.69-11.305a3.246,3.246,0,0,1,3.978-1.864l8.682,2.7a1.159,1.159,0,0,0,1.342-.511l7.229-12.031a6.007,6.007,0,0,1,7.5-2.416l7.961,3.425.073.223,5.615,17-.5.163Zm-2.093-9.664,2.757,8.345,41.877-13.836L214.6,252.564l-7.529-3.239a4.958,4.958,0,0,0-6.188,1.994L193.65,263.35a2.2,2.2,0,0,1-2.547.971l-8.682-2.7a2.2,2.2,0,0,0-2.7,1.267Z" transform="translate(-163.47 -226.106)" fill="#fff" opacity="0.47"/>
            <path id="Path_23597" data-name="Path 23597" d="M213.97,233.372a5.558,5.558,0,1,1,1.739-.281A5.566,5.566,0,0,1,213.97,233.372Zm-.007-10.069a4.512,4.512,0,1,0,4.287,3.1A4.484,4.484,0,0,0,213.962,223.3Z" transform="translate(-185.858 -209.405)" fill="#fff" opacity="0.47"/>
          </g>
        </g>
        <g id="Group_9715" data-name="Group 9715" transform="translate(43.042 62.527)">
          <rect id="Rectangle_4297" data-name="Rectangle 4297" width="41.482" height="41.482" rx="6.357" transform="translate(2.105 2.105)" fill="#4c65ba" opacity="0.36"/>
          <rect id="Rectangle_4298" data-name="Rectangle 4298" width="41.482" height="41.482" rx="6.357" fill="#fff"/>
          <g id="Group_9714" data-name="Group 9714" transform="translate(3.034 3.533)">
            <rect id="Rectangle_4299" data-name="Rectangle 4299" width="34.417" height="34.417" transform="translate(0.475)" fill="#f7a9b4" opacity="0.39"/>
            <path id="Path_23598" data-name="Path 23598" d="M294.708,296.455H259.247v-7.962l6.129-7.1a2.6,2.6,0,0,1,3.492-.418l5.639,4.028a.761.761,0,0,0,.94-.042l8.109-6.979a4.7,4.7,0,0,1,6.167.045l4.985,4.42Zm-34.417-1.045h33.372V282.92l-4.634-4.108a3.656,3.656,0,0,0-4.793-.036l-8.109,6.979a1.8,1.8,0,0,1-2.228.1l-5.639-4.028a1.559,1.559,0,0,0-2.094.25l-5.874,6.8Z" transform="translate(-259.247 -261.739)" fill="#fff" opacity="0.47"/>
            <path id="Path_23599" data-name="Path 23599" d="M307.965,257.771a4.36,4.36,0,1,1,4.36-4.36A4.364,4.364,0,0,1,307.965,257.771Zm0-7.675a3.315,3.315,0,1,0,3.315,3.315A3.319,3.319,0,0,0,307.965,250.1Z" transform="translate(-288.16 -243.616)" fill="#fff" opacity="0.47"/>
          </g>
        </g>
        <g id="Group_9717" data-name="Group 9717" transform="translate(23.79 83.002)">
          <rect id="Rectangle_4300" data-name="Rectangle 4300" width="26.797" height="26.797" rx="6.357" transform="translate(1.751 10.198) rotate(-20.54)" fill="#4c65ba" opacity="0.36"/>
          <rect id="Rectangle_4301" data-name="Rectangle 4301" width="26.797" height="26.797" rx="6.357" transform="translate(0 9.402) rotate(-20.54)" fill="#fff"/>
          <g id="Group_9716" data-name="Group 9716" transform="translate(2.923 2.943)">
            <rect id="Rectangle_4302" data-name="Rectangle 4302" width="22.232" height="22.232" rx="6" transform="matrix(0.936, -0.351, 0.351, 0.936, 0, 7.801)" fill="#f44d4d" opacity="0.35"/>
            <path id="Path_23600" data-name="Path 23600" d="M221.553,339.3l-1.894-5.054,2.123-5.746a1.862,1.862,0,0,1,2.238-1.158l4.324,1.158a.306.306,0,0,0,.349-.149l3.323-6.06a3.226,3.226,0,0,1,3.97-1.454l4.095,1.574,3.268,8.723Zm-.779-5.057,1.391,3.712,19.841-7.434-2.737-7.3-3.656-1.4a2.175,2.175,0,0,0-2.679.981l-3.324,6.06a1.349,1.349,0,0,1-1.535.656l-4.325-1.159a.82.82,0,0,0-.988.511Z" transform="translate(-214.079 -310.156)" fill="#fff" opacity="0.47"/>
            <path id="Path_23601" data-name="Path 23601" d="M237.978,314.775a3,3,0,1,1,2.807-4.054h0a3,3,0,0,1-2.807,4.054Zm-.006-4.958a1.957,1.957,0,1,0,1.834,1.271A1.949,1.949,0,0,0,237.972,309.817Z" transform="translate(-224.061 -302.428)" fill="#fff" opacity="0.47"/>
          </g>
        </g>
      </g>
    </g>
  </g>
</svg>
