<svg xmlns="http://www.w3.org/2000/svg" width="8.55" height="6.037" viewBox="0 0 8.55 6.037">
  <g id="Group_11357" data-name="Group 11357" transform="translate(-341.68 -446.75)">
    <g id="Iconly_Light-outline_Arrow_-_Right_2" data-name="Iconly/Light-outline/Arrow - Right 2" transform="translate(349.96 447) rotate(90)">
      <g id="Arrow_-_Right_2" data-name="Arrow - Right 2" transform="translate(0 0)">
        <path id="Arrow_-_Right_2-2" data-name="Arrow - Right 2" d="M.151,7.877A.352.352,0,0,1,.1,7.341l.05-.046L4.29,4,.151.7A.352.352,0,0,1,.1.167L.151.12A.618.618,0,0,1,.824.081L.882.12l4.5,3.587a.352.352,0,0,1,.05.536l-.05.046L.882,7.877A.614.614,0,0,1,.151,7.877Z" transform="translate(0 0)" fill="#f34d4d" stroke="#f34d4d" stroke-width="0.5"/>
      </g>
    </g>
  </g>
</svg>
